<svg xmlns="http://www.w3.org/2000/svg" width="24" height="24" fill="currentColor"><path fill="url(#icon-b1637d826a335970__icon-54103b972aa0b560__a)" fill-rule="evenodd" d="M4 7a1.5 1.5 0 1 1 3 0v1h10V7a1.5 1.5 0 0 1 3 0v4.498a6.456 6.456 0 0 0-1-.324V7a.5.5 0 0 0-1 0v4.019a6.62 6.62 0 0 0-1 0V9H7v6h4.498a6.456 6.456 0 0 0-.324 1H7v1a1.5 1.5 0 0 1-3 0V7Zm2 0v10a.5.5 0 0 1-1 0V7a.5.5 0 0 1 1 0Z" clip-rule="evenodd"/><path fill="url(#icon-16c52fd8a97b0374__icon-2b687539d9864506__b)" fill-rule="evenodd" d="M17.5 12a5.5 5.5 0 1 1 0 11 5.5 5.5 0 0 1 0-11Zm.501 8.503V18h2.496a.5.5 0 0 0 0-1H18v-2.5a.5.5 0 1 0-1 0V17h-2.504a.5.5 0 0 0 0 1H17v2.503a.5.5 0 1 0 1 0Z" clip-rule="evenodd"/><defs><linearGradient id="icon-b1637d826a335970__icon-54103b972aa0b560__a" x1="4" x2="21.441" y1="5.5" y2="24.436" gradientUnits="userSpaceOnUse"><stop stop-color="#209782"/><stop offset="1" stop-color="#0C695A"/></linearGradient><linearGradient id="icon-16c52fd8a97b0374__icon-2b687539d9864506__b" x1="4" x2="21.441" y1="5.5" y2="24.436" gradientUnits="userSpaceOnUse"><stop stop-color="#209782"/><stop offset="1" stop-color="#0C695A"/></linearGradient></defs></svg>