<svg xmlns="http://www.w3.org/2000/svg" width="40" height="40" fill="currentColor"><path fill="url(#icon-7c846cc245e577f8__icon-22e1dcd707999e33__a)" fill-rule="evenodd" d="M7 10.5a1.5 1.5 0 1 1 3 0V13h20v-2.5a1.5 1.5 0 0 1 3 0v11.012a8.939 8.939 0 0 0-1-.289V10.5a.5.5 0 0 0-1 0v10.555A9.098 9.098 0 0 0 30 21v-7H10v12h11.936c-.16.323-.302.657-.424 1H10v2.5a1.5 1.5 0 0 1-3 0v-19Zm2 0v19a.5.5 0 0 1-1 0v-19a.5.5 0 0 1 1 0Z" clip-rule="evenodd"/><path fill="url(#icon-2219d42dd92e1490__icon-52d2921cbf3d5eb8__b)" fill-rule="evenodd" d="M38 30a8 8 0 1 1-16 0 8 8 0 0 1 16 0Zm-8-5a.5.5 0 0 1 .5.5v4h4a.5.5 0 0 1 0 1h-4v4a.5.5 0 0 1-1 0v-4h-4a.5.5 0 0 1 0-1h4v-4a.5.5 0 0 1 .5-.5Z" clip-rule="evenodd"/><defs><linearGradient id="icon-7c846cc245e577f8__icon-22e1dcd707999e33__a" x1="7" x2="35.936" y1="9" y2="39.931" gradientUnits="userSpaceOnUse"><stop stop-color="#209782"/><stop offset="1" stop-color="#0C695A"/></linearGradient><linearGradient id="icon-2219d42dd92e1490__icon-52d2921cbf3d5eb8__b" x1="7" x2="35.936" y1="9" y2="39.931" gradientUnits="userSpaceOnUse"><stop stop-color="#209782"/><stop offset="1" stop-color="#0C695A"/></linearGradient></defs></svg>