<svg xmlns="http://www.w3.org/2000/svg" width="32" height="32" fill="currentColor"><path fill="url(#icon-78e60f8ac1ebcff2__icon-2a843567b978ba73__a)" fill-rule="evenodd" d="M5 7.5a1.5 1.5 0 1 1 3 0v2h16v-2a1.5 1.5 0 0 1 3 0v9.081a7.95 7.95 0 0 0-1-.329V7.5a.5.5 0 0 0-1 0v8.562A8.069 8.069 0 0 0 24 16v-5.5H8v9h9.385c-.217.318-.411.652-.58 1H8v2a1.5 1.5 0 0 1-3 0v-15Zm2 0v15a.5.5 0 0 1-1 0v-15a.5.5 0 0 1 1 0Z" clip-rule="evenodd"/><path fill="url(#icon-31b393ae6b81077c__icon-37f0be46c633c6fb__b)" fill-rule="evenodd" d="M24 31a7 7 0 1 0 0-14 7 7 0 0 0 0 14Zm0-11a.5.5 0 0 1 .5.5v3h3a.5.5 0 0 1 0 1h-3v3a.5.5 0 0 1-1 0v-3h-3a.5.5 0 0 1 0-1h3v-3a.5.5 0 0 1 .5-.5Z" clip-rule="evenodd"/><defs><linearGradient id="icon-78e60f8ac1ebcff2__icon-2a843567b978ba73__a" x1="5" x2="29.981" y1="6" y2="31.98" gradientUnits="userSpaceOnUse"><stop stop-color="#209782"/><stop offset="1" stop-color="#0C695A"/></linearGradient><linearGradient id="icon-31b393ae6b81077c__icon-37f0be46c633c6fb__b" x1="5" x2="29.981" y1="6" y2="31.98" gradientUnits="userSpaceOnUse"><stop stop-color="#209782"/><stop offset="1" stop-color="#0C695A"/></linearGradient></defs></svg>