<svg xmlns="http://www.w3.org/2000/svg" width="64" height="64" fill="currentColor"><path fill="url(#icon-f1c00329452e6f32__icon-9a524380d3751ab3__a)" fill-rule="evenodd" d="M13 14a2 2 0 0 0-2 2v32a2 2 0 1 0 4 0v-5.5h24.332c.177-.343.37-.677.58-1H15v-20h34v14.541c.33-.027.663-.041 1-.041V16a1 1 0 1 1 2 0v20.166c.338.057.672.128 1 .212V16a2 2 0 1 0-4 0v4.5H15V16a2 2 0 0 0-2-2Zm1 34V16a1 1 0 1 0-2 0v32a1 1 0 1 0 2 0Z" clip-rule="evenodd"/><path fill="url(#icon-33bd576ec24a74b6__icon-40150e29949a3baa__b)" fill-rule="evenodd" d="M61 48c0 6.075-4.925 11-11 11s-11-4.925-11-11 4.925-11 11-11 11 4.925 11 11Zm-11-6.5a.5.5 0 0 1 .5.5v5.5H56a.5.5 0 0 1 0 1h-5.5V54a.5.5 0 0 1-1 0v-5.5H44a.5.5 0 0 1 0-1h5.5V42a.5.5 0 0 1 .5-.5Z" clip-rule="evenodd"/><defs><linearGradient id="icon-f1c00329452e6f32__icon-9a524380d3751ab3__a" x1="11" x2="55.751" y1="14" y2="63.724" gradientUnits="userSpaceOnUse"><stop stop-color="#209782"/><stop offset="1" stop-color="#0C695A"/></linearGradient><linearGradient id="icon-33bd576ec24a74b6__icon-40150e29949a3baa__b" x1="11" x2="55.751" y1="14" y2="63.724" gradientUnits="userSpaceOnUse"><stop stop-color="#209782"/><stop offset="1" stop-color="#0C695A"/></linearGradient></defs></svg>