<svg xmlns="http://www.w3.org/2000/svg" width="48" height="48" fill="currentColor"><path fill="url(#icon-ed0918636fdac891__icon-14daa2152e7cf371__a)" d="M5 10a5 5 0 0 1 5-5h28a5 5 0 0 1 5 5v28a5 5 0 0 1-5 5H10a5 5 0 0 1-5-5V10Z"/><path fill="url(#icon-7420e7bb544be2f8__icon-e62f49dba88a5088__b)" fill-opacity=".2" d="M5 10a5 5 0 0 1 5-5h28a5 5 0 0 1 5 5v28a5 5 0 0 1-5 5H10a5 5 0 0 1-5-5V10Z"/><path fill="url(#icon-35b7a5c08f169eba__icon-17abcad7672480c8__c)" fill-rule="evenodd" d="M38 6H10a4 4 0 0 0-4 4v28a4 4 0 0 0 4 4h28a4 4 0 0 0 4-4V10a4 4 0 0 0-4-4ZM10 5a5 5 0 0 0-5 5v28a5 5 0 0 0 5 5h28a5 5 0 0 0 5-5V10a5 5 0 0 0-5-5H10Z" clip-rule="evenodd"/><path fill="url(#icon-7524815e3eb61a92__icon-142a2d2dcc6f0afe__d)" d="M24.75 15.106a1.5 1.5 0 0 0-1.5 0l-2.898 1.672a1.5 1.5 0 0 0-.75 1.3v3.345a1.5 1.5 0 0 0 .75 1.299l2.898 1.672a1.5 1.5 0 0 0 1.5 0l2.897-1.672a1.5 1.5 0 0 0 .75-1.3v-3.345a1.5 1.5 0 0 0-.75-1.299l-2.897-1.672Z"/><path fill="url(#icon-efed74e3a92716dd__icon-bae041eee1c35507__e)" fill-rule="evenodd" d="M19.75 23.856a1.5 1.5 0 0 0-1.5 0l-2.898 1.672a1.5 1.5 0 0 0-.75 1.3v3.345a1.5 1.5 0 0 0 .75 1.299l2.898 1.672a1.5 1.5 0 0 0 1.5 0l2.897-1.672a1.5 1.5 0 0 0 .75-1.3v-3.345a1.5 1.5 0 0 0-.75-1.299l-2.897-1.672Zm-1 .866a.5.5 0 0 1 .5 0l2.897 1.672a.5.5 0 0 1 .25.433v3.346a.5.5 0 0 1-.25.433l-2.897 1.672a.5.5 0 0 1-.5 0l-2.898-1.672a.5.5 0 0 1-.25-.433v-3.346a.5.5 0 0 1 .25-.433l2.898-1.672Z" clip-rule="evenodd"/><path fill="url(#icon-49bafdd63fc64519__icon-ae8d109a54134ac0__f)" d="M29.75 23.856a1.5 1.5 0 0 0-1.5 0l-2.898 1.672a1.5 1.5 0 0 0-.75 1.3v3.345a1.5 1.5 0 0 0 .75 1.299l2.898 1.672a1.5 1.5 0 0 0 1.5 0l2.897-1.672a1.5 1.5 0 0 0 .75-1.3v-3.345a1.5 1.5 0 0 0-.75-1.299l-2.897-1.672Z"/><defs><linearGradient id="icon-ed0918636fdac891__icon-14daa2152e7cf371__a" x1="15.556" x2="20.362" y1="5" y2="43.455" gradientUnits="userSpaceOnUse"><stop stop-color="#fff"/><stop offset="1" stop-color="#EBEBEB"/></linearGradient><linearGradient id="icon-35b7a5c08f169eba__icon-17abcad7672480c8__c" x1="17.271" x2="22.387" y1="5" y2="43.373" gradientUnits="userSpaceOnUse"><stop stop-color="#BBB"/><stop offset="1" stop-color="#888"/></linearGradient><linearGradient id="icon-7524815e3eb61a92__icon-142a2d2dcc6f0afe__d" x1="14.602" x2="33.04" y1="14.905" y2="33.696" gradientUnits="userSpaceOnUse"><stop stop-color="#4BA446"/><stop offset="1" stop-color="#3F7D35"/></linearGradient><linearGradient id="icon-efed74e3a92716dd__icon-bae041eee1c35507__e" x1="14.602" x2="33.04" y1="14.905" y2="33.696" gradientUnits="userSpaceOnUse"><stop stop-color="#4BA446"/><stop offset="1" stop-color="#3F7D35"/></linearGradient><linearGradient id="icon-49bafdd63fc64519__icon-ae8d109a54134ac0__f" x1="14.602" x2="33.04" y1="14.905" y2="33.696" gradientUnits="userSpaceOnUse"><stop stop-color="#4BA446"/><stop offset="1" stop-color="#3F7D35"/></linearGradient><radialGradient id="icon-7420e7bb544be2f8__icon-e62f49dba88a5088__b" cx="0" cy="0" r="1" gradientTransform="rotate(56.31 -5.347 23.46) scale(36.1557 31.2886)" gradientUnits="userSpaceOnUse"><stop offset=".177" stop-color="#fff"/><stop offset="1" stop-color="#B8B8B8"/></radialGradient></defs></svg>