<svg xmlns="http://www.w3.org/2000/svg" width="20" height="20" fill="currentColor"><path fill="url(#icon-570d25d8fde40338__icon-f1831a4e51f5a324__a)" d="M2 4.5A2.5 2.5 0 0 1 4.5 2h11A2.5 2.5 0 0 1 18 4.5v11a2.5 2.5 0 0 1-2.5 2.5h-11A2.5 2.5 0 0 1 2 15.5v-11Z"/><path fill="url(#icon-2410029013630edb__icon-6873c2ae5b9c9b09__b)" fill-opacity=".2" d="M2 4.5A2.5 2.5 0 0 1 4.5 2h11A2.5 2.5 0 0 1 18 4.5v11a2.5 2.5 0 0 1-2.5 2.5h-11A2.5 2.5 0 0 1 2 15.5v-11Z"/><path fill="url(#icon-8b7c58dd5b1fa1a5__icon-7df2295ece077f6c__c)" fill-rule="evenodd" d="M15.5 3h-11A1.5 1.5 0 0 0 3 4.5v11A1.5 1.5 0 0 0 4.5 17h11a1.5 1.5 0 0 0 1.5-1.5v-11A1.5 1.5 0 0 0 15.5 3Zm-11-1A2.5 2.5 0 0 0 2 4.5v11A2.5 2.5 0 0 0 4.5 18h11a2.5 2.5 0 0 0 2.5-2.5v-11A2.5 2.5 0 0 0 15.5 2h-11Z" clip-rule="evenodd"/><path fill="url(#icon-f1b697e19d2997c7__icon-0ebc648974c792a3__d)" fill-rule="evenodd" d="M5.5 12.42a1 1 0 0 0 .498.865l1 .58a1 1 0 0 0 1.004 0l1-.58a1 1 0 0 0 .498-.865v-1.164a1 1 0 0 0-.498-.865l-1-.58a1 1 0 0 0-1.004 0l-1 .58a1 1 0 0 0-.498.865v1.164Zm1 0v-1.164l1-.58 1 .58v1.164l-1 .58-1-.58Z" clip-rule="evenodd"/><path fill="url(#icon-d87e396a4c0defa7__icon-cbbb81fa9d29fe70__e)" d="M8.498 8.955A1 1 0 0 1 8 8.09V6.926a1 1 0 0 1 .498-.865l1-.58a1 1 0 0 1 1.004 0l1 .58a1 1 0 0 1 .498.865V8.09a1 1 0 0 1-.498.865l-1 .58a1 1 0 0 1-1.004 0l-1-.58Z"/><path fill="url(#icon-fb01757ed530783c__icon-e47d6bd670a39500__f)" d="M10.998 13.285a1 1 0 0 1-.498-.865v-1.164a1 1 0 0 1 .498-.865l1-.58a1 1 0 0 1 1.004 0l1 .58a1 1 0 0 1 .498.865v1.164a1 1 0 0 1-.498.865l-1 .58a1 1 0 0 1-1.004 0l-1-.58Z"/><defs><linearGradient id="icon-570d25d8fde40338__icon-f1831a4e51f5a324__a" x1="6.444" x2="8.468" y1="2" y2="18.192" gradientUnits="userSpaceOnUse"><stop stop-color="#fff"/><stop offset="1" stop-color="#EBEBEB"/></linearGradient><linearGradient id="icon-8b7c58dd5b1fa1a5__icon-7df2295ece077f6c__c" x1="7.167" x2="9.321" y1="2" y2="18.157" gradientUnits="userSpaceOnUse"><stop stop-color="#BBB"/><stop offset="1" stop-color="#888"/></linearGradient><linearGradient id="icon-f1b697e19d2997c7__icon-0ebc648974c792a3__d" x1="5.5" x2="14.147" y1="5.346" y2="14.339" gradientUnits="userSpaceOnUse"><stop stop-color="#4BA446"/><stop offset="1" stop-color="#3F7D35"/></linearGradient><linearGradient id="icon-d87e396a4c0defa7__icon-cbbb81fa9d29fe70__e" x1="5.5" x2="14.147" y1="5.346" y2="14.339" gradientUnits="userSpaceOnUse"><stop stop-color="#4BA446"/><stop offset="1" stop-color="#3F7D35"/></linearGradient><linearGradient id="icon-fb01757ed530783c__icon-e47d6bd670a39500__f" x1="5.5" x2="14.147" y1="5.346" y2="14.339" gradientUnits="userSpaceOnUse"><stop stop-color="#4BA446"/><stop offset="1" stop-color="#3F7D35"/></linearGradient><radialGradient id="icon-2410029013630edb__icon-6873c2ae5b9c9b09__b" cx="0" cy="0" r="1" gradientTransform="rotate(56.31 -2.206 9.727) scale(15.2234 13.1741)" gradientUnits="userSpaceOnUse"><stop offset=".177" stop-color="#fff"/><stop offset="1" stop-color="#B8B8B8"/></radialGradient></defs></svg>