<svg xmlns="http://www.w3.org/2000/svg" width="40" height="40" fill="currentColor"><path fill="url(#icon-b423d8665a58eb85__icon-e62c222e2527f250__a)" d="M4 8a4 4 0 0 1 4-4h24a4 4 0 0 1 4 4v24a4 4 0 0 1-4 4H8a4 4 0 0 1-4-4V8Z"/><path fill="url(#icon-38218c0f83173b58__icon-721e4c09a913efb4__b)" fill-opacity=".2" d="M4 8a4 4 0 0 1 4-4h24a4 4 0 0 1 4 4v24a4 4 0 0 1-4 4H8a4 4 0 0 1-4-4V8Z"/><path fill="url(#icon-f4fac4e67f6e57c5__icon-777e07456a062b24__c)" fill-rule="evenodd" d="M32 5H8a3 3 0 0 0-3 3v24a3 3 0 0 0 3 3h24a3 3 0 0 0 3-3V8a3 3 0 0 0-3-3ZM8 4a4 4 0 0 0-4 4v24a4 4 0 0 0 4 4h24a4 4 0 0 0 4-4V8a4 4 0 0 0-4-4H8Z" clip-rule="evenodd"/><path fill="url(#icon-3bd0593aba3641d2__icon-6c4c6fd80d94665a__d)" fill-rule="evenodd" d="M11.5 25.165c0 .447.239.86.626 1.083l2.75 1.585a1.25 1.25 0 0 0 1.248 0l2.75-1.585a1.25 1.25 0 0 0 .626-1.083v-3.17c0-.447-.238-.86-.626-1.083l-2.75-1.586a1.25 1.25 0 0 0-1.248 0l-2.75 1.586a1.25 1.25 0 0 0-.626 1.083v3.17Zm1.125.216a.25.25 0 0 1-.125-.216v-3.17a.25.25 0 0 1 .125-.217l2.75-1.585a.25.25 0 0 1 .25 0l2.75 1.585a.25.25 0 0 1 .125.217v3.17a.25.25 0 0 1-.125.216l-2.75 1.586a.25.25 0 0 1-.25 0l-2.75-1.586Z" clip-rule="evenodd"/><path fill="url(#icon-11288c4c42434141__icon-8d10224c72877cb8__e)" d="M16.626 18.487A1.25 1.25 0 0 1 16 17.404v-3.17c0-.447.238-.86.626-1.083l2.75-1.585a1.25 1.25 0 0 1 1.248 0l2.75 1.585c.388.223.626.636.626 1.083v3.17c0 .447-.238.86-.626 1.083l-2.75 1.586a1.25 1.25 0 0 1-1.248 0l-2.75-1.586Z"/><path fill="url(#icon-d3298a3daaa28c65__icon-f8c8df33782df5ce__f)" d="M21.126 26.248a1.25 1.25 0 0 1-.626-1.083v-3.17c0-.447.238-.86.626-1.083l2.75-1.586a1.25 1.25 0 0 1 1.248 0l2.75 1.586c.388.223.626.636.626 1.083v3.17c0 .447-.238.86-.626 1.083l-2.75 1.585a1.25 1.25 0 0 1-1.248 0l-2.75-1.585Z"/><defs><linearGradient id="icon-b423d8665a58eb85__icon-e62c222e2527f250__a" x1="12.889" x2="16.937" y1="4" y2="36.383" gradientUnits="userSpaceOnUse"><stop stop-color="#fff"/><stop offset="1" stop-color="#EBEBEB"/></linearGradient><linearGradient id="icon-f4fac4e67f6e57c5__icon-777e07456a062b24__c" x1="14.333" x2="18.642" y1="4" y2="36.314" gradientUnits="userSpaceOnUse"><stop stop-color="#BBB"/><stop offset="1" stop-color="#888"/></linearGradient><linearGradient id="icon-3bd0593aba3641d2__icon-6c4c6fd80d94665a__d" x1="11.5" x2="28.098" y1="11.398" y2="28.394" gradientUnits="userSpaceOnUse"><stop stop-color="#4BA446"/><stop offset="1" stop-color="#3F7D35"/></linearGradient><linearGradient id="icon-11288c4c42434141__icon-8d10224c72877cb8__e" x1="11.5" x2="28.098" y1="11.398" y2="28.394" gradientUnits="userSpaceOnUse"><stop stop-color="#4BA446"/><stop offset="1" stop-color="#3F7D35"/></linearGradient><linearGradient id="icon-d3298a3daaa28c65__icon-f8c8df33782df5ce__f" x1="11.5" x2="28.098" y1="11.398" y2="28.394" gradientUnits="userSpaceOnUse"><stop stop-color="#4BA446"/><stop offset="1" stop-color="#3F7D35"/></linearGradient><radialGradient id="icon-38218c0f83173b58__icon-721e4c09a913efb4__b" cx="0" cy="0" r="1" gradientTransform="rotate(56.31 -4.411 19.454) scale(30.4469 26.3483)" gradientUnits="userSpaceOnUse"><stop offset=".177" stop-color="#fff"/><stop offset="1" stop-color="#B8B8B8"/></radialGradient></defs></svg>