<svg xmlns="http://www.w3.org/2000/svg" width="24" height="24" fill="currentColor"><path fill="url(#icon-67f88338fec4a4c2__icon-2b6fee3085f2da55__a)" d="M2 5a3 3 0 0 1 3-3h14a3 3 0 0 1 3 3v14a3 3 0 0 1-3 3H5a3 3 0 0 1-3-3V5Z"/><path fill="url(#icon-8cf93c705c10a3cf__icon-f63047873ac848e0__b)" fill-opacity=".2" d="M2 5a3 3 0 0 1 3-3h14a3 3 0 0 1 3 3v14a3 3 0 0 1-3 3H5a3 3 0 0 1-3-3V5Z"/><path fill="url(#icon-ea3f29af08068cac__icon-81cdd5ee9943da30__c)" fill-rule="evenodd" d="M19 3H5a2 2 0 0 0-2 2v14a2 2 0 0 0 2 2h14a2 2 0 0 0 2-2V5a2 2 0 0 0-2-2ZM5 2a3 3 0 0 0-3 3v14a3 3 0 0 0 3 3h14a3 3 0 0 0 3-3V5a3 3 0 0 0-3-3H5Z" clip-rule="evenodd"/><path fill="url(#icon-9176b89773f95d32__icon-267955d96687f7eb__d)" d="M12.5 6.586a1 1 0 0 0-1 0l-1.665.961a1 1 0 0 0-.5.866v1.923a1 1 0 0 0 .5.866l1.665.962a1 1 0 0 0 1 0l1.665-.962a1 1 0 0 0 .5-.866V8.413a1 1 0 0 0-.5-.866l-1.665-.96Z"/><path fill="url(#icon-8391515634e96d50__icon-a49ea80ca5404fe0__e)" fill-rule="evenodd" d="M9.5 11.836a1 1 0 0 0-1 0l-1.665.961a1 1 0 0 0-.5.867v1.922a1 1 0 0 0 .5.866l1.665.961a1 1 0 0 0 1 0l1.665-.96a1 1 0 0 0 .5-.867v-1.922a1 1 0 0 0-.5-.867l-1.665-.96Zm-.5.866 1.665.962v1.922L9 16.547l-1.665-.96v-1.923L9 12.702Z" clip-rule="evenodd"/><path fill="url(#icon-0f5dafeb009924c3__icon-9fcd45a0bc231c53__f)" d="M15.5 11.836a1 1 0 0 0-1 0l-1.665.961a1 1 0 0 0-.5.867v1.922a1 1 0 0 0 .5.866l1.665.961a1 1 0 0 0 1 0l1.665-.96a1 1 0 0 0 .5-.867v-1.922a1 1 0 0 0-.5-.867l-1.665-.96Z"/><defs><linearGradient id="icon-67f88338fec4a4c2__icon-2b6fee3085f2da55__a" x1="7.556" x2="10.085" y1="2" y2="22.239" gradientUnits="userSpaceOnUse"><stop stop-color="#fff"/><stop offset="1" stop-color="#EBEBEB"/></linearGradient><linearGradient id="icon-ea3f29af08068cac__icon-81cdd5ee9943da30__c" x1="8.458" x2="11.151" y1="2" y2="22.197" gradientUnits="userSpaceOnUse"><stop stop-color="#BBB"/><stop offset="1" stop-color="#888"/></linearGradient><linearGradient id="icon-9176b89773f95d32__icon-267955d96687f7eb__d" x1="6.335" x2="17.428" y1="6.452" y2="17.78" gradientUnits="userSpaceOnUse"><stop stop-color="#4BA446"/><stop offset="1" stop-color="#3F7D35"/></linearGradient><linearGradient id="icon-8391515634e96d50__icon-a49ea80ca5404fe0__e" x1="6.335" x2="17.428" y1="6.452" y2="17.78" gradientUnits="userSpaceOnUse"><stop stop-color="#4BA446"/><stop offset="1" stop-color="#3F7D35"/></linearGradient><linearGradient id="icon-0f5dafeb009924c3__icon-9fcd45a0bc231c53__f" x1="6.335" x2="17.428" y1="6.452" y2="17.78" gradientUnits="userSpaceOnUse"><stop stop-color="#4BA446"/><stop offset="1" stop-color="#3F7D35"/></linearGradient><radialGradient id="icon-8cf93c705c10a3cf__icon-f63047873ac848e0__b" cx="0" cy="0" r="1" gradientTransform="rotate(56.31 -2.54 11.442) scale(19.0293 16.4677)" gradientUnits="userSpaceOnUse"><stop offset=".177" stop-color="#fff"/><stop offset="1" stop-color="#B8B8B8"/></radialGradient></defs></svg>