<svg xmlns="http://www.w3.org/2000/svg" width="32" height="32" fill="currentColor"><path fill="url(#icon-41704b2e30027a21__icon-a2b7c7006c51e69b__a)" d="M3 6.5A3.5 3.5 0 0 1 6.5 3h19A3.5 3.5 0 0 1 29 6.5v19a3.5 3.5 0 0 1-3.5 3.5h-19A3.5 3.5 0 0 1 3 25.5v-19Z"/><path fill="url(#icon-6b2e5ac0016b0315__icon-d2c8358af4ef1b39__b)" fill-opacity=".2" d="M3 6.5A3.5 3.5 0 0 1 6.5 3h19A3.5 3.5 0 0 1 29 6.5v19a3.5 3.5 0 0 1-3.5 3.5h-19A3.5 3.5 0 0 1 3 25.5v-19Z"/><path fill="url(#icon-8f556d7e7663e7f2__icon-d7fea78f678c2145__c)" fill-rule="evenodd" d="M25.5 4h-19A2.5 2.5 0 0 0 4 6.5v19A2.5 2.5 0 0 0 6.5 28h19a2.5 2.5 0 0 0 2.5-2.5v-19A2.5 2.5 0 0 0 25.5 4Zm-19-1A3.5 3.5 0 0 0 3 6.5v19A3.5 3.5 0 0 0 6.5 29h19a3.5 3.5 0 0 0 3.5-3.5v-19A3.5 3.5 0 0 0 25.5 3h-19Z" clip-rule="evenodd"/><path fill="url(#icon-cb4b95b5cfca98ce__icon-d1ea336d20e5ccea__d)" fill-rule="evenodd" d="M9.998 20.527a1 1 0 0 1-.498-.865v-2.324a1 1 0 0 1 .498-.865l2-1.16a1 1 0 0 1 1.004 0l2 1.16a1 1 0 0 1 .498.865v2.324a1 1 0 0 1-.498.865l-2 1.16a1 1 0 0 1-1.004 0l-2-1.16Zm.502-3.189v2.324l2 1.16 2-1.16v-2.324l-2-1.16-2 1.16Z" clip-rule="evenodd"/><path fill="url(#icon-2a829cc7284cd691__icon-e061ef991f727625__e)" d="M16.998 20.527a1 1 0 0 1-.498-.865v-2.324a1 1 0 0 1 .498-.865l2-1.16a1 1 0 0 1 1.004 0l2 1.16a1 1 0 0 1 .498.865v2.324a1 1 0 0 1-.498.865l-2 1.16a1 1 0 0 1-1.004 0l-2-1.16Z"/><path fill="url(#icon-f339d817f68e21eb__icon-2f668f214ac96064__f)" d="M13 13.662a1 1 0 0 0 .498.865l2 1.16a1 1 0 0 0 1.004 0l2-1.16a1 1 0 0 0 .498-.865v-2.324a1 1 0 0 0-.498-.865l-2-1.16a1 1 0 0 0-1.004 0l-2 1.16a1 1 0 0 0-.498.865v2.324Z"/><defs><linearGradient id="icon-41704b2e30027a21__icon-a2b7c7006c51e69b__a" x1="10.222" x2="13.511" y1="3" y2="29.311" gradientUnits="userSpaceOnUse"><stop stop-color="#fff"/><stop offset="1" stop-color="#EBEBEB"/></linearGradient><linearGradient id="icon-8f556d7e7663e7f2__icon-d7fea78f678c2145__c" x1="11.396" x2="14.897" y1="3" y2="29.256" gradientUnits="userSpaceOnUse"><stop stop-color="#BBB"/><stop offset="1" stop-color="#888"/></linearGradient><linearGradient id="icon-cb4b95b5cfca98ce__icon-d1ea336d20e5ccea__d" x1="9.5" x2="22.139" y1="9.178" y2="22.173" gradientUnits="userSpaceOnUse"><stop stop-color="#4BA446"/><stop offset="1" stop-color="#3F7D35"/></linearGradient><linearGradient id="icon-2a829cc7284cd691__icon-e061ef991f727625__e" x1="9.5" x2="22.139" y1="9.178" y2="22.173" gradientUnits="userSpaceOnUse"><stop stop-color="#4BA446"/><stop offset="1" stop-color="#3F7D35"/></linearGradient><linearGradient id="icon-f339d817f68e21eb__icon-2f668f214ac96064__f" x1="9.5" x2="22.139" y1="9.178" y2="22.173" gradientUnits="userSpaceOnUse"><stop stop-color="#4BA446"/><stop offset="1" stop-color="#3F7D35"/></linearGradient><radialGradient id="icon-6b2e5ac0016b0315__icon-d2c8358af4ef1b39__b" cx="0" cy="0" r="1" gradientTransform="rotate(56.31 -3.476 15.448) scale(24.7381 21.408)" gradientUnits="userSpaceOnUse"><stop offset=".177" stop-color="#fff"/><stop offset="1" stop-color="#B8B8B8"/></radialGradient></defs></svg>