<svg xmlns="http://www.w3.org/2000/svg" width="48" height="48" fill="currentColor"><path fill="url(#icon-ccdb1ee35b5cae76__icon-3ad628a875c22275__a)" d="M5 10a5 5 0 0 1 5-5h28a5 5 0 0 1 5 5v28a5 5 0 0 1-5 5H10a5 5 0 0 1-5-5V10Z"/><path fill="url(#icon-79c356ecd68cb6af__icon-5682e2c455175fe6__b)" fill-opacity=".2" d="M5 10a5 5 0 0 1 5-5h28a5 5 0 0 1 5 5v28a5 5 0 0 1-5 5H10a5 5 0 0 1-5-5V10Z"/><path fill="url(#icon-74bf3c2f1cc5353b__icon-34f37dc0842f89ab__c)" fill-rule="evenodd" d="M38 6H10a4 4 0 0 0-4 4v28a4 4 0 0 0 4 4h28a4 4 0 0 0 4-4V10a4 4 0 0 0-4-4ZM10 5a5 5 0 0 0-5 5v28a5 5 0 0 0 5 5h28a5 5 0 0 0 5-5V10a5 5 0 0 0-5-5H10Z" clip-rule="evenodd"/><path fill="url(#icon-b8bf259751d9f81c__icon-c13d27cdf0af7f7e__d)" fill-rule="evenodd" d="M15 17.5a1.5 1.5 0 0 1 1.5-1.5h6a1.5 1.5 0 0 1 1.5 1.5V24h6.5a1.5 1.5 0 0 1 1.5 1.5v6a1.5 1.5 0 0 1-1.5 1.5h-14a1.5 1.5 0 0 1-1.5-1.5v-14Zm1.5-.5h6a.5.5 0 0 1 .5.5V24h-7v-6.5a.5.5 0 0 1 .5-.5Zm-.5 8v6.5a.5.5 0 0 0 .5.5H23v-7h-7Zm8 0v7h6.5a.5.5 0 0 0 .5-.5v-6a.5.5 0 0 0-.5-.5H24Z" clip-rule="evenodd"/><path fill="url(#icon-0464b406aba12cc8__icon-8306176e01d5e094__e)" d="M23.45 18.83a1.5 1.5 0 0 0 0 2.121l3.536 3.536a1.5 1.5 0 0 0 2.12 0l3.536-3.536a1.5 1.5 0 0 0 0-2.121l-3.535-3.536a1.5 1.5 0 0 0-2.121 0L23.45 18.83Z"/><defs><linearGradient id="icon-ccdb1ee35b5cae76__icon-3ad628a875c22275__a" x1="15.556" x2="20.362" y1="5" y2="43.455" gradientUnits="userSpaceOnUse"><stop stop-color="#fff"/><stop offset="1" stop-color="#EBEBEB"/></linearGradient><linearGradient id="icon-74bf3c2f1cc5353b__icon-34f37dc0842f89ab__c" x1="17.271" x2="22.387" y1="5" y2="43.373" gradientUnits="userSpaceOnUse"><stop stop-color="#BBB"/><stop offset="1" stop-color="#888"/></linearGradient><linearGradient id="icon-b8bf259751d9f81c__icon-c13d27cdf0af7f7e__d" x1="15" x2="32" y1="16" y2="33" gradientUnits="userSpaceOnUse"><stop stop-color="#EB6D00"/><stop offset="1" stop-color="#B85500"/></linearGradient><linearGradient id="icon-0464b406aba12cc8__icon-8306176e01d5e094__e" x1="23.011" x2="33.082" y1="14.855" y2="24.926" gradientUnits="userSpaceOnUse"><stop stop-color="#EB6D00"/><stop offset="1" stop-color="#B85500"/></linearGradient><radialGradient id="icon-79c356ecd68cb6af__icon-5682e2c455175fe6__b" cx="0" cy="0" r="1" gradientTransform="rotate(56.31 -5.347 23.46) scale(36.1557 31.2886)" gradientUnits="userSpaceOnUse"><stop offset=".177" stop-color="#fff"/><stop offset="1" stop-color="#B8B8B8"/></radialGradient></defs></svg>