<svg xmlns="http://www.w3.org/2000/svg" width="20" height="20" fill="currentColor"><path fill="url(#icon-dbf737fb38330090__icon-6b516dcc6e854183__a)" d="M2 4.5A2.5 2.5 0 0 1 4.5 2h11A2.5 2.5 0 0 1 18 4.5v11a2.5 2.5 0 0 1-2.5 2.5h-11A2.5 2.5 0 0 1 2 15.5v-11Z"/><path fill="url(#icon-e4f1c672392ed279__icon-baecff6ad0cd8405__b)" fill-opacity=".2" d="M2 4.5A2.5 2.5 0 0 1 4.5 2h11A2.5 2.5 0 0 1 18 4.5v11a2.5 2.5 0 0 1-2.5 2.5h-11A2.5 2.5 0 0 1 2 15.5v-11Z"/><path fill="url(#icon-c4d4b3e5df16e19f__icon-c7e03fa66b5bc25c__c)" fill-rule="evenodd" d="M15.5 3h-11A1.5 1.5 0 0 0 3 4.5v11A1.5 1.5 0 0 0 4.5 17h11a1.5 1.5 0 0 0 1.5-1.5v-11A1.5 1.5 0 0 0 15.5 3Zm-11-1A2.5 2.5 0 0 0 2 4.5v11A2.5 2.5 0 0 0 4.5 18h11a2.5 2.5 0 0 0 2.5-2.5v-11A2.5 2.5 0 0 0 15.5 2h-11Z" clip-rule="evenodd"/><path fill="url(#icon-5898081ce76a91ee__icon-bc75b620a978b51b__d)" fill-rule="evenodd" d="M12.888 6.433a1.5 1.5 0 0 0-2.121 0l-.708.707a1.495 1.495 0 0 0-.33.5A1.498 1.498 0 0 0 8.498 7h-1a1.5 1.5 0 0 0-1.5 1.5v4a1.5 1.5 0 0 0 1.5 1.5h4a1.5 1.5 0 0 0 1.5-1.5v-1c0-.493-.238-.93-.605-1.204.18-.073.348-.182.494-.328l.707-.707a1.5 1.5 0 0 0 0-2.121l-.707-.707ZM10.799 10a1.412 1.412 0 0 1-.032-.032l-.708-.707a1.509 1.509 0 0 1-.06-.064V10h.8ZM7.5 8h1a.5.5 0 0 1 .5.5V10h-2V8.5a.5.5 0 0 1 .5-.5Zm4 5h-1.5v-2h1.5a.5.5 0 0 1 .5.5v1a.5.5 0 0 1-.5.5Zm-2.5-2v2h-1.5a.5.5 0 0 1-.5-.5V11h2Z" clip-rule="evenodd"/><defs><linearGradient id="icon-dbf737fb38330090__icon-6b516dcc6e854183__a" x1="6.444" x2="8.468" y1="2" y2="18.192" gradientUnits="userSpaceOnUse"><stop stop-color="#fff"/><stop offset="1" stop-color="#EBEBEB"/></linearGradient><linearGradient id="icon-c4d4b3e5df16e19f__icon-c7e03fa66b5bc25c__c" x1="7.167" x2="9.321" y1="2" y2="18.157" gradientUnits="userSpaceOnUse"><stop stop-color="#BBB"/><stop offset="1" stop-color="#888"/></linearGradient><linearGradient id="icon-5898081ce76a91ee__icon-bc75b620a978b51b__d" x1="5.999" x2="14.006" y1="5.993" y2="14.028" gradientUnits="userSpaceOnUse"><stop stop-color="#EB6D00"/><stop offset="1" stop-color="#B85500"/></linearGradient><radialGradient id="icon-e4f1c672392ed279__icon-baecff6ad0cd8405__b" cx="0" cy="0" r="1" gradientTransform="rotate(56.31 -2.206 9.727) scale(15.2234 13.1741)" gradientUnits="userSpaceOnUse"><stop offset=".177" stop-color="#fff"/><stop offset="1" stop-color="#B8B8B8"/></radialGradient></defs></svg>