<svg xmlns="http://www.w3.org/2000/svg" width="24" height="24" fill="currentColor"><path fill="url(#icon-486542727a9c33af__icon-48519646c6cddb4a__a)" d="M2 5a3 3 0 0 1 3-3h14a3 3 0 0 1 3 3v14a3 3 0 0 1-3 3H5a3 3 0 0 1-3-3V5Z"/><path fill="url(#icon-c644f9d6654870d9__icon-ec4c0eb26cc1cf9f__b)" fill-opacity=".2" d="M2 5a3 3 0 0 1 3-3h14a3 3 0 0 1 3 3v14a3 3 0 0 1-3 3H5a3 3 0 0 1-3-3V5Z"/><path fill="url(#icon-02112f9f00a95c63__icon-5f1018b1b7754829__c)" fill-rule="evenodd" d="M19 3H5a2 2 0 0 0-2 2v14a2 2 0 0 0 2 2h14a2 2 0 0 0 2-2V5a2 2 0 0 0-2-2ZM5 2a3 3 0 0 0-3 3v14a3 3 0 0 0 3 3h14a3 3 0 0 0 3-3V5a3 3 0 0 0-3-3H5Z" clip-rule="evenodd"/><path fill="url(#icon-fc0abe4ce88f346e__icon-269514c5c2b99356__d)" fill-rule="evenodd" d="M10.499 9h-2a.5.5 0 0 0-.5.5V12h3V9.5a.5.5 0 0 0-.5-.5Zm1.5 3V9.5a1.5 1.5 0 0 0-1.5-1.5h-2a1.5 1.5 0 0 0-1.5 1.5v6a1.5 1.5 0 0 0 1.5 1.5h6a1.5 1.5 0 0 0 1.5-1.5v-2a1.5 1.5 0 0 0-1.5-1.5h-2.5Zm0 4h2.5a.5.5 0 0 0 .5-.5v-2a.5.5 0 0 0-.5-.5h-2.5v3Zm-1 0v-3h-3v2.5a.5.5 0 0 0 .5.5h2.5Z" clip-rule="evenodd"/><path fill="url(#icon-f03817641fba791f__icon-a006ca76b18eeaa2__e)" d="M13.103 7.44a1.5 1.5 0 0 1 2.12 0l1.415 1.414a1.5 1.5 0 0 1 0 2.12l-1.414 1.415a1.5 1.5 0 0 1-2.121 0l-1.415-1.414a1.5 1.5 0 0 1 0-2.121l1.415-1.415Z"/><defs><linearGradient id="icon-486542727a9c33af__icon-48519646c6cddb4a__a" x1="7.556" x2="10.085" y1="2" y2="22.239" gradientUnits="userSpaceOnUse"><stop stop-color="#fff"/><stop offset="1" stop-color="#EBEBEB"/></linearGradient><linearGradient id="icon-02112f9f00a95c63__icon-5f1018b1b7754829__c" x1="8.458" x2="11.151" y1="2" y2="22.197" gradientUnits="userSpaceOnUse"><stop stop-color="#BBB"/><stop offset="1" stop-color="#888"/></linearGradient><linearGradient id="icon-fc0abe4ce88f346e__icon-269514c5c2b99356__d" x1="6.999" x2="15.999" y1="8" y2="17" gradientUnits="userSpaceOnUse"><stop stop-color="#EB6D00"/><stop offset="1" stop-color="#B85500"/></linearGradient><linearGradient id="icon-f03817641fba791f__icon-a006ca76b18eeaa2__e" x1="11.249" x2="17.078" y1="7" y2="12.828" gradientUnits="userSpaceOnUse"><stop stop-color="#EB6D00"/><stop offset="1" stop-color="#B85500"/></linearGradient><radialGradient id="icon-c644f9d6654870d9__icon-ec4c0eb26cc1cf9f__b" cx="0" cy="0" r="1" gradientTransform="rotate(56.31 -2.54 11.442) scale(19.0293 16.4677)" gradientUnits="userSpaceOnUse"><stop offset=".177" stop-color="#fff"/><stop offset="1" stop-color="#B8B8B8"/></radialGradient></defs></svg>