<svg xmlns="http://www.w3.org/2000/svg" width="16" height="16" fill="currentColor"><path d="M10.873.963a.75.75 0 0 1 .918.53l.64 2.391a.75.75 0 0 1-.53.919l-.584.156a4.501 4.501 0 0 0-5.447-.924 4.473 4.473 0 0 0-1.59 1.432 4.482 4.482 0 0 0-.747 3.084c.044.36.131.708.255 1.038a.75.75 0 0 1-1.42.482 6 6 0 0 1 8.154-7.516l-.18-.673a.75.75 0 0 1 .53-.919ZM12.21 6.41a4.482 4.482 0 0 1-.628 4.314 4.494 4.494 0 0 1-4.603 1.66 4.496 4.496 0 0 1-2.297-1.344l-.584.157a.75.75 0 0 0-.53.919l.64 2.39a.75.75 0 1 0 1.45-.388l-.181-.674a6 6 0 0 0 8.154-7.516.75.75 0 0 0-1.42.481Z"/><path d="M5.165 5.947a.46.46 0 0 1 .526-.152l.8.276a.455.455 0 0 0 .594-.343l.16-.83a.459.459 0 0 1 .396-.38 3.54 3.54 0 0 1 .719 0c.202.02.356.18.395.38l.16.83a.455.455 0 0 0 .595.343l.8-.276a.46.46 0 0 1 .525.152c.141.194.262.403.361.623a.459.459 0 0 1-.131.532l-.64.555a.455.455 0 0 0 0 .686l.64.555a.459.459 0 0 1 .131.532c-.099.22-.22.429-.36.623a.46.46 0 0 1-.526.152l-.8-.276a.455.455 0 0 0-.594.343l-.161.83a.459.459 0 0 1-.395.38 3.553 3.553 0 0 1-.719 0 .459.459 0 0 1-.395-.38l-.161-.83a.455.455 0 0 0-.595-.343l-.799.276a.46.46 0 0 1-.526-.152 3.498 3.498 0 0 1-.36-.623.459.459 0 0 1 .13-.532l.64-.555a.455.455 0 0 0 0-.686l-.64-.555a.459.459 0 0 1-.13-.532c.099-.22.22-.429.36-.623ZM7.002 8a1 1 0 1 0 2 0 1 1 0 0 0-2 0Z"/></svg>