<svg xmlns="http://www.w3.org/2000/svg" width="20" height="20" fill="currentColor"><path d="M13.22 6.53a.75.75 0 0 1 0-1.06l.23-.231-8.72.011a.75.75 0 0 1-.002-1.5l8.7-.011-.208-.209a.75.75 0 0 1 1.06-1.06l1.5 1.5a.75.75 0 0 1 0 1.06l-1.5 1.5a.75.75 0 0 1-1.06 0ZM4.73 15.25l8.72-.011-.23.23a.75.75 0 1 0 1.06 1.061l1.5-1.5a.75.75 0 0 0 0-1.06l-1.5-1.5a.75.75 0 1 0-1.06 1.06l.208.209-8.7.011a.75.75 0 1 0 .001 1.5ZM16.772 5.851a.5.5 0 0 0-.924.384 1.993 1.993 0 0 1 0 1.53.5.5 0 0 0 .924.384 2.994 2.994 0 0 0 0-2.297ZM15.149 9.772a.5.5 0 1 0-.384-.924A1.992 1.992 0 0 1 14 9h-1a.5.5 0 0 0 0 1h1c.406 0 .794-.08 1.149-.228ZM5.235 10.152C5.47 10.054 5.728 10 6 10h1a.5.5 0 0 0 0-1H6c-.406 0-.794.08-1.149.228a.5.5 0 0 0 .384.924ZM9 9a.5.5 0 0 0 0 1h2a.5.5 0 0 0 0-1H9ZM4.152 11.235a.5.5 0 1 0-.924-.383 2.992 2.992 0 0 0 0 2.296.5.5 0 1 0 .924-.383 1.992 1.992 0 0 1 0-1.53Z"/></svg>