<svg xmlns="http://www.w3.org/2000/svg" width="12" height="12" fill="currentColor"><path d="M8.707 1.7a.503.503 0 0 0-.323-.623 1.726 1.726 0 0 0-1.093.025.505.505 0 0 0-.291.64c.09.26.366.394.617.301a.794.794 0 0 1 .49-.008.48.48 0 0 0 .6-.335ZM6.237 2.072a.483.483 0 0 0-.566.394A2.853 2.853 0 0 0 5.623 3v.6c0 .276.215.5.482.5a.491.491 0 0 0 .482-.5V3c0-.129.01-.242.03-.34a.5.5 0 0 0-.38-.588ZM5.623 9c0 .129-.011.242-.03.34a.5.5 0 0 0 .38.588.483.483 0 0 0 .566-.394c.032-.168.048-.347.048-.534v-.6c0-.277-.216-.5-.482-.5a.491.491 0 0 0-.482.5V9ZM6.105 7.1a.491.491 0 0 0 .482-.5V5.4c0-.276-.216-.5-.482-.5a.491.491 0 0 0-.482.5v1.2c0 .276.215.5.482.5ZM5.241 10.258a.478.478 0 0 0-.617-.301.723.723 0 0 1-.253.043.723.723 0 0 1-.254-.043.478.478 0 0 0-.616.301c-.09.26.04.547.29.64.187.07.382.102.58.102.197 0 .393-.033.58-.102.25-.093.38-.38.29-.64ZM2 7.723A.75.75 0 0 0 .97 8.812l1 1a.75.75 0 0 0 1.06 0l1-1a.75.75 0 0 0-.78-1.238V2.75A.75.75 0 0 0 2.504 2H2.5a.5.5 0 0 0-.5.5v5.223ZM8.75 7.574a.75.75 0 0 0-.78 1.238l1 1a.75.75 0 0 0 1.06 0l1-1a.75.75 0 0 0-.78-1.238V2.75a.75.75 0 0 0-1.5 0v4.824Z"/></svg>