<svg xmlns="http://www.w3.org/2000/svg" width="20" height="20" fill="currentColor"><path d="M2.75 2a.75.75 0 0 0-.75.75v8.5a.75.75 0 0 0 1.5 0v-8.5A.75.75 0 0 0 2.75 2ZM9.28 2.657a.75.75 0 0 0-1.06 0l-3.5 3.5a.75.75 0 0 0 0 1.06l3.5 3.5a.75.75 0 1 0 1.06-1.06l-2.22-2.22h10.69a.75.75 0 0 0 0-1.5H7.06l2.22-2.22a.75.75 0 0 0 0-1.06ZM18.25 9a.75.75 0 0 1 .75.75v8.5a.75.75 0 0 1-1.5 0v-8.5a.75.75 0 0 1 .75-.75Z"/><path d="M12.78 9.657a.75.75 0 1 0-1.06 1.06l2.22 2.22H3.25a.75.75 0 0 0 0 1.5h10.69l-2.22 2.22a.75.75 0 1 0 1.06 1.06l3.5-3.5a.75.75 0 0 0 0-1.06l-3.5-3.5Z"/></svg>