<svg xmlns="http://www.w3.org/2000/svg" width="12" height="12" fill="currentColor"><path d="M10.85 8.854a.5.5 0 0 0 0-.708.491.491 0 0 0-.7 0l-.15.147V3a.5.5 0 1 0-1 0v5.293l-.15-.147a.491.491 0 0 0-.7 0 .5.5 0 0 0 0 .708l1 1a.492.492 0 0 0 .7 0l1-1ZM3.85 8.854a.5.5 0 0 0 0-.708.491.491 0 0 0-.7 0L3 8.293V2.5a.5.5 0 0 0-1 0v5.793l-.15-.147a.491.491 0 0 0-.7 0 .5.5 0 0 0 0 .708l1 1a.491.491 0 0 0 .7 0l1-1ZM8.706 1.7a.503.503 0 0 0-.323-.623 1.726 1.726 0 0 0-1.093.025.505.505 0 0 0-.29.64c.09.26.366.394.616.301a.794.794 0 0 1 .49-.008.48.48 0 0 0 .6-.335Zm-2.47.372a.483.483 0 0 0-.566.394A2.852 2.852 0 0 0 5.622 3v.6c0 .276.216.5.482.5a.491.491 0 0 0 .483-.5V3c0-.129.01-.242.03-.34a.5.5 0 0 0-.38-.588ZM5.623 9c0 .129-.01.242-.03.34a.5.5 0 0 0 .38.588.483.483 0 0 0 .566-.394c.032-.168.049-.347.049-.534v-.6c0-.277-.216-.5-.483-.5a.491.491 0 0 0-.482.5V9Zm.482-1.9a.491.491 0 0 0 .483-.5V5.4c0-.276-.216-.5-.483-.5a.491.491 0 0 0-.482.5v1.2c0 .276.216.5.482.5Zm-.863 3.159a.478.478 0 0 0-.617-.302.723.723 0 0 1-.253.043.723.723 0 0 1-.254-.043.478.478 0 0 0-.617.301c-.09.26.04.547.291.64.186.07.382.102.58.102.197 0 .393-.033.579-.102.25-.093.38-.38.29-.64Z"/></svg>