<svg xmlns="http://www.w3.org/2000/svg" width="12" height="12" fill="currentColor"><path d="M8 3.501a.75.75 0 0 0 1.28.53l1-1a.75.75 0 0 0 0-1.061l-1-1a.75.75 0 0 0-1.237.78H2.75a.75.75 0 0 0 0 1.5h5.293A.752.752 0 0 0 8 3.501ZM8 10.501a.75.75 0 0 0 1.28.53l1-1a.75.75 0 0 0 0-1.061l-1-1a.75.75 0 0 0-1.237.78H2.75a.75.75 0 0 0 0 1.5h5.293a.752.752 0 0 0-.043.251ZM10.923 3.835a.5.5 0 1 0-.958.288.852.852 0 0 1-.008.508.5.5 0 1 0 .941.338 1.85 1.85 0 0 0 .025-1.133ZM9.534 6.45a.5.5 0 1 0-.194-.98c-.098.019-.211.03-.34.03h-.6a.5.5 0 0 0 0 1H9c.188 0 .366-.016.534-.05ZM2.66 6.531c.098-.02.211-.03.34-.03h.6a.5.5 0 0 0 0-1H3c-.187 0-.366.016-.534.05a.5.5 0 1 0 .194.98ZM5.4 5.5a.5.5 0 0 0 0 1h1.2a.5.5 0 0 0 0-1H5.4ZM2.043 6.987a.5.5 0 1 0-.941-.338c-.07.193-.102.396-.102.601 0 .205.033.408.102.601a.5.5 0 1 0 .941-.338A.775.775 0 0 1 2 7.25c0-.098.016-.186.043-.263Z"/></svg>