<svg xmlns="http://www.w3.org/2000/svg" width="20" height="20" fill="currentColor"><path d="m15.5 14.293.646-.647a.5.5 0 0 1 .708.707l-1.5 1.5a.5.5 0 0 1-.708 0l-1.5-1.5a.5.5 0 0 1 .708-.707l.646.647V5a.5.5 0 0 1 1 0v9.293ZM5.5 14.293l.646-.647a.5.5 0 1 1 .708.707l-1.5 1.5a.5.5 0 0 1-.708 0l-1.5-1.5a.5.5 0 1 1 .708-.707l.646.647V4.5a.5.5 0 0 1 1 0v9.793ZM6.039 16.119a.498.498 0 0 0 .273.653 3.055 3.055 0 0 0 2.322 0 .498.498 0 0 0 .273-.653.507.507 0 0 0-.66-.27 2.033 2.033 0 0 1-.774.151c-.275 0-.536-.054-.774-.152a.507.507 0 0 0-.66.27Zm3.576-.7a.507.507 0 0 0 .66-.27c.149-.355.23-.743.23-1.149v-1c0-.276-.226-.5-.505-.5a.503.503 0 0 0-.505.5v1c0 .272-.055.53-.154.765a.498.498 0 0 0 .274.654ZM10.505 6c0-.272.055-.53.154-.765a.498.498 0 0 0-.274-.654.507.507 0 0 0-.66.27c-.149.355-.23.743-.23 1.149v1c0 .276.226.5.505.5.28 0 .505-.224.505-.5V6ZM10 8.5a.503.503 0 0 0-.505.5v2c0 .276.226.5.505.5.28 0 .505-.224.505-.5V9c0-.276-.226-.5-.505-.5Zm1.093-4.619a.507.507 0 0 0 .66.27c.238-.097.499-.151.774-.151s.536.054.774.152a.507.507 0 0 0 .66-.27.498.498 0 0 0-.273-.654A3.054 3.054 0 0 0 12.528 3c-.411 0-.804.08-1.162.228a.498.498 0 0 0-.273.653Z"/></svg>