<svg xmlns="http://www.w3.org/2000/svg" width="20" height="20" fill="currentColor"><path d="M2.87 10.838A.5.5 0 0 0 3 10.5v-8l-.008-.09A.5.5 0 0 0 2 2.5v8l.008.09a.5.5 0 0 0 .861.248ZM7.166 9.855a.5.5 0 0 0 .7-.711L5.71 7.01l11.79-.038a.5.5 0 0 0-.006-1L5.7 6.01 7.84 3.852a.5.5 0 0 0-.712-.7L4.145 6.165a.5.5 0 0 0 0 .708l3.02 2.982ZM17.13 9.176a.5.5 0 0 0-.13.338v8l.008.09a.5.5 0 0 0 .992-.09v-8l-.008-.09a.5.5 0 0 0-.861-.248ZM12.488 10.038a.5.5 0 0 1 .347.12l3.025 2.975a.499.499 0 0 1 0 .708l-2.983 3.017a.5.5 0 1 1-.711-.7L14.3 14l-11.794.042a.5.5 0 0 1-.006-1L14.29 13l-2.156-2.13a.5.5 0 0 1 .353-.832Z"/></svg>