<svg xmlns="http://www.w3.org/2000/svg" width="20" height="20" fill="currentColor"><path d="M14 3a.5.5 0 0 1 0 1h-.996v4.684c0 .141.009.283.026.422a1.5 1.5 0 0 0-.83.817l-.013.031a4.5 4.5 0 0 1-.183-1.27V4h-4.01v4.687a4.5 4.5 0 0 1-.538 2.134L6.821 12h4.514l-.417 1H6.282l-1.22 2.264a.5.5 0 0 0 .44.738h4.585c.203.566.74.998 1.415.998h.469v.002H5.5a1.5 1.5 0 0 1-1.32-2.212l2.395-4.443a3.5 3.5 0 0 0 .418-1.66V4H6a.5.5 0 0 1 0-1h8Z"/><path d="M11.502 16h1.75l-.59 2.36c-.121.482.462.826.826.486l4.872-4.548A.75.75 0 0 0 17.85 13H16.75l.781-2.342a.5.5 0 0 0-.474-.658h-3.473a.5.5 0 0 0-.462.308l-2.083 5a.5.5 0 0 0 .462.692Z"/></svg>