<svg xmlns="http://www.w3.org/2000/svg" width="32" height="32" fill="currentColor"><path d="M18 23v-7h-4v7a6 6 0 1 1-11.884-1.185l3.018-15.21A4.476 4.476 0 0 1 9.524 3C12.005 3 14 5.037 14 7.5V10h4V7.5C18 5.014 20.017 3 22.502 3a4.505 4.505 0 0 1 4.421 3.64l2.963 15.178c.076.39.114.785.114 1.182a6 6 0 0 1-12 0Zm2-15.5v11.028A5.978 5.978 0 0 1 24 17c1.123 0 2.174.308 3.073.845L24.96 7.024A2.505 2.505 0 0 0 22.502 5 2.501 2.501 0 0 0 20 7.5ZM4 23a4 4 0 1 0 8 0 4 4 0 0 0-8 0Zm8-4.472V7.5C12 6.124 10.883 5 9.524 5a2.476 2.476 0 0 0-2.428 1.994l-2.151 10.84A5.972 5.972 0 0 1 8 17c1.537 0 2.938.578 4 1.528ZM20 23a4 4 0 1 0 8 0 4 4 0 0 0-8 0Z"/></svg>