<svg xmlns="http://www.w3.org/2000/svg" width="20" height="20" fill="currentColor"><path d="M2.07 12.86h-.01l1.81-7.87A2.615 2.615 0 0 1 6.4 3 2.6 2.6 0 0 1 9 5.45V7h2V5.45A2.614 2.614 0 0 1 13.6 3c1.23 0 2.26.85 2.53 1.99l1.81 7.87h-.01c.04.23.07.46.07.69v.01c0 1.93-1.57 3.5-3.5 3.5s-3.5-1.57-3.5-3.5V10H9v3.56c0 1.93-1.57 3.5-3.5 3.5a3.504 3.504 0 0 1-3.43-4.19v-.01Zm2.86-7.87a4.26 4.26 0 0 0-.12.442l-.04.168-1.16 5c.54-.35 1.19-.55 1.89-.55.98 0 1.86.4 2.5 1.05V5.54c-.03-.86-.73-1.55-1.6-1.55-.4 0-.79.16-1.09.43-.14.13-.27.29-.34.47-.02.03-.04.1-.04.1ZM8 13.55a2.5 2.5 0 0 0-5 0 2.5 2.5 0 0 0 5 0Zm8.39-2.94-1.16-5-.04-.168c-.034-.147-.07-.297-.12-.442a.325.325 0 0 1-.034-.082L15.03 4.9c-.07-.18-.2-.34-.34-.47C14.4 4.15 14 4 13.6 4c-.86 0-1.57.69-1.6 1.55v5.56c.63-.65 1.52-1.05 2.5-1.05.7 0 1.34.2 1.89.55Zm.61 2.95a2.5 2.5 0 0 0-5 0 2.5 2.5 0 0 0 5 0Z"/></svg>