<svg xmlns="http://www.w3.org/2000/svg" width="16" height="16" fill="currentColor"><path d="M1.203 9.872a.507.507 0 0 1 .008-.038L2.86 3.56a2.11 2.11 0 0 1 4.139.493H7v1.915h1.984V4.053h.002a2.11 2.11 0 0 1 4.138-.492l1.649 6.273a.528.528 0 0 1 .008.038A3.008 3.008 0 1 1 8.985 11V7.969H7V11a3.008 3.008 0 1 1-5.797-1.128Zm2.504-5.6-.039.142L2.646 8.31a2.995 2.995 0 0 1 1.346-.318c.772 0 1.476.29 2.008.768V4.133a1.11 1.11 0 0 0-1.11-1.108c-.549 0-.945.388-1.097.92l-.019.07a3.903 3.903 0 0 1-.022.084c-.018.066-.04.148-.045.173ZM6 11a2.008 2.008 0 1 0-4.016 0A2.008 2.008 0 0 0 6 11Zm6.233-6.9-.023-.084-.018-.071c-.153-.532-.549-.92-1.098-.92a1.11 1.11 0 0 0-1.11 1.108V8.76a2.997 2.997 0 0 1 2.008-.768c.484 0 .941.114 1.346.318l-1.022-3.896-.038-.142c-.005-.025-.027-.107-.045-.173Zm-.24 4.892a2.008 2.008 0 1 0 0 4.016 2.008 2.008 0 0 0 0-4.016Z"/></svg>