<svg xmlns="http://www.w3.org/2000/svg" width="24" height="24" fill="currentColor"><path d="M6.5 21a4.5 4.5 0 0 0 4.5-4.5V12h2v4.53a4.5 4.5 0 0 0 9-.03v-.436c0-.091-.009-.182-.026-.272L20.02 5.894A3.589 3.589 0 0 0 16.5 3 3.5 3.5 0 0 0 13 6.5V8h-2V6.5A3.5 3.5 0 0 0 7.5 3a3.422 3.422 0 0 0-3.348 2.716L2.03 15.779c-.02.095-.03.192-.03.289v.432A4.502 4.502 0 0 0 6.5 21Zm1-16.5a2 2 0 0 1 2 2v6.646A4.484 4.484 0 0 0 6.5 12c-.828 0-1.603.223-2.27.613l1.39-6.588A1.922 1.922 0 0 1 7.5 4.5Zm-1 15a3 3 0 1 1 0-6 3 3 0 0 1 0 6Zm10-15c.998 0 1.856.706 2.05 1.684l1.274 6.462A4.478 4.478 0 0 0 17.5 12a4.484 4.484 0 0 0-3 1.146V6.5a2 2 0 0 1 2-2Zm1 9a3 3 0 0 1 3 3v.02a3 3 0 1 1-3-3.02Z"/></svg>