<svg xmlns="http://www.w3.org/2000/svg" width="12" height="12" fill="currentColor"><g clip-path="url(#icon-f2f411431003b37d__icon-7367fabd0f360fc3__a)"><path d="M0 2.5C0 1.534.784.75 1.75.75h2c.788 0 1.499.331 2 .863a2.742 2.742 0 0 1 2-.863h2c.966 0 1.75.784 1.75 1.75v6a1.75 1.75 0 0 1-1.75 1.75H7.311a.769.769 0 0 1-.061.002.685.685 0 0 0-.506.238.988.988 0 0 0-.244.662.75.75 0 1 1-1.5 0 .988.988 0 0 0-.244-.662.685.685 0 0 0-.506-.238c-.02 0-.04 0-.061-.002H1.75A1.75 1.75 0 0 1 0 8.5v-6Zm5 6.25V3.5c0-.69-.56-1.25-1.25-1.25h-2a.25.25 0 0 0-.25.25v6c0 .138.112.25.25.25H5Zm1.5 0h3.25A.25.25 0 0 0 10 8.5v-6a.25.25 0 0 0-.25-.25h-2c-.69 0-1.25.56-1.25 1.25v5.25Z"/></g><defs><clipPath id="icon-f2f411431003b37d__icon-7367fabd0f360fc3__a"><path d="M0 0h12v12H0z"/></clipPath></defs></svg>