<svg xmlns="http://www.w3.org/2000/svg" width="12" height="12" fill="currentColor"><path d="M0 2.5A1.5 1.5 0 0 1 1.5 1h2c.818 0 1.544.393 2 1 .456-.607 1.182-1 2-1h2A1.5 1.5 0 0 1 11 2.5v6A1.5 1.5 0 0 1 9.5 10H7.05a.51.51 0 0 1-.05.002.935.935 0 0 0-.69.32c-.194.213-.31.51-.31.83a.5.5 0 1 1-1 0c0-.32-.116-.617-.31-.83a.935.935 0 0 0-.69-.32.51.51 0 0 1-.05-.002H1.5A1.5 1.5 0 0 1 0 8.5v-6ZM5 9V3.5A1.5 1.5 0 0 0 3.5 2h-2a.5.5 0 0 0-.5.5v6a.5.5 0 0 0 .5.5H5Zm1 0h3.5a.5.5 0 0 0 .5-.5v-6a.5.5 0 0 0-.5-.5h-2A1.5 1.5 0 0 0 6 3.5V9Z"/></svg>