<svg xmlns="http://www.w3.org/2000/svg" width="20" height="20" fill="currentColor"><path d="M4 4v12a2 2 0 0 0 2 2h3.5a2.627 2.627 0 0 1-.449-1H6a1 1 0 0 1-1-1h4v-1H5V4a1 1 0 0 1 1-1h8a1 1 0 0 1 1 1v3.014c.343.018.677.056 1 .112V4a2 2 0 0 0-2-2H6a2 2 0 0 0-2 2Z"/><path d="M6 5a1 1 0 0 1 1-1h6a1 1 0 0 1 1 1v1a1 1 0 0 1-1 1H7a1 1 0 0 1-1-1V5Zm1 0v1h6V5H7ZM17 8.42a6.508 6.508 0 0 0-1.12-.3A7.862 7.862 0 0 0 14.5 8C12.015 8 10 9.12 10 10.5s2.015 2.5 4.5 2.5 4.5-1.12 4.5-2.5c0-.867-.794-1.63-2-2.08Z"/><path d="M18.168 13.142c-.99.55-2.288.858-3.668.858-1.38 0-2.678-.309-3.668-.858a4.558 4.558 0 0 1-.832-.588v3.945c0 1.381 2.015 2.5 4.5 2.5S19 17.88 19 16.5l.001-3.946c-.255.23-.54.426-.833.589Z"/></svg>