<svg xmlns="http://www.w3.org/2000/svg" width="20" height="20" fill="currentColor"><path d="M6 2a2 2 0 0 0-2 2v12a2 2 0 0 0 2 2h3.5a2.627 2.627 0 0 1-.449-1H6a1 1 0 0 1-1-1h4v-5.691l.007.006c.083-1.124.92-1.953 1.825-2.457C11.822 7.308 13.12 7 14.5 7a8.88 8.88 0 0 1 1.5.126V4a2 2 0 0 0-2-2H6Zm.75 2.5h6.5a.75.75 0 0 1 0 1.5h-6.5a.75.75 0 0 1 0-1.5Z"/><path d="M17 8.42a6.508 6.508 0 0 0-1.12-.3A7.862 7.862 0 0 0 14.5 8C12.015 8 10 9.12 10 10.5s2.015 2.5 4.5 2.5 4.5-1.12 4.5-2.5c0-.867-.794-1.63-2-2.08Z"/><path d="M18.168 13.142c-.99.55-2.288.858-3.668.858-1.38 0-2.678-.309-3.668-.858a4.558 4.558 0 0 1-.832-.588v3.945c0 1.381 2.015 2.5 4.5 2.5S19 17.88 19 16.5l.001-3.946c-.255.23-.54.426-.833.589Z"/></svg>