<svg xmlns="http://www.w3.org/2000/svg" width="20" height="20" fill="currentColor"><path fill-rule="evenodd" d="M9.5 17.5c0-.363-.144-.737-.454-1.046A1.475 1.475 0 0 0 8 16H4c-1.076 0-2-.924-2-2V5c0-1.076.924-2 2-2h4a2.5 2.5 0 0 1 2 1.004A2.5 2.5 0 0 1 12 3h4c1.076 0 2 .924 2 2v9c0 1.076-.924 2-2 2h-4c-.363 0-.737.144-1.046.454-.31.309-.454.683-.454 1.046a.5.5 0 0 1-1 0ZM3 5c0-.524.476-1 1-1h4c.824 0 1.5.676 1.5 1.5v10.023A2.441 2.441 0 0 0 8 15H4c-.524 0-1-.476-1-1V5Zm7.5 10.523A2.441 2.441 0 0 1 12 15h4c.524 0 1-.476 1-1V5c0-.524-.476-1-1-1h-4c-.824 0-1.5.676-1.5 1.5v10.023Z" clip-rule="evenodd"/></svg>