<svg xmlns="http://www.w3.org/2000/svg" width="20" height="20" fill="currentColor"><path d="M8.75 3a.75.75 0 0 0 0 1.5h.5v1.18a.75.75 0 1 0 1.5 0V4.5h.5a.75.75 0 0 0 0-1.5h-2.5ZM8.75 15.5a.75.75 0 0 0 0 1.5h2.5a.75.75 0 0 0 0-1.5h-.5v-1.18a.75.75 0 0 0-1.5 0v1.18h-.5ZM5.453 4.603c-.387.151-.696.46-.849.846a.75.75 0 1 1-1.413-.492h-.005a3.009 3.009 0 0 1 1.77-1.77v.004a.75.75 0 1 1 .497 1.412ZM15.397 5.449a1.505 1.505 0 0 0-.938-.878.75.75 0 0 1 .586-1.38v-.005a3.009 3.009 0 0 1 1.77 1.77h-.005a.75.75 0 1 1-1.413.493ZM3.75 12a.75.75 0 0 1-.75-.75v-2.5a.75.75 0 0 1 1.5 0v.5h4.75v-.428a.75.75 0 0 1 1.5 0v.428h4.75v-.5a.75.75 0 0 1 1.5 0v2.5a.75.75 0 0 1-1.5 0v-.5h-4.75v.428a.75.75 0 0 1-1.5 0v-.428H4.5v.5a.75.75 0 0 1-.75.75ZM5.453 15.398a1.505 1.505 0 0 1-.849-.846.75.75 0 1 0-1.413.492h-.005a3.009 3.009 0 0 0 1.77 1.77v-.004a.75.75 0 1 0 .497-1.412ZM15.397 14.552a1.505 1.505 0 0 1-.938.878.75.75 0 0 0 .586 1.38v.005a3.01 3.01 0 0 0 1.77-1.77h-.005a.75.75 0 1 0-1.413-.493Z"/></svg>