<svg xmlns="http://www.w3.org/2000/svg" width="20" height="20" fill="currentColor"><path d="M8 3.5a.5.5 0 0 1 .5-.5h3a.5.5 0 0 1 0 1h-1v5.5H16v-1a.5.5 0 0 1 1 0v3a.5.5 0 0 1-1 0v-1h-5.5V16h1a.5.5 0 0 1 0 1h-3a.5.5 0 0 1 0-1h1v-5.5H4v1a.5.5 0 0 1-1 0v-3a.5.5 0 0 1 1 0v1h5.5V4h-1a.5.5 0 0 1-.5-.5ZM5.54 4.053A2.003 2.003 0 0 0 4.052 5.54a.509.509 0 0 1-.6.462.509.509 0 0 1-.38-.663 3.004 3.004 0 0 1 2.265-2.265.509.509 0 0 1 .663.38.509.509 0 0 1-.462.6ZM5.54 15.947a2.003 2.003 0 0 1-1.487-1.486.509.509 0 0 0-.6-.463.509.509 0 0 0-.38.664 3.004 3.004 0 0 0 2.265 2.265.505.505 0 1 0 .201-.98ZM14.59 3.054a.497.497 0 0 1 .072.02 3.004 3.004 0 0 1 2.265 2.264.506.506 0 0 1-.38.664.509.509 0 0 1-.6-.463 2.003 2.003 0 0 0-1.486-1.486.509.509 0 0 1-.462-.6.509.509 0 0 1 .592-.4ZM14.46 15.947a2.003 2.003 0 0 0 1.487-1.486.509.509 0 0 1 .6-.462.509.509 0 0 1 .38.663 3.004 3.004 0 0 1-2.265 2.265.509.509 0 0 1-.663-.38.509.509 0 0 1 .462-.6Z"/></svg>