<svg xmlns="http://www.w3.org/2000/svg" width="20" height="20" fill="currentColor"><path d="M8.5 3a.5.5 0 0 0 0 1h3a.5.5 0 0 0 0-1h-3ZM4.053 5.54A2.003 2.003 0 0 1 5.54 4.052a.509.509 0 0 0 .462-.6.509.509 0 0 0-.663-.38 3.004 3.004 0 0 0-2.265 2.265.509.509 0 0 0 .38.663.509.509 0 0 0 .6-.462ZM5.54 15.947a2.003 2.003 0 0 1-1.487-1.486.509.509 0 0 0-.6-.463.509.509 0 0 0-.38.664 3.004 3.004 0 0 0 2.265 2.265.505.505 0 1 0 .201-.98ZM14.662 3.073a.509.509 0 0 0-.663.38.509.509 0 0 0 .462.6 2.003 2.003 0 0 1 1.486 1.486.507.507 0 0 0 .6.463.509.509 0 0 0 .38-.664 3.004 3.004 0 0 0-2.265-2.265ZM16.996 11.565a5.738 5.738 0 0 0-.996-.37V8.5a.5.5 0 0 1 1 0v3a.497.497 0 0 1-.004.065ZM9.052 16c.066.331.193.67.368 1H8.5a.5.5 0 0 1 0-1h.552ZM3.5 12a.5.5 0 0 1-.5-.5v-3a.5.5 0 0 1 1 0v3a.5.5 0 0 1-.5.5ZM16 15.5a1.5 1.5 0 1 1-3 0 1.5 1.5 0 0 1 3 0Z"/><path d="M14.5 12c-2.764 0-4.5 2.318-4.5 3.5 0 1.2 1.739 3.5 4.5 3.5s4.5-2.318 4.5-3.5c0-1.2-1.739-3.5-4.5-3.5Zm0 6a2.5 2.5 0 1 1 0-5 2.5 2.5 0 0 1 0 5Z"/></svg>