<svg xmlns="http://www.w3.org/2000/svg" width="20" height="20" fill="currentColor"><path d="M8 3.75A.75.75 0 0 1 8.75 3h2.5a.75.75 0 0 1 0 1.5h-2.5A.75.75 0 0 1 8 3.75ZM8 16.25a.75.75 0 0 1 .75-.75H9c0 .484.156 1.001.42 1.5h-.67a.75.75 0 0 1-.75-.75ZM17 11.25c0 .103-.02.2-.058.29a5.72 5.72 0 0 0-1.442-.454V8.75a.75.75 0 0 1 1.5 0v2.5ZM4.604 5.449a1.505 1.505 0 0 1 .939-.878.75.75 0 0 0-.586-1.38v-.005a3.009 3.009 0 0 0-1.77 1.77h.004a.75.75 0 1 0 1.413.493ZM15.397 5.449a1.505 1.505 0 0 0-.938-.878.75.75 0 0 1 .586-1.38v-.005a3.009 3.009 0 0 1 1.77 1.77h-.005a.75.75 0 1 1-1.413.493ZM3 11.25a.75.75 0 0 0 1.5 0v-2.5a.75.75 0 0 0-1.5 0v2.5ZM5.453 15.398a1.505 1.505 0 0 1-.849-.846.75.75 0 1 0-1.413.492h-.005a3.009 3.009 0 0 0 1.77 1.77v-.004a.75.75 0 1 0 .497-1.412ZM16 15.5a1.5 1.5 0 1 1-3 0 1.5 1.5 0 0 1 3 0Z"/><path d="M14.5 12c-2.764 0-4.5 2.318-4.5 3.5 0 1.2 1.739 3.5 4.5 3.5s4.5-2.318 4.5-3.5c0-1.2-1.739-3.5-4.5-3.5Zm0 6a2.5 2.5 0 1 1 0-5 2.5 2.5 0 0 1 0 5Z"/></svg>