<svg xmlns="http://www.w3.org/2000/svg" width="20" height="20" fill="currentColor"><path d="M9 5a3 3 0 1 0-3.5 2.959v4.082a3 3 0 1 0 1 0V11h4.196a3.484 3.484 0 0 1 1.804-.5h1c.607-.456 1-1.182 1-2v-.541a3 3 0 1 0-1 0V8.5A1.5 1.5 0 0 1 12 10H6.5V7.959A3 3 0 0 0 9 5ZM6 7a2 2 0 1 1 0-4 2 2 0 0 1 0 4Zm0 10a2 2 0 1 1 0-4 2 2 0 0 1 0 4ZM16 5a2 2 0 1 1-4 0 2 2 0 0 1 4 0Z"/><path d="M12.5 11.5a2.5 2.5 0 0 0 0 5h.5a.5.5 0 0 0 0-1h-.5a1.5 1.5 0 0 1 0-3h.5a.5.5 0 0 0 0-1h-.5ZM16 11.5a.5.5 0 0 0 0 1h.5a1.5 1.5 0 0 1 0 3H16a.5.5 0 0 0 0 1h.5a2.5 2.5 0 0 0 0-5H16Z"/><path d="M12 14a.5.5 0 0 1 .5-.5h4a.5.5 0 0 1 0 1h-4a.5.5 0 0 1-.5-.5Z"/></svg>