<svg xmlns="http://www.w3.org/2000/svg" width="20" height="20" fill="currentColor"><path d="M9 5a3 3 0 1 0-3.5 2.959v4.082a3 3 0 1 0 1 0V11h3.592a1.29 1.29 0 0 1 .308-.5c.3-.3.6-.5 1-.5H6.5V7.959A3 3 0 0 0 9 5ZM6 7a2 2 0 1 1 0-4 2 2 0 0 1 0 4Zm0 10a2 2 0 1 1 0-4 2 2 0 0 1 0 4ZM14.5 8.5c0 .662-.257 1.264-.677 1.71A7.95 7.95 0 0 0 12 10a1.5 1.5 0 0 0 1.5-1.5v-.541a3 3 0 1 1 1 0V8.5ZM16 5a2 2 0 1 0-4 0 2 2 0 0 0 4 0ZM11.462 11.02a7 7 0 0 1 7.518 7.518.5.5 0 1 1-.997-.076 6 6 0 0 0-6.445-6.445.5.5 0 1 1-.076-.997Z"/><path d="M11.445 13.03a5 5 0 0 1 5.524 5.524.5.5 0 1 1-.993-.109 4 4 0 0 0-4.42-4.42.5.5 0 1 1-.11-.995Z"/><path d="M11.4 15.06a3 3 0 0 1 3.54 3.54.5.5 0 0 1-.98-.2 2 2 0 0 0-2.36-2.36.5.5 0 1 1-.2-.98Z"/><path d="M12 19a1 1 0 1 0 0-2 1 1 0 0 0 0 2Z"/></svg>