<svg xmlns="http://www.w3.org/2000/svg" width="20" height="20" fill="currentColor"><path d="M12 11c-.18 0-.36.007-.538.02a.5.5 0 1 0 .076.998 6 6 0 0 1 6.445 6.445.5.5 0 1 0 .997.075A7 7 0 0 0 12 11Zm0 2c-.187 0-.373.01-.555.03a.5.5 0 1 0 .11.994 4 4 0 0 1 4.42 4.42.5.5 0 1 0 .995.11A5 5 0 0 0 12 13Zm0 2c-.205 0-.405.02-.6.06a.5.5 0 0 0 .2.98 2 2 0 0 1 2.36 2.36.5.5 0 1 0 .98.2A3 3 0 0 0 12 15Zm1 3a1 1 0 1 1-2 0 1 1 0 0 1 2 0ZM6.5 7.959a3 3 0 1 0-1 0v4.082a3 3 0 1 0 1 0V11h3.592a1.29 1.29 0 0 1 .308-.5c.3-.3.6-.5 1-.5H6.5V7.959ZM12 10a7.95 7.95 0 0 1 1.823.21c.42-.446.677-1.048.677-1.71v-.541a3 3 0 1 0-1 0V8.5A1.5 1.5 0 0 1 12 10Z"/></svg>