<svg xmlns="http://www.w3.org/2000/svg" width="20" height="20" fill="currentColor"><path d="M6 3.75V5H4.5A2.5 2.5 0 0 0 2 7.5v6A2.5 2.5 0 0 0 4.5 16H10v-1H4.5A1.5 1.5 0 0 1 3 13.5v-3c.418.314.937.5 1.5.5H8v.5a.5.5 0 0 0 .5.5h1a.5.5 0 0 0 .5-.5V11h3v-1h-3v-.5a.5.5 0 0 0-.5-.5h-1a.5.5 0 0 0-.5.5v.5H4.5A1.5 1.5 0 0 1 3 8.5v-1A1.5 1.5 0 0 1 4.5 6h9A1.5 1.5 0 0 1 15 7.5V8c.364 0 .706.097 1 .268V7.5A2.5 2.5 0 0 0 13.5 5H12V3.75A1.75 1.75 0 0 0 10.25 2h-2.5A1.75 1.75 0 0 0 6 3.75ZM7 5V3.75A.75.75 0 0 1 7.75 3h2.5a.75.75 0 0 1 .75.75V5H7Z"/><path d="M16 10a1 1 0 1 0-2 0v7a1 1 0 1 0 2 0v-7ZM11 14a1 1 0 1 1 2 0v3a1 1 0 1 1-2 0v-3ZM18 11a1 1 0 0 0-1 1v5a1 1 0 1 0 2 0v-5a1 1 0 0 0-1-1Z"/></svg>