<svg xmlns="http://www.w3.org/2000/svg" width="20" height="20" fill="currentColor"><path d="M3.065 4.063a1.493 1.493 0 0 0-.047.665l1.778 11.576A2 2 0 0 0 6.773 18h6.426a2 2 0 0 0 1.976-1.696l1.78-11.576A1.5 1.5 0 0 0 15.471 3H4.5a1.49 1.49 0 0 0-.802.232 1.509 1.509 0 0 0-.633.83ZM4.36 4.02A.501.501 0 0 1 4.5 4h10.972c.05 0 .097.007.142.02a5.88 5.88 0 0 1-.382.344C14.259 5.165 12.622 6 9.987 6c-2.634 0-4.271-.835-5.244-1.636a5.86 5.86 0 0 1-.383-.344Zm-.27 1.102.017.014C5.259 6.085 7.12 7 9.987 7s4.729-.915 5.88-1.864l.015-.012-1.695 11.028A1 1 0 0 1 13.2 17H6.773a1 1 0 0 1-.988-.848L4.09 5.122Z"/></svg>