<svg xmlns="http://www.w3.org/2000/svg" width="20" height="20" fill="currentColor"><path d="M4 17.5a.5.5 0 0 0 .5.5h5a2.626 2.626 0 0 1-.449-1H8v-2h1v-1H7.5a.5.5 0 0 0-.5.5V17H5V3.5a.5.5 0 0 1 .5-.5h6a.5.5 0 0 1 .5.5v3.865c.318-.1.653-.18 1-.24V3.5A1.5 1.5 0 0 0 11.5 2h-6A1.5 1.5 0 0 0 4 3.5v14Z"/><path d="M9.288 9.341c.233-.444.588-.82.99-1.123a.75.75 0 1 0-.99 1.124ZM9.75 6.534a.75.75 0 1 0 0-1.5.75.75 0 0 0 0 1.5ZM8 11.75a.75.75 0 1 1-1.5 0 .75.75 0 0 1 1.5 0ZM7.25 9.5a.75.75 0 1 0 0-1.5.75.75 0 0 0 0 1.5ZM8 5.784a.75.75 0 1 1-1.5 0 .75.75 0 0 1 1.5 0ZM15.88 8.12c.4.072.777.174 1.12.301 1.206.449 2 1.212 2 2.08 0 1.38-2.015 2.5-4.5 2.5S10 11.88 10 10.5C10 9.12 12.015 8 14.5 8c.481 0 .945.041 1.38.119Z"/><path d="M14.5 14c1.38 0 2.678-.308 3.668-.858.293-.163.578-.36.833-.59L19 16.5c0 1.38-2.015 2.5-4.5 2.5S10 17.88 10 16.5v-3.946c.255.23.54.426.832.588.99.55 2.288.858 3.668.858Z"/></svg>