<svg xmlns="http://www.w3.org/2000/svg" width="20" height="20" fill="currentColor"><path d="M15.998 10.5V8h-12v7a1 1 0 0 0 1 1h4.628c.281.404.646.745 1.069 1H4.998a2 2 0 0 1-2-2V8h-.786C1.134 8 .595 6.697 1.357 5.934l2.641-2.641A1 1 0 0 1 4.705 3h10.586a1 1 0 0 1 .707.293l2.642 2.641c.762.763.222 2.066-.856 2.066h-.786v2.535a3.539 3.539 0 0 0-.5-.035h-.5Zm1.935-3.858L15.29 4H4.705L2.064 6.642A.21.21 0 0 0 2.212 7h15.572a.21.21 0 0 0 .149-.358Z"/><path d="M7.998 12a1 1 0 1 1-2 0 1 1 0 0 1 2 0ZM10.493 11.13a3.512 3.512 0 0 0-1.234 1.543 1 1 0 0 1 1.235-1.542ZM12.498 11.5a2.5 2.5 0 1 0 0 5h.5a.5.5 0 0 0 0-1h-.5a1.5 1.5 0 1 1 0-3h.5a.5.5 0 0 0 0-1h-.5ZM15.998 11.5a.5.5 0 1 0 0 1h.5a1.5 1.5 0 0 1 0 3h-.5a.5.5 0 1 0 0 1h.5a2.5 2.5 0 0 0 0-5h-.5Z"/><path d="M11.998 14a.5.5 0 0 1 .5-.5h4a.5.5 0 0 1 0 1h-4a.5.5 0 0 1-.5-.5Z"/></svg>