<svg xmlns="http://www.w3.org/2000/svg" width="16" height="16" fill="currentColor"><path d="M13 7.947V3.5A1.5 1.5 0 0 0 11.5 2h-7A1.5 1.5 0 0 0 3 3.5v9A1.5 1.5 0 0 0 4.5 14h1.998l-.2.345a1.5 1.5 0 0 0-.197.655H4.5A2.5 2.5 0 0 1 2 12.5v-9A2.5 2.5 0 0 1 4.5 1h7A2.5 2.5 0 0 1 14 3.5v6.178l-1-1.73Z"/><path d="M6 9a1 1 0 1 1-2 0 1 1 0 0 1 2 0ZM6 12a1 1 0 1 1-2 0 1 1 0 0 1 2 0ZM8.218 11.024l-.955 1.652a1 1 0 0 1 .955-1.652ZM9 9a1 1 0 1 1-2 0 1 1 0 0 1 2 0ZM5.5 3A1.5 1.5 0 0 0 4 4.5v1A1.5 1.5 0 0 0 5.5 7h5A1.5 1.5 0 0 0 12 5.5v-1A1.5 1.5 0 0 0 10.5 3h-5ZM5 4.5a.5.5 0 0 1 .5-.5h5a.5.5 0 0 1 .5.5v1a.5.5 0 0 1-.5.5h-5a.5.5 0 0 1-.5-.5v-1ZM15.83 14.845h.004a.5.5 0 0 1-.433.75H7.6a.5.5 0 0 1-.436-.75l3.9-6.75a.52.52 0 0 1 .866 0l3.9 6.75Z"/></svg>