<svg xmlns="http://www.w3.org/2000/svg" width="16" height="16" fill="currentColor"><g clip-path="url(#icon-90fdea0f0850b53b__icon-bfc4547a8ef2b6ce__a)"><path fill="#424242" d="M2 3.5A2.5 2.5 0 0 1 4.5 1h6A2.5 2.5 0 0 1 13 3.5v2.34a5.505 5.505 0 0 0-2.282-.144A.997.997 0 0 0 11 5V4a1 1 0 0 0-1-1H5a1 1 0 0 0-1 1v1a1 1 0 0 0 1 1h4.552A5.517 5.517 0 0 0 7 8a1 1 0 1 0-.49.86c-.17.373-.3.768-.383 1.18a1 1 0 1 0-.038 1.988c.116.712.369 1.379.73 1.972H4.5A2.5 2.5 0 0 1 2 11.5v-8ZM7.601 15H4.5c.456.607 1.182 1 2 1h2.444A5.52 5.52 0 0 1 7.6 15ZM15 6.88V5.5c0-.818-.393-1.544-1-2V6.23c.357.181.693.4 1 .652Z"/><path fill="#117865" d="M11.5 16a4.5 4.5 0 1 0 0-9 4.5 4.5 0 0 0 0 9Zm2.354-5.646-3 3a.5.5 0 0 1-.708 0l-1-1a.5.5 0 0 1 .708-.708l.646.647 2.646-2.647a.5.5 0 0 1 .708.708Z"/></g><defs><clipPath id="icon-90fdea0f0850b53b__icon-bfc4547a8ef2b6ce__a"><path fill="#fff" d="M0 0h16v16H0z"/></clipPath></defs></svg>