<svg xmlns="http://www.w3.org/2000/svg" width="16" height="16" fill="currentColor"><path d="M11.5 1h-7A2.5 2.5 0 0 0 2 3.5v9A2.5 2.5 0 0 0 4.5 15h1.6a1.5 1.5 0 0 1 .199-.655l.964-1.669a1 1 0 0 1 .955-1.652l1.996-3.456.018-.026a1.52 1.52 0 0 1 2.531 0l.018.026L14 9.678V3.5A2.5 2.5 0 0 0 11.5 1Zm-6 2h5A1.5 1.5 0 0 1 12 4.5v1A1.5 1.5 0 0 1 10.5 7h-5A1.5 1.5 0 0 1 4 5.5v-1A1.5 1.5 0 0 1 5.5 3ZM6 9a1 1 0 1 1-2 0 1 1 0 0 1 2 0Zm0 3a1 1 0 1 1-2 0 1 1 0 0 1 2 0Zm2-2a1 1 0 1 1 0-2 1 1 0 0 1 0 2Z"/><path d="M15.83 14.845h.004a.5.5 0 0 1-.433.75H7.6a.5.5 0 0 1-.436-.75l3.9-6.75a.52.52 0 0 1 .866 0l3.9 6.75Z"/></svg>