<svg xmlns="http://www.w3.org/2000/svg" width="16" height="16" fill="currentColor"><path d="M1 3.75A2.75 2.75 0 0 1 3.75 1H5.5a.75.75 0 0 1 0 1.5H3.75c-.69 0-1.25.56-1.25 1.25v8.531c0 .69.56 1.25 1.25 1.25H5.5a.75.75 0 0 1 0 1.5H3.75A2.75 2.75 0 0 1 1 12.281V3.75ZM15 12.281a2.75 2.75 0 0 1-2.75 2.75H10.5a.75.75 0 1 1 0-1.5h1.75c.69 0 1.25-.56 1.25-1.25V3.75c0-.69-.56-1.25-1.25-1.25H10.5a.75.75 0 0 1 0-1.5h1.75A2.75 2.75 0 0 1 15 3.75v8.531Z"/><path d="M5.5 4A1.5 1.5 0 0 0 4 5.5v4A1.5 1.5 0 0 0 5.5 11h3A1.5 1.5 0 0 0 10 9.5v-4A1.5 1.5 0 0 0 8.5 4h-3ZM5 5.5a.5.5 0 0 1 .5-.5h3a.5.5 0 0 1 0 1h-3a.5.5 0 0 1-.5-.5Zm0 2a.5.5 0 0 1 .5-.5H6a.5.5 0 0 1 0 1h-.5a.5.5 0 0 1-.5-.5Zm2.5 0A.5.5 0 0 1 8 7h.5a.5.5 0 0 1 0 1H8a.5.5 0 0 1-.5-.5Zm0 1.969a.5.5 0 0 1 .5-.5h.5a.5.5 0 0 1 0 1H8a.5.5 0 0 1-.5-.5Zm-2.5 0a.5.5 0 0 1 .5-.5H6a.5.5 0 0 1 0 1h-.5a.5.5 0 0 1-.5-.5Z"/><path d="M6.379 12c.404.603 1.09 1 1.871 1h1.5A2.25 2.25 0 0 0 12 10.75v-2.5c0-.78-.397-1.467-1-1.871v4.371c0 .69-.56 1.25-1.25 1.25H6.379Z"/></svg>