<svg xmlns="http://www.w3.org/2000/svg" width="20" height="20" fill="currentColor"><path d="M11.035 17H6.5A1.5 1.5 0 0 1 5 15.5v-11A1.5 1.5 0 0 1 6.5 3h7A1.5 1.5 0 0 1 15 4.5V9h1V4.5A2.5 2.5 0 0 0 13.5 2h-7A2.5 2.5 0 0 0 4 4.5v11A2.5 2.5 0 0 0 6.5 18h4.837a3.474 3.474 0 0 1-.302-1Z"/><path d="M8 11a1 1 0 1 1-2 0 1 1 0 0 1 2 0ZM8 14a1 1 0 1 1-2 0 1 1 0 0 1 2 0ZM10 13a1 1 0 1 1 0 2 1 1 0 0 1 0-2ZM11 11a1 1 0 1 1-2 0 1 1 0 0 1 2 0ZM7.5 4A1.5 1.5 0 0 0 6 5.5v1A1.5 1.5 0 0 0 7.5 8h5A1.5 1.5 0 0 0 14 6.5v-1A1.5 1.5 0 0 0 12.5 4h-5ZM7 5.5a.5.5 0 0 1 .5-.5h5a.5.5 0 0 1 .5.5v1a.5.5 0 0 1-.5.5h-5a.5.5 0 0 1-.5-.5v-1ZM16.374 15h-.97l.222-1.005h.972L16.374 15Z"/><path d="M12 12.5a2.5 2.5 0 0 1 2.5-2.5h3a2.5 2.5 0 0 1 2.5 2.5v4a2.5 2.5 0 0 1-2.5 2.5h-3a2.5 2.5 0 0 1-2.5-2.5v-4Zm1.5.995a.5.5 0 0 0 .5.5h.601L14.38 15H13.5a.5.5 0 1 0 0 1h.658l-.142.638a.5.5 0 0 0 .977.216l.189-.854h.969l-.143.637a.5.5 0 0 0 .976.218l.191-.855H18a.5.5 0 0 0 0-1h-.602l.225-1.005h.877a.5.5 0 1 0 0-1h-.654l.141-.633a.5.5 0 0 0-.976-.218l-.19.851h-.974l.14-.634a.5.5 0 1 0-.976-.216l-.188.85H14a.5.5 0 0 0-.5.5Z"/></svg>