<svg xmlns="http://www.w3.org/2000/svg" width="16" height="16" fill="currentColor"><path d="M3.5 2A1.5 1.5 0 0 0 2 3.5v9A1.5 1.5 0 0 0 3.5 14h2a.5.5 0 0 1 0 1h-2A2.5 2.5 0 0 1 1 12.5v-9A2.5 2.5 0 0 1 3.5 1h2a.5.5 0 0 1 0 1h-2ZM14 6.337V3.5A1.5 1.5 0 0 0 12.5 2h-2a.5.5 0 0 1 0-1h2A2.5 2.5 0 0 1 15 3.5v3.55a3.51 3.51 0 0 0-1-.713Z"/><path d="M6 9.969V11h-.5A1.5 1.5 0 0 1 4 9.5v-4A1.5 1.5 0 0 1 5.5 4h3A1.5 1.5 0 0 1 10 5.5V6h-.5a3.5 3.5 0 0 0-3.46 2.97A.51.51 0 0 0 6 8.97h-.5a.5.5 0 0 0 0 1H6ZM5.5 5a.5.5 0 0 0 0 1h3a.5.5 0 0 0 0-1h-3Zm0 2a.5.5 0 0 0 0 1H6a.5.5 0 0 0 0-1h-.5ZM11.374 12h-.97l.222-1.005h.972L11.374 12Z"/><path d="M7 9.5A2.5 2.5 0 0 1 9.5 7h3A2.5 2.5 0 0 1 15 9.5v4a2.5 2.5 0 0 1-2.5 2.5h-3A2.5 2.5 0 0 1 7 13.5v-4Zm1.5.995a.5.5 0 0 0 .5.5h.601L9.38 12H8.5a.5.5 0 1 0 0 1h.658l-.142.638a.5.5 0 0 0 .977.216l.189-.854h.969l-.143.637a.5.5 0 0 0 .976.218l.191-.855H13a.5.5 0 0 0 0-1h-.602l.225-1.005h.877a.5.5 0 1 0 0-1h-.654l.141-.633a.5.5 0 0 0-.976-.218l-.19.851h-.974l.14-.634a.5.5 0 1 0-.976-.217l-.188.851H9a.5.5 0 0 0-.5.5Z"/></svg>