<svg xmlns="http://www.w3.org/2000/svg" width="16" height="16" fill="currentColor"><path d="M11.5 1h-7A2.5 2.5 0 0 0 2 3.5v9A2.5 2.5 0 0 0 4.5 15h1.837A3.486 3.486 0 0 1 6 13.5v-4c0-.98.402-1.865 1.05-2.5H5.5A1.5 1.5 0 0 1 4 5.5v-1A1.5 1.5 0 0 1 5.5 3h5A1.5 1.5 0 0 1 12 4.5v1c0 .175-.03.344-.085.5h.585c.537 0 1.045.12 1.5.337V3.5A2.5 2.5 0 0 0 11.5 1ZM6 12a1 1 0 1 1-2 0 1 1 0 0 1 2 0Zm0-3a1 1 0 1 1-2 0 1 1 0 0 1 2 0ZM11.374 12h-.97l.222-1.005h.972L11.374 12Z"/><path d="M7 9.5A2.5 2.5 0 0 1 9.5 7h3A2.5 2.5 0 0 1 15 9.5v4a2.5 2.5 0 0 1-2.5 2.5h-3A2.5 2.5 0 0 1 7 13.5v-4Zm1.5.995a.5.5 0 0 0 .5.5h.601L9.38 12H8.5a.5.5 0 1 0 0 1h.658l-.142.638a.5.5 0 0 0 .977.216l.189-.854h.969l-.143.637a.5.5 0 0 0 .976.218l.191-.855H13a.5.5 0 0 0 0-1h-.602l.225-1.005h.877a.5.5 0 1 0 0-1h-.654l.141-.633a.5.5 0 0 0-.976-.218l-.19.851h-.974l.14-.634a.5.5 0 1 0-.976-.217l-.188.851H9a.5.5 0 0 0-.5.5Z"/></svg>