<svg xmlns="http://www.w3.org/2000/svg" width="16" height="16" fill="currentColor"><path fill="#424242" d="M3.5 2A1.5 1.5 0 0 0 2 3.5v9A1.5 1.5 0 0 0 3.5 14h2a.5.5 0 0 1 0 1h-2A2.5 2.5 0 0 1 1 12.5v-9A2.5 2.5 0 0 1 3.5 1h2a.5.5 0 0 1 0 1h-2Z"/><path fill="#424242" d="M10 6.207V5.5A1.5 1.5 0 0 0 8.5 4h-3A1.5 1.5 0 0 0 4 5.5v4A1.5 1.5 0 0 0 5.5 11h.522c.034-.375.106-.74.21-1.089A.498.498 0 0 1 6 9.97h-.5a.5.5 0 0 1 0-1H6a.5.5 0 0 1 .465.315 5.509 5.509 0 0 1 1.071-1.597A.499.499 0 0 1 8 7h.337c.5-.352 1.06-.622 1.663-.793ZM5 5.5a.5.5 0 0 1 .5-.5h3a.5.5 0 0 1 0 1h-3a.5.5 0 0 1-.5-.5Zm0 2a.5.5 0 0 1 .5-.5H6a.5.5 0 0 1 0 1h-.5a.5.5 0 0 1-.5-.5ZM15 7.257V3.5A2.5 2.5 0 0 0 12.5 1h-2a.5.5 0 0 0 0 1h2A1.5 1.5 0 0 1 14 3.5v3.1c.358.183.693.404 1 .657Z"/><path fill="#117865" d="M11.5 16a4.5 4.5 0 1 0 0-9 4.5 4.5 0 0 0 0 9Zm2.354-5.646-3 3a.5.5 0 0 1-.708 0l-1-1a.5.5 0 0 1 .708-.708l.646.647 2.646-2.647a.5.5 0 0 1 .708.708Z"/></svg>