<svg xmlns="http://www.w3.org/2000/svg" width="20" height="20" fill="currentColor"><path d="M3 4.5A1.5 1.5 0 0 1 4.5 3h2a.5.5 0 0 0 0-1h-2A2.5 2.5 0 0 0 2 4.5v11A2.5 2.5 0 0 0 4.5 18h2a.5.5 0 0 0 0-1h-2A1.5 1.5 0 0 1 3 15.5v-11Z"/><path d="M14 9.035V6.5A1.5 1.5 0 0 0 12.5 5h-5A1.5 1.5 0 0 0 6 6.5v7A1.5 1.5 0 0 0 7.5 15H11v-1a.5.5 0 0 1 0-1v-.5c0-.17.012-.337.035-.5H11a.5.5 0 0 1 0-1h.337c.178-.376.422-.715.716-1.003A.508.508 0 0 1 12 10h-1a.5.5 0 0 1 0-1h1a.5.5 0 0 1 .48.642A3.48 3.48 0 0 1 14 9.035ZM7.5 6h5a.5.5 0 0 1 .5.5v1a.5.5 0 0 1-.5.5h-5a.5.5 0 0 1-.5-.5v-1a.5.5 0 0 1 .5-.5ZM8 9h1a.5.5 0 0 1 0 1H8a.5.5 0 0 1 0-1Zm1 2a.5.5 0 0 1 0 1H8a.5.5 0 0 1 0-1h1Zm-1 2h1a.5.5 0 0 1 0 1H8a.5.5 0 0 1 0-1ZM18 4.5v4.535A3.53 3.53 0 0 0 17.5 9H17V4.5A1.5 1.5 0 0 0 15.5 3h-2a.5.5 0 0 1 0-1h2A2.5 2.5 0 0 1 18 4.5ZM16.374 15h-.97l.222-1.005h.972L16.374 15Z"/><path d="M12 12.5a2.5 2.5 0 0 1 2.5-2.5h3a2.5 2.5 0 0 1 2.5 2.5v4a2.5 2.5 0 0 1-2.5 2.5h-3a2.5 2.5 0 0 1-2.5-2.5v-4Zm1.5.995a.5.5 0 0 0 .5.5h.601L14.38 15H13.5a.5.5 0 1 0 0 1h.658l-.142.638a.5.5 0 0 0 .977.216l.189-.854h.969l-.143.637a.5.5 0 0 0 .976.218l.191-.855H18a.5.5 0 0 0 0-1h-.602l.225-1.005h.877a.5.5 0 1 0 0-1h-.654l.141-.633a.5.5 0 0 0-.976-.218l-.19.851h-.974l.14-.634a.5.5 0 1 0-.976-.216l-.188.85H14a.5.5 0 0 0-.5.5Z"/></svg>