<svg xmlns="http://www.w3.org/2000/svg" width="16" height="16" fill="currentColor"><g clip-path="url(#icon-ca9f34a3e79fa7c4__icon-da25045e84408e23__a)"><path fill="#424242" d="M4 4a1 1 0 0 1 1-1h5a1 1 0 0 1 1 1v1c0 .27-.107.516-.282.696A5.462 5.462 0 0 0 9.552 6H5a1 1 0 0 1-1-1V4Zm6 0H5v1h5V4ZM7 8a1 1 0 1 0-.49.86c.138-.302.302-.59.49-.86ZM6.127 10.04a1 1 0 1 0-.038 1.988 5.539 5.539 0 0 1 .038-1.989Z"/><path fill="#424242" d="M6.34 13H4.5A1.5 1.5 0 0 1 3 11.5v-8A1.5 1.5 0 0 1 4.5 2h6A1.5 1.5 0 0 1 12 3.5v2.159c.343.03.678.091 1 .181V3.5A2.5 2.5 0 0 0 10.5 1h-6A2.5 2.5 0 0 0 2 3.5v8A2.5 2.5 0 0 0 4.5 14h2.32a5.476 5.476 0 0 1-.48-1ZM7.601 15H4.5c.456.607 1.182 1 2 1h2.444A5.52 5.52 0 0 1 7.6 15ZM15 6.88V5.5c0-.818-.393-1.544-1-2V6.23c.357.181.693.4 1 .652Z"/><path fill="#117865" d="M11.5 16a4.5 4.5 0 1 0 0-9 4.5 4.5 0 0 0 0 9Zm2.354-5.646-3 3a.5.5 0 0 1-.708 0l-1-1a.5.5 0 0 1 .708-.708l.646.647 2.646-2.647a.5.5 0 0 1 .708.708Z"/></g><defs><clipPath id="icon-ca9f34a3e79fa7c4__icon-da25045e84408e23__a"><path fill="#fff" d="M0 0h16v16H0z"/></clipPath></defs></svg>