<svg xmlns="http://www.w3.org/2000/svg" width="16" height="16" fill="currentColor"><path d="M1 3.75A2.75 2.75 0 0 1 3.75 1H5.5a.75.75 0 0 1 0 1.5H3.75c-.69 0-1.25.56-1.25 1.25v8.531c0 .69.56 1.25 1.25 1.25H5.5c.196 0 .374.075.507.198.02.304.078.597.17.874a.75.75 0 0 1-.677.428H3.75A2.75 2.75 0 0 1 1 12.281V3.75ZM14 6.337V3.75A2.75 2.75 0 0 0 11.25 1H9.5a.75.75 0 1 0 0 1.5h1.75c.69 0 1.25.56 1.25 1.25V6c.537 0 1.045.12 1.5.337Z"/><path d="M11 5.5V6h-1v-.5a.5.5 0 0 0-.5-.5h-4a.5.5 0 0 0-.5.5v1a.5.5 0 0 0 .5.5h1.55a3.509 3.509 0 0 0-.713 1H5.5a.5.5 0 0 0 0 1h.535A3.53 3.53 0 0 0 6 9.5v.5h-.5a.5.5 0 0 0 0 1H6v1h-.5A1.5 1.5 0 0 1 4 10.5v-5A1.5 1.5 0 0 1 5.5 4h4A1.5 1.5 0 0 1 11 5.5ZM11.374 12h-.97l.222-1.005h.972L11.374 12Z"/><path d="M7 9.5A2.5 2.5 0 0 1 9.5 7h3A2.5 2.5 0 0 1 15 9.5v4a2.5 2.5 0 0 1-2.5 2.5h-3A2.5 2.5 0 0 1 7 13.5v-4Zm1.5.995a.5.5 0 0 0 .5.5h.601L9.38 12H8.5a.5.5 0 1 0 0 1h.658l-.142.638a.5.5 0 0 0 .977.216l.189-.854h.969l-.143.637a.5.5 0 0 0 .976.218l.191-.855H13a.5.5 0 0 0 0-1h-.602l.225-1.005h.877a.5.5 0 1 0 0-1h-.654l.141-.633a.5.5 0 0 0-.976-.218l-.19.851h-.974l.14-.634a.5.5 0 1 0-.976-.217l-.188.851H9a.5.5 0 0 0-.5.5Z"/></svg>