<svg xmlns="http://www.w3.org/2000/svg" width="16" height="16" fill="currentColor"><path fill="#424242" d="M3.75 1A2.75 2.75 0 0 0 1 3.75v8.531a2.75 2.75 0 0 0 2.75 2.75H5.5a.75.75 0 1 0 0-1.5H3.75c-.69 0-1.25-.56-1.25-1.25V3.75c0-.69.56-1.25 1.25-1.25H5.5a.75.75 0 0 0 0-1.5H3.75Z"/><path fill="#424242" d="M10 6.207V5.5A1.5 1.5 0 0 0 8.5 4h-3A1.5 1.5 0 0 0 4 5.5v4A1.5 1.5 0 0 0 5.5 11h.522c.034-.375.106-.74.21-1.089A.498.498 0 0 1 6 9.97h-.5a.5.5 0 0 1 0-1H6a.5.5 0 0 1 .465.315 5.509 5.509 0 0 1 1.071-1.597A.499.499 0 0 1 8 7h.337c.5-.352 1.06-.622 1.663-.793ZM5 5.5a.5.5 0 0 1 .5-.5h3a.5.5 0 0 1 0 1h-3a.5.5 0 0 1-.5-.5Zm0 2a.5.5 0 0 1 .5-.5H6a.5.5 0 0 1 0 1h-.5a.5.5 0 0 1-.5-.5ZM13.5 6.375a5.496 5.496 0 0 1 1.5.882V3.75A2.75 2.75 0 0 0 12.25 1H10.5a.75.75 0 0 0 0 1.5h1.75c.69 0 1.25.56 1.25 1.25v2.625Z"/><path fill="#117865" d="M11.5 16a4.5 4.5 0 1 0 0-9 4.5 4.5 0 0 0 0 9Zm2.354-5.646-3 3a.5.5 0 0 1-.708 0l-1-1a.5.5 0 0 1 .708-.708l.646.647 2.646-2.647a.5.5 0 0 1 .708.708Z"/></svg>