<svg xmlns="http://www.w3.org/2000/svg" width="16" height="16" fill="currentColor"><path d="M2 3.5A1.5 1.5 0 0 1 3.5 2h2a.5.5 0 0 0 0-1h-2A2.5 2.5 0 0 0 1 3.5v9A2.5 2.5 0 0 0 3.5 15h2a.5.5 0 0 0 0-1h-2A1.5 1.5 0 0 1 2 12.5v-9ZM13 12.5a1.5 1.5 0 0 1-1.5 1.5h-2a.5.5 0 0 0 0 1h2a2.5 2.5 0 0 0 2.5-2.5v-9A2.5 2.5 0 0 0 11.5 1h-2a.5.5 0 0 0 0 1h2A1.5 1.5 0 0 1 13 3.5v9Z"/><path d="M5.5 4A1.5 1.5 0 0 0 4 5.5v5A1.5 1.5 0 0 0 5.5 12h4a1.5 1.5 0 0 0 1.5-1.5v-5A1.5 1.5 0 0 0 9.5 4h-4ZM5 8.5a.5.5 0 0 1 .5-.5h1a.5.5 0 0 1 0 1h-1a.5.5 0 0 1-.5-.5ZM9.5 8a.5.5 0 0 1 0 1h-1a.5.5 0 0 1 0-1h1ZM5 10.5a.5.5 0 0 1 .5-.5h1a.5.5 0 0 1 0 1h-1a.5.5 0 0 1-.5-.5Zm4.5-.5a.5.5 0 0 1 0 1h-1a.5.5 0 0 1 0-1h1ZM5 5.5a.5.5 0 0 1 .5-.5h4a.5.5 0 0 1 .5.5v1a.5.5 0 0 1-.5.5h-4a.5.5 0 0 1-.5-.5v-1Z"/></svg>