<svg xmlns="http://www.w3.org/2000/svg" width="16" height="16" fill="currentColor"><path d="M1 3.75A2.75 2.75 0 0 1 3.75 1H5.5a.75.75 0 0 1 0 1.5H3.75c-.69 0-1.25.56-1.25 1.25v8.531c0 .69.56 1.25 1.25 1.25H5.5a.75.75 0 0 1 0 1.5H3.75A2.75 2.75 0 0 1 1 12.281V3.75ZM14 12.281a2.75 2.75 0 0 1-2.75 2.75H9.5a.75.75 0 1 1 0-1.5h1.75c.69 0 1.25-.56 1.25-1.25V3.75c0-.69-.56-1.25-1.25-1.25H9.5a.75.75 0 1 1 0-1.5h1.75A2.75 2.75 0 0 1 14 3.75v8.531Z"/><path d="M5.5 4A1.5 1.5 0 0 0 4 5.5v5A1.5 1.5 0 0 0 5.5 12h4a1.5 1.5 0 0 0 1.5-1.5v-5A1.5 1.5 0 0 0 9.5 4h-4Zm0 4h1a.5.5 0 0 1 0 1h-1a.5.5 0 0 1 0-1Zm4 0a.5.5 0 0 1 0 1h-1a.5.5 0 0 1 0-1h1Zm-4 2h1a.5.5 0 0 1 0 1h-1a.5.5 0 0 1 0-1Zm4 0a.5.5 0 0 1 0 1h-1a.5.5 0 0 1 0-1h1ZM5 5.5a.5.5 0 0 1 .5-.5h4a.5.5 0 0 1 .5.5v1a.5.5 0 0 1-.5.5h-4a.5.5 0 0 1-.5-.5v-1Z"/></svg>