<svg xmlns="http://www.w3.org/2000/svg" width="16" height="16" fill="currentColor"><path d="M2 3.5A1.5 1.5 0 0 1 3.5 2h2a.5.5 0 0 0 0-1h-2A2.5 2.5 0 0 0 1 3.5v9A2.5 2.5 0 0 0 3.5 15h2a.5.5 0 0 0 0-1h-2A1.5 1.5 0 0 1 2 12.5v-9ZM14 12.5a1.5 1.5 0 0 1-1.5 1.5h-2a.5.5 0 0 0 0 1h2a2.5 2.5 0 0 0 2.5-2.5v-9A2.5 2.5 0 0 0 12.5 1h-2a.5.5 0 0 0 0 1h2A1.5 1.5 0 0 1 14 3.5v9Z"/><path d="M5.5 4A1.5 1.5 0 0 0 4 5.5v4A1.5 1.5 0 0 0 5.5 11h3A1.5 1.5 0 0 0 10 9.5v-4A1.5 1.5 0 0 0 8.5 4h-3ZM5 5.5a.5.5 0 0 1 .5-.5h3a.5.5 0 0 1 0 1h-3a.5.5 0 0 1-.5-.5Zm0 2a.5.5 0 0 1 .5-.5H6a.5.5 0 0 1 0 1h-.5a.5.5 0 0 1-.5-.5Zm2.5 0A.5.5 0 0 1 8 7h.5a.5.5 0 0 1 0 1H8a.5.5 0 0 1-.5-.5Zm0 1.969a.5.5 0 0 1 .5-.5h.5a.5.5 0 0 1 0 1H8a.5.5 0 0 1-.5-.5Zm-2.5 0a.5.5 0 0 1 .5-.5H6a.5.5 0 0 1 0 1h-.5a.5.5 0 0 1-.5-.5Z"/><path d="M6.379 12c.404.603 1.09 1 1.871 1h1.5A2.25 2.25 0 0 0 12 10.75v-2.5c0-.78-.397-1.467-1-1.871v4.371c0 .69-.56 1.25-1.25 1.25H6.379Z"/></svg>