<svg xmlns="http://www.w3.org/2000/svg" width="16" height="16" fill="currentColor"><path d="M1 3.75A2.75 2.75 0 0 1 3.75 1H5.5a.75.75 0 0 1 0 1.5H3.75c-.69 0-1.25.56-1.25 1.25v8.531c0 .69.56 1.25 1.25 1.25H5.5c.196 0 .374.075.507.198.02.304.078.597.17.874a.75.75 0 0 1-.677.428H3.75A2.75 2.75 0 0 1 1 12.281V3.75ZM15 7.05a3.499 3.499 0 0 0-1.5-.905V3.75c0-.69-.56-1.25-1.25-1.25H10.5a.75.75 0 0 1 0-1.5h1.75A2.75 2.75 0 0 1 15 3.75v3.3Z"/><path d="M10 6v-.5A1.5 1.5 0 0 0 8.5 4h-3A1.5 1.5 0 0 0 4 5.5v4A1.5 1.5 0 0 0 5.5 11H6V9.969h-.5a.5.5 0 0 1 0-1H6a.51.51 0 0 1 .04.001A3.5 3.5 0 0 1 9.5 6h.5Zm-5-.5a.5.5 0 0 1 .5-.5h3a.5.5 0 0 1 0 1h-3a.5.5 0 0 1-.5-.5Zm0 2a.5.5 0 0 1 .5-.5H6a.5.5 0 0 1 0 1h-.5a.5.5 0 0 1-.5-.5ZM10.403 12l.223-1.005h.972L11.374 12h-.97Z"/><path d="M7 9.5A2.5 2.5 0 0 1 9.5 7h3A2.5 2.5 0 0 1 15 9.5v4a2.5 2.5 0 0 1-2.5 2.5h-3A2.5 2.5 0 0 1 7 13.5v-4Zm2 1.495h.601L9.38 12H8.5a.5.5 0 1 0 0 1h.658l-.142.638a.5.5 0 0 0 .977.216l.189-.854h.969l-.143.637a.5.5 0 0 0 .976.218l.191-.855H13a.5.5 0 0 0 0-1h-.602l.225-1.005h.877a.5.5 0 1 0 0-1h-.654l.141-.633a.5.5 0 0 0-.976-.218l-.19.851h-.974l.14-.634a.5.5 0 1 0-.976-.217l-.188.851H9a.5.5 0 1 0 0 1Z"/></svg>