<svg xmlns="http://www.w3.org/2000/svg" width="24" height="24" fill="currentColor"><path d="M17.75 3A3.25 3.25 0 0 1 21 6.25v10.663c-1.697-2.643-4.663-4.413-8-4.413h-.6c-.5 0-.9.2-1.2.6-.3.4-.4.8-.4 1.299a1.252 1.252 0 0 0 .351 1.269c-.262.377-.351.76-.351 1.232 0 .4.2.8.5 1.1-.05.05-.075.1-.1.15-.025.05-.05.1-.1.15-.3.4-.4.8-.3 1.3.1.5.3.8.7 1.1-.075.1-.143.199-.204.3H6.25A3.25 3.25 0 0 1 3 17.75V6.25A3.25 3.25 0 0 1 6.25 3h11.5Zm-10 10.5a1.25 1.25 0 1 0 0 2.5 1.25 1.25 0 0 0 0-2.5Zm0-5a1.25 1.25 0 1 0 0 2.5 1.25 1.25 0 0 0 0-2.5Zm4.25 0a1.25 1.25 0 1 0 0 2.5 1.25 1.25 0 0 0 0-2.5Zm4.25 0a1.25 1.25 0 1 0 0 2.5 1.25 1.25 0 0 0 0-2.5Z"/><path d="M12.453 13.517a8.5 8.5 0 0 1 9.03 9.03.75.75 0 1 1-1.497-.095 7 7 0 0 0-7.438-7.438.75.75 0 0 1-.095-1.497Z"/><path d="M12.43 16.027a6 6 0 0 1 6.544 6.544.75.75 0 0 1-1.494-.141 4.5 4.5 0 0 0-4.91-4.91.75.75 0 0 1-.14-1.493Z"/><path d="M12.365 18.558a3.5 3.5 0 0 1 4.078 4.078.75.75 0 1 1-1.476-.271 2 2 0 0 0-2.332-2.331.75.75 0 0 1-.27-1.476Z"/><path d="M13 23a1 1 0 1 0 0-2 1 1 0 0 0 0 2Z"/></svg>