<svg xmlns="http://www.w3.org/2000/svg" width="20" height="20" fill="currentColor"><path d="M14.5 3A2.5 2.5 0 0 1 17 5.5v4.1a5.465 5.465 0 0 0-1-.393V5.5A1.5 1.5 0 0 0 14.5 4h-9A1.5 1.5 0 0 0 4 5.5v9A1.5 1.5 0 0 0 5.5 16h3.707c.099.349.23.683.393 1H5.5A2.5 2.5 0 0 1 3 14.5v-9A2.5 2.5 0 0 1 5.5 3h9Z"/><path d="M10 11c.08 0 .16.01.235.028a5.491 5.491 0 0 0-.938 1.683A1 1 0 0 1 10 11ZM8 12a1 1 0 1 0-2 0 1 1 0 0 0 2 0ZM7 7a1 1 0 1 1 0 2 1 1 0 0 1 0-2ZM11 8a1 1 0 1 0-2 0 1 1 0 0 0 2 0ZM13 7a1 1 0 1 1 0 2 1 1 0 0 1 0-2ZM10 14.5a4.5 4.5 0 1 0 9 0 4.5 4.5 0 0 0-9 0Zm1 0a3.5 3.5 0 0 1 5.596-2.803l-4.9 4.9A3.484 3.484 0 0 1 11 14.5Zm3.5 3.5c-.786 0-1.512-.26-2.096-.697l4.9-4.9A3.5 3.5 0 0 1 14.5 18Z"/></svg>