<svg xmlns="http://www.w3.org/2000/svg" width="20" height="20" fill="currentColor"><path d="M5.5 16h3.707c.099.349.23.683.393 1H5.5A2.5 2.5 0 0 1 3 14.5v-9A2.5 2.5 0 0 1 5.5 3h9A2.5 2.5 0 0 1 17 5.5v4.1a5.465 5.465 0 0 0-1-.393V7H4v7.5A1.5 1.5 0 0 0 5.5 16Zm0-12A1.5 1.5 0 0 0 4 5.5V6h12v-.5A1.5 1.5 0 0 0 14.5 4h-9Z"/><path d="M7 11a1 1 0 1 0 0-2 1 1 0 0 0 0 2ZM8 13a1 1 0 1 1-2 0 1 1 0 0 1 2 0ZM10.294 10.956a1 1 0 1 1 .662-.662c-.239.201-.46.423-.662.662ZM19 14.5a4.5 4.5 0 1 1-9 0 4.5 4.5 0 0 1 9 0ZM14.5 12a.5.5 0 0 0-.5.5v2a.5.5 0 0 0 .5.5H16a.5.5 0 0 0 0-1h-1v-1.5a.5.5 0 0 0-.5-.5Z"/></svg>