<svg xmlns="http://www.w3.org/2000/svg" width="16" height="16" fill="currentColor"><path d="M2 4.5A2.5 2.5 0 0 1 4.5 2h7A2.5 2.5 0 0 1 14 4.5v2.1a5.465 5.465 0 0 0-1-.393V4.5A1.5 1.5 0 0 0 11.5 3h-7A1.5 1.5 0 0 0 3 4.5v7A1.5 1.5 0 0 0 4.5 13h1.707c.099.349.23.683.393 1H4.5A2.5 2.5 0 0 1 2 11.5v-7Z"/><path d="M12 6.022a5.572 5.572 0 0 0-1.98.18A1 1 0 1 1 12 6v.021ZM5 5a1 1 0 1 1 0 2 1 1 0 0 1 0-2ZM5 9a1 1 0 1 1 0 2 1 1 0 0 1 0-2ZM9 6a1 1 0 1 0-2 0 1 1 0 0 0 2 0ZM16 11.5a4.5 4.5 0 1 1-9 0 4.5 4.5 0 0 1 9 0Zm-4.854-2.353-2 2a.5.5 0 0 0 .708.707L11 10.707V13.5a.5.5 0 0 0 1 0v-2.793l1.146 1.147a.5.5 0 0 0 .708-.708l-2-2A.499.499 0 0 0 11.503 9h-.006a.498.498 0 0 0-.348.144l-.003.003Z"/></svg>