<svg xmlns="http://www.w3.org/2000/svg" width="24" height="24" fill="currentColor"><path d="M17.75 3A3.25 3.25 0 0 1 21 6.25v6.583a4.727 4.727 0 0 0-1.5-.326V6.25a1.75 1.75 0 0 0-1.75-1.75H6.25A1.75 1.75 0 0 0 4.5 6.25v11.5c0 .966.784 1.75 1.75 1.75h5.316a4.771 4.771 0 0 0 1.268 1.5H6.25A3.25 3.25 0 0 1 3 17.75V6.25A3.25 3.25 0 0 1 6.25 3h11.5Z"/><path d="M12 13.5c.23 0 .444.062.629.17a4.755 4.755 0 0 0-1.386 2.075A1.25 1.25 0 0 1 12 13.5ZM9 14.75a1.25 1.25 0 1 0-2.5 0 1.25 1.25 0 0 0 2.5 0ZM7.75 8.5a1.25 1.25 0 1 1 0 2.5 1.25 1.25 0 0 1 0-2.5ZM13.25 9.75a1.25 1.25 0 1 0-2.5 0 1.25 1.25 0 0 0 2.5 0ZM16.25 8.5a1.25 1.25 0 1 1 0 2.5 1.25 1.25 0 0 1 0-2.5ZM23 17.25a3.75 3.75 0 0 0-3.75-3.75l-.102.007A.75.75 0 0 0 19.25 15l.154.005a2.25 2.25 0 0 1-.154 4.495l-.003.005-.102.007a.75.75 0 0 0 .108 1.493V21l.2-.005A3.75 3.75 0 0 0 23 17.25ZM16.5 14.25a.75.75 0 0 0-.75-.75l-.2.005a3.75 3.75 0 0 0 .2 7.495l.102-.007a.75.75 0 0 0-.102-1.493l-.154-.005A2.25 2.25 0 0 1 15.75 15l.102-.007a.75.75 0 0 0 .648-.743Z"/><path d="M20 17.25a.75.75 0 0 0-.75-.75h-3.5l-.102.007A.75.75 0 0 0 15.75 18h3.5l.102-.007A.75.75 0 0 0 20 17.25Z"/></svg>