<svg xmlns="http://www.w3.org/2000/svg" width="20" height="20" fill="currentColor"><path d="M14.5 3A2.5 2.5 0 0 1 17 5.5v4.841a3.015 3.015 0 0 0-1-.94V5.5A1.5 1.5 0 0 0 14.5 4h-9A1.5 1.5 0 0 0 4 5.5v9A1.5 1.5 0 0 0 5.5 16h4.55c-.033.162-.05.329-.05.5 0 .167.013.334.038.5H5.5A2.5 2.5 0 0 1 3 14.5v-9A2.5 2.5 0 0 1 5.5 3h9Z"/><path d="M7 11a1 1 0 1 1 0 2 1 1 0 0 1 0-2ZM11 12a1 1 0 1 0-2 0 1 1 0 0 0 2 0ZM7 7a1 1 0 1 1 0 2 1 1 0 0 1 0-2ZM11 8a1 1 0 1 0-2 0 1 1 0 0 0 2 0ZM13 7a1 1 0 1 1 0 2 1 1 0 0 1 0-2ZM16.5 12a2 2 0 1 1-4 0 2 2 0 0 1 4 0ZM18 16.5c0 1.245-1 2.5-3.5 2.5S11 17.75 11 16.5a1.5 1.5 0 0 1 1.5-1.5h4a1.5 1.5 0 0 1 1.5 1.5Z"/></svg>