<svg xmlns="http://www.w3.org/2000/svg" width="24" height="24" fill="currentColor"><path d="M17.75 3A3.25 3.25 0 0 1 21 6.25v10.663a9.687 9.687 0 0 0-1.5-1.807V6.25a1.75 1.75 0 0 0-1.75-1.75H6.25A1.75 1.75 0 0 0 4.5 6.25v11.5c0 .966.784 1.75 1.75 1.75h4.533c.004.033.01.066.017.1.1.5.3.8.7 1.1-.075.1-.143.199-.204.3H6.25A3.25 3.25 0 0 1 3 17.75V6.25A3.25 3.25 0 0 1 6.25 3h11.5Z"/><path d="M9 14.75a1.25 1.25 0 1 0-2.5 0 1.25 1.25 0 0 0 2.5 0ZM7.75 8.5a1.25 1.25 0 1 1 0 2.5 1.25 1.25 0 0 1 0-2.5ZM13.25 9.75a1.25 1.25 0 1 0-2.5 0 1.25 1.25 0 0 0 2.5 0ZM16.25 8.5a1.25 1.25 0 1 1 0 2.5 1.25 1.25 0 0 1 0-2.5ZM12.453 13.517a8.5 8.5 0 0 1 9.03 9.03.75.75 0 1 1-1.497-.095 7 7 0 0 0-7.438-7.438.75.75 0 0 1-.095-1.497Z"/><path d="M12.43 16.027a6 6 0 0 1 6.544 6.544.75.75 0 0 1-1.494-.141 4.5 4.5 0 0 0-4.91-4.91.75.75 0 0 1-.14-1.493Z"/><path d="M12.365 18.558a3.5 3.5 0 0 1 4.078 4.078.75.75 0 1 1-1.476-.271 2 2 0 0 0-2.332-2.331.75.75 0 0 1-.27-1.476Z"/><path d="M13 23a1 1 0 1 0 0-2 1 1 0 0 0 0 2Z"/></svg>