<svg xmlns="http://www.w3.org/2000/svg" width="32" height="32" fill="currentColor"><path d="M7.5 3A4.5 4.5 0 0 0 3 7.5v17A4.5 4.5 0 0 0 7.5 29h9.888a5.756 5.756 0 0 1-2.386-2H7.5A2.5 2.5 0 0 1 5 24.5v-17A2.5 2.5 0 0 1 7.5 5h17A2.5 2.5 0 0 1 27 7.5v10.546a5.676 5.676 0 0 1 2 .646V7.5A4.5 4.5 0 0 0 24.5 3h-17Z"/><path d="M15.47 19.904a5.742 5.742 0 0 1 2.03-1.453 1.5 1.5 0 1 0-2.03 1.453ZM10.5 14a1.5 1.5 0 1 0 0-3 1.5 1.5 0 0 0 0 3ZM10.5 20a1.5 1.5 0 1 0 0-3 1.5 1.5 0 0 0 0 3ZM17.5 12.5a1.5 1.5 0 1 1-3 0 1.5 1.5 0 0 1 3 0ZM23 12.5a1.5 1.5 0 1 1-3 0 1.5 1.5 0 0 1 3 0ZM15.5 23.75a4.25 4.25 0 0 1 4.25-4.25h1a.75.75 0 0 1 0 1.5h-1a2.75 2.75 0 1 0 0 5.5h1a.75.75 0 0 1 0 1.5h-1a4.25 4.25 0 0 1-4.25-4.25ZM30.5 23.75a4.25 4.25 0 0 0-4.25-4.25h-1.5a.75.75 0 0 0 0 1.5h1.5a2.75 2.75 0 1 1 0 5.5h-1.5a.75.75 0 0 0 0 1.5h1.5a4.25 4.25 0 0 0 4.25-4.25Z"/><path d="M19.5 23.75a.75.75 0 0 1 .75-.75h5.5a.75.75 0 0 1 0 1.5h-5.5a.75.75 0 0 1-.75-.75Z"/></svg>