<svg xmlns="http://www.w3.org/2000/svg" width="20" height="20" fill="currentColor"><path d="M14.5 3A2.5 2.5 0 0 1 17 5.5v5.035a3.538 3.538 0 0 0-.5-.035H16v-5A1.5 1.5 0 0 0 14.5 4h-9A1.5 1.5 0 0 0 4 5.5v9A1.5 1.5 0 0 0 5.5 16h4.127c.282.404.646.745 1.07 1H5.5A2.5 2.5 0 0 1 3 14.5v-9A2.5 2.5 0 0 1 5.5 3h9Z"/><path d="M10 11c.18 0 .349.048.495.13a3.512 3.512 0 0 0-1.235 1.543A1 1 0 0 1 10 11ZM8 12a1 1 0 1 0-2 0 1 1 0 0 0 2 0ZM7 7a1 1 0 1 1 0 2 1 1 0 0 1 0-2ZM11 8a1 1 0 1 0-2 0 1 1 0 0 0 2 0ZM13 7a1 1 0 1 1 0 2 1 1 0 0 1 0-2ZM12.5 11.5a2.5 2.5 0 0 0 0 5h.5a.5.5 0 0 0 0-1h-.5a1.5 1.5 0 0 1 0-3h.5a.5.5 0 0 0 0-1h-.5ZM16 11.5a.5.5 0 0 0 0 1h.5a1.5 1.5 0 0 1 0 3H16a.5.5 0 0 0 0 1h.5a2.5 2.5 0 0 0 0-5H16Z"/><path d="M12 14a.5.5 0 0 1 .5-.5h4a.5.5 0 0 1 0 1h-4a.5.5 0 0 1-.5-.5Z"/></svg>