<svg xmlns="http://www.w3.org/2000/svg" width="20" height="20" fill="currentColor"><path d="M5.5 3A2.5 2.5 0 0 0 3 5.5V6h14v-.5A2.5 2.5 0 0 0 14.5 3h-9ZM17 7H3v7.5A2.5 2.5 0 0 0 5.5 17h4.1c-.384-.75-.6-1.6-.6-2.5 0-1.35.486-2.587 1.294-3.544a1 1 0 1 1 .662-.662A5.477 5.477 0 0 1 14.5 9c.9 0 1.75.216 2.5.6V7Zm-9 3a1 1 0 1 1-2 0 1 1 0 0 1 2 0Zm-1 4a1 1 0 1 1 0-2 1 1 0 0 1 0 2Z"/><path d="M19 14.5a4.5 4.5 0 1 1-9 0 4.5 4.5 0 0 1 9 0ZM14.5 12a.5.5 0 0 0-.5.5v2a.5.5 0 0 0 .5.5H16a.5.5 0 0 0 0-1h-1v-1.5a.5.5 0 0 0-.5-.5Z"/></svg>