<svg xmlns="http://www.w3.org/2000/svg" width="24" height="24" fill="currentColor"><path d="M17.75 3A3.25 3.25 0 0 1 21 6.25v8.25c0-1.19-.593-2.24-1.5-2.873V6.25a1.75 1.75 0 0 0-1.75-1.75H6.25A1.75 1.75 0 0 0 4.5 6.25v11.5c0 .966.784 1.75 1.75 1.75h5.763a2.81 2.81 0 0 0-.013.272v.103c0 .38.056.758.172 1.125H6.25A3.25 3.25 0 0 1 3 17.75V6.25A3.25 3.25 0 0 1 6.25 3h11.5Z"/><path d="M9 14.75a1.25 1.25 0 1 0-2.5 0 1.25 1.25 0 0 0 2.5 0ZM13.25 14.75a1.25 1.25 0 1 0-2.5 0 1.25 1.25 0 0 0 2.5 0ZM9 9.75a1.25 1.25 0 1 0-2.5 0 1.25 1.25 0 0 0 2.5 0ZM13.25 9.75a1.25 1.25 0 1 0-2.5 0 1.25 1.25 0 0 0 2.5 0ZM17.5 9.75a1.25 1.25 0 1 0-2.5 0 1.25 1.25 0 0 0 2.5 0ZM20 14.5a2.5 2.5 0 1 1-5 0 2.5 2.5 0 0 1 5 0ZM17.5 23c3.214 0 4.5-1.569 4.5-3.125v-.103c0-.979-.794-1.772-1.773-1.772h-5.454c-.98 0-1.773.793-1.773 1.772v.103C13 21.437 14.286 23 17.5 23Z"/></svg>