<svg xmlns="http://www.w3.org/2000/svg" width="20" height="20" fill="currentColor"><path d="M14.5 3A2.5 2.5 0 0 1 17 5.5v6.267a8.06 8.06 0 0 0-1-.688V5.5A1.5 1.5 0 0 0 14.5 4h-9A1.5 1.5 0 0 0 4 5.5v9A1.5 1.5 0 0 0 5.5 16h4.537c.107.265.285.522.463.7a1.51 1.51 0 0 0-.23.3H5.5A2.5 2.5 0 0 1 3 14.5v-9A2.5 2.5 0 0 1 5.5 3h9Z"/><path d="M10 11c.03 0 .06.001.09.004-.064.19-.09.393-.09.596 0 .4.2.7.4.9a1.265 1.265 0 0 0-.29.494A1 1 0 1 1 10 11ZM8 12a1 1 0 1 0-2 0 1 1 0 0 0 2 0ZM7 7a1 1 0 1 1 0 2 1 1 0 0 1 0-2ZM11 8a1 1 0 1 0-2 0 1 1 0 0 0 2 0ZM13 7a1 1 0 1 1 0 2 1 1 0 0 1 0-2ZM11.462 11.02a7 7 0 0 1 7.518 7.518.5.5 0 1 1-.997-.076 6 6 0 0 0-6.445-6.445.5.5 0 1 1-.076-.997Z"/><path d="M11.445 13.03a5 5 0 0 1 5.524 5.524.5.5 0 1 1-.993-.109 4 4 0 0 0-4.42-4.42.5.5 0 1 1-.11-.995Z"/><path d="M11.4 15.06a3 3 0 0 1 3.54 3.54.5.5 0 0 1-.98-.2 2 2 0 0 0-2.36-2.36.5.5 0 1 1-.2-.98Z"/><path d="M12 19a1 1 0 1 0 0-2 1 1 0 0 0 0 2Z"/></svg>