<svg xmlns="http://www.w3.org/2000/svg" width="16" height="16" fill="currentColor"><path fill="#424242" d="M5.997 8.248a.748.748 0 1 1-1.497 0 .748.748 0 0 1 1.497 0ZM5.248 11.497a.748.748 0 1 0 0-1.497.748.748 0 0 0 0 1.497Z"/><path fill="#424242" d="M11.5 2A2.5 2.5 0 0 1 14 4.5v1.729a5.477 5.477 0 0 0-2.482-.59c-.693 0-1.356.127-1.966.361H3v5.5A1.5 1.5 0 0 0 4.5 13h1.84c.127.351.288.686.48 1H4.5A2.5 2.5 0 0 1 2 11.5v-7A2.5 2.5 0 0 1 4.5 2h7Zm0 1h-7A1.5 1.5 0 0 0 3 4.5V5h10v-.5A1.5 1.5 0 0 0 11.5 3Z"/><path fill="#117865" d="M11.5 16a4.5 4.5 0 1 0 0-9 4.5 4.5 0 0 0 0 9Zm2.354-5.646-3 3a.5.5 0 0 1-.708 0l-1-1a.5.5 0 0 1 .708-.708l.646.647 2.646-2.647a.5.5 0 0 1 .708.708Z"/></svg>