<svg xmlns="http://www.w3.org/2000/svg" width="32" height="32" fill="currentColor"><path d="M3 7.5A4.5 4.5 0 0 1 7.5 3h17A4.5 4.5 0 0 1 29 7.5v13.012a15.019 15.019 0 0 0-2-2.183V7.5A2.5 2.5 0 0 0 24.5 5h-17A2.5 2.5 0 0 0 5 7.5v17A2.5 2.5 0 0 0 7.5 27h6.9c.019.034.039.067.06.1a3.5 3.5 0 0 0-.908 1.9H7.5A4.5 4.5 0 0 1 3 24.5v-17Z"/><path d="M10.5 14a1.5 1.5 0 1 0 0-3 1.5 1.5 0 0 0 0 3ZM10.5 20a1.5 1.5 0 1 0 0-3 1.5 1.5 0 0 0 0 3ZM17.5 12.5a1.5 1.5 0 1 1-3 0 1.5 1.5 0 0 1 3 0ZM23 12.5a1.5 1.5 0 1 1-3 0 1.5 1.5 0 0 1 3 0ZM16.04 17.032a1 1 0 0 1 1-1 13 13 0 0 1 13 13v.01c0 .15 0 .33-.012.514a1 1 0 1 1-1.996-.116c.007-.121.007-.247.007-.408a11 11 0 0 0-11-11 1 1 0 0 1-1-1Z"/><path d="M17.044 20.032a1 1 0 1 0-.01 2 7.041 7.041 0 0 1 7.005 7.076v.005c0 .147 0 .247-.008.34a1 1 0 1 0 1.994.158c.014-.18.014-.352.014-.485v-.01a9.04 9.04 0 0 0-8.995-9.084Z"/><path d="M17.04 26.032a3.001 3.001 0 0 1 2.975 3.388 1 1 0 1 0 1.983.26 5 5 0 0 0-4.96-5.648 1 1 0 0 0 .001 2ZM17.04 30.532a1.5 1.5 0 1 0 0-3 1.5 1.5 0 0 0 0 3Z"/></svg>