<svg xmlns="http://www.w3.org/2000/svg" width="16" height="16" fill="currentColor"><path d="M4.5 2A2.5 2.5 0 0 0 2 4.5v7A2.5 2.5 0 0 0 4.5 14h2.1a5.502 5.502 0 0 1 3.42-7.799A1 1 0 1 1 12 6v.022c.715.065 1.39.266 2 .578V4.5A2.5 2.5 0 0 0 11.5 2h-7ZM5 5a1 1 0 1 1 0 2 1 1 0 0 1 0-2Zm1 5a1 1 0 1 1-2 0 1 1 0 0 1 2 0Zm3-4a1 1 0 1 1-2 0 1 1 0 0 1 2 0Z"/><path d="M16 11.5a4.5 4.5 0 1 1-9 0 4.5 4.5 0 0 1 9 0Zm-4.854-2.353-2 2a.5.5 0 0 0 .708.707L11 10.707V13.5a.5.5 0 0 0 1 0v-2.793l1.146 1.147a.5.5 0 0 0 .708-.708l-2-2A.499.499 0 0 0 11.503 9h-.006a.498.498 0 0 0-.348.144l-.003.003Z"/></svg>