<svg xmlns="http://www.w3.org/2000/svg" width="16" height="16" fill="currentColor"><path fill="#424242" d="M6.82 14a5.502 5.502 0 0 1 2.732-8H2v5.5A2.5 2.5 0 0 0 4.5 14h2.32ZM5.248 8.997a.748.748 0 1 1 0-1.497.748.748 0 0 1 0 1.497Zm0 2.5a.748.748 0 1 1 0-1.497.748.748 0 0 1 0 1.497ZM11.5 2A2.5 2.5 0 0 1 14 4.5V5H2v-.5A2.5 2.5 0 0 1 4.5 2h7Z"/><path fill="#117865" d="M11.5 16a4.5 4.5 0 1 0 0-9 4.5 4.5 0 0 0 0 9Zm2.354-5.646-3 3a.5.5 0 0 1-.708 0l-1-1a.5.5 0 0 1 .708-.708l.646.647 2.646-2.647a.5.5 0 0 1 .708.708Z"/></svg>