<svg xmlns="http://www.w3.org/2000/svg" width="16" height="16" fill="currentColor"><path fill="#424242" d="M4.496 4.938a2 2 0 1 0-.992 0A.506.506 0 0 0 3.5 5v7A2.5 2.5 0 0 0 6 14.5h.89a5.483 5.483 0 0 1-.515-1H6A1.5 1.5 0 0 1 4.5 12V9c.418.314.937.5 1.5.5h.375c.138-.352.31-.687.514-1H6A1.5 1.5 0 0 1 4.5 7V5a.506.506 0 0 0-.004-.062Z"/><path fill="#117865" d="M11.5 16a4.5 4.5 0 1 0 0-9 4.5 4.5 0 0 0 0 9Zm2.354-5.646-3 3a.5.5 0 0 1-.708 0l-1-1a.5.5 0 0 1 .708-.708l.646.647 2.646-2.647a.5.5 0 0 1 .708.708Z"/></svg>