<svg xmlns="http://www.w3.org/2000/svg" width="32" height="32" fill="currentColor"><path d="M20.91 6.047a5.002 5.002 0 0 0-9.82 0C6.912 7.923 4 12.122 4 17c0 .644.05 1.276.148 1.892a5 5 0 0 0 5.547 8.32A11.944 11.944 0 0 0 16 29c2.313 0 4.473-.654 6.305-1.788a5 5 0 0 0 5.547-8.32c.097-.616.148-1.248.148-1.892 0-4.878-2.911-9.077-7.09-10.953ZM13 7a3 3 0 1 1 6 0 3 3 0 0 1-6 0Zm-1.843 1.249a5.002 5.002 0 0 0 9.686 0 9.997 9.997 0 0 1 5.099 9.84 5 5 0 0 0-5.112 7.67A9.954 9.954 0 0 1 16 27a9.954 9.954 0 0 1-4.83-1.241 5 5 0 0 0-5.112-7.67 9.997 9.997 0 0 1 5.099-9.84ZM4 23a3 3 0 1 1 6 0 3 3 0 0 1-6 0Zm21-3a3 3 0 1 1 0 6 3 3 0 0 1 0-6Z"/></svg>