<svg xmlns="http://www.w3.org/2000/svg" width="16" height="16" fill="currentColor"><path d="M8 1a2.5 2.5 0 0 0-2.5 2.544A6.001 6.001 0 0 0 2 9v.05a2.5 2.5 0 1 0 2.017 4.437A5.977 5.977 0 0 0 8 15a5.977 5.977 0 0 0 3.983-1.513A2.5 2.5 0 1 0 14 9.05V9a6 6 0 0 0-3.5-5.456V3.5A2.5 2.5 0 0 0 8 1Zm5 8.05a2.5 2.5 0 0 0-1.675 3.684A4.981 4.981 0 0 1 8 14a4.98 4.98 0 0 1-3.325-1.266A2.5 2.5 0 0 0 3 9.05L3 9a5 5 0 0 1 2.728-4.455 2.5 2.5 0 0 0 4.544 0A5 5 0 0 1 13 9.05ZM6.5 3.5a1.5 1.5 0 1 1 3 0 1.5 1.5 0 0 1-3 0Zm-4 6.5a1.5 1.5 0 1 1 0 3 1.5 1.5 0 0 1 0-3Zm9.5 1.5a1.5 1.5 0 1 1 3 0 1.5 1.5 0 0 1-3 0Z"/></svg>