<svg xmlns="http://www.w3.org/2000/svg" width="20" height="20" fill="currentColor"><path d="M8 16.25a1.75 1.75 0 1 0 0-3.5 1.75 1.75 0 0 0 0 3.5Z"/><path d="M10 4c2.817 0 4.415 1.923 4.647 4.246h.07c1.814 0 3.283 1.512 3.283 3.377 0 1.405-.835 2.61-2.022 3.119a1.508 1.508 0 0 0-.196-1.016A2.39 2.39 0 0 0 17 11.623c0-1.32-1.028-2.377-2.282-2.377h-.071a1 1 0 0 1-.995-.9C13.45 6.325 12.109 5 10 5 7.886 5 6.551 6.316 6.348 8.345a1 1 0 0 1-.995.901h-.07C4.027 9.246 3 10.304 3 11.623 3 12.943 4.028 14 5.282 14h.013a2.766 2.766 0 0 0 0 1h-.013C3.469 15 2 13.488 2 11.623 2 9.82 3.373 8.347 5.102 8.251l.251-.005C5.587 5.908 7.183 4 10 4Z"/><path d="M6.322 15a1.75 1.75 0 1 0 3.356-1.001A1.75 1.75 0 0 0 6.322 15Z"/><path d="M6.686 11.264a3.63 3.63 0 0 1 1.07-.255 3.513 3.513 0 0 1 3.74 3.317l.002.04.002.133c0 1.924-1.576 3.5-3.5 3.5a3.52 3.52 0 0 1-1.314-.264.5.5 0 1 0-.372.93A4.512 4.512 0 0 0 8 19a4.484 4.484 0 0 0 3.154-1.297A4.493 4.493 0 0 0 12.473 15h2.026a.499.499 0 0 0 .501-.501.5.5 0 0 0-.5-.5h-2.027a4.514 4.514 0 0 0-4.472-4c-.569 0-1.132.114-1.686.336a.5.5 0 0 0 .37.93Z"/></svg>