<svg xmlns="http://www.w3.org/2000/svg" width="20" height="20" fill="currentColor"><path d="M2.75 4.5a.75.75 0 0 0 0 1.5h5a.75.75 0 0 0 0-1.5h-5ZM5.75 7.5a.75.75 0 0 0 0 1.5h4.5a.75.75 0 0 0 0-1.5h-4.5ZM4.75 10.5a.75.75 0 0 0 0 1.5h6.585l.625-1.5H4.75ZM17 8.25a.75.75 0 0 1-.75.75h-3a.75.75 0 0 1 0-1.5h3a.75.75 0 0 1 .75.75ZM10.71 13.5l-.593 1.423-.03.077H2.75a.75.75 0 0 1 0-1.5h7.96ZM10.75 4.5a.75.75 0 0 0 0 1.5h6.5a.75.75 0 0 0 0-1.5h-6.5ZM11.502 16h1.75l-.59 2.36c-.121.482.462.826.826.486l4.872-4.548A.75.75 0 0 0 17.85 13H16.75l.781-2.342a.5.5 0 0 0-.474-.658h-3.473a.5.5 0 0 0-.462.308l-2.083 5a.5.5 0 0 0 .462.692Z"/></svg>