<svg xmlns="http://www.w3.org/2000/svg" width="20" height="20" fill="currentColor"><path d="M2.5 5a.5.5 0 0 0 0 1H8a.5.5 0 0 0 0-1H2.5ZM5.5 8a.5.5 0 0 0 0 1h5a.5.5 0 0 0 0-1h-5ZM4.5 11a.5.5 0 0 0 0 1h6.835l.417-1H4.5ZM17 8.5a.5.5 0 0 1-.5.5H13a.5.5 0 0 1 0-1h3.5a.5.5 0 0 1 .5.5ZM10.502 14l-.385.923-.03.077H2.5a.5.5 0 0 1 0-1h8.002ZM10.5 5a.5.5 0 0 0 0 1h7a.5.5 0 0 0 0-1h-7ZM11.502 16h1.75l-.59 2.36c-.121.482.462.826.826.486l4.872-4.548A.75.75 0 0 0 17.85 13H16.75l.781-2.342a.5.5 0 0 0-.474-.658h-3.473a.5.5 0 0 0-.462.308l-2.083 5a.5.5 0 0 0 .462.692Z"/></svg>