<svg xmlns="http://www.w3.org/2000/svg" width="20" height="20" fill="currentColor"><path fill="url(#icon-9cda0a71475bf079__icon-0634748f0bae33f6__a)" d="M2 4.5A2.5 2.5 0 0 1 4.5 2h11A2.5 2.5 0 0 1 18 4.5v11a2.5 2.5 0 0 1-2.5 2.5h-11A2.5 2.5 0 0 1 2 15.5v-11Z"/><path fill="url(#icon-eb734de325a8e19a__icon-58fa028a0d9ba6f7__b)" fill-opacity=".2" d="M2 4.5A2.5 2.5 0 0 1 4.5 2h11A2.5 2.5 0 0 1 18 4.5v11a2.5 2.5 0 0 1-2.5 2.5h-11A2.5 2.5 0 0 1 2 15.5v-11Z"/><path fill="url(#icon-795469265a373f78__icon-bc9e1e12954d087a__c)" fill-rule="evenodd" d="M15.5 3h-11A1.5 1.5 0 0 0 3 4.5v11A1.5 1.5 0 0 0 4.5 17h11a1.5 1.5 0 0 0 1.5-1.5v-11A1.5 1.5 0 0 0 15.5 3Zm-11-1A2.5 2.5 0 0 0 2 4.5v11A2.5 2.5 0 0 0 4.5 18h11a2.5 2.5 0 0 0 2.5-2.5v-11A2.5 2.5 0 0 0 15.5 2h-11Z" clip-rule="evenodd"/><path fill="url(#icon-d28ebb5542a943c9__icon-0dbbc9b80a21c9ef__d)" d="M11.479 7.105c.397-.005.774-.245.939-.643a1.06 1.06 0 0 0-.548-1.378 1.026 1.026 0 0 0-1.354.558c-.165.397-.072.84.202 1.134l-.317.763-.052-.001a2.03 2.03 0 0 0-1.195.388L8.539 7.3a1.067 1.067 0 0 0-.231-1.128 1.02 1.02 0 0 0-1.46 0 1.066 1.066 0 0 0 0 1.488c.3.305.737.383 1.107.235l.634.646a2.124 2.124 0 0 0-.226 1.68l-.597.236a1.02 1.02 0 0 0-1.106-.24c-.532.21-.796.82-.59 1.36.206.543.804.812 1.336.602.395-.156.642-.532.659-.938l.683-.27a2.047 2.047 0 0 0 1.754.77 2.113 2.113 0 0 1-.372-.856 1.256 1.256 0 0 1-1.02-1.243 1.25 1.25 0 0 1 1.239-1.262c.295 0 .566.105.778.28.262-.154.56-.251.878-.275a2.082 2.082 0 0 0-.788-.652l.261-.628Z"/><path fill="url(#icon-40aae66f2701e9ea__icon-9cdcde524e7211df__e)" d="M10.759 12.5c-.42 0-.759.368-.759.823 0 .734.461 1.375 1.119 1.553l.047.013a3.18 3.18 0 0 0 1.668 0l.047-.013c.658-.178 1.119-.819 1.119-1.553 0-.455-.34-.823-.759-.823h-2.482Z"/><path fill="url(#icon-ab27ced114c5426a__icon-242d8340ed46ff5a__f)" d="M12.018 11.78a1.25 1.25 0 1 0 0-2.5 1.25 1.25 0 0 0 0 2.5Z"/><defs><linearGradient id="icon-9cda0a71475bf079__icon-0634748f0bae33f6__a" x1="6.444" x2="8.468" y1="2" y2="18.192" gradientUnits="userSpaceOnUse"><stop stop-color="#fff"/><stop offset="1" stop-color="#EBEBEB"/></linearGradient><linearGradient id="icon-795469265a373f78__icon-bc9e1e12954d087a__c" x1="7.167" x2="9.321" y1="2" y2="18.157" gradientUnits="userSpaceOnUse"><stop stop-color="#BBB"/><stop offset="1" stop-color="#888"/></linearGradient><linearGradient id="icon-d28ebb5542a943c9__icon-0dbbc9b80a21c9ef__d" x1="6" x2="15.756" y1="5" y2="12.805" gradientUnits="userSpaceOnUse"><stop stop-color="#7751B8"/><stop offset="1" stop-color="#5A409C"/></linearGradient><linearGradient id="icon-40aae66f2701e9ea__icon-9cdcde524e7211df__e" x1="6" x2="15.756" y1="5" y2="12.805" gradientUnits="userSpaceOnUse"><stop stop-color="#7751B8"/><stop offset="1" stop-color="#5A409C"/></linearGradient><linearGradient id="icon-ab27ced114c5426a__icon-242d8340ed46ff5a__f" x1="6" x2="15.756" y1="5" y2="12.805" gradientUnits="userSpaceOnUse"><stop stop-color="#7751B8"/><stop offset="1" stop-color="#5A409C"/></linearGradient><radialGradient id="icon-eb734de325a8e19a__icon-58fa028a0d9ba6f7__b" cx="0" cy="0" r="1" gradientTransform="rotate(56.31 -2.206 9.727) scale(15.2234 13.1741)" gradientUnits="userSpaceOnUse"><stop offset=".177" stop-color="#fff"/><stop offset="1" stop-color="#B8B8B8"/></radialGradient></defs></svg>