<svg xmlns="http://www.w3.org/2000/svg" width="32" height="32" fill="currentColor"><path fill="url(#icon-76a62b54176cb5a5__icon-bf6e2e5e1373f80d__a)" d="M3 6.5A3.5 3.5 0 0 1 6.5 3h19A3.5 3.5 0 0 1 29 6.5v19a3.5 3.5 0 0 1-3.5 3.5h-19A3.5 3.5 0 0 1 3 25.5v-19Z"/><path fill="url(#icon-43d2ec6da84570ef__icon-9b27d3aba86b2315__b)" fill-opacity=".2" d="M3 6.5A3.5 3.5 0 0 1 6.5 3h19A3.5 3.5 0 0 1 29 6.5v19a3.5 3.5 0 0 1-3.5 3.5h-19A3.5 3.5 0 0 1 3 25.5v-19Z"/><path fill="url(#icon-9ca2370a413e7770__icon-bca3986b7227ff48__c)" fill-rule="evenodd" d="M25.5 4h-19A2.5 2.5 0 0 0 4 6.5v19A2.5 2.5 0 0 0 6.5 28h19a2.5 2.5 0 0 0 2.5-2.5v-19A2.5 2.5 0 0 0 25.5 4Zm-19-1A3.5 3.5 0 0 0 3 6.5v19A3.5 3.5 0 0 0 6.5 29h19a3.5 3.5 0 0 0 3.5-3.5v-19A3.5 3.5 0 0 0 25.5 3h-19Z" clip-rule="evenodd"/><path fill="url(#icon-51a35b6c24a3bf03__icon-dff4f38f59bffe44__d)" d="M22 10a2 2 0 0 1-2.474 1.943l-.777 1.875c.385.323.699.727.916 1.187a3.018 3.018 0 0 0-1.068.133 2.5 2.5 0 1 0-1.928 3.856c.12.345.303.661.534.935a3.5 3.5 0 0 1-3.842-1.88l-1.396.578a2 2 0 1 1-.427-.905l1.512-.627a3.491 3.491 0 0 1 1.126-3.212l-1.16-1.16a2 2 0 1 1 .707-.707l1.307 1.307A3.486 3.486 0 0 1 16.5 13c.493 0 .962.102 1.387.286l.754-1.819A2 2 0 1 1 22 10Z"/><path fill="url(#icon-1fbef1a5a28fbe58__icon-ca49844b9a1af408__e)" d="M21.5 18a2 2 0 1 1-4 0 2 2 0 0 1 4 0Z"/><path fill="url(#icon-aafa229a489731cb__icon-12eb5f9ff99af191__f)" d="M23 22.5c0 1.245-1 2.5-3.5 2.5S16 23.75 16 22.5a1.5 1.5 0 0 1 1.5-1.5h4a1.5 1.5 0 0 1 1.5 1.5Z"/><defs><linearGradient id="icon-76a62b54176cb5a5__icon-bf6e2e5e1373f80d__a" x1="10.222" x2="13.511" y1="3" y2="29.311" gradientUnits="userSpaceOnUse"><stop stop-color="#fff"/><stop offset="1" stop-color="#EBEBEB"/></linearGradient><linearGradient id="icon-9ca2370a413e7770__icon-bca3986b7227ff48__c" x1="11.396" x2="14.897" y1="3" y2="29.256" gradientUnits="userSpaceOnUse"><stop stop-color="#BBB"/><stop offset="1" stop-color="#888"/></linearGradient><linearGradient id="icon-51a35b6c24a3bf03__icon-dff4f38f59bffe44__d" x1="8" x2="24.868" y1="8" y2="22.883" gradientUnits="userSpaceOnUse"><stop stop-color="#7751B8"/><stop offset="1" stop-color="#5A409C"/></linearGradient><linearGradient id="icon-1fbef1a5a28fbe58__icon-ca49844b9a1af408__e" x1="8" x2="24.868" y1="8" y2="22.883" gradientUnits="userSpaceOnUse"><stop stop-color="#7751B8"/><stop offset="1" stop-color="#5A409C"/></linearGradient><linearGradient id="icon-aafa229a489731cb__icon-12eb5f9ff99af191__f" x1="8" x2="24.868" y1="8" y2="22.883" gradientUnits="userSpaceOnUse"><stop stop-color="#7751B8"/><stop offset="1" stop-color="#5A409C"/></linearGradient><radialGradient id="icon-43d2ec6da84570ef__icon-9b27d3aba86b2315__b" cx="0" cy="0" r="1" gradientTransform="rotate(56.31 -3.476 15.448) scale(24.7381 21.408)" gradientUnits="userSpaceOnUse"><stop offset=".177" stop-color="#fff"/><stop offset="1" stop-color="#B8B8B8"/></radialGradient></defs></svg>