<svg xmlns="http://www.w3.org/2000/svg" width="40" height="40" fill="currentColor"><path fill="url(#icon-0be395af29f6b5c8__icon-f20ee0d1b6ffaa56__a)" d="M4 8a4 4 0 0 1 4-4h24a4 4 0 0 1 4 4v24a4 4 0 0 1-4 4H8a4 4 0 0 1-4-4V8Z"/><path fill="url(#icon-021f525c7184ce95__icon-b3635e7ad8e6ee19__b)" fill-opacity=".2" d="M4 8a4 4 0 0 1 4-4h24a4 4 0 0 1 4 4v24a4 4 0 0 1-4 4H8a4 4 0 0 1-4-4V8Z"/><path fill="url(#icon-37ce159a99a6ed94__icon-889d25b13b885d81__c)" fill-rule="evenodd" d="M32 5H8a3 3 0 0 0-3 3v24a3 3 0 0 0 3 3h24a3 3 0 0 0 3-3V8a3 3 0 0 0-3-3ZM8 4a4 4 0 0 0-4 4v24a4 4 0 0 0 4 4h24a4 4 0 0 0 4-4V8a4 4 0 0 0-4-4H8Z" clip-rule="evenodd"/><path fill="url(#icon-e76328846027b381__icon-8abf450e2f0cff46__d)" d="M27 12a2 2 0 0 1-1.996 2l-1.113 2.687a4.52 4.52 0 0 1 1.715 1.968 4.004 4.004 0 0 0-1.815-.092 3 3 0 1 0-3.198 4.798c.094.428.257.831.476 1.197a3.117 3.117 0 0 0-.8.271 4.51 4.51 0 0 1-2.582-1.938L15 24.004a2 2 0 1 1-.56-1.392l2.673-1.106a4.514 4.514 0 0 1 .719-3.613l-2.05-2.051a2 2 0 1 1 1.06-1.06l2.05 2.05a4.514 4.514 0 0 1 3.613-.72l1.107-2.672A2 2 0 1 1 27 12Z"/><path fill="url(#icon-33ed0d7d5179db97__icon-c48613471a1c64ae__e)" d="M24.5 25a2.5 2.5 0 1 0 0-5 2.5 2.5 0 0 0 0 5Z"/><path fill="url(#icon-379575dd65b129d1__icon-70e974df0276110f__f)" d="M29 27.875C29 29.431 27.714 31 24.5 31S20 29.437 20 27.875v-.171c0-.941.75-1.704 1.674-1.704h5.652c.925 0 1.674.763 1.674 1.704v.171Z"/><defs><linearGradient id="icon-0be395af29f6b5c8__icon-f20ee0d1b6ffaa56__a" x1="12.889" x2="16.937" y1="4" y2="36.383" gradientUnits="userSpaceOnUse"><stop stop-color="#fff"/><stop offset="1" stop-color="#EBEBEB"/></linearGradient><linearGradient id="icon-37ce159a99a6ed94__icon-889d25b13b885d81__c" x1="14.333" x2="18.642" y1="4" y2="36.314" gradientUnits="userSpaceOnUse"><stop stop-color="#BBB"/><stop offset="1" stop-color="#888"/></linearGradient><linearGradient id="icon-e76328846027b381__icon-8abf450e2f0cff46__d" x1="11" x2="31.753" y1="10" y2="27.788" gradientUnits="userSpaceOnUse"><stop stop-color="#7751B8"/><stop offset="1" stop-color="#5A409C"/></linearGradient><linearGradient id="icon-33ed0d7d5179db97__icon-c48613471a1c64ae__e" x1="11" x2="31.753" y1="10" y2="27.788" gradientUnits="userSpaceOnUse"><stop stop-color="#7751B8"/><stop offset="1" stop-color="#5A409C"/></linearGradient><linearGradient id="icon-379575dd65b129d1__icon-70e974df0276110f__f" x1="11" x2="31.753" y1="10" y2="27.788" gradientUnits="userSpaceOnUse"><stop stop-color="#7751B8"/><stop offset="1" stop-color="#5A409C"/></linearGradient><radialGradient id="icon-021f525c7184ce95__icon-b3635e7ad8e6ee19__b" cx="0" cy="0" r="1" gradientTransform="rotate(56.31 -4.411 19.454) scale(30.4469 26.3483)" gradientUnits="userSpaceOnUse"><stop offset=".177" stop-color="#fff"/><stop offset="1" stop-color="#B8B8B8"/></radialGradient></defs></svg>