<svg xmlns="http://www.w3.org/2000/svg" width="48" height="48" fill="currentColor"><path fill="url(#icon-f926b728307669bf__icon-63813dc3e3ff3dd7__a)" d="M5 10a5 5 0 0 1 5-5h28a5 5 0 0 1 5 5v28a5 5 0 0 1-5 5H10a5 5 0 0 1-5-5V10Z"/><path fill="url(#icon-189f07d6a7117794__icon-3dca14963c89de4a__b)" fill-opacity=".2" d="M5 10a5 5 0 0 1 5-5h28a5 5 0 0 1 5 5v28a5 5 0 0 1-5 5H10a5 5 0 0 1-5-5V10Z"/><path fill="url(#icon-86971801c1aa14a4__icon-1f3dee6f08d011e0__c)" fill-rule="evenodd" d="M38 6H10a4 4 0 0 0-4 4v28a4 4 0 0 0 4 4h28a4 4 0 0 0 4-4V10a4 4 0 0 0-4-4ZM10 5a5 5 0 0 0-5 5v28a5 5 0 0 0 5 5h28a5 5 0 0 0 5-5V10a5 5 0 0 0-5-5H10Z" clip-rule="evenodd"/><path fill="url(#icon-dbfe9f83db17aa44__icon-81a43c5dd3f38139__d)" d="M29.562 18a2.5 2.5 0 1 0-1.443-.416l-.884 2.57a5.01 5.01 0 0 0-4.2.82l-2.318-2.318a2.5 2.5 0 1 0-1.06 1.06l2.317 2.319a5.01 5.01 0 0 0-.83 4.165l-2.49 1.03A2.499 2.499 0 0 0 14 28.5a2.5 2.5 0 0 0 4.99.215l2.73-1.13a4.997 4.997 0 0 0 4.504 2.41 3.53 3.53 0 0 1 1.634-.492 4.017 4.017 0 0 1-.897-1.137A3.504 3.504 0 0 1 22.5 25a3.5 3.5 0 0 1 6.288-2.116 3.98 3.98 0 0 1 1.545-.38 5.026 5.026 0 0 0-1.714-1.764l.943-2.74Z"/><path fill="url(#icon-d1e4529118ba7b3b__icon-05d79abf900f88e1__e)" d="M33 26.5a2.5 2.5 0 1 1-5 0 2.5 2.5 0 0 1 5 0Z"/><path fill="url(#icon-4f72a3e3d75dff46__icon-e7bc00b31b1c09c7__f)" d="M35 32.875C35 34.431 33.714 36 30.5 36S26 34.437 26 32.875c0-1.027.999-1.875 2-1.875h5c1.001 0 2 .848 2 1.875Z"/><defs><linearGradient id="icon-f926b728307669bf__icon-63813dc3e3ff3dd7__a" x1="15.556" x2="20.362" y1="5" y2="43.455" gradientUnits="userSpaceOnUse"><stop stop-color="#fff"/><stop offset="1" stop-color="#EBEBEB"/></linearGradient><linearGradient id="icon-86971801c1aa14a4__icon-1f3dee6f08d011e0__c" x1="17.271" x2="22.387" y1="5" y2="43.373" gradientUnits="userSpaceOnUse"><stop stop-color="#BBB"/><stop offset="1" stop-color="#888"/></linearGradient><linearGradient id="icon-dbfe9f83db17aa44__icon-81a43c5dd3f38139__d" x1="14" x2="36.905" y1="13" y2="33.913" gradientUnits="userSpaceOnUse"><stop stop-color="#7751B8"/><stop offset="1" stop-color="#5A409C"/></linearGradient><linearGradient id="icon-d1e4529118ba7b3b__icon-05d79abf900f88e1__e" x1="14" x2="36.905" y1="13" y2="33.913" gradientUnits="userSpaceOnUse"><stop stop-color="#7751B8"/><stop offset="1" stop-color="#5A409C"/></linearGradient><linearGradient id="icon-4f72a3e3d75dff46__icon-e7bc00b31b1c09c7__f" x1="14" x2="36.905" y1="13" y2="33.913" gradientUnits="userSpaceOnUse"><stop stop-color="#7751B8"/><stop offset="1" stop-color="#5A409C"/></linearGradient><radialGradient id="icon-189f07d6a7117794__icon-3dca14963c89de4a__b" cx="0" cy="0" r="1" gradientTransform="rotate(56.31 -5.347 23.46) scale(36.1557 31.2886)" gradientUnits="userSpaceOnUse"><stop offset=".177" stop-color="#fff"/><stop offset="1" stop-color="#B8B8B8"/></radialGradient></defs></svg>