<svg xmlns="http://www.w3.org/2000/svg" width="24" height="24" fill="currentColor"><path fill="url(#icon-73edffa821e30463__icon-82fd6758c3639969__a)" d="M2 5a3 3 0 0 1 3-3h14a3 3 0 0 1 3 3v14a3 3 0 0 1-3 3H5a3 3 0 0 1-3-3V5Z"/><path fill="url(#icon-2b5d38a400af0b8b__icon-e1acf026c16da089__b)" fill-opacity=".2" d="M2 5a3 3 0 0 1 3-3h14a3 3 0 0 1 3 3v14a3 3 0 0 1-3 3H5a3 3 0 0 1-3-3V5Z"/><path fill="url(#icon-9c4e009d2fd7b8d6__icon-801d78f94512e80c__c)" fill-rule="evenodd" d="M19 3H5a2 2 0 0 0-2 2v14a2 2 0 0 0 2 2h14a2 2 0 0 0 2-2V5a2 2 0 0 0-2-2ZM5 2a3 3 0 0 0-3 3v14a3 3 0 0 0 3 3h14a3 3 0 0 0 3-3V5a3 3 0 0 0-3-3H5Z" clip-rule="evenodd"/><path fill="url(#icon-cad1b46befd4ef32__icon-74e5422faa402805__d)" d="M13.75 8.497c.49-.005.954-.29 1.157-.762a1.24 1.24 0 0 0-.675-1.636 1.281 1.281 0 0 0-1.668.663c-.203.471-.089.997.248 1.346l-.39.905-.064-.001c-.549 0-1.057.17-1.473.46l-.756-.743a1.232 1.232 0 0 0-.285-1.338 1.29 1.29 0 0 0-1.8 0 1.232 1.232 0 0 0 0 1.765 1.29 1.29 0 0 0 1.365.28l.78.766a2.45 2.45 0 0 0-.278 1.994l-.735.28a1.29 1.29 0 0 0-1.363-.286c-.655.25-.98.973-.727 1.616.254.643.991.962 1.646.713a1.25 1.25 0 0 0 .812-1.113l.842-.32a2.558 2.558 0 0 0 2.16.912 2.463 2.463 0 0 1-.457-1.015 1.507 1.507 0 0 1-1.258-1.475c0-.827.684-1.498 1.527-1.498.363 0 .697.125.959.333.322-.183.69-.298 1.082-.326a2.546 2.546 0 0 0-.971-.774l.321-.746Z"/><path fill="url(#icon-14134cb436f9bb53__icon-482a6ac84fea8e2a__e)" d="M14.5 14a1.5 1.5 0 1 0 0-3 1.5 1.5 0 0 0 0 3Z"/><path fill="url(#icon-ddce27ab83feb43c__icon-113c88db73508426__f)" d="M12.949 15c-.524 0-.949.442-.949.987 0 .882.577 1.65 1.399 1.864l.059.015c.684.178 1.4.178 2.084 0l.06-.015c.821-.214 1.398-.982 1.398-1.864 0-.545-.425-.987-.949-.987H12.95Z"/><defs><linearGradient id="icon-73edffa821e30463__icon-82fd6758c3639969__a" x1="7.556" x2="10.085" y1="2" y2="22.239" gradientUnits="userSpaceOnUse"><stop stop-color="#fff"/><stop offset="1" stop-color="#EBEBEB"/></linearGradient><linearGradient id="icon-9c4e009d2fd7b8d6__icon-801d78f94512e80c__c" x1="8.458" x2="11.151" y1="2" y2="22.197" gradientUnits="userSpaceOnUse"><stop stop-color="#BBB"/><stop offset="1" stop-color="#888"/></linearGradient><linearGradient id="icon-cad1b46befd4ef32__icon-74e5422faa402805__d" x1="7" x2="18.803" y1="6" y2="15.836" gradientUnits="userSpaceOnUse"><stop stop-color="#7751B8"/><stop offset="1" stop-color="#5A409C"/></linearGradient><linearGradient id="icon-14134cb436f9bb53__icon-482a6ac84fea8e2a__e" x1="7" x2="18.803" y1="6" y2="15.836" gradientUnits="userSpaceOnUse"><stop stop-color="#7751B8"/><stop offset="1" stop-color="#5A409C"/></linearGradient><linearGradient id="icon-ddce27ab83feb43c__icon-113c88db73508426__f" x1="7" x2="18.803" y1="6" y2="15.836" gradientUnits="userSpaceOnUse"><stop stop-color="#7751B8"/><stop offset="1" stop-color="#5A409C"/></linearGradient><radialGradient id="icon-2b5d38a400af0b8b__icon-e1acf026c16da089__b" cx="0" cy="0" r="1" gradientTransform="rotate(56.31 -2.54 11.442) scale(19.0293 16.4677)" gradientUnits="userSpaceOnUse"><stop offset=".177" stop-color="#fff"/><stop offset="1" stop-color="#B8B8B8"/></radialGradient></defs></svg>