<svg xmlns="http://www.w3.org/2000/svg" width="20" height="20" fill="currentColor"><path d="M11.5 4a.5.5 0 0 1 0 1h-5a.5.5 0 0 1 0-1h5ZM16.5 4a.5.5 0 0 1 0 1h-3a.5.5 0 0 1 0-1h3ZM4.5 4a.5.5 0 0 1 0 1h-2a.5.5 0 0 1 0-1h2ZM11.5 7a.5.5 0 0 1 0 1h-5a.5.5 0 0 1 0-1h5ZM16.5 7a.5.5 0 0 1 0 1h-3a.5.5 0 0 1 0-1h3ZM4.5 7a.5.5 0 0 1 0 1h-2a.5.5 0 0 1 0-1h2ZM11.5 10a.5.5 0 0 1 0 1h-5a.5.5 0 0 1 0-1h5ZM16.5 10a.5.5 0 0 1 0 1h-3a.5.5 0 0 1 0-1h3ZM4.5 10a.5.5 0 0 1 0 1h-2a.5.5 0 0 1 0-1h2ZM11.5 13a.5.5 0 0 1 0 1h-5a.5.5 0 0 1 0-1h5ZM16.5 13a.5.5 0 0 1 0 1h-3a.5.5 0 0 1 0-1h3ZM4.5 13a.5.5 0 0 1 0 1h-2a.5.5 0 0 1 0-1h2ZM5 16.5a.5.5 0 0 0-.5-.5h-2a.5.5 0 0 0 0 1h2a.5.5 0 0 0 .5-.5ZM11.5 16a.5.5 0 0 1 0 1h-5a.5.5 0 0 1 0-1h5ZM16.5 16a.5.5 0 0 1 0 1h-3a.5.5 0 0 1 0-1h3Z"/></svg>