<svg xmlns="http://www.w3.org/2000/svg" width="20" height="20" fill="currentColor"><path d="M11.25 4a.75.75 0 0 1 0 1.5h-4.5a.75.75 0 0 1 0-1.5h4.5ZM16.25 4a.75.75 0 0 1 0 1.5h-2.5a.75.75 0 0 1 0-1.5h2.5ZM4.25 4a.75.75 0 0 1 0 1.5h-1.5a.75.75 0 0 1 0-1.5h1.5ZM11.25 7a.75.75 0 0 1 0 1.5h-4.5a.75.75 0 0 1 0-1.5h4.5ZM16.25 7a.75.75 0 0 1 0 1.5h-2.5a.75.75 0 0 1 0-1.5h2.5ZM4.25 7a.75.75 0 0 1 0 1.5h-1.5a.75.75 0 0 1 0-1.5h1.5ZM11.25 10a.75.75 0 0 1 0 1.5h-4.5a.75.75 0 0 1 0-1.5h4.5ZM16.25 10a.75.75 0 0 1 0 1.5h-2.5a.75.75 0 0 1 0-1.5h2.5ZM4.25 10a.75.75 0 0 1 0 1.5h-1.5a.75.75 0 0 1 0-1.5h1.5ZM11.25 13a.75.75 0 0 1 0 1.5h-4.5a.75.75 0 0 1 0-1.5h4.5ZM16.25 13a.75.75 0 0 1 0 1.5h-2.5a.75.75 0 0 1 0-1.5h2.5ZM4.25 13a.75.75 0 0 1 0 1.5h-1.5a.75.75 0 0 1 0-1.5h1.5ZM5 16.75a.75.75 0 0 0-.75-.75h-1.5a.75.75 0 0 0 0 1.5h1.5a.75.75 0 0 0 .75-.75ZM11.25 16a.75.75 0 0 1 0 1.5h-4.5a.75.75 0 0 1 0-1.5h4.5ZM16.25 16a.75.75 0 0 1 0 1.5h-2.5a.75.75 0 0 1 0-1.5h2.5Z"/></svg>