<svg xmlns="http://www.w3.org/2000/svg" width="40" height="40" fill="currentColor"><path fill="url(#icon-92a6d94a81deb72b__icon-034276e74d7942aa__a)" d="M4 8a4 4 0 0 1 4-4h24a4 4 0 0 1 4 4v24a4 4 0 0 1-4 4H8a4 4 0 0 1-4-4V8Z"/><path fill="url(#icon-7f71f3bbcef62917__icon-20bd89958d3c371b__b)" fill-opacity=".2" d="M4 8a4 4 0 0 1 4-4h24a4 4 0 0 1 4 4v24a4 4 0 0 1-4 4H8a4 4 0 0 1-4-4V8Z"/><path fill="url(#icon-9e5cecf887cb73b0__icon-59232cad9dcd9dc5__c)" fill-rule="evenodd" d="M32 5H8a3 3 0 0 0-3 3v24a3 3 0 0 0 3 3h24a3 3 0 0 0 3-3V8a3 3 0 0 0-3-3ZM8 4a4 4 0 0 0-4 4v24a4 4 0 0 0 4 4h24a4 4 0 0 0 4-4V8a4 4 0 0 0-4-4H8Z" clip-rule="evenodd"/><path fill="url(#icon-0984908c29e8d6c0__icon-d2d9778cf031c663__d)" fill-rule="evenodd" d="M24 10c-1.573 0-3.022.289-4.096.777C18.875 11.245 18 11.993 18 13c0 .025 0 .05.002.074H18v3.971c.343.032.677.08 1 .142v-2.489c.271.202.58.378.904.525C20.978 15.71 22.427 16 24 16s3.022-.289 4.096-.777c.324-.147.633-.323.904-.525V24c0 .374-.356.875-1.318 1.313-.916.416-2.218.687-3.682.687-.714 0-1.39-.064-2-.179v-3.33a4.86 4.86 0 0 1-1.017.671c-1.071.536-2.48.838-3.983.838-1.502 0-2.912-.302-3.983-.838a4.86 4.86 0 0 1-1.017-.67V27.5c0 1.38 2.239 2.5 5 2.5s5-1.12 5-2.5v-.663A12.05 12.05 0 0 0 24 27c1.573 0 3.022-.289 4.096-.777C29.125 25.755 30 25.007 30 24V13.074h-.002C30 13.049 30 13.024 30 13c0-1.007-.875-1.755-1.904-2.223C27.022 10.289 25.573 10 24 10Zm-5 3c0-.374.356-.875 1.318-1.313C21.234 11.271 22.536 11 24 11s2.766.27 3.682.687c.962.438 1.318.94 1.318 1.313 0 .374-.356.875-1.318 1.313-.916.416-2.218.687-3.682.687s-2.766-.27-3.682-.687C19.356 13.875 19 13.373 19 13Z" clip-rule="evenodd"/><path fill="url(#icon-e4dcfd0b8cdf2ce1__icon-c613eda5b032b9c2__e)" d="M12 20.5c0 1.38 2.239 2.5 5 2.5s5-1.12 5-2.5c0-.171-.034-.338-.1-.5-.327-.806-1.43-1.47-2.9-1.792a8.922 8.922 0 0 0-1-.158 9.912 9.912 0 0 0-1-.05c-2.419 0-4.437.859-4.9 2-.066.162-.1.329-.1.5Z"/><path fill="url(#icon-a4d7a53ced20af14__icon-d9d737ddcf06bd21__f)" d="M13.146 12.146a.5.5 0 0 1 .708 0l2 2a.5.5 0 0 1 0 .708l-2 2a.5.5 0 0 1-.708-.708L14.293 15H13a2 2 0 0 0-2 2v1.5a.5.5 0 0 1-1 0V17a3 3 0 0 1 3-3h1.293l-1.147-1.146a.5.5 0 0 1 0-.708Z"/><defs><linearGradient id="icon-92a6d94a81deb72b__icon-034276e74d7942aa__a" x1="12.889" x2="16.937" y1="4" y2="36.383" gradientUnits="userSpaceOnUse"><stop stop-color="#fff"/><stop offset="1" stop-color="#EBEBEB"/></linearGradient><linearGradient id="icon-9e5cecf887cb73b0__icon-59232cad9dcd9dc5__c" x1="14.333" x2="18.642" y1="4" y2="36.314" gradientUnits="userSpaceOnUse"><stop stop-color="#BBB"/><stop offset="1" stop-color="#888"/></linearGradient><linearGradient id="icon-0984908c29e8d6c0__icon-d2d9778cf031c663__d" x1="10" x2="30" y1="10" y2="30" gradientUnits="userSpaceOnUse"><stop stop-color="#4BA446"/><stop offset="1" stop-color="#3F7D35"/></linearGradient><linearGradient id="icon-e4dcfd0b8cdf2ce1__icon-c613eda5b032b9c2__e" x1="10" x2="30" y1="10" y2="30" gradientUnits="userSpaceOnUse"><stop stop-color="#4BA446"/><stop offset="1" stop-color="#3F7D35"/></linearGradient><linearGradient id="icon-a4d7a53ced20af14__icon-d9d737ddcf06bd21__f" x1="10" x2="30" y1="10" y2="30" gradientUnits="userSpaceOnUse"><stop stop-color="#4BA446"/><stop offset="1" stop-color="#3F7D35"/></linearGradient><radialGradient id="icon-7f71f3bbcef62917__icon-20bd89958d3c371b__b" cx="0" cy="0" r="1" gradientTransform="rotate(56.31 -4.411 19.454) scale(30.4469 26.3483)" gradientUnits="userSpaceOnUse"><stop offset=".177" stop-color="#fff"/><stop offset="1" stop-color="#B8B8B8"/></radialGradient></defs></svg>