<svg xmlns="http://www.w3.org/2000/svg" width="48" height="48" fill="currentColor"><path fill="url(#icon-4f0b6f91ff26bd9a__icon-47045dec3f854be5__a)" d="M5 10a5 5 0 0 1 5-5h28a5 5 0 0 1 5 5v28a5 5 0 0 1-5 5H10a5 5 0 0 1-5-5V10Z"/><path fill="url(#icon-bf31991f95af24da__icon-3477422f509402be__b)" fill-opacity=".2" d="M5 10a5 5 0 0 1 5-5h28a5 5 0 0 1 5 5v28a5 5 0 0 1-5 5H10a5 5 0 0 1-5-5V10Z"/><path fill="url(#icon-17e1e9da38265ff5__icon-47c7319ff64b7e28__c)" fill-rule="evenodd" d="M38 6H10a4 4 0 0 0-4 4v28a4 4 0 0 0 4 4h28a4 4 0 0 0 4-4V10a4 4 0 0 0-4-4ZM10 5a5 5 0 0 0-5 5v28a5 5 0 0 0 5 5h28a5 5 0 0 0 5-5V10a5 5 0 0 0-5-5H10Z" clip-rule="evenodd"/><path fill="url(#icon-7b4c30e7657a7eb3__icon-539e30beed470f0c__d)" fill-rule="evenodd" d="M21 15.25c0-.658.303-1.229.737-1.685.43-.452 1.017-.825 1.685-1.122 1.338-.594 3.134-.943 5.078-.943 1.944 0 3.74.349 5.078.943.668.297 1.255.67 1.685 1.122.378.397.657.882.722 1.435H36V29.775c0 .658-.303 1.229-.737 1.685-.43.452-1.017.825-1.685 1.122-1.338.594-3.134.943-5.078.943-.873 0-1.715-.07-2.5-.202V34c0 1.657-2.687 3-6 3-3.314 0-6-1.343-6-3v-6.22c.346.272.72.5 1.086.683C16.421 29.13 18.162 29.5 20 29.5c1.839 0 3.578-.37 4.913-1.037A6.33 6.33 0 0 0 26 27.779v4.02a13.55 13.55 0 0 0 2.5.226c1.784 0 3.363-.323 4.468-.814.554-.246.955-.52 1.208-.785.25-.262.324-.48.324-.651V17.56c-.282.184-.592.35-.922.497-1.338.594-3.134.943-5.078.943-1.944 0-3.74-.349-5.078-.943a6.529 6.529 0 0 1-.922-.497v3.178a12.51 12.51 0 0 0-1.5-.201V15.25Zm1.5 0c0-.17.075-.389.324-.65.253-.266.654-.54 1.208-.786C25.137 13.323 26.716 13 28.5 13c1.784 0 3.363.323 4.468.814.554.246.955.52 1.208.785.247.26.323.477.324.647v.008c-.001.17-.077.387-.324.647-.253.265-.654.539-1.208.785-1.105.491-2.684.814-4.468.814-1.784 0-3.363-.323-4.468-.814-.554-.246-.955-.52-1.208-.785-.25-.262-.324-.48-.324-.651Z" clip-rule="evenodd"/><path fill="url(#icon-d49a72ca582edcb4__icon-663c736c0a93b4f5__e)" d="M20 28c-3.314 0-6-1.343-6-3s2.686-3 6-3c.34 0 .675.014 1 .041.526.045 1.03.123 1.5.231C24.565 22.746 26 23.79 26 25c0 1.657-2.687 3-6 3Z"/><path fill="url(#icon-d917279af8494a1c__icon-76db5563baa4cdad__f)" d="M15.22 14.47a.75.75 0 0 1 1.06 0l2.5 2.5a.75.75 0 0 1 0 1.06l-2.5 2.5a.75.75 0 1 1-1.06-1.06l1.22-1.22h-.69a2.25 2.25 0 0 0-2.25 2.25v1.75a.75.75 0 0 1-1.5 0V20.5a3.75 3.75 0 0 1 3.75-3.75h.69l-1.22-1.22a.75.75 0 0 1 0-1.06Z"/><defs><linearGradient id="icon-4f0b6f91ff26bd9a__icon-47045dec3f854be5__a" x1="15.556" x2="20.362" y1="5" y2="43.455" gradientUnits="userSpaceOnUse"><stop stop-color="#fff"/><stop offset="1" stop-color="#EBEBEB"/></linearGradient><linearGradient id="icon-17e1e9da38265ff5__icon-47c7319ff64b7e28__c" x1="17.271" x2="22.387" y1="5" y2="43.373" gradientUnits="userSpaceOnUse"><stop stop-color="#BBB"/><stop offset="1" stop-color="#888"/></linearGradient><linearGradient id="icon-7b4c30e7657a7eb3__icon-539e30beed470f0c__d" x1="12" x2="37.453" y1="11.5" y2="35.456" gradientUnits="userSpaceOnUse"><stop stop-color="#4BA446"/><stop offset="1" stop-color="#3F7D35"/></linearGradient><linearGradient id="icon-d49a72ca582edcb4__icon-663c736c0a93b4f5__e" x1="12" x2="37.453" y1="11.5" y2="35.456" gradientUnits="userSpaceOnUse"><stop stop-color="#4BA446"/><stop offset="1" stop-color="#3F7D35"/></linearGradient><linearGradient id="icon-d917279af8494a1c__icon-76db5563baa4cdad__f" x1="12" x2="37.453" y1="11.5" y2="35.456" gradientUnits="userSpaceOnUse"><stop stop-color="#4BA446"/><stop offset="1" stop-color="#3F7D35"/></linearGradient><radialGradient id="icon-bf31991f95af24da__icon-3477422f509402be__b" cx="0" cy="0" r="1" gradientTransform="rotate(56.31 -5.347 23.46) scale(36.1557 31.2886)" gradientUnits="userSpaceOnUse"><stop offset=".177" stop-color="#fff"/><stop offset="1" stop-color="#B8B8B8"/></radialGradient></defs></svg>