<svg xmlns="http://www.w3.org/2000/svg" width="32" height="32" fill="currentColor"><path fill="url(#icon-a75006ac46b06693__icon-a2ae4648b7f2b1fa__a)" d="M3 6.5A3.5 3.5 0 0 1 6.5 3h19A3.5 3.5 0 0 1 29 6.5v19a3.5 3.5 0 0 1-3.5 3.5h-19A3.5 3.5 0 0 1 3 25.5v-19Z"/><path fill="url(#icon-f43ac8252621a2fd__icon-ef8b6da8dc883292__b)" fill-opacity=".2" d="M3 6.5A3.5 3.5 0 0 1 6.5 3h19A3.5 3.5 0 0 1 29 6.5v19a3.5 3.5 0 0 1-3.5 3.5h-19A3.5 3.5 0 0 1 3 25.5v-19Z"/><path fill="url(#icon-3bb56a690c944371__icon-2ddc53544d1f993a__c)" fill-rule="evenodd" d="M25.5 4h-19A2.5 2.5 0 0 0 4 6.5v19A2.5 2.5 0 0 0 6.5 28h19a2.5 2.5 0 0 0 2.5-2.5v-19A2.5 2.5 0 0 0 25.5 4Zm-19-1A3.5 3.5 0 0 0 3 6.5v19A3.5 3.5 0 0 0 6.5 29h19a3.5 3.5 0 0 0 3.5-3.5v-19A3.5 3.5 0 0 0 25.5 3h-19Z" clip-rule="evenodd"/><path fill="url(#icon-bda424986a5a1751__icon-74870a9f03c06a92__d)" fill-rule="evenodd" d="M10 22.25v-3.752c.221.162.455.293.675.396.839.39 1.927.606 3.075.606 1.148 0 2.236-.215 3.075-.606.22-.103.454-.234.675-.396v2.313c.52.12 1.114.189 1.75.189 1.117 0 2.104-.214 2.792-.538.728-.343.958-.717.958-.962v-7.431a4.116 4.116 0 0 1-.532.298c-.85.4-1.988.633-3.218.633s-2.369-.234-3.218-.633a4.116 4.116 0 0 1-.532-.299v2.108a8.145 8.145 0 0 0-1-.145V10.46c.023-.839.735-1.45 1.532-1.826.85-.4 1.988-.633 3.218-.633s2.369.234 3.218.633c.797.376 1.51.987 1.532 1.826V19.5c0 .86-.722 1.485-1.532 1.867-.85.4-1.988.633-3.218.633a9.03 9.03 0 0 1-1.75-.166v.416c0 .966-1.68 1.75-3.75 1.75-2.07 0-3.75-.784-3.75-1.75Zm5.5-11.75c0-.245.23-.62.958-.962C17.147 9.214 18.133 9 19.25 9c1.117 0 2.104.214 2.792.538.728.343.958.717.958.962s-.23.62-.958.962c-.689.324-1.675.538-2.792.538-1.117 0-2.104-.214-2.792-.538-.728-.343-.958-.717-.958-.962Z" clip-rule="evenodd"/><path fill="url(#icon-3518a2f59a8276e4__icon-6e972183f3801f1b__e)" d="M10.038 16.5c.244-.795 1.633-1.418 3.362-1.492a8.085 8.085 0 0 1 1.1.027c.354.034.69.09 1 .167 1.04.256 1.789.734 1.962 1.298a.847.847 0 0 1 .038.25c0 .966-1.679 1.75-3.75 1.75-2.071 0-3.75-.784-3.75-1.75 0-.085.013-.168.038-.25Z"/><path fill="url(#icon-a448f0ce18e7763e__icon-50aaa9192606f41f__f)" d="M10.396 9.396a.5.5 0 0 1 .708 0l1.75 1.75a.497.497 0 0 1-.007.714l-1.743 1.743a.5.5 0 0 1-.708-.707l.897-.896H11a2 2 0 0 0-2 2v1.5a.5.5 0 0 1-1 0V14a3 3 0 0 1 3-3h.293l-.897-.896a.5.5 0 0 1 0-.708Z"/><defs><linearGradient id="icon-a75006ac46b06693__icon-a2ae4648b7f2b1fa__a" x1="10.222" x2="13.511" y1="3" y2="29.311" gradientUnits="userSpaceOnUse"><stop stop-color="#fff"/><stop offset="1" stop-color="#EBEBEB"/></linearGradient><linearGradient id="icon-3bb56a690c944371__icon-2ddc53544d1f993a__c" x1="11.396" x2="14.897" y1="3" y2="29.256" gradientUnits="userSpaceOnUse"><stop stop-color="#BBB"/><stop offset="1" stop-color="#888"/></linearGradient><linearGradient id="icon-bda424986a5a1751__icon-74870a9f03c06a92__d" x1="8" x2="24" y1="8" y2="24" gradientUnits="userSpaceOnUse"><stop stop-color="#4BA446"/><stop offset="1" stop-color="#3F7D35"/></linearGradient><linearGradient id="icon-3518a2f59a8276e4__icon-6e972183f3801f1b__e" x1="8" x2="24" y1="8" y2="24" gradientUnits="userSpaceOnUse"><stop stop-color="#4BA446"/><stop offset="1" stop-color="#3F7D35"/></linearGradient><linearGradient id="icon-a448f0ce18e7763e__icon-50aaa9192606f41f__f" x1="8" x2="24" y1="8" y2="24" gradientUnits="userSpaceOnUse"><stop stop-color="#4BA446"/><stop offset="1" stop-color="#3F7D35"/></linearGradient><radialGradient id="icon-f43ac8252621a2fd__icon-ef8b6da8dc883292__b" cx="0" cy="0" r="1" gradientTransform="rotate(56.31 -3.476 15.448) scale(24.7381 21.408)" gradientUnits="userSpaceOnUse"><stop offset=".177" stop-color="#fff"/><stop offset="1" stop-color="#B8B8B8"/></radialGradient></defs></svg>