<svg xmlns="http://www.w3.org/2000/svg" width="20" height="20" fill="currentColor"><path d="M6.97 1.97a.75.75 0 0 1 1.06 0l2 2a.75.75 0 0 1 0 1.06l-2 2a.75.75 0 0 1-1.06-1.06l.72-.72H6.5c-.69 0-1.25.56-1.25 1.25a.75.75 0 0 1-1.5 0A2.75 2.75 0 0 1 6.5 3.75h1.19l-.72-.72a.75.75 0 0 1 0-1.06Z"/><path d="M10.051 9.489c.201.079.378.199.523.347l2.981-6.033a.447.447 0 0 1 .187-.2.521.521 0 0 1 .25-.063H14l.008-.003a.52.52 0 0 1 .25.063.447.447 0 0 1 .187.2l3.305 6.69c.073.152.133.309.18.47.047.162.07.33.07.5 0 .292-.081.58-.235.828a2.773 2.773 0 0 1-.585.68c-.237.201-.5.37-.782.5a7.34 7.34 0 0 1-.8.32 5.25 5.25 0 0 1-1.524.227l-.039-.003a.393.393 0 0 0-.078 0l-.039.003a5.25 5.25 0 0 1-1.524-.227 7.349 7.349 0 0 1-.8-.32 3.43 3.43 0 0 1-.594-.351v1.997a1.5 1.5 0 0 1-.949 1.395l-3.5 1.384a1.5 1.5 0 0 1-1.102 0l-3.5-1.384A1.5 1.5 0 0 1 1 15.114v-4.23a1.5 1.5 0 0 1 .949-1.395l3.5-1.384a1.5 1.5 0 0 1 1.102 0l3.5 1.384Zm-6.365 1.547a.5.5 0 1 0-.372.928l2.186.874V15a.5.5 0 0 0 1 0v-2.162l2.186-.874a.5.5 0 1 0-.372-.928L6 11.96l-2.314-.925Z"/></svg>