<svg xmlns="http://www.w3.org/2000/svg" width="20" height="20" fill="currentColor"><path d="m13.283 4.715-.018.01-.01.005c-.26.145-.47.367-.6.636L9.355 12.05l-.005.008c-.097.201-.177.41-.24.624v.002c-.072.252-.11.513-.109.775-.003.475.125.942.372 1.348l.001.004c.113.184.242.359.384.521L7.17 16.624a1.526 1.526 0 0 1-1.344 0l-3-1.5a1.4 1.4 0 0 1-.6-.555A1.566 1.566 0 0 1 2 13.78v-3.765c0-.278.075-.551.22-.789a1.4 1.4 0 0 1 .609-.555l3-1.5c.056-.027.114-.051.172-.072L6 7a4 4 0 0 1 7.283-2.285ZM6.5 10.835l-1.773-.88A.505.505 0 0 0 4 10.4c.004.089.03.176.073.254a.453.453 0 0 0 .2.188L6 11.71v2.19a.5.5 0 1 0 1 0v-2.19l1.73-.867a.446.446 0 0 0 .2-.188A.515.515 0 0 0 9 10.4a.505.505 0 0 0-.727-.448l-1.773.883Z"/><path d="M17.75 12.492c.073.15.133.307.18.469.047.162.07.33.07.5 0 .292-.081.579-.235.828a2.773 2.773 0 0 1-.585.68c-.237.2-.5.37-.782.5-.26.122-.527.229-.8.32a5.243 5.243 0 0 1-1.524.227l-.039-.003-.039-.002c-.013 0-.026 0-.039.002l-.039.003c-.516 0-1.03-.077-1.524-.227a7.32 7.32 0 0 1-.8-.32 3.43 3.43 0 0 1-.782-.5 2.771 2.771 0 0 1-.585-.68A1.57 1.57 0 0 1 10 13.46c0-.17.023-.338.07-.5.047-.162.107-.318.18-.47l3.305-6.687a.446.446 0 0 1 .187-.2.52.52 0 0 1 .25-.063H14l.008-.003c.087 0 .173.021.25.063a.447.447 0 0 1 .187.2l3.305 6.69Z"/></svg>