<svg xmlns="http://www.w3.org/2000/svg" width="20" height="20" fill="currentColor"><g clip-path="url(#icon-510b604f70364572__icon-3118f938369fa3b2__a)"><path d="M7.863 2.146a.5.5 0 1 0-.707.708L8.294 3.99H6.5a2.5 2.5 0 0 0-2.5 2.5.5.5 0 0 0 1 0 1.5 1.5 0 0 1 1.5-1.5h1.794L7.156 6.128a.5.5 0 1 0 .707.708l1.991-1.991a.5.5 0 0 0 0-.708l-1.99-1.99ZM6 12.686l-1.727-.867a.453.453 0 0 1-.2-.188.585.585 0 0 1-.073-.255.505.505 0 0 1 .727-.446l1.773.881 1.773-.883a.507.507 0 0 1 .58.096.505.505 0 0 1 .077.609.446.446 0 0 1-.2.188L7 12.686v2.19a.5.5 0 0 1-1 0v-2.19Z"/><path d="M2 14.756v-3.765a1.51 1.51 0 0 1 .219-.789 1.4 1.4 0 0 1 .609-.555l3-1.5a1.525 1.525 0 0 1 1.344 0l3 1.5a1.4 1.4 0 0 1 .36.25l3.023-6.118a.446.446 0 0 1 .187-.2.521.521 0 0 1 .25-.063H14l.008-.003c.087 0 .173.021.25.063a.447.447 0 0 1 .187.2l3.298 6.677a5.46 5.46 0 0 0-1.314-.399L14 5.124l-2.853 5.789c-.04.075-.073.153-.1.234a.734.734 0 0 0-.047.242.8.8 0 0 0 .2.524l.056.064a5.477 5.477 0 0 0-1.213 4.188L7.172 17.6a1.525 1.525 0 0 1-1.344 0l-3-1.5a1.4 1.4 0 0 1-.6-.555A1.566 1.566 0 0 1 2 14.756Zm7.93-4.023a.451.451 0 0 0-.2-.188l-3-1.5a.5.5 0 0 0-.454 0l-3 1.5a.46.46 0 0 0-.195.188.585.585 0 0 0-.081.258v3.765c0 .09.024.18.07.258a.451.451 0 0 0 .2.188l3 1.5c.072.033.15.052.23.054a.583.583 0 0 0 .227-.054l3-1.5a.459.459 0 0 0 .195-.188.585.585 0 0 0 .078-.258v-3.765c0-.09-.024-.18-.07-.258Z"/><path d="M18 19.218a4.5 4.5 0 1 1-5-7.484 4.5 4.5 0 0 1 5 7.484Zm-2.146-6.095a.5.5 0 0 0-.854.353v1.5h-1.5a.5.5 0 0 0 0 1H15v1.5a.5.5 0 0 0 1 0v-1.5h1.5a.5.5 0 0 0 0-1H16v-1.5a.5.5 0 0 0-.146-.354Z"/></g><defs><clipPath id="icon-510b604f70364572__icon-3118f938369fa3b2__a"><path d="M0 0h20v20H0z"/></clipPath></defs></svg>