<svg xmlns="http://www.w3.org/2000/svg" width="20" height="20" fill="currentColor"><path d="M7.863 2.17a.5.5 0 0 0-.707.707l1.138 1.137H6.5a2.5 2.5 0 0 0-2.5 2.5.5.5 0 1 0 1 0 1.5 1.5 0 0 1 1.5-1.5h1.794L7.156 6.152a.5.5 0 0 0 .707.707l1.991-1.991a.5.5 0 0 0 0-.707L7.864 2.17ZM3.686 11.036a.5.5 0 1 0-.372.928l2.186.874V15a.5.5 0 0 0 1 0v-2.162l2.186-.874a.5.5 0 1 0-.372-.928L6 11.96l-2.314-.925Z"/><path d="M6.551 8.105a1.5 1.5 0 0 0-1.102 0l-3.5 1.384A1.5 1.5 0 0 0 1 10.884v4.23a1.5 1.5 0 0 0 .949 1.395l3.5 1.384a1.5 1.5 0 0 0 1.102 0l3.5-1.384A1.5 1.5 0 0 0 11 15.114v-1.997c.186.136.385.254.594.35.26.123.527.23.8.32a5.25 5.25 0 0 0 1.524.228l.04-.003a.393.393 0 0 1 .077 0c.013.002.026.003.04.003a5.25 5.25 0 0 0 1.523-.227c.273-.091.54-.198.8-.32.282-.13.545-.299.782-.5.23-.194.428-.423.585-.68A1.57 1.57 0 0 0 18 11.46c0-.17-.023-.338-.07-.5a3.021 3.021 0 0 0-.18-.47L14.445 3.8a.447.447 0 0 0-.187-.2.52.52 0 0 0-.25-.063L14 3.54h-.008a.521.521 0 0 0-.25.063.447.447 0 0 0-.187.2l-2.981 6.033a1.497 1.497 0 0 0-.523-.347l-3.5-1.384Zm-.735.93a.5.5 0 0 1 .368 0l3.5 1.384a.5.5 0 0 1 .316.465v4.23a.5.5 0 0 1-.316.465l-3.5 1.384a.5.5 0 0 1-.368 0l-3.5-1.384A.5.5 0 0 1 2 15.114v-4.23a.5.5 0 0 1 .316-.465l3.5-1.384Z"/></svg>