<svg xmlns="http://www.w3.org/2000/svg" width="20" height="20" fill="currentColor"><path d="M7.863 2.146a.5.5 0 1 0-.707.708L8.294 3.99H6.5a2.5 2.5 0 0 0-2.5 2.5.5.5 0 0 0 1 0 1.5 1.5 0 0 1 1.5-1.5h1.794L7.156 6.128a.5.5 0 1 0 .707.708l1.991-1.991a.5.5 0 0 0 0-.708l-1.99-1.99ZM6 12.686l-1.727-.867a.453.453 0 0 1-.2-.188.585.585 0 0 1-.073-.255.505.505 0 0 1 .727-.446l1.773.881 1.773-.883a.507.507 0 0 1 .58.096.505.505 0 0 1 .077.609.446.446 0 0 1-.2.188L7 12.686v2.19a.5.5 0 0 1-1 0v-2.19Z"/><path d="M2 14.756v-3.765a1.51 1.51 0 0 1 .219-.789 1.4 1.4 0 0 1 .609-.555l3-1.5a1.525 1.525 0 0 1 1.344 0l3 1.5a1.4 1.4 0 0 1 .36.25l3.023-6.118a.446.446 0 0 1 .187-.2.521.521 0 0 1 .25-.063H14l.008-.003c.087 0 .173.021.25.063a.447.447 0 0 1 .187.2l3.305 6.69c.073.152.133.309.18.47.047.162.07.33.07.5 0 .292-.081.58-.235.828a2.771 2.771 0 0 1-.585.68c-.237.201-.5.37-.782.5-.26.122-.527.23-.8.32a5.243 5.243 0 0 1-1.563.224l-.039-.002-.039.002a5.243 5.243 0 0 1-1.563-.225 7.3 7.3 0 0 1-.8-.32 3.422 3.422 0 0 1-.594-.35v1.663a1.51 1.51 0 0 1-.219.789 1.4 1.4 0 0 1-.609.555l-3 1.5a1.525 1.525 0 0 1-1.344 0l-3-1.5a1.4 1.4 0 0 1-.6-.555A1.566 1.566 0 0 1 2 14.756Zm8-3.312v-.453c0-.09-.024-.18-.07-.258a.451.451 0 0 0-.2-.188l-3-1.5a.5.5 0 0 0-.454 0l-3 1.5a.46.46 0 0 0-.195.188.585.585 0 0 0-.081.258v3.765c0 .09.024.18.07.258a.451.451 0 0 0 .2.188l3 1.5c.072.033.15.052.23.054a.583.583 0 0 0 .227-.054l3-1.5a.459.459 0 0 0 .195-.188.585.585 0 0 0 .078-.258v-3.311Zm6.336.89c.175-.118.333-.26.47-.421a.8.8 0 0 0 .194-.524.737.737 0 0 0-.048-.242 1.63 1.63 0 0 0-.1-.234L14 5.123l-2.853 5.79c-.04.075-.073.153-.1.234a.734.734 0 0 0-.047.242.8.8 0 0 0 .2.524c.135.16.291.302.464.42.181.126.375.23.578.314.173.073.35.135.531.187.38.104.771.157 1.165.157h.124c.394 0 .786-.053 1.165-.157a4.69 4.69 0 0 0 .531-.187c.203-.084.397-.188.578-.313Z"/></svg>