<svg xmlns="http://www.w3.org/2000/svg" width="20" height="20" fill="currentColor"><path d="M7.863 2.146a.5.5 0 1 0-.707.708L8.294 3.99H6.5a2.5 2.5 0 0 0-2.5 2.5.5.5 0 0 0 1 0 1.5 1.5 0 0 1 1.5-1.5h1.794L7.156 6.128a.5.5 0 1 0 .707.708l1.991-1.991a.5.5 0 0 0 0-.708l-1.99-1.99Z"/><path d="M17.93 9.936a3.025 3.025 0 0 0-.18-.469l-3.305-6.69a.447.447 0 0 0-.187-.2.521.521 0 0 0-.25-.064L14 2.516h-.008a.52.52 0 0 0-.25.063.446.446 0 0 0-.187.2L10.25 9.467a3.008 3.008 0 0 0-.08.179L7.174 8.147a1.525 1.525 0 0 0-1.344 0l-3 1.5a1.4 1.4 0 0 0-.609.555 1.51 1.51 0 0 0-.22.789v3.765c.004.278.083.55.227.789.14.24.35.434.6.555l3 1.5a1.525 1.525 0 0 0 1.344 0l3-1.5a1.4 1.4 0 0 0 .609-.555c.145-.238.22-.51.22-.789v-2.663c.185.137.385.254.594.351.26.122.527.23.8.32.494.15 1.008.227 1.524.227l.04-.002a.393.393 0 0 1 .077 0l.04.002c.516 0 1.029-.076 1.523-.227.273-.09.54-.197.8-.32.282-.13.545-.299.782-.5.23-.193.428-.423.585-.68.154-.249.235-.535.235-.828 0-.169-.023-.337-.07-.5Zm-9.2 1.883L7 12.686v2.19a.5.5 0 0 1-1 0v-2.19l-1.727-.867a.453.453 0 0 1-.2-.188.585.585 0 0 1-.073-.255.505.505 0 0 1 .727-.446l1.773.881 1.773-.883a.507.507 0 0 1 .58.096c.093.093.146.22.147.352 0 .09-.025.178-.07.255a.446.446 0 0 1-.2.188Z"/></svg>