<svg xmlns="http://www.w3.org/2000/svg" width="40" height="40" fill="currentColor"><path fill="url(#icon-d0ffebb5ef07ec9d__icon-038fcdb823050d86__a)" d="M4 8a4 4 0 0 1 4-4h24a4 4 0 0 1 4 4v24a4 4 0 0 1-4 4H8a4 4 0 0 1-4-4V8Z"/><path fill="url(#icon-a007f16bf5315167__icon-001b52430c7ce601__b)" fill-opacity=".2" d="M4 8a4 4 0 0 1 4-4h24a4 4 0 0 1 4 4v24a4 4 0 0 1-4 4H8a4 4 0 0 1-4-4V8Z"/><path fill="url(#icon-60186bb68faacbf1__icon-6892c3c185018bba__c)" fill-rule="evenodd" d="M32 5H8a3 3 0 0 0-3 3v24a3 3 0 0 0 3 3h24a3 3 0 0 0 3-3V8a3 3 0 0 0-3-3ZM8 4a4 4 0 0 0-4 4v24a4 4 0 0 0 4 4h24a4 4 0 0 0 4-4V8a4 4 0 0 0-4-4H8Z" clip-rule="evenodd"/><path fill="url(#icon-d01c58fa7800cc1c__icon-bf78eedf9b7a4390__d)" d="M20 30c5.523 0 10-4.477 10-10s-4.477-10-10-10-10 4.477-10 10 4.477 10 10 10Z"/><path fill="#F4D58A" fill-rule="evenodd" d="M20 14a6 6 0 0 0-4.89 9.477.5.5 0 1 1-.815.58 7 7 0 0 1 8.427-10.508.5.5 0 0 1-.39.921A5.98 5.98 0 0 0 20 14Z" clip-rule="evenodd"/><path fill="#F4D58A" d="M25.268 14.775a.66.66 0 0 0-.84-.015l-.233.186a416.232 416.232 0 0 0-2.525 2.024c-.704.57-1.425 1.159-2 1.64-.289.242-.543.458-.742.634a5.258 5.258 0 0 0-.453.433 1.983 1.983 0 0 0 3.016 2.575c.095-.111.225-.307.357-.515.142-.224.316-.51.509-.831.386-.644.855-1.449 1.307-2.233a395.245 395.245 0 0 0 1.604-2.811l.147-.26a.66.66 0 0 0-.147-.827Z"/><defs><linearGradient id="icon-d0ffebb5ef07ec9d__icon-038fcdb823050d86__a" x1="12.889" x2="16.937" y1="4" y2="36.383" gradientUnits="userSpaceOnUse"><stop stop-color="#fff"/><stop offset="1" stop-color="#EBEBEB"/></linearGradient><linearGradient id="icon-60186bb68faacbf1__icon-6892c3c185018bba__c" x1="14.333" x2="18.642" y1="4" y2="36.314" gradientUnits="userSpaceOnUse"><stop stop-color="#BBB"/><stop offset="1" stop-color="#888"/></linearGradient><linearGradient id="icon-d01c58fa7800cc1c__icon-bf78eedf9b7a4390__d" x1="10" x2="30" y1="10" y2="30" gradientUnits="userSpaceOnUse"><stop stop-color="#C28400"/><stop offset="1" stop-color="#A86500"/></linearGradient><radialGradient id="icon-a007f16bf5315167__icon-001b52430c7ce601__b" cx="0" cy="0" r="1" gradientTransform="rotate(56.31 -4.411 19.454) scale(30.4469 26.3483)" gradientUnits="userSpaceOnUse"><stop offset=".177" stop-color="#fff"/><stop offset="1" stop-color="#B8B8B8"/></radialGradient></defs></svg>