<svg xmlns="http://www.w3.org/2000/svg" width="20" height="20" fill="currentColor"><path fill="url(#icon-aa7fdd4af51c3e93__icon-fa979ff9b8b4a70a__a)" d="M2 4.5A2.5 2.5 0 0 1 4.5 2h11A2.5 2.5 0 0 1 18 4.5v11a2.5 2.5 0 0 1-2.5 2.5h-11A2.5 2.5 0 0 1 2 15.5v-11Z"/><path fill="url(#icon-3fef1743596ac1d4__icon-13f54cca98772e1b__b)" fill-opacity=".2" d="M2 4.5A2.5 2.5 0 0 1 4.5 2h11A2.5 2.5 0 0 1 18 4.5v11a2.5 2.5 0 0 1-2.5 2.5h-11A2.5 2.5 0 0 1 2 15.5v-11Z"/><path fill="url(#icon-34a2d0b869c05cc6__icon-df40bdcc5327de37__c)" fill-rule="evenodd" d="M15.5 3h-11A1.5 1.5 0 0 0 3 4.5v11A1.5 1.5 0 0 0 4.5 17h11a1.5 1.5 0 0 0 1.5-1.5v-11A1.5 1.5 0 0 0 15.5 3Zm-11-1A2.5 2.5 0 0 0 2 4.5v11A2.5 2.5 0 0 0 4.5 18h11a2.5 2.5 0 0 0 2.5-2.5v-11A2.5 2.5 0 0 0 15.5 2h-11Z" clip-rule="evenodd"/><path fill="url(#icon-c2e6c3e5e2a9628e__icon-2b587fed5c778f26__d)" d="M10 15a5 5 0 1 0 0-10 5 5 0 0 0 0 10Z"/><path fill="#F4D58A" fill-rule="evenodd" d="M10 7.5a2.5 2.5 0 0 0-2.064 3.91.5.5 0 1 1-.825.566A3.5 3.5 0 0 1 10 6.5a.5.5 0 0 1-.001 1Z" clip-rule="evenodd"/><path fill="#F4D58A" d="M13.064 6.864a.375.375 0 0 0-.476-.008l-.133.105a221.374 221.374 0 0 0-1.432 1.149 92.7 92.7 0 0 0-1.136.93c-.163.137-.307.26-.42.36a2.976 2.976 0 0 0-.257.245 1.125 1.125 0 0 0 1.711 1.462c.054-.064.128-.175.203-.293.08-.127.179-.289.288-.471.22-.366.485-.822.742-1.267a229.254 229.254 0 0 0 .91-1.595l.083-.147a.375.375 0 0 0-.083-.47Z"/><defs><linearGradient id="icon-aa7fdd4af51c3e93__icon-fa979ff9b8b4a70a__a" x1="6.444" x2="8.468" y1="2" y2="18.192" gradientUnits="userSpaceOnUse"><stop stop-color="#fff"/><stop offset="1" stop-color="#EBEBEB"/></linearGradient><linearGradient id="icon-34a2d0b869c05cc6__icon-df40bdcc5327de37__c" x1="7.167" x2="9.321" y1="2" y2="18.157" gradientUnits="userSpaceOnUse"><stop stop-color="#BBB"/><stop offset="1" stop-color="#888"/></linearGradient><linearGradient id="icon-c2e6c3e5e2a9628e__icon-2b587fed5c778f26__d" x1="5" x2="15" y1="5" y2="15" gradientUnits="userSpaceOnUse"><stop stop-color="#C28400"/><stop offset="1" stop-color="#A86500"/></linearGradient><radialGradient id="icon-3fef1743596ac1d4__icon-13f54cca98772e1b__b" cx="0" cy="0" r="1" gradientTransform="rotate(56.31 -2.206 9.727) scale(15.2234 13.1741)" gradientUnits="userSpaceOnUse"><stop offset=".177" stop-color="#fff"/><stop offset="1" stop-color="#B8B8B8"/></radialGradient></defs></svg>