<svg xmlns="http://www.w3.org/2000/svg" width="48" height="48" fill="currentColor"><path fill="url(#icon-e627d9d95529ba80__icon-d126b1bf78ee3494__a)" d="M5 10a5 5 0 0 1 5-5h28a5 5 0 0 1 5 5v28a5 5 0 0 1-5 5H10a5 5 0 0 1-5-5V10Z"/><path fill="url(#icon-f74d28a5b967f9a4__icon-312cd8a210595a0a__b)" fill-opacity=".2" d="M5 10a5 5 0 0 1 5-5h28a5 5 0 0 1 5 5v28a5 5 0 0 1-5 5H10a5 5 0 0 1-5-5V10Z"/><path fill="url(#icon-f390f64f5fcb9d98__icon-efc5c6b32d6b6faa__c)" fill-rule="evenodd" d="M38 6H10a4 4 0 0 0-4 4v28a4 4 0 0 0 4 4h28a4 4 0 0 0 4-4V10a4 4 0 0 0-4-4ZM10 5a5 5 0 0 0-5 5v28a5 5 0 0 0 5 5h28a5 5 0 0 0 5-5V10a5 5 0 0 0-5-5H10Z" clip-rule="evenodd"/><path fill="url(#icon-e76c0b26a54b5b81__icon-f22cedcd7232bcbf__d)" d="M24 36c6.627 0 12-5.373 12-12s-5.373-12-12-12-12 5.373-12 12 5.373 12 12 12Z"/><path fill="#F4D58A" d="M30.128 17.729a.75.75 0 0 0-.953-.017l-.265.21a497.854 497.854 0 0 0-2.864 2.297c-.8.646-1.617 1.315-2.271 1.862-.326.273-.615.519-.84.718-.21.185-.407.365-.515.492a2.25 2.25 0 1 0 3.422 2.922c.108-.127.255-.349.405-.585.161-.254.359-.578.578-.943.438-.73.97-1.644 1.483-2.534a443.113 443.113 0 0 0 1.82-3.19l.166-.293a.75.75 0 0 0-.166-.939Z"/><path fill="#F4D58A" fill-rule="evenodd" d="M24 16.5a7.5 7.5 0 0 0-6.118 11.84.5.5 0 1 1-.815.579 8.5 8.5 0 0 1 10.37-12.695.5.5 0 0 1-.404.914A7.472 7.472 0 0 0 24 16.5Z" clip-rule="evenodd"/><defs><linearGradient id="icon-e627d9d95529ba80__icon-d126b1bf78ee3494__a" x1="15.556" x2="20.362" y1="5" y2="43.455" gradientUnits="userSpaceOnUse"><stop stop-color="#fff"/><stop offset="1" stop-color="#EBEBEB"/></linearGradient><linearGradient id="icon-f390f64f5fcb9d98__icon-efc5c6b32d6b6faa__c" x1="17.271" x2="22.387" y1="5" y2="43.373" gradientUnits="userSpaceOnUse"><stop stop-color="#BBB"/><stop offset="1" stop-color="#888"/></linearGradient><linearGradient id="icon-e76c0b26a54b5b81__icon-f22cedcd7232bcbf__d" x1="12" x2="36" y1="12" y2="36" gradientUnits="userSpaceOnUse"><stop stop-color="#C28400"/><stop offset="1" stop-color="#A86500"/></linearGradient><radialGradient id="icon-f74d28a5b967f9a4__icon-312cd8a210595a0a__b" cx="0" cy="0" r="1" gradientTransform="rotate(56.31 -5.347 23.46) scale(36.1557 31.2886)" gradientUnits="userSpaceOnUse"><stop offset=".177" stop-color="#fff"/><stop offset="1" stop-color="#B8B8B8"/></radialGradient></defs></svg>