<svg xmlns="http://www.w3.org/2000/svg" width="16" height="16" fill="currentColor"><path d="M8 1C5.149 1 3 2.075 3 3.5v9c0 1.294 1.773 2.3 4.235 2.473a5.506 5.506 0 0 1-.692-1.086C4.956 13.627 4 12.978 4 12.5V9.537c.537.355 1.267.63 2.124.794.073-.333.175-.656.305-.964C4.909 9.097 4 8.467 4 8V5.021A7.409 7.409 0 0 0 8 6a7.409 7.409 0 0 0 4-.979v1.001c.343.031.678.094 1 .185V3.5C13 2.075 10.851 1 8 1Zm0 1c2.441 0 4 .888 4 1.5S10.441 5 8 5s-4-.888-4-1.5S5.558 2 8 2Z"/><path d="M16 11.5a4.5 4.5 0 1 1-9 0 4.5 4.5 0 0 1 9 0Zm-5.556-2a.5.5 0 0 0-.475.303l-.584 1.364H9a.5.5 0 1 0 0 1h.714a.5.5 0 0 0 .46-.303l.212-.496.643 1.8a.5.5 0 0 0 .935.018l.672-1.673.209.39a.5.5 0 0 0 .44.264H14a.5.5 0 0 0 0-1h-.415l-.573-1.07a.5.5 0 0 0-.905.05l-.58 1.443-.628-1.758a.5.5 0 0 0-.455-.332Z"/></svg>