<svg xmlns="http://www.w3.org/2000/svg" width="24" height="24" fill="currentColor"><path fill-rule="evenodd" d="M20.5 9.497v8.615c0 .964-.78 1.745-1.742 1.748h-.02a1.748 1.748 0 0 1-1.734-1.748H17v-5.074c0-.305-.16-.57-.405-.714L9.94 8.215a.836.836 0 0 0-.88 0l-5.555 3.43V9.5c2.03-1.25 6.198-3.821 8.502-5.246l3.468 2.14.003.002 5.022 3.1Zm-4.996 8.615H15.5v-4.701l-6-3.705-5.995 3.702v2.15l3.055-1.886a.837.837 0 0 1 .88 0s2.27 1.403 4.16 2.566c.24.145.4.41.4.71v1.911c0 .354.074.691.207.996h3.167v.005h.64a3.233 3.233 0 0 1-.51-1.748Zm3.228 3.248H4.505c-.692 0-1.32-.281-1.772-.735A2.487 2.487 0 0 1 2 18.858v-5.821c0-.03.002-.06.005-.09v-3.82c0-.299.16-.563.395-.708 1.97-1.213 6.835-4.214 9.16-5.652a.844.844 0 0 1 .87-.014l3.814 2.353.008.005.008.005.001.001c2.05 1.265 4.198 2.59 5.349 3.302.235.145.39.404.39.704v8.988a3.248 3.248 0 0 1-3.248 3.248h-.02Zm-8.232-2.5c0 .343.043.677.125.995H4.5a.992.992 0 0 1-.995-.991v-1.543L7 15.163l3.5 2.16v1.536Z" clip-rule="evenodd"/></svg>