<svg xmlns="http://www.w3.org/2000/svg" width="16" height="16" fill="currentColor"><g clip-path="url(#icon-56e5ddb7afe932d1__icon-19f7cc68a3fd3fc8__a)"><path d="M2 3.501a1.5 1.5 0 1 1 3 0v9a1.5 1.5 0 0 1-3 0v-9ZM6 6.501a1.5 1.5 0 1 1 3 0v.1a5.5 5.5 0 0 0-3 4.9v-5ZM6 11.563v-.062.063Z"/><path d="M7 11.501a4.5 4.5 0 1 0 9 0 4.5 4.5 0 0 0-9 0Zm1 0a3.5 3.5 0 0 1 5.596-2.803l-4.9 4.9A3.485 3.485 0 0 1 8 11.5Zm3.5 3.5c-.786 0-1.512-.26-2.096-.697l4.9-4.9A3.5 3.5 0 0 1 11.5 15Z"/></g><defs><clipPath id="icon-56e5ddb7afe932d1__icon-19f7cc68a3fd3fc8__a"><path d="M0 0h16v16H0z"/></clipPath></defs></svg>