<svg xmlns="http://www.w3.org/2000/svg" width="24" height="24" fill="currentColor"><path fill="url(#icon-af0f1ffae8d7b481__icon-6ef4f5edad3ee6e1__a)" d="M2 5a3 3 0 0 1 3-3h14a3 3 0 0 1 3 3v14a3 3 0 0 1-3 3H5a3 3 0 0 1-3-3V5Z"/><path fill="url(#icon-c59d5c649ecaa73a__icon-be9215762c00c513__b)" fill-opacity=".2" d="M2 5a3 3 0 0 1 3-3h14a3 3 0 0 1 3 3v14a3 3 0 0 1-3 3H5a3 3 0 0 1-3-3V5Z"/><path fill="url(#icon-c3fa8fc2f687db2b__icon-05263ee543b0e736__c)" fill-rule="evenodd" d="M19 3H5a2 2 0 0 0-2 2v14a2 2 0 0 0 2 2h14a2 2 0 0 0 2-2V5a2 2 0 0 0-2-2ZM5 2a3 3 0 0 0-3 3v14a3 3 0 0 0 3 3h14a3 3 0 0 0 3-3V5a3 3 0 0 0-3-3H5Z" clip-rule="evenodd"/><path fill="url(#icon-4ff5a9e8b864e6fe__icon-ca18cd897943dc70__d)" d="M9.5 9.937a2 2 0 1 0-1 0v4.126a2 2 0 1 0 1 0V12.5H13a2.5 2.5 0 0 0 2.5-2.5v-.071a2 2 0 1 0-1 .016V10a1.5 1.5 0 0 1-1.5 1.5H9.5V9.937Z"/><defs><linearGradient id="icon-af0f1ffae8d7b481__icon-6ef4f5edad3ee6e1__a" x1="7.556" x2="10.085" y1="2" y2="22.239" gradientUnits="userSpaceOnUse"><stop stop-color="#fff"/><stop offset="1" stop-color="#EBEBEB"/></linearGradient><linearGradient id="icon-c3fa8fc2f687db2b__icon-05263ee543b0e736__c" x1="8.458" x2="11.151" y1="2" y2="22.197" gradientUnits="userSpaceOnUse"><stop stop-color="#BBB"/><stop offset="1" stop-color="#888"/></linearGradient><linearGradient id="icon-4ff5a9e8b864e6fe__icon-ca18cd897943dc70__d" x1="7" x2="18.797" y1="6" y2="15.8" gradientUnits="userSpaceOnUse"><stop stop-color="#7751B8"/><stop offset="1" stop-color="#5A409C"/></linearGradient><radialGradient id="icon-c59d5c649ecaa73a__icon-be9215762c00c513__b" cx="0" cy="0" r="1" gradientTransform="rotate(56.31 -2.54 11.442) scale(19.0293 16.4677)" gradientUnits="userSpaceOnUse"><stop offset=".177" stop-color="#fff"/><stop offset="1" stop-color="#B8B8B8"/></radialGradient></defs></svg>