<svg xmlns="http://www.w3.org/2000/svg" width="16" height="16" fill="currentColor"><g clip-path="url(#icon-086af3af46956418__icon-7c59ad0e3485484b__a)"><mask id="icon-4182c05f3b33cfb0__icon-e5a918bd2914281b__b" width="16" height="17" x="0" y="0" maskUnits="userSpaceOnUse" style="mask-type:luminance"><path d="M16 .001H0v16h16v-16Z"/></mask><g mask="url(#icon-4182c05f3b33cfb0__icon-e5a918bd2914281b__b)"><path d="M3.393 5.25a.75.75 0 0 0-1.407-.02l-1.935 5a.75.75 0 1 0 1.399.542l.104-.271h2.11l.09.25a.75.75 0 1 0 1.413-.5l-1.774-5ZM2.135 9.001l.52-1.343L3.132 9h-.997ZM6 10.501v-5a.75.75 0 0 1 .75-.75H8.258c.168 0 .663 0 1.126.26.25.141.489.356.66.668.169.309.25.672.25 1.08 0 .406-.09.747-.242 1.025.104.098.2.214.283.35.191.314.283.688.283 1.108 0 .844-.402 1.401-.923 1.704a2.445 2.445 0 0 1-1.195.305H6.872v-.01a.75.75 0 0 1-.871-.74Zm1.5-.75h1c.12 0 .309-.025.441-.102a.304.304 0 0 0 .117-.11.575.575 0 0 0 .06-.297c0-.2-.042-.292-.064-.327a.225.225 0 0 0-.1-.087c-.137-.067-.327-.077-.518-.077H7.5v1Zm.113-2.5h.669a.763.763 0 0 0 .357-.086.253.253 0 0 0 .095-.097.629.629 0 0 0 .06-.308c0-.212-.042-.317-.066-.36a.191.191 0 0 0-.08-.081c-.097-.055-.24-.068-.398-.068H7.5v1h.113ZM14.778 4.978c.522.258.916.738 1.178 1.468a.75.75 0 1 1-1.412.506c-.168-.468-.345-.587-.43-.628-.124-.062-.272-.073-.583-.073-.244 0-.389.075-.494.17-.12.107-.225.275-.307.494a2.818 2.818 0 0 0-.165.83c-.002.024-.002.042-.002.052v.01c0 .406.007.89.163 1.289.073.186.168.326.29.427.117.096.297.19.598.223.092.01.29.01.483-.062a.801.801 0 0 0 .47-.454.75.75 0 1 1 1.367.616c-.636 1.411-2.035 1.441-2.486 1.391-.558-.062-1.022-.256-1.389-.559a2.509 2.509 0 0 1-.73-1.037c-.267-.683-.267-1.425-.267-1.807V7.788l.001-.028a3.709 3.709 0 0 1 .032-.408c.031-.252.095-.601.23-.961.133-.357.35-.765.713-1.09.378-.337.878-.55 1.493-.55h.035c.273 0 .748-.001 1.212.227Z"/></g></g><defs><clipPath id="icon-086af3af46956418__icon-7c59ad0e3485484b__a"><path d="M0 0h16v16H0z"/></clipPath></defs></svg>