<svg xmlns="http://www.w3.org/2000/svg" width="32" height="32" fill="currentColor"><path fill-rule="evenodd" d="m7.016 26.532 8.727 3.452c.24.039.483.007.707-.092l9.55-4.79a.884.884 0 0 0 .268-.196c.391-.397.425-1.081.08-1.53l-4.268-4.39 4.938-8.571.008-.015c.263-.474.39-1.005.39-1.532 0-1.11-.585-2.267-1.72-2.805l-.02-.01-8.414-3.767a3.2 3.2 0 0 0-2.581-.03l-.016.006-7.982 3.456a2 2 0 0 0-.934 2.842l4.903 7.89-4.664 5.29-.043.056c-.919 1.202-.869 2.986.221 4.117.245.26.533.468.85.62Zm18.26-17.1c.09-.163.14-.357.14-.564 0-.447-.235-.836-.576-.998L16.44 4.11a1.2 1.2 0 0 0-.498-.11c-.174 0-.342.039-.499.104l-7.967 3.45 7.516 3.937c.476.285.812.816.812 1.47 0 .408-.128.777-.347 1.062L7.534 23.01c-.341.447-.308 1.127.079 1.522a.872.872 0 0 0 .263.195l6.972 2.805 10.428-18.1Z" clip-rule="evenodd"/></svg>