<svg xmlns="http://www.w3.org/2000/svg" width="28" height="28" fill="currentColor"><path fill="#767676" fill-rule="evenodd" d="M23.15 9.586c1.01-1.49 2.85-.48 2.85 1.111v6.536c-.03.56-.27 1.11-.68 1.5L19.44 24.6c-.45.45-1.09.64-1.7.52 0 0-17.4-3.673-8.43-5.925 8.97-2.252 13.84-9.598 13.84-9.598v-.01Z" clip-rule="evenodd"/><path fill="url(#icon-49efc60069812e4a__icon-ac5137fb312417f2__a)" fill-rule="evenodd" d="M23.15 9.586c1.01-1.49 2.85-.48 2.85 1.111v6.536c-.03.56-.27 1.11-.68 1.5L19.44 24.6c-.45.45-1.09.64-1.7.52 0 0-17.4-3.673-8.43-5.925 8.97-2.252 13.84-9.598 13.84-9.598v-.01Z" clip-rule="evenodd"/><path fill="url(#icon-acfceb1a0b4e0430__icon-282af3e998c14bb5__b)" fill-rule="evenodd" d="M23.15 9.586c1.01-1.49 2.85-.48 2.85 1.111v6.536c-.03.56-.27 1.11-.68 1.5L19.44 24.6c-.45.45-1.09.64-1.7.52 0 0-17.4-3.673-8.43-5.925 8.97-2.252 13.84-9.598 13.84-9.598v-.01Z" clip-rule="evenodd"/><path fill="#4F1A1A" fill-rule="evenodd" d="m20.83 23.227 4.02-4.003c-1.18 1.191-4.28 1.211-7.15-.21-1.92-.95-3.24-2.772-4.42-4.614L6.81 4.142l-4.2 4.313c-.35.37-.59.87-.61 1.411l.02 8.297c-.02.56.18 1.101.55 1.502l5.33 5.724c.37.39.87.61 1.39.61h7.97c.49 0 .97-.21 1.33-.57l2.24-2.201Z" clip-rule="evenodd"/><path fill="url(#icon-3eeefc4467430273__icon-d585dd9499c0d6ff__c)" fill-rule="evenodd" d="m20.83 23.227 4.02-4.003c-1.18 1.191-4.28 1.211-7.15-.21-1.92-.95-3.24-2.772-4.42-4.614L6.81 4.142l-4.2 4.313c-.35.37-.59.87-.61 1.411l.02 8.297c-.02.56.18 1.101.55 1.502l5.33 5.724c.37.39.87.61 1.39.61h7.97c.49 0 .97-.21 1.33-.57l2.24-2.201Z" clip-rule="evenodd"/><path fill="url(#icon-abee093b8bc2ce78__icon-756e642a594241b8__d)" fill-rule="evenodd" d="m20.83 23.227 4.02-4.003c-1.18 1.191-4.28 1.211-7.15-.21-1.92-.95-3.24-2.772-4.42-4.614L6.81 4.142l-4.2 4.313c-.35.37-.59.87-.61 1.411l.02 8.297c-.02.56.18 1.101.55 1.502l5.33 5.724c.37.39.87.61 1.39.61h7.97c.49 0 .97-.21 1.33-.57l2.24-2.201Z" clip-rule="evenodd"/><path fill="url(#icon-b5f96ce9c00c31b8__icon-3c8c28ad30d42980__e)" fill-rule="evenodd" d="m20.83 23.227 4.02-4.003c-1.18 1.191-4.28 1.211-7.15-.21-1.92-.95-3.24-2.772-4.42-4.614L6.81 4.142l-4.2 4.313c-.35.37-.59.87-.61 1.411l.02 8.297c-.02.56.18 1.101.55 1.502l5.33 5.724c.37.39.87.61 1.39.61h7.97c.49 0 .97-.21 1.33-.57l2.24-2.201Z" clip-rule="evenodd"/><path fill="#585858" fill-rule="evenodd" d="M5.76 17.513c1.73-3.343 2.29-2.462 8.63-7.446 2.95-2.312 4.65-5.044 5.49-6.656A.958.958 0 0 0 19.02 2H9.68c-.51 0-1 .21-1.37.58L2.58 8.485c-.37.39-.58.901-.58 1.452v8.277c0 .53.2 1.03.55 1.41l4.61 4.945s-3.26-3.493-1.41-7.056h.01Z" clip-rule="evenodd"/><path fill="url(#icon-7e96242ab8abb79d__icon-f281c13639f1ae62__f)" fill-rule="evenodd" d="M5.76 17.513c1.73-3.343 2.29-2.462 8.63-7.446 2.95-2.312 4.65-5.044 5.49-6.656A.958.958 0 0 0 19.02 2H9.68c-.51 0-1 .21-1.37.58L2.58 8.485c-.37.39-.58.901-.58 1.452v8.277c0 .53.2 1.03.55 1.41l4.61 4.945s-3.26-3.493-1.41-7.056h.01Z" clip-rule="evenodd"/><path fill="url(#icon-9aa066a30c4f3ccc__icon-2f3d82c89ad2fc82__g)" fill-rule="evenodd" d="M5.76 17.513c1.73-3.343 2.29-2.462 8.63-7.446 2.95-2.312 4.65-5.044 5.49-6.656A.958.958 0 0 0 19.02 2H9.68c-.51 0-1 .21-1.37.58L2.58 8.485c-.37.39-.58.901-.58 1.452v8.277c0 .53.2 1.03.55 1.41l4.61 4.945s-3.26-3.493-1.41-7.056h.01Z" clip-rule="evenodd"/><path fill="url(#icon-20ef46ff404aa6ad__icon-99dfe1cc9ca08487__h)" fill-rule="evenodd" d="M5.76 17.513c1.73-3.343 2.29-2.462 8.63-7.446 2.95-2.312 4.65-5.044 5.49-6.656A.958.958 0 0 0 19.02 2H9.68c-.51 0-1 .21-1.37.58L2.58 8.485c-.37.39-.58.901-.58 1.452v8.277c0 .53.2 1.03.55 1.41l4.61 4.945s-3.26-3.493-1.41-7.056h.01Z" clip-rule="evenodd"/><defs><linearGradient id="icon-49efc60069812e4a__icon-ac5137fb312417f2__a" x1="18.47" x2="25.536" y1="16.953" y2="9.282" gradientUnits="userSpaceOnUse"><stop stop-color="#114A85"/><stop offset=".8" stop-color="#028EDB"/></linearGradient><linearGradient id="icon-acfceb1a0b4e0430__icon-282af3e998c14bb5__b" x1="16.75" x2="26.241" y1="18.534" y2="3.098" gradientUnits="userSpaceOnUse"><stop stop-color="#114A85"/><stop offset=".67" stop-color="#028EDB"/></linearGradient><linearGradient id="icon-3eeefc4467430273__icon-d585dd9499c0d6ff__c" x1="6.76" x2="19.35" y1="15.061" y2="15.151" gradientUnits="userSpaceOnUse"><stop offset=".07" stop-color="#0669B6"/><stop offset=".26" stop-color="#0E7FCB"/><stop offset=".54" stop-color="#148DD9"/><stop offset=".95" stop-color="#3CC5EE"/></linearGradient><linearGradient id="icon-abee093b8bc2ce78__icon-756e642a594241b8__d" x1="5.62" x2="19.98" y1="16.012" y2="13.933" gradientUnits="userSpaceOnUse"><stop offset=".31" stop-color="#0094E5"/><stop offset="1" stop-color="#40D8F9"/></linearGradient><linearGradient id="icon-b5f96ce9c00c31b8__icon-3c8c28ad30d42980__e" x1="5.48" x2="19.402" y1="14.35" y2="18.487" gradientUnits="userSpaceOnUse"><stop offset=".09" stop-opacity=".2"/><stop offset=".55" stop-opacity="0"/></linearGradient><linearGradient id="icon-7e96242ab8abb79d__icon-f281c13639f1ae62__f" x1="17.46" x2="5.214" y1="7.004" y2="15.242" gradientUnits="userSpaceOnUse"><stop stop-color="#BDF5FF"/><stop offset="1" stop-color="#40D9FA"/></linearGradient><linearGradient id="icon-9aa066a30c4f3ccc__icon-2f3d82c89ad2fc82__g" x1="1.2" x2="13.857" y1="17.903" y2="9.496" gradientUnits="userSpaceOnUse"><stop stop-color="#3CC5EE"/><stop offset="1" stop-color="#50E0FF"/></linearGradient><linearGradient id="icon-20ef46ff404aa6ad__icon-99dfe1cc9ca08487__h" x1="7.67" x2="12.422" y1="10.467" y2="12.886" gradientUnits="userSpaceOnUse"><stop stop-color="#A1ECFF" stop-opacity="0"/><stop offset=".9" stop-color="#A1ECFF" stop-opacity=".9"/></linearGradient></defs></svg>