<svg xmlns="http://www.w3.org/2000/svg" width="24" height="24" fill="currentColor"><path d="M4 6c0-.69.315-1.293.774-1.78.455-.482 1.079-.883 1.793-1.202C7.996 2.377 9.917 2 12 2c2.083 0 4.004.377 5.433 1.018.714.32 1.338.72 1.793 1.202.459.487.774 1.09.774 1.78v5.498a6.452 6.452 0 0 0-1.5-.422V8.392c-.32.22-.68.417-1.067.59C16.004 9.623 14.083 10 12 10c-2.083 0-4.004-.377-5.433-1.018a6.801 6.801 0 0 1-1.067-.59V18c0 .207.09.46.365.75.279.296.717.596 1.315.864 1.14.51 2.74.853 4.551.884a6.52 6.52 0 0 0 1.061 1.484c-.26.012-.525.018-.792.018-2.083 0-4.004-.377-5.433-1.017-.714-.32-1.338-.72-1.793-1.203C4.315 19.293 4 18.69 4 18V6Zm1.5 0c0 .207.09.46.365.75.279.296.717.596 1.315.864 1.195.535 2.899.886 4.82.886 1.921 0 3.625-.35 4.82-.886.598-.268 1.036-.568 1.315-.864.275-.29.365-.543.365-.75 0-.207-.09-.46-.365-.75-.279-.296-.717-.596-1.315-.864C15.625 3.851 13.92 3.5 12 3.5c-1.921 0-3.625.35-4.82.886-.598.268-1.036.568-1.315.864-.275.29-.365.543-.365.75Z"/><path d="M12 17.5a5.5 5.5 0 1 0 11 0 5.5 5.5 0 0 0-11 0Zm6.646-2.146a.5.5 0 0 1 .708-.708l1.5 1.5a.5.5 0 0 1 0 .708l-1.5 1.5a.5.5 0 0 1-.708-.708l.647-.646H17.25A2.25 2.25 0 0 0 15 19.25v.25a.5.5 0 0 1-1 0v-.25A3.25 3.25 0 0 1 17.25 16h2.043l-.647-.646Z"/></svg>