<svg xmlns="http://www.w3.org/2000/svg" width="24" height="24" fill="currentColor"><path fill-rule="evenodd" d="M20.33 7.42c.92 0 1.665.745 1.665 1.665v.019L22 9.08v5.835l-.001.06a1.664 1.664 0 0 1-1.664 1.605h-.69c-.3 0-.595.023-.885.067l-.018.003a5.82 5.82 0 0 0-.776.177l-.017.005a5.838 5.838 0 0 0-3.877 3.868l-.22.71c-.11.35-.43.59-.795.59H7.79a.683.683 0 0 1-.675-.78 12.225 12.225 0 0 1 2.569-5.885H2.835A.836.836 0 0 1 2 14.5v-5c0-.46.375-.835.835-.835H9.62A12.417 12.417 0 0 1 7.114 2.79.693.693 0 0 1 7.798 2h5.254c.365 0 .685.24.795.59l.22.71a5.833 5.833 0 0 0 5.573 4.12h.69Zm-9.325 2.745H3.5v3.67h13.666v-.588a12.443 12.443 0 0 1-6.161-3.082Zm10.96 4.506Zm-1.47-5.586v2.87H19.44c-5.126 0-9.52-3.542-10.667-8.455h3.785l.075.242v.001A7.333 7.333 0 0 0 19.64 8.92h.69c.091 0 .165.073.165.165Z" clip-rule="evenodd"/></svg>