<svg xmlns="http://www.w3.org/2000/svg" width="16" height="16" fill="currentColor"><path fill="#767676" fill-rule="evenodd" d="M13.338 5.425c.589-.87 1.662-.28 1.662.648v3.813a1.314 1.314 0 0 1-.397.875l-3.43 3.421a1.102 1.102 0 0 1-.991.304S.032 12.343 5.264 11.03c5.233-1.314 8.073-5.599 8.073-5.599v-.006Z" clip-rule="evenodd"/><path fill="url(#icon-d8e46c1d46d74753__icon-ab9fef6749809c12__a)" fill-rule="evenodd" d="M13.338 5.425c.589-.87 1.662-.28 1.662.648v3.813a1.314 1.314 0 0 1-.397.875l-3.43 3.421a1.102 1.102 0 0 1-.991.304S.032 12.343 5.264 11.03c5.233-1.314 8.073-5.599 8.073-5.599v-.006Z" clip-rule="evenodd"/><path fill="url(#icon-7f4a511713cbb057__icon-3bc4564905830337__b)" fill-rule="evenodd" d="M13.338 5.425c.589-.87 1.662-.28 1.662.648v3.813a1.314 1.314 0 0 1-.397.875l-3.43 3.421a1.102 1.102 0 0 1-.991.304S.032 12.343 5.264 11.03c5.233-1.314 8.073-5.599 8.073-5.599v-.006Z" clip-rule="evenodd"/><path fill="#4F1A1A" fill-rule="evenodd" d="m11.984 13.383 2.345-2.336c-.688.695-2.497.707-4.17-.122-1.12-.555-1.89-1.618-2.579-2.692L3.806 2.25l-2.45 2.516A1.281 1.281 0 0 0 1 5.588l.012 4.84c-.012.327.105.643.32.876l3.11 3.34c.215.227.507.356.81.356h4.65c.286 0 .566-.123.776-.333l1.306-1.284Z" clip-rule="evenodd"/><path fill="url(#icon-70fd298a7fe9151c__icon-db4b69a155dba384__c)" fill-rule="evenodd" d="m11.984 13.383 2.345-2.336c-.688.695-2.497.707-4.17-.122-1.12-.555-1.89-1.618-2.579-2.692L3.806 2.25l-2.45 2.516A1.281 1.281 0 0 0 1 5.588l.012 4.84c-.012.327.105.643.32.876l3.11 3.34c.215.227.507.356.81.356h4.65c.286 0 .566-.123.776-.333l1.306-1.284Z" clip-rule="evenodd"/><path fill="url(#icon-65413a446b4c68ea__icon-dfed5121d6f93741__d)" fill-rule="evenodd" d="m11.984 13.383 2.345-2.336c-.688.695-2.497.707-4.17-.122-1.12-.555-1.89-1.618-2.579-2.692L3.806 2.25l-2.45 2.516A1.281 1.281 0 0 0 1 5.588l.012 4.84c-.012.327.105.643.32.876l3.11 3.34c.215.227.507.356.81.356h4.65c.286 0 .566-.123.776-.333l1.306-1.284Z" clip-rule="evenodd"/><path fill="url(#icon-51a68612acda4abe__icon-704186efef37f14c__e)" fill-rule="evenodd" d="m11.984 13.383 2.345-2.336c-.688.695-2.497.707-4.17-.122-1.12-.555-1.89-1.618-2.579-2.692L3.806 2.25l-2.45 2.516A1.281 1.281 0 0 0 1 5.588l.012 4.84c-.012.327.105.643.32.876l3.11 3.34c.215.227.507.356.81.356h4.65c.286 0 .566-.123.776-.333l1.306-1.284Z" clip-rule="evenodd"/><path fill="#585858" fill-rule="evenodd" d="M3.193 10.05C4.203 8.1 4.53 8.612 8.227 5.705c1.721-1.349 2.713-2.943 3.203-3.883A.559.559 0 0 0 10.928 1H5.48c-.298 0-.583.123-.8.339L1.339 4.783A1.222 1.222 0 0 0 1 5.63v4.828c0 .31.117.601.32.823l2.69 2.884s-1.902-2.037-.823-4.116h.006Z" clip-rule="evenodd"/><path fill="url(#icon-4687bca4bc18e904__icon-eb3540b19917803f__f)" fill-rule="evenodd" d="M3.193 10.05C4.203 8.1 4.53 8.612 8.227 5.705c1.721-1.349 2.713-2.943 3.203-3.883A.559.559 0 0 0 10.928 1H5.48c-.298 0-.583.123-.8.339L1.339 4.783A1.222 1.222 0 0 0 1 5.63v4.828c0 .31.117.601.32.823l2.69 2.884s-1.902-2.037-.823-4.116h.006Z" clip-rule="evenodd"/><path fill="url(#icon-9da14fe2b08a4aeb__icon-bdbba38a3ca1a886__g)" fill-rule="evenodd" d="M3.193 10.05C4.203 8.1 4.53 8.612 8.227 5.705c1.721-1.349 2.713-2.943 3.203-3.883A.559.559 0 0 0 10.928 1H5.48c-.298 0-.583.123-.8.339L1.339 4.783A1.222 1.222 0 0 0 1 5.63v4.828c0 .31.117.601.32.823l2.69 2.884s-1.902-2.037-.823-4.116h.006Z" clip-rule="evenodd"/><path fill="url(#icon-a63619b82fcbca86__icon-c319a8c0b4f30d34__h)" fill-rule="evenodd" d="M3.193 10.05C4.203 8.1 4.53 8.612 8.227 5.705c1.721-1.349 2.713-2.943 3.203-3.883A.559.559 0 0 0 10.928 1H5.48c-.298 0-.583.123-.8.339L1.339 4.783A1.222 1.222 0 0 0 1 5.63v4.828c0 .31.117.601.32.823l2.69 2.884s-1.902-2.037-.823-4.116h.006Z" clip-rule="evenodd"/><defs><linearGradient id="icon-d8e46c1d46d74753__icon-ab9fef6749809c12__a" x1="10.607" x2="14.73" y1="9.722" y2="5.248" gradientUnits="userSpaceOnUse"><stop stop-color="#114A85"/><stop offset=".8" stop-color="#028EDB"/></linearGradient><linearGradient id="icon-7f4a511713cbb057__icon-3bc4564905830337__b" x1="9.604" x2="15.141" y1="10.645" y2="1.64" gradientUnits="userSpaceOnUse"><stop stop-color="#114A85"/><stop offset=".67" stop-color="#028EDB"/></linearGradient><linearGradient id="icon-70fd298a7fe9151c__icon-db4b69a155dba384__c" x1="3.777" x2="11.121" y1="8.618" y2="8.671" gradientUnits="userSpaceOnUse"><stop offset=".07" stop-color="#0669B6"/><stop offset=".26" stop-color="#0E7FCB"/><stop offset=".54" stop-color="#148DD9"/><stop offset=".95" stop-color="#3CC5EE"/></linearGradient><linearGradient id="icon-65413a446b4c68ea__icon-dfed5121d6f93741__d" x1="3.112" x2="11.489" y1="9.173" y2="7.961" gradientUnits="userSpaceOnUse"><stop offset=".31" stop-color="#0094E5"/><stop offset="1" stop-color="#40D8F9"/></linearGradient><linearGradient id="icon-51a68612acda4abe__icon-704186efef37f14c__e" x1="3.03" x2="11.151" y1="8.204" y2="10.617" gradientUnits="userSpaceOnUse"><stop offset=".09" stop-opacity=".2"/><stop offset=".55" stop-opacity="0"/></linearGradient><linearGradient id="icon-4687bca4bc18e904__icon-eb3540b19917803f__f" x1="10.018" x2="2.875" y1="3.919" y2="8.724" gradientUnits="userSpaceOnUse"><stop stop-color="#BDF5FF"/><stop offset="1" stop-color="#40D9FA"/></linearGradient><linearGradient id="icon-9da14fe2b08a4aeb__icon-bdbba38a3ca1a886__g" x1=".533" x2="7.916" y1="10.277" y2="5.373" gradientUnits="userSpaceOnUse"><stop stop-color="#3CC5EE"/><stop offset="1" stop-color="#50E0FF"/></linearGradient><linearGradient id="icon-a63619b82fcbca86__icon-c319a8c0b4f30d34__h" x1="4.307" x2="7.079" y1="5.939" y2="7.35" gradientUnits="userSpaceOnUse"><stop stop-color="#A1ECFF" stop-opacity="0"/><stop offset=".9" stop-color="#A1ECFF" stop-opacity=".9"/></linearGradient></defs></svg>