<svg xmlns="http://www.w3.org/2000/svg" width="16" height="16" fill="currentColor"><path fill="url(#icon-504e5baac0e36f49__icon-8d8e0bf7699885a8__a)" d="M1.03 2.103A.876.876 0 0 1 1.875 1h9.042C13.172 1 15 2.045 15 3.333v.437l-.916 6.563H4.308a.875.875 0 0 1-.831-.601L1.043 2.148A.875.875 0 0 1 1.875 1"/><path fill="url(#icon-f475037bc211fdee__icon-b3236f6d196d0bf6__b)" d="M7.509 12.667h5.12l.038-2.421V4.523c0-.658-.933-1.19-2.084-1.19H5.075a.875.875 0 0 0-.834 1.139l2.434 7.586a.875.875 0 0 0 .834.608Z"/><path fill="url(#icon-bacc62b96eb5726a__icon-bbdfc55c137eb3fa__c)" d="m12.645 11.601.021-1.356v-5.72c0-.659-.933-1.192-2.084-1.192H5.075a.875.875 0 0 0-.834 1.14L6.528 11.6h6.117Z"/><path fill="url(#icon-85d5969ea2def429__icon-6c4ebc68d71a633e__d)" d="M9.874 14.387a.876.876 0 0 0 .835.613h.208C13.172 15 15 13.955 15 12.667V3.333c0 1.289-1.828 2.334-4.083 2.334H8.276a.875.875 0 0 0-.833 1.143l2.43 7.577Z"/><path fill="url(#icon-561d646b77a43fa5__icon-ee4fe9f4770f8539__e)" d="M3.295 9.167h10.952L15 3.77v-.437C15 2.045 13.172 1 10.917 1H1.875A.875.875 0 0 0 1 1.875c0 .071.011.14.027.206.002.007.001.015.003.022l.002-.002c.004.015.006.032.012.047l2.251 7.019Z"/><defs><linearGradient id="icon-504e5baac0e36f49__icon-8d8e0bf7699885a8__a" x1=".493" x2="14.844" y1="3.652" y2="7.498" gradientUnits="userSpaceOnUse"><stop stop-color="#D594F0"/><stop offset=".585" stop-color="#524BB5"/><stop offset=".826" stop-color="#0B3B7F"/><stop offset="1" stop-color="#002561"/></linearGradient><linearGradient id="icon-f475037bc211fdee__icon-b3236f6d196d0bf6__b" x1="3.56" x2="13.566" y1="6.483" y2="9.165" gradientUnits="userSpaceOnUse"><stop stop-color="#CFB6FB"/><stop offset=".257" stop-color="#B897F2"/><stop offset=".811" stop-color="#2F65DA"/></linearGradient><linearGradient id="icon-bacc62b96eb5726a__icon-bbdfc55c137eb3fa__c" x1="8.433" x2="8.433" y1="3.333" y2="11.601" gradientUnits="userSpaceOnUse"><stop stop-color="#CFB6FB" stop-opacity=".25"/><stop offset=".15" stop-color="#CFB6FB" stop-opacity="0"/></linearGradient><linearGradient id="icon-85d5969ea2def429__icon-6c4ebc68d71a633e__d" x1="7.136" x2="15.943" y1="7.114" y2="10.319" gradientUnits="userSpaceOnUse"><stop offset=".059" stop-color="#EFCEFD"/><stop offset=".462" stop-color="#CFB6FB"/><stop offset=".673" stop-color="#B5A5F4"/><stop offset="1" stop-color="#8787E8"/></linearGradient><linearGradient id="icon-561d646b77a43fa5__icon-ee4fe9f4770f8539__e" x1="8" x2="8" y1="1" y2="9.167" gradientUnits="userSpaceOnUse"><stop stop-color="#D594F0" stop-opacity=".2"/><stop offset=".457" stop-color="#D594F0" stop-opacity="0"/></linearGradient></defs></svg>