<svg xmlns="http://www.w3.org/2000/svg" width="32" height="32" fill="currentColor"><path d="M30 7.667C30 4.537 26.007 2 20.083 2H3.75A1.75 1.75 0 0 0 2 3.75c0 .142.013.281.054.411.055.171 3.243 10.139 4.899 15.302a1.75 1.75 0 0 0 1.663 1.204h3.627l1.107 3.452a1.75 1.75 0 0 0 1.667 1.214h3.625l1.104 3.44a1.75 1.75 0 0 0 1.67 1.226h.416c4.51 0 8.167-2.089 8.167-4.667L30 7.667ZM4.102 4h15.981C24.973 4 28 5.903 28 7.667c0 1.019-.948 2.057-2.667 2.768v-.397c0-2.109-1.866-3.371-4.168-3.371H10.151a1.75 1.75 0 0 0-1.669 2.279l3.119 9.721H8.798C7.327 14.079 4.738 5.987 4.102 4Zm6.391 4.667h10.672c.222 0 2.168.038 2.168 1.371v.99c-.956.193-2.043.306-3.25.306h-3.532a1.75 1.75 0 0 0-1.666 2.288l3.116 9.712h-2.802L10.493 8.667ZM21.833 28h-.234l-4.706-14.667h3.19c3.488 0 6.212-.822 7.917-2.105v14.105C28 26.395 25.541 28 21.833 28Z"/></svg>