<svg xmlns="http://www.w3.org/2000/svg" width="20" height="20" fill="currentColor"><path d="M10.7 8.75a.75.75 0 0 0 .8-.702 1.027 1.027 0 0 1 .148-.388c.109-.168.338-.409.952-.409.58 0 .862.186 1.004.38.158.216.266.61.157 1.243a.78.78 0 0 1-.403.597c-.204.126-.423.206-.719.314-.127.047-.269.099-.43.162-.474.185-1.057.456-1.505.997-.46.558-.704 1.308-.704 2.307a.75.75 0 0 0 .75.75h3.75a.75.75 0 0 0 0-1.5h-2.922c.069-.285.175-.47.282-.6.196-.238.48-.395.895-.557.08-.032.172-.065.271-.101.343-.125.776-.282 1.122-.497.523-.324.954-.82 1.091-1.618.15-.867.057-1.723-.424-2.382-.497-.68-1.295-.995-2.215-.995-1.136 0-1.832.51-2.21 1.091a2.529 2.529 0 0 0-.387 1.09v.011l-.001.004v.002c0 .003-.024.353 0 .002a.75.75 0 0 0 .698.798ZM9 13.5a.5.5 0 1 1-1 0 .5.5 0 0 1 1 0Zm-2.543-7.47A.75.75 0 0 1 7 6.75v6.5a.75.75 0 0 1-1.5 0V8.806c-.241.19-.524.384-.864.588a.75.75 0 0 1-.772-1.286c.58-.349.903-.621 1.128-.868.216-.237.361-.47.575-.812l.048-.075a.75.75 0 0 1 .842-.323Z"/></svg>