<svg xmlns="http://www.w3.org/2000/svg" width="16" height="16" fill="currentColor"><path d="M5.658 4.66A2.25 2.25 0 0 1 9.5 6.234l.004.066a.5.5 0 0 1-.002.092 2.44 2.44 0 0 1-.921 1.627.499.499 0 0 1-.057.039l-1.627.94A1.59 1.59 0 0 0 6.058 10h2.941a.5.5 0 1 1 0 1.001H5.5a.5.5 0 0 1-.5-.483 2.59 2.59 0 0 1 1.407-2.392l1.584-.915a1.44 1.44 0 0 0 .512-.898l-.002-.03A2.25 2.25 0 0 1 5.658 4.66ZM3.736 4.06A.5.5 0 0 1 4 4.501v6a.5.5 0 0 1-1 0V5.435l-.723.482a.5.5 0 1 1-.554-.832l1.5-1a.5.5 0 0 1 .513-.025ZM12 4.501a.5.5 0 0 0-1 0v6a.5.5 0 0 0 .5.5h3a.5.5 0 0 0 0-1H12v-5.5Z"/></svg>