<svg xmlns="http://www.w3.org/2000/svg" width="16" height="16" fill="currentColor"><path d="M8 3a2 2 0 1 0-4 0v10h.057a1.5 1.5 0 0 1 1.433-1.06 1.438 1.438 0 0 1 .74.2c.07-.22.09-.47.11-.74l.032-.494v-.003c.028-.436.068-1.056.108-1.703-.78-.05-1.39-.71-1.39-1.5s.67-1.5 1.5-1.5h.05v-.04c.06-.69.26-1.29.6-1.78.213-.297.468-.544.76-.733V3ZM3 6H2a2 2 0 0 0-2 2v4.5a.5.5 0 0 0 .5.5H3V6Z"/><path d="M9.42 5.2c.17-.02.28-.02.36 0 .08.02.16.05.28.12.24.14.54.07.69-.17.14-.24.07-.54-.17-.69-.18-.11-.37-.2-.6-.24-.22-.04-.45-.04-.7 0-.53.08-.94.36-1.21.74-.26.37-.39.83-.42 1.28v.04c0 .041-.005.153-.013.318a86.13 86.13 0 0 0-.027.612H6.6c-.28 0-.5.22-.5.5s.22.5.5.5h.95a325.807 325.807 0 0 1-.199 3.26l-.001.02c-.03.38-.06.71-.15 1-.09.27-.22.47-.45.6h-.01c-.26.17-.59.14-1.02-.08a.505.505 0 0 0-.67.22c-.12.25-.02.55.22.67.53.27 1.28.48 1.99.04.49-.29.75-.72.89-1.16.12-.371.155-.769.183-1.096l.007-.074v-.05c.03-.45.13-2.03.2-3.35h1.05c.28 0 .5-.22.5-.5s-.22-.5-.5-.5H8.6l.022-.46c.01-.216.018-.372.018-.44.03-.33.11-.59.24-.77.12-.17.29-.29.54-.33V5.2ZM14.84 10.04c.2-.2.2-.51 0-.71-.2-.2-.51-.2-.71 0l-1.54 1.54c-.133-.228-.25-.432-.335-.581l-.115-.199c-.06-.12-.15-.27-.26-.41a1.406 1.406 0 0 0-.5-.419l-.02-.01a.942.942 0 0 0-.83.08c-.2.12-.34.29-.44.42-.17.22-.13.53.09.7.22.17.53.13.7-.09l.024-.03c.029-.037.053-.067.076-.09l.04-.04c.01.008.018.02.028.031.012.015.026.032.043.048.06.08.12.18.17.28 0 .01.01.02.02.03.07.11.31.52.58 1l-1.73 1.73c-.2.2-.2.51 0 .71.2.2.51.2.71 0l1.54-1.54.168.292c.144.249.258.445.302.518.025.039.047.077.067.113.01.02.022.04.033.057l.03.05.051.085a1.197 1.197 0 0 0 .548.505c.04.02.08.03.12.04.3.06.58.04.82-.13.16-.11.29-.28.35-.36 0-.005.006-.01.01-.015.005-.005.01-.01.01-.015.17-.22.13-.53-.09-.7a.496.496 0 0 0-.7.09c-.02.02-.04.05-.05.07v.02s-.05.04-.06.06l-.02.02s-.01 0-.01-.01l-.03-.03a.347.347 0 0 1-.041-.06 2.19 2.19 0 0 0-.038-.06l-.02-.04-.03-.05-.09-.15c-.046-.07-.163-.272-.316-.536l-.274-.474 1.73-1.73-.01-.01Z"/></svg>