<svg xmlns="http://www.w3.org/2000/svg" width="20" height="20" fill="currentColor"><path d="M4 5.001c0-1.007.875-1.755 1.904-2.223C6.978 2.29 8.427 2.001 10 2.001s3.022.289 4.096.777C15.125 3.246 16 3.994 16 5.001v5.975h-1V6.699a4.92 4.92 0 0 1-.904.525C13.022 7.712 11.573 8 10 8s-3.022-.289-4.096-.777A4.921 4.921 0 0 1 5 6.699v8.302c0 .374.356.875 1.318 1.313C7.234 16.73 8.536 17 10 17c.143 0 .284-.003.424-.008.07.061.154.122.276.183l-.4.4c-.13.13-.231.273-.305.425-1.571 0-3.018-.29-4.091-.777C4.875 16.756 4 16.008 4 15v-10Zm1 0c0 .374.356.875 1.318 1.313C7.234 6.73 8.536 7 10 7s2.766-.27 3.682-.687C14.644 5.876 15 5.374 15 5c0-.374-.356-.875-1.318-1.313-.916-.416-2.218-.687-3.682-.687s-2.766.27-3.682.687C5.356 4.126 5 4.628 5 5.001Z"/><path d="M12.484 12.005h5a.5.5 0 0 1 .5.5v5a.5.5 0 0 1-.853.354l-5-5a.5.5 0 0 1 .353-.854ZM12.54 14.658a.5.5 0 0 1 0 .707l-.706.708a.5.5 0 1 1-.708-.708l.708-.707a.5.5 0 0 1 .707 0ZM15.37 17.487a.5.5 0 0 1 0 .707l-.708.707a.5.5 0 1 1-.707-.707l.707-.707a.5.5 0 0 1 .707 0ZM13.955 16.073a.5.5 0 0 1 0 .707l-2.121 2.12a.5.5 0 1 1-.708-.706l2.122-2.121a.5.5 0 0 1 .707 0Z"/></svg>