<svg xmlns="http://www.w3.org/2000/svg" width="20" height="20" fill="currentColor"><path fill="url(#icon-ed6370f02ce97412__icon-e9bc8368b1401501__a)" d="M2 4.5A2.5 2.5 0 0 1 4.5 2h11A2.5 2.5 0 0 1 18 4.5v11a2.5 2.5 0 0 1-2.5 2.5h-11A2.5 2.5 0 0 1 2 15.5v-11Z"/><path fill="url(#icon-a800804c1979c9ab__icon-c0079f5d0c7c5f9a__b)" fill-opacity=".2" d="M2 4.5A2.5 2.5 0 0 1 4.5 2h11A2.5 2.5 0 0 1 18 4.5v11a2.5 2.5 0 0 1-2.5 2.5h-11A2.5 2.5 0 0 1 2 15.5v-11Z"/><path fill="url(#icon-c95e09b18c670853__icon-146b5cbabd115adf__c)" fill-rule="evenodd" d="M15.5 3h-11A1.5 1.5 0 0 0 3 4.5v11A1.5 1.5 0 0 0 4.5 17h11a1.5 1.5 0 0 0 1.5-1.5v-11A1.5 1.5 0 0 0 15.5 3Zm-11-1A2.5 2.5 0 0 0 2 4.5v11A2.5 2.5 0 0 0 4.5 18h11a2.5 2.5 0 0 0 2.5-2.5v-11A2.5 2.5 0 0 0 15.5 2h-11Z" clip-rule="evenodd"/><path fill="url(#icon-2084933b5511a0f7__icon-16537d9eac77a041__d)" fill-rule="evenodd" d="M7.5 8.937a2 2 0 1 0-1 0v2.126a2 2 0 1 0 1 0V10.5h4a2 2 0 0 0 1.95-1.55 2 2 0 1 0-1.038-.038 1 1 0 0 1-.912.588h-4v-.563ZM8 7v.003A1.316 1.316 0 0 0 8 7Zm6 .003V7a.978.978 0 0 0 0 .003Z" clip-rule="evenodd"/><defs><linearGradient id="icon-ed6370f02ce97412__icon-e9bc8368b1401501__a" x1="6.444" x2="8.468" y1="2" y2="18.192" gradientUnits="userSpaceOnUse"><stop stop-color="#fff"/><stop offset="1" stop-color="#EBEBEB"/></linearGradient><linearGradient id="icon-c95e09b18c670853__icon-146b5cbabd115adf__c" x1="7.167" x2="9.321" y1="2" y2="18.157" gradientUnits="userSpaceOnUse"><stop stop-color="#BBB"/><stop offset="1" stop-color="#888"/></linearGradient><linearGradient id="icon-2084933b5511a0f7__icon-16537d9eac77a041__d" x1="5" x2="15" y1="5" y2="15" gradientUnits="userSpaceOnUse"><stop stop-color="#4BA446"/><stop offset="1" stop-color="#3F7D35"/></linearGradient><radialGradient id="icon-a800804c1979c9ab__icon-c0079f5d0c7c5f9a__b" cx="0" cy="0" r="1" gradientTransform="rotate(56.31 -2.206 9.727) scale(15.2234 13.1741)" gradientUnits="userSpaceOnUse"><stop offset=".177" stop-color="#fff"/><stop offset="1" stop-color="#B8B8B8"/></radialGradient></defs></svg>