<svg xmlns="http://www.w3.org/2000/svg" width="16" height="16" fill="currentColor"><path d="M10.318 14.911c.132-.056.254-.139.358-.241l2.274-2.257a6.024 6.024 0 0 1-2.26-.624c-1.12-.553-1.893-1.618-2.58-2.692l-.878-1.39A79.74 79.74 0 0 1 4.988 9.28c-.226.15-.414.277-.57.389-.303.215-.482.37-.637.553-.16.19-.33.447-.566.902-.337.65-.236 1.316.035 1.926a4.175 4.175 0 0 0 .586.944l.595.65c.213.227.505.356.81.356h4.661a1.026 1.026 0 0 0 .416-.089Z"/><path d="m14.149 11.216.457-.455A1.34 1.34 0 0 0 15 9.882v-3.81c0-.926-1.075-1.514-1.665-.647 0 0-1.371 2.063-3.961 3.766.541.772 1.087 1.37 1.759 1.702.715.353 1.44.517 2.031.528.604.012.9-.134.985-.205ZM6.507 6.989c-.481.342-.873.605-1.2.824-.41.276-.72.483-.978.695-.952.722-1.365.954-1.975 2.131-.25.483-.34.97-.33 1.424l-.723-.78C1.094 11.06 1 10.735 1 10.427v-4.8c0-.316.101-.62.317-.842l3.354-3.445A1.123 1.123 0 0 1 5.468 1h5.454c.424 0 .702.434.501.823A12.01 12.01 0 0 1 8.09 5.808c-.508.395-1.059.803-1.582 1.18Z"/></svg>