<svg xmlns="http://www.w3.org/2000/svg" width="28" height="28" fill="currentColor"><path fill="url(#icon-a0a61eb060ccf5dc__icon-8743c958cea55a92__a)" d="M2.051 3.891A1.503 1.503 0 0 1 3.5 2H19c3.866 0 7 1.791 7 4v.749L24.43 18H7.671a1.5 1.5 0 0 1-1.425-1.032l-4.172-13A1.5 1.5 0 0 1 3.5 2"/><path fill="url(#icon-3364f40705faf230__icon-73165c2956abba80__b)" d="M13.158 22h8.776L22 17.85V8.04C22 6.914 20.4 6 18.428 6H8.987a1.5 1.5 0 0 0-1.43 1.954l4.172 13.005A1.5 1.5 0 0 0 13.16 22Z"/><path fill="url(#icon-7c76469a2fce177b__icon-627f3d48a0337f5e__c)" d="M21.963 20.174 22 17.849V8.041C22 6.914 20.4 6 18.427 6h-9.44a1.5 1.5 0 0 0-1.43 1.954l3.92 12.22h10.486Z"/><path fill="url(#icon-555a8819ae151cd1__icon-6dbbe390fb970113__d)" d="M17.212 24.949A1.5 1.5 0 0 0 18.643 26H19c3.866 0 7-1.791 7-4V6c0 2.209-3.134 4-7 4h-4.528a1.5 1.5 0 0 0-1.428 1.96l4.168 12.989Z"/><path fill="url(#icon-88baef64a3b03019__icon-c0f4f2b9d5f24782__e)" d="M5.935 16h18.774L26 6.749V6c0-2.209-3.134-4-7-4H3.5A1.5 1.5 0 0 0 2 3.5c0 .122.019.239.046.353.004.012.003.025.006.038l.003-.004c.007.027.011.055.02.082L5.935 16Z"/><defs><linearGradient id="icon-a0a61eb060ccf5dc__icon-8743c958cea55a92__a" x1="1.131" x2="25.733" y1="6.547" y2="13.139" gradientUnits="userSpaceOnUse"><stop stop-color="#D594F0"/><stop offset=".585" stop-color="#524BB5"/><stop offset=".826" stop-color="#0B3B7F"/><stop offset="1" stop-color="#002561"/></linearGradient><linearGradient id="icon-3364f40705faf230__icon-73165c2956abba80__b" x1="6.388" x2="23.543" y1="11.4" y2="15.996" gradientUnits="userSpaceOnUse"><stop stop-color="#CFB6FB"/><stop offset=".257" stop-color="#B897F2"/><stop offset=".811" stop-color="#2F65DA"/></linearGradient><linearGradient id="icon-7c76469a2fce177b__icon-627f3d48a0337f5e__c" x1="14.743" x2="14.743" y1="6" y2="20.174" gradientUnits="userSpaceOnUse"><stop stop-color="#CFB6FB" stop-opacity=".25"/><stop offset=".15" stop-color="#CFB6FB" stop-opacity="0"/></linearGradient><linearGradient id="icon-555a8819ae151cd1__icon-6dbbe390fb970113__d" x1="12.519" x2="27.616" y1="12.48" y2="17.976" gradientUnits="userSpaceOnUse"><stop offset=".059" stop-color="#EFCEFD"/><stop offset=".462" stop-color="#CFB6FB"/><stop offset=".673" stop-color="#B5A5F4"/><stop offset="1" stop-color="#8787E8"/></linearGradient><linearGradient id="icon-88baef64a3b03019__icon-c0f4f2b9d5f24782__e" x1="14" x2="14" y1="2" y2="16" gradientUnits="userSpaceOnUse"><stop stop-color="#D594F0" stop-opacity=".2"/><stop offset=".457" stop-color="#D594F0" stop-opacity="0"/></linearGradient></defs></svg>