<svg xmlns="http://www.w3.org/2000/svg" width="16" height="16" fill="currentColor"><path d="M4.658 4.66A2.25 2.25 0 0 1 8.5 6.234l.004.066a.5.5 0 0 1-.002.092 2.44 2.44 0 0 1-.921 1.627.499.499 0 0 1-.057.039l-1.627.94A1.59 1.59 0 0 0 5.058 10h2.941a.5.5 0 1 1 0 1.001H4.5a.5.5 0 0 1-.5-.483 2.59 2.59 0 0 1 1.407-2.392l1.584-.915a1.44 1.44 0 0 0 .512-.898l-.002-.03A2.25 2.25 0 0 1 4.658 4.66ZM2.736 4.06A.5.5 0 0 1 3 4.501v6a.5.5 0 0 1-1 0V5.435l-.723.482a.5.5 0 1 1-.554-.832l1.5-1a.5.5 0 0 1 .513-.025ZM9.831 5.626A2.494 2.494 0 0 1 11.497 5h.003c.598 0 .98.162 1.203.35a.8.8 0 0 1 .303.638C12.996 6.399 12.603 7 11.5 7a.5.5 0 0 0 0 1c.61 0 1 .163 1.225.352a.79.79 0 0 1 .304.634C13.018 9.394 12.618 10 11.5 10h-.003a2.494 2.494 0 0 1-1.666-.625.5.5 0 1 0-.662.75c.644.568 1.474.88 2.332.875 1.502 0 2.497-.893 2.528-1.986a1.788 1.788 0 0 0-.662-1.428 2.123 2.123 0 0 0-.141-.109c.484-.365.766-.888.78-1.464a1.8 1.8 0 0 0-.657-1.426c-.442-.374-1.072-.587-1.848-.587a3.494 3.494 0 0 0-2.332.875.5.5 0 1 0 .662.75Z"/></svg>