<svg xmlns="http://www.w3.org/2000/svg" width="28" height="28" fill="currentColor"><path fill-rule="evenodd" d="M22.291 25.233v-.006A3.748 3.748 0 0 0 26 21.48V10.55a.986.986 0 0 0-.468-.844c-1.38-.853-3.954-2.442-6.412-3.958l-.007-.004-4.597-2.838a.985.985 0 0 0-.51-.137c-.198 0-.378.06-.534.155C10.682 4.65 4.844 8.25 2.48 9.705a1.002 1.002 0 0 0-.474.85L2 22.233c0 .81.322 1.544.845 2.083a2.994 2.994 0 0 0 2.16.918h17.287ZM17 23.733h2.256a3.735 3.735 0 0 1-.756-2.254v-5.952l-7.5-4.63-7.494 4.626v2.933l3.966-2.448a1.003 1.003 0 0 1 1.056 0s2.724 1.683 4.992 3.079c.288.174.48.491.48.85v2.295c0 .544.146 1.055.4 1.495H17v.006Zm3.003-2.254L20 15.247a.988.988 0 0 0-.486-.857l-7.986-4.93a1.003 1.003 0 0 0-1.056 0l-6.966 4.3v-2.925c2.423-1.493 7.721-4.76 10.503-6.48l4.299 2.653.013.008.004.003.002.001 6.173 3.81v10.65a2.248 2.248 0 0 1-2.242 2.247h-.013a2.248 2.248 0 0 1-2.242-2.248Zm-7.248 2.248H5a1.489 1.489 0 0 1-1.494-1.49V20.22L8 17.444l4.5 2.776v2.012c0 .524.09 1.028.255 1.495Z" clip-rule="evenodd"/></svg>