<svg xmlns="http://www.w3.org/2000/svg" width="40" height="40" fill="currentColor"><path fill="url(#icon-63db1551f4f30bec__icon-052b9e69dd6c96b1__a)" d="M4 8a4 4 0 0 1 4-4h24a4 4 0 0 1 4 4v24a4 4 0 0 1-4 4H8a4 4 0 0 1-4-4V8Z"/><path fill="url(#icon-882977f2b7a736be__icon-842391b7d9027aa9__b)" fill-opacity=".2" d="M4 8a4 4 0 0 1 4-4h24a4 4 0 0 1 4 4v24a4 4 0 0 1-4 4H8a4 4 0 0 1-4-4V8Z"/><path fill="url(#icon-642f7a8b023382fd__icon-278cbe4d8482fac7__c)" fill-rule="evenodd" d="M32 5H8a3 3 0 0 0-3 3v24a3 3 0 0 0 3 3h24a3 3 0 0 0 3-3V8a3 3 0 0 0-3-3ZM8 4a4 4 0 0 0-4 4v24a4 4 0 0 0 4 4h24a4 4 0 0 0 4-4V8a4 4 0 0 0-4-4H8Z" clip-rule="evenodd"/><path fill="url(#icon-74de1922bb81a7df__icon-ceb255e402c21cfd__d)" d="M19 15a3 3 0 0 1-2.5 2.959V20H22a1.5 1.5 0 0 0 1.5-1.5v-.541a3 3 0 1 1 1 0v.541A2.5 2.5 0 0 1 22 21h-5.5v1.041a3 3 0 1 1-1 0V17.96A3 3 0 1 1 19 15Z"/><defs><linearGradient id="icon-63db1551f4f30bec__icon-052b9e69dd6c96b1__a" x1="12.889" x2="16.937" y1="4" y2="36.383" gradientUnits="userSpaceOnUse"><stop stop-color="#fff"/><stop offset="1" stop-color="#EBEBEB"/></linearGradient><linearGradient id="icon-642f7a8b023382fd__icon-278cbe4d8482fac7__c" x1="14.333" x2="18.642" y1="4" y2="36.314" gradientUnits="userSpaceOnUse"><stop stop-color="#BBB"/><stop offset="1" stop-color="#888"/></linearGradient><linearGradient id="icon-74de1922bb81a7df__icon-ceb255e402c21cfd__d" x1="13" x2="28.858" y1="12" y2="25.876" gradientUnits="userSpaceOnUse"><stop stop-color="#4BA446"/><stop offset="1" stop-color="#3F7D35"/></linearGradient><radialGradient id="icon-882977f2b7a736be__icon-842391b7d9027aa9__b" cx="0" cy="0" r="1" gradientTransform="rotate(56.31 -4.411 19.454) scale(30.4469 26.3483)" gradientUnits="userSpaceOnUse"><stop offset=".177" stop-color="#fff"/><stop offset="1" stop-color="#B8B8B8"/></radialGradient></defs></svg>