<svg xmlns="http://www.w3.org/2000/svg" width="40" height="40" fill="currentColor"><path fill="url(#icon-110a832d8c26e79d__icon-b57935f298931b5d__a)" d="M2 10a4 4 0 0 1 4-4h28a4 4 0 0 1 4 4v20a4 4 0 0 1-4 4H6a4 4 0 0 1-4-4V10Z"/><path fill="url(#icon-eeae405fabe8a76d__icon-c6622b75a58a5dca__b)" fill-opacity=".2" d="M2 10a4 4 0 0 1 4-4h28a4 4 0 0 1 4 4v20a4 4 0 0 1-4 4H6a4 4 0 0 1-4-4V10Z"/><path fill="url(#icon-ce427fba4411d755__icon-866c3fd09918ca92__c)" fill-rule="evenodd" d="M34 7H6a3 3 0 0 0-3 3v20a3 3 0 0 0 3 3h28a3 3 0 0 0 3-3V10a3 3 0 0 0-3-3ZM6 6a4 4 0 0 0-4 4v20a4 4 0 0 0 4 4h28a4 4 0 0 0 4-4V10a4 4 0 0 0-4-4H6Z" clip-rule="evenodd"/><path fill="url(#icon-37dfff97e5e3028a__icon-a8672568552ce7dd__d)" d="M15.499 23.25a1.25 1.25 0 1 0 0-2.5 1.25 1.25 0 0 0 0 2.5Z"/><path fill="url(#icon-15eecbb93dbf2149__icon-202387e9dbcd51a5__e)" d="M19.999 23.25a1.25 1.25 0 1 0 0-2.5 1.25 1.25 0 0 0 0 2.5Z"/><path fill="url(#icon-602bc775a30c2755__icon-2e6818c83c5377ce__f)" d="M24.499 23.25a1.25 1.25 0 1 0 0-2.5 1.25 1.25 0 0 0 0 2.5Z"/><path fill="url(#icon-35c9fc47e3660bac__icon-93881ee30e5a9a8f__g)" fill-rule="evenodd" d="M13.845 12a1 1 0 0 0-.743.331l-3.6 4c-.58.644-.123 1.669.743 1.669H12v7a2 2 0 0 0 2 2h12a2 2 0 0 0 2-2v-7h1.754c.866 0 1.323-1.025.744-1.669l-3.6-4a1 1 0 0 0-.744-.331H13.845ZM27 18H13v7a1 1 0 0 0 1 1h12a1 1 0 0 0 1-1v-7Z" clip-rule="evenodd"/><defs><linearGradient id="icon-110a832d8c26e79d__icon-b57935f298931b5d__a" x1="12" x2="14.772" y1="6" y2="34.508" gradientUnits="userSpaceOnUse"><stop stop-color="#fff"/><stop offset="1" stop-color="#EBEBEB"/></linearGradient><linearGradient id="icon-ce427fba4411d755__icon-866c3fd09918ca92__c" x1="13.625" x2="16.578" y1="6" y2="34.472" gradientUnits="userSpaceOnUse"><stop stop-color="#BBB"/><stop offset="1" stop-color="#888"/></linearGradient><linearGradient id="icon-37dfff97e5e3028a__icon-a8672568552ce7dd__d" x1="9.243" x2="23.318" y1="12" y2="32.186" gradientUnits="userSpaceOnUse"><stop stop-color="#7751B8"/><stop offset="1" stop-color="#5A409C"/></linearGradient><linearGradient id="icon-15eecbb93dbf2149__icon-202387e9dbcd51a5__e" x1="9.243" x2="23.318" y1="12" y2="32.186" gradientUnits="userSpaceOnUse"><stop stop-color="#7751B8"/><stop offset="1" stop-color="#5A409C"/></linearGradient><linearGradient id="icon-602bc775a30c2755__icon-2e6818c83c5377ce__f" x1="9.243" x2="23.318" y1="12" y2="32.186" gradientUnits="userSpaceOnUse"><stop stop-color="#7751B8"/><stop offset="1" stop-color="#5A409C"/></linearGradient><linearGradient id="icon-35c9fc47e3660bac__icon-93881ee30e5a9a8f__g" x1="9.243" x2="23.318" y1="12" y2="32.186" gradientUnits="userSpaceOnUse"><stop stop-color="#7751B8"/><stop offset="1" stop-color="#5A409C"/></linearGradient><radialGradient id="icon-eeae405fabe8a76d__icon-c6622b75a58a5dca__b" cx="0" cy="0" r="1" gradientTransform="matrix(18.99999 22.16665 -20.53675 17.60293 13.5 13.292)" gradientUnits="userSpaceOnUse"><stop offset=".177" stop-color="#fff"/><stop offset="1" stop-color="#B8B8B8"/></radialGradient></defs></svg>