<svg xmlns="http://www.w3.org/2000/svg" width="16" height="16" fill="currentColor"><path d="M5.504 4.001c-.935 0-1.597.437-1.996 1.13-.376.653-.504 1.507-.504 2.37 0 .863.128 1.717.504 2.37.399.693 1.061 1.13 1.996 1.13S7.1 10.564 7.5 9.871c.376-.653.504-1.507.504-2.37 0-.863-.128-1.717-.504-2.37C7.1 4.437 6.439 4 5.504 4Zm-1.5 3.5c0-.794.122-1.44.37-1.872.227-.393.565-.628 1.13-.628s.903.235 1.13.628c.248.432.37 1.079.37 1.872 0 .793-.122 1.44-.37 1.872-.227.393-.565.628-1.13.628s-.903-.235-1.13-.628c-.248-.432-.37-1.079-.37-1.872ZM11.736 4.06a.5.5 0 0 1 .264.441v6a.5.5 0 0 1-1 0V5.435l-.723.482a.5.5 0 1 1-.554-.832l1.5-1a.5.5 0 0 1 .513-.025Z"/></svg>