<svg xmlns="http://www.w3.org/2000/svg" width="32" height="32" fill="currentColor"><path fill="url(#icon-ff7b81c5a7aa8bc8__icon-fb15974a6fe38407__a)" d="M16.927 29.88a1.74 1.74 0 0 1-1.588-.175c-.805-.532-1.267-1.75-.728-2.554l6.81-10.127 6.255 7.02a1.163 1.163 0 0 1-.098 1.644c-.098.091-.21.16-.329.21L16.927 29.88Z"/><path fill="url(#icon-3720d61fb04ca697__icon-6323ff237789a38e__b)" d="M11.44 17.76 4.814 7.787a1.127 1.127 0 0 1-.175-.608 1.17 1.17 0 0 1 1.17-1.17c.16 0 .377-.027.517.029l10.777 5.066-.616 1.225-5.046 5.43Z"/><path fill="url(#icon-84b5546922eda542__icon-96970fdddf07eff4__c)" d="M15.681 29.887a1.765 1.765 0 0 1-.342-.175 1.755 1.755 0 0 1-.49-2.428l12.946-19.49a1.164 1.164 0 0 0-.546-1.687L16.927 2.127a1.7 1.7 0 0 0-.623-.12c-.217 0-.427.043-.623.113L5.36 6.1c.14-.056.294-.091.455-.091.161 0 .308.035.448.09l8.146 3.927c.595.308 1.014.881 1.014 1.588 0 .441-.16.84-.433 1.148l-10.05 11.28a1.164 1.164 0 0 0 .098 1.645c.098.091.21.161.33.21l10.321 3.982"/><path fill="url(#icon-9a1e9cda0c6074d0__icon-b4455e6af3cdf8f2__d)" d="m6.283 6.1 8.146 3.927c.483.245.84.671.966 1.196l12.575-4.22a1.16 1.16 0 0 0-.693-.902L16.955 2.119A1.7 1.7 0 0 0 16.332 2c-.217 0-.427.042-.623.112L5.388 6.094c.14-.056.294-.091.455-.091.161 0 .308.035.448.09l-.007.008Z"/><defs><linearGradient id="icon-ff7b81c5a7aa8bc8__icon-fb15974a6fe38407__a" x1="16.529" x2="24.331" y1="21.825" y2="28.375" gradientUnits="userSpaceOnUse"><stop stop-color="#292941"/><stop offset=".22" stop-color="#114A85"/><stop offset=".44" stop-color="#0A5BA0"/><stop offset=".65" stop-color="#0669B6"/></linearGradient><linearGradient id="icon-3720d61fb04ca697__icon-6323ff237789a38e__b" x1="7.41" x2="14.898" y1="4.638" y2="15.338" gradientUnits="userSpaceOnUse"><stop offset=".22" stop-color="#114A85"/><stop offset=".85" stop-color="#0669B6"/></linearGradient><linearGradient id="icon-84b5546922eda542__icon-96970fdddf07eff4__c" x1="16.304" x2="16.304" y1="29.887" y2="2.007" gradientUnits="userSpaceOnUse"><stop offset=".1" stop-color="#288CD9"/><stop offset=".75" stop-color="#3CC5EE"/></linearGradient><linearGradient id="icon-9a1e9cda0c6074d0__icon-b4455e6af3cdf8f2__d" x1="15.5" x2="17.76" y1="2.168" y2="10.587" gradientUnits="userSpaceOnUse"><stop stop-color="#A1ECFF" stop-opacity=".9"/><stop offset=".92" stop-color="#A1ECFF" stop-opacity="0"/></linearGradient></defs></svg>