<svg xmlns="http://www.w3.org/2000/svg" width="16" height="16" fill="currentColor"><path d="M8.286 10.832a.75.75 0 0 0 .475.169h3.5a.75.75 0 1 0 0-1.5h-2.5a2.382 2.382 0 0 1 1.163-.839l.013-.004.012-.006c1.005-.454 1.535-1 1.804-1.542.265-.533.26-1.034.258-1.354v-.014A2.329 2.329 0 0 0 10.546 3.5a2.45 2.45 0 0 0-2.362 1.468l-.004.01a.75.75 0 0 0 1.396.55.982.982 0 0 1 .951-.528l.018.001h.017a.9.9 0 0 1 .949.842c.002.236-.001.44-.128.657-.129.221-.41.493-1.053.782-1.298.586-1.894 1.322-2.152 1.95-.256.623-.166 1.107-.153 1.169a.75.75 0 0 0 .26.43ZM3.488 5.652l-.34.227a.75.75 0 0 1-.832-1.248l.006-.005 1.5-1a.75.75 0 0 1 1.166.624v6a.75.75 0 1 1-1.5 0V5.653ZM7 10.5a.5.5 0 1 1-1 0 .5.5 0 0 1 1 0Z"/></svg>