<svg xmlns="http://www.w3.org/2000/svg" width="16" height="16" fill="currentColor"><path fill-rule="evenodd" d="M13.83 4.794c.644 0 1.165.521 1.165 1.165v.014L15 5.956v4.084c0 .644-.521 1.166-1.165 1.166h-.483a4.083 4.083 0 0 0-3.901 2.883l-.154.497A.585.585 0 0 1 8.74 15H5.052a.478.478 0 0 1-.473-.546 8.557 8.557 0 0 1 1.799-4.119H1.584A.585.585 0 0 1 1 9.749v-3.5c0-.321.262-.584.584-.584h4.75A8.691 8.691 0 0 1 4.58 1.553.485.485 0 0 1 5.06 1h3.677c.255 0 .48.168.556.413l.154.497a4.083 4.083 0 0 0 3.902 2.884h.482ZM7.25 6.665H2v2.669h9.665v-.452A8.71 8.71 0 0 1 7.25 6.665Zm6.745-.706v2.06l-.063-.001h-.724A7.718 7.718 0 0 1 5.678 2h2.75l.063.205a5.083 5.083 0 0 0 4.857 3.589h.482c.092 0 .165.073.165.165Z" clip-rule="evenodd"/></svg>