<svg xmlns="http://www.w3.org/2000/svg" width="20" height="20" fill="currentColor"><path fill="url(#icon-ffc9562cb866ae23__icon-ebc696acf76c6b77__a)" d="M15.997 17.483c1.103 0 1.999-.894 1.999-1.996V7.7a.657.657 0 0 0-.312-.563c-1.576-.974-5.487-3.386-7.342-4.531a.675.675 0 0 0-.696.012c-1.86 1.15-5.75 3.55-7.326 4.52a.668.668 0 0 0-.316.566v7.787c0 1.102.896 1.996 2 1.996H16l-.004-.004Z"/><path fill="url(#icon-c7a0381285d20066__icon-caeade2c0a68a5e9__b)" d="M2 11.018v4.468c0 1.102.896 1.996 2 1.996h11.996c1.104 0 2-.894 2-1.996v-4.468H2Z"/><path fill="url(#icon-4a5b815e4868f939__icon-b7c52f8da8cbe623__c)" d="M4 17.482c-1.104 0-2-.894-2-1.996V10.83c0-.244.132-.455.324-.57l5.323-3.287a.669.669 0 0 1 .703 0l5.323 3.286a.659.659 0 0 1 .324.571v4.656c0 1.102.896 1.996 2 1.996H3.998Z"/><path fill="url(#icon-45c23b2312352f17__icon-8743ca79cb54e15c__d)" d="M4 17.482c-1.104 0-2-.894-2-1.996V10.83c0-.244.132-.455.324-.57l5.323-3.287a.669.669 0 0 1 .703 0l5.323 3.286a.659.659 0 0 1 .324.571v4.656c0 1.102.896 1.996 2 1.996H3.998Z"/><path fill="url(#icon-1030d78d20787d63__icon-696094271d461186__e)" d="M13.997 15.486v-4.468H2v4.468c0 1.102.896 1.996 2 1.996h11.996c-1.103 0-2-.894-2-1.996Z"/><path fill="url(#icon-30dba7498f716bbd__icon-c4e2a3b5c9d96745__f)" d="M4 17.483c-1.104 0-2-.894-2-1.996V13.96c0-.24.128-.447.316-.566l3.331-2.057a.668.668 0 0 1 .704 0s1.815 1.122 3.327 2.053c.192.115.32.327.32.566v1.53c0 1.102.896 1.996 2 1.996H3.998Z"/><path fill="url(#icon-27b9f5b3a8ade709__icon-b5fa199706bac00c__g)" d="M10.33 16.589a1.985 1.985 0 0 1-.332-1.098v-1.53a.662.662 0 0 0-.32-.567c-1.512-.93-3.327-2.052-3.327-2.052a.668.668 0 0 0-.704 0l-3.331 2.056a.668.668 0 0 0-.316.567v1.526c0 .407.124.786.332 1.102h7.998v-.004Z"/><defs><linearGradient id="icon-ffc9562cb866ae23__icon-ebc696acf76c6b77__a" x1="9.998" x2="9.998" y1="17.483" y2="2.51" gradientUnits="userSpaceOnUse"><stop stop-color="#114A85"/><stop offset=".67" stop-color="#028EDB"/></linearGradient><linearGradient id="icon-c7a0381285d20066__icon-caeade2c0a68a5e9__b" x1="9.998" x2="9.998" y1="18.169" y2="11.704" gradientUnits="userSpaceOnUse"><stop stop-opacity=".2"/><stop offset=".55" stop-opacity="0"/></linearGradient><linearGradient id="icon-4a5b815e4868f939__icon-b7c52f8da8cbe623__c" x1="8.998" x2="8.998" y1="17.482" y2="6.873" gradientUnits="userSpaceOnUse"><stop offset=".31" stop-color="#0094E5"/><stop offset="1" stop-color="#40D8F9"/></linearGradient><linearGradient id="icon-1030d78d20787d63__icon-696094271d461186__e" x1="8.998" x2="8.998" y1="17.482" y2="11.018" gradientUnits="userSpaceOnUse"><stop offset=".09" stop-opacity=".2"/><stop offset=".55" stop-opacity="0"/></linearGradient><linearGradient id="icon-30dba7498f716bbd__icon-c4e2a3b5c9d96745__f" x1="6.999" x2="6.999" y1="17.487" y2="11.238" gradientUnits="userSpaceOnUse"><stop stop-color="#3CC5EE"/><stop offset="1" stop-color="#50E0FF"/></linearGradient><linearGradient id="icon-27b9f5b3a8ade709__icon-b5fa199706bac00c__g" x1="6.163" x2="6.163" y1="15.626" y2="10.276" gradientUnits="userSpaceOnUse"><stop stop-color="#A1ECFF" stop-opacity="0"/><stop offset=".9" stop-color="#A1ECFF" stop-opacity=".9"/></linearGradient><radialGradient id="icon-45c23b2312352f17__icon-8743ca79cb54e15c__d" cx="0" cy="0" r="1" gradientTransform="matrix(5.87449 0 0 5.8656 6.31 16.1)" gradientUnits="userSpaceOnUse"><stop stop-opacity=".3"/><stop offset="1" stop-opacity="0"/></radialGradient></defs></svg>