<svg xmlns="http://www.w3.org/2000/svg" width="16" height="16" fill="currentColor"><path d="M10.763 5.06a1.107 1.107 0 0 0-.43-.057.498.498 0 0 1-.065 0 1.215 1.215 0 0 0-1.184.709.5.5 0 0 1-.91-.415A2.215 2.215 0 0 1 10.3 4.004a2.107 2.107 0 0 1 2.184 1.734.5.5 0 0 1 .029.17v.075c.004.25.01.692-.215 1.156-.257.528-.77 1.02-1.7 1.442-.992.448-1.359.94-1.499 1.255l-.03.071h2.944a.5.5 0 0 1 0 1h-3.5a.5.5 0 0 1-.489-.395v-.003l-.001-.004-.002-.01a.888.888 0 0 1-.014-.1 1.617 1.617 0 0 1-.003-.234c.01-.191.054-.446.182-.732.26-.583.833-1.232 2-1.76.79-.357 1.088-.712 1.212-.967.112-.23.116-.435.115-.674a1.105 1.105 0 0 0-.75-.969ZM4.736 4.06A.5.5 0 0 1 5 4.501v6a.5.5 0 0 1-1 0V5.435l-.723.482a.5.5 0 1 1-.554-.832l1.5-1a.5.5 0 0 1 .513-.025ZM7 10.5a.5.5 0 1 1-1 0 .5.5 0 0 1 1 0Z"/></svg>