<svg xmlns="http://www.w3.org/2000/svg" width="28" height="28" fill="currentColor"><path fill="url(#icon-be63f4972f467879__icon-650f6fe4d02a8762__a)" d="M23.002 25.228a3 3 0 0 0 3-2.996V10.549a.986.986 0 0 0-.468-.845c-2.364-1.462-8.233-5.081-11.017-6.8a.986.986 0 0 0-.51-.138c-.198 0-.378.06-.534.155-2.79 1.726-8.629 5.327-10.993 6.783a1.002 1.002 0 0 0-.474.85v11.684a3 3 0 0 0 3 2.996h18.002l-.006-.006Z"/><path fill="url(#icon-cade7af1148af5cd__icon-9c8bda537c1642d0__b)" d="M2 15.527v6.705a3 3 0 0 0 3 2.995h18.002a3 3 0 0 0 3-2.995v-6.705H2Z"/><path fill="url(#icon-1fda81614ebe1a7e__icon-af6b3bd25aac1e7d__c)" d="M5 25.228a3 3 0 0 1-3-2.996v-6.986c0-.365.198-.683.486-.857l7.987-4.93a1.004 1.004 0 0 1 1.056 0l7.987 4.93a.989.989 0 0 1 .486.857v6.986a3 3 0 0 0 3 2.996H5Z"/><path fill="url(#icon-dee12f55f556d8f7__icon-f701a1a3e3775c44__d)" d="M5 25.228a3 3 0 0 1-3-2.996v-6.986c0-.365.198-.683.486-.857l7.987-4.93a1.004 1.004 0 0 1 1.056 0l7.987 4.93a.989.989 0 0 1 .486.857v6.986a3 3 0 0 0 3 2.996H5Z"/><path fill="url(#icon-5b7905b9a7e150ed__icon-90f4497ae37c735e__e)" d="M20.002 22.232v-6.705H2v6.705a3 3 0 0 0 3 2.995h18.002a3 3 0 0 1-3-2.995Z"/><path fill="url(#icon-36064bdf57d43516__icon-08ba18cf13eb3c46__f)" d="M5 25.228a3 3 0 0 1-3-2.996v-2.288c0-.36.192-.671.474-.851l4.999-3.086a1.004 1.004 0 0 1 1.056 0s2.724 1.684 4.992 3.08c.288.174.48.491.48.85v2.295a3 3 0 0 0 3 2.996h-12Z"/><path fill="url(#icon-9bb5fde25e2916a4__icon-b720ec8efe0ee2ae__g)" d="M14.5 23.886A2.98 2.98 0 0 1 14 22.238v-2.294a.994.994 0 0 0-.48-.851c-2.268-1.396-4.992-3.08-4.992-3.08a1.003 1.003 0 0 0-1.056 0L2.474 19.1a1.002 1.002 0 0 0-.474.85v2.29a3 3 0 0 0 .498 1.653h12.001v-.006Z"/><defs><linearGradient id="icon-be63f4972f467879__icon-650f6fe4d02a8762__a" x1="14.001" x2="14.001" y1="25.228" y2="2.76" gradientUnits="userSpaceOnUse"><stop stop-color="#114A85"/><stop offset=".67" stop-color="#028EDB"/></linearGradient><linearGradient id="icon-cade7af1148af5cd__icon-9c8bda537c1642d0__b" x1="14.001" x2="14.001" y1="26.258" y2="16.558" gradientUnits="userSpaceOnUse"><stop stop-opacity=".2"/><stop offset=".55" stop-opacity="0"/></linearGradient><linearGradient id="icon-1fda81614ebe1a7e__icon-af6b3bd25aac1e7d__c" x1="12.501" x2="12.501" y1="25.228" y2="9.309" gradientUnits="userSpaceOnUse"><stop offset=".31" stop-color="#0094E5"/><stop offset="1" stop-color="#40D8F9"/></linearGradient><linearGradient id="icon-5b7905b9a7e150ed__icon-90f4497ae37c735e__e" x1="12.501" x2="12.501" y1="25.227" y2="15.527" gradientUnits="userSpaceOnUse"><stop offset=".09" stop-opacity=".2"/><stop offset=".55" stop-opacity="0"/></linearGradient><linearGradient id="icon-36064bdf57d43516__icon-08ba18cf13eb3c46__f" x1="9.501" x2="9.501" y1="25.234" y2="15.857" gradientUnits="userSpaceOnUse"><stop stop-color="#3CC5EE"/><stop offset="1" stop-color="#50E0FF"/></linearGradient><linearGradient id="icon-9bb5fde25e2916a4__icon-b720ec8efe0ee2ae__g" x1="8.247" x2="8.247" y1="22.442" y2="14.413" gradientUnits="userSpaceOnUse"><stop stop-color="#A1ECFF" stop-opacity="0"/><stop offset=".9" stop-color="#A1ECFF" stop-opacity=".9"/></linearGradient><radialGradient id="icon-dee12f55f556d8f7__icon-f701a1a3e3775c44__d" cx="0" cy="0" r="1" gradientTransform="matrix(8.81488 0 0 8.80154 8.469 23.155)" gradientUnits="userSpaceOnUse"><stop stop-opacity=".3"/><stop offset="1" stop-opacity="0"/></radialGradient></defs></svg>