<svg xmlns="http://www.w3.org/2000/svg" width="20" height="20" fill="currentColor"><path d="M7.485 2.868c-1.05.479-2.388 1.421-2.48 2.963C2.672 5.42 1 4.308 1 3c0-1.657 2.686-3 6-3 2.618 0 4.845.838 5.664 2.007C12.444 2 12.222 1.996 12 2a11.177 11.177 0 0 0-4.484.854L7.5 2.86l-.015.007ZM2.31 6.016c.766.383 1.685.666 2.69.828v2.222a2.485 2.485 0 0 0-1 0V8.5a2.5 2.5 0 0 0-3-2.45v-.93c.383.363.84.662 1.31.896ZM8.268 15.284l-1.329 1.329c.881.69 2.31 1.187 3.982 1.34l.777-.778c-.199-.1-.299-.2-.398-.3-.6-.6-.6-1.5 0-2.1l.7-.7c.05-.05.125-.1.2-.15.041-.027.083-.055.12-.082l.02-.126-.04-.041c-.2-.2-.4-.5-.4-.8-.1-.3 0-.6.1-.9.1-.3.3-.5.6-.7.3-.2.5-.3.8-.3H18V8.12c-.383.362-.84.66-1.31.895-1.252.626-2.912.985-4.69.985-1.778 0-3.438-.359-4.69-.985A5.478 5.478 0 0 1 6 8.121v1.394c.095.071.184.149.268.233l2 2a2.5 2.5 0 0 1 0 3.536Z"/><path d="M12 9c3.314 0 6-1.343 6-3 0-1.656-2.686-3-6-3S6 4.344 6 6c0 1.657 2.686 3 6 3ZM4.854 15.87a.5.5 0 0 1-.708-.708L5.3 14.016a4.5 4.5 0 0 1-4.3-4.5V8.5a.5.5 0 1 1 1 0v1.016a3.5 3.5 0 0 0 3.286 3.494l-1.14-1.14a.5.5 0 0 1 .708-.708l2 2a.5.5 0 0 1 0 .708l-2 2ZM13.484 12.004h5a.5.5 0 0 1 .5.5v5a.5.5 0 0 1-.853.354l-5-5a.5.5 0 0 1 .353-.854ZM13.54 14.658a.5.5 0 0 1 0 .707l-.706.707a.5.5 0 1 1-.708-.707l.708-.707a.5.5 0 0 1 .707 0ZM16.37 17.486a.5.5 0 0 1 0 .707l-.708.707a.5.5 0 1 1-.707-.707l.707-.707a.5.5 0 0 1 .707 0ZM14.955 16.072a.5.5 0 0 1 0 .707L12.834 18.9a.5.5 0 1 1-.708-.707l2.122-2.121a.5.5 0 0 1 .707 0Z"/></svg>