<svg xmlns="http://www.w3.org/2000/svg" width="16" height="16" fill="currentColor"><path fill="url(#icon-514a6c54a6441343__icon-9cc16d0d20dd88fc__a)" d="M8.311 14.94a.87.87 0 0 1-.794-.087c-.402-.266-.633-.875-.364-1.277l3.405-5.063 3.128 3.51a.582.582 0 0 1-.214.926l-5.16 1.991Z"/><path fill="url(#icon-32823cc7451af951__icon-d59a6419af94b232__b)" d="M5.568 8.88 2.254 3.892a.585.585 0 0 1 .497-.889c.08 0 .19-.014.26.014l5.388 2.534-.308.612-2.523 2.715Z"/><path fill="url(#icon-062c2130b1470ff7__icon-ce218e67d2d8d1f5__c)" d="M7.689 14.944a.878.878 0 0 1-.416-1.302l6.472-9.744a.582.582 0 0 0-.273-.843l-5.16-1.992A.85.85 0 0 0 8 1.003a.926.926 0 0 0-.311.057L2.528 3.05a.595.595 0 0 1 .451 0l4.073 1.964c.297.154.507.44.507.794 0 .22-.08.42-.217.574l-5.024 5.64a.582.582 0 0 0 .213.928l5.161 1.99"/><path fill="url(#icon-0b4ba1e726a38d4f__icon-3e057646a095d75d__d)" d="m2.99 3.05 4.072 1.963c.242.123.42.336.483.599l6.288-2.11a.58.58 0 0 0-.347-.452l-5.16-1.99A.85.85 0 0 0 8.013 1a.926.926 0 0 0-.312.056l-5.16 1.99a.595.595 0 0 1 .451 0l-.004.004Z"/><defs><linearGradient id="icon-514a6c54a6441343__icon-9cc16d0d20dd88fc__a" x1="8.112" x2="12.013" y1="10.913" y2="14.188" gradientUnits="userSpaceOnUse"><stop stop-color="#292941"/><stop offset=".22" stop-color="#114A85"/><stop offset=".44" stop-color="#0A5BA0"/><stop offset=".65" stop-color="#0669B6"/></linearGradient><linearGradient id="icon-32823cc7451af951__icon-d59a6419af94b232__b" x1="3.553" x2="7.296" y1="2.319" y2="7.669" gradientUnits="userSpaceOnUse"><stop offset=".22" stop-color="#114A85"/><stop offset=".85" stop-color="#0669B6"/></linearGradient><linearGradient id="icon-062c2130b1470ff7__icon-ce218e67d2d8d1f5__c" x1="8" x2="8" y1="14.944" y2="1.004" gradientUnits="userSpaceOnUse"><stop offset=".1" stop-color="#288CD9"/><stop offset=".75" stop-color="#3CC5EE"/></linearGradient><linearGradient id="icon-0b4ba1e726a38d4f__icon-3e057646a095d75d__d" x1="7.598" x2="8.728" y1="1.084" y2="5.293" gradientUnits="userSpaceOnUse"><stop stop-color="#A1ECFF" stop-opacity=".9"/><stop offset=".92" stop-color="#A1ECFF" stop-opacity="0"/></linearGradient></defs></svg>