<svg xmlns="http://www.w3.org/2000/svg" width="32" height="32" fill="currentColor"><path fill-rule="evenodd" d="M2.007 17.33c.04-.373.258-.69.56-.873l9.318-5.753a1.17 1.17 0 0 1 1.233 0l9.318 5.753c.343.203.567.573.567 1v9.258H23c0 .88.253 1.701.69 2.395h-2.598v-.008h-1.597a1.5 1.5 0 0 1-1.493-1.495V22.93a3.16 3.16 0 0 0-1.517-2.7c-1.321-.812-5.807-3.581-5.807-3.581a3.17 3.17 0 0 0-3.34-.009l-5.331 3.291V17.33Zm0 5.48v2.804c0 .942.373 1.796.98 2.425l.003.003a3.489 3.489 0 0 0 2.51 1.06h10.838a3.475 3.475 0 0 1-.336-1.495V22.93c0-.42-.224-.79-.56-.993-2.646-1.629-5.825-3.593-5.825-3.593a1.17 1.17 0 0 0-1.232 0l-5.832 3.6c-.295.189-.506.501-.546.867Zm27.997 3.905V11.976c0-.42-.217-.783-.546-.986C27.47 9.764 17.92 3.87 16.604 3.056a1.15 1.15 0 0 0-.595-.16c-.231 0-.441.07-.623.181A11348.79 11348.79 0 0 1 2.56 10.99a1.169 1.169 0 0 0-.553.993v2.47L10.838 9a3.17 3.17 0 0 1 3.34.008l9.296 5.74a3.153 3.153 0 0 1 1.529 2.708v9.38a2.498 2.498 0 0 0 4.993-.121h.008Z" clip-rule="evenodd"/></svg>