<svg xmlns="http://www.w3.org/2000/svg" width="24" height="24" fill="currentColor"><path d="M12 10c4.418 0 8-1.79 8-4 0-2.209-3.582-4-8-4S4 3.791 4 6c0 2.21 3.582 4 8 4Z"/><path d="M18.328 10.17A7.61 7.61 0 0 0 20 9.055v5.842a2.005 2.005 0 0 0-.839.64A3.388 3.388 0 0 0 17 14.75c-.848 0-1.627.319-2.23.843a3.574 3.574 0 0 0-1.132-.65 3.697 3.697 0 0 0-1.149-.187 3.727 3.727 0 0 0-.579.012 3.477 3.477 0 0 0-.723.14c-.42.135-.799.357-1.12.644a3.2 3.2 0 0 0-.753 1.01c-.18.379-.284.786-.31 1.2L9 17.825v.064c0 .67.212 1.206.5 1.621l-.002.004a2 2 0 0 0-.275 2.238C6.173 21.188 4 19.72 4 18V9.054a7.61 7.61 0 0 0 1.672 1.117C7.37 11.019 9.608 11.5 12 11.5c2.392 0 4.63-.482 6.328-1.33ZM21.5 16.75a.75.75 0 0 0-1.5 0v4.5c0 .415.336.75.75.75H23a.75.75 0 0 0 0-1.5h-1.5v-3.75Z"/><path d="M13.234 16.127a2.492 2.492 0 0 0-.797-.12 2.425 2.425 0 0 0-.41.006 2.25 2.25 0 0 0-.457.086c-.248.08-.475.212-.668.385a1.95 1.95 0 0 0-.459.616c-.11.233-.175.485-.191.742l-.002.024v.024c0 .714.423 1.167.81 1.42.35.23.746.35.945.41l.085.025c.218.066.377.114.505.198.058.038.08.066.09.082.006.01.021.036.021.105 0 .186-.057.247-.088.273-.048.04-.16.098-.368.098-.34 0-.587-.082-.755-.23a.75.75 0 1 0-.99 1.127c.533.469 1.185.602 1.745.602.464 0 .954-.125 1.342-.456.405-.346.614-.845.614-1.414 0-.71-.379-1.173-.788-1.441-.325-.213-.701-.324-.892-.38a9.084 9.084 0 0 1-.058-.017c-.22-.067-.429-.133-.586-.236a.401.401 0 0 1-.117-.104.084.084 0 0 1-.014-.042.532.532 0 0 1 .047-.166.45.45 0 0 1 .105-.143.355.355 0 0 1 .124-.073 1.373 1.373 0 0 1 .282-.027h.002l.042.005h.045c.19 0 .286.018.351.04a.86.86 0 0 1 .272.17.75.75 0 0 0 .958-1.154 2.335 2.335 0 0 0-.745-.435ZM17 16a2.17 2.17 0 0 0-1.621.747 2.55 2.55 0 0 0-.629 1.691v1.125c0 .62.218 1.23.629 1.692A2.17 2.17 0 0 0 17 22c.373 0 .73-.1 1.046-.278l.254.191a.75.75 0 0 0 .9-1.2l-.16-.12c.138-.323.21-.675.21-1.03v-1.125c0-.62-.218-1.23-.629-1.691A2.17 2.17 0 0 0 17 16Zm.45 3.4a.75.75 0 0 0-1.174.405 1.138 1.138 0 0 1-.026-.242v-1.125c0-.275.098-.524.25-.695a.672.672 0 0 1 .5-.242c.169 0 .35.074.5.242.152.17.25.42.25.695v1.125c0 .02 0 .041-.002.061l-.298-.223Z"/></svg>