<svg xmlns="http://www.w3.org/2000/svg" width="16" height="16" fill="currentColor"><g clip-path="url(#icon-733739a05fb50c8f__icon-88fc69a5bfd8ccb0__a)"><path d="M2 3.501a1.5 1.5 0 1 1 3 0v9a1.5 1.5 0 0 1-3 0v-9Zm1.5-.5a.5.5 0 0 0-.5.5v9a.5.5 0 0 0 1 0v-9a.5.5 0 0 0-.5-.5ZM6 6.501a1.5 1.5 0 1 1 3 0v.1a5.507 5.507 0 0 0-1 .657v-.757a.5.5 0 1 0-1 0v1.837c-.63.895-1 1.986-1 3.163v-5ZM6 11.566v-.065.065Z"/><path d="M7 11.501a4.5 4.5 0 1 0 9 0 4.5 4.5 0 0 0-9 0Zm1 0a3.5 3.5 0 0 1 5.596-2.803l-4.9 4.9A3.485 3.485 0 0 1 8 11.5Zm3.5 3.5c-.786 0-1.512-.26-2.096-.697l4.9-4.9A3.5 3.5 0 0 1 11.5 15Z"/></g><defs><clipPath id="icon-733739a05fb50c8f__icon-88fc69a5bfd8ccb0__a"><path d="M0 0h16v16H0z"/></clipPath></defs></svg>