<svg xmlns="http://www.w3.org/2000/svg" width="20" height="20" fill="currentColor"><path fill-rule="evenodd" d="M9.726 17.967c.191.054.393.043.575-.028l5.718-2.45a.633.633 0 0 0 .225-.996L13.74 11.63l3.14-4.959.003-.006c.16-.255.243-.551.243-.854 0-.655-.39-1.246-.987-1.497l-.025-.01-5.51-1.972a1.861 1.861 0 0 0-1.339-.008l-5.25 1.88a1 1 0 0 0-.566 1.37c.012.03.055.1.043.084l3.193 4.703-2.908 2.93-.023.026a1.633 1.633 0 0 0 .59 2.564l5.383 2.087Zm-2.47-6.764 2.401-2.419a.93.93 0 0 0 .226-.613.954.954 0 0 0-.502-.834L4.35 5.144l5.253-1.881a.94.94 0 0 1 .324-.06c.113 0 .222.023.324.064l5.498 1.968a.622.622 0 0 1 .375.575c0 .12-.033.232-.091.325l-2.982 4.71-3.732 5.894-.312-.122-4.275-1.658a.633.633 0 0 1-.222-.99l2.745-2.766Z" clip-rule="evenodd"/></svg>