<svg xmlns="http://www.w3.org/2000/svg" width="48" height="48" fill="currentColor"><path fill="url(#icon-ab203422f44e683f__icon-80b887da7e5fe784__a)" d="M5 10a5 5 0 0 1 5-5h28a5 5 0 0 1 5 5v28a5 5 0 0 1-5 5H10a5 5 0 0 1-5-5V10Z"/><path fill="url(#icon-b8b8af155d978963__icon-b8a70d0da1a71907__b)" fill-opacity=".2" d="M5 10a5 5 0 0 1 5-5h28a5 5 0 0 1 5 5v28a5 5 0 0 1-5 5H10a5 5 0 0 1-5-5V10Z"/><path fill="url(#icon-cb8c87230dee827e__icon-7d27a5e0137da3be__c)" fill-rule="evenodd" d="M38 6H10a4 4 0 0 0-4 4v28a4 4 0 0 0 4 4h28a4 4 0 0 0 4-4V10a4 4 0 0 0-4-4ZM10 5a5 5 0 0 0-5 5v28a5 5 0 0 0 5 5h28a5 5 0 0 0 5-5V10a5 5 0 0 0-5-5H10Z" clip-rule="evenodd"/><path fill="url(#icon-2cca95b8e1c151bc__icon-5b0d0c40742ab252__d)" d="M20.25 20.92A3.501 3.501 0 0 0 19.5 14a3.5 3.5 0 0 0-.75 6.92v6.16A3.501 3.501 0 0 0 19.5 34a3.5 3.5 0 0 0 .75-6.92V24.79h5.25a4.752 4.752 0 0 0 4.665-3.852 3.501 3.501 0 1 0-1.528-.044 3.251 3.251 0 0 1-3.137 2.396h-5.25v-2.37Z"/><defs><linearGradient id="icon-ab203422f44e683f__icon-80b887da7e5fe784__a" x1="15.556" x2="20.362" y1="5" y2="43.455" gradientUnits="userSpaceOnUse"><stop stop-color="#fff"/><stop offset="1" stop-color="#EBEBEB"/></linearGradient><linearGradient id="icon-cb8c87230dee827e__icon-7d27a5e0137da3be__c" x1="17.271" x2="22.387" y1="5" y2="43.373" gradientUnits="userSpaceOnUse"><stop stop-color="#BBB"/><stop offset="1" stop-color="#888"/></linearGradient><linearGradient id="icon-2cca95b8e1c151bc__icon-5b0d0c40742ab252__d" x1="16" x2="35.739" y1="14" y2="30.778" gradientUnits="userSpaceOnUse"><stop stop-color="#4BA446"/><stop offset="1" stop-color="#3F7D35"/></linearGradient><radialGradient id="icon-b8b8af155d978963__icon-b8a70d0da1a71907__b" cx="0" cy="0" r="1" gradientTransform="rotate(56.31 -5.347 23.46) scale(36.1557 31.2886)" gradientUnits="userSpaceOnUse"><stop offset=".177" stop-color="#fff"/><stop offset="1" stop-color="#B8B8B8"/></radialGradient></defs></svg>