<svg xmlns="http://www.w3.org/2000/svg" width="16" height="16" fill="currentColor"><path d="M5.75 4.001c-1.027 0-1.77.487-2.212 1.254C3.129 5.965 3 6.87 3 7.751c0 .88.129 1.786.538 2.495.441.768 1.185 1.255 2.212 1.255 1.027 0 1.77-.487 2.213-1.255.408-.71.537-1.614.537-2.495 0-.88-.129-1.786-.537-2.496-.442-.767-1.186-1.254-2.213-1.254ZM4.5 7.751c0-.776.121-1.371.338-1.747.183-.319.44-.503.912-.503.473 0 .73.184.912.503.217.376.338.97.338 1.747 0 .776-.121 1.371-.338 1.747-.183.319-.44.503-.912.503-.473 0-.73-.184-.912-.503-.217-.376-.338-.97-.338-1.747ZM10.647 6.379l.34-.227v4.599a.75.75 0 1 0 1.5 0v-6a.75.75 0 0 0-1.165-.624l-1.5 1-.006.004a.75.75 0 0 0 .831 1.248Z"/></svg>