<svg xmlns="http://www.w3.org/2000/svg" width="16" height="16" fill="currentColor"><g clip-path="url(#icon-bf01be8b65fd8873__icon-b051d3652298a95d__a)"><path d="M8.503 3.499a2.5 2.5 0 0 0-2.5 2.5.75.75 0 1 0 1.5 0 1 1 0 1 1 2 0c0 .015 0 .03.002.046v.003a1.19 1.19 0 0 1-.405.705l-1.56.902a2.84 2.84 0 0 0-1.536 2.619.75.75 0 0 0 .75.725h3.5a.75.75 0 0 0 0-1.5H7.686l.002-.003a1.34 1.34 0 0 1 .586-.533l1.627-.941a.75.75 0 0 0 .086-.058 2.691 2.691 0 0 0 1.015-1.795.755.755 0 0 0 .004-.137l-.004-.059a2.5 2.5 0 0 0-2.5-2.474ZM1.488 5.652l-.34.227A.75.75 0 0 1 .315 4.63l.006-.005 1.5-1a.75.75 0 0 1 1.166.624v6a.75.75 0 1 1-1.5 0V5.653ZM5 10.5a.5.5 0 1 1-1 0 .5.5 0 0 1 1 0ZM12.75 3.501h2.5a.75.75 0 1 1 0 1.5H13.5v1.5h1.25a.75.75 0 1 1 0 1.5H13.5v2.25a.75.75 0 1 1-1.5 0v-6a.75.75 0 0 1 .75-.75Z"/></g><defs><clipPath id="icon-bf01be8b65fd8873__icon-b051d3652298a95d__a"><path d="M0 0h16v16H0z"/></clipPath></defs></svg>