<svg xmlns="http://www.w3.org/2000/svg" width="16" height="16" fill="currentColor"><path d="M2 5.751a.75.75 0 1 0-1.5 0v3.5a2.75 2.75 0 1 0 5.5 0v-3.5a.75.75 0 1 0-1.5 0v3.5a1.25 1.25 0 1 1-2.5 0v-3.5ZM8.75 5.751a.75.75 0 1 0-1.5 0v5.5a.75.75 0 0 0 1.5 0v-5.5ZM10.844 5.001l-.047.001a.75.75 0 0 0-.797.749v5.5a.75.75 0 0 0 .797.748.728.728 0 0 0 .047.002h1.406a3.25 3.25 0 0 0 3.25-3.25v-.5a3.25 3.25 0 0 0-3.25-3.25h-1.406Zm.656 5.5v-4h.75c.966 0 1.75.783 1.75 1.75v.5a1.75 1.75 0 0 1-1.75 1.75h-.75Z"/></svg>