<svg xmlns="http://www.w3.org/2000/svg" width="24" height="24" fill="currentColor"><path fill="url(#icon-967d42023a4dcc7c__icon-a8d550ff1ca5139c__a)" d="M2 5a3 3 0 0 1 3-3h14a3 3 0 0 1 3 3v14a3 3 0 0 1-3 3H5a3 3 0 0 1-3-3V5Z"/><path fill="url(#icon-3cc3d1d1f2d26197__icon-a527c721ae670f19__b)" fill-opacity=".2" d="M2 5a3 3 0 0 1 3-3h14a3 3 0 0 1 3 3v14a3 3 0 0 1-3 3H5a3 3 0 0 1-3-3V5Z"/><path fill="url(#icon-9daca6c57f544585__icon-db9e6e1f16c2e19e__c)" fill-rule="evenodd" d="M19 3H5a2 2 0 0 0-2 2v14a2 2 0 0 0 2 2h14a2 2 0 0 0 2-2V5a2 2 0 0 0-2-2ZM5 2a3 3 0 0 0-3 3v14a3 3 0 0 0 3 3h14a3 3 0 0 0 3-3V5a3 3 0 0 0-3-3H5Z" clip-rule="evenodd"/><path fill="url(#icon-564be3612a41e980__icon-5f5ec98f3df499aa__d)" d="M9.5 9.937a2 2 0 1 0-1 0v4.126a2 2 0 1 0 1 0V12.5H13a2.5 2.5 0 0 0 2.5-2.5v-.071a2 2 0 1 0-1 .016V10a1.5 1.5 0 0 1-1.5 1.5H9.5V9.937Z"/><defs><linearGradient id="icon-967d42023a4dcc7c__icon-a8d550ff1ca5139c__a" x1="7.556" x2="10.085" y1="2" y2="22.239" gradientUnits="userSpaceOnUse"><stop stop-color="#fff"/><stop offset="1" stop-color="#EBEBEB"/></linearGradient><linearGradient id="icon-9daca6c57f544585__icon-db9e6e1f16c2e19e__c" x1="8.458" x2="11.151" y1="2" y2="22.197" gradientUnits="userSpaceOnUse"><stop stop-color="#BBB"/><stop offset="1" stop-color="#888"/></linearGradient><linearGradient id="icon-564be3612a41e980__icon-5f5ec98f3df499aa__d" x1="7" x2="18.797" y1="6" y2="15.8" gradientUnits="userSpaceOnUse"><stop stop-color="#4BA446"/><stop offset="1" stop-color="#3F7D35"/></linearGradient><radialGradient id="icon-3cc3d1d1f2d26197__icon-a527c721ae670f19__b" cx="0" cy="0" r="1" gradientTransform="rotate(56.31 -2.54 11.442) scale(19.0293 16.4677)" gradientUnits="userSpaceOnUse"><stop offset=".177" stop-color="#fff"/><stop offset="1" stop-color="#B8B8B8"/></radialGradient></defs></svg>