<svg xmlns="http://www.w3.org/2000/svg" width="20" height="20" fill="currentColor"><path d="M4 5.002c0-1.007.875-1.755 1.9-2.223a10.177 10.177 0 0 1 4.1-.777 10.177 10.177 0 0 1 4.1.777c1.025.468 1.9 1.216 1.9 2.223V9.21a5.479 5.479 0 0 0-1-.186V6.702c-.28.206-.582.382-.9.525a10.177 10.177 0 0 1-4.1.775 10.177 10.177 0 0 1-4.1-.777 4.923 4.923 0 0 1-.9-.523v8.3c0 .374.356.875 1.318 1.313A9.2 9.2 0 0 0 9.593 17c.184.359.405.695.66 1.003-.085 0-.169 0-.253-.002a10.177 10.177 0 0 1-4.1-.777C4.875 16.757 4 16.009 4 15.002v-10Zm1 0c0 .374.356.875 1.318 1.313A9.2 9.2 0 0 0 10 7.002a9.2 9.2 0 0 0 3.682-.687C14.644 5.877 15 5.375 15 5.002c0-.374-.356-.875-1.318-1.313A9.2 9.2 0 0 0 10 3.002a9.2 9.2 0 0 0-3.682.687C5.356 4.127 5 4.628 5 5.002Z"/><path d="M12 10.76a4.5 4.5 0 1 1 5 7.485 4.5 4.5 0 0 1-5-7.485Zm4.917 5.425a.5.5 0 0 0 .003-.863l-1.42-.82 1.406-.832a.5.5 0 0 0-.506-.863l-1.4.822v-1.627a.5.5 0 0 0-1 0v1.634l-1.411-.812a.5.5 0 0 0-.5.866l1.42.82-1.415.829a.498.498 0 0 0-.05.83.498.498 0 0 0 .556.033l1.4-.827v1.627a.5.5 0 0 0 1 0v-1.634l1.417.817a.495.495 0 0 0 .5 0Z"/></svg>