<svg xmlns="http://www.w3.org/2000/svg" width="32" height="32" fill="currentColor"><path d="M5 7a3 3 0 1 1 6 0v18a3 3 0 1 1-6 0V7Zm3-1a1 1 0 0 0-1 1v18a1 1 0 1 0 2 0V7a1 1 0 0 0-1-1ZM13 13a3 3 0 1 1 6 0v1.935c-.728.362-1.4.82-2 1.357V13a1 1 0 1 0-2 0v5.873c-.64 1.236-1 2.64-1 4.127 0 1.831.547 3.535 1.486 4.956A3 3 0 0 1 13 25V13Z"/><path d="M23 30.5a7.5 7.5 0 1 0 0-15 7.5 7.5 0 0 0 0 15Zm0-2a5.475 5.475 0 0 1-3.117-.968l7.649-7.65A5.5 5.5 0 0 1 23 28.5Zm3.118-10.032-7.65 7.65a5.5 5.5 0 0 1 7.65-7.65Z"/></svg>