<svg xmlns="http://www.w3.org/2000/svg" width="24" height="24" fill="currentColor"><path d="M6.25 3a2.25 2.25 0 0 1 2.248 2.25v13.5a2.25 2.25 0 1 1-4.498 0V5.25A2.25 2.25 0 0 1 6.25 3Zm0 1.5a.75.75 0 0 0-.75.75v13.5a.75.75 0 0 0 1.498 0V5.25a.75.75 0 0 0-.749-.75ZM12.75 7a2.25 2.25 0 0 1 2.248 2.25v2.483a6.517 6.517 0 0 0-1.5 1.078V9.25a.75.75 0 0 0-1.498 0v5.747a6.48 6.48 0 0 0-.5 2.504 6.47 6.47 0 0 0 1.014 3.488A2.25 2.25 0 0 1 10.5 18.75V9.249A2.25 2.25 0 0 1 12.75 7Z"/><path d="M23.5 17.5a5.5 5.5 0 1 1-11 0 5.5 5.5 0 0 1 11 0Zm-9.5 0c0 .834.255 1.608.691 2.248l5.557-5.557A4 4 0 0 0 14 17.5Zm4 4a4 4 0 0 0 3.309-6.248l-5.557 5.557c.64.436 1.414.691 2.248.691Z"/></svg>