<svg xmlns="http://www.w3.org/2000/svg" width="16" height="16" fill="currentColor"><path fill="url(#icon-836d2bed308d1dc4__icon-c886f5845ffbcddd__a)" d="M5.045 15a.478.478 0 0 1-.472-.546 8.576 8.576 0 0 1 8.478-7.329h.86c.587 0 1.016-.35 1.016-.938l.05-.23v4.084c0 .644-.521 1.165-1.164 1.165h-.482a4.077 4.077 0 0 0-3.895 2.884l-.154.497a.584.584 0 0 1-.555.413H5.045Z"/><path fill="url(#icon-b0e00ab02e2ccc71__icon-4ef2f6f54688c003__b)" d="M5.045 15a.478.478 0 0 1-.472-.546 8.576 8.576 0 0 1 8.478-7.329h.86c.587 0 1.016-.35 1.016-.938l.05-.23v4.084c0 .644-.521 1.165-1.164 1.165h-.482a4.077 4.077 0 0 0-3.895 2.884l-.154.497a.584.584 0 0 1-.555.413H5.045Z"/><path fill="url(#icon-3c6e678c3ad44b70__icon-53aace3795c3a160__c)" d="M1.583 10.335A.585.585 0 0 1 1 9.751v-3.5c0-.322.262-.585.583-.585h10.48c.321 0 .583.263.583.585v3.5a.585.585 0 0 1-.583.584H1.583Z"/><path fill="url(#icon-23e08e2376826918__icon-19bfd9a7b50c2fe9__d)" d="M1.583 10.335A.585.585 0 0 1 1 9.751v-3.5c0-.322.262-.585.583-.585h10.48c.321 0 .583.263.583.585v3.5a.585.585 0 0 1-.583.584H1.583Z"/><path fill="url(#icon-2ace7e3b037321fd__icon-3dae961a3327325d__e)" d="M5.052 1a.485.485 0 0 0-.479.553 8.708 8.708 0 0 0 8.615 7.466h.723c.587 0 1.062.476 1.062 1.064V5.96c0-.644-.52-1.166-1.164-1.166h-.482A4.077 4.077 0 0 1 9.432 1.91l-.153-.497A.584.584 0 0 0 8.723 1H5.052Z"/><path fill="url(#icon-20ca2a63d42fda04__icon-acbbc5df7b93a03e__f)" d="M13.81 4.79h-.483c-.828 0-1.61-.251-2.264-.692v4.655a8.704 8.704 0 0 0 2.128.266h.723c.587 0 1.062.476 1.062 1.064V5.96c0-.644-.52-1.166-1.163-1.166l-.004-.003Z" opacity=".4"/><path fill="url(#icon-fadabaf492d6060b__icon-967d18815d5d3962__g)" d="M5.08 1a.485.485 0 0 0-.478.553 8.708 8.708 0 0 0 8.614 7.466h.723c.587 0 1.062.476 1.062 1.064V5.96c0-.644-.52-1.166-1.163-1.166h-.482A4.077 4.077 0 0 1 9.46 1.91l-.154-.497A.584.584 0 0 0 8.752 1H5.08Z" opacity=".7"/><defs><linearGradient id="icon-836d2bed308d1dc4__icon-c886f5845ffbcddd__a" x1="5.391" x2="15.055" y1="15.686" y2="6.042" gradientUnits="userSpaceOnUse"><stop offset=".26" stop-color="#0D7012"/><stop offset="1" stop-color="#085714"/></linearGradient><linearGradient id="icon-b0e00ab02e2ccc71__icon-4ef2f6f54688c003__b" x1="19.695" x2="1.36" y1="8.739" y2="12.804" gradientUnits="userSpaceOnUse"><stop offset=".04" stop-color="#114A8A"/><stop offset="1" stop-color="#0C59A3" stop-opacity="0"/></linearGradient><linearGradient id="icon-3c6e678c3ad44b70__icon-53aace3795c3a160__c" x1="-6.301" x2="12.286" y1="8.001" y2="8.001" gradientUnits="userSpaceOnUse"><stop stop-color="#107C10"/><stop offset=".96" stop-color="#56B50E"/></linearGradient><linearGradient id="icon-2ace7e3b037321fd__icon-3dae961a3327325d__e" x1="15.64" x2="6.589" y1="12.781" y2="-.121" gradientUnits="userSpaceOnUse"><stop offset=".04" stop-color="#33980F"/><stop offset="1" stop-color="#BAE884"/></linearGradient><linearGradient id="icon-20ca2a63d42fda04__icon-acbbc5df7b93a03e__f" x1="12.828" x2="14.93" y1="7.09" y2="7.09" gradientUnits="userSpaceOnUse"><stop stop-color="#E5FAC1" stop-opacity="0"/><stop offset=".56" stop-color="#E5FAC1" stop-opacity=".52"/><stop offset="1" stop-color="#E5FAC1"/></linearGradient><linearGradient id="icon-fadabaf492d6060b__icon-967d18815d5d3962__g" x1="4.13" x2="9.589" y1="-5.619" y2="3.812" gradientUnits="userSpaceOnUse"><stop offset=".14" stop-color="#FDE100"/><stop offset=".98" stop-color="#FFC600" stop-opacity="0"/></linearGradient><radialGradient id="icon-23e08e2376826918__icon-19bfd9a7b50c2fe9__d" cx="0" cy="0" r="1" gradientTransform="matrix(1.97266 -2.96037 7.54321 5.02648 10.266 7.241)" gradientUnits="userSpaceOnUse"><stop stop-opacity=".3"/><stop offset="1" stop-opacity="0"/></radialGradient></defs></svg>