<svg xmlns="http://www.w3.org/2000/svg" width="32" height="32" fill="currentColor"><path d="m13.747 29.777 13.14-21.809c.104-.178.163-.391.163-.62 0-.49-.275-.917-.675-1.095L16.54 2.12A1.484 1.484 0 0 0 15.957 2c-.203 0-.4.043-.584.114L6.046 5.905l8.8 4.326c.558.313.951.897.951 1.616 0 .448-.15.854-.406 1.167L5.058 24.484c-.4.492-.36 1.239.092 1.673.092.093.197.164.308.214l8.289 3.406Z"/><path d="m10.047 15.957 2.823-3.133-.001-.003a.937.937 0 0 0 .24-.63.931.931 0 0 0-.527-.844l-7.09-3.486a1.277 1.277 0 0 0-.034.295c0 .229.06.444.166.622l4.423 7.18ZM22.846 18.55l-6.207 10.302a.833.833 0 0 0 .135.893c.225.25.57.32.872.208l.004.002 9.21-4.168c.113-.05.22-.122.313-.215.458-.437.498-1.188.093-1.682l-4.42-5.34Z"/></svg>