<svg xmlns="http://www.w3.org/2000/svg" width="20" height="20" fill="currentColor"><path fill="url(#icon-6a803a0e873cc2db__icon-629fc2151e53ed74__a)" d="M2 4.5A2.5 2.5 0 0 1 4.5 2h11A2.5 2.5 0 0 1 18 4.5v11a2.5 2.5 0 0 1-2.5 2.5h-11A2.5 2.5 0 0 1 2 15.5v-11Z"/><path fill="url(#icon-cbe391066054807b__icon-cf6e7b03f1330fad__b)" fill-opacity=".2" d="M2 4.5A2.5 2.5 0 0 1 4.5 2h11A2.5 2.5 0 0 1 18 4.5v11a2.5 2.5 0 0 1-2.5 2.5h-11A2.5 2.5 0 0 1 2 15.5v-11Z"/><path fill="url(#icon-bbb5f20ca15ce68e__icon-7bfe3262ea12db30__c)" fill-rule="evenodd" d="M15.5 3h-11A1.5 1.5 0 0 0 3 4.5v11A1.5 1.5 0 0 0 4.5 17h11a1.5 1.5 0 0 0 1.5-1.5v-11A1.5 1.5 0 0 0 15.5 3Zm-11-1A2.5 2.5 0 0 0 2 4.5v11A2.5 2.5 0 0 0 4.5 18h11a2.5 2.5 0 0 0 2.5-2.5v-11A2.5 2.5 0 0 0 15.5 2h-11Z" clip-rule="evenodd"/><path fill="url(#icon-ff0f4d54d29a3d81__icon-25323dbb3da78c11__d)" fill-rule="evenodd" d="M7.5 8.937a2 2 0 1 0-1 0v2.126a2 2 0 1 0 1 0V10.5h4a2 2 0 0 0 1.95-1.55 2 2 0 1 0-1.038-.038 1 1 0 0 1-.912.588h-4v-.563ZM8 7v.003A1.316 1.316 0 0 0 8 7Zm6 .003V7a.978.978 0 0 0 0 .003Z" clip-rule="evenodd"/><defs><linearGradient id="icon-6a803a0e873cc2db__icon-629fc2151e53ed74__a" x1="6.444" x2="8.468" y1="2" y2="18.192" gradientUnits="userSpaceOnUse"><stop stop-color="#fff"/><stop offset="1" stop-color="#EBEBEB"/></linearGradient><linearGradient id="icon-bbb5f20ca15ce68e__icon-7bfe3262ea12db30__c" x1="7.167" x2="9.321" y1="2" y2="18.157" gradientUnits="userSpaceOnUse"><stop stop-color="#BBB"/><stop offset="1" stop-color="#888"/></linearGradient><linearGradient id="icon-ff0f4d54d29a3d81__icon-25323dbb3da78c11__d" x1="5" x2="15" y1="5" y2="15" gradientUnits="userSpaceOnUse"><stop stop-color="#7751B8"/><stop offset="1" stop-color="#5A409C"/></linearGradient><radialGradient id="icon-cbe391066054807b__icon-cf6e7b03f1330fad__b" cx="0" cy="0" r="1" gradientTransform="rotate(56.31 -2.206 9.727) scale(15.2234 13.1741)" gradientUnits="userSpaceOnUse"><stop offset=".177" stop-color="#fff"/><stop offset="1" stop-color="#B8B8B8"/></radialGradient></defs></svg>