<svg xmlns="http://www.w3.org/2000/svg" width="16" height="16" fill="currentColor"><path d="M8 1C5.149 1 3 2.075 3 3.5v9c0 1.307 1.807 2.32 4.306 2.478A5.53 5.53 0 0 1 6.1 13.801C4.78 13.504 4 12.932 4 12.5V5.021a7.41 7.41 0 0 0 3.34.977 5.516 5.516 0 0 1 4.43-.85c.078-.041.154-.083.23-.127v.186c.349.099.683.23 1 .393V3.5C13 2.075 10.851 1 8 1Zm0 1c2.441 0 4 .888 4 1.5S10.441 5 8 5s-4-.888-4-1.5S5.558 2 8 2Z"/><path d="M10.5 15a4.5 4.5 0 1 1 0-9 4.5 4.5 0 0 1 0 9Zm.896-6.396.897.896H10.75A2.75 2.75 0 0 0 8 12.25v.25a.5.5 0 0 0 1 0v-.25c0-.966.784-1.75 1.75-1.75h1.543l-.897.896a.5.5 0 0 0 .708.708l1.752-1.753a.499.499 0 0 0-.002-.705l-1.75-1.75a.5.5 0 0 0-.708.708Z"/></svg>