<svg xmlns="http://www.w3.org/2000/svg" width="24" height="24" fill="currentColor"><path d="M4.774 4.22C4.315 4.707 4 5.31 4 6v12c0 .69.315 1.293.774 1.78.455.482 1.079.883 1.793 1.203C7.996 21.623 9.917 22 12 22c.267 0 .531-.006.792-.018a6.52 6.52 0 0 1-1.061-1.484c-1.811-.031-3.412-.374-4.55-.884-.6-.268-1.037-.568-1.316-.864-.275-.29-.365-.543-.365-.75v-3.608c.32.22.68.417 1.067.59 1.239.556 2.848.913 4.612.998a6.459 6.459 0 0 1 .554-1.482c-1.812-.031-3.413-.373-4.553-.884-.598-.269-1.036-.568-1.315-.864-.275-.29-.365-.543-.365-.75V8.392c.32.22.68.417 1.067.59C7.996 9.623 9.917 10 12 10c2.083 0 4.004-.377 5.433-1.018.386-.173.746-.37 1.067-.59v2.684c.523.081 1.026.224 1.5.422V6c0-.69-.315-1.293-.774-1.78-.455-.482-1.079-.883-1.793-1.202C16.004 2.377 14.083 2 12 2c-2.083 0-4.004.377-5.433 1.018-.714.32-1.338.72-1.793 1.202Zm1.091 2.53C5.59 6.46 5.5 6.207 5.5 6c0-.207.09-.46.365-.75.279-.296.717-.596 1.315-.864C8.375 3.851 10.08 3.5 12 3.5c1.921 0 3.625.35 4.82.886.598.268 1.036.568 1.315.864.275.29.365.543.365.75 0 .207-.09.46-.365.75-.279.296-.717.596-1.315.864-1.195.535-2.899.886-4.82.886-1.921 0-3.625-.35-4.82-.886-.598-.268-1.036-.568-1.315-.864Z"/><path d="M23 17.5a5.5 5.5 0 1 0-11 0 5.5 5.5 0 0 0 11 0Zm-6.985-3a.5.5 0 0 1 .46.342l1.053 3.16 1.004-2.678a.5.5 0 0 1 .915-.048L20.31 17H21a.5.5 0 0 1 0 1h-1a.5.5 0 0 1-.447-.276l-.487-.975-1.098 2.927a.5.5 0 0 1-.942-.018l-1.069-3.205-.493 1.233A.5.5 0 0 1 15 18h-1a.5.5 0 0 1 0-1h.662l.874-2.186a.5.5 0 0 1 .479-.314Z"/></svg>