<svg xmlns="http://www.w3.org/2000/svg" width="28" height="28" fill="currentColor"><path fill-rule="evenodd" d="M23.996 8.504c1.104 0 1.998.894 1.998 1.998v.023l.006-.029v7.002a1.997 1.997 0 0 1-1.997 1.998h-.828a7 7 0 0 0-6.689 4.944l-.263.852c-.132.42-.516.708-.954.708H8.946a.82.82 0 0 1-.81-.936 14.67 14.67 0 0 1 3.084-7.062H3.002C2.45 18.002 2 17.552 2 17v-6c0-.552.45-1.002 1.002-1.002h8.143a14.9 14.9 0 0 1-3.008-7.05A.832.832 0 0 1 8.958 2h6.305c.438 0 .821.288.953.708l.264.852a7 7 0 0 0 6.689 4.944h.827ZM12.49 11.498H3.5v5.004h16.999v-.953a14.933 14.933 0 0 1-8.01-4.051Zm12.005-.996v3.76a3.357 3.357 0 0 0-.324-.016H22.93A13.445 13.445 0 0 1 9.755 3.5h5.136l.156.502v.001a8.5 8.5 0 0 0 8.122 6.001h.827c.275 0 .498.222.498.498Z" clip-rule="evenodd"/></svg>