<svg xmlns="http://www.w3.org/2000/svg" width="32" height="32" fill="currentColor"><path fill="url(#icon-bbf31d70f193fe45__icon-860d4e8e1be44325__a)" d="M2 8.5A3.5 3.5 0 0 1 5.5 5h21A3.5 3.5 0 0 1 30 8.5v15a3.5 3.5 0 0 1-3.5 3.5h-21A3.5 3.5 0 0 1 2 23.5v-15Z"/><path fill="url(#icon-be9221f7e8d5e615__icon-a3772b674742337c__b)" fill-opacity=".2" d="M2 8.5A3.5 3.5 0 0 1 5.5 5h21A3.5 3.5 0 0 1 30 8.5v15a3.5 3.5 0 0 1-3.5 3.5h-21A3.5 3.5 0 0 1 2 23.5v-15Z"/><path fill="url(#icon-62a6250046fcd7c0__icon-b500312e7e27eeb0__c)" fill-rule="evenodd" d="M26.5 6h-21A2.5 2.5 0 0 0 3 8.5v15A2.5 2.5 0 0 0 5.5 26h21a2.5 2.5 0 0 0 2.5-2.5v-15A2.5 2.5 0 0 0 26.5 6Zm-21-1A3.5 3.5 0 0 0 2 8.5v15A3.5 3.5 0 0 0 5.5 27h21a3.5 3.5 0 0 0 3.5-3.5v-15A3.5 3.5 0 0 0 26.5 5h-21Z" clip-rule="evenodd"/><path fill="url(#icon-18fdcba0c69a36f4__icon-197147e9ee562dd1__d)" d="M14 18a1 1 0 1 1-2 0 1 1 0 0 1 2 0Z"/><path fill="url(#icon-39c537da69837e4c__icon-dea99b8c697ce458__e)" d="M17 18a1 1 0 1 1-2 0 1 1 0 0 1 2 0Z"/><path fill="url(#icon-4a9df8c91a601992__icon-cfe9bd4cc7cf1ff1__f)" d="M20 18a1 1 0 1 1-2 0 1 1 0 0 1 2 0Z"/><path fill="url(#icon-b770c0b3a5d80278__icon-f15930d7ec26f074__g)" fill-rule="evenodd" d="M11.805 10c-.291 0-.57.12-.764.331l-2.775 3C7.67 13.975 8.14 15 9.03 15H10v5a2 2 0 0 0 2 2h8a2 2 0 0 0 2-2v-5h.97c.89 0 1.36-1.025.764-1.669l-2.775-3a1.04 1.04 0 0 0-.764-.331h-8.39ZM11 15h10v5a1 1 0 0 1-1 1h-8a1 1 0 0 1-1-1v-5Z" clip-rule="evenodd"/><defs><linearGradient id="icon-bbf31d70f193fe45__icon-860d4e8e1be44325__a" x1="9.778" x2="11.977" y1="5" y2="27.395" gradientUnits="userSpaceOnUse"><stop stop-color="#fff"/><stop offset="1" stop-color="#EBEBEB"/></linearGradient><linearGradient id="icon-62a6250046fcd7c0__icon-b500312e7e27eeb0__c" x1="11.042" x2="13.385" y1="5" y2="27.366" gradientUnits="userSpaceOnUse"><stop stop-color="#BBB"/><stop offset="1" stop-color="#888"/></linearGradient><linearGradient id="icon-18fdcba0c69a36f4__icon-197147e9ee562dd1__d" x1="8" x2="19.52" y1="10" y2="25.36" gradientUnits="userSpaceOnUse"><stop stop-color="#7751B8"/><stop offset="1" stop-color="#5A409C"/></linearGradient><linearGradient id="icon-39c537da69837e4c__icon-dea99b8c697ce458__e" x1="8" x2="19.52" y1="10" y2="25.36" gradientUnits="userSpaceOnUse"><stop stop-color="#7751B8"/><stop offset="1" stop-color="#5A409C"/></linearGradient><linearGradient id="icon-4a9df8c91a601992__icon-cfe9bd4cc7cf1ff1__f" x1="8" x2="19.52" y1="10" y2="25.36" gradientUnits="userSpaceOnUse"><stop stop-color="#7751B8"/><stop offset="1" stop-color="#5A409C"/></linearGradient><linearGradient id="icon-b770c0b3a5d80278__icon-f15930d7ec26f074__g" x1="8" x2="19.52" y1="10" y2="25.36" gradientUnits="userSpaceOnUse"><stop stop-color="#7751B8"/><stop offset="1" stop-color="#5A409C"/></linearGradient><radialGradient id="icon-be9221f7e8d5e615__icon-a3772b674742337c__b" cx="0" cy="0" r="1" gradientTransform="rotate(49.686 -6.115 17.184) scale(22.8413 21.1279)" gradientUnits="userSpaceOnUse"><stop offset=".177" stop-color="#fff"/><stop offset="1" stop-color="#B8B8B8"/></radialGradient></defs></svg>