<svg xmlns="http://www.w3.org/2000/svg" width="24" height="24" fill="currentColor"><path fill-rule="evenodd" d="m4.833 19.58 6.863 2.387c.229.057.47.041.687-.044l7.152-3.062a.79.79 0 0 0 .281-1.244l-3.028-3.46 4.03-6.182.008-.012c.224-.36.34-.776.34-1.2 0-.92-.546-1.749-1.386-2.102l-.038-.016-6.894-2.466a2.579 2.579 0 0 0-.933-.175c-.333 0-.638.065-.903.16l-6.36 2.184A1.5 1.5 0 0 0 3.8 6.44a.737.737 0 0 0 .064.13l3.85 5.669-3.676 3.701-.035.04a2.291 2.291 0 0 0 .83 3.599Zm10.928-6.596 3.792-5.815a.767.767 0 0 0 .114-.406.777.777 0 0 0-.47-.72l-6.877-2.46a1.08 1.08 0 0 0-.405-.08c-.14 0-.277.029-.404.076L5.139 5.767l6.092 2.905a1.294 1.294 0 0 1 .454.43l.011.019.022.037c.09.164.14.352.14.556 0 .295-.104.56-.281.766l-3.004 3.024-3.434 3.456a.791.791 0 0 0 .278 1.238l5.656 1.978 4.688-7.192Z" clip-rule="evenodd"/></svg>