<svg xmlns="http://www.w3.org/2000/svg" width="24" height="24" fill="currentColor"><path fill-rule="evenodd" d="m10.375 22.004.34-.567 5.204-8.694 3.857-6.442a.885.885 0 0 0 .117-.446c0-.354-.197-.662-.482-.79l-7.025-2.978A1.051 1.051 0 0 0 11.97 2c-.145 0-.285.03-.416.082L4.889 4.814l6.286 3.118c.399.225.68.646.68 1.164 0 .293-.089.56-.241.776l-7.43 8.33a.91.91 0 0 0 .066 1.206.73.73 0 0 0 .22.154l5.905 2.442ZM7.712 12l1.944-2.177-.004-.017a.679.679 0 0 0 .173-.454.674.674 0 0 0-.304-.566l-5.04-2.5a.884.884 0 0 0 .107.599L7.712 12Zm4.973 9.106 4.245-7.13 3.117 3.798a.91.91 0 0 1-.066 1.212.738.738 0 0 1-.224.155l-6.379 2.824-.005-.003a.563.563 0 0 1-.623-.15.608.608 0 0 1-.065-.706Z" clip-rule="evenodd"/></svg>