<svg xmlns="http://www.w3.org/2000/svg" width="20" height="20" fill="currentColor"><path fill-rule="evenodd" d="M16.663 6.336c.736 0 1.332.596 1.332 1.332v.015l.004-.02v4.668c0 .736-.596 1.332-1.332 1.332h-.552a4.666 4.666 0 0 0-4.458 3.296l-.176.568a.668.668 0 0 1-.636.472H6.63a.546.546 0 0 1-.54-.624 9.78 9.78 0 0 1 2.056-4.708H2.668A.67.67 0 0 1 2 12V8c0-.367.3-.667.668-.667h5.428a9.933 9.933 0 0 1-2.006-4.7A.555.555 0 0 1 6.638 2h4.203c.292 0 .548.192.636.472l.176.568a4.666 4.666 0 0 0 4.458 3.296h.552Zm-7.67 1.996H3v3.335h11.332v-.635a9.954 9.954 0 0 1-5.34-2.7Zm8.002-.664v2.506a2.228 2.228 0 0 0-.216-.01h-.828A8.963 8.963 0 0 1 7.17 3h3.424l.104.335a5.666 5.666 0 0 0 5.414 4h.552c.183 0 .332.149.332.333Z" clip-rule="evenodd"/></svg>