<svg xmlns="http://www.w3.org/2000/svg" width="16" height="16" fill="currentColor"><path d="M12.146 4.147a.5.5 0 0 0-.146.354v6a.5.5 0 0 0 1 0v-2.5h1.5a.5.5 0 0 0 0-1H13v-2h2.5a.5.5 0 0 0 0-1h-3a.5.5 0 0 0-.354.146ZM2.736 4.06A.5.5 0 0 1 3 4.501v6a.5.5 0 0 1-1 0V5.435l-.723.482a.5.5 0 1 1-.554-.832l1.5-1a.5.5 0 0 1 .513-.025ZM5 10.5a.5.5 0 1 1-1 0 .5.5 0 0 1 1 0ZM8.25 4.001A2.25 2.25 0 0 0 6 6.251a.5.5 0 0 0 1 0 1.25 1.25 0 1 1 2.5.031l.002.03a1.44 1.44 0 0 1-.512.899l-1.584.915A2.59 2.59 0 0 0 6 10.518a.5.5 0 0 0 .5.483H10a.5.5 0 1 0 0-1H7.057a1.59 1.59 0 0 1 .839-1.002l1.627-.941a.499.499 0 0 0 .057-.039 2.44 2.44 0 0 0 .92-1.627.494.494 0 0 0 .003-.092l-.004-.066a2.25 2.25 0 0 0-2.25-2.233Z"/></svg>