<svg width="32" height="32" fill="none" xmlns="http://www.w3.org/2000/svg"><g clip-path="url(#icon-0f939f693cac1a48__clip0_56017_807)"><path fill-rule="evenodd" clip-rule="evenodd" d="M26.6718 10.8402C27.8516 9.10498 30.0022 10.2817 30.0021 12.1359L30.0021 19.7603C29.9678 20.4194 29.684 21.0516 29.2131 21.5178L22.3405 28.3597C21.8098 28.885 21.0691 29.1116 20.3506 28.9684C20.3506 28.9684 0.0236168 24.6823 10.4997 22.0484C20.9757 19.4145 26.6718 10.8402 26.6718 10.8402Z" fill="#767676"/><path fill-rule="evenodd" clip-rule="evenodd" d="M26.6718 10.8402C27.8516 9.10498 30.0022 10.2817 30.0021 12.1359L30.0021 19.7603C29.9678 20.4194 29.684 21.0516 29.2131 21.5178L22.3405 28.3597C21.8098 28.885 21.0691 29.1116 20.3506 28.9684C20.3506 28.9684 0.0236168 24.6823 10.4997 22.0484C20.9757 19.4145 26.6718 10.8402 26.6718 10.8402Z" fill="url(#icon-224c476ea67c31fd__paint0_linear_56017_807)"/><path fill-rule="evenodd" clip-rule="evenodd" d="M26.6718 10.8402C27.8516 9.10498 30.0022 10.2817 30.0021 12.1359L30.0021 19.7603C29.9678 20.4194 29.684 21.0516 29.2131 21.5178L22.3405 28.3597C21.8098 28.885 21.0691 29.1116 20.3506 28.9684C20.3506 28.9684 0.0236168 24.6823 10.4997 22.0484C20.9757 19.4145 26.6718 10.8402 26.6718 10.8402Z" fill="url(#icon-9e34064f0656ea46__paint1_linear_56017_807)"/><path fill-rule="evenodd" clip-rule="evenodd" d="M23.9663 26.7694L23.9734 26.7768L28.6674 22.0914C27.2828 23.48 23.6667 23.5078 20.3093 21.8486C18.0701 20.742 16.5224 18.6106 15.1493 16.4606L7.57515 4.48772L2.67298 9.52456C2.25646 9.95021 1.98496 10.5436 1.95971 11.1658L1.98675 20.853C1.96027 21.5056 2.19371 22.1405 2.6318 22.6076L8.8627 29.2882C9.29121 29.745 9.87872 30.0019 10.4917 30.0006L19.8045 30.0005C20.3795 29.9993 20.9339 29.75 21.3535 29.3404L23.9663 26.7694Z" fill="#4F1A1A"/><path fill-rule="evenodd" clip-rule="evenodd" d="M23.9663 26.7694L23.9734 26.7768L28.6674 22.0914C27.2828 23.48 23.6667 23.5078 20.3093 21.8486C18.0701 20.742 16.5224 18.6106 15.1493 16.4606L7.57515 4.48772L2.67298 9.52456C2.25646 9.95021 1.98496 10.5436 1.95971 11.1658L1.98675 20.853C1.96027 21.5056 2.19371 22.1405 2.6318 22.6076L8.8627 29.2882C9.29121 29.745 9.87872 30.0019 10.4917 30.0006L19.8045 30.0005C20.3795 29.9993 20.9339 29.75 21.3535 29.3404L23.9663 26.7694Z" fill="url(#icon-410453be73aa7e71__paint2_linear_56017_807)"/><path fill-rule="evenodd" clip-rule="evenodd" d="M23.9663 26.7694L23.9734 26.7768L28.6674 22.0914C27.2828 23.48 23.6667 23.5078 20.3093 21.8486C18.0701 20.742 16.5224 18.6106 15.1493 16.4606L7.57515 4.48772L2.67298 9.52456C2.25646 9.95021 1.98496 10.5436 1.95971 11.1658L1.98675 20.853C1.96027 21.5056 2.19371 22.1405 2.6318 22.6076L8.8627 29.2882C9.29121 29.745 9.87872 30.0019 10.4917 30.0006L19.8045 30.0005C20.3795 29.9993 20.9339 29.75 21.3535 29.3404L23.9663 26.7694Z" fill="url(#icon-f0f98d7c9e6eda7f__paint3_linear_56017_807)"/><path fill-rule="evenodd" clip-rule="evenodd" d="M23.9663 26.7694L23.9734 26.7768L28.6674 22.0914C27.2828 23.48 23.6667 23.5078 20.3093 21.8486C18.0701 20.742 16.5224 18.6106 15.1493 16.4606L7.57515 4.48772L2.67298 9.52456C2.25646 9.95021 1.98496 10.5436 1.95971 11.1658L1.98675 20.853C1.96027 21.5056 2.19371 22.1405 2.6318 22.6076L8.8627 29.2882C9.29121 29.745 9.87872 30.0019 10.4917 30.0006L19.8045 30.0005C20.3795 29.9993 20.9339 29.75 21.3535 29.3404L23.9663 26.7694Z" fill="url(#icon-76268af5c454e0bf__paint4_linear_56017_807)"/><path fill-rule="evenodd" clip-rule="evenodd" d="M6.34697 20.0977C8.3711 16.1922 9.01867 17.2283 16.4362 11.4056C19.8775 8.70427 21.8746 5.52159 22.8479 3.63345C23.2493 2.8548 22.6931 1.98648 21.8449 1.98645L10.9374 1.98611C10.3404 1.98609 9.76746 2.23101 9.34243 2.66789L2.63442 9.56298C2.20169 10.0078 1.95809 10.6148 1.95809 11.2482L1.95808 20.9109C1.95808 21.5276 2.18902 22.1199 2.60175 22.5618L7.99349 28.3347C7.99349 28.3347 4.18903 24.2613 6.34697 20.0977Z" fill="#585858"/><path fill-rule="evenodd" clip-rule="evenodd" d="M6.34697 20.0977C8.3711 16.1922 9.01867 17.2283 16.4362 11.4056C19.8775 8.70427 21.8746 5.52159 22.8479 3.63345C23.2493 2.8548 22.6931 1.98648 21.8449 1.98645L10.9374 1.98611C10.3404 1.98609 9.76746 2.23101 9.34243 2.66789L2.63442 9.56298C2.20169 10.0078 1.95809 10.6148 1.95809 11.2482L1.95808 20.9109C1.95808 21.5276 2.18902 22.1199 2.60175 22.5618L7.99349 28.3347C7.99349 28.3347 4.18903 24.2613 6.34697 20.0977Z" fill="url(#icon-fc6ba504f262d43b__paint5_linear_56017_807)"/><path fill-rule="evenodd" clip-rule="evenodd" d="M6.34697 20.0977C8.3711 16.1922 9.01867 17.2283 16.4362 11.4056C19.8775 8.70427 21.8746 5.52159 22.8479 3.63345C23.2493 2.8548 22.6931 1.98648 21.8449 1.98645L10.9374 1.98611C10.3404 1.98609 9.76746 2.23101 9.34243 2.66789L2.63442 9.56298C2.20169 10.0078 1.95809 10.6148 1.95809 11.2482L1.95808 20.9109C1.95808 21.5276 2.18902 22.1199 2.60175 22.5618L7.99349 28.3347C7.99349 28.3347 4.18903 24.2613 6.34697 20.0977Z" fill="url(#icon-cba9a30e4461584e__paint6_linear_56017_807)"/><path fill-rule="evenodd" clip-rule="evenodd" d="M6.34697 20.0977C8.3711 16.1922 9.01867 17.2283 16.4362 11.4056C19.8775 8.70427 21.8746 5.52159 22.8479 3.63345C23.2493 2.8548 22.6931 1.98648 21.8449 1.98645L10.9374 1.98611C10.3404 1.98609 9.76746 2.23101 9.34243 2.66789L2.63442 9.56298C2.20169 10.0078 1.95809 10.6148 1.95809 11.2482L1.95808 20.9109C1.95808 21.5276 2.18902 22.1199 2.60175 22.5618L7.99349 28.3347C7.99349 28.3347 4.18903 24.2613 6.34697 20.0977Z" fill="url(#icon-409de9c57395f1e1__paint7_linear_56017_807)"/></g><defs><linearGradient id="icon-224c476ea67c31fd__paint0_linear_56017_807" x1="23.8338" y1="21.8684" x2="32.0894" y2="12.9024" gradientUnits="userSpaceOnUse"><stop stop-color="#114A85"/><stop offset="0.795693" stop-color="#028EDB"/></linearGradient><linearGradient id="icon-9e34064f0656ea46__paint1_linear_56017_807" x1="24.1306" y1="24.3267" x2="35.2102" y2="6.29493" gradientUnits="userSpaceOnUse"><stop stop-color="#114A85"/><stop offset="0.67" stop-color="#028EDB"/></linearGradient><linearGradient id="icon-410453be73aa7e71__paint2_linear_56017_807" x1="7.49884" y1="20.8039" x2="22.2008" y2="20.9104" gradientUnits="userSpaceOnUse"><stop offset="0.074218" stop-color="#0669B6"/><stop offset="0.261846" stop-color="#0E7FCB"/><stop offset="0.544674" stop-color="#148DD9"/><stop offset="0.95" stop-color="#3CC5EE"/></linearGradient><linearGradient id="icon-f0f98d7c9e6eda7f__paint3_linear_56017_807" x1="7.33126" y1="26.2163" x2="24.1016" y2="23.7927" gradientUnits="userSpaceOnUse"><stop offset="0.31" stop-color="#0094E5"/><stop offset="1" stop-color="#40D8F9"/></linearGradient><linearGradient id="icon-76268af5c454e0bf__paint4_linear_56017_807" x1="5.72546" y1="17.42" x2="21.9799" y2="22.2604" gradientUnits="userSpaceOnUse"><stop offset="0.09" stop-opacity="0.2"/><stop offset="0.55" stop-opacity="0"/></linearGradient><linearGradient id="icon-fc6ba504f262d43b__paint5_linear_56017_807" x1="17.9426" y1="4.74038" x2="3.63694" y2="14.3694" gradientUnits="userSpaceOnUse"><stop stop-color="#BDF5FF"/><stop offset="1" stop-color="#40D9FA"/></linearGradient><linearGradient id="icon-cba9a30e4461584e__paint6_linear_56017_807" x1="2.44054" y1="22.6881" x2="17.2226" y2="12.8612" gradientUnits="userSpaceOnUse"><stop stop-color="#3CC5EE"/><stop offset="1" stop-color="#50E0FF"/></linearGradient><linearGradient id="icon-409de9c57395f1e1__paint7_linear_56017_807" x1="6.7368" y1="15.4976" x2="12.2912" y2="18.3233" gradientUnits="userSpaceOnUse"><stop stop-color="#A1ECFF" stop-opacity="0"/><stop offset="0.9" stop-color="#A1ECFF" stop-opacity="0.9"/></linearGradient><clipPath id="icon-0f939f693cac1a48__clip0_56017_807"><rect width="32" height="32" fill="white"/></clipPath></defs></svg>