<svg xmlns="http://www.w3.org/2000/svg" width="20" height="20" fill="currentColor"><path d="M8 5v11h2.37l-.017.236a4.469 4.469 0 0 1-.1.72 1.303 1.303 0 0 1-.081-.038A1.5 1.5 0 0 0 8.684 17H3.5a.5.5 0 0 1-.5-.5V11a2 2 0 0 1 2-2h2V5a2 2 0 0 1 2-2h2a2 2 0 0 1 2 2v1h2a2 2 0 0 1 2 2v5.879l-.184.184a2.73 2.73 0 0 0-.816-.786V8a1 1 0 0 0-1-1h-2v1.067a3.008 3.008 0 0 0-1 .428V5a1 1 0 0 0-1-1H9a1 1 0 0 0-1 1ZM7 16v-6H5a1 1 0 0 0-1 1v5h3Z"/><path d="M13.43 10.018c.174-.025.279-.02.356-.005a.856.856 0 0 1 .278.12.5.5 0 1 0 .514-.858 1.841 1.841 0 0 0-.596-.242 2.031 2.031 0 0 0-.696-.005h-.005c-.53.083-.936.356-1.207.742-.262.374-.386.83-.42 1.282a38.552 38.552 0 0 1-.046.966H10.6a.5.5 0 0 0 0 1h.952a270.94 270.94 0 0 1-.2 3.275c-.031.375-.059.706-.151.995-.087.273-.22.47-.446.602l-.013.008c-.258.16-.588.131-1.018-.084a.5.5 0 1 0-.447.895c.532.266 1.283.477 1.988.04.493-.29.75-.723.888-1.157.128-.4.164-.83.192-1.17l.004-.047v-.004c.035-.45.13-2.033.205-3.353H13.6a.5.5 0 1 0 0-1h-.991c.024-.453.04-.79.043-.905.027-.325.113-.586.24-.768a.765.765 0 0 1 .539-.327ZM18.854 14.854a.5.5 0 0 0-.708-.707l-1.537 1.537c-.207-.36-.382-.662-.453-.779a2.763 2.763 0 0 0-.258-.412 1.395 1.395 0 0 0-.52-.429.924.924 0 0 0-.832.081c-.198.12-.345.293-.442.418a.5.5 0 1 0 .792.612 1.263 1.263 0 0 1 .138-.153.71.71 0 0 1 .073.082c.06.079.117.176.169.276a73.096 73.096 0 0 1 .601 1.036l-1.73 1.73a.5.5 0 0 0 .707.708l1.54-1.54a51.337 51.337 0 0 0 .574.982l.027.046c.038.065.082.138.133.208.121.164.262.28.466.38a.496.496 0 0 0 .117.04c.3.062.58.036.822-.128.162-.109.287-.279.348-.363a5.497 5.497 0 0 0-.819-.576l-.014.02a1.638 1.638 0 0 1-.062.077h-.01a.154.154 0 0 1-.042-.042 1.516 1.516 0 0 1-.077-.123l-.023-.04a75.596 75.596 0 0 1-.708-1.214l1.728-1.727Z"/></svg>