<svg xmlns="http://www.w3.org/2000/svg" width="20" height="20" fill="currentColor"><path d="M10 8c3.314 0 6-1.343 6-3 0-1.656-2.686-3-6-3S4 3.344 4 5c0 1.657 2.686 3 6 3Z"/><path d="M14.69 8.016c.47-.234.927-.533 1.31-.895v2.088a5.5 5.5 0 0 0-5.75 8.789C10.166 18 10.083 18 10 18c-3.314 0-6-1.344-6-3V7.12c.383.362.84.66 1.31.895 1.252.626 2.912.985 4.69.985 1.778 0 3.438-.359 4.69-.985Z"/><path d="M12 10.759a4.5 4.5 0 1 1 5 7.483 4.5 4.5 0 0 1-5-7.483Zm4.917 5.424a.5.5 0 0 0 .003-.863l-1.42-.82 1.406-.832a.5.5 0 0 0-.506-.862l-1.4.822V12a.5.5 0 0 0-1 0v1.633l-1.411-.812a.5.5 0 0 0-.5.867l1.42.82-1.415.829a.5.5 0 1 0 .506.863l1.4-.828V17a.5.5 0 0 0 1 0v-1.633l1.417.816a.494.494 0 0 0 .5 0Z"/></svg>