<svg xmlns="http://www.w3.org/2000/svg" width="20" height="20" fill="currentColor"><path d="M2.9.779C1.875 1.247 1 1.995 1 3.002v3.05a2.5 2.5 0 0 1 1 0v-1.35c.28.206.582.38.9.523.679.282 1.385.489 2.104.618.02-.356.107-.68.24-.974a9.2 9.2 0 0 1-1.926-.554C2.356 3.877 2 3.375 2 3.002c0-.374.356-.875 1.318-1.313A9.2 9.2 0 0 1 7 1.002a9.2 9.2 0 0 1 3.682.687c.231.105.427.214.592.324.241-.012.484-.016.726-.011.23-.004.46-.001.69.009-.343-.521-.936-.934-1.59-1.232A10.177 10.177 0 0 0 7 .002a10.177 10.177 0 0 0-4.1.777ZM6.917 16.637c.29.23.627.425.983.588.962.4 1.977.648 3.01.74l.789-.79c-.12-.06-.203-.12-.273-.18a9.202 9.202 0 0 1-3.108-.68 3.992 3.992 0 0 1-.688-.391l-.713.713Z"/><path d="M18 10.976V6.002c0-1.007-.875-1.755-1.9-2.223a10.177 10.177 0 0 0-4.1-.777 10.177 10.177 0 0 0-4.1.777C6.875 4.247 6 4.995 6 6.002v3.514c.095.071.184.15.268.234l.732.732v-2.78c.28.206.582.38.9.523 1.298.54 2.694.804 4.1.777a10.177 10.177 0 0 0 4.1-.775c.318-.143.62-.319.9-.525v3.274h1ZM8.318 7.315C7.356 6.877 7 6.375 7 6.002c0-.374.356-.875 1.318-1.313A9.2 9.2 0 0 1 12 4.002a9.2 9.2 0 0 1 3.682.687c.962.438 1.318.939 1.318 1.313s-.356.875-1.318 1.313A9.2 9.2 0 0 1 12 8.002a9.2 9.2 0 0 1-3.682-.687ZM4.854 15.871a.5.5 0 1 1-.708-.708L5.3 14.017a4.5 4.5 0 0 1-4.3-4.5V8.501a.5.5 0 0 1 1 0v1.016a3.5 3.5 0 0 0 3.286 3.494l-1.14-1.14a.5.5 0 0 1 .708-.708l2 2a.501.501 0 0 1 0 .708l-2 2ZM13.484 12.004h5a.5.5 0 0 1 .5.5v5a.5.5 0 0 1-.853.354l-5-5a.5.5 0 0 1 .353-.854ZM13.54 14.658a.5.5 0 0 1 0 .707l-.706.707a.5.5 0 1 1-.708-.707l.708-.707a.5.5 0 0 1 .707 0ZM16.37 17.486a.5.5 0 0 1 0 .707l-.708.707a.5.5 0 1 1-.707-.707l.707-.707a.5.5 0 0 1 .707 0ZM14.955 16.072a.5.5 0 0 1 0 .707L12.834 18.9a.5.5 0 1 1-.708-.707l2.122-2.121a.5.5 0 0 1 .707 0Z"/></svg>