<svg xmlns="http://www.w3.org/2000/svg" width="28" height="28" fill="currentColor"><path d="M7.557 7.953A1.5 1.5 0 0 1 8.987 6h9.441C20.401 6 22 7.176 22 8.98v1.458c1.634-.862 2.5-2.187 2.5-3.7C24.5 4.081 21.669 2 16.803 2H3.499A1.5 1.5 0 0 0 2 3.5c0 .122.011.241.046.353.065.204 2.78 8.691 4.199 13.116a1.5 1.5 0 0 0 1.425 1.032h3.109l-2.16-6.732-.001-.006-1.062-3.309.001-.001Z"/><path d="M17.018 12.977h-.494l3.95 12.286c.232.72.85.779 1.17.72 2.967-.552 4.355-2.133 4.355-3.983V6.743c-.003 3.103-2.78 6.233-8.981 6.233v.001Z"/><path d="M17.019 11.477h-.494a1.501 1.501 0 0 0-1.43 1.961l2.749 8.563h-3.112a1.5 1.5 0 0 1-1.425-1.032L8.987 7.501h9.44c1 0 2.074.463 2.074 1.48v2.047c-.992.286-2.151.449-3.482.449Z"/></svg>