<svg width="48" height="48" fill="none" xmlns="http://www.w3.org/2000/svg"><g clip-path="url(#icon-a37cb10a847bdf3a__clip0_56017_803)"><path fill-rule="evenodd" clip-rule="evenodd" d="M39.2405 16.6273C40.9256 14.1487 43.9975 15.8295 43.9974 18.478L43.9974 29.3685C43.9484 30.31 43.543 31.2131 42.8703 31.879L33.0537 41.6518C32.2957 42.4021 31.2377 42.7258 30.2114 42.5213C30.2114 42.5213 1.17675 36.399 16.1405 32.6368C31.1043 28.8747 39.2405 16.6273 39.2405 16.6273Z" fill="#767676"/><path fill-rule="evenodd" clip-rule="evenodd" d="M39.2405 16.6273C40.9256 14.1487 43.9975 15.8295 43.9974 18.478L43.9974 29.3685C43.9484 30.31 43.543 31.2131 42.8703 31.879L33.0537 41.6518C32.2957 42.4021 31.2377 42.7258 30.2114 42.5213C30.2114 42.5213 1.17675 36.399 16.1405 32.6368C31.1043 28.8747 39.2405 16.6273 39.2405 16.6273Z" fill="url(#icon-fe5559a5a88299d6__paint0_linear_56017_803)"/><path fill-rule="evenodd" clip-rule="evenodd" d="M39.2405 16.6273C40.9256 14.1487 43.9975 15.8295 43.9974 18.478L43.9974 29.3685C43.9484 30.31 43.543 31.2131 42.8703 31.879L33.0537 41.6518C32.2957 42.4021 31.2377 42.7258 30.2114 42.5213C30.2114 42.5213 1.17675 36.399 16.1405 32.6368C31.1043 28.8747 39.2405 16.6273 39.2405 16.6273Z" fill="url(#icon-1555fcc85dbf9b9d__paint1_linear_56017_803)"/><path fill-rule="evenodd" clip-rule="evenodd" d="M35.376 39.3801L35.3861 39.3907L42.0909 32.6982C40.1131 34.6816 34.948 34.7213 30.1524 32.3513C26.954 30.7707 24.7432 27.7263 22.782 24.6553L11.9632 7.55348L4.96104 14.748C4.3661 15.356 3.97829 16.2036 3.94223 17.0922L3.98085 30.9293C3.94303 31.8614 4.27647 32.7684 4.90223 33.4355L13.8023 42.9779C14.4144 43.6304 15.2536 43.9974 16.1292 43.9955L29.4313 43.9955C30.2526 43.9936 31.0445 43.6376 31.6439 43.0525L35.376 39.3801Z" fill="#4F1A1A"/><path fill-rule="evenodd" clip-rule="evenodd" d="M35.376 39.3801L35.3861 39.3907L42.0909 32.6982C40.1131 34.6816 34.948 34.7213 30.1524 32.3513C26.954 30.7707 24.7432 27.7263 22.782 24.6553L11.9632 7.55348L4.96104 14.748C4.3661 15.356 3.97829 16.2036 3.94223 17.0922L3.98085 30.9293C3.94303 31.8614 4.27647 32.7684 4.90223 33.4355L13.8023 42.9779C14.4144 43.6304 15.2536 43.9974 16.1292 43.9955L29.4313 43.9955C30.2526 43.9936 31.0445 43.6376 31.6439 43.0525L35.376 39.3801Z" fill="url(#icon-1c61ebdcc986bb7b__paint2_linear_56017_803)"/><path fill-rule="evenodd" clip-rule="evenodd" d="M35.376 39.3801L35.3861 39.3907L42.0909 32.6982C40.1131 34.6816 34.948 34.7213 30.1524 32.3513C26.954 30.7707 24.7432 27.7263 22.782 24.6553L11.9632 7.55348L4.96104 14.748C4.3661 15.356 3.97829 16.2036 3.94223 17.0922L3.98085 30.9293C3.94303 31.8614 4.27647 32.7684 4.90223 33.4355L13.8023 42.9779C14.4144 43.6304 15.2536 43.9974 16.1292 43.9955L29.4313 43.9955C30.2526 43.9936 31.0445 43.6376 31.6439 43.0525L35.376 39.3801Z" fill="url(#icon-8aef2e2f28c68a83__paint3_linear_56017_803)"/><path fill-rule="evenodd" clip-rule="evenodd" d="M35.376 39.3801L35.3861 39.3907L42.0909 32.6982C40.1131 34.6816 34.948 34.7213 30.1524 32.3513C26.954 30.7707 24.7432 27.7263 22.782 24.6553L11.9632 7.55348L4.96104 14.748C4.3661 15.356 3.97829 16.2036 3.94223 17.0922L3.98085 30.9293C3.94303 31.8614 4.27647 32.7684 4.90223 33.4355L13.8023 42.9779C14.4144 43.6304 15.2536 43.9974 16.1292 43.9955L29.4313 43.9955C30.2526 43.9936 31.0445 43.6376 31.6439 43.0525L35.376 39.3801Z" fill="url(#icon-8902694bee7f97a4__paint4_linear_56017_803)"/><path fill-rule="evenodd" clip-rule="evenodd" d="M10.2091 29.8504C13.1003 24.2719 14.0253 25.7518 24.6203 17.4349C29.5358 13.5763 32.3885 9.03021 33.7787 6.33323C34.352 5.22103 33.5575 3.98074 32.346 3.9807L16.766 3.9802C15.9133 3.98018 15.0948 4.33002 14.4877 4.95405L4.90614 14.8028C4.28804 15.4382 3.94008 16.3052 3.94008 17.2099L3.94007 31.0119C3.94007 31.8928 4.26994 32.7389 4.85948 33.3701L12.5609 41.616C12.5609 41.616 7.12672 35.7976 10.2091 29.8504Z" fill="#585858"/><path fill-rule="evenodd" clip-rule="evenodd" d="M10.2091 29.8504C13.1003 24.2719 14.0253 25.7518 24.6203 17.4349C29.5358 13.5763 32.3885 9.03021 33.7787 6.33323C34.352 5.22103 33.5575 3.98074 32.346 3.9807L16.766 3.9802C15.9133 3.98018 15.0948 4.33002 14.4877 4.95405L4.90614 14.8028C4.28804 15.4382 3.94008 16.3052 3.94008 17.2099L3.94007 31.0119C3.94007 31.8928 4.26994 32.7389 4.85948 33.3701L12.5609 41.616C12.5609 41.616 7.12672 35.7976 10.2091 29.8504Z" fill="url(#icon-3491fa5071458a45__paint5_linear_56017_803)"/><path fill-rule="evenodd" clip-rule="evenodd" d="M10.2091 29.8504C13.1003 24.2719 14.0253 25.7518 24.6203 17.4349C29.5358 13.5763 32.3885 9.03021 33.7787 6.33323C34.352 5.22103 33.5575 3.98074 32.346 3.9807L16.766 3.9802C15.9133 3.98018 15.0948 4.33002 14.4877 4.95405L4.90614 14.8028C4.28804 15.4382 3.94008 16.3052 3.94008 17.2099L3.94007 31.0119C3.94007 31.8928 4.26994 32.7389 4.85948 33.3701L12.5609 41.616C12.5609 41.616 7.12672 35.7976 10.2091 29.8504Z" fill="url(#icon-98fdb5b12298179f__paint6_linear_56017_803)"/><path fill-rule="evenodd" clip-rule="evenodd" d="M10.2091 29.8504C13.1003 24.2719 14.0253 25.7518 24.6203 17.4349C29.5358 13.5763 32.3885 9.03021 33.7787 6.33323C34.352 5.22103 33.5575 3.98074 32.346 3.9807L16.766 3.9802C15.9133 3.98018 15.0948 4.33002 14.4877 4.95405L4.90614 14.8028C4.28804 15.4382 3.94008 16.3052 3.94008 17.2099L3.94007 31.0119C3.94007 31.8928 4.26994 32.7389 4.85948 33.3701L12.5609 41.616C12.5609 41.616 7.12672 35.7976 10.2091 29.8504Z" fill="url(#icon-548ee8946520a38e__paint7_linear_56017_803)"/></g><defs><linearGradient id="icon-fe5559a5a88299d6__paint0_linear_56017_803" x1="35.1867" y1="32.3798" x2="46.9788" y2="19.5729" gradientUnits="userSpaceOnUse"><stop stop-color="#114A85"/><stop offset="0.795693" stop-color="#028EDB"/></linearGradient><linearGradient id="icon-1555fcc85dbf9b9d__paint1_linear_56017_803" x1="35.6106" y1="35.8911" x2="51.4365" y2="10.1349" gradientUnits="userSpaceOnUse"><stop stop-color="#114A85"/><stop offset="0.67" stop-color="#028EDB"/></linearGradient><linearGradient id="icon-1c61ebdcc986bb7b__paint2_linear_56017_803" x1="11.8542" y1="30.8591" x2="32.8541" y2="31.0113" gradientUnits="userSpaceOnUse"><stop offset="0.074218" stop-color="#0669B6"/><stop offset="0.261846" stop-color="#0E7FCB"/><stop offset="0.544674" stop-color="#148DD9"/><stop offset="0.95" stop-color="#3CC5EE"/></linearGradient><linearGradient id="icon-8aef2e2f28c68a83__paint3_linear_56017_803" x1="11.6148" y1="38.5902" x2="35.5693" y2="35.1283" gradientUnits="userSpaceOnUse"><stop offset="0.31" stop-color="#0094E5"/><stop offset="1" stop-color="#40D8F9"/></linearGradient><linearGradient id="icon-8902694bee7f97a4__paint4_linear_56017_803" x1="9.32115" y1="26.0256" x2="32.5387" y2="32.9397" gradientUnits="userSpaceOnUse"><stop offset="0.09" stop-opacity="0.2"/><stop offset="0.55" stop-opacity="0"/></linearGradient><linearGradient id="icon-3491fa5071458a45__paint5_linear_56017_803" x1="26.772" y1="7.91434" x2="6.33812" y2="21.6683" gradientUnits="userSpaceOnUse"><stop stop-color="#BDF5FF"/><stop offset="1" stop-color="#40D9FA"/></linearGradient><linearGradient id="icon-98fdb5b12298179f__paint6_linear_56017_803" x1="4.62921" y1="33.5505" x2="25.7436" y2="19.514" gradientUnits="userSpaceOnUse"><stop stop-color="#3CC5EE"/><stop offset="1" stop-color="#50E0FF"/></linearGradient><linearGradient id="icon-548ee8946520a38e__paint7_linear_56017_803" x1="10.7659" y1="23.2797" x2="18.6997" y2="27.316" gradientUnits="userSpaceOnUse"><stop stop-color="#A1ECFF" stop-opacity="0"/><stop offset="0.9" stop-color="#A1ECFF" stop-opacity="0.9"/></linearGradient><clipPath id="icon-a37cb10a847bdf3a__clip0_56017_803"><rect width="48" height="48" fill="white"/></clipPath></defs></svg>