<svg xmlns="http://www.w3.org/2000/svg" width="32" height="32" fill="currentColor"><path d="M5 7c0-2.76 4.925-5 11-5s11 2.24 11 5c0 2.762-4.925 5-11 5S5 9.763 5 7Z"/><path d="M16 14c3.256 0 6.3-.595 8.606-1.643.823-.374 1.668-.865 2.394-1.48v9.295a3 3 0 0 0-3.121.707l-.009.009a5.1 5.1 0 0 0-5.743 0A5.074 5.074 0 0 0 15.268 20c-.061 0-.183.003-.277.005l-.123.003a4.346 4.346 0 0 0-4.343 4.075v.178c-.002.608.14 1.209.412 1.753a3.007 3.007 0 0 0 .347 3.505C7.568 28.716 5 26.995 5 25V10.876c.726.615 1.571 1.106 2.394 1.48C9.7 13.405 12.744 14 16 14Z"/><path d="M15.022 22.011a3.054 3.054 0 0 1 2.118.622.998.998 0 0 1-.098 1.675 1 1 0 0 1-1.121-.09 1.057 1.057 0 0 0-.771-.21l-.116.014-.115-.013a.344.344 0 0 0-.267.08.335.335 0 0 0-.106.15.754.754 0 0 0 .068.047c.217.114.448.2.687.255l.068.02c.38.091.747.235 1.088.428a2.01 2.01 0 0 1 1.021 1.76 2.108 2.108 0 0 1-.9 1.822c-.45.285-.974.431-1.506.421a3.1 3.1 0 0 1-2.173-.685 1 1 0 0 1 1.261-1.553 1.1 1.1 0 0 0 .784.241h.085c.1.002.201-.008.3-.029a.41.41 0 0 0 .128-.047.41.41 0 0 0 .023-.167v-.008a.402.402 0 0 0-.059-.042c-.087-.049-.18-.089-.275-.119a4.517 4.517 0 0 0-.25-.075l-.136-.038-.034-.009a4.627 4.627 0 0 1-1.148-.46 2.014 2.014 0 0 1-1.045-1.742v-.069a2.346 2.346 0 0 1 2.489-2.179ZM18.9 22.82A3.066 3.066 0 0 1 21 22c.779-.003 1.53.29 2.1.82a2.816 2.816 0 0 1 .9 2.055v1.25c0 .287-.045.572-.132.845l.308.23a1 1 0 1 1-1.2 1.6l-.347-.26c-.49.302-1.054.461-1.629.46a3.066 3.066 0 0 1-2.1-.82 2.816 2.816 0 0 1-.9-2.055v-1.25a2.817 2.817 0 0 1 .9-2.055Zm2.434 2.71a1 1 0 0 1 .666.064v-.719a.817.817 0 0 0-.27-.6 1.095 1.095 0 0 0-1.46 0 .816.816 0 0 0-.27.6v1.25a.817.817 0 0 0 .27.6c.118.11.26.19.416.234a.999.999 0 0 1 .09-1.058 1 1 0 0 1 .558-.37ZM27 23a1 1 0 0 0-2 0v4.992a1 1 0 0 0 1 1L29 29a1 1 0 0 0 0-2l-2-.006V23Z"/></svg>