<svg xmlns="http://www.w3.org/2000/svg" width="16" height="16" fill="currentColor"><path d="M10.042 1H1.875a.875.875 0 0 0-.848 1.081c.027.085 1.622 5.07 2.45 7.651a.876.876 0 0 0 .831.602h1.814l.554 1.726a.875.875 0 0 0 .834.607h1.812l.552 1.72a.875.875 0 0 0 .835.613h.208C13.172 15 15 13.955 15 12.667V3.833C15 2.268 13.001 1 10.042 1ZM2.051 2h7.99c2.445 0 3.958.952 3.958 1.833 0 .507-.483 1.018-1.333 1.373v-.29c0-.962-.933-1.582-2.084-1.582H5.075a.875.875 0 0 0-.834 1.139l1.56 4.861H4.399L2.051 2Zm3.19 2.333h5.342c.533 0 1.084.218 1.084.582v.597a8.193 8.193 0 0 1-1.625.154H8.276a.875.875 0 0 0-.833 1.144l1.558 4.856H7.6L5.241 4.333ZM10.917 14H10.8L8.441 6.667h1.601c1.741 0 3.102-.427 3.958-1.081v7.081C14 13.198 12.77 14 10.917 14Z"/></svg>