<svg xmlns="http://www.w3.org/2000/svg" width="16" height="16" fill="currentColor"><path d="M5.735 4.23a2.5 2.5 0 0 1 4.268 1.743l.004.059a.755.755 0 0 1-.004.138 2.69 2.69 0 0 1-1.015 1.794.75.75 0 0 1-.086.058l-1.627.94a1.34 1.34 0 0 0-.586.533l-.002.004h2.566a.75.75 0 1 1 0 1.5h-3.5a.75.75 0 0 1-.75-.725 2.84 2.84 0 0 1 1.538-2.62l1.56-.901a1.19 1.19 0 0 0 .404-.705v-.003A.745.745 0 0 1 8.503 6a1 1 0 1 0-2 0 .75.75 0 0 1-1.5 0 2.5 2.5 0 0 1 .732-1.768ZM2.488 5.652l-.34.227a.75.75 0 0 1-.832-1.248l.006-.005 1.5-1a.75.75 0 0 1 1.166.624v6a.75.75 0 1 1-1.5 0V5.653ZM11.159 4.16A2.25 2.25 0 0 1 15 5.75a.75.75 0 0 1-1.5 0 .75.75 0 1 0-.75.75 2.25 2.25 0 1 1-2.25 2.25.75.75 0 0 1 1.5 0 .75.75 0 1 0 .75-.75 2.25 2.25 0 0 1-1.591-3.84Z"/></svg>