<svg xmlns="http://www.w3.org/2000/svg" width="16" height="16" fill="currentColor"><path fill-rule="evenodd" d="m6.862 15.003.283-.473 3.598-6.01 2.7-4.51a.62.62 0 0 0 .082-.312.6.6 0 0 0-.338-.553L8.27 1.061a.736.736 0 0 0-.583-.004L3.022 2.97l4.4 2.182a.927.927 0 0 1 .476.815.935.935 0 0 1-.203.589l-5.166 5.786c-.2.248-.18.625.046.844a.51.51 0 0 0 .154.107l4.133 1.71ZM5.025 8.044l1.42-1.589-.001-.003a.475.475 0 0 0-.094-.716L2.748 3.95a.65.65 0 0 0 .064.47l2.213 3.624Zm3.353 6.374 3.04-5.076 2.215 2.7a.637.637 0 0 1-.047.848.518.518 0 0 1-.156.108l-4.592 1.986a.393.393 0 0 1-.39-.119.423.423 0 0 1-.07-.447Z" clip-rule="evenodd"/></svg>