<svg xmlns="http://www.w3.org/2000/svg" width="20" height="20" fill="currentColor"><path fill-rule="evenodd" d="m15.516 17.485-11.512.004a1.995 1.995 0 0 1-1.427-.598A1.99 1.99 0 0 1 2 15.488l.004-7.784c0-.24.128-.451.316-.567 1.576-.97 5.468-3.371 7.328-4.521a.675.675 0 0 1 .696-.012l3.06 1.888.003.002h.001c1.64 1.012 3.36 2.073 4.28 2.643A.657.657 0 0 1 18 7.7V15.046a2.498 2.498 0 0 1-2.484 2.439Zm-2.01-.996a2.485 2.485 0 0 1-.5-1.443H13v-4.028L8 7.93l-4.996 3.084v1.956l2.644-1.633a.669.669 0 0 1 .704 0s1.816 1.123 3.328 2.053c.192.116.32.328.32.567v1.53c0 .363.097.704.267.997l3.24.004ZM14 14.987v-4.156a.66.66 0 0 0-.324-.571L8.352 6.973a.669.669 0 0 0-.704 0L3.004 9.84V7.89c1.615-.995 5.147-3.174 7.002-4.32l2.865 1.768.008.005.006.004.004.002.001.001.008.005L17 7.887v7.118a1.498 1.498 0 0 1-2.995-.018H14ZM4 16.485h5.17a2.988 2.988 0 0 1-.17-.997v-1.341l-3-1.85-2.996 1.849v1.346a.993.993 0 0 0 .996.993Z" clip-rule="evenodd"/></svg>