<svg xmlns="http://www.w3.org/2000/svg" width="16" height="16" fill="currentColor"><path d="M10.717 1.033a.75.75 0 0 1 .502.935l-3.469 11.5a.75.75 0 1 1-1.436-.434l3.469-11.5a.75.75 0 0 1 .934-.501ZM3.75 4c-1.027 0-1.77.488-2.212 1.255C1.129 5.965 1 6.87 1 7.751c0 .88.129 1.786.538 2.495.441.768 1.185 1.255 2.212 1.255 1.027 0 1.77-.487 2.213-1.255.408-.71.537-1.614.537-2.495s-.129-1.786-.537-2.496C5.52 4.488 4.777 4.001 3.75 4.001ZM2.5 7.75c0-.775.121-1.37.337-1.746.184-.319.44-.503.913-.503.473 0 .73.184.912.503.217.376.338.97.338 1.747 0 .776-.121 1.371-.338 1.747-.183.318-.44.503-.912.503-.473 0-.73-.185-.913-.503-.216-.376-.337-.971-.337-1.747ZM12.647 6.379l.34-.227v4.599a.75.75 0 1 0 1.5 0v-6a.75.75 0 0 0-1.165-.624l-1.5 1-.006.004a.75.75 0 0 0 .831 1.248Z"/></svg>