<svg xmlns="http://www.w3.org/2000/svg" width="32" height="32" fill="currentColor"><path fill-rule="evenodd" d="M4.002 21.128a.333.333 0 0 1-.088-.227v-9.657c0-.088.033-.171.093-.232l6.697-6.892a.306.306 0 0 1 .22-.094h9.402c-1.03 1.68-2.67 3.845-5.089 5.745-3.723 2.926-5.959 4.997-7.34 6.79-1.471 1.909-1.939 3.459-2.285 5.12-.069.332-.121.67-.153 1.011l-1.457-1.564Zm4.85 8.146-6.504-7.046c-.391-.42-.39-.683-.39-1.236v-9.748c0-.633.244-1.24.676-1.685L9.33 2.668a2.22 2.22 0 0 1 1.593-.682h10.89c.847 0 1.402.869 1.002 1.647C21.844 5.52 19.85 8.7 16.414 11.4a92.701 92.701 0 0 0-2.955 2.41l1.67 2.642c.716 1.122 1.484 1.968 2.373 2.677 5.96-3.516 9.131-8.294 9.131-8.294 1.178-1.734 3.325-.558 3.325 1.295v7.62a2.681 2.681 0 0 1-.788 1.757l-5.23 5.256-.008-.007-2.609 2.57c-.419.409-.972.658-1.546.66h-9.298a2.222 2.222 0 0 1-1.627-.713Zm-1.329-7.16c.458-2.195 1.061-3.844 4.436-6.971l1.542 2.44c1.631 2.558 3.528 3.9 5.96 5.104 1.568.775 3.322 1.002 4.822.9l-4.298 4.252a.34.34 0 0 1-.212.107h-9.298a.306.306 0 0 1-.223-.097h-.001l-2.547-2.735-.01-.023c-.382-.932-.388-1.935-.17-2.977Zm11.84-1.759c.298.165.61.327.936.488 2.056 1.018 4.389.825 5.985.294.256-.085.492-.178.706-.277l.386-.186c.384-.185.627-.573.627-.999v-7.34l-.084.116c-.196.267-.483.642-.857 1.096a33.159 33.159 0 0 1-3.3 3.444 32.955 32.955 0 0 1-4.4 3.364Z" clip-rule="evenodd"/></svg>