<svg xmlns="http://www.w3.org/2000/svg" width="40" height="40" fill="currentColor"><path fill="url(#icon-5f4edc59a6b2d18d__icon-4709ceb6a8f1d4bb__a)" d="M4 8a4 4 0 0 1 4-4h24a4 4 0 0 1 4 4v24a4 4 0 0 1-4 4H8a4 4 0 0 1-4-4V8Z"/><path fill="url(#icon-cb610a96669e191f__icon-35a3137aa17476c6__b)" fill-opacity=".2" d="M4 8a4 4 0 0 1 4-4h24a4 4 0 0 1 4 4v24a4 4 0 0 1-4 4H8a4 4 0 0 1-4-4V8Z"/><path fill="url(#icon-784575763362b523__icon-18417471bdb3ae64__c)" fill-rule="evenodd" d="M32 5H8a3 3 0 0 0-3 3v24a3 3 0 0 0 3 3h24a3 3 0 0 0 3-3V8a3 3 0 0 0-3-3ZM8 4a4 4 0 0 0-4 4v24a4 4 0 0 0 4 4h24a4 4 0 0 0 4-4V8a4 4 0 0 0-4-4H8Z" clip-rule="evenodd"/><path fill="url(#icon-8a63a665fc4771ab__icon-dfd7a0fa9c98713e__d)" d="M19 15a3 3 0 0 1-2.5 2.959V20H22a1.5 1.5 0 0 0 1.5-1.5v-.541a3 3 0 1 1 1 0v.541A2.5 2.5 0 0 1 22 21h-5.5v1.041a3 3 0 1 1-1 0V17.96A3 3 0 1 1 19 15Z"/><defs><linearGradient id="icon-5f4edc59a6b2d18d__icon-4709ceb6a8f1d4bb__a" x1="12.889" x2="16.937" y1="4" y2="36.383" gradientUnits="userSpaceOnUse"><stop stop-color="#fff"/><stop offset="1" stop-color="#EBEBEB"/></linearGradient><linearGradient id="icon-784575763362b523__icon-18417471bdb3ae64__c" x1="14.333" x2="18.642" y1="4" y2="36.314" gradientUnits="userSpaceOnUse"><stop stop-color="#BBB"/><stop offset="1" stop-color="#888"/></linearGradient><linearGradient id="icon-8a63a665fc4771ab__icon-dfd7a0fa9c98713e__d" x1="13" x2="28.858" y1="12" y2="25.876" gradientUnits="userSpaceOnUse"><stop stop-color="#7751B8"/><stop offset="1" stop-color="#5A409C"/></linearGradient><radialGradient id="icon-cb610a96669e191f__icon-35a3137aa17476c6__b" cx="0" cy="0" r="1" gradientTransform="rotate(56.31 -4.411 19.454) scale(30.4469 26.3483)" gradientUnits="userSpaceOnUse"><stop offset=".177" stop-color="#fff"/><stop offset="1" stop-color="#B8B8B8"/></radialGradient></defs></svg>