<svg xmlns="http://www.w3.org/2000/svg" width="32" height="32" fill="currentColor"><path fill="url(#icon-36165c183b71ffce__icon-366a4ad271b43e24__a)" d="M26.503 29.102a3.5 3.5 0 0 0 3.5-3.495V11.976c0-.42-.216-.783-.545-.986-2.759-1.705-9.606-5.927-12.854-7.934a1.15 1.15 0 0 0-.595-.16c-.231 0-.441.07-.623.181C12.13 5.09 5.318 9.292 2.56 10.99a1.169 1.169 0 0 0-.553.993v13.631a3.5 3.5 0 0 0 3.5 3.495H26.51l-.007-.007Z"/><path fill="url(#icon-30fecd4be471ff31__icon-ee97a19f7b42fa34__b)" d="M2 17.784v7.822a3.5 3.5 0 0 0 3.5 3.496h21.003a3.5 3.5 0 0 0 3.5-3.496v-7.822H2Z"/><path fill="url(#icon-4dd9a9d0c40ff4a1__icon-e4a140aa1d9d3a94__c)" d="M5.5 29.102A3.5 3.5 0 0 1 2 25.607v-8.151c0-.427.231-.797.567-1l9.318-5.753a1.17 1.17 0 0 1 1.233 0l9.318 5.753c.343.203.567.573.567 1v8.15a3.5 3.5 0 0 0 3.5 3.496H5.5Z"/><path fill="url(#icon-c9c9e9f07e8b7124__icon-4121c093efac302c__d)" d="M5.5 29.102A3.5 3.5 0 0 1 2 25.607v-8.151c0-.427.231-.797.567-1l9.318-5.753a1.17 1.17 0 0 1 1.233 0l9.318 5.753c.343.203.567.573.567 1v8.15a3.5 3.5 0 0 0 3.5 3.496H5.5Z"/><path fill="url(#icon-c796614c8bf526a1__icon-12623308004812ec__e)" d="M23.003 25.606v-7.822H2v7.822a3.5 3.5 0 0 0 3.5 3.496h21.003a3.5 3.5 0 0 1-3.5-3.496Z"/><path fill="url(#icon-8ee006fc0fef481e__icon-baead6e2a7b47e67__f)" d="M5.5 29.102A3.5 3.5 0 0 1 2 25.607v-2.67c0-.42.224-.784.553-.993l5.832-3.6a1.17 1.17 0 0 1 1.232 0s3.178 1.964 5.825 3.593c.336.202.56.573.56.992v2.678a3.5 3.5 0 0 0 3.5 3.495H5.5Z"/><path fill="url(#icon-cfabd92205cd432e__icon-9cb8285885e79274__g)" d="M16.583 27.536a3.477 3.477 0 0 1-.581-1.923v-2.677c0-.42-.224-.79-.56-.992-2.646-1.63-5.825-3.593-5.825-3.593a1.17 1.17 0 0 0-1.232 0l-5.832 3.6a1.169 1.169 0 0 0-.553.992v2.67a3.5 3.5 0 0 0 .581 1.93h14.002v-.007Z"/><defs><linearGradient id="icon-36165c183b71ffce__icon-366a4ad271b43e24__a" x1="16.002" x2="16.002" y1="29.102" y2="2.889" gradientUnits="userSpaceOnUse"><stop stop-color="#114A85"/><stop offset=".67" stop-color="#028EDB"/></linearGradient><linearGradient id="icon-30fecd4be471ff31__icon-ee97a19f7b42fa34__b" x1="16.002" x2="16.002" y1="30.304" y2="18.986" gradientUnits="userSpaceOnUse"><stop stop-opacity=".2"/><stop offset=".55" stop-opacity="0"/></linearGradient><linearGradient id="icon-4dd9a9d0c40ff4a1__icon-e4a140aa1d9d3a94__c" x1="14.252" x2="14.252" y1="29.102" y2="10.528" gradientUnits="userSpaceOnUse"><stop offset=".31" stop-color="#0094E5"/><stop offset="1" stop-color="#40D8F9"/></linearGradient><linearGradient id="icon-c796614c8bf526a1__icon-12623308004812ec__e" x1="14.252" x2="14.252" y1="29.102" y2="17.784" gradientUnits="userSpaceOnUse"><stop offset=".09" stop-opacity=".2"/><stop offset=".55" stop-opacity="0"/></linearGradient><linearGradient id="icon-8ee006fc0fef481e__icon-baead6e2a7b47e67__f" x1="10.751" x2="10.751" y1="29.109" y2="18.169" gradientUnits="userSpaceOnUse"><stop stop-color="#3CC5EE"/><stop offset="1" stop-color="#50E0FF"/></linearGradient><linearGradient id="icon-cfabd92205cd432e__icon-9cb8285885e79274__g" x1="9.288" x2="9.288" y1="25.851" y2="16.484" gradientUnits="userSpaceOnUse"><stop stop-color="#A1ECFF" stop-opacity="0"/><stop offset=".9" stop-color="#A1ECFF" stop-opacity=".9"/></linearGradient><radialGradient id="icon-c9c9e9f07e8b7124__icon-4121c093efac302c__d" cx="0" cy="0" r="1" gradientTransform="matrix(10.2844 0 0 10.2689 9.547 26.683)" gradientUnits="userSpaceOnUse"><stop stop-opacity=".3"/><stop offset="1" stop-opacity="0"/></radialGradient></defs></svg>