<svg xmlns="http://www.w3.org/2000/svg" width="20" height="20" fill="currentColor"><path d="M5 3.001a2 2 0 0 0-2 2v10a2 2 0 0 0 4 0v-10a2 2 0 0 0-2-2Zm-1 2a1 1 0 1 1 2 0v10a1 1 0 1 1-2 0v-10ZM8 8.001a2 2 0 1 1 4 0v1.6a5.508 5.508 0 0 0-1 .657V8.001a1 1 0 1 0-2 0v7c0 .127.024.248.067.36.089.565.263 1.101.51 1.595A2 2 0 0 1 8 15.001v-7Z"/><path d="M10 14.501a4.5 4.5 0 1 0 9 0 4.5 4.5 0 0 0-9 0Zm1 0a3.5 3.5 0 0 1 5.596-2.803l-4.9 4.9A3.485 3.485 0 0 1 11 14.5Zm3.5 3.5c-.786 0-1.512-.26-2.096-.697l4.9-4.9A3.5 3.5 0 0 1 14.5 18Z"/></svg>