<svg xmlns="http://www.w3.org/2000/svg" width="32" height="32" fill="currentColor"><path fill-rule="evenodd" d="M9.606 2.45c.383-.293.848-.45 1.334-.45h10.91c.85 0 1.4.87 1 1.65l-.004.008c-1.69 3.271-4.16 5.89-6.946 8.182-.946.733-1.752 1.387-2.484 1.914a98.072 98.072 0 0 1-3.186 2.206c-.17.115-.342.229-.514.343-.342.228-.684.456-1.022.69-.79.544-1.556 1.117-2.244 1.787-1.416 1.376-2.454 3.328-2.41 5.341L2.47 22.37c-.3-.409-.466-.913-.466-1.439v-9.75c.008-.262.061-.518.151-.76a2.521 2.521 0 0 1 .559-.88l6.892-7.09ZM6.48 26.13a6.724 6.724 0 0 1-.233-.599c-.349-1.05-.399-2.16.163-3.251.47-.91.81-1.43 1.13-1.8.31-.37.67-.68 1.27-1.11.31-.22.69-.48 1.14-.78.838-.56 2.615-1.786 4.516-3.173l.664 1.053.149.231a18.223 18.223 0 0 0 2.038 2.84c2.226 2.572 5.35 4.91 8.44 5.426.425.07.849.107 1.27.106L23.612 29.1c-.443.518-1.013.825-1.61.878l-.122.012h-11.4c-.61 0-1.2-.25-1.63-.71-.057-.074-1.437-1.568-1.51-1.67-.26-.37-.59-.88-.86-1.48Zm19.852-3.074c.425.1.829.148 1.204.136.64-.022 1.196-.22 1.624-.637.492-.606.799-1.469.838-2.332v-7.242c0-1.283-.626-2.338-1.452-2.784a1.74 1.74 0 0 0-1.396-.133c-.284.093-.55.264-.787.503a30.382 30.382 0 0 1-7.263 7.739c2.14 2.215 4.976 4.217 7.232 4.75Z" clip-rule="evenodd"/></svg>