<svg xmlns="http://www.w3.org/2000/svg" width="28" height="28" fill="currentColor"><path fill="url(#icon-0c193c6ece775efa__icon-d6fbe44c586365da__a)" d="M8.935 26.002a.819.819 0 0 1-.808-.936c1.066-7.218 7.252-12.565 14.534-12.565h1.473c1.006 0 1.743-.6 1.743-1.608l.084-.396V17.5a1.996 1.996 0 0 1-1.994 1.998h-.827a6.99 6.99 0 0 0-6.677 4.944l-.264.852c-.131.42-.515.708-.952.708H8.935Z"/><path fill="url(#icon-ed30cfd16601c264__icon-c6e8b8e04c5ff890__b)" d="M8.935 26.002a.819.819 0 0 1-.808-.936c1.066-7.218 7.252-12.565 14.534-12.565h1.473c1.006 0 1.743-.6 1.743-1.608l.084-.396V17.5a1.996 1.996 0 0 1-1.994 1.998h-.827a6.99 6.99 0 0 0-6.677 4.944l-.264.852c-.131.42-.515.708-.952.708H8.935Z"/><path fill="url(#icon-9c398b07b068ff1a__icon-b502b8ae4b36e2d4__c)" d="M3 18.004c-.55 0-1-.45-1-1.002v-6c0-.553.45-1.003 1-1.003h17.966c.551 0 1 .45 1 1.002v6c0 .553-.449 1.003-1 1.003H3Z"/><path fill="url(#icon-716c2536b3e010a2__icon-93777563eae6e1e4__d)" d="M3 18.004c-.55 0-1-.45-1-1.002v-6c0-.553.45-1.003 1-1.003h17.966c.551 0 1 .45 1 1.002v6c0 .553-.449 1.003-1 1.003H3Z"/><path fill="url(#icon-f27dcb7b78537abf__icon-90442fbdeac3bed1__e)" d="M8.947 2a.832.832 0 0 0-.82.948c1.065 7.35 7.354 12.8 14.768 12.8h1.24c1.005 0 1.82.815 1.82 1.823v-7.068a1.995 1.995 0 0 0-1.994-1.998h-.827a6.99 6.99 0 0 1-6.677-4.945l-.264-.852A1.001 1.001 0 0 0 15.241 2H8.947Z"/><path fill="url(#icon-84763be747391317__icon-3fa40a5c358f211d__f)" d="M23.96 8.499h-.826c-1.42 0-2.761-.432-3.881-1.188v7.98c1.168.294 2.39.456 3.647.456h1.24c1.006 0 1.82.816 1.82 1.825v-7.07a1.996 1.996 0 0 0-1.994-1.997l-.006-.006Z" opacity=".4"/><path fill="url(#icon-b0650665019a5677__icon-a3dc9f881a874cd0__g)" d="M8.995 2a.832.832 0 0 0-.82.948c1.065 7.35 7.353 12.8 14.767 12.8h1.24c1.006 0 1.82.815 1.82 1.823v-7.068a1.995 1.995 0 0 0-1.994-1.998h-.826a6.99 6.99 0 0 1-6.678-4.945l-.263-.852A1.001 1.001 0 0 0 15.289 2H8.995Z" opacity=".7"/><defs><linearGradient id="icon-0c193c6ece775efa__icon-d6fbe44c586365da__a" x1="9.528" x2="26.095" y1="27.178" y2="10.644" gradientUnits="userSpaceOnUse"><stop offset=".26" stop-color="#0D7012"/><stop offset="1" stop-color="#085714"/></linearGradient><linearGradient id="icon-ed30cfd16601c264__icon-c6e8b8e04c5ff890__b" x1="34.052" x2="2.617" y1="15.268" y2="22.238" gradientUnits="userSpaceOnUse"><stop offset=".04" stop-color="#114A8A"/><stop offset="1" stop-color="#0C59A3" stop-opacity="0"/></linearGradient><linearGradient id="icon-9c398b07b068ff1a__icon-b502b8ae4b36e2d4__c" x1="-10.516" x2="21.349" y1="14.001" y2="14.001" gradientUnits="userSpaceOnUse"><stop stop-color="#107C10"/><stop offset=".96" stop-color="#56B50E"/></linearGradient><linearGradient id="icon-f27dcb7b78537abf__icon-90442fbdeac3bed1__e" x1="27.099" x2="11.583" y1="22.198" y2=".079" gradientUnits="userSpaceOnUse"><stop offset=".04" stop-color="#33980F"/><stop offset="1" stop-color="#BAE884"/></linearGradient><linearGradient id="icon-84763be747391317__icon-3fa40a5c358f211d__f" x1="22.277" x2="25.882" y1="12.441" y2="12.441" gradientUnits="userSpaceOnUse"><stop stop-color="#E5FAC1" stop-opacity="0"/><stop offset=".56" stop-color="#E5FAC1" stop-opacity=".52"/><stop offset="1" stop-color="#E5FAC1"/></linearGradient><linearGradient id="icon-b0650665019a5677__icon-a3dc9f881a874cd0__g" x1="7.366" x2="16.724" y1="-9.347" y2="6.82" gradientUnits="userSpaceOnUse"><stop offset=".14" stop-color="#FDE100"/><stop offset=".98" stop-color="#FFC600" stop-opacity="0"/></linearGradient><radialGradient id="icon-716c2536b3e010a2__icon-93777563eae6e1e4__d" cx="0" cy="0" r="1" gradientTransform="rotate(-56.322 20.804 -10.355) scale(6.09883 15.5402)" gradientUnits="userSpaceOnUse"><stop stop-opacity=".3"/><stop offset="1" stop-opacity="0"/></radialGradient></defs></svg>