<svg xmlns="http://www.w3.org/2000/svg" width="32" height="32" fill="currentColor"><path d="M27 7c0-2.76-4.925-5-11-5S5 4.24 5 7v18c0 1.995 2.568 3.716 6.284 4.519a3.007 3.007 0 0 1-.744-2.253 11.73 11.73 0 0 1-1.49-.55C7.192 25.87 7 25.114 7 25V9.876c1.99 1.285 5.28 2.125 9 2.125 3.72 0 7.01-.84 9-2.125v10.296a3 3 0 0 1 2 0V7Zm-2 0c0 .115-.193.872-2.05 1.715-1.675.762-4.13 1.286-6.95 1.286-2.82 0-5.275-.524-6.95-1.286C7.192 7.872 7 7.115 7 7c0-.114.193-.87 2.05-1.714C10.724 4.524 13.18 4 16 4c2.82 0 5.275.524 6.95 1.286C24.808 6.129 25 6.886 25 7Z"/><path d="M15.022 22.011a3.054 3.054 0 0 1 2.118.622.998.998 0 0 1-.098 1.675 1 1 0 0 1-1.121-.09 1.057 1.057 0 0 0-.771-.21l-.116.014-.115-.013a.344.344 0 0 0-.267.08.335.335 0 0 0-.106.15.754.754 0 0 0 .068.047c.217.114.448.2.687.255l.068.02c.38.091.747.235 1.088.428a2.01 2.01 0 0 1 1.021 1.76 2.108 2.108 0 0 1-.9 1.822c-.45.285-.974.431-1.506.421a3.1 3.1 0 0 1-2.173-.685 1 1 0 0 1 1.261-1.553 1.1 1.1 0 0 0 .784.241h.085c.1.002.201-.008.3-.029a.41.41 0 0 0 .128-.047.41.41 0 0 0 .023-.167v-.008a.402.402 0 0 0-.059-.042c-.087-.049-.18-.089-.275-.119a4.517 4.517 0 0 0-.25-.075l-.136-.038-.034-.009a4.627 4.627 0 0 1-1.148-.46 2.014 2.014 0 0 1-1.045-1.742v-.069a2.346 2.346 0 0 1 2.489-2.179ZM21 22a3.066 3.066 0 0 0-2.1.82 2.816 2.816 0 0 0-.9 2.055v1.25a2.817 2.817 0 0 0 .9 2.055c.57.53 1.321.824 2.1.82.575.001 1.14-.158 1.629-.46l.347.26a1 1 0 0 0 1.2-1.6l-.308-.23c.087-.273.132-.558.132-.845v-1.25a2.817 2.817 0 0 0-.9-2.055A3.066 3.066 0 0 0 21 22Zm-.224 3.9a1 1 0 0 0-.09 1.06 1.022 1.022 0 0 1-.416-.235.816.816 0 0 1-.27-.6v-1.25a.817.817 0 0 1 .27-.6 1.095 1.095 0 0 1 1.46 0 .816.816 0 0 1 .27.6v.72a1 1 0 0 0-1.224.306ZM26.707 22.293A1 1 0 0 1 27 23v3.994L29 27a1 1 0 1 1 0 2l-3-.008a1 1 0 0 1-1-1V23a1 1 0 0 1 1.707-.707Z"/></svg>