<svg xmlns="http://www.w3.org/2000/svg" width="32" height="32" fill="currentColor"><path fill="url(#icon-68f2c7f5895ed303__icon-c74ca3f912807b21__a)" d="M10.09 29.997a.955.955 0 0 1-.944-1.091c1.244-8.42 8.46-14.657 16.954-14.657h1.719c1.173 0 2.033-.7 2.033-1.876l.097-.462v8.168c0 1.288-1.04 2.331-2.326 2.331h-.964a8.153 8.153 0 0 0-7.789 5.768l-.307.994c-.154.49-.6.825-1.11.825h-7.364Z"/><path fill="url(#icon-3b355ccb5237a530__icon-133ca615e801ec23__b)" d="M10.09 29.997a.955.955 0 0 1-.944-1.091c1.244-8.42 8.46-14.657 16.954-14.657h1.719c1.173 0 2.033-.7 2.033-1.876l.097-.462v8.168c0 1.288-1.04 2.331-2.326 2.331h-.964a8.153 8.153 0 0 0-7.789 5.768l-.307.994c-.154.49-.6.825-1.11.825h-7.364Z"/><path fill="url(#icon-b83c3a8203d4bdf3__icon-64cbd9dc96d0e3f1__c)" d="M3.167 20.667A1.17 1.17 0 0 1 2 19.498V12.5a1.17 1.17 0 0 1 1.167-1.169h20.956A1.17 1.17 0 0 1 25.29 12.5v7a1.17 1.17 0 0 1-1.167 1.168H3.167Z"/><path fill="url(#icon-23dccc6990bb4719__icon-d5c641426eda6ad4__d)" d="M3.167 20.667A1.17 1.17 0 0 1 2 19.498V12.5a1.17 1.17 0 0 1 1.167-1.169h20.956A1.17 1.17 0 0 1 25.29 12.5v7a1.17 1.17 0 0 1-1.167 1.168H3.167Z"/><path fill="url(#icon-9f3c8eb33a5111d9__icon-a5127c71abfe1266__e)" d="M10.103 2a.97.97 0 0 0-.957 1.106c1.244 8.574 8.578 14.93 17.227 14.93h1.446c1.173 0 2.123.951 2.123 2.127v-8.245c0-1.288-1.04-2.33-2.326-2.33h-.964a8.153 8.153 0 0 1-7.789-5.768l-.307-.994c-.154-.49-.601-.826-1.11-.826h-7.343Z"/><path fill="url(#icon-6f62ffed7f663519__icon-1937e46e13e25902__f)" d="M27.616 9.58h-.964a8.077 8.077 0 0 1-4.527-1.386v9.31c1.362.342 2.787.531 4.254.531h1.446c1.174 0 2.124.952 2.124 2.128v-8.245c0-1.288-1.041-2.33-2.326-2.33l-.007-.008Z" opacity=".4"/><path fill="url(#icon-086d5b3373cde1c2__icon-78e8b43821dc25c4__g)" d="M10.158 2a.97.97 0 0 0-.957 1.106c1.244 8.574 8.579 14.93 17.227 14.93h1.446c1.173 0 2.123.951 2.123 2.127v-8.245c0-1.288-1.04-2.33-2.326-2.33h-.964a8.153 8.153 0 0 1-7.789-5.768l-.307-.994c-.154-.49-.6-.826-1.11-.826h-7.343Z" opacity=".7"/><defs><linearGradient id="icon-68f2c7f5895ed303__icon-c74ca3f912807b21__a" x1="10.781" x2="30.106" y1="31.369" y2="12.082" gradientUnits="userSpaceOnUse"><stop offset=".26" stop-color="#0D7012"/><stop offset="1" stop-color="#085714"/></linearGradient><linearGradient id="icon-3b355ccb5237a530__icon-133ca615e801ec23__b" x1="39.387" x2="2.72" y1="17.476" y2="25.606" gradientUnits="userSpaceOnUse"><stop offset=".04" stop-color="#114A8A"/><stop offset="1" stop-color="#0C59A3" stop-opacity="0"/></linearGradient><linearGradient id="icon-b83c3a8203d4bdf3__icon-64cbd9dc96d0e3f1__c" x1="-12.6" x2="24.57" y1="15.999" y2="15.999" gradientUnits="userSpaceOnUse"><stop stop-color="#107C10"/><stop offset=".96" stop-color="#56B50E"/></linearGradient><linearGradient id="icon-9f3c8eb33a5111d9__icon-a5127c71abfe1266__e" x1="31.276" x2="13.178" y1="25.56" y2="-.241" gradientUnits="userSpaceOnUse"><stop offset=".04" stop-color="#33980F"/><stop offset="1" stop-color="#BAE884"/></linearGradient><linearGradient id="icon-6f62ffed7f663519__icon-1937e46e13e25902__f" x1="25.653" x2="29.858" y1="14.179" y2="14.179" gradientUnits="userSpaceOnUse"><stop stop-color="#E5FAC1" stop-opacity="0"/><stop offset=".56" stop-color="#E5FAC1" stop-opacity=".52"/><stop offset="1" stop-color="#E5FAC1"/></linearGradient><linearGradient id="icon-086d5b3373cde1c2__icon-78e8b43821dc25c4__g" x1="8.258" x2="19.174" y1="-11.236" y2="7.623" gradientUnits="userSpaceOnUse"><stop offset=".14" stop-color="#FDE100"/><stop offset=".98" stop-color="#FFC600" stop-opacity="0"/></linearGradient><radialGradient id="icon-23dccc6990bb4719__icon-d5c641426eda6ad4__d" cx="0" cy="0" r="1" gradientTransform="rotate(-56.322 23.79 -11.935) scale(7.11402 18.127)" gradientUnits="userSpaceOnUse"><stop stop-opacity=".3"/><stop offset="1" stop-opacity="0"/></radialGradient></defs></svg>