<svg xmlns="http://www.w3.org/2000/svg" width="32" height="32" fill="currentColor"><path fill-rule="evenodd" d="M27.662 9.588a2.33 2.33 0 0 1 2.33 2.33v.028l.008-.034v8.169a2.33 2.33 0 0 1-2.33 2.331h-.966A8.166 8.166 0 0 0 18.9 28.18l-.308.994A1.17 1.17 0 0 1 17.48 30h-7.376a.956.956 0 0 1-.945-1.092 17.115 17.115 0 0 1 3.598-8.24H3.169A1.17 1.17 0 0 1 2 19.5v-7a1.17 1.17 0 0 1 1.169-1.17h9.5a17.383 17.383 0 0 1-3.51-8.224A.97.97 0 0 1 10.118 2h7.355c.51 0 .959.336 1.113.826l.308.994a8.166 8.166 0 0 0 7.803 5.768h.965ZM14.5 13.331H4v5.338h19.332v-.905a17.42 17.42 0 0 1-8.833-4.433Zm13.494-1.412v4.12a4.494 4.494 0 0 0-.128-.002h-1.448A15.436 15.436 0 0 1 11.357 4h5.499l.126.409v.001a10.166 10.166 0 0 0 9.715 7.178h.965a.33.33 0 0 1 .33.33Z" clip-rule="evenodd"/></svg>