<svg xmlns="http://www.w3.org/2000/svg" width="24" height="24" fill="currentColor"><path d="M4 6c0-.69.315-1.293.774-1.78.455-.482 1.079-.882 1.793-1.202C7.996 2.378 9.917 2 12 2c2.083 0 4.004.377 5.433 1.018.714.32 1.338.72 1.793 1.203C19.685 4.707 20 5.31 20 6v8.895a2.005 2.005 0 0 0-.839.64 3.487 3.487 0 0 0-.661-.43V8.392c-.32.22-.68.417-1.067.59-1.429.64-3.35 1.018-5.433 1.018-2.083 0-4.004-.377-5.433-1.018a6.802 6.802 0 0 1-1.067-.59V18c0 .207.09.46.365.75.279.296.717.596 1.315.864a9.45 9.45 0 0 0 1.918.6 2.007 2.007 0 0 0 .132 1.553c-.995-.174-1.9-.442-2.663-.784-.714-.32-1.338-.72-1.793-1.203C4.315 19.294 4 18.691 4 18V6Zm1.5 0c0 .207.09.46.365.75.279.296.717.596 1.315.864C8.375 8.15 10.08 8.5 12 8.5c1.921 0 3.625-.35 4.82-.886.598-.268 1.036-.568 1.315-.863.275-.291.365-.544.365-.75 0-.207-.09-.46-.365-.75-.279-.296-.717-.596-1.315-.864C15.625 3.85 13.92 3.5 12 3.5c-1.921 0-3.625.351-4.82.887-.598.268-1.036.568-1.315.863-.275.291-.365.544-.365.75ZM21.5 16.75a.75.75 0 0 0-1.5 0v4.5c0 .415.336.75.75.75H23a.75.75 0 0 0 0-1.5h-1.5v-3.75Z"/><path d="M13.234 16.127a2.492 2.492 0 0 0-.797-.12 2.425 2.425 0 0 0-.41.006 2.25 2.25 0 0 0-.457.086c-.248.08-.475.212-.668.385a1.95 1.95 0 0 0-.459.616c-.11.233-.175.485-.191.742l-.002.024v.024c0 .714.423 1.167.81 1.42.35.23.746.35.945.41l.085.025c.218.066.377.114.505.198.058.038.08.066.09.082.006.01.021.036.021.105 0 .186-.057.247-.088.273-.048.04-.16.098-.368.098-.34 0-.587-.082-.755-.23a.75.75 0 1 0-.99 1.127c.533.469 1.185.602 1.745.602.464 0 .954-.125 1.342-.456.405-.346.614-.845.614-1.414 0-.71-.379-1.173-.788-1.441-.325-.213-.701-.324-.892-.38a9.084 9.084 0 0 1-.058-.017c-.22-.067-.429-.133-.586-.236a.401.401 0 0 1-.117-.104.084.084 0 0 1-.014-.042.532.532 0 0 1 .047-.166.45.45 0 0 1 .105-.143.355.355 0 0 1 .124-.073 1.373 1.373 0 0 1 .282-.027h.002l.042.005h.045c.19 0 .286.018.351.04a.86.86 0 0 1 .272.17.75.75 0 0 0 .958-1.154 2.335 2.335 0 0 0-.745-.435ZM17 16a2.17 2.17 0 0 0-1.621.747 2.55 2.55 0 0 0-.629 1.691v1.125c0 .62.218 1.23.629 1.692A2.17 2.17 0 0 0 17 22c.373 0 .73-.1 1.046-.278l.254.191a.75.75 0 0 0 .9-1.2l-.16-.12c.138-.323.21-.675.21-1.03v-1.125c0-.62-.218-1.23-.629-1.691A2.17 2.17 0 0 0 17 16Zm.45 3.4a.75.75 0 0 0-1.174.405 1.138 1.138 0 0 1-.026-.242v-1.125c0-.275.098-.524.25-.695a.672.672 0 0 1 .5-.242c.169 0 .35.074.5.242.152.17.25.42.25.695v1.125c0 .02 0 .041-.002.061l-.298-.223Z"/></svg>