<svg xmlns="http://www.w3.org/2000/svg" width="16" height="16" fill="currentColor"><path d="M9.397 1H1.875a.875.875 0 0 0-.848 1.081c.027.085 1.622 5.07 2.45 7.651a.876.876 0 0 0 .831.602h1.815L4.241 4.473a.875.875 0 0 1 .834-1.139h5.507c1.151 0 2.084.62 2.084 1.582v1.029c.865-.515 1.333-1.259 1.333-2.111 0-1.589-1.693-2.833-4.603-2.833L9.397 1Z"/><path d="m9.808 7.667 2.242 6.96a.525.525 0 0 0 .641.355c1.603-.417 2.31-1.276 2.31-2.315V3.833c0 1.861-1.605 3.743-5.193 3.834Z"/><path d="M11.667 6.378a7.284 7.284 0 0 1-2.024.289.874.874 0 0 0-.832 1.144l.577 1.797.983 3.059H8.558a.876.876 0 0 1-.83-.602C7.618 11.73 5.24 4.334 5.24 4.334h5.342c.533 0 1.084.218 1.084.582v1.462Z"/></svg>