<svg xmlns="http://www.w3.org/2000/svg" width="20" height="20" fill="currentColor"><path fill="url(#icon-9cc8d9c7b25541e0__icon-9f40b7be2b6daec2__a)" d="M1 4.5A2.5 2.5 0 0 1 3.5 2h13A2.5 2.5 0 0 1 19 4.5v11a2.5 2.5 0 0 1-2.5 2.5h-13A2.5 2.5 0 0 1 1 15.5v-11Z"/><path fill="url(#icon-27eb714a9d0e392b__icon-61811170e95f0c1c__b)" fill-opacity=".2" d="M1 4.5A2.5 2.5 0 0 1 3.5 2h13A2.5 2.5 0 0 1 19 4.5v11a2.5 2.5 0 0 1-2.5 2.5h-13A2.5 2.5 0 0 1 1 15.5v-11Z"/><path fill="url(#icon-20b3d964f30f198b__icon-063a46aba0e5b56d__c)" fill-rule="evenodd" d="M16.5 3h-13A1.5 1.5 0 0 0 2 4.5v11A1.5 1.5 0 0 0 3.5 17h13a1.5 1.5 0 0 0 1.5-1.5v-11A1.5 1.5 0 0 0 16.5 3Zm-13-1A2.5 2.5 0 0 0 1 4.5v11A2.5 2.5 0 0 0 3.5 18h13a2.5 2.5 0 0 0 2.5-2.5v-11A2.5 2.5 0 0 0 16.5 2h-13Z" clip-rule="evenodd"/><path fill="url(#icon-04ad2f5df1b2b70f__icon-90380cf801c69a85__d)" d="M8.5 11.5a.75.75 0 1 1-1.5 0 .75.75 0 0 1 1.5 0Z"/><path fill="url(#icon-7a83e41a83e09121__icon-1433af80d7adf5ae__e)" d="M10.75 11.5a.75.75 0 1 1-1.5 0 .75.75 0 0 1 1.5 0Z"/><path fill="url(#icon-7795675d5003b086__icon-5ec78b35f65ab4da__f)" d="M13 11.5a.75.75 0 1 1-1.5 0 .75.75 0 0 1 1.5 0Z"/><path fill="url(#icon-35c2b96c4f2e071c__icon-ed76883d4a2f0160__g)" fill-rule="evenodd" d="M5.2 5.341A1 1 0 0 1 5.954 5h8.093a1 1 0 0 1 .752.341l1.75 2c.566.647.107 1.659-.752 1.659H15v4.5a1.5 1.5 0 0 1-1.5 1.5h-7A1.5 1.5 0 0 1 5 13.5V9h-.797c-.859 0-1.318-1.012-.752-1.659l1.75-2ZM6 9v4.5a.5.5 0 0 0 .5.5h7a.5.5 0 0 0 .5-.5V9H6Z" clip-rule="evenodd"/><defs><linearGradient id="icon-9cc8d9c7b25541e0__icon-9f40b7be2b6daec2__a" x1="6" x2="7.805" y1="2" y2="18.244" gradientUnits="userSpaceOnUse"><stop stop-color="#fff"/><stop offset="1" stop-color="#EBEBEB"/></linearGradient><linearGradient id="icon-20b3d964f30f198b__icon-063a46aba0e5b56d__c" x1="6.813" x2="8.734" y1="2" y2="18.217" gradientUnits="userSpaceOnUse"><stop stop-color="#BBB"/><stop offset="1" stop-color="#888"/></linearGradient><linearGradient id="icon-04ad2f5df1b2b70f__icon-90380cf801c69a85__d" x1="3.201" x2="12.747" y1="5" y2="17.979" gradientUnits="userSpaceOnUse"><stop stop-color="#7751B8"/><stop offset="1" stop-color="#5A409C"/></linearGradient><linearGradient id="icon-7a83e41a83e09121__icon-1433af80d7adf5ae__e" x1="3.201" x2="12.747" y1="5" y2="17.979" gradientUnits="userSpaceOnUse"><stop stop-color="#7751B8"/><stop offset="1" stop-color="#5A409C"/></linearGradient><linearGradient id="icon-7795675d5003b086__icon-5ec78b35f65ab4da__f" x1="3.201" x2="12.747" y1="5" y2="17.979" gradientUnits="userSpaceOnUse"><stop stop-color="#7751B8"/><stop offset="1" stop-color="#5A409C"/></linearGradient><linearGradient id="icon-35c2b96c4f2e071c__icon-ed76883d4a2f0160__g" x1="3.201" x2="12.747" y1="5" y2="17.979" gradientUnits="userSpaceOnUse"><stop stop-color="#7751B8"/><stop offset="1" stop-color="#5A409C"/></linearGradient><radialGradient id="icon-27eb714a9d0e392b__icon-61811170e95f0c1c__b" cx="0" cy="0" r="1" gradientTransform="matrix(9.49998 12.66664 -11.4 8.55 6.75 6.167)" gradientUnits="userSpaceOnUse"><stop offset=".177" stop-color="#fff"/><stop offset="1" stop-color="#B8B8B8"/></radialGradient></defs></svg>