<svg xmlns="http://www.w3.org/2000/svg" width="20" height="20" fill="currentColor"><path d="M13.114 7.108a.75.75 0 0 1 1.03.257L15 8.793l.857-1.428a.75.75 0 0 1 1.286.772l-1.393 2.322v2.292a.75.75 0 0 1-1.5 0V10.46l-1.393-2.322a.75.75 0 0 1 .257-1.029ZM9.143 7.365a.75.75 0 0 0-1.393.386v5a.75.75 0 0 0 1.5 0V10.46l1.607 2.678a.75.75 0 0 0 1.393-.386v-5a.75.75 0 1 0-1.5 0v2.292L9.143 7.365Z"/><path fill-rule="evenodd" d="M5.393 7.5a.75.75 0 0 0-1.407-.02l-1.935 5a.75.75 0 1 0 1.399.542l.104-.27h2.11l.09.25a.75.75 0 1 0 1.413-.502l-1.774-5Zm-1.258 3.751.52-1.343.477 1.343h-.997Z" clip-rule="evenodd"/></svg>