<svg xmlns="http://www.w3.org/2000/svg" width="16" height="16" fill="currentColor"><path d="M12.496.997a.5.5 0 0 1 .5.5v2.467l2.349-.763a.5.5 0 1 1 .309.951l-2.348.763 1.45 1.996a.5.5 0 0 1-.809.588l-1.45-1.995-1.449 1.995a.5.5 0 1 1-.809-.588l1.451-1.997-2.344-.762a.5.5 0 1 1 .309-.951l2.341.76V1.498a.5.5 0 0 1 .5-.5ZM9.53 1.12A9.681 9.681 0 0 0 8 1C5.239 1 3 2.119 3 3.5S5.239 6 8 6l.255-.003A4.493 4.493 0 0 1 8 4.5a4.49 4.49 0 0 1 1.53-3.38ZM8.742 6.976C8.5 6.992 8.252 7 8 7c-2.136 0-3.943-.587-5-1.513V8c0 1.355 2.29 2.5 5 2.5 2.004 0 3.779-.626 4.567-1.5H12.5a4.496 4.496 0 0 1-3.758-2.024Z"/><path d="M3 9.959V12.5C3 13.925 5.149 15 8 15s5-1.075 5-2.5V9.959c-1.066.936-2.889 1.541-5 1.541s-3.934-.606-5-1.541Z"/></svg>