<svg xmlns="http://www.w3.org/2000/svg" width="40" height="40" fill="currentColor"><path fill="url(#icon-4472cd24ef43838a__icon-ac2330d34254ca1f__a)" d="M6 6a4 4 0 0 1 4-4h20a4 4 0 0 1 4 4v28a4 4 0 0 1-4 4H10a4 4 0 0 1-4-4V6Z"/><path fill="url(#icon-4010248665cde129__icon-6473ab3a2a398776__b)" fill-opacity=".2" d="M6 6a4 4 0 0 1 4-4h20a4 4 0 0 1 4 4v28a4 4 0 0 1-4 4H10a4 4 0 0 1-4-4V6Z"/><path fill="url(#icon-d0468f25e9dbe954__icon-af833fd7a71bfe97__c)" fill-rule="evenodd" d="M30 3H10a3 3 0 0 0-3 3v28a3 3 0 0 0 3 3h20a3 3 0 0 0 3-3V6a3 3 0 0 0-3-3ZM10 2a4 4 0 0 0-4 4v28a4 4 0 0 0 4 4h20a4 4 0 0 0 4-4V6a4 4 0 0 0-4-4H10Z" clip-rule="evenodd"/><path fill="url(#icon-22196c7a80a78ca5__icon-ce0904e4e4ee39ca__d)" d="M20.253 29H26.5a2 2 0 0 0 2-2v-7.827a2 2 0 0 0-.702-1.522l-6.5-5.544a2 2 0 0 0-2.595 0l-6.5 5.544a2 2 0 0 0-.703 1.522V27a2 2 0 0 0 2 2h7.31"/><path fill="#B4CDF8" d="M17 20.5a1 1 0 1 1-2 0 1 1 0 0 1 2 0ZM21 20.5a1 1 0 1 1-2 0 1 1 0 0 1 2 0ZM24 21.5a1 1 0 1 0 0-2 1 1 0 0 0 0 2ZM21 24.5a1 1 0 1 1-2 0 1 1 0 0 1 2 0ZM16 25.5a1 1 0 1 0 0-2 1 1 0 0 0 0 2ZM25 24.5a1 1 0 1 1-2 0 1 1 0 0 1 2 0Z"/><defs><linearGradient id="icon-4472cd24ef43838a__icon-ac2330d34254ca1f__a" x1="13.778" x2="19.575" y1="2" y2="38.068" gradientUnits="userSpaceOnUse"><stop stop-color="#fff"/><stop offset="1" stop-color="#EBEBEB"/></linearGradient><linearGradient id="icon-d0468f25e9dbe954__icon-af833fd7a71bfe97__c" x1="15.042" x2="21.203" y1="2" y2="37.944" gradientUnits="userSpaceOnUse"><stop stop-color="#BBB"/><stop offset="1" stop-color="#888"/></linearGradient><linearGradient id="icon-22196c7a80a78ca5__icon-ce0904e4e4ee39ca__d" x1="11.5" x2="29.471" y1="11" y2="27.972" gradientUnits="userSpaceOnUse"><stop stop-color="#3477EA"/><stop offset="1" stop-color="#1D53A4"/></linearGradient><radialGradient id="icon-4010248665cde129__icon-6473ab3a2a398776__b" cx="0" cy="0" r="1" gradientTransform="matrix(14.7778 28.50002 -21.83716 11.32298 14.944 11.375)" gradientUnits="userSpaceOnUse"><stop offset=".177" stop-color="#fff"/><stop offset="1" stop-color="#B8B8B8"/></radialGradient></defs></svg>