<svg xmlns="http://www.w3.org/2000/svg" width="20" height="20" fill="currentColor"><path d="M4 5c0-1.007.875-1.755 1.904-2.223C6.978 2.289 8.427 2 10 2s3.022.289 4.096.777C15.125 3.245 16 3.993 16 5v3h-1V6.698a4.92 4.92 0 0 1-.904.525C13.022 7.711 11.573 8 10 8s-3.022-.289-4.096-.777A4.92 4.92 0 0 1 5 6.698V15c0 .374.356.875 1.318 1.313A7.39 7.39 0 0 0 8 16.82V17c0 .292.031.577.09.852-.82-.132-1.566-.347-2.186-.63C4.875 16.756 4 16.008 4 15V5Zm1 0c0 .374.356.875 1.318 1.313C7.234 6.729 8.536 7 10 7s2.766-.27 3.682-.687C14.644 5.875 15 5.373 15 5c0-.374-.356-.875-1.318-1.313C12.766 3.271 11.464 3 10 3s-2.766.27-3.682.687C5.356 4.125 5 4.627 5 5Z"/><path d="M9 12a3 3 0 0 1 3-3h5a3 3 0 0 1 3 3v5a3 3 0 0 1-3 3h-5a3 3 0 0 1-3-3v-5Zm3-2a2 2 0 0 0-2 2h2v-2Zm1 0v2h3v-2h-3Zm4 0v2h2a2 2 0 0 0-2-2Zm-1 3h-3v3h3v-3Zm3 0h-2v3h2v-3Zm-3 4h-3v2h3v-2Zm1 2a2 2 0 0 0 2-2h-2v2Zm-5-6h-2v3h2v-3Zm0 4h-2a2 2 0 0 0 2 2v-2Z"/></svg>