<svg xmlns="http://www.w3.org/2000/svg" width="20" height="20" fill="currentColor"><path d="M12.928 13.488c.526.32 1.126.497 1.741.513a2.559 2.559 0 0 0 2.668-2.428 2.224 2.224 0 0 0-.873-1.7 2.226 2.226 0 0 0 .873-1.7 2.559 2.559 0 0 0-2.669-2.426 3.476 3.476 0 0 0-1.74.512 4.56 4.56 0 0 0-.5.34l-.2.173a.728.728 0 0 0 .212 1.198c.09.04.188.061.287.062a.744.744 0 0 0 .517-.214l.086-.071c.107-.083.218-.16.334-.228a2.083 2.083 0 0 1 1-.312 1.109 1.109 0 0 1 1.214.97.843.843 0 0 1-.4.618 1.83 1.83 0 0 1-1.058.353.728.728 0 0 0 0 1.456c.381.005.75.128 1.058.353a.843.843 0 0 1 .4.618 1.11 1.11 0 0 1-1.214.97 2.07 2.07 0 0 1-1-.313 2.914 2.914 0 0 1-.335-.228l-.1-.084a.728.728 0 0 0-1.229.547.78.78 0 0 0 .285.564l.143.118c.158.125.326.238.5.339ZM7.498 8.062a.75.75 0 0 1-1.496-.11V7.944l.001-.01a1.433 1.433 0 0 1 .013-.108 2.526 2.526 0 0 1 .374-.983c.378-.582 1.074-1.091 2.21-1.091.92 0 1.718.314 2.215.995.481.659.573 1.515.424 2.382a2.272 2.272 0 0 1-1.09 1.618c-.347.215-.78.372-1.123.497l-.27.1c-.417.163-.7.32-.896.557-.107.13-.213.316-.282.601H10.5a.75.75 0 0 1 0 1.5H6.75a.75.75 0 0 1-.75-.75c0-1 .243-1.749.704-2.307.448-.541 1.031-.812 1.505-.998.161-.062.303-.114.43-.16.296-.109.515-.189.72-.315a.78.78 0 0 0 .402-.597c.109-.633 0-1.027-.157-1.243-.142-.194-.424-.38-1.004-.38-.614 0-.843.24-.952.409a1.027 1.027 0 0 0-.15.402Z"/><path d="M6.002 7.953V7.95l-.01.156.01-.154ZM5 6.751a.75.75 0 0 0-1.385-.398l-.048.075c-.214.342-.36.575-.575.812-.225.247-.547.52-1.128.868a.75.75 0 0 0 .772 1.286c.34-.204.623-.397.864-.588v4.445a.75.75 0 0 0 1.5 0v-6.5Z"/></svg>