<svg xmlns="http://www.w3.org/2000/svg" width="20" height="20" fill="currentColor"><path d="M6.083 7.108a.75.75 0 0 1 1.029.257l.857 1.428.857-1.428a.75.75 0 0 1 1.286.772l-1.393 2.322v2.292a.75.75 0 0 1-1.5 0V10.46L5.826 8.137a.75.75 0 0 1 .257-1.029ZM11.313 7.001a.75.75 0 0 0 0 1.5h.392v4.25a.75.75 0 0 0 1.5 0v-4.25h.357a.75.75 0 0 0 0-1.5h-2.25ZM14.938 7.751a.75.75 0 0 1 .75-.75h2a.75.75 0 0 1 0 1.5h-1.25v1h.75a.75.75 0 0 1 0 1.5h-.75v1h1.25a.75.75 0 0 1 0 1.5h-2a.75.75 0 0 1-.75-.75v-5Z"/><path fill-rule="evenodd" d="M1 12.751v-5a.75.75 0 0 1 .75-.75H3.258c.168 0 .662 0 1.125.26.25.141.49.356.66.668.17.309.25.672.25 1.08 0 .406-.09.747-.241 1.025.104.098.2.214.283.35.191.314.283.688.283 1.108 0 .844-.403 1.401-.923 1.704A2.445 2.445 0 0 1 3.5 13.5H1.87v-.01a.75.75 0 0 1-.871-.74Zm1.5-.75h1c.12 0 .309-.025.441-.102a.303.303 0 0 0 .116-.11.575.575 0 0 0 .06-.296c0-.201-.042-.293-.063-.328a.225.225 0 0 0-.1-.087c-.137-.067-.327-.077-.518-.077H2.5v1Zm.113-2.5h.668a.763.763 0 0 0 .358-.086.253.253 0 0 0 .095-.097.629.629 0 0 0 .06-.308c0-.212-.042-.316-.066-.36a.191.191 0 0 0-.08-.081c-.097-.055-.241-.068-.398-.068H2.5v1h.113Z" clip-rule="evenodd"/></svg>