<svg xmlns="http://www.w3.org/2000/svg" width="20" height="20" fill="currentColor"><g clip-path="url(#icon-e072e0ba42693534__icon-39ec6d2cc8dad939__a)"><path d="M8 4a2 2 0 1 1 4 0v12a2 2 0 1 1-4 0V4Zm2-1a1 1 0 0 0-1 1v12a1 1 0 1 0 2 0V4a1 1 0 0 0-1-1ZM2 12a2 2 0 1 1 4 0v4a2 2 0 1 1-4 0v-4Zm3 0a1 1 0 1 0-2 0v4a1 1 0 1 0 2 0v-4ZM15.75 11A1.75 1.75 0 0 0 14 12.75v5.5c0 .967.784 1.75 1.75 1.75h2.5A1.75 1.75 0 0 0 20 18.25v-5.5A1.75 1.75 0 0 0 18.25 11h-2.5Zm.25 6.5a.5.5 0 0 1 .5-.5h1a.5.5 0 1 1 0 1h-1a.5.5 0 0 1-.5-.5ZM18 10h-1V8a1 1 0 1 0-2 0v2.104c-.371.105-.71.286-1 .525V8a2 2 0 1 1 4 0v2Z"/></g><defs><clipPath id="icon-e072e0ba42693534__icon-39ec6d2cc8dad939__a"><path d="M0 0h20v20H0z"/></clipPath></defs></svg>