<svg xmlns="http://www.w3.org/2000/svg" width="24" height="24" fill="currentColor"><path fill="url(#icon-83137bc55b34aa61__icon-c666ae611e081598__a)" d="M7.778 21.998a.682.682 0 0 1-.673-.78c.888-6.014 6.042-10.47 12.11-10.47h1.227c.838 0 1.452-.499 1.452-1.339l.07-.33v5.835c0 .92-.744 1.664-1.662 1.664h-.688a5.824 5.824 0 0 0-5.564 4.12l-.22.71c-.11.35-.428.59-.793.59H7.778Z"/><path fill="url(#icon-a43911e2ba4dce19__icon-9bccd1fe215b311f__b)" d="M7.778 21.998a.682.682 0 0 1-.673-.78c.888-6.014 6.042-10.47 12.11-10.47h1.227c.838 0 1.452-.499 1.452-1.339l.07-.33v5.835c0 .92-.744 1.664-1.662 1.664h-.688a5.824 5.824 0 0 0-5.564 4.12l-.22.71c-.11.35-.428.59-.793.59H7.778Z"/><path fill="url(#icon-2544becf2990dabc__icon-bbd956754b99e77e__c)" d="M2.833 15.333A.836.836 0 0 1 2 14.498V9.5c0-.46.374-.835.833-.835h14.97c.458 0 .832.375.832.835v5c0 .46-.374.834-.833.834H2.833Z"/><path fill="url(#icon-5eb2c0a90379fa4c__icon-d2660ab91ba3c8fa__d)" d="M2.833 15.333A.836.836 0 0 1 2 14.498V9.5c0-.46.374-.835.833-.835h14.97c.458 0 .832.375.832.835v5c0 .46-.374.834-.833.834H2.833Z"/><path fill="url(#icon-4a0f1613a250bed7__icon-6e3be3232f424f7e__e)" d="M7.788 2a.693.693 0 0 0-.684.79c.888 6.124 6.128 10.664 12.305 10.664h1.033c.838 0 1.516.68 1.516 1.52v-5.89c0-.92-.743-1.665-1.661-1.665h-.689a5.824 5.824 0 0 1-5.563-4.12l-.22-.71A.834.834 0 0 0 13.032 2H7.788Z"/><path fill="url(#icon-427ff7eb720230bb__icon-89d0a978ffc2316f__f)" d="M20.297 7.415h-.689c-1.183 0-2.3-.36-3.233-.99v6.65c.973.244 1.99.38 3.038.38h1.033c.838 0 1.517.679 1.517 1.519v-5.89c0-.92-.743-1.664-1.661-1.664l-.005-.005Z" opacity=".4"/><path fill="url(#icon-e8fc9ccdfb32cf67__icon-2d343362462e6078__g)" d="M7.828 2a.693.693 0 0 0-.684.79c.888 6.124 6.127 10.664 12.304 10.664h1.033c.839 0 1.517.68 1.517 1.52v-5.89c0-.92-.743-1.665-1.661-1.665h-.689a5.824 5.824 0 0 1-5.563-4.12l-.22-.71A.834.834 0 0 0 13.072 2H7.828Z" opacity=".7"/><defs><linearGradient id="icon-83137bc55b34aa61__icon-c666ae611e081598__a" x1="8.272" x2="22.076" y1="22.978" y2="9.201" gradientUnits="userSpaceOnUse"><stop offset=".26" stop-color="#0D7012"/><stop offset="1" stop-color="#085714"/></linearGradient><linearGradient id="icon-a43911e2ba4dce19__icon-9bccd1fe215b311f__b" x1="28.705" x2="2.514" y1="13.054" y2="18.861" gradientUnits="userSpaceOnUse"><stop offset=".04" stop-color="#114A8A"/><stop offset="1" stop-color="#0C59A3" stop-opacity="0"/></linearGradient><linearGradient id="icon-2544becf2990dabc__icon-bbd956754b99e77e__c" x1="-8.428" x2="18.122" y1="11.999" y2="11.999" gradientUnits="userSpaceOnUse"><stop stop-color="#107C10"/><stop offset=".96" stop-color="#56B50E"/></linearGradient><linearGradient id="icon-4a0f1613a250bed7__icon-6e3be3232f424f7e__e" x1="22.911" x2="9.984" y1="18.828" y2=".399" gradientUnits="userSpaceOnUse"><stop offset=".04" stop-color="#33980F"/><stop offset="1" stop-color="#BAE884"/></linearGradient><linearGradient id="icon-427ff7eb720230bb__icon-89d0a978ffc2316f__f" x1="18.895" x2="21.898" y1="10.699" y2="10.699" gradientUnits="userSpaceOnUse"><stop stop-color="#E5FAC1" stop-opacity="0"/><stop offset=".56" stop-color="#E5FAC1" stop-opacity=".52"/><stop offset="1" stop-color="#E5FAC1"/></linearGradient><linearGradient id="icon-e8fc9ccdfb32cf67__icon-2d343362462e6078__g" x1="6.471" x2="14.267" y1="-7.454" y2="6.016" gradientUnits="userSpaceOnUse"><stop offset=".14" stop-color="#FDE100"/><stop offset=".98" stop-color="#FFC600" stop-opacity="0"/></linearGradient><radialGradient id="icon-5eb2c0a90379fa4c__icon-d2660ab91ba3c8fa__d" cx="0" cy="0" r="1" gradientTransform="matrix(2.81774 -4.22857 10.77468 7.17978 15.235 10.914)" gradientUnits="userSpaceOnUse"><stop stop-opacity=".3"/><stop offset="1" stop-opacity="0"/></radialGradient></defs></svg>