<svg xmlns="http://www.w3.org/2000/svg" width="48" height="48" fill="currentColor"><path fill="url(#icon-1a3093587bc2d992__icon-93df3180db46cce0__a)" d="M3.001 13a5 5 0 0 1 5-5h32a5 5 0 0 1 5 5v22a5 5 0 0 1-5 5h-32a5 5 0 0 1-5-5V13Z"/><path fill="url(#icon-53abd8ef26667e47__icon-5f0bf5047d515dd7__b)" fill-opacity=".2" d="M3.001 13a5 5 0 0 1 5-5h32a5 5 0 0 1 5 5v22a5 5 0 0 1-5 5h-32a5 5 0 0 1-5-5V13Z"/><path fill="url(#icon-c067aca3031e6d16__icon-0208d4808d36c946__c)" fill-rule="evenodd" d="M40.001 9h-32a4 4 0 0 0-4 4v22a4 4 0 0 0 4 4h32a4 4 0 0 0 4-4V13a4 4 0 0 0-4-4Zm-32-1a5 5 0 0 0-5 5v22a5 5 0 0 0 5 5h32a5 5 0 0 0 5-5V13a5 5 0 0 0-5-5h-32Z" clip-rule="evenodd"/><path fill="url(#icon-76c950b74bc891fe__icon-71cb3aaf02103c66__d)" d="M20.75 26.5a1.25 1.25 0 1 1-2.5 0 1.25 1.25 0 0 1 2.5 0Z"/><path fill="url(#icon-d1d2e405d8504460__icon-9c558bdec0672555__e)" d="M25.25 26.5a1.25 1.25 0 1 1-2.5 0 1.25 1.25 0 0 1 2.5 0Z"/><path fill="url(#icon-bb77b24decede32a__icon-b63c90f2980520b0__f)" d="M29.75 26.5a1.25 1.25 0 1 1-2.5 0 1.25 1.25 0 0 1 2.5 0Z"/><path fill="url(#icon-c958526ef9b529f0__icon-6bc0e7872c4cef0f__g)" fill-rule="evenodd" d="M16.941 16a1 1 0 0 0-.737.324l-3.667 4c-.588.642-.133 1.676.737 1.676h1.727v8a2 2 0 0 0 2 2h14a2 2 0 0 0 2-2v-8h1.727c.87 0 1.325-1.034.737-1.676l-3.667-4a1 1 0 0 0-.737-.324h-14.12Zm15.06 6h-16v8a1 1 0 0 0 1 1h14a1 1 0 0 0 1-1v-8Z" clip-rule="evenodd"/><defs><linearGradient id="icon-1a3093587bc2d992__icon-93df3180db46cce0__a" x1="14.668" x2="17.772" y1="8" y2="40.593" gradientUnits="userSpaceOnUse"><stop stop-color="#fff"/><stop offset="1" stop-color="#EBEBEB"/></linearGradient><linearGradient id="icon-c067aca3031e6d16__icon-0208d4808d36c946__c" x1="16.564" x2="19.87" y1="8" y2="40.553" gradientUnits="userSpaceOnUse"><stop stop-color="#BBB"/><stop offset="1" stop-color="#888"/></linearGradient><linearGradient id="icon-76c950b74bc891fe__icon-71cb3aaf02103c66__d" x1="12.273" x2="27.169" y1="16" y2="37.839" gradientUnits="userSpaceOnUse"><stop stop-color="#7751B8"/><stop offset="1" stop-color="#5A409C"/></linearGradient><linearGradient id="icon-d1d2e405d8504460__icon-9c558bdec0672555__e" x1="12.273" x2="27.169" y1="16" y2="37.839" gradientUnits="userSpaceOnUse"><stop stop-color="#7751B8"/><stop offset="1" stop-color="#5A409C"/></linearGradient><linearGradient id="icon-bb77b24decede32a__icon-b63c90f2980520b0__f" x1="12.273" x2="27.169" y1="16" y2="37.839" gradientUnits="userSpaceOnUse"><stop stop-color="#7751B8"/><stop offset="1" stop-color="#5A409C"/></linearGradient><linearGradient id="icon-c958526ef9b529f0__icon-6bc0e7872c4cef0f__g" x1="12.273" x2="27.169" y1="16" y2="37.839" gradientUnits="userSpaceOnUse"><stop stop-color="#7751B8"/><stop offset="1" stop-color="#5A409C"/></linearGradient><radialGradient id="icon-53abd8ef26667e47__icon-5f0bf5047d515dd7__b" cx="0" cy="0" r="1" gradientTransform="rotate(48.814 -9.789 26.257) scale(33.6621 31.279)" gradientUnits="userSpaceOnUse"><stop offset=".177" stop-color="#fff"/><stop offset="1" stop-color="#B8B8B8"/></radialGradient></defs></svg>