<svg xmlns="http://www.w3.org/2000/svg" width="16" height="16" fill="currentColor"><path d="M10.98 1.614a.5.5 0 1 0-.959-.288L6.396 13.388a.5.5 0 1 0 .958.288L10.98 1.614ZM3.504 4c-.935 0-1.597.438-1.996 1.13-.376.654-.504 1.508-.504 2.37 0 .864.128 1.718.504 2.372C1.907 10.564 2.57 11 3.504 11S5.1 10.564 5.5 9.87c.376-.653.504-1.507.504-2.37 0-.864-.128-1.717-.504-2.37C5.1 4.437 4.439 4 3.504 4Zm-1.5 3.5c0-.793.122-1.44.37-1.871.227-.393.565-.628 1.13-.628s.903.235 1.13.628c.248.432.37 1.078.37 1.872 0 .793-.122 1.44-.37 1.872-.227.393-.565.628-1.13.628s-.903-.235-1.13-.628c-.248-.432-.37-1.079-.37-1.872ZM13.736 4.06A.5.5 0 0 1 14 4.5v6a.5.5 0 0 1-1 0V5.436l-.723.482a.5.5 0 0 1-.554-.832l1.5-1a.5.5 0 0 1 .513-.025Z"/></svg>