<svg xmlns="http://www.w3.org/2000/svg" width="16" height="16" fill="currentColor"><path d="M5.059 1a.485.485 0 0 0-.48.553 8.719 8.719 0 0 0 8.63 7.465h1.787V5.96c0-.644-.521-1.165-1.165-1.165h-.483A4.083 4.083 0 0 1 9.447 1.91l-.154-.497A.585.585 0 0 0 8.736 1H5.06Z"/><path d="M5.103 5.666H1.495c-.273 0-.495.263-.495.585v3.5c0 .322.222.584.495.584h8.891c.239 0 .439-.201.485-.467a.687.687 0 0 0 .01-.117v-.013a9.733 9.733 0 0 1-5.778-4.072Z"/><path d="M10.386 11.335c.895 0 1.407-.737 1.485-1.408.438.06.884.091 1.338.091h1.787l.004-.003v.025c0 .645-.521 1.166-1.165 1.166h-.483A4.083 4.083 0 0 0 9.45 14.09l-.154.497A.585.585 0 0 1 8.74 15H5.052a.478.478 0 0 1-.472-.546 8.563 8.563 0 0 1 1.105-3.12h4.701Z"/></svg>