<svg xmlns="http://www.w3.org/2000/svg" width="24" height="24" fill="currentColor"><path fill="url(#icon-1e6a28efb51d5060__icon-163efa8d69efe866__a)" d="M1 6a3 3 0 0 1 3-3h16a3 3 0 0 1 3 3v12a3 3 0 0 1-3 3H4a3 3 0 0 1-3-3V6Z"/><path fill="url(#icon-dd12b804ab6490e8__icon-cfcc5a73a0f01671__b)" fill-opacity=".2" d="M1 6a3 3 0 0 1 3-3h16a3 3 0 0 1 3 3v12a3 3 0 0 1-3 3H4a3 3 0 0 1-3-3V6Z"/><path fill="url(#icon-c1f2cc25c267f991__icon-2b2b38d5c95e66e9__c)" fill-rule="evenodd" d="M20 4H4a2 2 0 0 0-2 2v12a2 2 0 0 0 2 2h16a2 2 0 0 0 2-2V6a2 2 0 0 0-2-2ZM4 3a3 3 0 0 0-3 3v12a3 3 0 0 0 3 3h16a3 3 0 0 0 3-3V6a3 3 0 0 0-3-3H4Z" clip-rule="evenodd"/><path fill="url(#icon-72741b28d33f2610__icon-9a21255d9de5e7ac__d)" d="M10 14a1 1 0 1 1-2 0 1 1 0 0 1 2 0Z"/><path fill="url(#icon-0a74b00e0896f2a3__icon-1dcd55d0ecbb8575__e)" d="M13 14a1 1 0 1 1-2 0 1 1 0 0 1 2 0Z"/><path fill="url(#icon-53a2f3ef8f47c62d__icon-cc80d10882bbbc4d__f)" d="M16 14a1 1 0 1 1-2 0 1 1 0 0 1 2 0Z"/><path fill="url(#icon-db75988f0e57ddd3__icon-4abce110a7f6c980__g)" fill-rule="evenodd" d="M7.805 6c-.292 0-.57.12-.764.331l-2.775 3C3.67 9.975 4.14 11 5.03 11H6v5a2 2 0 0 0 2 2h8a2 2 0 0 0 2-2v-5h.97c.89 0 1.36-1.025.764-1.669l-2.775-3A1.04 1.04 0 0 0 16.195 6h-8.39ZM7 11h10v5a1 1 0 0 1-1 1H8a1 1 0 0 1-1-1v-5Z" clip-rule="evenodd"/><defs><linearGradient id="icon-1e6a28efb51d5060__icon-163efa8d69efe866__a" x1="7.111" x2="8.984" y1="3" y2="21.308" gradientUnits="userSpaceOnUse"><stop stop-color="#fff"/><stop offset="1" stop-color="#EBEBEB"/></linearGradient><linearGradient id="icon-c1f2cc25c267f991__icon-2b2b38d5c95e66e9__c" x1="8.104" x2="10.099" y1="3" y2="21.282" gradientUnits="userSpaceOnUse"><stop stop-color="#BBB"/><stop offset="1" stop-color="#888"/></linearGradient><linearGradient id="icon-72741b28d33f2610__icon-9a21255d9de5e7ac__d" x1="4" x2="15.52" y1="6" y2="21.36" gradientUnits="userSpaceOnUse"><stop stop-color="#7751B8"/><stop offset="1" stop-color="#5A409C"/></linearGradient><linearGradient id="icon-0a74b00e0896f2a3__icon-1dcd55d0ecbb8575__e" x1="4" x2="15.52" y1="6" y2="21.36" gradientUnits="userSpaceOnUse"><stop stop-color="#7751B8"/><stop offset="1" stop-color="#5A409C"/></linearGradient><linearGradient id="icon-53a2f3ef8f47c62d__icon-cc80d10882bbbc4d__f" x1="4" x2="15.52" y1="6" y2="21.36" gradientUnits="userSpaceOnUse"><stop stop-color="#7751B8"/><stop offset="1" stop-color="#5A409C"/></linearGradient><linearGradient id="icon-db75988f0e57ddd3__icon-4abce110a7f6c980__g" x1="4" x2="15.52" y1="6" y2="21.36" gradientUnits="userSpaceOnUse"><stop stop-color="#7751B8"/><stop offset="1" stop-color="#5A409C"/></linearGradient><radialGradient id="icon-dd12b804ab6490e8__icon-cfcc5a73a0f01671__b" cx="0" cy="0" r="1" gradientTransform="matrix(11.6111 14.24997 -13.08402 10.66107 8.028 7.688)" gradientUnits="userSpaceOnUse"><stop offset=".177" stop-color="#fff"/><stop offset="1" stop-color="#B8B8B8"/></radialGradient></defs></svg>