<svg xmlns="http://www.w3.org/2000/svg" width="20" height="20" fill="currentColor"><path d="M4 5c0-1.007.875-1.755 1.904-2.223C6.978 2.289 8.427 2 10 2s3.022.289 4.096.777C15.125 3.245 16 3.993 16 5v4.207a5.48 5.48 0 0 0-1-.185V6.698a4.92 4.92 0 0 1-.904.525C13.022 7.711 11.573 8 10 8s-3.022-.289-4.096-.777A4.92 4.92 0 0 1 5 6.698V15c0 .374.356.875 1.318 1.313.831.378 1.98.635 3.278.68.183.36.405.696.66 1.005L10 18c-1.573 0-3.022-.289-4.096-.777C4.875 16.755 4 16.007 4 15V5Zm1 0c0 .374.356.875 1.318 1.313C7.234 6.729 8.536 7 10 7s2.766-.27 3.682-.687C14.644 5.875 15 5.373 15 5c0-.374-.356-.875-1.318-1.313C12.766 3.271 11.464 3 10 3s-2.766.27-3.682.687C5.356 4.125 5 4.627 5 5Z"/><path d="M14.5 19a4.5 4.5 0 1 1 0-9 4.5 4.5 0 0 1 0 9Zm.896-6.396.897.896H14.75A2.75 2.75 0 0 0 12 16.25v.25a.5.5 0 0 0 1 0v-.25c0-.966.784-1.75 1.75-1.75h1.543l-.897.896a.5.5 0 0 0 .708.708l1.752-1.753a.499.499 0 0 0-.002-.705l-1.75-1.75a.5.5 0 0 0-.708.708Z"/></svg>