<svg xmlns="http://www.w3.org/2000/svg" width="24" height="24" fill="currentColor"><path d="M14.854 2H3.25C2.56 2 2 2.56 2 3.25c0 .102.009.201.039.294.039.122 2.316 7.242 3.5 10.93.164.499.634.86 1.188.86h2.591l.791 2.466a1.25 1.25 0 0 0 1.191.867h2.589l.788 2.457A1.25 1.25 0 0 0 15.87 22h.297C19.389 22 22 20.508 22 18.667V6.083C22 3.828 19.297 2 14.854 2ZM3.6 3.5h11.255c3.534 0 5.646 1.313 5.646 2.583 0 .722-.636 1.441-1.833 1.939V7.94c0-1.527-1.333-2.607-2.977-2.607H7.824a1.25 1.25 0 0 0-1.192 1.628l2.205 6.872H6.91A8814.547 8814.547 0 0 1 3.6 3.5Zm4.565 3.333h7.525c.734 0 1.477.38 1.477 1.107v.522c-.674.127-1.44.204-2.313.204h-2.461a1.25 1.25 0 0 0-1.19 1.634l2.203 6.866H11.48L8.165 6.833ZM16.167 20.5h-.115l-3.315-10.333h2.118c2.532 0 4.44-.557 5.646-1.433v9.933c0 .646-1.646 1.833-4.334 1.833Z"/></svg>