<svg xmlns="http://www.w3.org/2000/svg" width="48" height="48" fill="currentColor"><path fill="url(#icon-c88c2678386b0ac4__icon-3acf13c4f77512b3__a)" d="M25.328 43.834c-.73.28-1.58.21-2.27-.25-1.15-.76-1.81-2.5-1.04-3.65l9.729-14.467 8.938 10.028c.61.69.55 1.74-.14 2.35-.14.13-.3.23-.47.3l-14.748 5.69Z"/><path fill="url(#icon-9d28e0b334f2e9a6__icon-5e53530ef582bc09__b)" d="M17.488 26.517 8.02 12.27a1.61 1.61 0 0 1-.25-.87c0-.92.75-1.67 1.67-1.67.23 0 .54-.04.74.04l15.397 7.24-.88 1.75-7.209 7.758Z"/><path fill="url(#icon-53396f5eb84644d4__icon-aef40886611cbedf__c)" d="M23.548 43.844c-.17-.06-.33-.15-.49-.25a2.508 2.508 0 0 1-.7-3.47L40.855 12.28a1.663 1.663 0 0 0-.78-2.41l-14.747-5.69c-.28-.11-.58-.17-.89-.17-.31 0-.61.06-.89.16L8.8 9.86c.2-.08.42-.13.65-.13.23 0 .44.05.64.13l11.638 5.61c.85.44 1.45 1.259 1.45 2.269 0 .63-.23 1.2-.62 1.64L8.2 35.495c-.61.69-.55 1.74.14 2.35.14.13.3.23.47.3l14.748 5.69"/><path fill="url(#icon-4ae36057c0633107__icon-0a4f6aab71d40da0__d)" d="m10.12 9.86 11.638 5.608c.69.35 1.2.96 1.38 1.71l17.967-6.029c-.09-.58-.46-1.07-.99-1.29L25.369 4.17c-.28-.11-.58-.17-.89-.17-.31 0-.61.06-.89.16L8.84 9.85c.2-.08.42-.13.65-.13.23 0 .44.05.64.13l-.01.01Z"/><defs><linearGradient id="icon-c88c2678386b0ac4__icon-3acf13c4f77512b3__a" x1="24.758" x2="35.906" y1="32.326" y2="41.684" gradientUnits="userSpaceOnUse"><stop stop-color="#292941"/><stop offset=".22" stop-color="#114A85"/><stop offset=".44" stop-color="#0A5BA0"/><stop offset=".65" stop-color="#0669B6"/></linearGradient><linearGradient id="icon-9d28e0b334f2e9a6__icon-5e53530ef582bc09__b" x1="11.729" x2="22.428" y1="7.77" y2="23.058" gradientUnits="userSpaceOnUse"><stop offset=".22" stop-color="#114A85"/><stop offset=".85" stop-color="#0669B6"/></linearGradient><linearGradient id="icon-53396f5eb84644d4__icon-aef40886611cbedf__c" x1="24.438" x2="24.438" y1="43.844" y2="4.01" gradientUnits="userSpaceOnUse"><stop offset=".1" stop-color="#288CD9"/><stop offset=".75" stop-color="#3CC5EE"/></linearGradient><linearGradient id="icon-4ae36057c0633107__icon-0a4f6aab71d40da0__d" x1="23.288" x2="26.517" y1="4.24" y2="16.268" gradientUnits="userSpaceOnUse"><stop stop-color="#A1ECFF" stop-opacity=".9"/><stop offset=".92" stop-color="#A1ECFF" stop-opacity="0"/></linearGradient></defs></svg>