<svg xmlns="http://www.w3.org/2000/svg" width="16" height="16" fill="currentColor"><path d="M11.764 5.146C12.534 4.706 13 4.13 13 3.5 13 2.12 10.761 1 8 1S3 2.12 3 3.5c0 1.273 1.904 2.324 4.365 2.48a5.516 5.516 0 0 1 4.398-.834ZM6.36 6.878C4.95 6.661 3.775 6.165 3 5.487V12.5c0 1.307 1.807 2.32 4.306 2.478A5.493 5.493 0 0 1 5 10.5c0-1.387.513-2.654 1.36-3.622ZM12.917 5.558 13 5.6v-.113a4.276 4.276 0 0 1-.083.071Z"/><path d="M10.5 15a4.5 4.5 0 1 0 0-9 4.5 4.5 0 0 0 0 9Zm.896-6.396a.5.5 0 0 1 .708-.708l1.75 1.75a.5.5 0 0 1 .002.705l-1.752 1.753a.5.5 0 0 1-.708-.708l.897-.896H10.75A1.75 1.75 0 0 0 9 12.25v.25a.5.5 0 0 1-1 0v-.25a2.75 2.75 0 0 1 2.75-2.75h1.543l-.897-.896Z"/></svg>