<svg xmlns="http://www.w3.org/2000/svg" width="48" height="48" fill="currentColor"><path fill="url(#icon-62c591fe4b891c7a__icon-a62b60a73b282930__a)" d="M4.086 7.152A2.5 2.5 0 0 1 6.5 4h25.833C38.776 4 44 6.985 44 10.667v1.248l-2.616 18.752H13.452a2.5 2.5 0 0 1-2.375-1.72L4.124 7.281A2.5 2.5 0 0 1 6.5 4"/><path fill="url(#icon-7e09c2bf4a9aa72d__icon-9f8a9dda64f2c23a__b)" d="M22.598 37.333h14.626l.11-6.917V14.069c0-1.88-2.666-3.402-5.954-3.402H15.645a2.5 2.5 0 0 0-2.383 3.255l6.954 21.676a2.501 2.501 0 0 0 2.381 1.735Z"/><path fill="url(#icon-2f66cd27f9b45ed4__icon-58bd2cb1aefe6b88__c)" d="m37.272 34.289.061-3.873V14.069c0-1.88-2.666-3.402-5.954-3.402H15.645a2.5 2.5 0 0 0-2.383 3.255l6.534 20.367h17.476Z"/><path fill="url(#icon-5a4f6c99f66b25fd__icon-71c0ae626aedcc07__d)" d="M29.352 42.248A2.501 2.501 0 0 0 31.738 44h.595C38.777 44 44 41.015 44 37.333V10.667c0 3.681-5.224 6.666-11.667 6.666h-7.546a2.5 2.5 0 0 0-2.38 3.268l6.945 21.646v.001Z"/><path fill="url(#icon-88cd2fba89354bee__icon-b54e121a8fcddb6e__e)" d="M10.558 27.333h31.29L44 11.915v-1.248C44 6.985 38.776 4 32.333 4H6.5A2.5 2.5 0 0 0 4 6.5c0 .203.032.398.077.587.005.021.004.044.009.065l.006-.007c.011.045.018.092.033.136l6.433 20.052Z"/><defs><linearGradient id="icon-62c591fe4b891c7a__icon-a62b60a73b282930__a" x1="2.551" x2="43.555" y1="11.578" y2="22.565" gradientUnits="userSpaceOnUse"><stop stop-color="#D594F0"/><stop offset=".585" stop-color="#524BB5"/><stop offset=".826" stop-color="#0B3B7F"/><stop offset="1" stop-color="#002561"/></linearGradient><linearGradient id="icon-7e09c2bf4a9aa72d__icon-9f8a9dda64f2c23a__b" x1="11.314" x2="39.905" y1="19.667" y2="27.327" gradientUnits="userSpaceOnUse"><stop stop-color="#CFB6FB"/><stop offset=".257" stop-color="#B897F2"/><stop offset=".811" stop-color="#2F65DA"/></linearGradient><linearGradient id="icon-2f66cd27f9b45ed4__icon-58bd2cb1aefe6b88__c" x1="25.239" x2="25.239" y1="10.667" y2="34.289" gradientUnits="userSpaceOnUse"><stop stop-color="#CFB6FB" stop-opacity=".25"/><stop offset=".15" stop-color="#CFB6FB" stop-opacity="0"/></linearGradient><linearGradient id="icon-5a4f6c99f66b25fd__icon-71c0ae626aedcc07__d" x1="21.531" x2="46.693" y1="21.467" y2="30.626" gradientUnits="userSpaceOnUse"><stop offset=".059" stop-color="#EFCEFD"/><stop offset=".462" stop-color="#CFB6FB"/><stop offset=".673" stop-color="#B5A5F4"/><stop offset="1" stop-color="#8787E8"/></linearGradient><linearGradient id="icon-88cd2fba89354bee__icon-b54e121a8fcddb6e__e" x1="24" x2="24" y1="4" y2="27.333" gradientUnits="userSpaceOnUse"><stop stop-color="#D594F0" stop-opacity=".2"/><stop offset=".457" stop-color="#D594F0" stop-opacity="0"/></linearGradient></defs></svg>