<svg xmlns="http://www.w3.org/2000/svg" width="16" height="16" fill="currentColor"><g clip-path="url(#icon-4f78fce91a94554e__icon-fa3fdc7f3c63e191__a)"><mask id="icon-5fff9904378b16cc__icon-27ea003c11318e4f__b" width="16" height="17" x="0" y="0" maskUnits="userSpaceOnUse" style="mask-type:luminance"><path d="M16 .001H0v16h16v-16Z"/></mask><g mask="url(#icon-5fff9904378b16cc__icon-27ea003c11318e4f__b)"><path d="M14.769 6.681a2.153 2.153 0 0 1-.398.544 2.033 2.033 0 0 1 .659 1.495c0 1.167-1.006 2.279-2.779 2.279a3.75 3.75 0 0 1-2.522-.964l-.01-.01a.75.75 0 0 1 1.055-1.068c.41.354.934.546 1.475.542h.002c.929 0 1.277-.467 1.279-.783a.55.55 0 0 0-.213-.422 1.66 1.66 0 0 0-1.051-.295h-.015a.75.75 0 0 1 0-1.5c.913 0 1.254-.464 1.256-.78a.557.557 0 0 0-.214-.427 1.606 1.606 0 0 0-1.027-.293h-.018a2.235 2.235 0 0 0-1.483.545l-.002.002a.75.75 0 0 1-1.05-1.065l.01-.012.012-.01a3.75 3.75 0 0 1 2.51-.96 3.08 3.08 0 0 1 1.987.622l.005.004a2.049 2.049 0 0 1 .77 1.594v.004a2.15 2.15 0 0 1-.238.958ZM4.735 4.23a2.5 2.5 0 0 1 4.268 1.743l.004.059a.75.75 0 0 1-.004.138 2.69 2.69 0 0 1-1.015 1.794.75.75 0 0 1-.086.058l-1.627.94a1.34 1.34 0 0 0-.586.533l-.002.004h2.566a.75.75 0 1 1 0 1.5h-3.5a.75.75 0 0 1-.75-.725 2.84 2.84 0 0 1 1.538-2.62l1.56-.901a1.19 1.19 0 0 0 .404-.705v-.003A.745.745 0 0 1 7.503 6a1 1 0 1 0-2 0 .75.75 0 0 1-1.5 0 2.5 2.5 0 0 1 .732-1.768ZM1.488 5.652l-.34.227A.75.75 0 0 1 .315 4.63l.006-.005 1.5-1a.75.75 0 0 1 1.166.624v6a.75.75 0 1 1-1.5 0V5.653Z"/></g></g><defs><clipPath id="icon-4f78fce91a94554e__icon-fa3fdc7f3c63e191__a"><path d="M0 0h16v16H0z"/></clipPath></defs></svg>