<svg xmlns="http://www.w3.org/2000/svg" width="32" height="32" fill="currentColor"><path fill-rule="evenodd" d="M10.118 2.004a.97.97 0 0 0-.959 1.106 17.435 17.435 0 0 0 17.258 14.93h3.576v-6.117a2.33 2.33 0 0 0-2.33-2.331h-.966a8.166 8.166 0 0 1-7.803-5.768l-.308-.994a1.17 1.17 0 0 0-1.113-.826h-7.355Zm1.252 20.669a17.126 17.126 0 0 0-2.21 6.239.956.956 0 0 0 .944 1.092h7.376c.511 0 .959-.336 1.113-.826l.308-.994a8.166 8.166 0 0 1 7.803-5.768h.966A2.33 2.33 0 0 0 30 20.085v-.051l-.007.007h-3.576c-.906 0-1.8-.063-2.676-.183-.155 1.343-1.179 2.815-2.969 2.815H11.37ZM2.99 11.335h7.216a19.464 19.464 0 0 0 11.556 8.143v.026c0 .644-.444 1.169-.99 1.169H2.99c-.545 0-.99-.525-.99-1.17v-7c0-.643.445-1.168.99-1.168Z" clip-rule="evenodd"/></svg>