<svg xmlns="http://www.w3.org/2000/svg" width="28" height="28" fill="currentColor"><path fill-rule="evenodd" d="M8.957 2.004a.832.832 0 0 0-.821.948 14.942 14.942 0 0 0 14.79 12.796h3.064v-5.243a1.997 1.997 0 0 0-1.997-1.998h-.828a6.999 6.999 0 0 1-6.687-4.943l-.264-.852a1.002 1.002 0 0 0-.953-.708H8.957Zm11.478 15.055c-.027 1.124-.853 2.444-2.347 2.444H10.16a14.673 14.673 0 0 0-2.024 5.561.82.82 0 0 0 .81.936h6.32c.438 0 .822-.288.954-.708l.264-.852a6.999 6.999 0 0 1 6.687-4.943H24a1.997 1.997 0 0 0 1.997-1.997v-.26l-.006.007h-3.065c-.845 0-1.677-.064-2.49-.188ZM2.848 10h6.443a16.467 16.467 0 0 0 9.645 6.758V17c0 .552-.38 1.002-.848 1.002H2.848c-.467 0-.848-.45-.848-1.002v-5.999c0-.551.381-1.001.848-1.001Z" clip-rule="evenodd"/></svg>