<svg xmlns="http://www.w3.org/2000/svg" width="16" height="16" fill="currentColor"><path d="M11.764 5.146C12.534 4.706 13 4.13 13 3.5 13 2.12 10.761 1 8 1S3 2.12 3 3.5c0 1.273 1.904 2.324 4.365 2.48a5.516 5.516 0 0 1 4.398-.834ZM6.36 6.878C4.95 6.661 3.775 6.165 3 5.487V12.5c0 1.307 1.807 2.32 4.306 2.478A5.493 5.493 0 0 1 5 10.5c0-1.387.513-2.654 1.36-3.622Z"/><path d="M6 10.5a4.5 4.5 0 1 0 9 0 4.5 4.5 0 0 0-9 0Zm6.5-3a.5.5 0 0 1 .5.5v1.5a.5.5 0 0 1-.5.5H11a.5.5 0 0 1 0-1h.468a1.982 1.982 0 0 0-.933-.25 2 2 0 0 0-1.45.586.5.5 0 0 1-.706-.707A3 3 0 0 1 12 8.152V8a.5.5 0 0 1 .5-.5Zm-.876 5.532A2.999 2.999 0 0 1 9 12.848V13a.5.5 0 0 1-1 0v-1.5a.5.5 0 0 1 .5-.5H10a.5.5 0 0 1 0 1h-.468a1.99 1.99 0 0 0 .933.25 2 2 0 0 0 1.45-.586.5.5 0 0 1 .706.707c-.285.285-.624.51-.997.66Z"/></svg>