<svg xmlns="http://www.w3.org/2000/svg" width="16" height="16" fill="currentColor"><path fill-rule="evenodd" d="m8.299 1.528 6.424 3.965a.575.575 0 0 1 .273.493v7.322c0 .687-.558 1.246-1.25 1.246s-1.25-.56-1.25-1.245l.001-4.584c0-.57-.301-1.076-.764-1.354L7.087 4.502a1.585 1.585 0 0 0-1.67-.004L1.003 7.223V5.989c0-.21.112-.395.277-.496 1.597-.984 4.986-3.074 6.41-3.955a.59.59 0 0 1 .609-.01ZM1.003 8.662v1.3l2.665-1.645a1.585 1.585 0 0 1 1.67.004s2.241 1.384 2.901 1.79c.455.277.759.78.759 1.35v2.338c0 .41.335.747.75.747v.003h2.122a2.233 2.233 0 0 1-.374-1.24l.001-4.584a.576.576 0 0 0-.283-.5L6.556 5.35a.585.585 0 0 0-.616 0L1.284 8.225a.585.585 0 0 0-.28.437Zm7.164 5.887-.001-.003a1.737 1.737 0 0 1-.168-.747V11.46a.58.58 0 0 0-.28-.497C6.396 10.15 4.807 9.17 4.807 9.17a.585.585 0 0 0-.616 0l-2.915 1.799a.591.591 0 0 0-.273.433v1.4a1.74 1.74 0 0 0 1.747 1.745l.022.003h5.395Z" clip-rule="evenodd"/></svg>