<svg xmlns="http://www.w3.org/2000/svg" width="28" height="28" fill="currentColor"><path fill="url(#icon-fc33044447f580f7__icon-b5f823a1dfb792ac__a)" d="M14.534 25.897a1.493 1.493 0 0 1-1.362-.15c-.69-.456-1.085-1.5-.624-2.19l5.837-8.68 5.362 6.017a.997.997 0 0 1-.084 1.41.94.94 0 0 1-.282.18l-8.847 3.413Z"/><path fill="url(#icon-e5ec2dc73f9e071a__icon-239b7ef0c9e929d3__b)" d="M9.831 15.508 4.151 6.96A.966.966 0 0 1 4 6.438c0-.551.45-1.001 1.001-1.001.138 0 .324-.024.444.024l9.238 4.342-.528 1.05-4.325 4.655Z"/><path fill="url(#icon-948e135c8acdc453__icon-b3337363450a0109__c)" d="M13.466 25.903a1.504 1.504 0 0 1-.714-2.231L23.849 6.966a.997.997 0 0 0-.468-1.446l-8.848-3.412A1.457 1.457 0 0 0 14 2.006c-.186 0-.366.036-.534.096L4.618 5.515c.12-.048.252-.078.39-.078s.264.03.384.078l6.982 3.365c.51.264.87.756.87 1.361 0 .378-.138.72-.372.984l-8.613 9.67a.997.997 0 0 0 .083 1.409c.084.078.18.138.282.18l8.848 3.413"/><path fill="url(#icon-d0956a774515473f__icon-2160233201f114a6__d)" d="m5.41 5.515 6.982 3.365c.414.21.72.576.828 1.026L24 6.289a.994.994 0 0 0-.595-.774l-8.847-3.413A1.457 1.457 0 0 0 14.024 2c-.186 0-.366.036-.534.096L4.643 5.509c.12-.048.252-.078.39-.078s.264.03.384.078l-.006.006Z"/><defs><linearGradient id="icon-fc33044447f580f7__icon-b5f823a1dfb792ac__a" x1="14.192" x2="20.88" y1="18.993" y2="24.607" gradientUnits="userSpaceOnUse"><stop stop-color="#292941"/><stop offset=".22" stop-color="#114A85"/><stop offset=".44" stop-color="#0A5BA0"/><stop offset=".65" stop-color="#0669B6"/></linearGradient><linearGradient id="icon-e5ec2dc73f9e071a__icon-239b7ef0c9e929d3__b" x1="6.376" x2="12.794" y1="4.261" y2="13.432" gradientUnits="userSpaceOnUse"><stop offset=".22" stop-color="#114A85"/><stop offset=".85" stop-color="#0669B6"/></linearGradient><linearGradient id="icon-948e135c8acdc453__icon-b3337363450a0109__c" x1="14" x2="14" y1="25.903" y2="2.006" gradientUnits="userSpaceOnUse"><stop offset=".1" stop-color="#288CD9"/><stop offset=".75" stop-color="#3CC5EE"/></linearGradient><linearGradient id="icon-d0956a774515473f__icon-2160233201f114a6__d" x1="13.31" x2="15.248" y1="2.144" y2="9.36" gradientUnits="userSpaceOnUse"><stop stop-color="#A1ECFF" stop-opacity=".9"/><stop offset=".92" stop-color="#A1ECFF" stop-opacity="0"/></linearGradient></defs></svg>