<svg xmlns="http://www.w3.org/2000/svg" width="28" height="28" fill="currentColor"><path fill-rule="evenodd" d="M14.514 2.904c2.314 1.428 9.72 5.998 11.014 6.799a.986.986 0 0 1 .468.845v11.68c0 .502-.022.924-.064 1.279a2.25 2.25 0 0 1-4.432-.538h-.003v-7.725c0-.902-.476-1.7-1.207-2.139l-7.968-4.92a2.503 2.503 0 0 0-2.637-.006l-7.68 4.742v-2.367c0-.36.193-.677.475-.851 2.363-1.456 8.2-5.056 10.99-6.78.156-.097.336-.156.534-.156.186 0 .36.048.51.137ZM2.006 15.136v2.48l4.68-2.89a2.503 2.503 0 0 1 2.637.007l1.637 1.011c.963.595 2.208 1.363 3.34 2.06a2.494 2.494 0 0 1 1.198 2.13v3.794c0 .823.67 1.495 1.5 1.495v.006h3.76a3.732 3.732 0 0 1-.758-2.26l-.003-7.725a.989.989 0 0 0-.486-.857l-7.984-4.93a1.003 1.003 0 0 0-1.056 0l-7.985 4.93c-.26.156-.445.43-.48.748Zm12.392 10.087c-.254-.44-.4-.95-.4-1.495v-3.794a.993.993 0 0 0-.48-.85 3755.744 3755.744 0 0 1-4.991-3.08 1.003 1.003 0 0 0-1.056 0L2.474 19.09c-.253.162-.434.43-.468.743v2.402c0 .822.332 1.567.87 2.108l.002.002A2.992 2.992 0 0 0 5 25.223l9.402.006-.004-.006Z" clip-rule="evenodd"/></svg>