<svg xmlns="http://www.w3.org/2000/svg" width="24" height="24" fill="currentColor"><path d="M6.25 3a2.25 2.25 0 0 1 2.248 2.25v13.5a2.25 2.25 0 1 1-4.498 0V5.25A2.25 2.25 0 0 1 6.25 3ZM12.75 7a2.25 2.25 0 0 1 2.248 2.25v2.483a6.5 6.5 0 0 0-2.484 9.255A2.25 2.25 0 0 1 10.5 18.75V9.249A2.25 2.25 0 0 1 12.75 7Z"/><path d="M23.5 17.5a5.5 5.5 0 1 1-11 0 5.5 5.5 0 0 1 11 0Zm-9.5 0c0 .834.255 1.608.691 2.248l5.557-5.557A4 4 0 0 0 14 17.5Zm4 4a4 4 0 0 0 3.309-6.248l-5.557 5.557c.64.436 1.414.691 2.248.691Z"/></svg>