<svg xmlns="http://www.w3.org/2000/svg" width="16" height="16" fill="currentColor"><path d="M8 6c2.761 0 5-1.119 5-2.5S10.761 1 8 1 3 2.119 3 3.5 5.239 6 8 6ZM3 8V5.487C4.057 6.413 5.864 7 8 7c.116 0 .23-.002.344-.005A5.504 5.504 0 0 0 6.13 10.31C4.314 9.932 3 9.026 3 8ZM6.003 11.308a5.477 5.477 0 0 0 1.232 3.665C4.773 14.8 3 13.796 3 12.5V9.959c.71.623 1.758 1.1 3.003 1.35ZM16 11.5a4.5 4.5 0 1 1-9 0 4.5 4.5 0 0 1 9 0Zm-5.556-2a.5.5 0 0 0-.475.303l-.584 1.364H9a.5.5 0 1 0 0 1h.714a.5.5 0 0 0 .46-.303l.212-.496.643 1.8a.5.5 0 0 0 .935.018l.672-1.673.209.39a.5.5 0 0 0 .44.264H14a.5.5 0 0 0 0-1h-.415l-.573-1.07a.5.5 0 0 0-.905.05l-.58 1.443-.628-1.758a.5.5 0 0 0-.455-.332Z"/></svg>