<svg xmlns="http://www.w3.org/2000/svg" width="16" height="16" fill="currentColor"><path fill-rule="evenodd" d="M7.583 14.972a.74.74 0 0 0 .482-.027l4.838-2.152a.486.486 0 0 0 .147-.098.571.571 0 0 0 .043-.776l-2.063-2.45 2.738-4.37.005-.009c.145-.242.219-.52.219-.8 0-.602-.345-1.172-.917-1.421l-.025-.012-4.664-1.733a1.705 1.705 0 0 0-1.256-.01L2.787 2.67a1 1 0 0 0-.395 1.622l2.534 3.877-2.508 2.623-.023.027a1.571 1.571 0 0 0 .118 2.13c.13.126.28.225.438.294l4.632 1.729Zm-.415-1.222 5.747-9.174a.555.555 0 0 0 .077-.286.547.547 0 0 0-.317-.505l-4.652-1.73a.707.707 0 0 0-.548-.002L3.125 3.61l4.159 2.02c.25.147.426.41.426.734 0 .207-.07.394-.19.538L5.487 9.028l-2.323 2.43a.571.571 0 0 0 .043.771.48.48 0 0 0 .145.099l3.815 1.422Z" clip-rule="evenodd"/></svg>