<svg xmlns="http://www.w3.org/2000/svg" width="24" height="24" fill="currentColor"><path fill="url(#icon-cd7f65d43774d9bc__icon-2edd26e326c5e460__a)" d="M19.5 21.356c1.38 0 2.5-1.118 2.5-2.496V9.125c0-.3-.155-.56-.39-.704-1.97-1.218-6.86-4.234-9.18-5.667a.844.844 0 0 0-.87.015C9.235 4.207 4.37 7.208 2.4 8.421a.835.835 0 0 0-.395.709v9.735a2.499 2.499 0 0 0 2.5 2.496h15l-.005-.005Z"/><path fill="url(#icon-d9545844b348c321__icon-f3fc663fc6f51e88__b)" d="M2 13.273v5.586a2.499 2.499 0 0 0 2.5 2.496h15c1.38 0 2.5-1.118 2.5-2.496v-5.587H2Z"/><path fill="url(#icon-e38f70dbb7ac410b__icon-fa424a2d12605d6f__c)" d="M4.5 21.356c-1.38 0-2.5-1.119-2.5-2.497v-5.82c0-.305.165-.57.405-.715L9.06 8.216a.836.836 0 0 1 .88 0l6.655 4.108c.245.145.405.41.405.714v5.821a2.499 2.499 0 0 0 2.5 2.497h-15Z"/><path fill="url(#icon-784b281fb0711da8__icon-fb323b8726b62098__d)" d="M4.5 21.356c-1.38 0-2.5-1.119-2.5-2.497v-5.82c0-.305.165-.57.405-.715L9.06 8.216a.836.836 0 0 1 .88 0l6.655 4.108c.245.145.405.41.405.714v5.821a2.499 2.499 0 0 0 2.5 2.497h-15Z"/><path fill="url(#icon-deb5ac26e7726940__icon-4ca61c34c5551832__e)" d="M17 18.859v-5.587H2v5.587a2.499 2.499 0 0 0 2.5 2.496h15c-1.38 0-2.5-1.118-2.5-2.496Z"/><path fill="url(#icon-da044fbc419eaeec__icon-7ec1f0b114cb014e__f)" d="M4.5 21.356c-1.38 0-2.5-1.118-2.5-2.496v-1.907c0-.3.16-.56.395-.71l4.165-2.57a.837.837 0 0 1 .88 0s2.27 1.403 4.16 2.566c.24.145.4.41.4.709v1.912a2.499 2.499 0 0 0 2.5 2.496h-10Z"/><path fill="url(#icon-f0997d99062ceffa__icon-12f1a4bb46765642__g)" d="M12.415 20.238A2.483 2.483 0 0 1 12 18.865v-1.912c0-.3-.16-.565-.4-.71a3108.24 3108.24 0 0 1-4.16-2.565.837.837 0 0 0-.88 0l-4.165 2.57a.835.835 0 0 0-.395.71v1.907c0 .509.155.983.415 1.378h10v-.005Z"/><defs><linearGradient id="icon-cd7f65d43774d9bc__icon-2edd26e326c5e460__a" x1="12" x2="12" y1="21.356" y2="2.635" gradientUnits="userSpaceOnUse"><stop stop-color="#114A85"/><stop offset=".67" stop-color="#028EDB"/></linearGradient><linearGradient id="icon-d9545844b348c321__icon-f3fc663fc6f51e88__b" x1="12" x2="12" y1="22.214" y2="14.131" gradientUnits="userSpaceOnUse"><stop stop-opacity=".2"/><stop offset=".55" stop-opacity="0"/></linearGradient><linearGradient id="icon-e38f70dbb7ac410b__icon-fa424a2d12605d6f__c" x1="10.75" x2="10.75" y1="21.356" y2="8.091" gradientUnits="userSpaceOnUse"><stop offset=".31" stop-color="#0094E5"/><stop offset="1" stop-color="#40D8F9"/></linearGradient><linearGradient id="icon-deb5ac26e7726940__icon-4ca61c34c5551832__e" x1="10.75" x2="10.75" y1="21.355" y2="13.273" gradientUnits="userSpaceOnUse"><stop offset=".09" stop-opacity=".2"/><stop offset=".55" stop-opacity="0"/></linearGradient><linearGradient id="icon-da044fbc419eaeec__icon-7ec1f0b114cb014e__f" x1="8.25" x2="8.25" y1="21.361" y2="13.548" gradientUnits="userSpaceOnUse"><stop stop-color="#3CC5EE"/><stop offset="1" stop-color="#50E0FF"/></linearGradient><linearGradient id="icon-f0997d99062ceffa__icon-12f1a4bb46765642__g" x1="7.205" x2="7.205" y1="19.034" y2="12.345" gradientUnits="userSpaceOnUse"><stop stop-color="#A1ECFF" stop-opacity="0"/><stop offset=".9" stop-color="#A1ECFF" stop-opacity=".9"/></linearGradient><radialGradient id="icon-784b281fb0711da8__icon-fb323b8726b62098__d" cx="0" cy="0" r="1" gradientTransform="matrix(7.34497 0 0 7.33385 7.39 19.628)" gradientUnits="userSpaceOnUse"><stop stop-opacity=".3"/><stop offset="1" stop-opacity="0"/></radialGradient></defs></svg>