<svg xmlns="http://www.w3.org/2000/svg" width="16" height="16" fill="currentColor"><path d="M12.496.997a.5.5 0 0 1 .5.5v2.467l2.349-.763a.5.5 0 1 1 .309.951l-2.348.763 1.45 1.996a.5.5 0 0 1-.809.588l-1.45-1.995-1.449 1.995a.5.5 0 1 1-.809-.588l1.451-1.997-2.344-.762a.5.5 0 1 1 .309-.951l2.341.76V1.498a.5.5 0 0 1 .5-.5Z"/><path d="M8 1c.542 0 1.058.039 1.539.111a4.524 4.524 0 0 0-.8.917A9.602 9.602 0 0 0 8 2c-2.442 0-4 .888-4 1.5S5.559 5 8 5h.027c.039.349.118.686.231 1.006-.086 0-.172-.002-.258-.006a7.409 7.409 0 0 1-4-.979V8c0 .612 1.558 1.5 4 1.5 1.428 0 2.554-.304 3.242-.678a4.502 4.502 0 0 0 1.758.15V12.5c0 1.425-2.149 2.5-5 2.5s-5-1.075-5-2.5v-9C3 2.075 5.149 1 8 1Zm0 13c2.441 0 4-.889 4-1.5V9.537c-.897.593-2.328.963-4 .963-1.672 0-3.103-.37-4-.963V12.5c0 .611 1.558 1.5 4 1.5Z"/></svg>