<svg xmlns="http://www.w3.org/2000/svg" width="20" height="20" fill="currentColor"><path d="M15 6.501v2.522c.343.031.678.094 1 .185V8.001h1.5a.5.5 0 0 0 0-1H16v-.5a2.5 2.5 0 0 0-2.5-2.5H13v-1.5a.5.5 0 0 0-1 0v1.5h-1.5v-1.5a.5.5 0 0 0-1 0v1.5H8v-1.5a.5.5 0 1 0-1 0v1.5h-.5a2.5 2.5 0 0 0-2.5 2.5v.5H2.5a.5.5 0 1 0 0 1H4v1.5H2.5a.5.5 0 0 0 0 1H4v1.5H2.5a.5.5 0 1 0 0 1H4v.5a2.5 2.5 0 0 0 2.5 2.5H7v1.5a.5.5 0 0 0 1 0v-1.5h1.207a5.48 5.48 0 0 1-.185-1H6.5a1.5 1.5 0 0 1-1.5-1.5v-7a1.5 1.5 0 0 1 1.5-1.5h7a1.5 1.5 0 0 1 1.5 1.5Z"/><path d="m10.986 7.54-.416 1.461h1.529a.4.4 0 0 1 .4.375 5.514 5.514 0 0 0-3.276 3.57.41.41 0 0 1-.2-.487L9.454 11H7.9a.4.4 0 0 1-.307-.657l2.668-3.188c.29-.348.85-.051.726.385ZM14.5 13.03c.051.078.106.154.164.228l.017.022.019.021c.118.136.262.291.432.467a4.658 4.658 0 0 0 .916.733 5.39 5.39 0 0 0-.912.732c-.163.16-.316.329-.46.506a3.735 3.735 0 0 0-.179.24c-.049-.074-.155-.215-.155-.215a4.898 4.898 0 0 0-.5-.55 6.086 6.086 0 0 0-.882-.709c.092-.058.182-.121.271-.187.217-.163.424-.339.619-.527a4.83 4.83 0 0 0 .649-.761h.001Z"/><path d="M19 14.501a4.5 4.5 0 1 1-9 0 4.5 4.5 0 0 1 9 0Zm-4.5-3.499a.505.505 0 0 0-.5.5c0 .207-.042.41-.125.6a2.553 2.553 0 0 1-.328.539c-.12.153-.25.296-.391.429-.165.16-.34.309-.523.446-.18.135-.373.25-.578.343a1.467 1.467 0 0 1-.555.143.5.5 0 1 0 0 1c.193.005.383.053.555.141.2.095.392.21.57.343a5.228 5.228 0 0 1 .923.883c.128.163.235.342.32.531.084.189.13.393.133.6a.5.5 0 0 0 1 0c0-.207.042-.411.125-.6.086-.19.196-.37.328-.531.122-.15.253-.293.391-.429a4.342 4.342 0 0 1 1.101-.797c.171-.089.361-.137.554-.141a.5.5 0 0 0 0-1 1.254 1.254 0 0 1-.547-.141 4.188 4.188 0 0 1-.578-.343 3.601 3.601 0 0 1-.523-.446c-.157-.16-.29-.304-.4-.429a2.524 2.524 0 0 1-.32-.532c-.085-.192-.13-.4-.132-.609a.505.505 0 0 0-.5-.5Z"/></svg>