<svg xmlns="http://www.w3.org/2000/svg" width="20" height="20" fill="currentColor"><path d="M12.875 3C13.496 3 14 3.504 14 4.125v2.75C14 7.496 13.496 8 12.875 8h-.993l2.4 4h1.593c.621 0 1.125.504 1.125 1.125v2.75c0 .621-.504 1.125-1.125 1.125h-3.75A1.125 1.125 0 0 1 11 15.875v-2.75c0-.621.504-1.125 1.125-1.125h.991l-2.4-4H9.282l-2.4 4h.993C8.496 12 9 12.504 9 13.125v2.75C9 16.496 8.496 17 7.875 17h-3.75A1.125 1.125 0 0 1 3 15.875v-2.75C3 12.504 3.504 12 4.125 12h1.59l2.4-4h-.99A1.125 1.125 0 0 1 6 6.875v-2.75C6 3.504 6.504 3 7.125 3h5.75ZM13 4.125A.125.125 0 0 0 12.875 4h-5.75A.125.125 0 0 0 7 4.125v2.75c0 .069.056.125.125.125h5.75A.125.125 0 0 0 13 6.875v-2.75Zm-5 9A.125.125 0 0 0 7.875 13h-3.75a.125.125 0 0 0-.125.125v2.75c0 .069.056.125.125.125h3.75A.125.125 0 0 0 8 15.875v-2.75ZM15.875 13h-3.75a.125.125 0 0 0-.125.125v2.75c0 .069.056.125.125.125h3.75a.125.125 0 0 0 .125-.125v-2.75a.125.125 0 0 0-.125-.125Z"/></svg>