<svg xmlns="http://www.w3.org/2000/svg" width="32" height="32" fill="none"><g clip-path="url(#icon-06db07ec3c3aeb7c__a)"><mask id="icon-544053f1f87fe783__b" width="32" height="32" x="0" y="0" maskUnits="userSpaceOnUse" style="mask-type:luminance"><path fill="#fff" d="M32 0H0v32h32V0Z"/></mask><g mask="url(#icon-544053f1f87fe783__b)"><path fill="url(#icon-cb7b6f35dba900ba__c)" d="M3 6.5A3.5 3.5 0 0 1 6.5 3h19A3.5 3.5 0 0 1 29 6.5v19a3.5 3.5 0 0 1-3.5 3.5h-19A3.5 3.5 0 0 1 3 25.5v-19Z"/><path fill="url(#icon-656a3a7c83a18862__d)" fill-opacity=".2" d="M3 6.5A3.5 3.5 0 0 1 6.5 3h19A3.5 3.5 0 0 1 29 6.5v19a3.5 3.5 0 0 1-3.5 3.5h-19A3.5 3.5 0 0 1 3 25.5v-19Z"/><path fill="url(#icon-e70229ffc741c9d2__e)" fill-rule="evenodd" d="M25.5 4h-19A2.5 2.5 0 0 0 4 6.5v19A2.5 2.5 0 0 0 6.5 28h19a2.5 2.5 0 0 0 2.5-2.5v-19A2.5 2.5 0 0 0 25.5 4Zm-19-1A3.5 3.5 0 0 0 3 6.5v19A3.5 3.5 0 0 0 6.5 29h19a3.5 3.5 0 0 0 3.5-3.5v-19A3.5 3.5 0 0 0 25.5 3h-19Z" clip-rule="evenodd"/><path fill="url(#icon-8808831224b2da44__f)" fill-rule="evenodd" d="M8.5 14.495a1 1 0 0 0 1.385.923L11 14.954v2.51l-1.885.785a1 1 0 0 0-.615.923v3.327a1 1 0 0 0 1.385.924l4-1.667a1 1 0 0 0 .615-.923v-1.246a4.815 4.815 0 0 1 .832-.216c.611-.102 1.384-.11 2.168.205v1.257a1 1 0 0 0 .615.923l4 1.666A1 1 0 0 0 23.5 22.5v-3.327a1 1 0 0 0-.615-.924L21 17.463v-2.51l1.115.465a1 1 0 0 0 1.385-.923v-3.327a1 1 0 0 0-.615-.924l-4-1.666A1 1 0 0 0 17.5 9.5v1.012a5.116 5.116 0 0 0-2.332-.132c-.25.042-.476.096-.668.152V9.501a1 1 0 0 0-1.385-.923l-4 1.666a1 1 0 0 0-.615.924v3.327Zm9 4.022v-1.012a1 1 0 0 1 1.385-.923l1.115.465v-2.51l-1.885-.785a1 1 0 0 1-.615-.923v-1.257c-.784-.313-1.557-.306-2.168-.204-.34.056-.623.141-.82.211l-.012.005v1.245a1 1 0 0 1-.615.923L12 14.537v2.51l1.115-.465a1 1 0 0 1 1.385.923v1.032c.192-.056.417-.11.668-.152a5.118 5.118 0 0 1 2.332.131Zm5-4.022-4-1.666V9.5l4 1.667v3.327Zm0 4.677v3.327l-4-1.666v-3.328l4 1.667Z" clip-rule="evenodd"/><path fill="#F5F5F5" fill-rule="evenodd" d="M24.317 19h4.828a1.5 1.5 0 0 1 1.307 2.235l-.999 1.777c1.369.153 2.054 1.813 1.11 2.891l-4.824 5.508c-1.196 1.365-3.42.203-2.98-1.558L23.22 28h-1.723a1.5 1.5 0 0 1-1.357-2.138l2.82-6A1.5 1.5 0 0 1 24.317 19Z" clip-rule="evenodd"/><path fill="url(#icon-fb6b496a2e03d76d__g)" d="M29.145 20h-4.828a.5.5 0 0 0-.452.287l-2.82 6a.5.5 0 0 0 .452.713H24.5l-.771 3.095c-.185.742.753 1.233 1.257.657l4.824-5.508A.75.75 0 0 0 29.246 24H27.75l1.83-3.255a.5.5 0 0 0-.435-.745Z"/></g></g><defs><linearGradient id="icon-cb7b6f35dba900ba__c" x1="10.222" x2="13.511" y1="3" y2="29.311" gradientUnits="userSpaceOnUse"><stop stop-color="#fff"/><stop offset="1" stop-color="#EBEBEB"/></linearGradient><linearGradient id="icon-e70229ffc741c9d2__e" x1="11.396" x2="14.897" y1="3" y2="29.256" gradientUnits="userSpaceOnUse"><stop stop-color="#BBB"/><stop offset="1" stop-color="#888"/></linearGradient><linearGradient id="icon-8808831224b2da44__f" x1="8.5" x2="23.501" y1="8.5" y2="23.5" gradientUnits="userSpaceOnUse"><stop stop-color="#E03F8F"/><stop offset="1" stop-color="#BD1E7B"/></linearGradient><linearGradient id="icon-fb6b496a2e03d76d__g" x1="20.997" x2="31.783" y1="20" y2="28.822" gradientUnits="userSpaceOnUse"><stop stop-color="#E03F8F"/><stop offset="1" stop-color="#BD1E7B"/></linearGradient><radialGradient id="icon-656a3a7c83a18862__d" cx="0" cy="0" r="1" gradientTransform="matrix(13.7222 20.58336 -17.81255 11.875 11.306 9.771)" gradientUnits="userSpaceOnUse"><stop offset=".177" stop-color="#fff"/><stop offset="1" stop-color="#B8B8B8"/></radialGradient><clipPath id="icon-06db07ec3c3aeb7c__a"><path fill="#fff" d="M0 0h32v32H0z"/></clipPath></defs></svg>