<svg xmlns="http://www.w3.org/2000/svg" width="24" height="24" fill="none"><path fill="url(#icon-967706a00f6abb5a__a)" d="M5 2a3 3 0 0 0-3 3v14a3 3 0 0 0 3 3h14c.088 0 .175-.004.261-.011a2 2 0 0 1 2.728-2.728c.007-.086.011-.173.011-.261V5a3 3 0 0 0-3-3H5Z"/><path fill="url(#icon-972bedc8594692b5__b)" fill-opacity=".2" d="M5 2a3 3 0 0 0-3 3v14a3 3 0 0 0 3 3h14c.088 0 .175-.004.261-.011a2 2 0 0 1 2.728-2.728c.007-.086.011-.173.011-.261V5a3 3 0 0 0-3-3H5Z"/><path fill="url(#icon-ab549b15225e0c55__c)" d="M5 3h14a2 2 0 0 1 2 2v14c.36 0 .697.095.989.261.007-.086.011-.173.011-.261V5a3 3 0 0 0-3-3H5a3 3 0 0 0-3 3v14a3 3 0 0 0 3 3h14c.088 0 .175-.004.261-.011A1.99 1.99 0 0 1 19 21H5a2 2 0 0 1-2-2V5a2 2 0 0 1 2-2Z"/><path fill="url(#icon-4fe83b899f1df10e__d)" fill-rule="evenodd" d="M6 16.998a1 1 0 0 0 1.371.93l3-1.201a1 1 0 0 0 .629-.93v-.555a2.73 2.73 0 0 1 .546-.185c.411-.091.924-.1 1.454.172v.569a1 1 0 0 0 .629.929l3 1.2A1 1 0 0 0 18 16.998v-2.347a1 1 0 0 0-.629-.929L16 13.173v-1.946l.629.252a1 1 0 0 0 1.371-.93V8.203a1 1 0 0 0-.629-.929l-3-1.2A1 1 0 0 0 13 7.002v.702a3.16 3.16 0 0 0-1.671-.067 3.657 3.657 0 0 0-.329.09v-.725a1 1 0 0 0-1.371-.93l-3 1.201a1 1 0 0 0-.629.93v2.347a1 1 0 0 0 1.371.929L8 11.227v1.946l-1.371.55A1 1 0 0 0 6 14.65v2.347Zm5-8.2v.55a1 1 0 0 1-.629.93L9 10.827v1.946l.629-.252a1 1 0 0 1 1.371.93v.72a3.62 3.62 0 0 1 .329-.09 3.16 3.16 0 0 1 1.671.067v-.698a1 1 0 0 1 1.371-.929l.629.252v-1.946l-1.371-.55A1 1 0 0 1 13 9.35v-.564a2.109 2.109 0 0 0-1.454-.172c-.221.05-.41.122-.546.185Zm6 8.2-3-1.2V13.45l3 1.201v2.347Zm-3-9.996v2.347l3 1.2V8.203l-3-1.2Z" clip-rule="evenodd"/><path fill="#F5F5F5" fill-rule="evenodd" d="M15.971 21h-.47a1.5 1.5 0 0 1-1.384-2.077l2.084-5A1.5 1.5 0 0 1 17.585 13h3.473a1.5 1.5 0 0 1 1.423 1.974l-.349 1.047c1.392.215 2.001 1.991.911 3.008l-4.872 4.548c-1.093 1.02-2.841-.01-2.48-1.46l.28-1.117Z" clip-rule="evenodd"/><path fill="url(#icon-31ec5ce7f931e5ab__e)" d="M17.252 20h-1.75a.5.5 0 0 1-.462-.692l2.084-5a.5.5 0 0 1 .461-.308h3.473a.5.5 0 0 1 .475.658L20.752 17h1.097a.75.75 0 0 1 .512 1.298l-4.873 4.548c-.364.34-.947-.004-.826-.487l.59-2.359Z"/><defs><linearGradient id="icon-967706a00f6abb5a__a" x1="7.556" x2="10.085" y1="2" y2="22.239" gradientUnits="userSpaceOnUse"><stop stop-color="#fff"/><stop offset="1" stop-color="#EBEBEB"/></linearGradient><linearGradient id="icon-ab549b15225e0c55__c" x1="8.458" x2="11.151" y1="2" y2="22.197" gradientUnits="userSpaceOnUse"><stop stop-color="#BBB"/><stop offset="1" stop-color="#888"/></linearGradient><linearGradient id="icon-4fe83b899f1df10e__d" x1="6" x2="18" y1="6" y2="18" gradientUnits="userSpaceOnUse"><stop stop-color="#E03F8F"/><stop offset="1" stop-color="#BD1E7B"/></linearGradient><linearGradient id="icon-31ec5ce7f931e5ab__e" x1="15.002" x2="23.86" y1="14" y2="21.494" gradientUnits="userSpaceOnUse"><stop stop-color="#E03F8F"/><stop offset="1" stop-color="#BD1E7B"/></linearGradient><radialGradient id="icon-972bedc8594692b5__b" cx="0" cy="0" r="1" gradientTransform="rotate(56.31 -2.54 11.442) scale(19.0293 16.4677)" gradientUnits="userSpaceOnUse"><stop offset=".177" stop-color="#fff"/><stop offset="1" stop-color="#B8B8B8"/></radialGradient></defs></svg>