<svg xmlns="http://www.w3.org/2000/svg" width="48" height="48" fill="none"><path fill="url(#icon-14d8e85fa0883e22__a)" d="M5 10a5 5 0 0 1 5-5h28a5 5 0 0 1 5 5v28a5 5 0 0 1-5 5H10a5 5 0 0 1-5-5V10Z"/><path fill="url(#icon-aa57e6fa5b7db214__b)" fill-opacity=".2" d="M5 10a5 5 0 0 1 5-5h28a5 5 0 0 1 5 5v28a5 5 0 0 1-5 5H10a5 5 0 0 1-5-5V10Z"/><path fill="url(#icon-9864cb55c1c40038__c)" fill-rule="evenodd" d="M38 6H10a4 4 0 0 0-4 4v28a4 4 0 0 0 4 4h28a4 4 0 0 0 4-4V10a4 4 0 0 0-4-4ZM10 5a5 5 0 0 0-5 5v28a5 5 0 0 0 5 5h28a5 5 0 0 0 5-5V10a5 5 0 0 0-5-5H10Z" clip-rule="evenodd"/><path fill="url(#icon-ebb65eb32b782821__d)" fill-rule="evenodd" d="M14 22.443a1 1 0 0 0 1.4.916l1.85-.809v3.556l-2.65 1.16a1 1 0 0 0-.6.916v4.817a1 1 0 0 0 1.4.916l6-2.625a1 1 0 0 0 .6-.916v-1.376a5.027 5.027 0 0 1 1.21-.41c.783-.156 1.783-.157 2.79.405v1.38a1 1 0 0 0 .6.917l6 2.625a1 1 0 0 0 1.4-.916v-4.817a1 1 0 0 0-.6-.916l-2.65-1.16V22.55l1.85.81a1 1 0 0 0 1.4-.917v-4.817a1 1 0 0 0-.6-.916l-6-2.625A1 1 0 0 0 26 15v1.786c-1.145-.432-2.239-.394-3.085-.225-.347.07-.656.162-.915.254V15a1 1 0 0 0-1.4-.916l-6 2.625a1 1 0 0 0-.6.916v4.817Zm15.25-.549-2.65-1.16a1 1 0 0 1-.6-.916v-1.381c-1.007-.561-2.007-.56-2.79-.404a5.027 5.027 0 0 0-1.21.41v1.375a1 1 0 0 1-.6.916l-2.65 1.16v3.556l1.85-.81a1 1 0 0 1 1.4.917v1.815c.259-.093.568-.185.915-.254.846-.17 1.94-.207 3.085.225v-1.786a1 1 0 0 1 1.4-.916l1.85.809v-3.556Zm3.25-3.94v3.725l-5-2.188v-3.725l5 2.187Zm0 10.555v3.725l-5-2.187V26.32l5 2.188Z" clip-rule="evenodd"/><defs><linearGradient id="icon-14d8e85fa0883e22__a" x1="15.556" x2="20.362" y1="5" y2="43.455" gradientUnits="userSpaceOnUse"><stop stop-color="#fff"/><stop offset="1" stop-color="#EBEBEB"/></linearGradient><linearGradient id="icon-9864cb55c1c40038__c" x1="17.271" x2="22.387" y1="5" y2="43.373" gradientUnits="userSpaceOnUse"><stop stop-color="#BBB"/><stop offset="1" stop-color="#888"/></linearGradient><linearGradient id="icon-ebb65eb32b782821__d" x1="14" x2="34" y1="14" y2="34" gradientUnits="userSpaceOnUse"><stop stop-color="#E03F8F"/><stop offset="1" stop-color="#BD1E7B"/></linearGradient><radialGradient id="icon-aa57e6fa5b7db214__b" cx="0" cy="0" r="1" gradientTransform="rotate(56.31 -5.347 23.46) scale(36.1557 31.2886)" gradientUnits="userSpaceOnUse"><stop offset=".177" stop-color="#fff"/><stop offset="1" stop-color="#B8B8B8"/></radialGradient></defs></svg>