<svg xmlns="http://www.w3.org/2000/svg" width="20" height="20" fill="none"><path fill="url(#icon-ba7d78c4a3bd4d4d__a)" d="M4.5 2A2.5 2.5 0 0 0 2 4.5v11A2.5 2.5 0 0 0 4.5 18h10.768A2 2 0 0 1 18 15.268V4.5A2.5 2.5 0 0 0 15.5 2h-11Z"/><path fill="url(#icon-13a34ef168b49c7c__b)" fill-opacity=".2" d="M4.5 2A2.5 2.5 0 0 0 2 4.5v11A2.5 2.5 0 0 0 4.5 18h10.768A2 2 0 0 1 18 15.268V4.5A2.5 2.5 0 0 0 15.5 2h-11Z"/><path fill="url(#icon-66a1a80daefd43f9__c)" d="M4.5 3h11A1.5 1.5 0 0 1 17 4.5V15c.364 0 .706.097 1 .268V4.5A2.5 2.5 0 0 0 15.5 2h-11A2.5 2.5 0 0 0 2 4.5v11A2.5 2.5 0 0 0 4.5 18h10.768A1.99 1.99 0 0 1 15 17H4.5A1.5 1.5 0 0 1 3 15.5v-11A1.5 1.5 0 0 1 4.5 3Z"/><path fill="url(#icon-5fccc7c9055b7f3c__d)" fill-rule="evenodd" d="M4.5 8.547a1 1 0 0 0 1.371.928l.437-.174v1.798l-1.18.472a1 1 0 0 0-.628.928v2a1 1 0 0 0 1.371.928l2.616-1.046a1 1 0 0 0 .628-.928v-.498l.059-.024c.11-.043.269-.095.46-.13a2.032 2.032 0 0 1 1.25.149v.503a1 1 0 0 0 .63.928l2.615 1.046A1 1 0 0 0 15.5 14.5v-2a1 1 0 0 0-.629-.928l-1.179-.472V9.301l.437.174a1 1 0 0 0 1.371-.928v-2a1 1 0 0 0-.629-.928l-2.615-1.046a1 1 0 0 0-1.371.928v.51a3.108 3.108 0 0 0-1.43-.065c-.124.022-.237.05-.34.079V5.5a1 1 0 0 0-1.371-.928L5.129 5.619a1 1 0 0 0-.629.928v2Zm6.385 3.336v-.43a1 1 0 0 1 1.371-.928l.436.174V8.901l-1.179-.472a1 1 0 0 1-.628-.928v-.423a2.032 2.032 0 0 0-1.252-.148 2.526 2.526 0 0 0-.518.153V7.5a1 1 0 0 1-.628.928l-1.18.472v1.798l.437-.174a1 1 0 0 1 1.371.928v.444a3.53 3.53 0 0 1 .34-.08 3.108 3.108 0 0 1 1.43.066ZM14.5 8.547 11.885 7.5v-2L14.5 6.547v2Zm0 5.952-2.615-1.046v-2L14.5 12.5v2Z" clip-rule="evenodd"/><path fill="#F5F5F5" fill-rule="evenodd" d="M11.971 17h-.47a1.5 1.5 0 0 1-1.384-2.077l2.083-5A1.5 1.5 0 0 1 13.585 9h3.473a1.5 1.5 0 0 1 1.423 1.974l-.349 1.047c1.392.215 2.001 1.991.911 3.008l-4.872 4.548c-1.093 1.02-2.841-.01-2.48-1.46l.28-1.117Z" clip-rule="evenodd"/><path fill="url(#icon-c94d3c736bb8684e__e)" d="M13.252 16h-1.75a.5.5 0 0 1-.462-.692l2.084-5a.5.5 0 0 1 .461-.308h3.473a.5.5 0 0 1 .475.658L16.752 13h1.097a.75.75 0 0 1 .512 1.298l-4.873 4.548c-.364.34-.947-.004-.826-.487l.59-2.359Z"/><defs><linearGradient id="icon-ba7d78c4a3bd4d4d__a" x1="6.444" x2="8.468" y1="2" y2="18.192" gradientUnits="userSpaceOnUse"><stop stop-color="#fff"/><stop offset="1" stop-color="#EBEBEB"/></linearGradient><linearGradient id="icon-66a1a80daefd43f9__c" x1="7.167" x2="9.321" y1="2" y2="18.157" gradientUnits="userSpaceOnUse"><stop stop-color="#BBB"/><stop offset="1" stop-color="#888"/></linearGradient><linearGradient id="icon-5fccc7c9055b7f3c__d" x1="4.5" x2="15.5" y1="4.5" y2="15.5" gradientUnits="userSpaceOnUse"><stop stop-color="#E03F8F"/><stop offset="1" stop-color="#BD1E7B"/></linearGradient><linearGradient id="icon-c94d3c736bb8684e__e" x1="11.002" x2="19.86" y1="10" y2="17.494" gradientUnits="userSpaceOnUse"><stop stop-color="#E03F8F"/><stop offset="1" stop-color="#BD1E7B"/></linearGradient><radialGradient id="icon-13a34ef168b49c7c__b" cx="0" cy="0" r="1" gradientTransform="rotate(56.31 -2.206 9.727) scale(15.2234 13.1741)" gradientUnits="userSpaceOnUse"><stop offset=".177" stop-color="#fff"/><stop offset="1" stop-color="#B8B8B8"/></radialGradient></defs></svg>