<svg xmlns="http://www.w3.org/2000/svg" width="20" height="20" fill="none"><path fill="url(#icon-e98dc5a4a12f8ead__a)" d="M2 4.5A2.5 2.5 0 0 1 4.5 2h11A2.5 2.5 0 0 1 18 4.5v11a2.5 2.5 0 0 1-2.5 2.5h-11A2.5 2.5 0 0 1 2 15.5v-11Z"/><path fill="url(#icon-25058c9f02c14c2e__b)" fill-opacity=".2" d="M2 4.5A2.5 2.5 0 0 1 4.5 2h11A2.5 2.5 0 0 1 18 4.5v11a2.5 2.5 0 0 1-2.5 2.5h-11A2.5 2.5 0 0 1 2 15.5v-11Z"/><path fill="url(#icon-0deefc034a3f9357__c)" fill-rule="evenodd" d="M15.5 3h-11A1.5 1.5 0 0 0 3 4.5v11A1.5 1.5 0 0 0 4.5 17h11a1.5 1.5 0 0 0 1.5-1.5v-11A1.5 1.5 0 0 0 15.5 3Zm-11-1A2.5 2.5 0 0 0 2 4.5v11A2.5 2.5 0 0 0 4.5 18h11a2.5 2.5 0 0 0 2.5-2.5v-11A2.5 2.5 0 0 0 15.5 2h-11Z" clip-rule="evenodd"/><path fill="url(#icon-820fb97ec756c444__d)" fill-rule="evenodd" d="M4.5 8.547a1 1 0 0 0 1.371.928l.437-.174v1.798l-1.18.472a1 1 0 0 0-.628.928v2a1 1 0 0 0 1.371.928l2.616-1.046a1 1 0 0 0 .628-.928v-.498l.059-.024c.11-.043.269-.095.46-.13a2.032 2.032 0 0 1 1.25.149v.503a1 1 0 0 0 .63.928l2.615 1.046A1 1 0 0 0 15.5 14.5v-2a1 1 0 0 0-.629-.928l-1.179-.472V9.301l.437.174a1 1 0 0 0 1.371-.928v-2a1 1 0 0 0-.629-.928l-2.615-1.046a1 1 0 0 0-1.371.928v.51a3.108 3.108 0 0 0-1.43-.065c-.124.022-.237.05-.34.079V5.5a1 1 0 0 0-1.371-.928L5.129 5.619a1 1 0 0 0-.629.928v2Zm6.385 3.336v-.43a1 1 0 0 1 1.371-.928l.436.174V8.901l-1.179-.472a1 1 0 0 1-.628-.928v-.423a2.032 2.032 0 0 0-1.252-.148 2.526 2.526 0 0 0-.518.153V7.5a1 1 0 0 1-.628.928l-1.18.472v1.798l.437-.174a1 1 0 0 1 1.371.928v.444a3.53 3.53 0 0 1 .34-.08 3.108 3.108 0 0 1 1.43.066ZM14.5 8.547 11.885 7.5v-2L14.5 6.547v2Zm0 5.952-2.615-1.046v-2L14.5 12.5v2Z" clip-rule="evenodd"/><defs><linearGradient id="icon-e98dc5a4a12f8ead__a" x1="6.444" x2="8.468" y1="2" y2="18.192" gradientUnits="userSpaceOnUse"><stop stop-color="#fff"/><stop offset="1" stop-color="#EBEBEB"/></linearGradient><linearGradient id="icon-0deefc034a3f9357__c" x1="7.167" x2="9.321" y1="2" y2="18.157" gradientUnits="userSpaceOnUse"><stop stop-color="#BBB"/><stop offset="1" stop-color="#888"/></linearGradient><linearGradient id="icon-820fb97ec756c444__d" x1="4.5" x2="15.5" y1="4.5" y2="15.5" gradientUnits="userSpaceOnUse"><stop stop-color="#E03F8F"/><stop offset="1" stop-color="#BD1E7B"/></linearGradient><radialGradient id="icon-25058c9f02c14c2e__b" cx="0" cy="0" r="1" gradientTransform="rotate(56.31 -2.206 9.727) scale(15.2234 13.1741)" gradientUnits="userSpaceOnUse"><stop offset=".177" stop-color="#fff"/><stop offset="1" stop-color="#B8B8B8"/></radialGradient></defs></svg>