<svg xmlns="http://www.w3.org/2000/svg" width="40" height="40" fill="none"><path fill="url(#icon-eea780ef46c70b06__a)" d="M4 8a4 4 0 0 1 4-4h24a4 4 0 0 1 4 4v24a4 4 0 0 1-4 4H8a4 4 0 0 1-4-4V8Z"/><path fill="url(#icon-2f5ac424ad398416__b)" fill-opacity=".2" d="M4 8a4 4 0 0 1 4-4h24a4 4 0 0 1 4 4v24a4 4 0 0 1-4 4H8a4 4 0 0 1-4-4V8Z"/><path fill="url(#icon-4bd2cfac7efbc16d__c)" fill-rule="evenodd" d="M32 5H8a3 3 0 0 0-3 3v24a3 3 0 0 0 3 3h24a3 3 0 0 0 3-3V8a3 3 0 0 0-3-3ZM8 4a4 4 0 0 0-4 4v24a4 4 0 0 0 4 4h24a4 4 0 0 0 4-4V8a4 4 0 0 0-4-4H8Z" clip-rule="evenodd"/><path fill="url(#icon-915bddd17534ae6b__d)" fill-rule="evenodd" d="M11 17.968a1 1 0 0 0 1.394.92l1.606-.69v4.032l-2.394 1.026a1 1 0 0 0-.606.919v3.824a1 1 0 0 0 1.394.92l5-2.144a1 1 0 0 0 .606-.919v-1.55a5.279 5.279 0 0 1 1.16-.377c.793-.16 1.809-.168 2.84.364v1.563a1 1 0 0 0 .606.92l5 2.142a1 1 0 0 0 1.394-.92v-3.823a1 1 0 0 0-.606-.92L26 22.23v-4.031l1.606.688A1 1 0 0 0 29 17.968v-3.824a1 1 0 0 0-.606-.92l-5-2.142a1 1 0 0 0-1.394.92v1.193c-1.123-.448-2.201-.415-3.035-.248a6.29 6.29 0 0 0-.965.275v-1.22a1 1 0 0 0-1.394-.92l-5 2.143a1 1 0 0 0-.606.919v3.824Zm11 5.227v-1.163a1 1 0 0 1 1.394-.92l1.606.69V17.77l-2.394-1.026a1 1 0 0 1-.606-.919v-1.532c-1.031-.532-2.047-.524-2.84-.365a5.28 5.28 0 0 0-1.16.377v1.52a1 1 0 0 1-.606.92L15 17.77v4.031l1.606-.688a1 1 0 0 1 1.394.919v1.19c.265-.099.592-.2.965-.275.834-.167 1.912-.2 3.035.248Zm6-5.227-5-2.143v-3.824l5 2.143v3.824Zm0 6.207v3.824l-5-2.143v-3.824l5 2.143Z" clip-rule="evenodd"/><defs><linearGradient id="icon-eea780ef46c70b06__a" x1="12.889" x2="16.937" y1="4" y2="36.383" gradientUnits="userSpaceOnUse"><stop stop-color="#fff"/><stop offset="1" stop-color="#EBEBEB"/></linearGradient><linearGradient id="icon-4bd2cfac7efbc16d__c" x1="14.333" x2="18.642" y1="4" y2="36.314" gradientUnits="userSpaceOnUse"><stop stop-color="#BBB"/><stop offset="1" stop-color="#888"/></linearGradient><linearGradient id="icon-915bddd17534ae6b__d" x1="11" x2="29" y1="11" y2="29" gradientUnits="userSpaceOnUse"><stop stop-color="#E03F8F"/><stop offset="1" stop-color="#BD1E7B"/></linearGradient><radialGradient id="icon-2f5ac424ad398416__b" cx="0" cy="0" r="1" gradientTransform="rotate(56.31 -4.411 19.454) scale(30.4469 26.3483)" gradientUnits="userSpaceOnUse"><stop offset=".177" stop-color="#fff"/><stop offset="1" stop-color="#B8B8B8"/></radialGradient></defs></svg>