<svg xmlns="http://www.w3.org/2000/svg" width="48" height="48" fill="none"><path fill="url(#icon-38ca09da19aacd04__a)" d="M5 10a5 5 0 0 1 5-5h28a5 5 0 0 1 5 5v28a5 5 0 0 1-5 5H10a5 5 0 0 1-5-5V10Z"/><path fill="url(#icon-48e3536a692b32e3__b)" fill-opacity=".2" d="M5 10a5 5 0 0 1 5-5h28a5 5 0 0 1 5 5v28a5 5 0 0 1-5 5H10a5 5 0 0 1-5-5V10Z"/><path fill="url(#icon-772a0b14010daf2e__c)" fill-rule="evenodd" d="M38 6H10a4 4 0 0 0-4 4v28a4 4 0 0 0 4 4h28a4 4 0 0 0 4-4V10a4 4 0 0 0-4-4ZM10 5a5 5 0 0 0-5 5v28a5 5 0 0 0 5 5h28a5 5 0 0 0 5-5V10a5 5 0 0 0-5-5H10Z" clip-rule="evenodd"/><path fill="url(#icon-1465a6900adaf3d6__d)" fill-rule="evenodd" d="M14 22.443a1 1 0 0 0 1.4.916l1.85-.809v3.556l-2.65 1.16a1 1 0 0 0-.6.916v4.817a1 1 0 0 0 1.4.916l6-2.625a1 1 0 0 0 .6-.916v-1.376a5.027 5.027 0 0 1 1.21-.41c.783-.156 1.783-.157 2.79.405v1.38a1 1 0 0 0 .6.917l6 2.625a1 1 0 0 0 1.4-.916v-4.817a1 1 0 0 0-.6-.916l-2.65-1.16V22.55l1.85.81a1 1 0 0 0 1.4-.917v-4.817a1 1 0 0 0-.6-.916l-6-2.625A1 1 0 0 0 26 15v1.786c-1.145-.432-2.239-.394-3.085-.225-.347.07-.656.162-.915.254V15a1 1 0 0 0-1.4-.916l-6 2.625a1 1 0 0 0-.6.916v4.817Zm15.25-.549-2.65-1.16a1 1 0 0 1-.6-.916v-1.381c-1.007-.561-2.007-.56-2.79-.404a5.027 5.027 0 0 0-1.21.41v1.375a1 1 0 0 1-.6.916l-2.65 1.16v3.556l1.85-.81a1 1 0 0 1 1.4.917v1.815c.259-.093.568-.185.915-.254.846-.17 1.94-.207 3.085.225v-1.786a1 1 0 0 1 1.4-.916l1.85.809v-3.556Zm3.25-3.94v3.725l-5-2.188v-3.725l5 2.187Zm0 10.555v3.725l-5-2.187V26.32l5 2.188Z" clip-rule="evenodd"/><path fill="#F5F5F5" fill-rule="evenodd" d="M36.462 32.858A1.5 1.5 0 0 1 37.817 32h6.329a1.5 1.5 0 0 1 1.307 2.235l-.998 1.775c1.374.14 2.071 1.796 1.137 2.882l-6.416 7.452c-1.237 1.438-3.552.124-2.952-1.676l.89-2.668H34.5a1.5 1.5 0 0 1-1.355-2.142l3.316-7Z" clip-rule="evenodd"/><path fill="url(#icon-4f67c1b20c8c0f91__e)" d="M44.146 33h-6.329a.5.5 0 0 0-.452.286l-3.316 7a.5.5 0 0 0 .452.714h4l-1.328 3.985c-.253.759.723 1.313 1.245.707l6.416-7.453A.75.75 0 0 0 44.266 37H42.75l1.83-3.255a.5.5 0 0 0-.435-.745Z"/><defs><linearGradient id="icon-38ca09da19aacd04__a" x1="15.556" x2="20.362" y1="5" y2="43.455" gradientUnits="userSpaceOnUse"><stop stop-color="#fff"/><stop offset="1" stop-color="#EBEBEB"/></linearGradient><linearGradient id="icon-772a0b14010daf2e__c" x1="17.271" x2="22.387" y1="5" y2="43.373" gradientUnits="userSpaceOnUse"><stop stop-color="#BBB"/><stop offset="1" stop-color="#888"/></linearGradient><linearGradient id="icon-1465a6900adaf3d6__d" x1="14" x2="34" y1="14" y2="34" gradientUnits="userSpaceOnUse"><stop stop-color="#E03F8F"/><stop offset="1" stop-color="#BD1E7B"/></linearGradient><linearGradient id="icon-4f67c1b20c8c0f91__e" x1="34.001" x2="46.783" y1="33" y2="43.874" gradientUnits="userSpaceOnUse"><stop stop-color="#E03F8F"/><stop offset="1" stop-color="#BD1E7B"/></linearGradient><radialGradient id="icon-48e3536a692b32e3__b" cx="0" cy="0" r="1" gradientTransform="rotate(56.31 -5.347 23.46) scale(36.1557 31.2886)" gradientUnits="userSpaceOnUse"><stop offset=".177" stop-color="#fff"/><stop offset="1" stop-color="#B8B8B8"/></radialGradient></defs></svg>