<svg xmlns="http://www.w3.org/2000/svg" width="24" height="24" fill="none"><path fill="url(#icon-2473660f4398834f__a)" d="M2 5a3 3 0 0 1 3-3h14a3 3 0 0 1 3 3v14a3 3 0 0 1-3 3H5a3 3 0 0 1-3-3V5Z"/><path fill="url(#icon-b0fe9ac9c02693cf__b)" fill-opacity=".2" d="M2 5a3 3 0 0 1 3-3h14a3 3 0 0 1 3 3v14a3 3 0 0 1-3 3H5a3 3 0 0 1-3-3V5Z"/><path fill="url(#icon-a26b3a31eca86697__c)" fill-rule="evenodd" d="M19 3H5a2 2 0 0 0-2 2v14a2 2 0 0 0 2 2h14a2 2 0 0 0 2-2V5a2 2 0 0 0-2-2ZM5 2a3 3 0 0 0-3 3v14a3 3 0 0 0 3 3h14a3 3 0 0 0 3-3V5a3 3 0 0 0-3-3H5Z" clip-rule="evenodd"/><path fill="url(#icon-3f2cf9784ff86be6__d)" fill-rule="evenodd" d="M6 16.998a1 1 0 0 0 1.371.93l3-1.201a1 1 0 0 0 .629-.93v-.555a2.73 2.73 0 0 1 .546-.185c.411-.091.924-.1 1.454.172v.569a1 1 0 0 0 .629.929l3 1.2A1 1 0 0 0 18 16.998v-2.347a1 1 0 0 0-.629-.929L16 13.173v-1.946l.629.252a1 1 0 0 0 1.371-.93V8.203a1 1 0 0 0-.629-.929l-3-1.2A1 1 0 0 0 13 7.002v.702a3.16 3.16 0 0 0-1.671-.067 3.657 3.657 0 0 0-.329.09v-.725a1 1 0 0 0-1.371-.93l-3 1.201a1 1 0 0 0-.629.93v2.347a1 1 0 0 0 1.371.929L8 11.227v1.946l-1.371.55A1 1 0 0 0 6 14.65v2.347Zm5-8.2v.55a1 1 0 0 1-.629.93L9 10.827v1.946l.629-.252a1 1 0 0 1 1.371.93v.72a3.62 3.62 0 0 1 .329-.09 3.16 3.16 0 0 1 1.671.067v-.698a1 1 0 0 1 1.371-.929l.629.252v-1.946l-1.371-.55A1 1 0 0 1 13 9.35v-.564a2.109 2.109 0 0 0-1.454-.172c-.221.05-.41.122-.546.185Zm6 8.2-3-1.2V13.45l3 1.201v2.347Zm-3-9.996v2.347l3 1.2V8.203l-3-1.2Z" clip-rule="evenodd"/><defs><linearGradient id="icon-2473660f4398834f__a" x1="7.556" x2="10.085" y1="2" y2="22.239" gradientUnits="userSpaceOnUse"><stop stop-color="#fff"/><stop offset="1" stop-color="#EBEBEB"/></linearGradient><linearGradient id="icon-a26b3a31eca86697__c" x1="8.458" x2="11.151" y1="2" y2="22.197" gradientUnits="userSpaceOnUse"><stop stop-color="#BBB"/><stop offset="1" stop-color="#888"/></linearGradient><linearGradient id="icon-3f2cf9784ff86be6__d" x1="6" x2="18" y1="6" y2="18" gradientUnits="userSpaceOnUse"><stop stop-color="#E03F8F"/><stop offset="1" stop-color="#BD1E7B"/></linearGradient><radialGradient id="icon-b0fe9ac9c02693cf__b" cx="0" cy="0" r="1" gradientTransform="rotate(56.31 -2.54 11.442) scale(19.0293 16.4677)" gradientUnits="userSpaceOnUse"><stop offset=".177" stop-color="#fff"/><stop offset="1" stop-color="#B8B8B8"/></radialGradient></defs></svg>