<svg xmlns="http://www.w3.org/2000/svg" width="32" height="32" fill="none"><path fill="url(#icon-f1258ed68369a4dc__a)" d="M3 6.5A3.5 3.5 0 0 1 6.5 3h19A3.5 3.5 0 0 1 29 6.5v19a3.5 3.5 0 0 1-3.5 3.5h-19A3.5 3.5 0 0 1 3 25.5v-19Z"/><path fill="url(#icon-4f6011e5a13bae36__b)" fill-opacity=".2" d="M3 6.5A3.5 3.5 0 0 1 6.5 3h19A3.5 3.5 0 0 1 29 6.5v19a3.5 3.5 0 0 1-3.5 3.5h-19A3.5 3.5 0 0 1 3 25.5v-19Z"/><path fill="url(#icon-a4110df1250ed38c__c)" fill-rule="evenodd" d="M25.5 4h-19A2.5 2.5 0 0 0 4 6.5v19A2.5 2.5 0 0 0 6.5 28h19a2.5 2.5 0 0 0 2.5-2.5v-19A2.5 2.5 0 0 0 25.5 4Zm-19-1A3.5 3.5 0 0 0 3 6.5v19A3.5 3.5 0 0 0 6.5 29h19a3.5 3.5 0 0 0 3.5-3.5v-19A3.5 3.5 0 0 0 25.5 3h-19Z" clip-rule="evenodd"/><path fill="url(#icon-8f57cfbf6a162a5a__d)" fill-rule="evenodd" d="M8.5 14.495a1 1 0 0 0 1.385.923L11 14.954v2.51l-1.885.785a1 1 0 0 0-.615.923v3.327a1 1 0 0 0 1.385.924l4-1.667a1 1 0 0 0 .615-.923v-1.246a4.815 4.815 0 0 1 .832-.216c.611-.102 1.384-.11 2.168.205v1.257a1 1 0 0 0 .615.923l4 1.666A1 1 0 0 0 23.5 22.5v-3.327a1 1 0 0 0-.615-.924L21 17.463v-2.51l1.115.465a1 1 0 0 0 1.385-.923v-3.327a1 1 0 0 0-.615-.924l-4-1.666A1 1 0 0 0 17.5 9.5v1.012a5.116 5.116 0 0 0-2.332-.132c-.25.042-.476.096-.668.152V9.501a1 1 0 0 0-1.385-.923l-4 1.666a1 1 0 0 0-.615.924v3.327Zm9 4.022v-1.012a1 1 0 0 1 1.385-.923l1.115.465v-2.51l-1.885-.785a1 1 0 0 1-.615-.923v-1.257c-.784-.313-1.557-.306-2.168-.204-.34.056-.623.141-.82.211l-.012.005v1.245a1 1 0 0 1-.615.923L12 14.537v2.51l1.115-.465a1 1 0 0 1 1.385.923v1.032c.192-.056.417-.11.668-.152a5.118 5.118 0 0 1 2.332.131Zm5-4.022-4-1.666V9.5l4 1.667v3.327Zm0 4.677v3.327l-4-1.666v-3.328l4 1.667Z" clip-rule="evenodd"/><defs><linearGradient id="icon-f1258ed68369a4dc__a" x1="10.222" x2="13.511" y1="3" y2="29.311" gradientUnits="userSpaceOnUse"><stop stop-color="#fff"/><stop offset="1" stop-color="#EBEBEB"/></linearGradient><linearGradient id="icon-a4110df1250ed38c__c" x1="11.396" x2="14.897" y1="3" y2="29.256" gradientUnits="userSpaceOnUse"><stop stop-color="#BBB"/><stop offset="1" stop-color="#888"/></linearGradient><linearGradient id="icon-8f57cfbf6a162a5a__d" x1="8.5" x2="23.501" y1="8.5" y2="23.5" gradientUnits="userSpaceOnUse"><stop stop-color="#E03F8F"/><stop offset="1" stop-color="#BD1E7B"/></linearGradient><radialGradient id="icon-4f6011e5a13bae36__b" cx="0" cy="0" r="1" gradientTransform="matrix(13.7222 20.58336 -17.81255 11.875 11.306 9.771)" gradientUnits="userSpaceOnUse"><stop offset=".177" stop-color="#fff"/><stop offset="1" stop-color="#B8B8B8"/></radialGradient></defs></svg>