<svg xmlns="http://www.w3.org/2000/svg" width="20" height="20" fill="currentColor"><path d="M10 6.501v-3.5h-.5a.5.5 0 0 1 0-1h1.104a1.5 1.5 0 0 1 1.042.44l3.915 3.914A1.5 1.5 0 0 1 16 7.415v2.086a.5.5 0 0 1-1 0v-1.5h-3.5a1.5 1.5 0 0 1-1.5-1.5Zm1-3.293v3.293a.5.5 0 0 0 .5.5h3.293L11 3.208ZM4.5 11.501a.5.5 0 0 1 .5.5v1a.5.5 0 0 1-1 0v-1a.5.5 0 0 1 .5-.5ZM16 12.001a.5.5 0 1 0-1 0v1a.5.5 0 0 0 1 0v-1ZM4.5 15.001a.5.5 0 0 1 .5.5v.5a1 1 0 0 0 1 1h.5a.5.5 0 1 1 0 1H6a2 2 0 0 1-2-2v-.5a.5.5 0 0 1 .5-.5ZM16 15.501a.5.5 0 1 0-1 0v.5a1 1 0 0 1-1 1h-.5a.5.5 0 1 0 0 1h.5a2 2 0 0 0 2-2v-.5ZM8.5 17.501a.5.5 0 0 1 .5-.5h2a.5.5 0 1 1 0 1H9a.5.5 0 0 1-.5-.5ZM4.5 5.001a.5.5 0 0 1-.5-.5v-.5a2 2 0 0 1 2-2h.5a.5.5 0 1 1 0 1H6a1 1 0 0 0-1 1v.5a.5.5 0 0 1-.5.5ZM4.5 10.001a.5.5 0 0 1-.5-.5v-2a.5.5 0 1 1 1 0v2a.5.5 0 0 1-.5.5Z"/></svg>