<svg xmlns="http://www.w3.org/2000/svg" width="24" height="24" fill="currentColor"><path d="M18.5 20.001a.5.5 0 0 1-.5.5h-1.887c.06.527-.105 1.05-.356 1.5H18a2 2 0 0 0 2-2V9.829a2 2 0 0 0-.586-1.414l-5.829-5.828c-.015-.015-.032-.028-.049-.04a.63.63 0 0 1-.036-.03 2.072 2.072 0 0 0-.219-.18.65.65 0 0 0-.08-.044l-.048-.024-.05-.029c-.054-.031-.109-.063-.166-.087a1.977 1.977 0 0 0-.624-.138c-.02-.001-.04-.004-.059-.007a.605.605 0 0 0-.082-.007H6a2 2 0 0 0-2 2v8.5h.7c.269 0 .537.029.8.085V4a.5.5 0 0 1 .5-.5h6v4.5a2 2 0 0 0 2 2h4.5v10Zm-5-15.379 3.878 3.879H14a.5.5 0 0 1-.5-.5V4.622Z"/><path d="M3.25 14.001h1.5a2.251 2.251 0 0 1 1.591 3.842 2.254 2.254 0 0 1-1.591.658H4v2.25a.749.749 0 1 1-1.5 0v-6a.749.749 0 0 1 .75-.75Zm.75 3h.75a.749.749 0 1 0 0-1.5H4v1.5ZM10.75 14.003a3 3 0 0 0-3 3v1.5a3 3 0 0 0 4.874 2.343l.676.507a.75.75 0 0 0 .9-1.2l-.676-.507a3 3 0 0 0 .226-1.143v-1.5a3 3 0 0 0-3-3Zm.45 3.9a.75.75 0 1 0-.9 1.2l1.04.78a1.5 1.5 0 0 1-2.09-1.38v-1.5a1.5 1.5 0 0 1 3 0v1.5c0 .06-.004.12-.01.18l-1.04-.78Z"/></svg>