<svg xmlns="http://www.w3.org/2000/svg" width="16" height="16" fill="currentColor"><path d="M8 1v3.5A1.5 1.5 0 0 0 9.5 6H13v3.085c-.446.158-.795.52-.934.974A3.39 3.39 0 0 0 9.6 9h-.1c-.384 0-.735.145-1 .382a1.5 1.5 0 0 0-2.404.591L6 10.228l-.096-.255A1.5 1.5 0 0 0 3.5 9.382a1.5 1.5 0 0 0-.5-.297V2.5A1.5 1.5 0 0 1 4.5 1H8Z"/><path d="M9 1.25V4.5a.5.5 0 0 0 .5.5h3.25L9 1.25ZM0 10.5a.5.5 0 0 1 .5-.5h2a.5.5 0 0 1 0 1H2v3.5a.5.5 0 0 1-1 0V11H.5a.5.5 0 0 1-.5-.5ZM14 10.5a.5.5 0 0 0-1 0v4a.5.5 0 0 0 .5.5h2a.5.5 0 0 0 0-1H14v-3.5ZM4.41 10.008a.5.5 0 0 1 .558.317L6 13.075l1.032-2.752A.5.5 0 0 1 8 10.5v4a.5.5 0 1 1-1 0v-1.243l-.532 1.419a.5.5 0 0 1-.936 0L5 13.257V14.5a.5.5 0 1 1-1 0v-4a.5.5 0 0 1 .41-.492ZM9 10.5a.5.5 0 0 1 .5-.5h.1a2.4 2.4 0 0 1 2.4 2.4v.2A2.4 2.4 0 0 1 9.6 15h-.1a.5.5 0 0 1-.5-.5v-4Zm1 .558v2.884a1.4 1.4 0 0 0 1-1.342v-.2a1.4 1.4 0 0 0-1-1.342Z"/></svg>