<svg xmlns="http://www.w3.org/2000/svg" width="16" height="16" fill="currentColor"><path d="M3 3.001a2 2 0 0 1 2-2h3.586a1.5 1.5 0 0 1 1.06.44l2.915 2.914A1.5 1.5 0 0 1 13 5.415v7.586a2 2 0 0 1-2 2H9.963c.085-.219.097-.46.037-.7a4.256 4.256 0 0 0-.084-.3H11a1 1 0 0 0 1-1v-7H9.5a1.5 1.5 0 0 1-1.5-1.5v-2.5H5a1 1 0 0 0-1 1v6.481a2.904 2.904 0 0 0-1-.43V3.002Zm6.5 2h2.293L9 2.208v2.293a.5.5 0 0 0 .5.5Z"/><path d="M6.5 10.002a2 2 0 0 0-2 2v1a2 2 0 0 0 3.25 1.562l.45.338a.5.5 0 0 0 .6-.8l-.45-.338a2 2 0 0 0 .15-.762v-1a2 2 0 0 0-2-2Zm.3 2.6a.5.5 0 1 0-.6.8l.693.52a1 1 0 0 1-1.393-.92v-1a1 1 0 0 1 2 0v1a1 1 0 0 1-.007.12l-.693-.52ZM2.5 10.001h-1a.5.5 0 0 0-.5.5v4a.5.5 0 1 0 1 0v-1.5h.5a1.503 1.503 0 0 0 1.5-1.5 1.503 1.503 0 0 0-1.5-1.5Zm0 2H2v-1h.5a.5.5 0 1 1 0 1Z"/></svg>