<svg xmlns="http://www.w3.org/2000/svg" width="16" height="16" fill="currentColor"><path d="M8 1v3.5c0 .175.03.344.085.5a1.5 1.5 0 0 0-1.422.827l-.504 1.01-.757-1.896A1.5 1.5 0 0 0 4 4V2.5A1.5 1.5 0 0 1 5.5 1H8ZM15 6a1 1 0 0 0-1-1v6a3 3 0 0 1-3 3H6a1 1 0 0 0 1 1h4.21A3.79 3.79 0 0 0 15 11.21V6Z"/><path d="m9.432 5.998.498.999h.57a1.5 1.5 0 0 1 0 2.999H9.005c-.338 0-.658-.113-.915-.312l-.74 1.481a1.5 1.5 0 0 1-2.734-.113L4 9.513V11.5A1.5 1.5 0 0 0 5.5 13h6.002a1.5 1.5 0 0 0 1.5-1.5V6H9.5c-.023 0-.046 0-.068-.002ZM9 1.25V4.5a.5.5 0 0 0 .5.5h3.25L9 1.25Z"/><path d="M4.03 4.999a.5.5 0 0 1 .443.314l1.585 3.963 1.5-3.002a.5.5 0 0 1 .894 0l.86 1.723h1.189a.5.5 0 0 1 0 .999H9.004a.5.5 0 0 1-.447-.276l-.552-1.105-1.551 3.103a.5.5 0 0 1-.91-.037L3.959 6.716l-1 2.003a.5.5 0 0 1-.447.276H.499a.5.5 0 0 1 0-1h1.704l1.36-2.721a.5.5 0 0 1 .468-.276Z"/></svg>