<svg xmlns="http://www.w3.org/2000/svg" width="20" height="20" fill="currentColor"><g clip-path="url(#icon-16059f820e68e800__icon-ec942947689dcfbf__a)"><path d="M11 2.001v4.5a1.5 1.5 0 0 0 1.5 1.5H17v2h-4a2 2 0 0 0-2 2v1c0 .487.177.957.5 1.321v1.948a1.999 1.999 0 0 0-1 1.731h-4a1.5 1.5 0 0 1-1.5-1.5v-13a1.5 1.5 0 0 1 1.5-1.5H11Z"/><path d="M12 2.251v4.25a.5.5 0 0 0 .5.5h4.25L12 2.251ZM16 15.001h2.5v2a1 1 0 0 1 1 1v1a1 1 0 0 1-1 1h-1a1 1 0 0 1-1-1v-1a1 1 0 0 1 1-1v-1h-4v1a1 1 0 0 1 1 1v1a1 1 0 0 1-1 1h-1a1 1 0 0 1-1-1v-1a1 1 0 0 1 1-1v-2H15v-1h-2a1 1 0 0 1-1-1v-1a1 1 0 0 1 1-1h5a1 1 0 0 1 1 1v1a1 1 0 0 1-1 1h-2v1Z"/></g><defs><clipPath id="icon-16059f820e68e800__icon-ec942947689dcfbf__a"><path d="M0 0h20v20H0z"/></clipPath></defs></svg>