<svg xmlns="http://www.w3.org/2000/svg" width="20" height="20" fill="currentColor"><path d="M12.646 13.316a2.25 2.25 0 1 0-2.236-3.873l.506.877a1.25 1.25 0 1 1 1.224 2.12l.506.876ZM9 9.501a.5.5 0 0 1 .433.25l2.598 4.5a.5.5 0 0 1-.433.75H6.402a.5.5 0 0 1-.433-.75l2.598-4.5A.5.5 0 0 1 9 9.501Zm-1.732 4.5h3.464l-1.732-3-1.732 3Z"/><path d="M16 8.126v7.875c.002.266-.05.529-.156.773a2.126 2.126 0 0 1-.43.641 1.86 1.86 0 0 1-.633.43c-.248.1-.513.154-.78.156H6a1.918 1.918 0 0 1-.774-.156 2.124 2.124 0 0 1-.64-.43 1.859 1.859 0 0 1-.43-.633A2.124 2.124 0 0 1 4 16.001v-12a1.917 1.917 0 0 1 .156-.773c.103-.238.249-.455.43-.641.179-.186.395-.332.633-.43.248-.1.513-.154.781-.156h3.875c.263 0 .523.05.766.148.244.099.465.248.648.438l4.125 4.125c.186.185.332.405.43.648.099.244.152.503.156.766Zm-1 7.875V8.063a.276.276 0 0 0-.008-.062H12a1.917 1.917 0 0 1-.773-.156 2.123 2.123 0 0 1-.64-.43 1.857 1.857 0 0 1-.43-.633A2.124 2.124 0 0 1 10 6.001V3.009a.27.27 0 0 0-.062-.008H6a.972.972 0 0 0-.703.289 1.081 1.081 0 0 0-.219.32.856.856 0 0 0-.078.391v12a.972.972 0 0 0 .078.391c.052.118.123.226.211.32a.854.854 0 0 0 .313.211c.127.049.262.075.398.078h8a.973.973 0 0 0 .703-.289c.092-.093.166-.201.22-.32a.857.857 0 0 0 .077-.391Zm-.7-9-3.3-3.3v2.3a.97.97 0 0 0 .078.391c.052.118.123.226.211.32a.853.853 0 0 0 .313.211c.127.049.262.075.398.078h2.3Z"/></svg>