<svg xmlns="http://www.w3.org/2000/svg" width="16" height="16" fill="currentColor"><path d="M12 11a2 2 0 0 1-1.577 1.955 5.46 5.46 0 0 0 .51-1.597A.997.997 0 0 0 11 11v-.426a6.071 6.071 0 0 0 0-.148V6.061h-.001V5h-1.5a1.5 1.5 0 0 1-1.5-1.5V2h-3a1 1 0 0 0-1 1v2.208a5.463 5.463 0 0 0-1 .393V3a2 2 0 0 1 2-2h3.586a1.5 1.5 0 0 1 1.06.44l1.915 1.914a1.5 1.5 0 0 1 .439 1.06V5.5H12V11Zm-1.21-7H9.499a.5.5 0 0 1-.5-.5V2.207L10.791 4Z"/><path d="M14 6a1 1 0 0 0-1-1v6a3 3 0 0 1-3 3h-.257c-.314.38-.677.716-1.08 1h1.547A3.79 3.79 0 0 0 14 11.21V6Z"/><path d="M10 10.5a4.5 4.5 0 1 1-9 0 4.5 4.5 0 0 1 9 0ZM7.854 8.646a.5.5 0 0 0-.708 0L4.5 11.293l-.646-.647a.5.5 0 0 0-.708.708l1 1a.5.5 0 0 0 .708 0l3-3a.5.5 0 0 0 0-.708Z"/></svg>