<svg xmlns="http://www.w3.org/2000/svg" width="24" height="24" fill="currentColor"><path d="M12 8.001v-6H6a2 2 0 0 0-2 2v8.5h.7c1 0 2 .4 2.7 1.1.05.05.1.103.148.157.89-.775 1.975-1.257 3.251-1.257 1.3 0 2.3.5 3.2 1.3.9.8 1.3 2 1.3 3.2v2c.4.4.7.8.8 1.4.094.56-.075 1.121-.342 1.6H18a2 2 0 0 0 2-2v-10h-6a2 2 0 0 1-2-2Z"/><path d="M13.5 2.501v5.5a.5.5 0 0 0 .5.5h5.5l-6-6ZM2.719 14.22a.755.755 0 0 1 .531-.219h1.5a2.251 2.251 0 0 1 1.591 3.842 2.254 2.254 0 0 1-1.591.658H4v2.25a.749.749 0 1 1-1.5 0v-6c0-.2.078-.39.219-.531ZM4 17.001h.75a.749.749 0 1 0 0-1.5H4v1.5ZM10.75 14.003a3 3 0 0 0-3 3v1.5a3 3 0 0 0 4.874 2.343l.676.507a.75.75 0 0 0 .9-1.2l-.676-.507a3 3 0 0 0 .226-1.143v-1.5a3 3 0 0 0-3-3Zm.45 3.9a.75.75 0 1 0-.9 1.2l1.04.78a1.5 1.5 0 0 1-2.09-1.38v-1.5a1.5 1.5 0 0 1 3 0v1.5c0 .06-.004.12-.01.18l-1.04-.78Z"/></svg>