<svg xmlns="http://www.w3.org/2000/svg" width="20" height="20" fill="currentColor"><path d="m13.878.282.348 1.071a2.205 2.205 0 0 0 1.398 1.397l1.072.348.021.006a.423.423 0 0 1 0 .798l-1.071.348a2.208 2.208 0 0 0-1.399 1.397l-.348 1.07a.423.423 0 0 1-.798 0l-.349-1.07a2.23 2.23 0 0 0-.532-.867 2.224 2.224 0 0 0-.866-.536l-1.071-.348a.423.423 0 0 1 0-.798l1.071-.348a2.208 2.208 0 0 0 1.377-1.397l.348-1.07a.423.423 0 0 1 .799 0ZM18.783 8.213l-.766-.248a1.577 1.577 0 0 1-.998-.999l-.25-.764a.302.302 0 0 0-.57 0l-.248.764a1.576 1.576 0 0 1-.984.999l-.765.248a.303.303 0 0 0 0 .57l.765.249a1.578 1.578 0 0 1 1 1.002l.248.764a.302.302 0 0 0 .57 0l.249-.764a1.576 1.576 0 0 1 .999-.999l.765-.248a.303.303 0 0 0 0-.57l-.015-.004Z"/><path d="M6 2h4.43l-.48.154c-.28.1-.52.28-.69.52-.17.241-.26.522-.26.822 0 .3.09.581.26.821s.41.431.71.531l1.062.35c.15.051.29.131.47.291.11.11.2.24.29.471l.014.04H7.5a.5.5 0 0 0 0 1h4.636l.017.052c.09.25.25.48.52.691.14.1.29.17.45.21-.08.17-.12.361-.12.551 0 .27.08.531.24.752.161.22.381.38.651.48l.761.25c.08.03.16.08.22.14.07.061.11.141.14.221l.26.802c.1.25.26.46.481.62.077.053.159.097.244.132V16a2 2 0 0 1-2 2H6a2 2 0 0 1-2-2V4a2 2 0 0 1 2-2Zm1 11.5a.5.5 0 0 0 .5.5h5a.5.5 0 0 0 0-1h-5a.5.5 0 0 0-.5.5ZM7 10a.5.5 0 0 0 .5.5h5a.5.5 0 0 0 0-1h-5a.5.5 0 0 0-.5.5Z"/></svg>