<svg xmlns="http://www.w3.org/2000/svg" width="16" height="16" fill="currentColor"><path d="M14 5.502v4.89h-.005A1.5 1.5 0 0 0 13 9.089V6.063h-.002V5.002h-1.5a1.5 1.5 0 0 1-1.5-1.5v-1.5h-3a1 1 0 0 0-1 1V8.84a1.5 1.5 0 0 0-.912.915l-.088.25V3.001a2 2 0 0 1 2-2h3.586a1.5 1.5 0 0 1 1.06.44l1.915 1.914a1.5 1.5 0 0 1 .439 1.06v1.086H14Zm-2.502-1.5h1.293l-1.793-1.793v1.293a.5.5 0 0 0 .5.5ZM15 5.002a1 1 0 0 1 1 1v5.21c0 1.446-.81 2.703-2 3.342a1.5 1.5 0 0 0-.3-.952l-.064-.085A2.998 2.998 0 0 0 15 11.002v-6Z"/><path d="M6.5 9.752a.5.5 0 0 1 .472.334l1.5 4.25a.5.5 0 1 1-.943.332l-.236-.666H5.707l-.235.666a.5.5 0 1 1-.943-.332l1.5-4.25a.5.5 0 0 1 .471-.334Zm0 2-.44 1.25h.881l-.44-1.25ZM.5 10.002a.5.5 0 0 0-.5.5v4a.5.5 0 0 0 .5.5h1a2.5 2.5 0 1 0 0-5h-1Zm.5 4v-3h.5a1.5 1.5 0 1 1 0 3H1ZM12.9 10.802l-1.276 1.7 1.276 1.7a.5.5 0 1 1-.8.6L11 13.336l-1.1 1.466a.5.5 0 0 1-.8-.6l1.274-1.7-1.274-1.7a.5.5 0 0 1 .8-.6l1.1 1.467 1.1-1.467a.5.5 0 1 1 .8.6Z"/></svg>