<svg xmlns="http://www.w3.org/2000/svg" width="20" height="20" fill="currentColor"><path d="M4 4a2 2 0 0 1 2-2h3.586a1.5 1.5 0 0 1 1.06.44l3.915 3.914A1.5 1.5 0 0 1 15 7.414V14a2 2 0 0 1-2 2h-2.207c.091-.322.154-.657.185-1H13a1 1 0 0 0 1-1V8h-3.5A1.5 1.5 0 0 1 9 6.5V3H6a1 1 0 0 0-1 1v5.022a5.48 5.48 0 0 0-1 .185V4Zm6-.793V6.5a.5.5 0 0 0 .5.5h3.293L10 3.207Z"/><path d="M10.4 17a5.507 5.507 0 0 1-.657 1h3.318A3.94 3.94 0 0 0 17 14.06V9a1 1 0 0 0-1-1v6a3 3 0 0 1-3 3h-2.6ZM10 14.5a4.5 4.5 0 1 1-9 0 4.5 4.5 0 0 1 9 0Zm-2.146-1.854a.5.5 0 0 0-.708 0L4.5 15.293l-.646-.647a.5.5 0 0 0-.708.708l1 1a.5.5 0 0 0 .708 0l3-3a.5.5 0 0 0 0-.708Z"/></svg>