<svg xmlns="http://www.w3.org/2000/svg" width="24" height="24" fill="currentColor"><path d="M7 6.251a.75.75 0 0 1 .75-.75h1.5a.75.75 0 0 1 .75.75v1.5a.75.75 0 0 1-.75.75h-1.5a.75.75 0 0 1-.75-.75v-1.5Zm4.75.25a.75.75 0 0 0 0 1.5h2a.75.75 0 0 0 0-1.5h-2ZM7 11.251a.75.75 0 0 1 .75-.75h6a.75.75 0 0 1 0 1.5h-6a.75.75 0 0 1-.75-.75Zm.75 2.781a.75.75 0 0 0 0 1.5h6a.75.75 0 0 0 0-1.5h-6Z"/><path d="M4 4.251a2.25 2.25 0 0 1 2.25-2.25h9a2.25 2.25 0 0 1 2.25 2.25v13a2.25 2.25 0 0 1-2.25 2.25h-9A2.25 2.25 0 0 1 4 17.251v-13Zm1.504-.077a.76.76 0 0 0-.004.077v13c0 .414.336.75.75.75h9a.75.75 0 0 0 .75-.75v-13a.75.75 0 0 0-.75-.75h-9a.75.75 0 0 0-.746.673Z"/><path d="M8.75 22.001a2.25 2.25 0 0 1-2.121-1.5h8.622a3.25 3.25 0 0 0 3.25-3.25V8.938l.84.84c.423.423.66.995.66 1.592v5.881a4.75 4.75 0 0 1-4.75 4.75h-6.5Z"/></svg>