<svg xmlns="http://www.w3.org/2000/svg" width="16" height="16" fill="currentColor"><path d="M7.214 5.272A1.493 1.493 0 0 1 7 4.5V1H4.5A1.5 1.5 0 0 0 3 2.5v3.1c.75-.384 1.6-.6 2.5-.6.598 0 1.174.096 1.714.272ZM14 6a1 1 0 0 0-1-1v6a3 3 0 0 1-3 3h-.257c-.314.38-.677.716-1.08 1h1.547A3.79 3.79 0 0 0 14 11.21V6Z"/><path d="M10.502 13H10.4c.384-.75.6-1.6.6-2.5 0-1.86-.923-3.505-2.337-4.5h3.338v5.5a1.5 1.5 0 0 1-1.5 1.5ZM8 1.25V4.5a.5.5 0 0 0 .5.5h3.25L8 1.25Z"/><path d="M10 10.5a4.5 4.5 0 1 1-9 0 4.5 4.5 0 0 1 9 0ZM7.854 8.646a.5.5 0 0 0-.708 0L4.5 11.293l-.646-.647a.5.5 0 0 0-.708.708l1 1a.5.5 0 0 0 .708 0l3-3a.5.5 0 0 0 0-.708Z"/></svg>