<svg xmlns="http://www.w3.org/2000/svg" width="20" height="20" fill="currentColor"><path d="M10 2.001v4.5a1.5 1.5 0 0 0 1.5 1.5h-3a1.5 1.5 0 0 0-1.5 1.5v.879l-.796.796a1.493 1.493 0 0 0-.704-.175H4v-7.5a1.5 1.5 0 0 1 1.5-1.5H10ZM11.5 8.001H16v8.5a1.5 1.5 0 0 1-1.5 1.5H13v-2.5a1.5 1.5 0 0 0-1.5-1.5 1.5 1.5 0 0 0 1.5-1.5v-3a1.5 1.5 0 0 0-1.5-1.5Z"/><path d="M11 2.251v4.25a.5.5 0 0 0 .5.5h4.25L11 2.251ZM8.5 9.001a.5.5 0 0 0-.5.5v1.31a.499.499 0 0 0-.088.07L6 12.795V12.5a.5.5 0 0 0-.5-.5h-3a.5.5 0 0 0-.5.5v3a.5.5 0 0 0 .5.5h3a.5.5 0 0 0 .5-.5v-.293l1.912 1.912c.027.027.057.05.088.07v1.311a.5.5 0 0 0 .5.5h3a.5.5 0 0 0 .5-.5v-3a.5.5 0 0 0-.5-.5h-3a.5.5 0 0 0-.5.5v.293L6.207 14 8 12.208v.293a.5.5 0 0 0 .5.5h3a.5.5 0 0 0 .5-.5v-3a.5.5 0 0 0-.5-.5h-3Zm-5.5 4h2v2H3v-2Zm6 5v-2h2v2H9Zm0-8h2v2H9v-2Z"/></svg>