<svg xmlns="http://www.w3.org/2000/svg" width="20" height="20" fill="currentColor"><path d="M6 2.001a2 2 0 0 0-2 2v6.011c.357.032.695.133 1 .289V4a1 1 0 0 1 1-1h4v3.5a1.5 1.5 0 0 0 1.5 1.5H15v8a1 1 0 0 1-1 1h-3.025a2.686 2.686 0 0 1-.344 1H14a2 2 0 0 0 2-2V7.415a1.5 1.5 0 0 0-.44-1.06L11.647 2.44a1.5 1.5 0 0 0-1.06-.439H6Zm8.793 5H11.5a.5.5 0 0 1-.5-.5V3.208l3.793 3.793ZM5 11.526a1.746 1.746 0 0 0-1.25-.525 1.75 1.75 0 1 0 1.25.525ZM5.714 15.501c.71 0 1.286.588 1.286 1.313a1.924 1.924 0 0 1-.397 1.188C6.161 18.579 5.327 19 4 19c-2.143 0-3-1.094-3-2.188 0-.724.576-1.312 1.286-1.312h3.428Z"/><path d="M9.313 18.001c-.403.303-.996.5-1.813.5h-.023a2.903 2.903 0 0 0 .518-1.5c.003-.063.005-.125.005-.188 0-.483-.148-.937-.404-1.312H8.93c.592 0 1.071.504 1.071 1.125a1.683 1.683 0 0 1-.688 1.375ZM9 13.251a1.25 1.25 0 1 1-2.5 0 1.25 1.25 0 0 1 2.5 0Z"/></svg>