<svg xmlns="http://www.w3.org/2000/svg" width="20" height="20" fill="currentColor"><path d="M4 4.001a2 2 0 0 1 2-2h4.586a1.5 1.5 0 0 1 1.06.44l3.915 3.914A1.5 1.5 0 0 1 16 7.415v8.586a2 2 0 0 1-2 2h-3.037c.085-.219.097-.46.037-.7a4.284 4.284 0 0 0-.084-.3H14a1 1 0 0 0 1-1v-8h-3.5a1.5 1.5 0 0 1-1.5-1.5v-3.5H6a1 1 0 0 0-1 1v8.481a2.904 2.904 0 0 0-1-.43V4.002Zm7.5 3h3.293L11 3.208v3.293a.5.5 0 0 0 .5.5ZM2.5 13.001h1a1.5 1.5 0 1 1 0 3H3v1.5a.5.5 0 1 1-1 0v-4a.5.5 0 0 1 .5-.5Zm.5 2h.5a.5.5 0 1 0 0-1H3v1Z"/><path d="M6.086 13.588A2 2 0 0 1 9.5 15.002v1a2 2 0 0 1-.15.762l.45.338a.5.5 0 0 1-.6.8l-.45-.338a2 2 0 0 1-3.25-1.562v-1a2 2 0 0 1 .586-1.414ZM7.1 15.703a.5.5 0 0 1 .7-.1l.693.52a1 1 0 0 0 .007-.12v-1a1 1 0 0 0-2 0v1a1 1 0 0 0 1.393.92l-.693-.52a.5.5 0 0 1-.1-.7Z"/></svg>