<svg xmlns="http://www.w3.org/2000/svg" width="20" height="20" fill="currentColor"><g clip-path="url(#icon-d1478012612d32b4__icon-dd25f2f7c76aa217__a)"><path d="M17 8.126v1.875h-1V8.063a.276.276 0 0 0-.008-.062H13a1.917 1.917 0 0 1-.773-.156 2.123 2.123 0 0 1-.64-.43 1.857 1.857 0 0 1-.43-.633A2.124 2.124 0 0 1 11 6.001V3.009a.272.272 0 0 0-.063-.008H7a.972.972 0 0 0-.703.289 1.081 1.081 0 0 0-.219.32.856.856 0 0 0-.078.391v12a.972.972 0 0 0 .078.391c.052.118.123.226.211.32a.854.854 0 0 0 .313.211c.127.049.262.075.398.078h3.768a2 2 0 0 0-.268 1H7a1.918 1.918 0 0 1-.773-.156 2.124 2.124 0 0 1-.64-.43 1.859 1.859 0 0 1-.43-.633A2.124 2.124 0 0 1 5 16.001v-12a1.917 1.917 0 0 1 .156-.773c.103-.238.249-.455.43-.641.179-.186.395-.332.633-.43.248-.1.513-.154.781-.156h3.875c.263 0 .523.05.766.148.244.099.465.248.648.438l4.125 4.125c.186.185.332.405.43.648.099.244.152.503.156.766Zm-1.7-1.125-3.3-3.3v2.3a.97.97 0 0 0 .078.391c.052.118.123.226.211.32a.853.853 0 0 0 .313.211c.127.049.262.075.398.078h2.3Z"/><path d="M16 15.001h2.5v2a1 1 0 0 1 1 1v1a1 1 0 0 1-1 1h-1a1 1 0 0 1-1-1v-1a1 1 0 0 1 1-1v-1h-4v1a1 1 0 0 1 1 1v1a1 1 0 0 1-1 1h-1a1 1 0 0 1-1-1v-1a1 1 0 0 1 1-1v-2H15v-1h-2a1 1 0 0 1-1-1v-1a1 1 0 0 1 1-1h5a1 1 0 0 1 1 1v1a1 1 0 0 1-1 1h-2v1Z"/></g><defs><clipPath id="icon-d1478012612d32b4__icon-dd25f2f7c76aa217__a"><path d="M0 0h20v20H0z"/></clipPath></defs></svg>