<svg xmlns="http://www.w3.org/2000/svg" width="32" height="32" fill="currentColor"><path d="M8 2.001a3 3 0 0 0-3 3v13h2v-13a1 1 0 0 1 1-1h9v5a3 3 0 0 0 3 3h5v15a1 1 0 0 1-1 1h-2.125c.057.187.098.386.125.6.06.481.012.962-.145 1.4H24a3 3 0 0 0 3-3V10.829a3 3 0 0 0-.879-2.12l-5.828-5.83a3 3 0 0 0-2.121-.878H8Zm16.586 8H20a1 1 0 0 1-1-1V4.415l5.586 5.586Z"/><path d="M5 20.001h2a3.002 3.002 0 0 1 3 3 3.002 3.002 0 0 1-3 3H6v3a.999.999 0 0 1-1.708.708A1.007 1.007 0 0 1 4 29.001v-8a.999.999 0 0 1 1-1Zm1 4h1a.999.999 0 0 0 .708-1.708A1.007 1.007 0 0 0 7 22.001H6v2ZM15 20.004a4 4 0 0 0-4 4v2a4 4 0 0 0 6.498 3.124l.902.676a1 1 0 0 0 1.2-1.6l-.902-.676c.198-.48.302-.996.302-1.524v-2a4 4 0 0 0-4-4Zm.6 5.2a1 1 0 1 0-1.2 1.6l1.386 1.04A2 2 0 0 1 13 26.003v-2a2 2 0 0 1 4 0v2c0 .08-.005.16-.014.24l-1.386-1.04Z"/></svg>