<svg xmlns="http://www.w3.org/2000/svg" width="20" height="20" fill="currentColor"><path d="M11.318 2.318a4.5 4.5 0 1 1 6.364 6.364 4.5 4.5 0 0 1-6.364-6.364Zm5.096 1.768v-.003a.498.498 0 0 0-.144-.349l-.003-.002-.002-.002a.498.498 0 0 0-.351-.144h-2.829a.5.5 0 1 0 0 1h1.622L12.732 6.56a.5.5 0 0 0 .707.707l1.975-1.975v1.621a.5.5 0 0 0 1 0V4.086Z"/><path d="M15 14.5v-3.523a5.488 5.488 0 0 1-4.39-1.588 5.481 5.481 0 0 1-1.24-1.903A1.494 1.494 0 0 1 9 6.5V2H5.5A1.5 1.5 0 0 0 4 3.5v9.567a3.5 3.5 0 0 1 .646.933l.44-1.247a1.5 1.5 0 0 1 2.83 0l.137.388A1.482 1.482 0 0 1 9.5 12a1.508 1.508 0 0 1 1.2.6l.3.4.3-.4a1.509 1.509 0 0 1 1.2-.6 1.5 1.5 0 0 1 1.199 2.4l-.824 1.1.375.5h.25a1.5 1.5 0 0 0 1.5-1.5Z"/><path d="M17 10.4a5.472 5.472 0 0 1-1 .393V14c0 1.357-.9 2.503-2.137 2.874a1.499 1.499 0 0 1 .083 1.026A3.94 3.94 0 0 0 17 14.06V10.4ZM10.036 2.286 10 2.25v.086l.036-.05ZM.146 13.146A.5.5 0 0 1 .5 13h1a2.5 2.5 0 0 1 0 5h-1a.5.5 0 0 1-.5-.5v-4a.5.5 0 0 1 .146-.354ZM1 14v3h.5a1.5 1.5 0 1 0 0-3H1ZM6.5 12.75a.5.5 0 0 1 .471.334l1.5 4.25a.5.5 0 1 1-.943.332L7.292 17H5.706l-.235.666a.501.501 0 1 1-.943-.332l1.5-4.25a.5.5 0 0 1 .471-.334Zm0 2L6.06 16h.88l-.44-1.25ZM12.8 13.1a.5.5 0 0 0-.7.1L11 14.667 9.9 13.2a.5.5 0 1 0-.8.6l1.274 1.7L9.1 17.2a.5.5 0 1 0 .8.6l1.1-1.466 1.1 1.466a.5.5 0 0 0 .8-.6l-1.276-1.7 1.276-1.7a.5.5 0 0 0-.1-.7Z"/></svg>