<svg xmlns="http://www.w3.org/2000/svg" width="16" height="16" fill="currentColor"><path d="M14.002 10.361v-4.36H10.5a1.5 1.5 0 0 1-1.5-1.5v-3.5H6.5A1.5 1.5 0 0 0 5 2.503v7.497l.086-.244a1.5 1.5 0 0 1 2.83 0l.137.388A1.482 1.482 0 0 1 9.5 9.002a1.508 1.508 0 0 1 1.2.6l.3.4.3-.4a1.509 1.509 0 0 1 1.2-.6 1.5 1.5 0 0 1 1.492 1.36h.01ZM15 5.002a1 1 0 0 1 1 1v5.21c0 1.447-.81 2.703-2 3.342a1.5 1.5 0 0 0-.3-.952l-.064-.085A2.997 2.997 0 0 0 15 11.002v-6Z"/><path d="M10 4.502v-3.25l3.75 3.75H10.5a.5.5 0 0 1-.5-.5ZM6.5 9.752a.5.5 0 0 1 .472.334l1.5 4.25a.5.5 0 1 1-.943.332l-.236-.666H5.707l-.235.666a.5.5 0 1 1-.943-.332l1.5-4.25a.5.5 0 0 1 .471-.334Zm0 2-.44 1.25h.881l-.44-1.25ZM.5 10.002a.5.5 0 0 0-.5.5v4a.5.5 0 0 0 .5.5h1a2.5 2.5 0 1 0 0-5h-1Zm.5 4v-3h.5a1.5 1.5 0 1 1 0 3H1ZM12.9 10.802l-1.276 1.7 1.276 1.7a.5.5 0 1 1-.8.6L11 13.336l-1.1 1.466a.5.5 0 0 1-.8-.6l1.274-1.7-1.274-1.7a.5.5 0 0 1 .8-.6l1.1 1.467 1.1-1.467a.5.5 0 1 1 .8.6Z"/></svg>