<svg xmlns="http://www.w3.org/2000/svg" width="16" height="16" fill="currentColor"><path d="M8 4.501v-3.5H4.5a1.5 1.5 0 0 0-1.5 1.5v6.552c.49.102.923.347 1.3.648.044.055.086.11.127.168C4.93 9.29 5.714 9 6.5 9c.8 0 1.6.3 2.1.9.6.5.9 1.3.9 2.1v1.4c.3.2.4.5.5.9.06.24.048.481-.037.7H11.5a1.5 1.5 0 0 0 1.5-1.5v-7.5H9.5a1.5 1.5 0 0 1-1.5-1.5Z"/><path d="M9 4.501v-3.25l3.75 3.75H9.5a.5.5 0 0 1-.5-.5ZM6.5 10.002a2 2 0 0 0-2 2v1a2 2 0 0 0 3.25 1.562l.45.338a.5.5 0 0 0 .6-.8l-.45-.338a2 2 0 0 0 .15-.762v-1a2 2 0 0 0-2-2Zm.3 2.6a.5.5 0 1 0-.6.8l.693.52a1 1 0 0 1-1.393-.92v-1a1 1 0 0 1 2 0v1a1 1 0 0 1-.007.12l-.693-.52ZM2.5 10.001h-1a.5.5 0 0 0-.5.5v4a.5.5 0 1 0 1 0v-1.5h.5a1.503 1.503 0 0 0 1.5-1.5 1.503 1.503 0 0 0-1.5-1.5Zm0 2H2v-1h.5a.5.5 0 1 1 0 1Z"/></svg>