<svg xmlns="http://www.w3.org/2000/svg" width="16" height="16" fill="currentColor"><path d="M3.998 3a2 2 0 0 1 2-2h3.586a1.5 1.5 0 0 1 1.06.44l1.915 1.914a1.5 1.5 0 0 1 .439 1.06V5.5H13V11a2 2 0 0 1-2 2H5.997a2 2 0 0 1-2-2V9.508l.617 1.544a1.5 1.5 0 0 0 1.181.928c.066.013.133.02.202.02H11a1 1 0 0 0 1-1V8.533a1.5 1.5 0 0 0 0-.074V6.061h-.001V5h-1.5a1.5 1.5 0 0 1-1.5-1.5V2h-3a1 1 0 0 0-1 1v1.37a1.498 1.498 0 0 0-1-.371V3Zm6.5 1h1.293L9.998 2.207V3.5a.5.5 0 0 0 .5.5Z"/><path d="M14 5a1 1 0 0 1 1 1v5.21A3.79 3.79 0 0 1 11.21 15H7a1 1 0 0 1-1-1h5a3 3 0 0 0 3-3V5Z"/><path d="M3.96 6.717 2.957 8.72a.5.5 0 0 1-.446.276H.499a.5.5 0 0 1 0-1h1.704l1.36-2.721a.5.5 0 0 1 .91.038l1.585 3.963 1.5-3.002a.5.5 0 0 1 .894 0l.86 1.723h1.189a.5.5 0 0 1 0 .999H9.004a.5.5 0 0 1-.447-.276l-.552-1.105-1.551 3.103a.5.5 0 0 1-.91-.037L3.959 6.716Z"/></svg>