<svg xmlns="http://www.w3.org/2000/svg" width="20" height="20" fill="currentColor"><path d="M6 5.751a.75.75 0 0 1 .75-.75h1.5a.75.75 0 0 1 .75.75v1a.75.75 0 0 1-.75.75h-1.5a.75.75 0 0 1-.75-.75v-1Zm4.5.281a.5.5 0 0 0 0 1h2a.5.5 0 0 0 0-1h-2ZM6 9.532a.5.5 0 0 1 .5-.5h6a.5.5 0 0 1 0 1h-6a.5.5 0 0 1-.5-.5Zm.5 2.5a.5.5 0 0 0 0 1h6a.5.5 0 1 0 0-1h-6Z"/><path d="M6 2.001a2 2 0 0 0-2 2v10a2 2 0 0 0 2 2h7a2 2 0 0 0 2-2v-10a2 2 0 0 0-2-2H6Zm-1 12v-10a1 1 0 0 1 1-1h7a1 1 0 0 1 1 1v10a1 1 0 0 1-1 1H6a1 1 0 0 1-1-1Z"/><path d="M16 8.001a1 1 0 0 1 1 1v5.06a3.94 3.94 0 0 1-3.94 3.94H7a1 1 0 0 1-1-1h7a3 3 0 0 0 3-3v-6Z"/></svg>