<svg xmlns="http://www.w3.org/2000/svg" width="20" height="20" fill="currentColor"><path d="M5.146 7.647a.5.5 0 0 1 .708 0l2 2a.5.5 0 0 1 0 .707l-2 2a.5.5 0 1 1-.708-.707l1.647-1.646-1.647-1.646a.5.5 0 0 1 0-.708ZM14.146 12.354a.5.5 0 0 0 .708-.707l-1.647-1.646 1.647-1.646a.5.5 0 0 0-.708-.708l-2 2a.5.5 0 0 0 0 .707l2 2Z"/><path d="M4 4.001a2 2 0 0 0-2 2v8a2 2 0 0 0 2 2h12a2 2 0 0 0 2-2v-8a2 2 0 0 0-2-2H4Zm-1 2a1 1 0 0 1 1-1h5.5v10H4a1 1 0 0 1-1-1v-8Zm7.5 9v-10H16a1 1 0 0 1 1 1v8a1 1 0 0 1-1 1h-5.5Z"/></svg>