<svg xmlns="http://www.w3.org/2000/svg" width="48" height="48" fill="currentColor"><path fill="url(#icon-caaea59055ce03b4__icon-f887b1732117b261__a)" d="M43 24c0 10.493-8.507 19-19 19S5 34.493 5 24 13.507 5 24 5s19 8.507 19 19Z"/><path fill="url(#icon-bd1f723417676408__icon-d8e384c62c1962f4__b)" fill-opacity=".2" d="M43 24c0 10.493-8.507 19-19 19S5 34.493 5 24 13.507 5 24 5s19 8.507 19 19Z"/><path fill="url(#icon-a6b540923da9c83f__icon-4d97dde2f1e3c3da__c)" fill-rule="evenodd" d="M24 42c9.941 0 18-8.059 18-18S33.941 6 24 6 6 14.059 6 24s8.059 18 18 18Zm0 1c10.493 0 19-8.507 19-19S34.493 5 24 5 5 13.507 5 24s8.507 19 19 19Z" clip-rule="evenodd"/><path fill="url(#icon-e06cd3bc8290a239__icon-900d56700d7442fd__d)" fill-rule="evenodd" d="M28.33 14.956a.75.75 0 0 0-1.397-.545l-7.264 18.634a.75.75 0 1 0 1.397.545l7.264-18.635Zm-10.8 3.264a.75.75 0 0 1 0 1.06L12.81 24l4.72 4.72a.75.75 0 1 1-1.06 1.06l-5.25-5.25a.75.75 0 0 1 0-1.06l5.25-5.25a.75.75 0 0 1 1.06 0Zm12.94 11.56a.75.75 0 0 1 0-1.06L35.19 24l-4.72-4.72a.75.75 0 1 1 1.06-1.06l5.25 5.25a.75.75 0 0 1 0 1.06l-5.25 5.25a.75.75 0 0 1-1.06 0Z" clip-rule="evenodd"/><defs><linearGradient id="icon-caaea59055ce03b4__icon-f887b1732117b261__a" x1="15.556" x2="20.362" y1="5" y2="43.455" gradientUnits="userSpaceOnUse"><stop stop-color="#fff"/><stop offset="1" stop-color="#EBEBEB"/></linearGradient><linearGradient id="icon-a6b540923da9c83f__icon-4d97dde2f1e3c3da__c" x1="17.271" x2="22.387" y1="5" y2="43.373" gradientUnits="userSpaceOnUse"><stop stop-color="#BBB"/><stop offset="1" stop-color="#888"/></linearGradient><linearGradient id="icon-e06cd3bc8290a239__icon-900d56700d7442fd__d" x1="11" x2="30.494" y1="13.933" y2="39.106" gradientUnits="userSpaceOnUse"><stop stop-color="#4BA446"/><stop offset="1" stop-color="#3F7D35"/></linearGradient><radialGradient id="icon-bd1f723417676408__icon-d8e384c62c1962f4__b" cx="0" cy="0" r="1" gradientTransform="rotate(56.31 -5.347 23.46) scale(36.1557 31.2886)" gradientUnits="userSpaceOnUse"><stop offset=".177" stop-color="#fff"/><stop offset="1" stop-color="#B8B8B8"/></radialGradient></defs></svg>