<svg xmlns="http://www.w3.org/2000/svg" width="40" height="40" fill="currentColor"><path fill="url(#icon-0cb035895cbf0555__icon-fa09d9bf2ee8b813__a)" d="M36 20c0 8.837-7.163 16-16 16S4 28.837 4 20 11.163 4 20 4s16 7.163 16 16Z"/><path fill="url(#icon-867288c08ceab5f0__icon-397d834fd40d3a45__b)" fill-opacity=".2" d="M36 20c0 8.837-7.163 16-16 16S4 28.837 4 20 11.163 4 20 4s16 7.163 16 16Z"/><path fill="url(#icon-9ace5befa6aae6e8__icon-23cd8c4ec57a5702__c)" fill-rule="evenodd" d="M37 20c0 9.389-7.611 17-17 17S3 29.389 3 20 10.611 3 20 3s17 7.611 17 17ZM20 36c8.837 0 16-7.163 16-16S28.837 4 20 4 4 11.163 4 20s7.163 16 16 16Z" clip-rule="evenodd"/><path fill="url(#icon-b0a964b720f7084e__icon-37d7be1d6b3158a1__d)" d="M16.434 28.054a.75.75 0 1 0 1.403.531l6.282-16.601a.75.75 0 1 0-1.403-.531l-6.282 16.601Z"/><path fill="url(#icon-a041dc8ca9693729__icon-e324a40f1eb883e6__e)" d="M13.78 14.97a.75.75 0 0 1 0 1.06L9.81 20l3.97 3.97a.75.75 0 0 1-1.06 1.06l-4.5-4.5a.75.75 0 0 1 0-1.06l4.5-4.5a.75.75 0 0 1 1.06 0Z"/><path fill="url(#icon-78ae0d258ef6936a__icon-1db0c49b2f9f55f9__f)" d="M26.22 25.53a.75.75 0 0 1 0-1.06l3.97-3.97-3.97-3.97a.75.75 0 0 1 1.06-1.06l4.5 4.5a.75.75 0 0 1 0 1.06l-4.5 4.5a.75.75 0 0 1-1.06 0Z"/><defs><linearGradient id="icon-0cb035895cbf0555__icon-fa09d9bf2ee8b813__a" x1="12.889" x2="16.937" y1="4" y2="36.383" gradientUnits="userSpaceOnUse"><stop stop-color="#fff"/><stop offset="1" stop-color="#EBEBEB"/></linearGradient><linearGradient id="icon-9ace5befa6aae6e8__icon-23cd8c4ec57a5702__c" x1="13.979" x2="18.557" y1="3" y2="37.334" gradientUnits="userSpaceOnUse"><stop stop-color="#BBB"/><stop offset="1" stop-color="#888"/></linearGradient><linearGradient id="icon-b0a964b720f7084e__icon-37d7be1d6b3158a1__d" x1="8" x2="25.405" y1="10.968" y2="34.044" gradientUnits="userSpaceOnUse"><stop stop-color="#4BA446"/><stop offset="1" stop-color="#3F7D35"/></linearGradient><linearGradient id="icon-a041dc8ca9693729__icon-e324a40f1eb883e6__e" x1="8" x2="25.405" y1="10.968" y2="34.044" gradientUnits="userSpaceOnUse"><stop stop-color="#4BA446"/><stop offset="1" stop-color="#3F7D35"/></linearGradient><linearGradient id="icon-78ae0d258ef6936a__icon-1db0c49b2f9f55f9__f" x1="8" x2="25.405" y1="10.968" y2="34.044" gradientUnits="userSpaceOnUse"><stop stop-color="#4BA446"/><stop offset="1" stop-color="#3F7D35"/></linearGradient><radialGradient id="icon-867288c08ceab5f0__icon-397d834fd40d3a45__b" cx="0" cy="0" r="1" gradientTransform="rotate(56.31 -4.411 19.454) scale(30.4469 26.3483)" gradientUnits="userSpaceOnUse"><stop offset=".177" stop-color="#fff"/><stop offset="1" stop-color="#B8B8B8"/></radialGradient></defs></svg>