<svg xmlns="http://www.w3.org/2000/svg" width="24" height="24" fill="currentColor"><path fill="url(#icon-b712d1b93b0df188__icon-42a82605057e3efe__a)" d="M22 12c0 5.523-4.477 10-10 10S2 17.523 2 12 6.477 2 12 2s10 4.477 10 10Z"/><path fill="url(#icon-79febe07117db370__icon-79a054f4834d51e4__b)" fill-opacity=".2" d="M22 12c0 5.523-4.477 10-10 10S2 17.523 2 12 6.477 2 12 2s10 4.477 10 10Z"/><path fill="url(#icon-bc14c0ceffd60538__icon-cb3cafd3ecceacf6__c)" fill-rule="evenodd" d="M12 21a9 9 0 1 0 0-18 9 9 0 0 0 0 18Zm0 1c5.523 0 10-4.477 10-10S17.523 2 12 2 2 6.477 2 12s4.477 10 10 10Z" clip-rule="evenodd"/><path fill="url(#icon-2855c644e200ad3c__icon-dbde2dec520ce8c3__d)" d="M14.224 8.016a.75.75 0 0 0-1.412-.506l-3.036 8.475a.75.75 0 0 0 1.412.505l3.036-8.474Z"/><path fill="url(#icon-3aca6a31ebc98b62__icon-c8d11e0f4cdf3b88__e)" d="M8.53 9.22a.75.75 0 0 1 0 1.06L6.81 12l1.72 1.72a.75.75 0 0 1-1.06 1.06l-2.18-2.179a.85.85 0 0 1 0-1.202l2.18-2.18a.75.75 0 0 1 1.06 0Z"/><path fill="url(#icon-2fd91f6e2a37bc5c__icon-14ff8efe8457bd8f__f)" d="M15.534 14.78a.75.75 0 0 1 0-1.06l1.72-1.72-1.72-1.72a.75.75 0 0 1 1.06-1.06l2.18 2.18a.85.85 0 0 1 0 1.201l-2.18 2.18a.75.75 0 0 1-1.06 0Z"/><defs><linearGradient id="icon-b712d1b93b0df188__icon-42a82605057e3efe__a" x1="7.556" x2="10.085" y1="2" y2="22.239" gradientUnits="userSpaceOnUse"><stop stop-color="#fff"/><stop offset="1" stop-color="#EBEBEB"/></linearGradient><linearGradient id="icon-bc14c0ceffd60538__icon-cb3cafd3ecceacf6__c" x1="8.458" x2="11.151" y1="2" y2="22.197" gradientUnits="userSpaceOnUse"><stop stop-color="#BBB"/><stop offset="1" stop-color="#888"/></linearGradient><linearGradient id="icon-2855c644e200ad3c__icon-dbde2dec520ce8c3__d" x1="5.041" x2="14.473" y1="7.013" y2="20.233" gradientUnits="userSpaceOnUse"><stop stop-color="#4BA446"/><stop offset="1" stop-color="#3F7D35"/></linearGradient><linearGradient id="icon-3aca6a31ebc98b62__icon-c8d11e0f4cdf3b88__e" x1="5.041" x2="14.473" y1="7.013" y2="20.233" gradientUnits="userSpaceOnUse"><stop stop-color="#4BA446"/><stop offset="1" stop-color="#3F7D35"/></linearGradient><linearGradient id="icon-2fd91f6e2a37bc5c__icon-14ff8efe8457bd8f__f" x1="5.041" x2="14.473" y1="7.013" y2="20.233" gradientUnits="userSpaceOnUse"><stop stop-color="#4BA446"/><stop offset="1" stop-color="#3F7D35"/></linearGradient><radialGradient id="icon-79febe07117db370__icon-79a054f4834d51e4__b" cx="0" cy="0" r="1" gradientTransform="rotate(56.31 -2.54 11.442) scale(19.0293 16.4677)" gradientUnits="userSpaceOnUse"><stop offset=".177" stop-color="#fff"/><stop offset="1" stop-color="#B8B8B8"/></radialGradient></defs></svg>