<svg xmlns="http://www.w3.org/2000/svg" width="40" height="40" fill="currentColor"><path fill="url(#icon-9031fe5d325c9d79__icon-dc28dbf59692322c__a)" d="M6 6a4 4 0 0 1 4-4h20a4 4 0 0 1 4 4v28a4 4 0 0 1-4 4H10a4 4 0 0 1-4-4V6Z"/><path fill="url(#icon-fe169fa1867acb42__icon-33e919c438a240ae__b)" fill-opacity=".2" d="M6 6a4 4 0 0 1 4-4h20a4 4 0 0 1 4 4v28a4 4 0 0 1-4 4H10a4 4 0 0 1-4-4V6Z"/><path fill="url(#icon-d9f694b748682d22__icon-b4056ec1cece8564__c)" fill-rule="evenodd" d="M30 3H10a3 3 0 0 0-3 3v28a3 3 0 0 0 3 3h20a3 3 0 0 0 3-3V6a3 3 0 0 0-3-3ZM10 2a4 4 0 0 0-4 4v28a4 4 0 0 0 4 4h20a4 4 0 0 0 4-4V6a4 4 0 0 0-4-4H10Z" clip-rule="evenodd"/><path fill="url(#icon-057e9b75e9b94e8f__icon-5230752c60065acc__d)" d="M16 18.156c0-.013 0-.027.002-.04A8.281 8.281 0 0 1 24.282 10H25.5a.5.5 0 0 1 0 1h-1.219A7.281 7.281 0 0 0 17 18.281V19a4 4 0 0 1-4 4h-1.5a.5.5 0 0 1 0-1H13a3 3 0 0 0 3-3v-.844Z"/><path fill="url(#icon-db903b10b364da68__icon-46afb3e51916b5e2__e)" d="M19.5 19a6 6 0 0 1 6-6h3a.5.5 0 0 1 0 1h-3a5 5 0 0 0-5 5v.231c-.362.189-.704.41-1.022.661.015-.164.022-.33.022-.499V19Z"/><path fill="url(#icon-ba270512b823b7b9__icon-370e61906f6555f2__f)" d="M13.893 25a5.58 5.58 0 0 0 3.182-.99 6.55 6.55 0 0 0-.071 1.213 6.578 6.578 0 0 1-3.11.777H11.5a.5.5 0 0 1 0-1h2.393Z"/><path fill="url(#icon-eb136d96a81b6bcf__icon-47abc775d6dddaa4__g)" d="M17.5 27.505a8.323 8.323 0 0 1-2.837.495H14.5a.5.5 0 0 0 0 1h.163c1.16 0 2.272-.212 3.297-.599a6.482 6.482 0 0 1-.46-.896Z"/><path fill="url(#icon-e09e3e46b912ecb2__icon-8c4422ac0e0dc4d6__h)" d="M26.5 17a2.5 2.5 0 0 0-2.307 1.535 6.579 6.579 0 0 0-1.05-.026A3.501 3.501 0 0 1 26.5 16h2a.5.5 0 0 1 0 1h-2Z"/><path fill="url(#icon-71c3462563304eaa__icon-58d23e22c559fa6d__i)" fill-rule="evenodd" d="M20.278 21.475a2 2 0 0 1-1.441 2.496l-.584.144a5.729 5.729 0 0 0 .006 1.808l.54.13a2 2 0 0 1 1.45 2.51l-.187.631c.44.386.94.699 1.484.922l.494-.519a2 2 0 0 1 2.899 0l.498.525a5.281 5.281 0 0 0 1.483-.913l-.198-.686a2 2 0 0 1 1.441-2.496l.584-.144a5.716 5.716 0 0 0-.006-1.807l-.54-.13a2 2 0 0 1-1.45-2.51l.187-.632a5.28 5.28 0 0 0-1.484-.921l-.493.518a2 2 0 0 1-2.9 0l-.498-.525c-.544.22-1.044.53-1.483.912l.198.687Zm3.222 5.024c.8 0 1.45-.671 1.45-1.5 0-.828-.65-1.5-1.45-1.5-.8 0-1.45.672-1.45 1.5 0 .829.65 1.5 1.45 1.5Z" clip-rule="evenodd"/><defs><linearGradient id="icon-9031fe5d325c9d79__icon-dc28dbf59692322c__a" x1="13.778" x2="19.575" y1="2" y2="38.068" gradientUnits="userSpaceOnUse"><stop stop-color="#fff"/><stop offset="1" stop-color="#EBEBEB"/></linearGradient><linearGradient id="icon-d9f694b748682d22__icon-b4056ec1cece8564__c" x1="15.042" x2="21.203" y1="2" y2="37.944" gradientUnits="userSpaceOnUse"><stop stop-color="#BBB"/><stop offset="1" stop-color="#888"/></linearGradient><linearGradient id="icon-057e9b75e9b94e8f__icon-5230752c60065acc__d" x1="11" x2="30.998" y1="10" y2="27.889" gradientUnits="userSpaceOnUse"><stop stop-color="#E03F8F"/><stop offset="1" stop-color="#BD1E7B"/></linearGradient><linearGradient id="icon-db903b10b364da68__icon-46afb3e51916b5e2__e" x1="11" x2="30.998" y1="10" y2="27.889" gradientUnits="userSpaceOnUse"><stop stop-color="#E03F8F"/><stop offset="1" stop-color="#BD1E7B"/></linearGradient><linearGradient id="icon-ba270512b823b7b9__icon-370e61906f6555f2__f" x1="11" x2="30.998" y1="10" y2="27.889" gradientUnits="userSpaceOnUse"><stop stop-color="#E03F8F"/><stop offset="1" stop-color="#BD1E7B"/></linearGradient><linearGradient id="icon-eb136d96a81b6bcf__icon-47abc775d6dddaa4__g" x1="11" x2="30.998" y1="10" y2="27.889" gradientUnits="userSpaceOnUse"><stop stop-color="#E03F8F"/><stop offset="1" stop-color="#BD1E7B"/></linearGradient><linearGradient id="icon-e09e3e46b912ecb2__icon-8c4422ac0e0dc4d6__h" x1="11" x2="30.998" y1="10" y2="27.889" gradientUnits="userSpaceOnUse"><stop stop-color="#E03F8F"/><stop offset="1" stop-color="#BD1E7B"/></linearGradient><linearGradient id="icon-71c3462563304eaa__icon-58d23e22c559fa6d__i" x1="11" x2="30.998" y1="10" y2="27.889" gradientUnits="userSpaceOnUse"><stop stop-color="#E03F8F"/><stop offset="1" stop-color="#BD1E7B"/></linearGradient><radialGradient id="icon-fe169fa1867acb42__icon-33e919c438a240ae__b" cx="0" cy="0" r="1" gradientTransform="matrix(14.7778 28.50002 -21.83716 11.32298 14.944 11.375)" gradientUnits="userSpaceOnUse"><stop offset=".177" stop-color="#fff"/><stop offset="1" stop-color="#B8B8B8"/></radialGradient></defs></svg>