<svg xmlns="http://www.w3.org/2000/svg" width="24" height="24" fill="currentColor"><g clip-path="url(#icon-75a3ab327c7d03a2__icon-42ed268300ed3155__a)"><mask id="icon-f7a753ce06e91196__icon-589bb28d4ba90d75__b" width="24" height="24" x="0" y="0" maskUnits="userSpaceOnUse" style="mask-type:luminance"><path fill="#fff" d="M24 0H0v24h24V0Z"/></mask><g mask="url(#icon-f7a753ce06e91196__icon-589bb28d4ba90d75__b)"><path fill="url(#icon-ab4e10b92dce5428__icon-d746cd11ed52fb5c__c)" d="M2 5a3 3 0 0 1 3-3h14a3 3 0 0 1 3 3v14a3 3 0 0 1-3 3H5a3 3 0 0 1-3-3V5Z"/><path fill="url(#icon-733427ab00300f74__icon-890ce0c9be1576e4__d)" fill-opacity=".2" d="M2 5a3 3 0 0 1 3-3h14a3 3 0 0 1 3 3v14a3 3 0 0 1-3 3H5a3 3 0 0 1-3-3V5Z"/><path fill="url(#icon-27f06f68ae99db0c__icon-383ea53374e8de59__e)" fill-rule="evenodd" d="M19 3H5a2 2 0 0 0-2 2v14a2 2 0 0 0 2 2h14a2 2 0 0 0 2-2V5a2 2 0 0 0-2-2ZM5 2a3 3 0 0 0-3 3v14a3 3 0 0 0 3 3h14a3 3 0 0 0 3-3V5a3 3 0 0 0-3-3H5Z" clip-rule="evenodd"/><path fill="url(#icon-b8ccc0039d57939c__icon-e0d537b3de6d046a__f)" d="M11.492 18H16a2 2 0 0 0 2-2v-4.21a2 2 0 0 0-.662-1.486l-4-3.6a2 2 0 0 0-2.675 0l-4 3.6A2 2 0 0 0 6 11.791V16a2 2 0 0 0 2 2h4.508"/><path fill="#F5F5F5" d="M23.56 15.44c-.28-.28-.66-.44-1.06-.44h-5c-.19 0-.38.04-.55.11l-.14.07-.13.08c-.15.1-.28.23-.44.46l-.04.07-.08.14c-.03.07-.05.13-.07.2l-.03.12v.06c-.03.16-.02.32 0 .49.06.29.2.56.41.76l.1.1c-.15.07-.28.16-.4.28l-.71.71a1.499 1.499 0 0 0 0 2.12c.12.12.27.22.42.29l-.42.42a1.499 1.499 0 1 0 2.12 2.12l.42-.42c.07.15.17.3.29.42a1.499 1.499 0 0 0 2.12 0l.71-.71c.12-.12.2-.26.27-.41l.08.08c.21.21.48.36.76.41l.2.03h.1c.2 0 .39-.04.59-.12.11-.05.2-.1.25-.14l.13-.1.06-.06.15-.17.05-.08c.17-.25.26-.54.26-.84V16.5c0-.4-.16-.78-.44-1.06h.02Z"/><path fill="url(#icon-6f3f6f65eee74819__icon-8ad74a5917abd10e__g)" d="M17.504 16h5a.5.5 0 0 1 .5.5v5a.5.5 0 0 1-.084.278l-.016.022a.519.519 0 0 1-.208.162.5.5 0 0 1-.545-.108l-5-5a.498.498 0 0 1-.077-.609l.01-.015.014-.022a.499.499 0 0 1 .406-.208Z"/><path fill="url(#icon-d4a47a730739a9d1__icon-7e6718544dfb3d69__h)" d="M17.56 18.653a.5.5 0 0 1 0 .707l-.706.708a.5.5 0 0 1-.707-.708l.707-.707a.5.5 0 0 1 .707 0Z"/><path fill="url(#icon-3558cd3f8f318377__icon-6b2d717fd7ee943e__i)" d="M20.39 21.482a.5.5 0 0 1 0 .707l-.708.707a.5.5 0 1 1-.707-.707l.707-.707a.5.5 0 0 1 .707 0Z"/><path fill="url(#icon-65c580cecf522eb3__icon-8503377c2645d27c__j)" d="M18.975 20.068a.5.5 0 0 1 0 .707l-2.122 2.121a.5.5 0 1 1-.707-.707l2.122-2.121a.5.5 0 0 1 .707 0Z"/></g></g><defs><linearGradient id="icon-ab4e10b92dce5428__icon-d746cd11ed52fb5c__c" x1="7.556" x2="10.085" y1="2" y2="22.239" gradientUnits="userSpaceOnUse"><stop stop-color="#fff"/><stop offset="1" stop-color="#EBEBEB"/></linearGradient><linearGradient id="icon-27f06f68ae99db0c__icon-383ea53374e8de59__e" x1="8.458" x2="11.151" y1="2" y2="22.197" gradientUnits="userSpaceOnUse"><stop stop-color="#BBB"/><stop offset="1" stop-color="#888"/></linearGradient><linearGradient id="icon-b8ccc0039d57939c__icon-e0d537b3de6d046a__f" x1="6" x2="18.49" y1="5.5" y2="17.49" gradientUnits="userSpaceOnUse"><stop stop-color="#008EE6"/><stop offset="1" stop-color="#006094"/></linearGradient><linearGradient id="icon-6f3f6f65eee74819__icon-8ad74a5917abd10e__g" x1="16" x2="23.042" y1="16" y2="23.004" gradientUnits="userSpaceOnUse"><stop stop-color="#008EE6"/><stop offset="1" stop-color="#006094"/></linearGradient><linearGradient id="icon-d4a47a730739a9d1__icon-7e6718544dfb3d69__h" x1="16" x2="23.042" y1="16" y2="23.004" gradientUnits="userSpaceOnUse"><stop stop-color="#008EE6"/><stop offset="1" stop-color="#006094"/></linearGradient><linearGradient id="icon-3558cd3f8f318377__icon-6b2d717fd7ee943e__i" x1="16" x2="23.042" y1="16" y2="23.004" gradientUnits="userSpaceOnUse"><stop stop-color="#008EE6"/><stop offset="1" stop-color="#006094"/></linearGradient><linearGradient id="icon-65c580cecf522eb3__icon-8503377c2645d27c__j" x1="16" x2="23.042" y1="16" y2="23.004" gradientUnits="userSpaceOnUse"><stop stop-color="#008EE6"/><stop offset="1" stop-color="#006094"/></linearGradient><radialGradient id="icon-733427ab00300f74__icon-890ce0c9be1576e4__d" cx="0" cy="0" r="1" gradientTransform="rotate(56.31 -2.54 11.442) scale(19.0293 16.4677)" gradientUnits="userSpaceOnUse"><stop offset=".177" stop-color="#fff"/><stop offset="1" stop-color="#B8B8B8"/></radialGradient><clipPath id="icon-75a3ab327c7d03a2__icon-42ed268300ed3155__a"><path fill="#fff" d="M0 0h24v24H0z"/></clipPath></defs></svg>