<svg xmlns="http://www.w3.org/2000/svg" width="20" height="20" fill="currentColor"><g clip-path="url(#icon-15da59d475670ad6__icon-60092b68d313fe29__a)"><mask id="icon-aa9c094c6f83eb22__icon-9e9b725414538a33__b" width="20" height="20" x="0" y="0" maskUnits="userSpaceOnUse" style="mask-type:luminance"><path fill="#fff" d="M20 0H0v20h20V0Z"/></mask><g mask="url(#icon-aa9c094c6f83eb22__icon-9e9b725414538a33__b)"><path fill="url(#icon-3688b0b9b770a3b1__icon-62270002a4bf032e__c)" d="M2 4.5A2.5 2.5 0 0 1 4.5 2h11A2.5 2.5 0 0 1 18 4.5v11a2.5 2.5 0 0 1-2.5 2.5h-11A2.5 2.5 0 0 1 2 15.5v-11Z"/><path fill="url(#icon-d0846e412ff40942__icon-ddff23c3bb03fd1b__d)" fill-opacity=".2" d="M2 4.5A2.5 2.5 0 0 1 4.5 2h11A2.5 2.5 0 0 1 18 4.5v11a2.5 2.5 0 0 1-2.5 2.5h-11A2.5 2.5 0 0 1 2 15.5v-11Z"/><path fill="url(#icon-c96fa53179310a80__icon-a9279c516052f996__e)" fill-rule="evenodd" d="M15.5 3h-11A1.5 1.5 0 0 0 3 4.5v11A1.5 1.5 0 0 0 4.5 17h11a1.5 1.5 0 0 0 1.5-1.5v-11A1.5 1.5 0 0 0 15.5 3Zm-11-1A2.5 2.5 0 0 0 2 4.5v11A2.5 2.5 0 0 0 4.5 18h11a2.5 2.5 0 0 0 2.5-2.5v-11A2.5 2.5 0 0 0 15.5 2h-11Z" clip-rule="evenodd"/><path fill="url(#icon-893a0cdc3b929a97__icon-8bc06f12f43b3670__f)" d="M9.577 15H13.5a1.5 1.5 0 0 0 1.5-1.5V9.668a1.5 1.5 0 0 0-.496-1.115l-3.5-3.15a1.5 1.5 0 0 0-2.007 0l-3.5 3.15A1.5 1.5 0 0 0 5 9.668V13.5A1.5 1.5 0 0 0 6.5 15h3.923"/><path fill="#F5F5F5" d="M19.56 11.44c-.28-.28-.66-.44-1.06-.44h-5c-.19 0-.38.04-.55.11l-.14.07-.13.08c-.15.1-.28.23-.44.46l-.04.07-.08.14c-.03.07-.05.13-.07.2l-.03.12v.06c-.03.16-.02.32 0 .49.06.29.2.56.41.76l.1.1c-.15.07-.28.16-.4.28l-.71.71a1.499 1.499 0 0 0 0 2.12c.12.12.27.22.42.29l-.42.42a1.499 1.499 0 1 0 2.12 2.12l.42-.42c.07.15.17.3.29.42a1.499 1.499 0 0 0 2.12 0l.71-.71c.12-.12.2-.26.27-.41l.08.08c.21.21.48.36.76.41l.2.03h.1c.2 0 .39-.04.59-.12.11-.05.2-.1.25-.14l.13-.1.06-.06.15-.17.05-.08c.17-.25.26-.54.26-.84V12.5c0-.4-.16-.78-.44-1.06h.02Z"/><path fill="url(#icon-b465cbb0e3ac87fb__icon-b2d27f455a680a72__g)" d="M13.504 12h5a.5.5 0 0 1 .5.5v5a.5.5 0 0 1-.084.278l-.016.022a.519.519 0 0 1-.208.162.5.5 0 0 1-.545-.108l-5-5a.498.498 0 0 1-.077-.609l.01-.015.014-.022a.499.499 0 0 1 .406-.208Z"/><path fill="url(#icon-da4bb35b8c7d0656__icon-83a9213063679e66__h)" d="M13.56 14.653a.5.5 0 0 1 0 .707l-.707.708a.5.5 0 0 1-.707-.708l.707-.707a.5.5 0 0 1 .708 0Z"/><path fill="url(#icon-53ec008376527c7f__icon-b27e55a00b74a643__i)" d="M16.39 17.482a.5.5 0 0 1 0 .707l-.708.707a.5.5 0 1 1-.707-.707l.707-.707a.5.5 0 0 1 .707 0Z"/><path fill="url(#icon-24b43c173d715e55__icon-397a0adc8a05e561__j)" d="M14.975 16.068a.5.5 0 0 1 0 .707l-2.121 2.121a.5.5 0 1 1-.707-.707l2.12-2.121a.5.5 0 0 1 .708 0Z"/></g></g><defs><linearGradient id="icon-3688b0b9b770a3b1__icon-62270002a4bf032e__c" x1="6.444" x2="8.468" y1="2" y2="18.192" gradientUnits="userSpaceOnUse"><stop stop-color="#fff"/><stop offset="1" stop-color="#EBEBEB"/></linearGradient><linearGradient id="icon-c96fa53179310a80__icon-a9279c516052f996__e" x1="7.167" x2="9.321" y1="2" y2="18.157" gradientUnits="userSpaceOnUse"><stop stop-color="#BBB"/><stop offset="1" stop-color="#888"/></linearGradient><linearGradient id="icon-893a0cdc3b929a97__icon-8bc06f12f43b3670__f" x1="5" x2="15.488" y1="4.5" y2="14.488" gradientUnits="userSpaceOnUse"><stop stop-color="#008EE6"/><stop offset="1" stop-color="#006094"/></linearGradient><linearGradient id="icon-b465cbb0e3ac87fb__icon-b2d27f455a680a72__g" x1="12" x2="19.042" y1="12" y2="19.004" gradientUnits="userSpaceOnUse"><stop stop-color="#008EE6"/><stop offset="1" stop-color="#006094"/></linearGradient><linearGradient id="icon-da4bb35b8c7d0656__icon-83a9213063679e66__h" x1="12" x2="19.042" y1="12" y2="19.004" gradientUnits="userSpaceOnUse"><stop stop-color="#008EE6"/><stop offset="1" stop-color="#006094"/></linearGradient><linearGradient id="icon-53ec008376527c7f__icon-b27e55a00b74a643__i" x1="12" x2="19.042" y1="12" y2="19.004" gradientUnits="userSpaceOnUse"><stop stop-color="#008EE6"/><stop offset="1" stop-color="#006094"/></linearGradient><linearGradient id="icon-24b43c173d715e55__icon-397a0adc8a05e561__j" x1="12" x2="19.042" y1="12" y2="19.004" gradientUnits="userSpaceOnUse"><stop stop-color="#008EE6"/><stop offset="1" stop-color="#006094"/></linearGradient><radialGradient id="icon-d0846e412ff40942__icon-ddff23c3bb03fd1b__d" cx="0" cy="0" r="1" gradientTransform="rotate(56.31 -2.206 9.727) scale(15.2234 13.1741)" gradientUnits="userSpaceOnUse"><stop offset=".177" stop-color="#fff"/><stop offset="1" stop-color="#B8B8B8"/></radialGradient><clipPath id="icon-15da59d475670ad6__icon-60092b68d313fe29__a"><path fill="#fff" d="M0 0h20v20H0z"/></clipPath></defs></svg>