<svg xmlns="http://www.w3.org/2000/svg" width="40" height="40" fill="currentColor"><path fill="url(#icon-5809d51e903ac0c1__icon-cfc8520d13b6170c__a)" d="M18.32 4.85a2.5 2.5 0 0 1 3.36 0l11.5 10.439A2.5 2.5 0 0 1 34 17.14V27h-1v-9.86a1.5 1.5 0 0 0-.492-1.11l-11.5-10.44a1.5 1.5 0 0 0-2.016 0l-11.5 10.44A1.5 1.5 0 0 0 7 17.14V32.5A1.5 1.5 0 0 0 8.5 34h16.965c-.124.32-.135.674-.03 1H8.5A2.5 2.5 0 0 1 6 32.5V17.14a2.5 2.5 0 0 1 .82-1.851L18.32 4.85Z"/><path fill="url(#icon-68abe79a4a590b26__icon-77d5117060e29e3f__b)" d="M36.5 28a.5.5 0 0 1 .5.5v8.064a.5.5 0 0 1-.849.358l-8.27-8.064a.5.5 0 0 1 .348-.858H36.5Z"/><path fill="url(#icon-cd6cfd749de3aaa8__icon-7da1e5872a39bd90__c)" d="M31.106 33.836a.5.5 0 0 1 0 .707l-3.536 3.536a.5.5 0 0 1-.707-.708l3.536-3.535a.5.5 0 0 1 .707 0Z"/><path fill="url(#icon-5e2af1fbea6fbcf1__icon-615b29d9a9166b70__d)" d="m26.51 34.19 2.121-2.122a.5.5 0 0 1 .707.707l-2.121 2.122a.5.5 0 0 1-.707-.707Z"/><path fill="url(#icon-9890b9d699b1aab1__icon-ef2e1d117ee1e82c__e)" d="m30.045 37.725 2.121-2.121a.5.5 0 1 1 .707.707l-2.121 2.121a.5.5 0 1 1-.707-.707Z"/><defs><linearGradient id="icon-5809d51e903ac0c1__icon-cfc8520d13b6170c__a" x1="6" x2="40.195" y1="4.201" y2="35.036" gradientUnits="userSpaceOnUse"><stop stop-color="#209782"/><stop offset="1" stop-color="#0C695A"/></linearGradient><linearGradient id="icon-68abe79a4a590b26__icon-77d5117060e29e3f__b" x1="6" x2="40.195" y1="4.201" y2="35.036" gradientUnits="userSpaceOnUse"><stop stop-color="#209782"/><stop offset="1" stop-color="#0C695A"/></linearGradient><linearGradient id="icon-cd6cfd749de3aaa8__icon-7da1e5872a39bd90__c" x1="6" x2="40.195" y1="4.201" y2="35.036" gradientUnits="userSpaceOnUse"><stop stop-color="#209782"/><stop offset="1" stop-color="#0C695A"/></linearGradient><linearGradient id="icon-5e2af1fbea6fbcf1__icon-615b29d9a9166b70__d" x1="6" x2="40.195" y1="4.201" y2="35.036" gradientUnits="userSpaceOnUse"><stop stop-color="#209782"/><stop offset="1" stop-color="#0C695A"/></linearGradient><linearGradient id="icon-9890b9d699b1aab1__icon-ef2e1d117ee1e82c__e" x1="6" x2="40.195" y1="4.201" y2="35.036" gradientUnits="userSpaceOnUse"><stop stop-color="#209782"/><stop offset="1" stop-color="#0C695A"/></linearGradient></defs></svg>