<svg xmlns="http://www.w3.org/2000/svg" width="32" height="32" fill="currentColor"><path fill="url(#icon-cd64b356e324dbd9__a)" d="M27 7.5A3.5 3.5 0 0 0 23.5 4h-13A3.5 3.5 0 0 0 7 7.5v19a3.5 3.5 0 0 0 3.5 3.5H22a5 5 0 0 0 5-5V7.5Z"/><path fill="url(#icon-b4909b1559d49aa4__b)" d="M26 7.5A2.5 2.5 0 0 0 23.5 5h-13A2.5 2.5 0 0 0 8 7.5v19a2.5 2.5 0 0 0 2.5 2.5h11.25A4.25 4.25 0 0 0 26 24.75V7.5Z"/><path fill="url(#icon-73147d9ef0fa2d2e__c)" fill-opacity=".2" d="M26 7.5A2.5 2.5 0 0 0 23.5 5h-13A2.5 2.5 0 0 0 8 7.5v19a2.5 2.5 0 0 0 2.5 2.5h11.25A4.25 4.25 0 0 0 26 24.75V7.5Z"/><path fill="url(#icon-f9c3a7c909a35494__d)" d="M8.5 2h13A3.5 3.5 0 0 1 25 5.5v19a3.5 3.5 0 0 1-3.5 3.5h-13A3.5 3.5 0 0 1 5 24.5v-19A3.5 3.5 0 0 1 8.5 2Z"/><path fill="url(#icon-c5bc188605446fd3__e)" d="M8.5 3h13A2.5 2.5 0 0 1 24 5.5v19a2.5 2.5 0 0 1-2.5 2.5h-13A2.5 2.5 0 0 1 6 24.5v-19A2.5 2.5 0 0 1 8.5 3Z"/><path fill="url(#icon-73853a75bcd050a9__f)" fill-opacity=".2" d="M8.5 3h13A2.5 2.5 0 0 1 24 5.5v19a2.5 2.5 0 0 1-2.5 2.5h-13A2.5 2.5 0 0 1 6 24.5v-19A2.5 2.5 0 0 1 8.5 3Z"/><path fill="url(#icon-5d1263c7296404d3__g)" d="M9.5 8A1.5 1.5 0 0 0 8 9.5v2A1.5 1.5 0 0 0 9.5 13h2a1.5 1.5 0 0 0 1.5-1.5v-.25h4v.25a1.5 1.5 0 0 0 1.5 1.5h.25v4h-.25a1.5 1.5 0 0 0-1.5 1.5v2a1.5 1.5 0 0 0 1.5 1.5h2a1.5 1.5 0 0 0 1.5-1.5v-2a1.5 1.5 0 0 0-1.5-1.5h-.25v-4h.25a1.5 1.5 0 0 0 1.5-1.5v-2A1.5 1.5 0 0 0 20.5 8h-2A1.5 1.5 0 0 0 17 9.5v.25h-4V9.5A1.5 1.5 0 0 0 11.5 8h-2Z"/><defs><linearGradient id="icon-cd64b356e324dbd9__a" x1="20.542" x2="16.045" y1="4" y2="29.943" gradientUnits="userSpaceOnUse"><stop stop-color="#BBB"/><stop offset="1" stop-color="#888"/></linearGradient><linearGradient id="icon-b4909b1559d49aa4__b" x1="21" x2="17" y1="5" y2="29" gradientUnits="userSpaceOnUse"><stop stop-color="#fff"/><stop offset="1" stop-color="#EBEBEB"/></linearGradient><linearGradient id="icon-f9c3a7c909a35494__d" x1="18.542" x2="14.045" y1="2" y2="27.943" gradientUnits="userSpaceOnUse"><stop stop-color="#BBB"/><stop offset="1" stop-color="#888"/></linearGradient><linearGradient id="icon-c5bc188605446fd3__e" x1="19" x2="15" y1="3" y2="27" gradientUnits="userSpaceOnUse"><stop stop-color="#fff"/><stop offset="1" stop-color="#EBEBEB"/></linearGradient><linearGradient id="icon-5d1263c7296404d3__g" x1="8" x2="22" y1="8" y2="22" gradientUnits="userSpaceOnUse"><stop stop-color="#4BA446"/><stop offset="1" stop-color="#3F7D35"/></linearGradient><radialGradient id="icon-73147d9ef0fa2d2e__c" cx="0" cy="0" r="1" gradientTransform="rotate(116.565 6.649 11.883) scale(21.2426 15.932)" gradientUnits="userSpaceOnUse"><stop offset=".177" stop-color="#fff"/><stop offset="1" stop-color="#B8B8B8"/></radialGradient><radialGradient id="icon-73853a75bcd050a9__f" cx="0" cy="0" r="1" gradientTransform="rotate(116.565 6.267 10.265) scale(21.2426 15.932)" gradientUnits="userSpaceOnUse"><stop offset=".177" stop-color="#fff"/><stop offset="1" stop-color="#B8B8B8"/></radialGradient></defs></svg>