<svg xmlns="http://www.w3.org/2000/svg" width="48" height="48" fill="currentColor"><path fill="url(#icon-0bb814252bf31df4__a)" d="M10 11a5 5 0 0 1 5-5h21a5 5 0 0 1 5 5v26a8 8 0 0 1-8 8H15a5 5 0 0 1-5-5V11Z"/><path fill="url(#icon-76625ae5f3a12a19__b)" fill-opacity=".2" d="M10 11a5 5 0 0 1 5-5h21a5 5 0 0 1 5 5v26a8 8 0 0 1-8 8H15a5 5 0 0 1-5-5V11Z"/><path fill="url(#icon-11d08e13675b6050__c)" fill-rule="evenodd" d="M36 7H15a4 4 0 0 0-4 4v29a4 4 0 0 0 4 4h18a7 7 0 0 0 7-7V11a4 4 0 0 0-4-4ZM15 6a5 5 0 0 0-5 5v29a5 5 0 0 0 5 5h18a8 8 0 0 0 8-8V11a5 5 0 0 0-5-5H15Z" clip-rule="evenodd"/><path fill="url(#icon-f82e284d95be3ba5__d)" d="M7.25 8a5 5 0 0 1 5-5h21a5 5 0 0 1 5 5v29a5 5 0 0 1-5 5h-21a5 5 0 0 1-5-5V8Z"/><path fill="url(#icon-a408a098a9ca3c01__e)" fill-opacity=".2" d="M7.25 8a5 5 0 0 1 5-5h21a5 5 0 0 1 5 5v29a5 5 0 0 1-5 5h-21a5 5 0 0 1-5-5V8Z"/><path fill="url(#icon-e9afe34bb286b064__f)" fill-rule="evenodd" d="M33 4H12a4 4 0 0 0-4 4v29a4 4 0 0 0 4 4h21a4 4 0 0 0 4-4V8a4 4 0 0 0-4-4ZM12 3a5 5 0 0 0-5 5v29a5 5 0 0 0 5 5h21a5 5 0 0 0 5-5V8a5 5 0 0 0-5-5H12Z" clip-rule="evenodd"/><path fill="url(#icon-0acc42a3f67bda22__g)" d="M15 12.14a2 2 0 0 0-2 2v3a2 2 0 0 0 2 2h3a2 2 0 0 0 2-2v-.64h5v.64a2 2 0 0 0 2 2h.5V26H27a2 2 0 0 0-2 2v3a2 2 0 0 0 2 2h3a2 2 0 0 0 2-2v-3a2 2 0 0 0-2-2h-.5v-6.86h.5a2 2 0 0 0 2-2v-3a2 2 0 0 0-2-2h-3a2 2 0 0 0-2 2v.36h-5v-.36a2 2 0 0 0-2-2h-3Z"/><defs><linearGradient id="icon-0bb814252bf31df4__a" x1="18.611" x2="24.762" y1="6" y2="45.116" gradientUnits="userSpaceOnUse"><stop stop-color="#fff"/><stop offset="1" stop-color="#EBEBEB"/></linearGradient><linearGradient id="icon-11d08e13675b6050__c" x1="20.01" x2="26.55" y1="6" y2="44.986" gradientUnits="userSpaceOnUse"><stop stop-color="#BBB"/><stop offset="1" stop-color="#888"/></linearGradient><linearGradient id="icon-f82e284d95be3ba5__d" x1="15.861" x2="22.012" y1="3" y2="42.116" gradientUnits="userSpaceOnUse"><stop stop-color="#fff"/><stop offset="1" stop-color="#EBEBEB"/></linearGradient><linearGradient id="icon-e9afe34bb286b064__f" x1="17.01" x2="23.55" y1="3" y2="41.986" gradientUnits="userSpaceOnUse"><stop stop-color="#BBB"/><stop offset="1" stop-color="#888"/></linearGradient><linearGradient id="icon-0acc42a3f67bda22__g" x1="13" x2="33.769" y1="12.141" y2="31.058" gradientUnits="userSpaceOnUse"><stop stop-color="#4BA446"/><stop offset="1" stop-color="#3F7D35"/></linearGradient><radialGradient id="icon-76625ae5f3a12a19__b" cx="0" cy="0" r="1" gradientTransform="rotate(62.08 -3.472 24.614) scale(34.9421 27.1064)" gradientUnits="userSpaceOnUse"><stop offset=".177" stop-color="#fff"/><stop offset="1" stop-color="#B8B8B8"/></radialGradient><radialGradient id="icon-a408a098a9ca3c01__e" cx="0" cy="0" r="1" gradientTransform="rotate(62.08 -2.354 20.829) scale(34.9421 27.1064)" gradientUnits="userSpaceOnUse"><stop offset=".177" stop-color="#fff"/><stop offset="1" stop-color="#B8B8B8"/></radialGradient></defs></svg>