<svg xmlns="http://www.w3.org/2000/svg" width="24" height="24" fill="currentColor"><path fill="url(#icon-7e0fffcba76da59b__a)" d="M4 6a3 3 0 0 1 3-3h12a3 3 0 0 1 3 3v11.5a5.5 5.5 0 0 1-5.5 5.5H7a3 3 0 0 1-3-3V6Z"/><path fill="url(#icon-67adf6d1cb16c956__b)" fill-opacity=".2" d="M4 6a3 3 0 0 1 3-3h12a3 3 0 0 1 3 3v11.5a5.5 5.5 0 0 1-5.5 5.5H7a3 3 0 0 1-3-3V6Z"/><path fill="url(#icon-b79bb712c2759c16__c)" fill-rule="evenodd" d="M19 4H7a2 2 0 0 0-2 2v14a2 2 0 0 0 2 2h9.5a4.5 4.5 0 0 0 4.5-4.5V6a2 2 0 0 0-2-2ZM7 3a3 3 0 0 0-3 3v14a3 3 0 0 0 3 3h9.5a5.5 5.5 0 0 0 5.5-5.5V6a3 3 0 0 0-3-3H7Z" clip-rule="evenodd"/><path fill="url(#icon-29052fc27598d9e6__d)" d="M1.953 4a3 3 0 0 1 3-3h12a3 3 0 0 1 3 3v14a3 3 0 0 1-3 3h-12a3 3 0 0 1-3-3V4Z"/><path fill="url(#icon-6c399894ba66d1e0__e)" fill-opacity=".2" d="M1.953 4a3 3 0 0 1 3-3h12a3 3 0 0 1 3 3v14a3 3 0 0 1-3 3h-12a3 3 0 0 1-3-3V4Z"/><path fill="url(#icon-65d62b1c0d4a9652__f)" fill-rule="evenodd" d="M17 2H5a2 2 0 0 0-2 2v14a2 2 0 0 0 2 2h12a2 2 0 0 0 2-2V4a2 2 0 0 0-2-2ZM5 1a3 3 0 0 0-3 3v14a3 3 0 0 0 3 3h12a3 3 0 0 0 3-3V4a3 3 0 0 0-3-3H5Z" clip-rule="evenodd"/><path fill="url(#icon-d27b4ded1c3796f7__g)" d="M6.5 5A1.5 1.5 0 0 0 5 6.5V8a1.5 1.5 0 0 0 1.5 1.5H8A1.5 1.5 0 0 0 9.5 8h3A1.5 1.5 0 0 0 14 9.5v3.75a1.5 1.5 0 0 0-1.5 1.5v1.5a1.5 1.5 0 0 0 1.5 1.5h1.5a1.5 1.5 0 0 0 1.5-1.5v-1.5a1.5 1.5 0 0 0-1.5-1.5V9.5A1.5 1.5 0 0 0 17 8V6.5A1.5 1.5 0 0 0 15.5 5H14a1.5 1.5 0 0 0-1.5 1.5h-3A1.5 1.5 0 0 0 8 5H6.5Z"/><defs><linearGradient id="icon-7e0fffcba76da59b__a" x1="9" x2="11.801" y1="3" y2="23.166" gradientUnits="userSpaceOnUse"><stop stop-color="#fff"/><stop offset="1" stop-color="#EBEBEB"/></linearGradient><linearGradient id="icon-b79bb712c2759c16__c" x1="9.813" x2="12.792" y1="3" y2="23.114" gradientUnits="userSpaceOnUse"><stop stop-color="#BBB"/><stop offset="1" stop-color="#888"/></linearGradient><linearGradient id="icon-29052fc27598d9e6__d" x1="6.953" x2="9.754" y1="1" y2="21.166" gradientUnits="userSpaceOnUse"><stop stop-color="#fff"/><stop offset="1" stop-color="#EBEBEB"/></linearGradient><linearGradient id="icon-65d62b1c0d4a9652__f" x1="7.813" x2="10.792" y1="1" y2="21.114" gradientUnits="userSpaceOnUse"><stop stop-color="#BBB"/><stop offset="1" stop-color="#888"/></linearGradient><linearGradient id="icon-d27b4ded1c3796f7__g" x1="5" x2="17.727" y1="5" y2="16.978" gradientUnits="userSpaceOnUse"><stop stop-color="#4BA446"/><stop offset="1" stop-color="#3F7D35"/></linearGradient><radialGradient id="icon-67adf6d1cb16c956__b" cx="0" cy="0" r="1" gradientTransform="matrix(9.50002 15.83334 -13.09743 7.85847 9.75 8.208)" gradientUnits="userSpaceOnUse"><stop offset=".177" stop-color="#fff"/><stop offset="1" stop-color="#B8B8B8"/></radialGradient><radialGradient id="icon-6c399894ba66d1e0__e" cx="0" cy="0" r="1" gradientTransform="matrix(9.50002 15.83334 -13.09743 7.85847 7.703 6.208)" gradientUnits="userSpaceOnUse"><stop offset=".177" stop-color="#fff"/><stop offset="1" stop-color="#B8B8B8"/></radialGradient></defs></svg>