<svg xmlns="http://www.w3.org/2000/svg" width="32" height="32" fill="currentColor"><path fill="url(#icon-dd964bdf9d8ec8be__icon-da1d6f840eb10e65__a)" d="M14.61 4.648a2 2 0 0 1 2.78 0l9 8.7a2 2 0 0 1 .61 1.438V20h-1v-5.214a1 1 0 0 0-.305-.719l-9-8.7a1 1 0 0 0-1.39 0l-9 8.7a1 1 0 0 0-.305.72V26a1 1 0 0 0 1 1h11.95a1.5 1.5 0 0 0 .63.18l-.623.623a1.51 1.51 0 0 0-.166.197H7a2 2 0 0 1-2-2V14.786a2 2 0 0 1 .61-1.438l9-8.7Z"/><path fill="url(#icon-ba6173b39d3d90f5__icon-8b13f55a4ca86420__b)" d="M27.5 21a.5.5 0 0 1 .5.5v6.293a.5.5 0 0 1-.854.354l-6.293-6.293a.5.5 0 0 1 .353-.854H27.5Z"/><path fill="url(#icon-6ae903072f157391__icon-eaf12b624b93b9c2__c)" d="M21.432 23.914a.5.5 0 0 1 0 .707l-1.414 1.414a.5.5 0 0 1-.707-.707l1.414-1.414a.5.5 0 0 1 .707 0Z"/><path fill="url(#icon-94deae450d1b02fc__icon-e1cd286d8a92e260__d)" d="M23.346 26.035a.5.5 0 0 0-.854-.353l-2.828 2.828a.5.5 0 1 0 .707.707L23.2 26.39a.5.5 0 0 0 .146-.354Z"/><path fill="url(#icon-1555182b104b682b__icon-b0006e5fd2b8e6e6__e)" d="M25.113 27.803a.5.5 0 0 1-.146.353l-1.414 1.414a.5.5 0 1 1-.707-.707l1.414-1.414a.5.5 0 0 1 .853.354Z"/><defs><linearGradient id="icon-dd964bdf9d8ec8be__icon-da1d6f840eb10e65__a" x1="5" x2="30.481" y1="4.086" y2="26.951" gradientUnits="userSpaceOnUse"><stop stop-color="#209782"/><stop offset="1" stop-color="#0C695A"/></linearGradient><linearGradient id="icon-ba6173b39d3d90f5__icon-8b13f55a4ca86420__b" x1="5" x2="30.481" y1="4.086" y2="26.951" gradientUnits="userSpaceOnUse"><stop stop-color="#209782"/><stop offset="1" stop-color="#0C695A"/></linearGradient><linearGradient id="icon-6ae903072f157391__icon-eaf12b624b93b9c2__c" x1="5" x2="30.481" y1="4.086" y2="26.951" gradientUnits="userSpaceOnUse"><stop stop-color="#209782"/><stop offset="1" stop-color="#0C695A"/></linearGradient><linearGradient id="icon-94deae450d1b02fc__icon-e1cd286d8a92e260__d" x1="5" x2="30.481" y1="4.086" y2="26.951" gradientUnits="userSpaceOnUse"><stop stop-color="#209782"/><stop offset="1" stop-color="#0C695A"/></linearGradient><linearGradient id="icon-1555182b104b682b__icon-b0006e5fd2b8e6e6__e" x1="5" x2="30.481" y1="4.086" y2="26.951" gradientUnits="userSpaceOnUse"><stop stop-color="#209782"/><stop offset="1" stop-color="#0C695A"/></linearGradient></defs></svg>