<svg xmlns="http://www.w3.org/2000/svg" width="40" height="40" fill="currentColor"><path fill="url(#icon-b2c2a27b457fb606__a)" d="M8 9a4 4 0 0 1 4-4h19a4 4 0 0 1 4 4v22a7 7 0 0 1-7 7H12a4 4 0 0 1-4-4V9Z"/><path fill="url(#icon-03e53a64dfc6ca3b__b)" fill-opacity=".2" d="M8 9a4 4 0 0 1 4-4h19a4 4 0 0 1 4 4v22a7 7 0 0 1-7 7H12a4 4 0 0 1-4-4V9Z"/><path fill="url(#icon-2fae4263d663d026__c)" fill-rule="evenodd" d="M31 6H12a3 3 0 0 0-3 3v25a3 3 0 0 0 3 3h16a6 6 0 0 0 6-6V9a3 3 0 0 0-3-3ZM12 5a4 4 0 0 0-4 4v25a4 4 0 0 0 4 4h16a7 7 0 0 0 7-7V9a4 4 0 0 0-4-4H12Z" clip-rule="evenodd"/><path fill="url(#icon-a050246c403e3cb6__d)" d="M5 6a4 4 0 0 1 4-4h19a4 4 0 0 1 4 4v25a4 4 0 0 1-4 4H9a4 4 0 0 1-4-4V6Z"/><path fill="url(#icon-c71c719db15fa3b6__e)" fill-opacity=".2" d="M5 6a4 4 0 0 1 4-4h19a4 4 0 0 1 4 4v25a4 4 0 0 1-4 4H9a4 4 0 0 1-4-4V6Z"/><path fill="url(#icon-73f6fe6aa17ba1a9__f)" fill-rule="evenodd" d="M28 3H9a3 3 0 0 0-3 3v25a3 3 0 0 0 3 3h19a3 3 0 0 0 3-3V6a3 3 0 0 0-3-3ZM9 2a4 4 0 0 0-4 4v25a4 4 0 0 0 4 4h19a4 4 0 0 0 4-4V6a4 4 0 0 0-4-4H9Z" clip-rule="evenodd"/><path fill="url(#icon-6e08e9b97ab16a92__g)" d="M11.5 10a1.5 1.5 0 0 0-1.5 1.5v3a1.5 1.5 0 0 0 1.5 1.5h3a1.5 1.5 0 0 0 1.5-1.5v-1h5v1a1.5 1.5 0 0 0 1.5 1.5h.875v5H22.5a1.5 1.5 0 0 0-1.5 1.5v3a1.5 1.5 0 0 0 1.5 1.5h3a1.5 1.5 0 0 0 1.5-1.5v-3a1.5 1.5 0 0 0-1.5-1.5h-.625v-5h.625a1.5 1.5 0 0 0 1.5-1.5v-3a1.5 1.5 0 0 0-1.5-1.5h-3a1.5 1.5 0 0 0-1.5 1.5v.5h-5v-.5a1.5 1.5 0 0 0-1.5-1.5h-3Z"/><defs><linearGradient id="icon-b2c2a27b457fb606__a" x1="15.5" x2="20.564" y1="5" y2="38.143" gradientUnits="userSpaceOnUse"><stop stop-color="#fff"/><stop offset="1" stop-color="#EBEBEB"/></linearGradient><linearGradient id="icon-2fae4263d663d026__c" x1="16.719" x2="22.103" y1="5" y2="38.039" gradientUnits="userSpaceOnUse"><stop stop-color="#BBB"/><stop offset="1" stop-color="#888"/></linearGradient><linearGradient id="icon-a050246c403e3cb6__d" x1="12.5" x2="17.564" y1="2" y2="35.143" gradientUnits="userSpaceOnUse"><stop stop-color="#fff"/><stop offset="1" stop-color="#EBEBEB"/></linearGradient><linearGradient id="icon-73f6fe6aa17ba1a9__f" x1="13.719" x2="19.103" y1="2" y2="35.039" gradientUnits="userSpaceOnUse"><stop stop-color="#BBB"/><stop offset="1" stop-color="#888"/></linearGradient><linearGradient id="icon-6e08e9b97ab16a92__g" x1="10" x2="27" y1="10" y2="27" gradientUnits="userSpaceOnUse"><stop stop-color="#4BA446"/><stop offset="1" stop-color="#3F7D35"/></linearGradient><radialGradient id="icon-03e53a64dfc6ca3b__b" cx="0" cy="0" r="1" gradientTransform="rotate(61.389 -3.137 20.8) scale(29.7587 23.4563)" gradientUnits="userSpaceOnUse"><stop offset=".177" stop-color="#fff"/><stop offset="1" stop-color="#B8B8B8"/></radialGradient><radialGradient id="icon-c71c719db15fa3b6__e" cx="0" cy="0" r="1" gradientTransform="rotate(61.389 -2.11 16.773) scale(29.7587 23.4563)" gradientUnits="userSpaceOnUse"><stop offset=".177" stop-color="#fff"/><stop offset="1" stop-color="#B8B8B8"/></radialGradient></defs></svg>