<svg xmlns="http://www.w3.org/2000/svg" width="48" height="48" fill="currentColor"><path fill="url(#icon-893a30eda616d83a__icon-dba8856a019481af__a)" d="M21.977 6.17a3 3 0 0 1 4.046 0l14 12.784A3 3 0 0 1 41 21.17V33h-1V21.17a2 2 0 0 0-.651-1.477l-14-12.784a2 2 0 0 0-2.698 0l-14 12.784A2 2 0 0 0 8 21.17V39a2 2 0 0 0 2 2h21.434a1.494 1.494 0 0 0 1.07 1H10a3 3 0 0 1-3-3V21.17a3 3 0 0 1 .977-2.216l14-12.784Z"/><path fill="url(#icon-d5883cd39b1362ed__icon-dc4788245e2b942a__b)" d="M42.5 34a.5.5 0 0 1 .5.5v8.064a.5.5 0 0 1-.849.358l-8.27-8.064a.5.5 0 0 1 .348-.858H42.5Z"/><path fill="url(#icon-fb15e4ebfc956782__icon-e5d298c461195b1b__c)" d="M37.106 39.836a.5.5 0 0 1 0 .708l-3.536 3.535a.5.5 0 0 1-.707-.707l3.536-3.536a.5.5 0 0 1 .707 0Z"/><path fill="url(#icon-7cd7c76f6630c69a__icon-49e978426da0d6e5__d)" d="m32.51 40.19 2.121-2.121a.5.5 0 0 1 .707.707l-2.121 2.121a.5.5 0 1 1-.707-.707Z"/><path fill="url(#icon-cfad27ed37dc9dd3__icon-d5cbac46036740e9__e)" d="m36.045 43.726 2.121-2.122a.5.5 0 0 1 .707.708l-2.121 2.12a.5.5 0 0 1-.707-.706Z"/><defs><linearGradient id="icon-893a30eda616d83a__icon-dba8856a019481af__a" x1="7" x2="46.052" y1="5.386" y2="41.256" gradientUnits="userSpaceOnUse"><stop stop-color="#209782"/><stop offset="1" stop-color="#0C695A"/></linearGradient><linearGradient id="icon-d5883cd39b1362ed__icon-dc4788245e2b942a__b" x1="7" x2="46.052" y1="5.386" y2="41.256" gradientUnits="userSpaceOnUse"><stop stop-color="#209782"/><stop offset="1" stop-color="#0C695A"/></linearGradient><linearGradient id="icon-fb15e4ebfc956782__icon-e5d298c461195b1b__c" x1="7" x2="46.052" y1="5.386" y2="41.257" gradientUnits="userSpaceOnUse"><stop stop-color="#209782"/><stop offset="1" stop-color="#0C695A"/></linearGradient><linearGradient id="icon-7cd7c76f6630c69a__icon-49e978426da0d6e5__d" x1="7" x2="46.052" y1="5.386" y2="41.257" gradientUnits="userSpaceOnUse"><stop stop-color="#209782"/><stop offset="1" stop-color="#0C695A"/></linearGradient><linearGradient id="icon-cfad27ed37dc9dd3__icon-d5cbac46036740e9__e" x1="7" x2="46.052" y1="5.386" y2="41.257" gradientUnits="userSpaceOnUse"><stop stop-color="#209782"/><stop offset="1" stop-color="#0C695A"/></linearGradient></defs></svg>