<svg xmlns="http://www.w3.org/2000/svg" width="20" height="20" fill="currentColor"><path fill="url(#icon-1e02f99fa47df971__a)" d="M5 5.5A2.5 2.5 0 0 1 7.5 3h8A2.5 2.5 0 0 1 18 5.5V14a5 5 0 0 1-5 5H7.5A2.5 2.5 0 0 1 5 16.5v-11Z"/><path fill="url(#icon-22808b9bfa039e5e__b)" fill-opacity=".2" d="M5 5.5A2.5 2.5 0 0 1 7.5 3h8A2.5 2.5 0 0 1 18 5.5V14a5 5 0 0 1-5 5H7.5A2.5 2.5 0 0 1 5 16.5v-11Z"/><path fill="url(#icon-2c313d13cfc12d80__c)" fill-rule="evenodd" d="M15.5 4h-8A1.5 1.5 0 0 0 6 5.5v11A1.5 1.5 0 0 0 7.5 18H13a4 4 0 0 0 4-4V5.5A1.5 1.5 0 0 0 15.5 4Zm-8-1A2.5 2.5 0 0 0 5 5.5v11A2.5 2.5 0 0 0 7.5 19H13a5 5 0 0 0 5-5V5.5A2.5 2.5 0 0 0 15.5 3h-8Z" clip-rule="evenodd"/><path fill="url(#icon-2348b4913e768773__d)" d="M2 3.5A2.5 2.5 0 0 1 4.5 1h9A2.5 2.5 0 0 1 16 3.5v11a2.5 2.5 0 0 1-2.5 2.5h-9A2.5 2.5 0 0 1 2 14.5v-11Z"/><path fill="url(#icon-30b021224f3b373e__e)" fill-opacity=".2" d="M2 3.5A2.5 2.5 0 0 1 4.5 1h9A2.5 2.5 0 0 1 16 3.5v11a2.5 2.5 0 0 1-2.5 2.5h-9A2.5 2.5 0 0 1 2 14.5v-11Z"/><path fill="url(#icon-2044e30395696f0b__f)" fill-rule="evenodd" d="M13.5 2h-9A1.5 1.5 0 0 0 3 3.5v11A1.5 1.5 0 0 0 4.5 16h9a1.5 1.5 0 0 0 1.5-1.5v-11A1.5 1.5 0 0 0 13.5 2Zm-9-1A2.5 2.5 0 0 0 2 3.5v11A2.5 2.5 0 0 0 4.5 17h9a2.5 2.5 0 0 0 2.5-2.5v-11A2.5 2.5 0 0 0 13.5 1h-9Z" clip-rule="evenodd"/><path fill="url(#icon-fcc2715654401b2a__g)" d="M5.5 4A1.5 1.5 0 0 0 4 5.5v1A1.5 1.5 0 0 0 5.5 8h1a1.5 1.5 0 0 0 1.485-1.284h2.03A1.501 1.501 0 0 0 11.25 7.98v2.042A1.5 1.5 0 0 0 10 11.5v1a1.5 1.5 0 0 0 1.5 1.5h1a1.5 1.5 0 0 0 1.5-1.5v-1a1.5 1.5 0 0 0-1.25-1.48V7.98A1.5 1.5 0 0 0 14 6.5v-1A1.5 1.5 0 0 0 12.5 4h-1a1.5 1.5 0 0 0-1.473 1.216H7.973A1.5 1.5 0 0 0 6.5 4h-1Z"/><defs><linearGradient id="icon-1e02f99fa47df971__a" x1="8.611" x2="11.082" y1="3" y2="19.064" gradientUnits="userSpaceOnUse"><stop stop-color="#fff"/><stop offset="1" stop-color="#EBEBEB"/></linearGradient><linearGradient id="icon-2c313d13cfc12d80__c" x1="9.198" x2="11.826" y1="3" y2="19.013" gradientUnits="userSpaceOnUse"><stop stop-color="#BBB"/><stop offset="1" stop-color="#888"/></linearGradient><linearGradient id="icon-2348b4913e768773__d" x1="5.889" x2="8.191" y1="1" y2="17.116" gradientUnits="userSpaceOnUse"><stop stop-color="#fff"/><stop offset="1" stop-color="#EBEBEB"/></linearGradient><linearGradient id="icon-2044e30395696f0b__f" x1="6.521" x2="8.97" y1="1" y2="17.071" gradientUnits="userSpaceOnUse"><stop stop-color="#BBB"/><stop offset="1" stop-color="#888"/></linearGradient><linearGradient id="icon-fcc2715654401b2a__g" x1="4" x2="14" y1="4" y2="14" gradientUnits="userSpaceOnUse"><stop stop-color="#4BA446"/><stop offset="1" stop-color="#3F7D35"/></linearGradient><radialGradient id="icon-22808b9bfa039e5e__b" cx="0" cy="0" r="1" gradientTransform="matrix(6.8611 12.66664 -9.94629 5.38757 9.153 7.167)" gradientUnits="userSpaceOnUse"><stop offset=".177" stop-color="#fff"/><stop offset="1" stop-color="#B8B8B8"/></radialGradient><radialGradient id="icon-30b021224f3b373e__e" cx="0" cy="0" r="1" gradientTransform="rotate(59.744 -1.262 8.218) scale(14.6642 11.9669)" gradientUnits="userSpaceOnUse"><stop offset=".177" stop-color="#fff"/><stop offset="1" stop-color="#B8B8B8"/></radialGradient></defs></svg>