<svg xmlns="http://www.w3.org/2000/svg" width="48" height="48" fill="currentColor"><path fill="url(#icon-0e83d0b404e52cc3__icon-7a19e62f6ffaf1de__a)" d="M8 8a5 5 0 0 1 5-5h22a5 5 0 0 1 5 5v32a5 5 0 0 1-5 5H13a5 5 0 0 1-5-5V8Z"/><path fill="url(#icon-f81ff89a2750d04c__icon-779961d7b32e3b18__b)" fill-opacity=".2" d="M8 8a5 5 0 0 1 5-5h22a5 5 0 0 1 5 5v32a5 5 0 0 1-5 5H13a5 5 0 0 1-5-5V8Z"/><path fill="url(#icon-c843ea7fcab7da43__icon-cd3b38950f777a63__c)" fill-rule="evenodd" d="M35 4H13a4 4 0 0 0-4 4v32a4 4 0 0 0 4 4h22a4 4 0 0 0 4-4V8a4 4 0 0 0-4-4ZM13 3a5 5 0 0 0-5 5v32a5 5 0 0 0 5 5h22a5 5 0 0 0 5-5V8a5 5 0 0 0-5-5H13Z" clip-rule="evenodd"/><path fill="url(#icon-1be7e5a98eaf7e36__icon-ebf752a570655c2f__d)" d="M20 21.156c0-.013 0-.027.002-.04A8.281 8.281 0 0 1 28.282 13H30.5a.5.5 0 0 1 0 1h-2.219A7.281 7.281 0 0 0 21 21.281V22a4 4 0 0 1-4 4h-2.5a.5.5 0 0 1 0-1H17a3 3 0 0 0 3-3v-.844Z"/><path fill="url(#icon-e1c924c08e5ea9db__icon-6b273d5a38ca041c__e)" d="M23.5 23a6 6 0 0 1 6-6h5a.5.5 0 0 1 0 1h-5a5 5 0 0 0-5 5v.656a.51.51 0 0 1-.01.099 6.6 6.6 0 0 1-.198 1.29 6.5 6.5 0 0 0-2.096 3.361A6.58 6.58 0 0 1 17.893 30H14.5a.5.5 0 0 1 0-1h3.393a5.607 5.607 0 0 0 5.607-5.607V23Z"/><path fill="url(#icon-1597b58e9b53696a__icon-d747f5724d2f2906__f)" d="M22.36 32.138a8.303 8.303 0 0 1-3.697.862H17.5a.5.5 0 0 0 0 1h1.163a9.3 9.3 0 0 0 4.099-.945c-.157-.294-.291-.6-.402-.917Z"/><path fill="url(#icon-da973e720fd0a501__icon-b5ee8944f0e820dd__g)" d="M28.206 23.506A2.5 2.5 0 0 1 30.5 22h4a.5.5 0 0 0 0-1h-4a3.501 3.501 0 0 0-3.396 2.65 6.501 6.501 0 0 1 1.102-.144Z"/><path fill="url(#icon-630962c8304ac3fa__icon-719a2c96cf6a3e8f__h)" fill-rule="evenodd" d="M23.837 28.97a2 2 0 0 0 1.441-2.495l-.198-.687c.44-.382.94-.692 1.483-.912l.499.525a2 2 0 0 0 2.899 0l.493-.518a5.28 5.28 0 0 1 1.484.921l-.186.631a2 2 0 0 0 1.45 2.51l.539.13a5.732 5.732 0 0 1 .006 1.808l-.584.144a2 2 0 0 0-1.44 2.496l.197.686c-.439.383-.939.693-1.483.913l-.498-.525a2 2 0 0 0-2.9 0l-.492.519a5.277 5.277 0 0 1-1.485-.922l.187-.631a2 2 0 0 0-1.45-2.51l-.54-.13a5.718 5.718 0 0 1-.006-1.808l.584-.144ZM29.95 30c0 .828-.65 1.5-1.45 1.5-.8 0-1.45-.672-1.45-1.5 0-.83.65-1.5 1.45-1.5.8 0 1.45.67 1.45 1.5Z" clip-rule="evenodd"/><defs><linearGradient id="icon-0e83d0b404e52cc3__icon-7a19e62f6ffaf1de__a" x1="16.889" x2="23.785" y1="3" y2="45.035" gradientUnits="userSpaceOnUse"><stop stop-color="#fff"/><stop offset="1" stop-color="#EBEBEB"/></linearGradient><linearGradient id="icon-c843ea7fcab7da43__icon-cd3b38950f777a63__c" x1="18.333" x2="25.663" y1="3" y2="44.884" gradientUnits="userSpaceOnUse"><stop stop-color="#BBB"/><stop offset="1" stop-color="#888"/></linearGradient><linearGradient id="icon-1be7e5a98eaf7e36__icon-ebf752a570655c2f__d" x1="14" x2="35" y1="13" y2="34" gradientUnits="userSpaceOnUse"><stop stop-color="#E03F8F"/><stop offset="1" stop-color="#BD1E7B"/></linearGradient><linearGradient id="icon-e1c924c08e5ea9db__icon-6b273d5a38ca041c__e" x1="14" x2="35" y1="13" y2="34" gradientUnits="userSpaceOnUse"><stop stop-color="#E03F8F"/><stop offset="1" stop-color="#BD1E7B"/></linearGradient><linearGradient id="icon-1597b58e9b53696a__icon-d747f5724d2f2906__f" x1="14" x2="35" y1="13" y2="34" gradientUnits="userSpaceOnUse"><stop stop-color="#E03F8F"/><stop offset="1" stop-color="#BD1E7B"/></linearGradient><linearGradient id="icon-da973e720fd0a501__icon-b5ee8944f0e820dd__g" x1="14" x2="35" y1="13" y2="34" gradientUnits="userSpaceOnUse"><stop stop-color="#E03F8F"/><stop offset="1" stop-color="#BD1E7B"/></linearGradient><linearGradient id="icon-630962c8304ac3fa__icon-719a2c96cf6a3e8f__h" x1="23.185" x2="33.424" y1="24.876" y2="35.499" gradientUnits="userSpaceOnUse"><stop stop-color="#E03F8F"/><stop offset="1" stop-color="#BD1E7B"/></linearGradient><radialGradient id="icon-f81ff89a2750d04c__icon-779961d7b32e3b18__b" cx="0" cy="0" r="1" gradientTransform="rotate(63.072 -2.245 21.816) scale(37.2934 28.2333)" gradientUnits="userSpaceOnUse"><stop offset=".177" stop-color="#fff"/><stop offset="1" stop-color="#B8B8B8"/></radialGradient></defs></svg>