<svg xmlns="http://www.w3.org/2000/svg" width="48" height="48" fill="currentColor"><path fill="url(#icon-5e458c16b2d2b97c__icon-5d82519943b1955f__a)" d="M5 10a5 5 0 0 1 5-5h28a5 5 0 0 1 5 5v28a5 5 0 0 1-5 5H10a5 5 0 0 1-5-5V10Z"/><path fill="url(#icon-a4673252e1a56c4f__icon-982e9874b66f7edc__b)" fill-opacity=".2" d="M5 10a5 5 0 0 1 5-5h28a5 5 0 0 1 5 5v28a5 5 0 0 1-5 5H10a5 5 0 0 1-5-5V10Z"/><path fill="url(#icon-75d4e5d3b5e161c9__icon-2922b7c8b96278b9__c)" fill-rule="evenodd" d="M38 6H10a4 4 0 0 0-4 4v28a4 4 0 0 0 4 4h28a4 4 0 0 0 4-4V10a4 4 0 0 0-4-4ZM10 5a5 5 0 0 0-5 5v28a5 5 0 0 0 5 5h28a5 5 0 0 0 5-5V10a5 5 0 0 0-5-5H10Z" clip-rule="evenodd"/><path fill="#F5F5F5" fill-rule="evenodd" d="M33.156 43.664a1.5 1.5 0 1 0 2.121 2.122l.624-.624a1.5 1.5 0 0 0 2.558.977l2.121-2.12c.227-.227.366-.508.417-.8l1.456 1.42c.95.926 2.547.253 2.547-1.075V35.5a1.5 1.5 0 0 0-1.5-1.5h-8.27c-1.346 0-2.011 1.635-1.048 2.574l1.43 1.395a1.494 1.494 0 0 0-.688.392l-2.121 2.122a1.5 1.5 0 0 0 .976 2.558l-.623.623Z" clip-rule="evenodd"/><path fill="url(#icon-e9bf46138b1ab3c3__icon-51894db72474aff3__d)" d="M44 35.5a.5.5 0 0 0-.5-.5h-8.27a.5.5 0 0 0-.35.858l8.271 8.064a.5.5 0 0 0 .85-.358V35.5Z"/><path fill="url(#icon-b47a3b1847df44cd__icon-a427426ac9329465__e)" d="M38.106 41.543a.5.5 0 1 0-.707-.707l-3.536 3.535a.5.5 0 1 0 .707.708l3.536-3.536Z"/><path fill="url(#icon-2039d10d4675db85__icon-6cdfc2c6cfc9743a__f)" d="m33.51 41.19 2.121-2.122a.5.5 0 0 1 .707.708l-2.121 2.12a.5.5 0 0 1-.707-.706Z"/><path fill="url(#icon-0c3dd7cbfab46d2a__icon-4784294630dc4fb3__g)" d="m39.166 42.604-2.121 2.121a.5.5 0 1 0 .707.707l2.121-2.12a.5.5 0 1 0-.707-.708Z"/><path fill="url(#icon-698e2e7459e4cd8d__icon-471844115bfa895d__h)" d="M23.154 34H32a2 2 0 0 0 2-2v-9.11a2 2 0 0 0-.662-1.486l-8-7.2a2 2 0 0 0-2.675 0l-8 7.2A2 2 0 0 0 14 22.891V32a2 2 0 0 0 2 2h8.846"/><defs><linearGradient id="icon-5e458c16b2d2b97c__icon-5d82519943b1955f__a" x1="15.556" x2="20.362" y1="5" y2="43.455" gradientUnits="userSpaceOnUse"><stop stop-color="#fff"/><stop offset="1" stop-color="#EBEBEB"/></linearGradient><linearGradient id="icon-75d4e5d3b5e161c9__icon-2922b7c8b96278b9__c" x1="17.271" x2="22.387" y1="5" y2="43.373" gradientUnits="userSpaceOnUse"><stop stop-color="#BBB"/><stop offset="1" stop-color="#888"/></linearGradient><linearGradient id="icon-e9bf46138b1ab3c3__icon-51894db72474aff3__d" x1="33.363" x2="43.942" y1="35" y2="45.637" gradientUnits="userSpaceOnUse"><stop stop-color="#008EE6"/><stop offset="1" stop-color="#006094"/></linearGradient><linearGradient id="icon-b47a3b1847df44cd__icon-a427426ac9329465__e" x1="33.363" x2="43.942" y1="35" y2="45.637" gradientUnits="userSpaceOnUse"><stop stop-color="#008EE6"/><stop offset="1" stop-color="#006094"/></linearGradient><linearGradient id="icon-2039d10d4675db85__icon-6cdfc2c6cfc9743a__f" x1="33.363" x2="43.942" y1="35" y2="45.637" gradientUnits="userSpaceOnUse"><stop stop-color="#008EE6"/><stop offset="1" stop-color="#006094"/></linearGradient><linearGradient id="icon-0c3dd7cbfab46d2a__icon-4784294630dc4fb3__g" x1="33.363" x2="43.942" y1="35" y2="45.637" gradientUnits="userSpaceOnUse"><stop stop-color="#008EE6"/><stop offset="1" stop-color="#006094"/></linearGradient><linearGradient id="icon-698e2e7459e4cd8d__icon-471844115bfa895d__h" x1="14" x2="34.975" y1="13" y2="32.976" gradientUnits="userSpaceOnUse"><stop stop-color="#008EE6"/><stop offset="1" stop-color="#006094"/></linearGradient><radialGradient id="icon-a4673252e1a56c4f__icon-982e9874b66f7edc__b" cx="0" cy="0" r="1" gradientTransform="rotate(56.31 -5.347 23.46) scale(36.1557 31.2886)" gradientUnits="userSpaceOnUse"><stop offset=".177" stop-color="#fff"/><stop offset="1" stop-color="#B8B8B8"/></radialGradient></defs></svg>