<svg xmlns="http://www.w3.org/2000/svg" width="24" height="24" fill="currentColor"><path fill="url(#icon-bf1d3bee32c138de__icon-258591bdab37ddf4__a)" d="M3 4a3 3 0 0 1 3-3h12a3 3 0 0 1 3 3v16a3 3 0 0 1-3 3H6a3 3 0 0 1-3-3V4Z"/><path fill="url(#icon-a3c1169721a575c8__icon-37dd10b063684f1c__b)" fill-opacity=".2" d="M3 4a3 3 0 0 1 3-3h12a3 3 0 0 1 3 3v16a3 3 0 0 1-3 3H6a3 3 0 0 1-3-3V4Z"/><path fill="url(#icon-89a758e078c176c9__icon-3d9cd6ab3776e7c5__c)" fill-rule="evenodd" d="M18 2H6a2 2 0 0 0-2 2v16a2 2 0 0 0 2 2h12a2 2 0 0 0 2-2V4a2 2 0 0 0-2-2ZM6 1a3 3 0 0 0-3 3v16a3 3 0 0 0 3 3h12a3 3 0 0 0 3-3V4a3 3 0 0 0-3-3H6Z" clip-rule="evenodd"/><path fill="url(#icon-63cec0c3bfc2e5df__icon-07f8e3100c25246b__d)" d="M14 6a5 5 0 0 0-5 5v.375c0 .043.005.085.016.125H9c0 .28-.227.508-.508.508h-1.96a.5.5 0 0 0 0 1h1.96c.833 0 1.508-.675 1.508-1.508h-.016a.501.501 0 0 0 .016-.125V11a4 4 0 0 1 4-4h.5a.5.5 0 1 0 0-1H14Z"/><path fill="url(#icon-da770b0f57f87fc1__icon-38e9103ae53152f1__e)" d="M9.094 17.008c.53 0 1.041-.083 1.521-.236a4.475 4.475 0 0 1-.409-.92 4.004 4.004 0 0 1-1.112.156H7.53a.5.5 0 0 0 0 1h1.563Z"/><path fill="url(#icon-333b4f149f1f3c2d__icon-6ad0444cfd1400a2__f)" d="M12.157 10.657A2.501 2.501 0 0 1 14.5 9.031h1a.5.5 0 1 0 0-1h-1a3.5 3.5 0 0 0-3.494 3.3.493.493 0 0 0-.006.075v.094c0 .06-.002.12-.006.18.325-.405.719-.751 1.163-1.023Z"/><path fill="url(#icon-9ccc1f588c3127ca__icon-722336496efa2d65__g)" d="M10 14.5c0-.384.048-.756.138-1.112A2.49 2.49 0 0 1 8.5 14h-2a.5.5 0 0 0 0 1h2c.538 0 1.048-.121 1.503-.338A4.574 4.574 0 0 1 10 14.5Z"/><path fill="url(#icon-333dc128cb2e7eab__icon-39b4dca93815dbfe__h)" fill-rule="evenodd" d="M11.051 14.155a2 2 0 0 0 1.407-2.437l-.009-.032c.246-.179.517-.326.806-.436a2 2 0 0 0 2.558.026c.304.124.587.288.841.487a2.002 2.002 0 0 0 1.302 2.201 3.54 3.54 0 0 1 .026.916l-.033.009a2 2 0 0 0-1.407 2.437l.009.033a3.499 3.499 0 0 1-.806.435 1.999 1.999 0 0 0-2.557-.026 3.474 3.474 0 0 1-.842-.488 2.002 2.002 0 0 0-1.302-2.2 3.54 3.54 0 0 1-.026-.916l.033-.009Zm2.699.367a.75.75 0 1 0 1.5 0 .75.75 0 0 0-1.5 0Z" clip-rule="evenodd"/><defs><linearGradient id="icon-bf1d3bee32c138de__icon-258591bdab37ddf4__a" x1="8" x2="11.376" y1="1" y2="23.095" gradientUnits="userSpaceOnUse"><stop stop-color="#fff"/><stop offset="1" stop-color="#EBEBEB"/></linearGradient><linearGradient id="icon-89a758e078c176c9__icon-3d9cd6ab3776e7c5__c" x1="8.813" x2="12.402" y1="1" y2="23.026" gradientUnits="userSpaceOnUse"><stop stop-color="#BBB"/><stop offset="1" stop-color="#888"/></linearGradient><linearGradient id="icon-63cec0c3bfc2e5df__icon-07f8e3100c25246b__d" x1="6" x2="17.792" y1="6" y2="17.998" gradientUnits="userSpaceOnUse"><stop stop-color="#E03F8F"/><stop offset="1" stop-color="#BD1E7B"/></linearGradient><linearGradient id="icon-da770b0f57f87fc1__icon-38e9103ae53152f1__e" x1="6" x2="17.792" y1="6" y2="17.998" gradientUnits="userSpaceOnUse"><stop stop-color="#E03F8F"/><stop offset="1" stop-color="#BD1E7B"/></linearGradient><linearGradient id="icon-333b4f149f1f3c2d__icon-6ad0444cfd1400a2__f" x1="6" x2="17.792" y1="6" y2="17.998" gradientUnits="userSpaceOnUse"><stop stop-color="#E03F8F"/><stop offset="1" stop-color="#BD1E7B"/></linearGradient><linearGradient id="icon-9ccc1f588c3127ca__icon-722336496efa2d65__g" x1="6" x2="17.792" y1="6" y2="17.998" gradientUnits="userSpaceOnUse"><stop stop-color="#E03F8F"/><stop offset="1" stop-color="#BD1E7B"/></linearGradient><linearGradient id="icon-333dc128cb2e7eab__icon-39b4dca93815dbfe__h" x1="6" x2="17.792" y1="6" y2="17.998" gradientUnits="userSpaceOnUse"><stop stop-color="#E03F8F"/><stop offset="1" stop-color="#BD1E7B"/></linearGradient><radialGradient id="icon-a3c1169721a575c8__icon-37dd10b063684f1c__b" cx="0" cy="0" r="1" gradientTransform="matrix(9.5 17.41665 -13.72809 7.48806 8.75 6.73)" gradientUnits="userSpaceOnUse"><stop offset=".177" stop-color="#fff"/><stop offset="1" stop-color="#B8B8B8"/></radialGradient></defs></svg>