<svg xmlns="http://www.w3.org/2000/svg" width="24" height="24" fill="currentColor"><path fill="url(#icon-148d65eb7b6a4c47__icon-c8408f35f73d82ca__a)" d="M10.61 2.648a2 2 0 0 1 2.78 0l7 6.767a2 2 0 0 1 .61 1.438V14h-1v-3.147a1 1 0 0 0-.305-.719l-7-6.767a1 1 0 0 0-1.39 0l-7 6.767a1 1 0 0 0-.305.72V19a1 1 0 0 0 1 1h9.725c.038.022.077.042.116.06l-.42.42c-.15.15-.265.326-.34.52H5a2 2 0 0 1-2-2v-8.147a2 2 0 0 1 .61-1.438l7-6.767Z"/><path fill="url(#icon-53771769d624ec6a__icon-52f6d8c70cdef3b2__b)" d="M21.504 15h-5a.5.5 0 0 0-.216.05l-.015.007-.015.008a.499.499 0 0 0-.16.143l-.014.022-.01.015a.656.656 0 0 0-.032.064.484.484 0 0 0-.033.125.5.5 0 0 0 .142.42l5 5a.5.5 0 0 0 .707 0l.008-.01a.52.52 0 0 0 .038-.044l.016-.022a.5.5 0 0 0 .084-.278v-5a.5.5 0 0 0-.5-.5Z"/><path fill="url(#icon-0c97a36c6e517c71__icon-c3902e5134d5468c__c)" d="M16.56 18.36a.5.5 0 0 0-.706-.707l-.707.707a.5.5 0 1 0 .707.707l.707-.707Z"/><path fill="url(#icon-cf2de495759963fc__icon-1d377386d079305e__d)" d="M19.39 20.482a.5.5 0 0 1 0 .707l-.708.707a.5.5 0 1 1-.707-.707l.707-.707a.5.5 0 0 1 .707 0Z"/><path fill="url(#icon-f257b43e99719740__icon-886be70bcb716e69__e)" d="M17.975 19.774a.5.5 0 1 0-.707-.707l-2.122 2.122a.5.5 0 1 0 .707.707l2.122-2.122Z"/><defs><linearGradient id="icon-148d65eb7b6a4c47__icon-c8408f35f73d82ca__a" x1="3" x2="22.932" y1="2.086" y2="21.068" gradientUnits="userSpaceOnUse"><stop stop-color="#209782"/><stop offset="1" stop-color="#0C695A"/></linearGradient><linearGradient id="icon-53771769d624ec6a__icon-52f6d8c70cdef3b2__b" x1="3" x2="22.932" y1="2.086" y2="21.068" gradientUnits="userSpaceOnUse"><stop stop-color="#209782"/><stop offset="1" stop-color="#0C695A"/></linearGradient><linearGradient id="icon-0c97a36c6e517c71__icon-c3902e5134d5468c__c" x1="3" x2="22.932" y1="2.086" y2="21.068" gradientUnits="userSpaceOnUse"><stop stop-color="#209782"/><stop offset="1" stop-color="#0C695A"/></linearGradient><linearGradient id="icon-cf2de495759963fc__icon-1d377386d079305e__d" x1="3" x2="22.932" y1="2.086" y2="21.068" gradientUnits="userSpaceOnUse"><stop stop-color="#209782"/><stop offset="1" stop-color="#0C695A"/></linearGradient><linearGradient id="icon-f257b43e99719740__icon-886be70bcb716e69__e" x1="3" x2="22.932" y1="2.086" y2="21.068" gradientUnits="userSpaceOnUse"><stop stop-color="#209782"/><stop offset="1" stop-color="#0C695A"/></linearGradient></defs></svg>