<svg xmlns="http://www.w3.org/2000/svg" width="20" height="20" fill="currentColor"><path fill="url(#icon-c193e6b185ad95a4__icon-fd6afc51b66430da__a)" d="M11.002 2.388a1.5 1.5 0 0 0-2.005 0l-5.5 4.942A1.5 1.5 0 0 0 3 8.445V15.5A1.5 1.5 0 0 0 4.5 17h7.224a1.463 1.463 0 0 1-.715-1H4.5a.5.5 0 0 1-.5-.5V8.445a.5.5 0 0 1 .166-.371l5.5-4.942a.5.5 0 0 1 .668 0l5.5 4.942a.5.5 0 0 1 .166.371V11h1V8.445a1.5 1.5 0 0 0-.497-1.115l-5.5-4.942Z"/><path fill="url(#icon-a32f25bf5c767adc__icon-4552a16b7fe4fdbd__b)" d="M18.504 12h-5a.5.5 0 0 0-.406.208l-.014.022-.01.015a.656.656 0 0 0-.031.064.484.484 0 0 0-.029.289c.02.097.067.186.137.256l5 5a.5.5 0 0 0 .753-.054l.016-.022a.5.5 0 0 0 .084-.278v-5a.5.5 0 0 0-.5-.5Z"/><path fill="url(#icon-f6c533e1103d50ed__icon-3f81248b80f905c2__c)" d="M13.56 15.36a.5.5 0 0 0-.707-.707l-.707.707a.5.5 0 1 0 .707.707l.708-.707Z"/><path fill="url(#icon-3aa65fc97230b88f__icon-75ff01d8b6475500__d)" d="M16.39 17.482a.5.5 0 0 1 0 .707l-.708.707a.5.5 0 1 1-.707-.707l.707-.707a.5.5 0 0 1 .707 0Z"/><path fill="url(#icon-f474c82084e94f88__icon-001d5113aad13c7d__e)" d="M14.975 16.774a.5.5 0 1 0-.707-.707l-2.122 2.122a.5.5 0 1 0 .707.707l2.122-2.122Z"/><defs><linearGradient id="icon-c193e6b185ad95a4__icon-fd6afc51b66430da__a" x1="3" x2="20.005" y1="2.004" y2="17.977" gradientUnits="userSpaceOnUse"><stop stop-color="#209782"/><stop offset="1" stop-color="#0C695A"/></linearGradient><linearGradient id="icon-a32f25bf5c767adc__icon-4552a16b7fe4fdbd__b" x1="3" x2="20.005" y1="2.004" y2="17.977" gradientUnits="userSpaceOnUse"><stop stop-color="#209782"/><stop offset="1" stop-color="#0C695A"/></linearGradient><linearGradient id="icon-f6c533e1103d50ed__icon-3f81248b80f905c2__c" x1="3" x2="20.005" y1="2.004" y2="17.977" gradientUnits="userSpaceOnUse"><stop stop-color="#209782"/><stop offset="1" stop-color="#0C695A"/></linearGradient><linearGradient id="icon-3aa65fc97230b88f__icon-75ff01d8b6475500__d" x1="3" x2="20.005" y1="2.004" y2="17.977" gradientUnits="userSpaceOnUse"><stop stop-color="#209782"/><stop offset="1" stop-color="#0C695A"/></linearGradient><linearGradient id="icon-f474c82084e94f88__icon-001d5113aad13c7d__e" x1="3" x2="20.005" y1="2.004" y2="17.977" gradientUnits="userSpaceOnUse"><stop stop-color="#209782"/><stop offset="1" stop-color="#0C695A"/></linearGradient></defs></svg>