<svg xmlns="http://www.w3.org/2000/svg" width="40" height="40" fill="currentColor"><path fill="url(#icon-c5b6ff97d8612f43__icon-e9da6f383a0c119a__a)" d="M4 8a4 4 0 0 1 4-4h24a4 4 0 0 1 4 4v24a4 4 0 0 1-4 4H8a4 4 0 0 1-4-4V8Z"/><path fill="url(#icon-73881aff8602bac5__icon-dd16ef30803b0baf__b)" fill-opacity=".2" d="M4 8a4 4 0 0 1 4-4h24a4 4 0 0 1 4 4v24a4 4 0 0 1-4 4H8a4 4 0 0 1-4-4V8Z"/><path fill="url(#icon-073de5c0fca4a9ba__icon-cfda124828f025dd__c)" fill-rule="evenodd" d="M32 5H8a3 3 0 0 0-3 3v24a3 3 0 0 0 3 3h24a3 3 0 0 0 3-3V8a3 3 0 0 0-3-3ZM8 4a4 4 0 0 0-4 4v24a4 4 0 0 0 4 4h24a4 4 0 0 0 4-4V8a4 4 0 0 0-4-4H8Z" clip-rule="evenodd"/><path fill="#F5F5F5" fill-rule="evenodd" d="M27.156 36.664a1.5 1.5 0 1 0 2.121 2.122l.624-.624a1.5 1.5 0 0 0 2.558.977l2.121-2.12c.227-.227.366-.508.417-.8l1.456 1.42c.95.926 2.547.253 2.547-1.075V28.5a1.5 1.5 0 0 0-1.5-1.5h-8.27c-1.346 0-2.011 1.635-1.048 2.574l1.43 1.395a1.494 1.494 0 0 0-.688.392l-2.121 2.122a1.5 1.5 0 0 0 .976 2.558l-.623.623Z" clip-rule="evenodd"/><path fill="url(#icon-38eff4d20e7c8d66__icon-371bf9bc5a7ff80b__d)" d="M38 28.5a.5.5 0 0 0-.5-.5h-8.27a.5.5 0 0 0-.35.858l8.271 8.064a.5.5 0 0 0 .85-.358V28.5Z"/><path fill="url(#icon-a950f5fe4379c6bc__icon-060e47c89688d54f__e)" d="M32.106 34.543a.5.5 0 1 0-.707-.707l-3.536 3.535a.5.5 0 1 0 .707.708l3.536-3.536Z"/><path fill="url(#icon-e0119e03775f0579__icon-f203a4b2f7e4dad1__f)" d="m27.51 34.19 2.121-2.122a.5.5 0 0 1 .707.708l-2.121 2.12a.5.5 0 0 1-.707-.706Z"/><path fill="url(#icon-bc4ee8020199d970__icon-a3dee816283c75c2__g)" d="m33.166 35.604-2.121 2.121a.5.5 0 1 0 .707.707l2.121-2.12a.5.5 0 1 0-.707-.708Z"/><path fill="url(#icon-0382ec35e307d237__icon-0fc3f28748f48b81__h)" d="M20.253 29H26.5a2 2 0 0 0 2-2v-7.827a2 2 0 0 0-.702-1.522l-6.5-5.544a2 2 0 0 0-2.595 0l-6.5 5.544a2 2 0 0 0-.703 1.522V27a2 2 0 0 0 2 2h7.31"/><defs><linearGradient id="icon-c5b6ff97d8612f43__icon-e9da6f383a0c119a__a" x1="12.889" x2="16.937" y1="4" y2="36.383" gradientUnits="userSpaceOnUse"><stop stop-color="#fff"/><stop offset="1" stop-color="#EBEBEB"/></linearGradient><linearGradient id="icon-073de5c0fca4a9ba__icon-cfda124828f025dd__c" x1="14.333" x2="18.642" y1="4" y2="36.314" gradientUnits="userSpaceOnUse"><stop stop-color="#BBB"/><stop offset="1" stop-color="#888"/></linearGradient><linearGradient id="icon-38eff4d20e7c8d66__icon-371bf9bc5a7ff80b__d" x1="27.363" x2="37.942" y1="28" y2="38.637" gradientUnits="userSpaceOnUse"><stop stop-color="#008EE6"/><stop offset="1" stop-color="#006094"/></linearGradient><linearGradient id="icon-a950f5fe4379c6bc__icon-060e47c89688d54f__e" x1="27.363" x2="37.942" y1="28" y2="38.637" gradientUnits="userSpaceOnUse"><stop stop-color="#008EE6"/><stop offset="1" stop-color="#006094"/></linearGradient><linearGradient id="icon-e0119e03775f0579__icon-f203a4b2f7e4dad1__f" x1="27.363" x2="37.942" y1="28" y2="38.637" gradientUnits="userSpaceOnUse"><stop stop-color="#008EE6"/><stop offset="1" stop-color="#006094"/></linearGradient><linearGradient id="icon-bc4ee8020199d970__icon-a3dee816283c75c2__g" x1="27.363" x2="37.942" y1="28" y2="38.637" gradientUnits="userSpaceOnUse"><stop stop-color="#008EE6"/><stop offset="1" stop-color="#006094"/></linearGradient><linearGradient id="icon-0382ec35e307d237__icon-0fc3f28748f48b81__h" x1="11.5" x2="29.471" y1="11" y2="27.972" gradientUnits="userSpaceOnUse"><stop stop-color="#008EE6"/><stop offset="1" stop-color="#006094"/></linearGradient><radialGradient id="icon-73881aff8602bac5__icon-dd16ef30803b0baf__b" cx="0" cy="0" r="1" gradientTransform="rotate(56.31 -4.411 19.454) scale(30.4469 26.3483)" gradientUnits="userSpaceOnUse"><stop offset=".177" stop-color="#fff"/><stop offset="1" stop-color="#B8B8B8"/></radialGradient></defs></svg>