<svg xmlns="http://www.w3.org/2000/svg" width="24" height="24" fill="currentColor"><path fill="url(#icon-a9dc75b2d6f291fa__icon-2a26b26bce251416__a)" d="M2 5a3 3 0 0 1 3-3h14a3 3 0 0 1 3 3v14a3 3 0 0 1-3 3H5a3 3 0 0 1-3-3V5Z"/><path fill="url(#icon-d37aa9749a863c66__icon-26e08ceff84eb12c__b)" fill-opacity=".2" d="M2 5a3 3 0 0 1 3-3h14a3 3 0 0 1 3 3v14a3 3 0 0 1-3 3H5a3 3 0 0 1-3-3V5Z"/><path fill="url(#icon-e0f8969e27b60e38__icon-1c26a1bf6c5a47b0__c)" fill-rule="evenodd" d="M19 3H5a2 2 0 0 0-2 2v14a2 2 0 0 0 2 2h14a2 2 0 0 0 2-2V5a2 2 0 0 0-2-2ZM5 2a3 3 0 0 0-3 3v14a3 3 0 0 0 3 3h14a3 3 0 0 0 3-3V5a3 3 0 0 0-3-3H5Z" clip-rule="evenodd"/><path fill="url(#icon-f5fe37408abc8a40__icon-60c3dfe3a8c60a02__d)" fill-rule="evenodd" d="M10 7h-.5a.5.5 0 0 1 0-1h5a.5.5 0 0 1 0 1H14v3.689c0 .443.118.877.341 1.26l2.214 3.795A1.5 1.5 0 0 1 15.26 18H8.742a1.5 1.5 0 0 1-1.296-2.256L9.66 11.95a2.5 2.5 0 0 0 .34-1.26V7Zm4.38 7H9.621L8.31 16.248a.5.5 0 0 0 .432.752h6.517a.5.5 0 0 0 .432-.752L14.38 14Z" clip-rule="evenodd"/><defs><linearGradient id="icon-a9dc75b2d6f291fa__icon-2a26b26bce251416__a" x1="7.556" x2="10.085" y1="2" y2="22.239" gradientUnits="userSpaceOnUse"><stop stop-color="#fff"/><stop offset="1" stop-color="#EBEBEB"/></linearGradient><linearGradient id="icon-e0f8969e27b60e38__icon-1c26a1bf6c5a47b0__c" x1="8.458" x2="11.151" y1="2" y2="22.197" gradientUnits="userSpaceOnUse"><stop stop-color="#BBB"/><stop offset="1" stop-color="#888"/></linearGradient><linearGradient id="icon-f5fe37408abc8a40__icon-60c3dfe3a8c60a02__d" x1="7.239" x2="18.925" y1="6" y2="15.273" gradientUnits="userSpaceOnUse"><stop stop-color="#4BA446"/><stop offset="1" stop-color="#3F7D35"/></linearGradient><radialGradient id="icon-d37aa9749a863c66__icon-26e08ceff84eb12c__b" cx="0" cy="0" r="1" gradientTransform="rotate(56.31 -2.54 11.442) scale(19.0293 16.4677)" gradientUnits="userSpaceOnUse"><stop offset=".177" stop-color="#fff"/><stop offset="1" stop-color="#B8B8B8"/></radialGradient></defs></svg>