<svg xmlns="http://www.w3.org/2000/svg" width="48" height="48" fill="currentColor"><path fill="url(#icon-ea22ec85ef0fcc4d__icon-b63f1fae3cdc4e55__a)" d="M5 10a5 5 0 0 1 5-5h28a5 5 0 0 1 5 5v28a5 5 0 0 1-5 5H10a5 5 0 0 1-5-5V10Z"/><path fill="url(#icon-374f11d1344d791b__icon-bf056cad66edc399__b)" fill-opacity=".2" d="M5 10a5 5 0 0 1 5-5h28a5 5 0 0 1 5 5v28a5 5 0 0 1-5 5H10a5 5 0 0 1-5-5V10Z"/><path fill="url(#icon-06e4fd645a53c3f1__icon-74bc4716dee7a16c__c)" fill-rule="evenodd" d="M38 6H10a4 4 0 0 0-4 4v28a4 4 0 0 0 4 4h28a4 4 0 0 0 4-4V10a4 4 0 0 0-4-4ZM10 5a5 5 0 0 0-5 5v28a5 5 0 0 0 5 5h28a5 5 0 0 0 5-5V10a5 5 0 0 0-5-5H10Z" clip-rule="evenodd"/><path fill="url(#icon-0ef1f0fb3adfc797__icon-cb96b9ebd5ec9648__d)" fill-rule="evenodd" d="M20 15a.5.5 0 1 0 0 1h1v6.96a1.5 1.5 0 0 1-.204.755l-3.662 6.277C16.356 31.326 17.318 33 18.86 33h10.277c1.544 0 2.506-1.674 1.728-3.008l-3.662-6.277A1.5 1.5 0 0 1 27 22.96V16h1a.5.5 0 1 0 0-1h-8Zm-2.002 15.496L20.037 27h7.926l2.04 3.496A1 1 0 0 1 29.137 32H18.861a1 1 0 0 1-.863-1.504Z" clip-rule="evenodd"/><defs><linearGradient id="icon-ea22ec85ef0fcc4d__icon-b63f1fae3cdc4e55__a" x1="15.556" x2="20.362" y1="5" y2="43.455" gradientUnits="userSpaceOnUse"><stop stop-color="#fff"/><stop offset="1" stop-color="#EBEBEB"/></linearGradient><linearGradient id="icon-06e4fd645a53c3f1__icon-74bc4716dee7a16c__c" x1="17.271" x2="22.387" y1="5" y2="43.373" gradientUnits="userSpaceOnUse"><stop stop-color="#BBB"/><stop offset="1" stop-color="#888"/></linearGradient><linearGradient id="icon-0ef1f0fb3adfc797__icon-cb96b9ebd5ec9648__d" x1="16.858" x2="34.387" y1="15" y2="28.909" gradientUnits="userSpaceOnUse"><stop stop-color="#4BA446"/><stop offset="1" stop-color="#3F7D35"/></linearGradient><radialGradient id="icon-374f11d1344d791b__icon-bf056cad66edc399__b" cx="0" cy="0" r="1" gradientTransform="rotate(56.31 -5.347 23.46) scale(36.1557 31.2886)" gradientUnits="userSpaceOnUse"><stop offset=".177" stop-color="#fff"/><stop offset="1" stop-color="#B8B8B8"/></radialGradient></defs></svg>