<svg xmlns="http://www.w3.org/2000/svg" width="20" height="20" fill="currentColor"><path fill="url(#icon-48200f752a634f9e__icon-4a371b8dceb8971e__a)" d="M2 4.5A2.5 2.5 0 0 1 4.5 2h11A2.5 2.5 0 0 1 18 4.5v11a2.5 2.5 0 0 1-2.5 2.5h-11A2.5 2.5 0 0 1 2 15.5v-11Z"/><path fill="url(#icon-904af132310cb553__icon-5b5bdb278028f4b2__b)" fill-opacity=".2" d="M2 4.5A2.5 2.5 0 0 1 4.5 2h11A2.5 2.5 0 0 1 18 4.5v11a2.5 2.5 0 0 1-2.5 2.5h-11A2.5 2.5 0 0 1 2 15.5v-11Z"/><path fill="url(#icon-7d0473494f06b90d__icon-009dcb76485ace56__c)" fill-rule="evenodd" d="M15.5 3h-11A1.5 1.5 0 0 0 3 4.5v11A1.5 1.5 0 0 0 4.5 17h11a1.5 1.5 0 0 0 1.5-1.5v-11A1.5 1.5 0 0 0 15.5 3Zm-11-1A2.5 2.5 0 0 0 2 4.5v11A2.5 2.5 0 0 0 4.5 18h11a2.5 2.5 0 0 0 2.5-2.5v-11A2.5 2.5 0 0 0 15.5 2h-11Z" clip-rule="evenodd"/><path fill="url(#icon-025f8b74d54934ae__icon-cc90e1dde75ff7a0__d)" fill-rule="evenodd" d="M12 6v2.986c0 .253.064.502.186.723l1.687 3.068A1.5 1.5 0 0 1 12.56 15H7.442a1.5 1.5 0 0 1-1.315-2.223L7.815 9.71A1.5 1.5 0 0 0 8 8.986V6h-.5a.5.5 0 0 1 0-1h5a.5.5 0 0 1 0 1H12Zm-4.304 6h4.609l.692 1.259a.5.5 0 0 1-.438.741H7.442a.5.5 0 0 1-.439-.741L7.696 12Z" clip-rule="evenodd"/><defs><linearGradient id="icon-48200f752a634f9e__icon-4a371b8dceb8971e__a" x1="6.444" x2="8.468" y1="2" y2="18.192" gradientUnits="userSpaceOnUse"><stop stop-color="#fff"/><stop offset="1" stop-color="#EBEBEB"/></linearGradient><linearGradient id="icon-7d0473494f06b90d__icon-009dcb76485ace56__c" x1="7.167" x2="9.321" y1="2" y2="18.157" gradientUnits="userSpaceOnUse"><stop stop-color="#BBB"/><stop offset="1" stop-color="#888"/></linearGradient><linearGradient id="icon-025f8b74d54934ae__icon-cc90e1dde75ff7a0__d" x1="5.939" x2="15.727" y1="5" y2="12.949" gradientUnits="userSpaceOnUse"><stop stop-color="#4BA446"/><stop offset="1" stop-color="#3F7D35"/></linearGradient><radialGradient id="icon-904af132310cb553__icon-5b5bdb278028f4b2__b" cx="0" cy="0" r="1" gradientTransform="rotate(56.31 -2.206 9.727) scale(15.2234 13.1741)" gradientUnits="userSpaceOnUse"><stop offset=".177" stop-color="#fff"/><stop offset="1" stop-color="#B8B8B8"/></radialGradient></defs></svg>