<svg xmlns="http://www.w3.org/2000/svg" width="40" height="40" fill="currentColor"><path fill="url(#icon-c05cc6f6deee89d1__icon-38b4dd30a9a588f0__a)" d="M4 8a4 4 0 0 1 4-4h24a4 4 0 0 1 4 4v24a4 4 0 0 1-4 4H8a4 4 0 0 1-4-4V8Z"/><path fill="url(#icon-173f3394ffb444a1__icon-1012aedfb343d1bc__b)" fill-opacity=".2" d="M4 8a4 4 0 0 1 4-4h24a4 4 0 0 1 4 4v24a4 4 0 0 1-4 4H8a4 4 0 0 1-4-4V8Z"/><path fill="url(#icon-6cfe4141b7e03fda__icon-dad3626616d03c7b__c)" fill-rule="evenodd" d="M32 5H8a3 3 0 0 0-3 3v24a3 3 0 0 0 3 3h24a3 3 0 0 0 3-3V8a3 3 0 0 0-3-3ZM8 4a4 4 0 0 0-4 4v24a4 4 0 0 0 4 4h24a4 4 0 0 0 4-4V8a4 4 0 0 0-4-4H8Z" clip-rule="evenodd"/><path fill="url(#icon-6cac2df6f63530dc__icon-d00ebf5fc49f7969__d)" fill-rule="evenodd" d="M16.5 12a.5.5 0 1 0 0 1h.5v6.028a1.5 1.5 0 0 1-.194.74l-2.973 5.246c-.755 1.334.208 2.986 1.74 2.986h8.854c1.532 0 2.495-1.652 1.74-2.986l-2.972-5.247a1.5 1.5 0 0 1-.195-.739V13h.5a.5.5 0 0 0 0-1h-7Zm-1.797 13.507L16.123 23h7.754l1.42 2.507a1 1 0 0 1-.87 1.493h-8.854a1 1 0 0 1-.87-1.493Z" clip-rule="evenodd"/><defs><linearGradient id="icon-c05cc6f6deee89d1__icon-38b4dd30a9a588f0__a" x1="12.889" x2="16.937" y1="4" y2="36.383" gradientUnits="userSpaceOnUse"><stop stop-color="#fff"/><stop offset="1" stop-color="#EBEBEB"/></linearGradient><linearGradient id="icon-6cfe4141b7e03fda__icon-dad3626616d03c7b__c" x1="14.333" x2="18.642" y1="4" y2="36.314" gradientUnits="userSpaceOnUse"><stop stop-color="#BBB"/><stop offset="1" stop-color="#888"/></linearGradient><linearGradient id="icon-6cac2df6f63530dc__icon-d00ebf5fc49f7969__d" x1="13.57" x2="29.196" y1="12" y2="24.559" gradientUnits="userSpaceOnUse"><stop stop-color="#4BA446"/><stop offset="1" stop-color="#3F7D35"/></linearGradient><radialGradient id="icon-173f3394ffb444a1__icon-1012aedfb343d1bc__b" cx="0" cy="0" r="1" gradientTransform="rotate(56.31 -4.411 19.454) scale(30.4469 26.3483)" gradientUnits="userSpaceOnUse"><stop offset=".177" stop-color="#fff"/><stop offset="1" stop-color="#B8B8B8"/></radialGradient></defs></svg>