<svg xmlns="http://www.w3.org/2000/svg" width="48" height="48" fill="currentColor"><path fill="url(#icon-5c84588d0f99ef43__icon-24cbd2e742e64da2__a)" d="M5 10a5 5 0 0 1 5-5h28a5 5 0 0 1 5 5v28a5 5 0 0 1-5 5H10a5 5 0 0 1-5-5V10Z"/><path fill="url(#icon-d31c5526dbfff04a__icon-cf9fa5708a2b69d6__b)" fill-opacity=".2" d="M5 10a5 5 0 0 1 5-5h28a5 5 0 0 1 5 5v28a5 5 0 0 1-5 5H10a5 5 0 0 1-5-5V10Z"/><path fill="url(#icon-4a266637e1d09a90__icon-81618ced143e56e8__c)" fill-rule="evenodd" d="M38 6H10a4 4 0 0 0-4 4v28a4 4 0 0 0 4 4h28a4 4 0 0 0 4-4V10a4 4 0 0 0-4-4ZM10 5a5 5 0 0 0-5 5v28a5 5 0 0 0 5 5h28a5 5 0 0 0 5-5V10a5 5 0 0 0-5-5H10Z" clip-rule="evenodd"/><path fill="url(#icon-dfd1ab0841b70f09__icon-90f985ff19b53be4__d)" d="M18.5 33a4.5 4.5 0 0 0 4.5-4.5V24h2v4.53a4.5 4.5 0 0 0 9-.03v-.436c0-.091-.009-.182-.026-.272l-1.953-9.898A3.589 3.589 0 0 0 28.5 15a3.5 3.5 0 0 0-3.5 3.5V20h-2v-1.5a3.5 3.5 0 0 0-3.5-3.5 3.422 3.422 0 0 0-3.348 2.716L14.03 27.779a1.4 1.4 0 0 0-.03.289v.432a4.502 4.502 0 0 0 4.5 4.5Zm0-1.5a3 3 0 1 1 0-6 3 3 0 0 1 0 6Zm11-6a3 3 0 0 1 3 3v.02a3 3 0 1 1-3-3.02Z"/><defs><linearGradient id="icon-5c84588d0f99ef43__icon-24cbd2e742e64da2__a" x1="15.556" x2="20.362" y1="5" y2="43.455" gradientUnits="userSpaceOnUse"><stop stop-color="#fff"/><stop offset="1" stop-color="#EBEBEB"/></linearGradient><linearGradient id="icon-4a266637e1d09a90__icon-81618ced143e56e8__c" x1="17.271" x2="22.387" y1="5" y2="43.373" gradientUnits="userSpaceOnUse"><stop stop-color="#BBB"/><stop offset="1" stop-color="#888"/></linearGradient><linearGradient id="icon-dfd1ab0841b70f09__icon-90f985ff19b53be4__d" x1="14" x2="31.901" y1="15" y2="34.889" gradientUnits="userSpaceOnUse"><stop stop-color="#C28400"/><stop offset="1" stop-color="#A86500"/></linearGradient><radialGradient id="icon-d31c5526dbfff04a__icon-cf9fa5708a2b69d6__b" cx="0" cy="0" r="1" gradientTransform="rotate(56.31 -5.347 23.46) scale(36.1557 31.2886)" gradientUnits="userSpaceOnUse"><stop offset=".177" stop-color="#fff"/><stop offset="1" stop-color="#B8B8B8"/></radialGradient></defs></svg>