<svg xmlns="http://www.w3.org/2000/svg" width="40" height="40" fill="currentColor"><path fill="url(#icon-cdaa5767ecc7feaf__icon-a9e2e86463d695f7__a)" d="M4 8a4 4 0 0 1 4-4h24a4 4 0 0 1 4 4v24a4 4 0 0 1-4 4H8a4 4 0 0 1-4-4V8Z"/><path fill="url(#icon-f9630b1a1ddbce28__icon-d669de9f08d09460__b)" fill-opacity=".2" d="M4 8a4 4 0 0 1 4-4h24a4 4 0 0 1 4 4v24a4 4 0 0 1-4 4H8a4 4 0 0 1-4-4V8Z"/><path fill="url(#icon-2bc54540dcdbc916__icon-6121d6bea7fa42cf__c)" fill-rule="evenodd" d="M32 5H8a3 3 0 0 0-3 3v24a3 3 0 0 0 3 3h24a3 3 0 0 0 3-3V8a3 3 0 0 0-3-3ZM8 4a4 4 0 0 0-4 4v24a4 4 0 0 0 4 4h24a4 4 0 0 0 4-4V8a4 4 0 0 0-4-4H8Z" clip-rule="evenodd"/><path fill="url(#icon-73c25813382545d7__icon-d909dbce72398fe2__d)" fill-rule="evenodd" d="M19 23.5v-.057L18.973 20h2.054L21 23.443v.057a3.5 3.5 0 1 0 6.827-1.09l-1.84-7.247C25.815 13.985 24.8 13 23.54 13a2.475 2.475 0 0 0-2.476 2.473L21.051 17h-2.102l-.012-1.527A2.475 2.475 0 0 0 16.461 13c-1.26 0-2.275.985-2.448 2.163l-1.84 7.248A3.5 3.5 0 1 0 19 23.501ZM15.5 26a2.5 2.5 0 1 0 0-5 2.5 2.5 0 0 0 0 5Zm6.5-2.5a2.5 2.5 0 1 0 5 0 2.5 2.5 0 0 0-5 0Z" clip-rule="evenodd"/><defs><linearGradient id="icon-cdaa5767ecc7feaf__icon-a9e2e86463d695f7__a" x1="12.889" x2="16.937" y1="4" y2="36.383" gradientUnits="userSpaceOnUse"><stop stop-color="#fff"/><stop offset="1" stop-color="#EBEBEB"/></linearGradient><linearGradient id="icon-2bc54540dcdbc916__icon-6121d6bea7fa42cf__c" x1="14.333" x2="18.642" y1="4" y2="36.314" gradientUnits="userSpaceOnUse"><stop stop-color="#BBB"/><stop offset="1" stop-color="#888"/></linearGradient><linearGradient id="icon-73c25813382545d7__icon-d909dbce72398fe2__d" x1="12" x2="25.877" y1="13" y2="28.858" gradientUnits="userSpaceOnUse"><stop stop-color="#C28400"/><stop offset="1" stop-color="#A86500"/></linearGradient><radialGradient id="icon-f9630b1a1ddbce28__icon-d669de9f08d09460__b" cx="0" cy="0" r="1" gradientTransform="rotate(56.31 -4.411 19.454) scale(30.4469 26.3483)" gradientUnits="userSpaceOnUse"><stop offset=".177" stop-color="#fff"/><stop offset="1" stop-color="#B8B8B8"/></radialGradient></defs></svg>