<svg xmlns="http://www.w3.org/2000/svg" width="24" height="24" fill="currentColor"><path fill="url(#icon-37ce78243f64f12a__icon-efe8db33a9460943__a)" d="M2 5a3 3 0 0 1 3-3h14a3 3 0 0 1 3 3v14a3 3 0 0 1-3 3H5a3 3 0 0 1-3-3V5Z"/><path fill="url(#icon-4cd36adca27b1a19__icon-4ca739a69fff5df9__b)" fill-opacity=".2" d="M2 5a3 3 0 0 1 3-3h14a3 3 0 0 1 3 3v14a3 3 0 0 1-3 3H5a3 3 0 0 1-3-3V5Z"/><path fill="url(#icon-1d0a1c5237a0e3ea__icon-f8d75828928c5941__c)" fill-rule="evenodd" d="M19 3H5a2 2 0 0 0-2 2v14a2 2 0 0 0 2 2h14a2 2 0 0 0 2-2V5a2 2 0 0 0-2-2ZM5 2a3 3 0 0 0-3 3v14a3 3 0 0 0 3 3h14a3 3 0 0 0 3-3V5a3 3 0 0 0-3-3H5Z" clip-rule="evenodd"/><path fill="url(#icon-ba476b0e14870680__icon-0720f73e811a896e__d)" fill-rule="evenodd" d="M8.5 17a2.5 2.5 0 0 0 2.5-2.5v-2.502h2V14.5a2.5 2.5 0 1 0 4.924-.612l-1.21-5.256C16.582 7.745 15.819 7 14.86 7 13.821 7 13 7.844 13 8.873v1.125h-2V8.873A1.863 1.863 0 0 0 9.139 7c-.958 0-1.721.745-1.853 1.632l-1.21 5.256A2.5 2.5 0 0 0 8.5 17Zm5.5-2.5a1.5 1.5 0 1 0 3 0 1.5 1.5 0 0 0-3 0ZM8.5 16a1.5 1.5 0 1 0 0-3 1.5 1.5 0 0 0 0 3Z" clip-rule="evenodd"/><defs><linearGradient id="icon-37ce78243f64f12a__icon-efe8db33a9460943__a" x1="7.556" x2="10.085" y1="2" y2="22.239" gradientUnits="userSpaceOnUse"><stop stop-color="#fff"/><stop offset="1" stop-color="#EBEBEB"/></linearGradient><linearGradient id="icon-1d0a1c5237a0e3ea__icon-f8d75828928c5941__c" x1="8.458" x2="11.151" y1="2" y2="22.197" gradientUnits="userSpaceOnUse"><stop stop-color="#BBB"/><stop offset="1" stop-color="#888"/></linearGradient><linearGradient id="icon-ba476b0e14870680__icon-0720f73e811a896e__d" x1="6" x2="15.836" y1="7" y2="18.803" gradientUnits="userSpaceOnUse"><stop stop-color="#C28400"/><stop offset="1" stop-color="#A86500"/></linearGradient><radialGradient id="icon-4cd36adca27b1a19__icon-4ca739a69fff5df9__b" cx="0" cy="0" r="1" gradientTransform="rotate(56.31 -2.54 11.442) scale(19.0293 16.4677)" gradientUnits="userSpaceOnUse"><stop offset=".177" stop-color="#fff"/><stop offset="1" stop-color="#B8B8B8"/></radialGradient></defs></svg>