<svg xmlns="http://www.w3.org/2000/svg" width="32" height="32" fill="currentColor"><path fill="url(#icon-efe95f761a1c479b__icon-150fbb66bcb2b7ea__a)" d="M3 6.5A3.5 3.5 0 0 1 6.5 3h19A3.5 3.5 0 0 1 29 6.5v19a3.5 3.5 0 0 1-3.5 3.5h-19A3.5 3.5 0 0 1 3 25.5v-19Z"/><path fill="url(#icon-05fe894885730726__icon-a52953f2ed646617__b)" fill-opacity=".2" d="M3 6.5A3.5 3.5 0 0 1 6.5 3h19A3.5 3.5 0 0 1 29 6.5v19a3.5 3.5 0 0 1-3.5 3.5h-19A3.5 3.5 0 0 1 3 25.5v-19Z"/><path fill="url(#icon-7dd29b8c9f023d6b__icon-a789ba21fbde080e__c)" fill-rule="evenodd" d="M25.5 4h-19A2.5 2.5 0 0 0 4 6.5v19A2.5 2.5 0 0 0 6.5 28h19a2.5 2.5 0 0 0 2.5-2.5v-19A2.5 2.5 0 0 0 25.5 4Zm-19-1A3.5 3.5 0 0 0 3 6.5v19A3.5 3.5 0 0 0 6.5 29h19a3.5 3.5 0 0 0 3.5-3.5v-19A3.5 3.5 0 0 0 25.5 3h-19Z" clip-rule="evenodd"/><path fill="url(#icon-054e7ecced3336a2__icon-f3c7033ad5814825__d)" d="M15 11.5a2.5 2.5 0 0 1-2 2.45V16h4.5a1.5 1.5 0 0 0 1.5-1.5v-.55a2.5 2.5 0 1 1 1 0v.55a2.5 2.5 0 0 1-2.5 2.5H13v1.05a2.5 2.5 0 1 1-2.294.709v-.056h.056A2.495 2.495 0 0 1 12 18.05v-4.1a2.5 2.5 0 0 1-1.294-4.191v-.023h.022A2.5 2.5 0 0 1 15 11.5Z"/><path fill="#F5F5F5" d="M27 22h-6a5 5 0 0 0 0 10h6a5 5 0 0 0 0-10Z"/><path fill="url(#icon-bc8db12f463bb735__icon-7cfd77e3de2690c7__e)" d="M21 24a3 3 0 1 0 0 6h1.5a.5.5 0 0 1 0 1H21a4 4 0 0 1 0-8h1.5a.5.5 0 0 1 0 1H21Z"/><path fill="url(#icon-4c5d2be28e9cdc3c__icon-2465ba6cd78dc9d7__f)" d="M27 30a3 3 0 1 0 0-6h-1.5a.5.5 0 0 1 0-1H27a4 4 0 0 1 0 8h-1.5a.5.5 0 0 1 0-1H27Z"/><path fill="url(#icon-70126ae04b261f2d__icon-440b3bab98a7b4a1__g)" d="M21.5 26.5a.5.5 0 0 0 0 1h5a.5.5 0 0 0 0-1h-5Z"/><defs><linearGradient id="icon-efe95f761a1c479b__icon-150fbb66bcb2b7ea__a" x1="10.222" x2="13.511" y1="3" y2="29.311" gradientUnits="userSpaceOnUse"><stop stop-color="#fff"/><stop offset="1" stop-color="#EBEBEB"/></linearGradient><linearGradient id="icon-7dd29b8c9f023d6b__icon-a789ba21fbde080e__c" x1="11.396" x2="14.897" y1="3" y2="29.256" gradientUnits="userSpaceOnUse"><stop stop-color="#BBB"/><stop offset="1" stop-color="#888"/></linearGradient><linearGradient id="icon-054e7ecced3336a2__icon-f3c7033ad5814825__d" x1="10" x2="23.835" y1="9" y2="20.859" gradientUnits="userSpaceOnUse"><stop stop-color="#7751B8"/><stop offset="1" stop-color="#5A409C"/></linearGradient><linearGradient id="icon-bc8db12f463bb735__icon-7cfd77e3de2690c7__e" x1="17" x2="23.892" y1="23" y2="35.062" gradientUnits="userSpaceOnUse"><stop stop-color="#7751B8"/><stop offset="1" stop-color="#5A409C"/></linearGradient><linearGradient id="icon-4c5d2be28e9cdc3c__icon-2465ba6cd78dc9d7__f" x1="17" x2="23.892" y1="23" y2="35.062" gradientUnits="userSpaceOnUse"><stop stop-color="#7751B8"/><stop offset="1" stop-color="#5A409C"/></linearGradient><linearGradient id="icon-70126ae04b261f2d__icon-440b3bab98a7b4a1__g" x1="17" x2="23.892" y1="23" y2="35.062" gradientUnits="userSpaceOnUse"><stop stop-color="#7751B8"/><stop offset="1" stop-color="#5A409C"/></linearGradient><radialGradient id="icon-05fe894885730726__icon-a52953f2ed646617__b" cx="0" cy="0" r="1" gradientTransform="rotate(56.31 -3.476 15.448) scale(24.7381 21.408)" gradientUnits="userSpaceOnUse"><stop offset=".177" stop-color="#fff"/><stop offset="1" stop-color="#B8B8B8"/></radialGradient></defs></svg>