<svg xmlns="http://www.w3.org/2000/svg" width="24" height="24" fill="currentColor"><path fill="url(#icon-60677faa43c22cbc__icon-d24d9915e5d26910__a)" d="M2 5a3 3 0 0 1 3-3h14a3 3 0 0 1 3 3v14a3 3 0 0 1-3 3H5a3 3 0 0 1-3-3V5Z"/><path fill="url(#icon-c1686a2af7e1e1ec__icon-429a86f4c811de76__b)" fill-opacity=".2" d="M2 5a3 3 0 0 1 3-3h14a3 3 0 0 1 3 3v14a3 3 0 0 1-3 3H5a3 3 0 0 1-3-3V5Z"/><path fill="url(#icon-2ba3899115da9969__icon-37115ae2c8df8c0d__c)" fill-rule="evenodd" d="M19 3H5a2 2 0 0 0-2 2v14a2 2 0 0 0 2 2h14a2 2 0 0 0 2-2V5a2 2 0 0 0-2-2ZM5 2a3 3 0 0 0-3 3v14a3 3 0 0 0 3 3h14a3 3 0 0 0 3-3V5a3 3 0 0 0-3-3H5Z" clip-rule="evenodd"/><path fill="url(#icon-847f0e9f9183de63__icon-1644ec7188df3169__d)" d="M7.25 10.5a1.25 1.25 0 1 0 0-2.5 1.25 1.25 0 0 0 0 2.5Z"/><path fill="url(#icon-12375c58c1972322__icon-c34aa300f42a063b__e)" d="M12 10.5A1.25 1.25 0 1 0 12 8a1.25 1.25 0 0 0 0 2.5Z"/><path fill="url(#icon-0591579476203837__icon-75ed0e86891a6a00__f)" d="M13.25 14.75a1.25 1.25 0 1 1-2.5 0 1.25 1.25 0 0 1 2.5 0Z"/><path fill="url(#icon-7671f9cc4fcb8535__icon-5cbe59fff698aad0__g)" d="M7.25 16a1.25 1.25 0 1 0 0-2.5 1.25 1.25 0 0 0 0 2.5Z"/><path fill="url(#icon-32f603ab5e68b6b0__icon-a5b2d31c61d13cdb__h)" d="M18 9.25a1.25 1.25 0 1 1-2.5 0 1.25 1.25 0 0 1 2.5 0Z"/><path fill="#F5F5F5" d="M14.5 15a4.5 4.5 0 1 0 0 9h5a4.5 4.5 0 1 0 0-9h-5Z"/><path fill="url(#icon-ef3ed44a8d314504__icon-42cb3ccf5f914e27__i)" d="M11 19.5a3.5 3.5 0 0 1 3.5-3.5h1a.5.5 0 0 1 0 1h-1a2.5 2.5 0 0 0 0 5h1a.5.5 0 0 1 0 1h-1a3.5 3.5 0 0 1-3.5-3.5Z"/><path fill="url(#icon-26a6aace3c46e4eb__icon-11b643965c949d50__j)" d="M19.5 23a3.5 3.5 0 1 0 0-7h-1.063v.004a.5.5 0 0 0 0 .992V17H19.5a2.5 2.5 0 0 1 0 5h-1a.5.5 0 0 0 0 1h1Z"/><path fill="url(#icon-84259bdeeaa0a0a8__icon-ef03dc61cab4e568__k)" d="M14.5 19a.5.5 0 0 0 0 1h5a.5.5 0 0 0 0-1h-5Z"/><defs><linearGradient id="icon-60677faa43c22cbc__icon-d24d9915e5d26910__a" x1="7.556" x2="10.085" y1="2" y2="22.239" gradientUnits="userSpaceOnUse"><stop stop-color="#fff"/><stop offset="1" stop-color="#EBEBEB"/></linearGradient><linearGradient id="icon-2ba3899115da9969__icon-37115ae2c8df8c0d__c" x1="8.458" x2="11.151" y1="2" y2="22.197" gradientUnits="userSpaceOnUse"><stop stop-color="#BBB"/><stop offset="1" stop-color="#888"/></linearGradient><linearGradient id="icon-847f0e9f9183de63__icon-1644ec7188df3169__d" x1="6" x2="13.385" y1="8" y2="19.077" gradientUnits="userSpaceOnUse"><stop stop-color="#7751B8"/><stop offset="1" stop-color="#5A409C"/></linearGradient><linearGradient id="icon-12375c58c1972322__icon-c34aa300f42a063b__e" x1="6" x2="13.385" y1="8" y2="19.077" gradientUnits="userSpaceOnUse"><stop stop-color="#7751B8"/><stop offset="1" stop-color="#5A409C"/></linearGradient><linearGradient id="icon-0591579476203837__icon-75ed0e86891a6a00__f" x1="6" x2="13.385" y1="8" y2="19.077" gradientUnits="userSpaceOnUse"><stop stop-color="#7751B8"/><stop offset="1" stop-color="#5A409C"/></linearGradient><linearGradient id="icon-7671f9cc4fcb8535__icon-5cbe59fff698aad0__g" x1="6" x2="13.385" y1="8" y2="19.077" gradientUnits="userSpaceOnUse"><stop stop-color="#7751B8"/><stop offset="1" stop-color="#5A409C"/></linearGradient><linearGradient id="icon-32f603ab5e68b6b0__icon-a5b2d31c61d13cdb__h" x1="6" x2="13.385" y1="8" y2="19.077" gradientUnits="userSpaceOnUse"><stop stop-color="#7751B8"/><stop offset="1" stop-color="#5A409C"/></linearGradient><linearGradient id="icon-ef3ed44a8d314504__icon-42cb3ccf5f914e27__i" x1="11" x2="17.093" y1="16" y2="26.446" gradientUnits="userSpaceOnUse"><stop stop-color="#7751B8"/><stop offset="1" stop-color="#5A409C"/></linearGradient><linearGradient id="icon-26a6aace3c46e4eb__icon-11b643965c949d50__j" x1="11" x2="17.093" y1="16" y2="26.446" gradientUnits="userSpaceOnUse"><stop stop-color="#7751B8"/><stop offset="1" stop-color="#5A409C"/></linearGradient><linearGradient id="icon-84259bdeeaa0a0a8__icon-ef03dc61cab4e568__k" x1="11" x2="17.093" y1="16" y2="26.446" gradientUnits="userSpaceOnUse"><stop stop-color="#7751B8"/><stop offset="1" stop-color="#5A409C"/></linearGradient><radialGradient id="icon-c1686a2af7e1e1ec__icon-429a86f4c811de76__b" cx="0" cy="0" r="1" gradientTransform="rotate(56.31 -2.54 11.442) scale(19.0293 16.4677)" gradientUnits="userSpaceOnUse"><stop offset=".177" stop-color="#fff"/><stop offset="1" stop-color="#B8B8B8"/></radialGradient></defs></svg>