<svg xmlns="http://www.w3.org/2000/svg" width="24" height="24" fill="currentColor"><path fill="url(#icon-245f500dcf8bf451__icon-a3638daf9dd784c2__a)" d="M1 6a3 3 0 0 1 3-3h16a3 3 0 0 1 3 3v12a3 3 0 0 1-3 3H4a3 3 0 0 1-3-3V6Z"/><path fill="url(#icon-f6ab91e81ef323a3__icon-e9d90969acc01371__b)" fill-opacity=".2" d="M1 6a3 3 0 0 1 3-3h16a3 3 0 0 1 3 3v12a3 3 0 0 1-3 3H4a3 3 0 0 1-3-3V6Z"/><path fill="url(#icon-8d26b0f94071f336__icon-b8ee00fa72eda07f__c)" fill-rule="evenodd" d="M20 4H4a2 2 0 0 0-2 2v12a2 2 0 0 0 2 2h16a2 2 0 0 0 2-2V6a2 2 0 0 0-2-2ZM4 3a3 3 0 0 0-3 3v12a3 3 0 0 0 3 3h16a3 3 0 0 0 3-3V6a3 3 0 0 0-3-3H4Z" clip-rule="evenodd"/><path fill="url(#icon-b659fa60f6ed2c61__icon-34899b4236adf3b2__d)" d="M10 14a1 1 0 1 1-2 0 1 1 0 0 1 2 0Z"/><path fill="url(#icon-d8503e29721284ea__icon-5a29b2c2ea4d5332__e)" d="M13 14a1 1 0 1 1-2 0 1 1 0 0 1 2 0Z"/><path fill="url(#icon-5e6755f4cf7b8fe4__icon-98bf2dc179759a06__f)" d="M16 14a1 1 0 1 1-2 0 1 1 0 0 1 2 0Z"/><path fill="url(#icon-6123f6476db2d2fe__icon-52b6a7ed66e77116__g)" fill-rule="evenodd" d="M7.805 6c-.292 0-.57.12-.764.331l-2.775 3C3.67 9.975 4.14 11 5.03 11H6v5a2 2 0 0 0 2 2h8a2 2 0 0 0 2-2v-5h.97c.89 0 1.36-1.025.764-1.669l-2.775-3A1.04 1.04 0 0 0 16.195 6h-8.39ZM7 11h10v5a1 1 0 0 1-1 1H8a1 1 0 0 1-1-1v-5Z" clip-rule="evenodd"/><path fill="#F5F5F5" d="M14.5 15a4.5 4.5 0 1 0 0 9h5a4.5 4.5 0 1 0 0-9h-5Z"/><path fill="url(#icon-731094d99f433742__icon-8319ec42d5ce4ffd__h)" d="M11 19.5a3.5 3.5 0 0 1 3.5-3.5h1a.5.5 0 0 1 0 1h-1a2.5 2.5 0 0 0 0 5h1a.5.5 0 0 1 0 1h-1a3.5 3.5 0 0 1-3.5-3.5Z"/><path fill="url(#icon-a9445b76f0fd8136__icon-db1b706148fea181__i)" d="M19.5 23a3.5 3.5 0 1 0 0-7h-1.063v.004a.5.5 0 0 0 0 .992V17H19.5a2.5 2.5 0 0 1 0 5h-1a.5.5 0 0 0 0 1h1Z"/><path fill="url(#icon-d1e28b2aba30c567__icon-3c847539687ce5e8__j)" d="M14.5 19a.5.5 0 0 0 0 1h5a.5.5 0 0 0 0-1h-5Z"/><defs><linearGradient id="icon-245f500dcf8bf451__icon-a3638daf9dd784c2__a" x1="7.111" x2="8.984" y1="3" y2="21.308" gradientUnits="userSpaceOnUse"><stop stop-color="#fff"/><stop offset="1" stop-color="#EBEBEB"/></linearGradient><linearGradient id="icon-8d26b0f94071f336__icon-b8ee00fa72eda07f__c" x1="8.104" x2="10.099" y1="3" y2="21.282" gradientUnits="userSpaceOnUse"><stop stop-color="#BBB"/><stop offset="1" stop-color="#888"/></linearGradient><linearGradient id="icon-b659fa60f6ed2c61__icon-34899b4236adf3b2__d" x1="4" x2="15.52" y1="6" y2="21.36" gradientUnits="userSpaceOnUse"><stop stop-color="#7751B8"/><stop offset="1" stop-color="#5A409C"/></linearGradient><linearGradient id="icon-d8503e29721284ea__icon-5a29b2c2ea4d5332__e" x1="4" x2="15.52" y1="6" y2="21.36" gradientUnits="userSpaceOnUse"><stop stop-color="#7751B8"/><stop offset="1" stop-color="#5A409C"/></linearGradient><linearGradient id="icon-5e6755f4cf7b8fe4__icon-98bf2dc179759a06__f" x1="4" x2="15.52" y1="6" y2="21.36" gradientUnits="userSpaceOnUse"><stop stop-color="#7751B8"/><stop offset="1" stop-color="#5A409C"/></linearGradient><linearGradient id="icon-6123f6476db2d2fe__icon-52b6a7ed66e77116__g" x1="4" x2="15.52" y1="6" y2="21.36" gradientUnits="userSpaceOnUse"><stop stop-color="#7751B8"/><stop offset="1" stop-color="#5A409C"/></linearGradient><linearGradient id="icon-731094d99f433742__icon-8319ec42d5ce4ffd__h" x1="11" x2="17.093" y1="16" y2="26.446" gradientUnits="userSpaceOnUse"><stop stop-color="#7751B8"/><stop offset="1" stop-color="#5A409C"/></linearGradient><linearGradient id="icon-a9445b76f0fd8136__icon-db1b706148fea181__i" x1="11" x2="17.093" y1="16" y2="26.446" gradientUnits="userSpaceOnUse"><stop stop-color="#7751B8"/><stop offset="1" stop-color="#5A409C"/></linearGradient><linearGradient id="icon-d1e28b2aba30c567__icon-3c847539687ce5e8__j" x1="11" x2="17.093" y1="16" y2="26.446" gradientUnits="userSpaceOnUse"><stop stop-color="#7751B8"/><stop offset="1" stop-color="#5A409C"/></linearGradient><radialGradient id="icon-f6ab91e81ef323a3__icon-e9d90969acc01371__b" cx="0" cy="0" r="1" gradientTransform="matrix(11.6111 14.24997 -13.08402 10.66107 8.028 7.688)" gradientUnits="userSpaceOnUse"><stop offset=".177" stop-color="#fff"/><stop offset="1" stop-color="#B8B8B8"/></radialGradient></defs></svg>