<svg xmlns="http://www.w3.org/2000/svg" width="48" height="48" fill="currentColor"><path fill="url(#icon-6eb26c35472d4fff__icon-160977dacd9933e2__a)" d="M5 10a5 5 0 0 1 5-5h28a5 5 0 0 1 5 5v28a5 5 0 0 1-5 5H10a5 5 0 0 1-5-5V10Z"/><path fill="url(#icon-3d75fbd11dac13f0__icon-d9ca6e4138ece100__b)" fill-opacity=".2" d="M5 10a5 5 0 0 1 5-5h28a5 5 0 0 1 5 5v28a5 5 0 0 1-5 5H10a5 5 0 0 1-5-5V10Z"/><path fill="url(#icon-a32f85c9ce177db2__icon-5e08d3761c114a01__c)" fill-rule="evenodd" d="M38 6H10a4 4 0 0 0-4 4v28a4 4 0 0 0 4 4h28a4 4 0 0 0 4-4V10a4 4 0 0 0-4-4ZM10 5a5 5 0 0 0-5 5v28a5 5 0 0 0 5 5h28a5 5 0 0 0 5-5V10a5 5 0 0 0-5-5H10Z" clip-rule="evenodd"/><path fill="url(#icon-57262d41dba37030__icon-d6f53f2c3f78d664__d)" d="M14.5 21a2.5 2.5 0 1 0 0-5 2.5 2.5 0 0 0 0 5Z"/><path fill="url(#icon-289d9aa3be77ca00__icon-3f5558b948901781__e)" d="M24 21a2.5 2.5 0 1 0 0-5 2.5 2.5 0 0 0 0 5Z"/><path fill="url(#icon-d3617466ae158826__icon-9c32c215b8109f62__f)" d="M26.5 29.5a2.5 2.5 0 1 1-5 0 2.5 2.5 0 0 1 5 0Z"/><path fill="url(#icon-6c1c92574a1a112f__icon-1a49b030263ba09c__g)" d="M14.5 32a2.5 2.5 0 1 0 0-5 2.5 2.5 0 0 0 0 5Z"/><path fill="url(#icon-b61511da3f49cd68__icon-f9250af41def1b66__h)" d="M36 18.5a2.5 2.5 0 1 1-5 0 2.5 2.5 0 0 1 5 0Z"/><path fill="#F5F5F5" d="M25 40.5a6.5 6.5 0 0 1 6.5-6.5h9a6.5 6.5 0 1 1 0 13h-9a6.5 6.5 0 0 1-6.5-6.5Z"/><path fill="url(#icon-14db4960aa33db59__icon-961db4599abc7e44__i)" d="M26 40.5a5.5 5.5 0 0 1 5.5-5.5h2a.5.5 0 0 1 0 1h-2a4.5 4.5 0 1 0 0 9h2a.5.5 0 0 1 0 1h-2a5.5 5.5 0 0 1-5.5-5.5Z"/><path fill="url(#icon-eefee30bf9a9ba76__icon-f93e83e0131ddba5__j)" d="M46 40.5a5.5 5.5 0 0 1-5.5 5.5h-2a.5.5 0 0 1 0-1h2a4.5 4.5 0 1 0 0-9h-2a.5.5 0 0 1 0-1h2a5.5 5.5 0 0 1 5.5 5.5Z"/><path fill="url(#icon-e088cbdac1e21065__icon-fc21afd41ff67b84__k)" d="M32.5 39.979a.5.5 0 0 0 0 1h7.594a.5.5 0 0 0 0-1H32.5Z"/><defs><linearGradient id="icon-6eb26c35472d4fff__icon-160977dacd9933e2__a" x1="15.556" x2="20.362" y1="5" y2="43.455" gradientUnits="userSpaceOnUse"><stop stop-color="#fff"/><stop offset="1" stop-color="#EBEBEB"/></linearGradient><linearGradient id="icon-a32f85c9ce177db2__icon-5e08d3761c114a01__c" x1="17.271" x2="22.387" y1="5" y2="43.373" gradientUnits="userSpaceOnUse"><stop stop-color="#BBB"/><stop offset="1" stop-color="#888"/></linearGradient><linearGradient id="icon-57262d41dba37030__icon-d6f53f2c3f78d664__d" x1="12" x2="26.769" y1="16" y2="38.154" gradientUnits="userSpaceOnUse"><stop stop-color="#7751B8"/><stop offset="1" stop-color="#5A409C"/></linearGradient><linearGradient id="icon-289d9aa3be77ca00__icon-3f5558b948901781__e" x1="12" x2="26.769" y1="16" y2="38.154" gradientUnits="userSpaceOnUse"><stop stop-color="#7751B8"/><stop offset="1" stop-color="#5A409C"/></linearGradient><linearGradient id="icon-d3617466ae158826__icon-9c32c215b8109f62__f" x1="12" x2="26.769" y1="16" y2="38.154" gradientUnits="userSpaceOnUse"><stop stop-color="#7751B8"/><stop offset="1" stop-color="#5A409C"/></linearGradient><linearGradient id="icon-6c1c92574a1a112f__icon-1a49b030263ba09c__g" x1="12" x2="26.769" y1="16" y2="38.154" gradientUnits="userSpaceOnUse"><stop stop-color="#7751B8"/><stop offset="1" stop-color="#5A409C"/></linearGradient><linearGradient id="icon-b61511da3f49cd68__icon-f9250af41def1b66__h" x1="12" x2="26.769" y1="16" y2="38.154" gradientUnits="userSpaceOnUse"><stop stop-color="#7751B8"/><stop offset="1" stop-color="#5A409C"/></linearGradient><linearGradient id="icon-14db4960aa33db59__icon-961db4599abc7e44__i" x1="26" x2="35.29" y1="35" y2="51.891" gradientUnits="userSpaceOnUse"><stop stop-color="#7751B8"/><stop offset="1" stop-color="#5A409C"/></linearGradient><linearGradient id="icon-eefee30bf9a9ba76__icon-f93e83e0131ddba5__j" x1="26" x2="35.29" y1="35" y2="51.891" gradientUnits="userSpaceOnUse"><stop stop-color="#7751B8"/><stop offset="1" stop-color="#5A409C"/></linearGradient><linearGradient id="icon-e088cbdac1e21065__icon-fc21afd41ff67b84__k" x1="26" x2="35.29" y1="35" y2="51.891" gradientUnits="userSpaceOnUse"><stop stop-color="#7751B8"/><stop offset="1" stop-color="#5A409C"/></linearGradient><radialGradient id="icon-3d75fbd11dac13f0__icon-d9ca6e4138ece100__b" cx="0" cy="0" r="1" gradientTransform="rotate(56.31 -5.347 23.46) scale(36.1557 31.2886)" gradientUnits="userSpaceOnUse"><stop offset=".177" stop-color="#fff"/><stop offset="1" stop-color="#B8B8B8"/></radialGradient></defs></svg>