<svg xmlns="http://www.w3.org/2000/svg" width="40" height="40" fill="currentColor"><path fill="url(#icon-fdf9166557da951e__icon-8bc83b8ed4015bfa__a)" d="M4 8a4 4 0 0 1 4-4h24a4 4 0 0 1 4 4v24a4 4 0 0 1-4 4H8a4 4 0 0 1-4-4V8Z"/><path fill="url(#icon-3352649707e70b01__icon-360b5819ebfb4c4e__b)" fill-opacity=".2" d="M4 8a4 4 0 0 1 4-4h24a4 4 0 0 1 4 4v24a4 4 0 0 1-4 4H8a4 4 0 0 1-4-4V8Z"/><path fill="url(#icon-fbe0ed9c3883177a__icon-68631136015f1d25__c)" fill-rule="evenodd" d="M32 5H8a3 3 0 0 0-3 3v24a3 3 0 0 0 3 3h24a3 3 0 0 0 3-3V8a3 3 0 0 0-3-3ZM8 4a4 4 0 0 0-4 4v24a4 4 0 0 0 4 4h24a4 4 0 0 0 4-4V8a4 4 0 0 0-4-4H8Z" clip-rule="evenodd"/><path fill="url(#icon-866ea41aab51c408__icon-ff5291c5dcc64dbd__d)" d="M12 18.25a2 2 0 1 0 0-4 2 2 0 0 0 0 4Z"/><path fill="url(#icon-a0427cb0d4a2c3e9__icon-ab0c7dddb8a19adb__e)" d="M20 18.25a2 2 0 1 0 0-4 2 2 0 0 0 0 4Z"/><path fill="url(#icon-85a5f7e369ba8031__icon-18e57ce262e9c434__f)" d="M30 16.25a2 2 0 1 1-4 0 2 2 0 0 1 4 0Z"/><path fill="url(#icon-a0eaaa91c6d3d4ee__icon-a64645ccdfb1fece__g)" d="M20 26.25a2 2 0 1 0 0-4 2 2 0 0 0 0 4Z"/><path fill="url(#icon-01227d29ed62df0e__icon-b15b21996dad121c__h)" d="M14 24.25a2 2 0 1 1-4 0 2 2 0 0 1 4 0Z"/><path fill="#F5F5F5" d="M35 29h-6a5 5 0 0 0 0 10h6a5 5 0 0 0 0-10Z"/><path fill="url(#icon-6c4c24aee316b41d__icon-1a5d53982362a645__i)" d="M29 31a3 3 0 1 0 0 6h1.5a.5.5 0 0 1 0 1H29a4 4 0 0 1 0-8h1.5a.5.5 0 0 1 0 1H29Z"/><path fill="url(#icon-9a8eb579f8b77ca6__icon-64b40ecb99876245__j)" d="M35 37a3 3 0 1 0 0-6h-1.5a.5.5 0 0 1 0-1H35a4 4 0 0 1 0 8h-1.5a.5.5 0 0 1 0-1H35Z"/><path fill="url(#icon-189e0156cbf4fb07__icon-25922783151030fd__k)" d="M29.5 33.5a.5.5 0 0 0 0 1h5a.5.5 0 0 0 0-1h-5Z"/><defs><linearGradient id="icon-fdf9166557da951e__icon-8bc83b8ed4015bfa__a" x1="12.889" x2="16.937" y1="4" y2="36.383" gradientUnits="userSpaceOnUse"><stop stop-color="#fff"/><stop offset="1" stop-color="#EBEBEB"/></linearGradient><linearGradient id="icon-fbe0ed9c3883177a__icon-68631136015f1d25__c" x1="14.333" x2="18.642" y1="4" y2="36.314" gradientUnits="userSpaceOnUse"><stop stop-color="#BBB"/><stop offset="1" stop-color="#888"/></linearGradient><linearGradient id="icon-866ea41aab51c408__icon-ff5291c5dcc64dbd__d" x1="10" x2="20.588" y1="14.25" y2="31.897" gradientUnits="userSpaceOnUse"><stop stop-color="#7751B8"/><stop offset="1" stop-color="#5A409C"/></linearGradient><linearGradient id="icon-a0427cb0d4a2c3e9__icon-ab0c7dddb8a19adb__e" x1="10" x2="20.588" y1="14.25" y2="31.897" gradientUnits="userSpaceOnUse"><stop stop-color="#7751B8"/><stop offset="1" stop-color="#5A409C"/></linearGradient><linearGradient id="icon-85a5f7e369ba8031__icon-18e57ce262e9c434__f" x1="10" x2="20.588" y1="14.25" y2="31.897" gradientUnits="userSpaceOnUse"><stop stop-color="#7751B8"/><stop offset="1" stop-color="#5A409C"/></linearGradient><linearGradient id="icon-a0eaaa91c6d3d4ee__icon-a64645ccdfb1fece__g" x1="10" x2="20.588" y1="14.25" y2="31.897" gradientUnits="userSpaceOnUse"><stop stop-color="#7751B8"/><stop offset="1" stop-color="#5A409C"/></linearGradient><linearGradient id="icon-01227d29ed62df0e__icon-b15b21996dad121c__h" x1="10" x2="20.588" y1="14.25" y2="31.897" gradientUnits="userSpaceOnUse"><stop stop-color="#7751B8"/><stop offset="1" stop-color="#5A409C"/></linearGradient><linearGradient id="icon-6c4c24aee316b41d__icon-1a5d53982362a645__i" x1="25" x2="31.892" y1="30" y2="42.062" gradientUnits="userSpaceOnUse"><stop stop-color="#7751B8"/><stop offset="1" stop-color="#5A409C"/></linearGradient><linearGradient id="icon-9a8eb579f8b77ca6__icon-64b40ecb99876245__j" x1="25" x2="31.892" y1="30" y2="42.062" gradientUnits="userSpaceOnUse"><stop stop-color="#7751B8"/><stop offset="1" stop-color="#5A409C"/></linearGradient><linearGradient id="icon-189e0156cbf4fb07__icon-25922783151030fd__k" x1="25" x2="31.892" y1="30" y2="42.062" gradientUnits="userSpaceOnUse"><stop stop-color="#7751B8"/><stop offset="1" stop-color="#5A409C"/></linearGradient><radialGradient id="icon-3352649707e70b01__icon-360b5819ebfb4c4e__b" cx="0" cy="0" r="1" gradientTransform="rotate(56.31 -4.411 19.454) scale(30.4469 26.3483)" gradientUnits="userSpaceOnUse"><stop offset=".177" stop-color="#fff"/><stop offset="1" stop-color="#B8B8B8"/></radialGradient></defs></svg>