<svg xmlns="http://www.w3.org/2000/svg" width="48" height="48" fill="currentColor"><path fill="url(#icon-edd634927d3f3a72__icon-c03e146faffad8be__a)" d="M5 10a5 5 0 0 1 5-5h28a5 5 0 0 1 5 5v28a5 5 0 0 1-5 5H10a5 5 0 0 1-5-5V10Z"/><path fill="url(#icon-fd8ffdd4b5ca9b82__icon-147c578406ed5940__b)" fill-opacity=".2" d="M5 10a5 5 0 0 1 5-5h28a5 5 0 0 1 5 5v28a5 5 0 0 1-5 5H10a5 5 0 0 1-5-5V10Z"/><path fill="url(#icon-138c3c2b87c727a0__icon-024e217134ba6cbd__c)" fill-rule="evenodd" d="M38 6H10a4 4 0 0 0-4 4v28a4 4 0 0 0 4 4h28a4 4 0 0 0 4-4V10a4 4 0 0 0-4-4ZM10 5a5 5 0 0 0-5 5v28a5 5 0 0 0 5 5h28a5 5 0 0 0 5-5V10a5 5 0 0 0-5-5H10Z" clip-rule="evenodd"/><path fill="url(#icon-728145710f6ca048__icon-83f3691e3bd64151__d)" d="M20.25 20.92A3.501 3.501 0 0 0 19.5 14a3.5 3.5 0 0 0-.75 6.92v6.16A3.501 3.501 0 0 0 19.5 34a3.5 3.5 0 0 0 .75-6.92V24.79h5.25a4.752 4.752 0 0 0 4.665-3.852 3.501 3.501 0 1 0-1.528-.044 3.251 3.251 0 0 1-3.137 2.396h-5.25v-2.37Z"/><path fill="#F5F5F5" d="M25 40.5a6.5 6.5 0 0 1 6.5-6.5h9a6.5 6.5 0 1 1 0 13h-9a6.5 6.5 0 0 1-6.5-6.5Z"/><path fill="url(#icon-a8e26261d9115691__icon-7241676a85fa2c77__e)" d="M26 40.5a5.5 5.5 0 0 1 5.5-5.5h2a.5.5 0 0 1 0 1h-2a4.5 4.5 0 1 0 0 9h2a.5.5 0 0 1 0 1h-2a5.5 5.5 0 0 1-5.5-5.5Z"/><path fill="url(#icon-fc5485559ae2bb86__icon-40f27c798aca3451__f)" d="M46 40.5a5.5 5.5 0 0 1-5.5 5.5h-2a.5.5 0 0 1 0-1h2a4.5 4.5 0 1 0 0-9h-2a.5.5 0 0 1 0-1h2a5.5 5.5 0 0 1 5.5 5.5Z"/><path fill="url(#icon-f093813443fcac23__icon-9be332340a47e876__g)" d="M32.5 39.979a.5.5 0 0 0 0 1h7.594a.5.5 0 0 0 0-1H32.5Z"/><defs><linearGradient id="icon-edd634927d3f3a72__icon-c03e146faffad8be__a" x1="15.556" x2="20.362" y1="5" y2="43.455" gradientUnits="userSpaceOnUse"><stop stop-color="#fff"/><stop offset="1" stop-color="#EBEBEB"/></linearGradient><linearGradient id="icon-138c3c2b87c727a0__icon-024e217134ba6cbd__c" x1="17.271" x2="22.387" y1="5" y2="43.373" gradientUnits="userSpaceOnUse"><stop stop-color="#BBB"/><stop offset="1" stop-color="#888"/></linearGradient><linearGradient id="icon-728145710f6ca048__icon-83f3691e3bd64151__d" x1="16" x2="35.739" y1="14" y2="30.778" gradientUnits="userSpaceOnUse"><stop stop-color="#7751B8"/><stop offset="1" stop-color="#5A409C"/></linearGradient><linearGradient id="icon-a8e26261d9115691__icon-7241676a85fa2c77__e" x1="26" x2="35.29" y1="35" y2="51.891" gradientUnits="userSpaceOnUse"><stop stop-color="#7751B8"/><stop offset="1" stop-color="#5A409C"/></linearGradient><linearGradient id="icon-fc5485559ae2bb86__icon-40f27c798aca3451__f" x1="26" x2="35.29" y1="35" y2="51.891" gradientUnits="userSpaceOnUse"><stop stop-color="#7751B8"/><stop offset="1" stop-color="#5A409C"/></linearGradient><linearGradient id="icon-f093813443fcac23__icon-9be332340a47e876__g" x1="26" x2="35.29" y1="35" y2="51.891" gradientUnits="userSpaceOnUse"><stop stop-color="#7751B8"/><stop offset="1" stop-color="#5A409C"/></linearGradient><radialGradient id="icon-fd8ffdd4b5ca9b82__icon-147c578406ed5940__b" cx="0" cy="0" r="1" gradientTransform="rotate(56.31 -5.347 23.46) scale(36.1557 31.2886)" gradientUnits="userSpaceOnUse"><stop offset=".177" stop-color="#fff"/><stop offset="1" stop-color="#B8B8B8"/></radialGradient></defs></svg>