<svg xmlns="http://www.w3.org/2000/svg" width="40" height="40" fill="currentColor"><path fill="url(#icon-05aa92927af9b5b1__icon-c4b3b415d4bca0c1__a)" d="M4 8a4 4 0 0 1 4-4h24a4 4 0 0 1 4 4v24a4 4 0 0 1-4 4H8a4 4 0 0 1-4-4V8Z"/><path fill="url(#icon-f6d4e59ad5521028__icon-403fc72c01c54e35__b)" fill-opacity=".2" d="M4 8a4 4 0 0 1 4-4h24a4 4 0 0 1 4 4v24a4 4 0 0 1-4 4H8a4 4 0 0 1-4-4V8Z"/><path fill="url(#icon-f4fb3b3f91f61b62__icon-1a79ce69ba580628__c)" fill-rule="evenodd" d="M32 5H8a3 3 0 0 0-3 3v24a3 3 0 0 0 3 3h24a3 3 0 0 0 3-3V8a3 3 0 0 0-3-3ZM8 4a4 4 0 0 0-4 4v24a4 4 0 0 0 4 4h24a4 4 0 0 0 4-4V8a4 4 0 0 0-4-4H8Z" clip-rule="evenodd"/><path fill="url(#icon-c13c5c92810f54c4__icon-62e547e1b8aa4799__d)" d="M19 15a3 3 0 0 1-2.5 2.959V20H22a1.5 1.5 0 0 0 1.5-1.5v-.541a3 3 0 1 1 1 0v.541A2.5 2.5 0 0 1 22 21h-5.5v1.041a3 3 0 1 1-1 0V17.96A3 3 0 1 1 19 15Z"/><path fill="#F5F5F5" d="M35 29h-6a5 5 0 0 0 0 10h6a5 5 0 0 0 0-10Z"/><path fill="url(#icon-2995d51d265aaf19__icon-9f5402d9ad16aaf7__e)" d="M29 31a3 3 0 1 0 0 6h1.5a.5.5 0 0 1 0 1H29a4 4 0 0 1 0-8h1.5a.5.5 0 0 1 0 1H29Z"/><path fill="url(#icon-bd371a76318de46c__icon-73f2a5954c1ef0d3__f)" d="M35 37a3 3 0 1 0 0-6h-1.5a.5.5 0 0 1 0-1H35a4 4 0 0 1 0 8h-1.5a.5.5 0 0 1 0-1H35Z"/><path fill="url(#icon-056da7819ec005e5__icon-6ccf8232b34511be__g)" d="M29.5 33.5a.5.5 0 0 0 0 1h5a.5.5 0 0 0 0-1h-5Z"/><defs><linearGradient id="icon-05aa92927af9b5b1__icon-c4b3b415d4bca0c1__a" x1="12.889" x2="16.937" y1="4" y2="36.383" gradientUnits="userSpaceOnUse"><stop stop-color="#fff"/><stop offset="1" stop-color="#EBEBEB"/></linearGradient><linearGradient id="icon-f4fb3b3f91f61b62__icon-1a79ce69ba580628__c" x1="14.333" x2="18.642" y1="4" y2="36.314" gradientUnits="userSpaceOnUse"><stop stop-color="#BBB"/><stop offset="1" stop-color="#888"/></linearGradient><linearGradient id="icon-c13c5c92810f54c4__icon-62e547e1b8aa4799__d" x1="13" x2="28.858" y1="12" y2="25.876" gradientUnits="userSpaceOnUse"><stop stop-color="#7751B8"/><stop offset="1" stop-color="#5A409C"/></linearGradient><linearGradient id="icon-2995d51d265aaf19__icon-9f5402d9ad16aaf7__e" x1="25" x2="31.892" y1="30" y2="42.062" gradientUnits="userSpaceOnUse"><stop stop-color="#7751B8"/><stop offset="1" stop-color="#5A409C"/></linearGradient><linearGradient id="icon-bd371a76318de46c__icon-73f2a5954c1ef0d3__f" x1="25" x2="31.892" y1="30" y2="42.062" gradientUnits="userSpaceOnUse"><stop stop-color="#7751B8"/><stop offset="1" stop-color="#5A409C"/></linearGradient><linearGradient id="icon-056da7819ec005e5__icon-6ccf8232b34511be__g" x1="25" x2="31.892" y1="30" y2="42.062" gradientUnits="userSpaceOnUse"><stop stop-color="#7751B8"/><stop offset="1" stop-color="#5A409C"/></linearGradient><radialGradient id="icon-f6d4e59ad5521028__icon-403fc72c01c54e35__b" cx="0" cy="0" r="1" gradientTransform="rotate(56.31 -4.411 19.454) scale(30.4469 26.3483)" gradientUnits="userSpaceOnUse"><stop offset=".177" stop-color="#fff"/><stop offset="1" stop-color="#B8B8B8"/></radialGradient></defs></svg>