<svg xmlns="http://www.w3.org/2000/svg" width="20" height="20" fill="currentColor"><path fill="url(#icon-0eae6387581f83ee__icon-9c308ff6b85f9c7b__a)" d="M2 4.5A2.5 2.5 0 0 1 4.5 2h11A2.5 2.5 0 0 1 18 4.5v11a2.5 2.5 0 0 1-2.5 2.5h-11A2.5 2.5 0 0 1 2 15.5v-11Z"/><path fill="url(#icon-780ac3fcfe9d4bcb__icon-e1a32641ce00a5ca__b)" fill-opacity=".2" d="M2 4.5A2.5 2.5 0 0 1 4.5 2h11A2.5 2.5 0 0 1 18 4.5v11a2.5 2.5 0 0 1-2.5 2.5h-11A2.5 2.5 0 0 1 2 15.5v-11Z"/><path fill="url(#icon-a6b0e51ef9ca2aa9__icon-011a0d60a55b53d8__c)" fill-rule="evenodd" d="M15.5 3h-11A1.5 1.5 0 0 0 3 4.5v11A1.5 1.5 0 0 0 4.5 17h11a1.5 1.5 0 0 0 1.5-1.5v-11A1.5 1.5 0 0 0 15.5 3Zm-11-1A2.5 2.5 0 0 0 2 4.5v11A2.5 2.5 0 0 0 4.5 18h11a2.5 2.5 0 0 0 2.5-2.5v-11A2.5 2.5 0 0 0 15.5 2h-11Z" clip-rule="evenodd"/><path fill="url(#icon-1ba42437f1a834e0__icon-bb2cac8d301f6c8d__d)" d="M6 9a1 1 0 1 0 0-2 1 1 0 0 0 0 2Z"/><path fill="url(#icon-b1a6af2821bf3527__icon-073a7a74b71e2a37__e)" d="M10 9a1 1 0 1 0 0-2 1 1 0 0 0 0 2Z"/><path fill="url(#icon-877e5bcfafac63a7__icon-d9c3da24136870ae__f)" d="M15 8a1 1 0 1 1-2 0 1 1 0 0 1 2 0Z"/><path fill="url(#icon-38d60d453f111ba2__icon-d972b78b822701b7__g)" d="M10 13a1 1 0 1 0 0-2 1 1 0 0 0 0 2Z"/><path fill="url(#icon-2139e0425ab18383__icon-38e71834d0c056b9__h)" d="M7 12a1 1 0 1 1-2 0 1 1 0 0 1 2 0Z"/><path fill="#F5F5F5" d="M9 16.5a3.5 3.5 0 0 1 3.5-3.5h4a3.5 3.5 0 1 1 0 7h-4A3.5 3.5 0 0 1 9 16.5Z"/><path fill="url(#icon-5f7d67adee83ac8a__icon-fb6bc9a40e6d65ea__i)" d="M12.5 14a2.5 2.5 0 0 0 0 5h.5a.5.5 0 0 0 0-1h-.5a1.5 1.5 0 0 1 0-3h.5a.5.5 0 0 0 0-1h-.5Z"/><path fill="url(#icon-63497c4f955cbf3a__icon-4950e93bf221e9b8__j)" d="M16 14a.5.5 0 0 0 0 1h.5a1.5 1.5 0 0 1 0 3H16a.5.5 0 0 0 0 1h.5a2.5 2.5 0 0 0 0-5H16Z"/><path fill="url(#icon-f376e9192c00f133__icon-9d781eaf796f89df__k)" d="M12.5 16a.5.5 0 0 0 0 1h4a.5.5 0 0 0 0-1h-4Z"/><defs><linearGradient id="icon-0eae6387581f83ee__icon-9c308ff6b85f9c7b__a" x1="6.444" x2="8.468" y1="2" y2="18.192" gradientUnits="userSpaceOnUse"><stop stop-color="#fff"/><stop offset="1" stop-color="#EBEBEB"/></linearGradient><linearGradient id="icon-a6b0e51ef9ca2aa9__icon-011a0d60a55b53d8__c" x1="7.167" x2="9.321" y1="2" y2="18.157" gradientUnits="userSpaceOnUse"><stop stop-color="#BBB"/><stop offset="1" stop-color="#888"/></linearGradient><linearGradient id="icon-1ba42437f1a834e0__icon-bb2cac8d301f6c8d__d" x1="5" x2="10.294" y1="7" y2="15.823" gradientUnits="userSpaceOnUse"><stop stop-color="#7751B8"/><stop offset="1" stop-color="#5A409C"/></linearGradient><linearGradient id="icon-b1a6af2821bf3527__icon-073a7a74b71e2a37__e" x1="5" x2="10.294" y1="7" y2="15.823" gradientUnits="userSpaceOnUse"><stop stop-color="#7751B8"/><stop offset="1" stop-color="#5A409C"/></linearGradient><linearGradient id="icon-877e5bcfafac63a7__icon-d9c3da24136870ae__f" x1="5" x2="10.294" y1="7" y2="15.823" gradientUnits="userSpaceOnUse"><stop stop-color="#7751B8"/><stop offset="1" stop-color="#5A409C"/></linearGradient><linearGradient id="icon-38d60d453f111ba2__icon-d972b78b822701b7__g" x1="5" x2="10.294" y1="7" y2="15.823" gradientUnits="userSpaceOnUse"><stop stop-color="#7751B8"/><stop offset="1" stop-color="#5A409C"/></linearGradient><linearGradient id="icon-2139e0425ab18383__icon-38e71834d0c056b9__h" x1="5" x2="10.294" y1="7" y2="15.823" gradientUnits="userSpaceOnUse"><stop stop-color="#7751B8"/><stop offset="1" stop-color="#5A409C"/></linearGradient><linearGradient id="icon-5f7d67adee83ac8a__icon-fb6bc9a40e6d65ea__i" x1="10" x2="14.245" y1="14" y2="21.642" gradientUnits="userSpaceOnUse"><stop stop-color="#7751B8"/><stop offset="1" stop-color="#5A409C"/></linearGradient><linearGradient id="icon-63497c4f955cbf3a__icon-4950e93bf221e9b8__j" x1="10" x2="14.245" y1="14" y2="21.642" gradientUnits="userSpaceOnUse"><stop stop-color="#7751B8"/><stop offset="1" stop-color="#5A409C"/></linearGradient><linearGradient id="icon-f376e9192c00f133__icon-9d781eaf796f89df__k" x1="10" x2="14.245" y1="14" y2="21.642" gradientUnits="userSpaceOnUse"><stop stop-color="#7751B8"/><stop offset="1" stop-color="#5A409C"/></linearGradient><radialGradient id="icon-780ac3fcfe9d4bcb__icon-e1a32641ce00a5ca__b" cx="0" cy="0" r="1" gradientTransform="rotate(56.31 -2.206 9.727) scale(15.2234 13.1741)" gradientUnits="userSpaceOnUse"><stop offset=".177" stop-color="#fff"/><stop offset="1" stop-color="#B8B8B8"/></radialGradient></defs></svg>