<svg xmlns="http://www.w3.org/2000/svg" width="32" height="32" fill="currentColor"><path fill="url(#icon-7ade25a5e77ee65a__icon-f147655a29ee65ca__a)" d="M2 8.5A3.5 3.5 0 0 1 5.5 5h21A3.5 3.5 0 0 1 30 8.5v15a3.5 3.5 0 0 1-3.5 3.5h-21A3.5 3.5 0 0 1 2 23.5v-15Z"/><path fill="url(#icon-42b5beac63f1b739__icon-096ceb36a6a5f908__b)" fill-opacity=".2" d="M2 8.5A3.5 3.5 0 0 1 5.5 5h21A3.5 3.5 0 0 1 30 8.5v15a3.5 3.5 0 0 1-3.5 3.5h-21A3.5 3.5 0 0 1 2 23.5v-15Z"/><path fill="url(#icon-cf638acabb88622b__icon-83baed65f805f635__c)" fill-rule="evenodd" d="M26.5 6h-21A2.5 2.5 0 0 0 3 8.5v15A2.5 2.5 0 0 0 5.5 26h21a2.5 2.5 0 0 0 2.5-2.5v-15A2.5 2.5 0 0 0 26.5 6Zm-21-1A3.5 3.5 0 0 0 2 8.5v15A3.5 3.5 0 0 0 5.5 27h21a3.5 3.5 0 0 0 3.5-3.5v-15A3.5 3.5 0 0 0 26.5 5h-21Z" clip-rule="evenodd"/><path fill="url(#icon-2a5a4c83892a0a18__icon-6340de329bd2dace__d)" d="M14 18a1 1 0 1 1-2 0 1 1 0 0 1 2 0Z"/><path fill="url(#icon-9b83834ec22ce90d__icon-71778cebfdc2e691__e)" d="M17 18a1 1 0 1 1-2 0 1 1 0 0 1 2 0Z"/><path fill="url(#icon-9fec25d2e715c801__icon-ab4e280e9eb9f960__f)" d="M20 18a1 1 0 1 1-2 0 1 1 0 0 1 2 0Z"/><path fill="url(#icon-339359bc819df5e5__icon-fed9219e60877a96__g)" fill-rule="evenodd" d="M11.805 10c-.291 0-.57.12-.764.331l-2.775 3C7.67 13.975 8.14 15 9.03 15H10v5a2 2 0 0 0 2 2h8a2 2 0 0 0 2-2v-5h.97c.89 0 1.36-1.025.764-1.669l-2.775-3a1.04 1.04 0 0 0-.764-.331h-8.39ZM11 15h10v5a1 1 0 0 1-1 1h-8a1 1 0 0 1-1-1v-5Z" clip-rule="evenodd"/><path fill="#F5F5F5" d="M27 21h-6a5 5 0 0 0 0 10h6a5 5 0 0 0 0-10Z"/><path fill="url(#icon-d7b0ff4200dd2318__icon-23d57e28653cefcf__h)" d="M21 23a3 3 0 1 0 0 6h1.5a.5.5 0 0 1 0 1H21a4 4 0 0 1 0-8h1.5a.5.5 0 0 1 0 1H21Z"/><path fill="url(#icon-8253152500b0eef9__icon-8d127e8aacc32976__i)" d="M27 29a3 3 0 1 0 0-6h-1.5a.5.5 0 0 1 0-1H27a4 4 0 0 1 0 8h-1.5a.5.5 0 0 1 0-1H27Z"/><path fill="url(#icon-187af74d59dec4e8__icon-5bb497e38c828bc0__j)" d="M21.5 25.5a.5.5 0 0 0 0 1h5a.5.5 0 0 0 0-1h-5Z"/><defs><linearGradient id="icon-7ade25a5e77ee65a__icon-f147655a29ee65ca__a" x1="9.778" x2="11.977" y1="5" y2="27.395" gradientUnits="userSpaceOnUse"><stop stop-color="#fff"/><stop offset="1" stop-color="#EBEBEB"/></linearGradient><linearGradient id="icon-cf638acabb88622b__icon-83baed65f805f635__c" x1="11.042" x2="13.385" y1="5" y2="27.366" gradientUnits="userSpaceOnUse"><stop stop-color="#BBB"/><stop offset="1" stop-color="#888"/></linearGradient><linearGradient id="icon-2a5a4c83892a0a18__icon-6340de329bd2dace__d" x1="8" x2="19.52" y1="10" y2="25.36" gradientUnits="userSpaceOnUse"><stop stop-color="#7751B8"/><stop offset="1" stop-color="#5A409C"/></linearGradient><linearGradient id="icon-9b83834ec22ce90d__icon-71778cebfdc2e691__e" x1="8" x2="19.52" y1="10" y2="25.36" gradientUnits="userSpaceOnUse"><stop stop-color="#7751B8"/><stop offset="1" stop-color="#5A409C"/></linearGradient><linearGradient id="icon-9fec25d2e715c801__icon-ab4e280e9eb9f960__f" x1="8" x2="19.52" y1="10" y2="25.36" gradientUnits="userSpaceOnUse"><stop stop-color="#7751B8"/><stop offset="1" stop-color="#5A409C"/></linearGradient><linearGradient id="icon-339359bc819df5e5__icon-fed9219e60877a96__g" x1="8" x2="19.52" y1="10" y2="25.36" gradientUnits="userSpaceOnUse"><stop stop-color="#7751B8"/><stop offset="1" stop-color="#5A409C"/></linearGradient><linearGradient id="icon-d7b0ff4200dd2318__icon-23d57e28653cefcf__h" x1="17" x2="23.892" y1="22" y2="34.062" gradientUnits="userSpaceOnUse"><stop stop-color="#7751B8"/><stop offset="1" stop-color="#5A409C"/></linearGradient><linearGradient id="icon-8253152500b0eef9__icon-8d127e8aacc32976__i" x1="17" x2="23.892" y1="22" y2="34.062" gradientUnits="userSpaceOnUse"><stop stop-color="#7751B8"/><stop offset="1" stop-color="#5A409C"/></linearGradient><linearGradient id="icon-187af74d59dec4e8__icon-5bb497e38c828bc0__j" x1="17" x2="23.892" y1="22" y2="34.062" gradientUnits="userSpaceOnUse"><stop stop-color="#7751B8"/><stop offset="1" stop-color="#5A409C"/></linearGradient><radialGradient id="icon-42b5beac63f1b739__icon-096ceb36a6a5f908__b" cx="0" cy="0" r="1" gradientTransform="rotate(49.686 -6.115 17.184) scale(22.8413 21.1279)" gradientUnits="userSpaceOnUse"><stop offset=".177" stop-color="#fff"/><stop offset="1" stop-color="#B8B8B8"/></radialGradient></defs></svg>