<svg xmlns="http://www.w3.org/2000/svg" width="32" height="32" fill="currentColor"><path fill="url(#icon-ffae81d3c2413127__icon-5b9f8eaa4e50994e__a)" d="M3 6.5A3.5 3.5 0 0 1 6.5 3h19A3.5 3.5 0 0 1 29 6.5v19a3.5 3.5 0 0 1-3.5 3.5h-19A3.5 3.5 0 0 1 3 25.5v-19Z"/><path fill="url(#icon-e8e6a536b706cae8__icon-6ff73af80e855121__b)" fill-opacity=".2" d="M3 6.5A3.5 3.5 0 0 1 6.5 3h19A3.5 3.5 0 0 1 29 6.5v19a3.5 3.5 0 0 1-3.5 3.5h-19A3.5 3.5 0 0 1 3 25.5v-19Z"/><path fill="url(#icon-00f4d067f1aa6a5b__icon-792140449a8e3326__c)" fill-rule="evenodd" d="M25.5 4h-19A2.5 2.5 0 0 0 4 6.5v19A2.5 2.5 0 0 0 6.5 28h19a2.5 2.5 0 0 0 2.5-2.5v-19A2.5 2.5 0 0 0 25.5 4Zm-19-1A3.5 3.5 0 0 0 3 6.5v19A3.5 3.5 0 0 0 6.5 29h19a3.5 3.5 0 0 0 3.5-3.5v-19A3.5 3.5 0 0 0 25.5 3h-19Z" clip-rule="evenodd"/><path fill="url(#icon-0fe70c81f7ca8ffa__icon-382613a4a55529ab__d)" d="M9.75 14.5a1.75 1.75 0 1 0 0-3.5 1.75 1.75 0 0 0 0 3.5Z"/><path fill="url(#icon-68e20ea1ca14d844__icon-bf0ede31727b8339__e)" d="M16 14.5a1.75 1.75 0 1 0 0-3.5 1.75 1.75 0 0 0 0 3.5Z"/><path fill="url(#icon-b1d56a7dc14ea93d__icon-843e3f806d2682f9__f)" d="M11.5 19.25a1.75 1.75 0 1 1-3.5 0 1.75 1.75 0 0 1 3.5 0Z"/><path fill="url(#icon-ce9d95f373d18670__icon-8532cb42a9128b8c__g)" d="M16 21a1.75 1.75 0 1 0 0-3.5 1.75 1.75 0 0 0 0 3.5Z"/><path fill="url(#icon-ab5adee0d192b817__icon-c2e9891bc644d307__h)" d="M24 12.75a1.75 1.75 0 1 1-3.5 0 1.75 1.75 0 0 1 3.5 0Z"/><path fill="#F5F5F5" d="M27 22h-6a5 5 0 0 0 0 10h6a5 5 0 0 0 0-10Z"/><path fill="url(#icon-42d3bde4b97a9d13__icon-2aa1b849da0f42cf__i)" d="M21 24a3 3 0 1 0 0 6h1.5a.5.5 0 0 1 0 1H21a4 4 0 0 1 0-8h1.5a.5.5 0 0 1 0 1H21Z"/><path fill="url(#icon-72c9f21fc29d6a41__icon-9be78525583124e1__j)" d="M27 30a3 3 0 1 0 0-6h-1.5a.5.5 0 0 1 0-1H27a4 4 0 0 1 0 8h-1.5a.5.5 0 0 1 0-1H27Z"/><path fill="url(#icon-2d616e1c6f1a9b36__icon-6b0e4642cb5a2e09__k)" d="M21.5 26.5a.5.5 0 0 0 0 1h5a.5.5 0 0 0 0-1h-5Z"/><defs><linearGradient id="icon-ffae81d3c2413127__icon-5b9f8eaa4e50994e__a" x1="10.222" x2="13.511" y1="3" y2="29.311" gradientUnits="userSpaceOnUse"><stop stop-color="#fff"/><stop offset="1" stop-color="#EBEBEB"/></linearGradient><linearGradient id="icon-00f4d067f1aa6a5b__icon-792140449a8e3326__c" x1="11.396" x2="14.897" y1="3" y2="29.256" gradientUnits="userSpaceOnUse"><stop stop-color="#BBB"/><stop offset="1" stop-color="#888"/></linearGradient><linearGradient id="icon-0fe70c81f7ca8ffa__icon-382613a4a55529ab__d" x1="8" x2="16.989" y1="11" y2="25.382" gradientUnits="userSpaceOnUse"><stop stop-color="#7751B8"/><stop offset="1" stop-color="#5A409C"/></linearGradient><linearGradient id="icon-68e20ea1ca14d844__icon-bf0ede31727b8339__e" x1="8" x2="16.989" y1="11" y2="25.382" gradientUnits="userSpaceOnUse"><stop stop-color="#7751B8"/><stop offset="1" stop-color="#5A409C"/></linearGradient><linearGradient id="icon-b1d56a7dc14ea93d__icon-843e3f806d2682f9__f" x1="8" x2="16.989" y1="11" y2="25.382" gradientUnits="userSpaceOnUse"><stop stop-color="#7751B8"/><stop offset="1" stop-color="#5A409C"/></linearGradient><linearGradient id="icon-ce9d95f373d18670__icon-8532cb42a9128b8c__g" x1="8" x2="16.989" y1="11" y2="25.382" gradientUnits="userSpaceOnUse"><stop stop-color="#7751B8"/><stop offset="1" stop-color="#5A409C"/></linearGradient><linearGradient id="icon-ab5adee0d192b817__icon-c2e9891bc644d307__h" x1="8" x2="16.989" y1="11" y2="25.382" gradientUnits="userSpaceOnUse"><stop stop-color="#7751B8"/><stop offset="1" stop-color="#5A409C"/></linearGradient><linearGradient id="icon-42d3bde4b97a9d13__icon-2aa1b849da0f42cf__i" x1="17" x2="23.892" y1="23" y2="35.062" gradientUnits="userSpaceOnUse"><stop stop-color="#7751B8"/><stop offset="1" stop-color="#5A409C"/></linearGradient><linearGradient id="icon-72c9f21fc29d6a41__icon-9be78525583124e1__j" x1="17" x2="23.892" y1="23" y2="35.062" gradientUnits="userSpaceOnUse"><stop stop-color="#7751B8"/><stop offset="1" stop-color="#5A409C"/></linearGradient><linearGradient id="icon-2d616e1c6f1a9b36__icon-6b0e4642cb5a2e09__k" x1="17" x2="23.892" y1="23" y2="35.062" gradientUnits="userSpaceOnUse"><stop stop-color="#7751B8"/><stop offset="1" stop-color="#5A409C"/></linearGradient><radialGradient id="icon-e8e6a536b706cae8__icon-6ff73af80e855121__b" cx="0" cy="0" r="1" gradientTransform="rotate(56.31 -3.476 15.448) scale(24.7381 21.408)" gradientUnits="userSpaceOnUse"><stop offset=".177" stop-color="#fff"/><stop offset="1" stop-color="#B8B8B8"/></radialGradient></defs></svg>