<svg xmlns="http://www.w3.org/2000/svg" width="40" height="40" fill="currentColor"><path fill="url(#icon-6065c2e09b097f04__icon-8391bbeaebc8bfc3__a)" d="M2 10a4 4 0 0 1 4-4h28a4 4 0 0 1 4 4v20a4 4 0 0 1-4 4H6a4 4 0 0 1-4-4V10Z"/><path fill="url(#icon-9096023af84a8535__icon-367b58ca2e7e1741__b)" fill-opacity=".2" d="M2 10a4 4 0 0 1 4-4h28a4 4 0 0 1 4 4v20a4 4 0 0 1-4 4H6a4 4 0 0 1-4-4V10Z"/><path fill="url(#icon-e1b4e6b9593bc700__icon-df618008ef0655d7__c)" fill-rule="evenodd" d="M34 7H6a3 3 0 0 0-3 3v20a3 3 0 0 0 3 3h28a3 3 0 0 0 3-3V10a3 3 0 0 0-3-3ZM6 6a4 4 0 0 0-4 4v20a4 4 0 0 0 4 4h28a4 4 0 0 0 4-4V10a4 4 0 0 0-4-4H6Z" clip-rule="evenodd"/><path fill="url(#icon-015d67c070b9ec3f__icon-2466e00954aef000__d)" d="M15.499 23.25a1.25 1.25 0 1 0 0-2.5 1.25 1.25 0 0 0 0 2.5Z"/><path fill="url(#icon-aae69f29ab66aaaa__icon-352becfaece8b940__e)" d="M19.999 23.25a1.25 1.25 0 1 0 0-2.5 1.25 1.25 0 0 0 0 2.5Z"/><path fill="url(#icon-012f57172f0306a9__icon-4196be171fb8e233__f)" d="M24.499 23.25a1.25 1.25 0 1 0 0-2.5 1.25 1.25 0 0 0 0 2.5Z"/><path fill="url(#icon-a2526b017a615f3f__icon-053d73f656bb85fe__g)" fill-rule="evenodd" d="M13.845 12a1 1 0 0 0-.743.331l-3.6 4c-.58.644-.123 1.669.743 1.669H12v7a2 2 0 0 0 2 2h12a2 2 0 0 0 2-2v-7h1.754c.866 0 1.323-1.025.744-1.669l-3.6-4a1 1 0 0 0-.744-.331H13.845ZM27 18H13v7a1 1 0 0 0 1 1h12a1 1 0 0 0 1-1v-7Z" clip-rule="evenodd"/><path fill="#F5F5F5" d="M35 28h-6a5 5 0 0 0 0 10h6a5 5 0 0 0 0-10Z"/><path fill="url(#icon-4ca8fea715e96156__icon-5a71da7560c1fc6f__h)" d="M29 30a3 3 0 1 0 0 6h1.5a.5.5 0 0 1 0 1H29a4 4 0 0 1 0-8h1.5a.5.5 0 0 1 0 1H29Z"/><path fill="url(#icon-f1c5efd6d93d7bdb__icon-5ef5f000180dd300__i)" d="M35 36a3 3 0 1 0 0-6h-1.5a.5.5 0 0 1 0-1H35a4 4 0 0 1 0 8h-1.5a.5.5 0 0 1 0-1H35Z"/><path fill="url(#icon-4903c8ec6bb5365e__icon-826b64e903ab9336__j)" d="M29.5 32.5a.5.5 0 0 0 0 1h5a.5.5 0 0 0 0-1h-5Z"/><defs><linearGradient id="icon-6065c2e09b097f04__icon-8391bbeaebc8bfc3__a" x1="12" x2="14.772" y1="6" y2="34.508" gradientUnits="userSpaceOnUse"><stop stop-color="#fff"/><stop offset="1" stop-color="#EBEBEB"/></linearGradient><linearGradient id="icon-e1b4e6b9593bc700__icon-df618008ef0655d7__c" x1="13.625" x2="16.578" y1="6" y2="34.472" gradientUnits="userSpaceOnUse"><stop stop-color="#BBB"/><stop offset="1" stop-color="#888"/></linearGradient><linearGradient id="icon-015d67c070b9ec3f__icon-2466e00954aef000__d" x1="9.243" x2="23.318" y1="12" y2="32.186" gradientUnits="userSpaceOnUse"><stop stop-color="#7751B8"/><stop offset="1" stop-color="#5A409C"/></linearGradient><linearGradient id="icon-aae69f29ab66aaaa__icon-352becfaece8b940__e" x1="9.243" x2="23.318" y1="12" y2="32.186" gradientUnits="userSpaceOnUse"><stop stop-color="#7751B8"/><stop offset="1" stop-color="#5A409C"/></linearGradient><linearGradient id="icon-012f57172f0306a9__icon-4196be171fb8e233__f" x1="9.243" x2="23.318" y1="12" y2="32.186" gradientUnits="userSpaceOnUse"><stop stop-color="#7751B8"/><stop offset="1" stop-color="#5A409C"/></linearGradient><linearGradient id="icon-a2526b017a615f3f__icon-053d73f656bb85fe__g" x1="9.243" x2="23.318" y1="12" y2="32.186" gradientUnits="userSpaceOnUse"><stop stop-color="#7751B8"/><stop offset="1" stop-color="#5A409C"/></linearGradient><linearGradient id="icon-4ca8fea715e96156__icon-5a71da7560c1fc6f__h" x1="25" x2="31.892" y1="29" y2="41.062" gradientUnits="userSpaceOnUse"><stop stop-color="#7751B8"/><stop offset="1" stop-color="#5A409C"/></linearGradient><linearGradient id="icon-f1c5efd6d93d7bdb__icon-5ef5f000180dd300__i" x1="25" x2="31.892" y1="29" y2="41.062" gradientUnits="userSpaceOnUse"><stop stop-color="#7751B8"/><stop offset="1" stop-color="#5A409C"/></linearGradient><linearGradient id="icon-4903c8ec6bb5365e__icon-826b64e903ab9336__j" x1="25" x2="31.892" y1="29" y2="41.062" gradientUnits="userSpaceOnUse"><stop stop-color="#7751B8"/><stop offset="1" stop-color="#5A409C"/></linearGradient><radialGradient id="icon-9096023af84a8535__icon-367b58ca2e7e1741__b" cx="0" cy="0" r="1" gradientTransform="matrix(18.99999 22.16665 -20.53675 17.60293 13.5 13.292)" gradientUnits="userSpaceOnUse"><stop offset=".177" stop-color="#fff"/><stop offset="1" stop-color="#B8B8B8"/></radialGradient></defs></svg>