<svg xmlns="http://www.w3.org/2000/svg" width="16" height="16" fill="currentColor"><path fill="url(#icon-d35a7e1e21421ffb__icon-12dc0297c26b5631__a)" fill-rule="evenodd" d="m1.574 10.657-.205.75c-.077.24-.184.593-.241.906a1.97 1.97 0 0 0 1.623 2.655c.277.04.59.039.941-.013l1.615-.223c.406-.056.739-.349.847-.744l1.11-4.08-5.69.749Z" clip-rule="evenodd"/><path fill="url(#icon-713aa2268b11f1fe__icon-efcc4ee7d7b46436__b)" d="M3.148 10.85c-1.701.264-2.05 1.547-2.05 1.547l1.629-5.986 8.514-1.152-1.161 4.217c-.06.226-.25.4-.486.435l-.047.008-6.446.94.047-.009Z"/><path fill="url(#icon-2182b3f0fab3ef6e__icon-a2dd1ecc7e402bed__c)" fill-opacity=".8" d="M3.148 10.85c-1.701.264-2.05 1.547-2.05 1.547l1.629-5.986 8.514-1.152-1.161 4.217c-.06.226-.25.4-.486.435l-.047.008-6.446.94.047-.009Z"/><path fill="url(#icon-8be08540baf68e79__icon-2f78c1e96932330d__d)" d="m4.114 7.03 9.425-1.392a.559.559 0 0 0 .463-.41l.973-3.52a.558.558 0 0 0-.608-.704l-8.994 1.33A2.514 2.514 0 0 0 3.35 4.15l-1.297 4.7c.26-.95.42-1.524 2.06-1.82Z"/><path fill="url(#icon-02b1d5126675d1e1__icon-c1e54c1fb30e8266__e)" d="m4.114 7.03 9.425-1.392a.559.559 0 0 0 .463-.41l.973-3.52a.558.558 0 0 0-.608-.704l-8.994 1.33A2.514 2.514 0 0 0 3.35 4.15l-1.297 4.7c.26-.95.42-1.524 2.06-1.82Z"/><path fill="url(#icon-230c66aff67841b0__icon-2c59f252947b758c__f)" fill-opacity=".4" d="m4.114 7.03 9.425-1.392a.559.559 0 0 0 .463-.41l.973-3.52a.558.558 0 0 0-.608-.704l-8.994 1.33A2.514 2.514 0 0 0 3.35 4.15l-1.297 4.7c.26-.95.42-1.524 2.06-1.82Z"/><path fill="url(#icon-cca239f17a3e8542__icon-cc2914b2157c6529__g)" d="M4.114 7.03c-1.365.247-1.704.687-1.93 1.376l-1.086 3.992s.347-1.27 2.028-1.543l6.421-.935.048-.008a.597.597 0 0 0 .485-.435l.955-3.47L4.114 7.03Z"/><path fill="url(#icon-74fac2f26e395d81__icon-dae1a64c48ab5ec0__h)" fill-opacity=".2" d="M4.114 7.03c-1.365.247-1.704.687-1.93 1.376l-1.086 3.992s.347-1.27 2.028-1.543l6.421-.935.048-.008a.597.597 0 0 0 .485-.435l.955-3.47L4.114 7.03Z"/><path fill="url(#icon-1278842171230f72__icon-ba3cf880e1237239__i)" fill-rule="evenodd" d="M3.126 10.856c-1.42.23-1.887 1.17-1.998 1.457a1.971 1.971 0 0 0 1.623 2.656c.277.04.59.038.941-.014l1.615-.223c.406-.056.739-.349.847-.744l1.012-3.72-4.04.588Z" clip-rule="evenodd"/><defs><linearGradient id="icon-d35a7e1e21421ffb__icon-12dc0297c26b5631__a" x1="4.132" x2="4.132" y1="14.996" y2="9.907" gradientUnits="userSpaceOnUse"><stop offset=".056" stop-color="#2AAC94"/><stop offset=".155" stop-color="#239C87"/><stop offset=".372" stop-color="#177E71"/><stop offset=".588" stop-color="#0E6961"/><stop offset=".799" stop-color="#095D57"/><stop offset="1" stop-color="#085954"/></linearGradient><linearGradient id="icon-713aa2268b11f1fe__icon-efcc4ee7d7b46436__b" x1="10.563" x2="5.649" y1="11.303" y2="5.959" gradientUnits="userSpaceOnUse"><stop offset=".042" stop-color="#ABE88E"/><stop offset=".549" stop-color="#2AAA92"/><stop offset=".906" stop-color="#117865"/></linearGradient><linearGradient id="icon-2182b3f0fab3ef6e__icon-a2dd1ecc7e402bed__c" x1="-1.513" x2="3.164" y1="11.044" y2="9.449" gradientUnits="userSpaceOnUse"><stop stop-color="#6AD6F9"/><stop offset="1" stop-color="#6AD6F9" stop-opacity="0"/></linearGradient><linearGradient id="icon-8be08540baf68e79__icon-2f78c1e96932330d__d" x1="2.054" x2="14.502" y1="4.926" y2="4.926" gradientUnits="userSpaceOnUse"><stop offset=".043" stop-color="#25FFD4"/><stop offset=".874" stop-color="#55DDB9"/></linearGradient><linearGradient id="icon-02b1d5126675d1e1__icon-c1e54c1fb30e8266__e" x1="2.054" x2="13.267" y1="3.186" y2="8.393" gradientUnits="userSpaceOnUse"><stop stop-color="#6AD6F9"/><stop offset=".23" stop-color="#60E9D0"/><stop offset=".651" stop-color="#6DE9BB"/><stop offset=".994" stop-color="#ABE88E"/></linearGradient><linearGradient id="icon-230c66aff67841b0__icon-2c59f252947b758c__f" x1="3.092" x2="9.189" y1="4.16" y2="5.509" gradientUnits="userSpaceOnUse"><stop stop-color="#fff" stop-opacity="0"/><stop offset=".459" stop-color="#fff"/><stop offset="1" stop-color="#fff" stop-opacity="0"/></linearGradient><linearGradient id="icon-cca239f17a3e8542__icon-cc2914b2157c6529__g" x1="5.113" x2="5.258" y1="9.383" y2="5.107" gradientUnits="userSpaceOnUse"><stop offset=".205" stop-color="#063D3B" stop-opacity="0"/><stop offset=".586" stop-color="#063D3B" stop-opacity=".237"/><stop offset=".872" stop-color="#063D3B" stop-opacity=".75"/></linearGradient><linearGradient id="icon-74fac2f26e395d81__icon-dae1a64c48ab5ec0__h" x1=".584" x2="5.794" y1="8.958" y2="9.938" gradientUnits="userSpaceOnUse"><stop stop-color="#fff" stop-opacity="0"/><stop offset=".459" stop-color="#fff"/><stop offset="1" stop-color="#fff" stop-opacity="0"/></linearGradient><linearGradient id="icon-1278842171230f72__icon-ba3cf880e1237239__i" x1="4.347" x2="3.331" y1="13.586" y2="8.615" gradientUnits="userSpaceOnUse"><stop offset=".064" stop-color="#063D3B" stop-opacity="0"/><stop offset=".17" stop-color="#063D3B" stop-opacity=".135"/><stop offset=".562" stop-color="#063D3B" stop-opacity=".599"/><stop offset=".85" stop-color="#063D3B" stop-opacity=".9"/><stop offset="1" stop-color="#063D3B"/></linearGradient></defs></svg>