<svg xmlns="http://www.w3.org/2000/svg" width="28" height="28" fill="currentColor"><path fill-rule="evenodd" d="m7.082 10.763 16.638-2.42a.925.925 0 0 0 .764-.677l1.481-4.498a.924.924 0 0 0-1.007-1.163L9.578 4.204a4.147 4.147 0 0 0-3.345 3.004L4.98 11.804c.214-.713.629-.785 2.103-1.041Zm.41 1.542c-1.972.41-2.709 1.067-3.14 2.03-.073.169-.14.35-.2.537l-1.133 4.11a6.233 6.233 0 0 1 2.051-.694l11.101-1.628c.946-.156 1.14-.895 1.321-1.586l1.22-4.438-11.22 1.67Zm-2.3 7.479c-2.134.347-2.834 1.758-3.002 2.19a2.955 2.955 0 0 0 2.436 3.986 4.85 4.85 0 0 0 1.417-.023l2.424-.336a1.537 1.537 0 0 0 1.27-1.12l1.524-5.587-6.07.89Z" clip-rule="evenodd"/></svg>