<svg xmlns="http://www.w3.org/2000/svg" width="16" height="16" fill="currentColor"><path fill-rule="evenodd" d="m3.813 6.181 9.836-1.427h.003a.54.54 0 0 0 .446-.395l.88-2.677a.539.539 0 0 0-.554-.68l-.033.001-8.928 1.283c-.942.148-1.723.605-2.045 1.767l-.727 2.7c.11-.402.344-.442 1.122-.572Zm.301.996c-1.15.239-1.58.623-1.832 1.185a3.25 3.25 0 0 0-.117.312l-.579 2.142c.322-.18.776-.307 1.252-.385h.007l6.478-.95c.562-.093.715-.663.83-1.09l.509-2.187-6.356.94-.192.033Zm-1.22 4.257c-1.244.202-1.686 1.033-1.784 1.284-.072.19-.111.395-.111.61 0 .889.664 1.549 1.527 1.644.241.036.516.032.826-.013l1.415-.196a.897.897 0 0 0 .742-.653l.928-3.195-3.542.519Z" clip-rule="evenodd"/></svg>