<svg xmlns="http://www.w3.org/2000/svg" width="16" height="16" fill="currentColor"><path fill-rule="evenodd" d="m3.673 6.842 9.27-1.372.89-3.376-8.307 1.228a1.514 1.514 0 0 0-1.21 1.091l-.002.007-.64 2.422ZM1.047 12.57a1.85 1.85 0 0 0-.047.442 1.97 1.97 0 0 0 1.75 1.958c.278.04.591.038.942-.014l1.615-.223c.405-.056.739-.349.847-.744l.726-2.667 2.427-.355a.597.597 0 0 0 .486-.435l1.036-3.737 2.54-.376a.559.559 0 0 0 .463-.41l1.143-4.3a.558.558 0 0 0-.608-.704l-8.994 1.33A2.514 2.514 0 0 0 3.35 4.15l-2.304 8.418Zm2.19-.718 2.563-.373-.611 2.246a.023.023 0 0 1-.019.018l-1.623.223c-.271.04-.52.034-.686.01a.97.97 0 0 1-.8-1.305c.042-.105.284-.657 1.177-.819Zm5.658-1.835.856-3.063-5.4.797-.435.08a.903.903 0 0 0-.698.596l-.706 2.524.166-.028 6.217-.906Z" clip-rule="evenodd"/></svg>