<svg xmlns="http://www.w3.org/2000/svg" width="20" height="20" fill="currentColor"><path fill-rule="evenodd" d="M5.138 8.892 15.72 7.329l1.149-4.252-9.715 1.436a1.875 1.875 0 0 0-1.5 1.352v.002l-.83 3.088a8.88 8.88 0 0 1 .315-.063Zm-.45-3.29L2.1 15.072a2.252 2.252 0 0 0 1.902 2.9c.317.045.676.043 1.077-.016l1.846-.255a1.17 1.17 0 0 0 .968-.851l.873-3.206 2.855-.417a.683.683 0 0 0 .555-.498l1.038-4.02 2.88-.425a.64.64 0 0 0 .53-.468l1.355-5.006a.637.637 0 0 0-.614-.81.65.65 0 0 0-.081.005L7 3.525a2.874 2.874 0 0 0-2.312 2.077ZM4.6 10.205c.134-.107.423-.26 1.11-.387l6.43-.95-.88 3.402-7.196 1.048c-.172.028-.334.058-.486.09l.741-2.721c.098-.29.177-.398.281-.482ZM3 15.734c0-.157.029-.305.08-.441.057-.146.369-.843 1.485-1.033l3.12-.454-.757 2.78a.17.17 0 0 1-.14.124l-1.846.255-.009.001a3.212 3.212 0 0 1-.821.011A1.252 1.252 0 0 1 3 15.734Z" clip-rule="evenodd"/></svg>