<svg xmlns="http://www.w3.org/2000/svg" width="24" height="24" fill="currentColor"><path fill-rule="evenodd" d="M21.2 2h-.1L8.25 3.91c-1.4.22-2.52 1.25-2.89 2.6l-3.19 11.7a2.816 2.816 0 0 0 2.33 3.76c.4.06.84.05 1.35-.02l2.31-.32c.58-.08 1.06-.5 1.21-1.06l1.02-3.74 3.48-.51h.07c.34-.06.61-.31.69-.63l1.32-5.17 3.61-.53a.79.79 0 0 0 .66-.59l1.75-6.38c.02-.07.03-.14.03-.21 0-.44-.36-.8-.8-.8V2ZM7.92 20.14l-2.28.31h-.01c-.38.06-.68.05-.91.02h-.04c-.66-.07-1.17-.63-1.17-1.31 0-.16.03-.32.08-.46.06-.14.39-.92 1.66-1.13l3.52-.51-.84 3.08h-.01Zm5.35-5.26-8.82 1.29h-.01l-.2.03.89-3.41c.11-.33.19-.41.27-.48.12-.1.44-.28 1.3-.44l7.64-1.13-1.06 4.13-.01.01Zm5.61-6.32L5.83 10.49h-.04l1-3.59c.21-.79.87-1.39 1.67-1.52l11.76-1.74-1.35 4.91.01.01Z" clip-rule="evenodd"/></svg>