<svg xmlns="http://www.w3.org/2000/svg" width="28" height="28" fill="currentColor"><path fill="url(#icon-9c58b8b69c4707c4__icon-ac1564859cf774f9__a)" fill-rule="evenodd" d="m2.984 18.557-.352 1.286a13.55 13.55 0 0 0-.413 1.554 3.377 3.377 0 0 0 2.783 4.552 5.613 5.613 0 0 0 1.614-.023l2.768-.382a1.754 1.754 0 0 0 1.452-1.277l1.905-6.995-9.757 1.285Z" clip-rule="evenodd"/><path fill="url(#icon-2d4a6fc01d157eb6__icon-7e7cfab7aeec1255__b)" d="M5.683 18.889c-2.917.452-3.516 2.653-3.516 2.653l2.794-10.265 14.597-1.974-1.99 7.23a1.023 1.023 0 0 1-.833.746l-.081.014L5.6 18.903l.082-.014Z"/><path fill="url(#icon-52c04b2c9c06ee59__icon-3eefe9c3e9726ec5__c)" fill-opacity=".8" d="M5.683 18.889c-2.917.452-3.516 2.653-3.516 2.653l2.794-10.265 14.597-1.974-1.99 7.23a1.023 1.023 0 0 1-.833.746l-.081.014L5.6 18.903l.082-.014Z"/><path fill="url(#icon-10749db0e3780e90__icon-10238bf2745ce16c__d)" d="m7.339 12.34 16.16-2.388a.958.958 0 0 0 .794-.702l1.668-6.036a.957.957 0 0 0-1.043-1.207l-15.42 2.28A4.31 4.31 0 0 0 6.03 7.401l-2.223 8.06c.446-1.631.72-2.614 3.53-3.122Z"/><path fill="url(#icon-9becc7e904a09899__icon-fef2c82de9f8ed43__e)" d="m7.339 12.34 16.16-2.388a.958.958 0 0 0 .794-.702l1.668-6.036a.957.957 0 0 0-1.043-1.207l-15.42 2.28A4.31 4.31 0 0 0 6.03 7.401l-2.223 8.06c.446-1.631.72-2.614 3.53-3.122Z"/><path fill="url(#icon-bf45448c86b806f2__icon-5619227372b4b7e0__f)" fill-opacity=".4" d="m7.339 12.34 16.16-2.388a.958.958 0 0 0 .794-.702l1.668-6.036a.957.957 0 0 0-1.043-1.207l-15.42 2.28A4.31 4.31 0 0 0 6.03 7.401l-2.223 8.06c.446-1.631.72-2.614 3.53-3.122Z"/><path fill="url(#icon-739d24a5a117d221__icon-a65a111c4e3bcfca__g)" d="M7.339 12.34c-2.34.424-2.922 1.178-3.309 2.359l-1.863 6.844s.596-2.179 3.477-2.645l11.01-1.604.082-.013c.403-.061.729-.359.832-.746l1.638-5.948L7.339 12.34Z"/><path fill="url(#icon-d453b7c2ae7fe516__icon-e876eeddeea961ac__h)" fill-opacity=".2" d="M7.339 12.34c-2.34.424-2.922 1.178-3.309 2.359l-1.863 6.844s.596-2.179 3.477-2.645l11.01-1.604.082-.013c.403-.061.729-.359.832-.746l1.638-5.948L7.339 12.34Z"/><path fill="url(#icon-e8a5397224ee72fb__icon-7b1e62d515722376__i)" fill-rule="evenodd" d="M5.644 18.898c-2.435.394-3.235 2.007-3.425 2.499a3.38 3.38 0 0 0 2.783 4.553 5.613 5.613 0 0 0 1.614-.023l2.768-.383a1.754 1.754 0 0 0 1.452-1.276l1.736-6.378-6.928 1.008Z" clip-rule="evenodd"/><defs><linearGradient id="icon-9c58b8b69c4707c4__icon-ac1564859cf774f9__a" x1="7.371" x2="7.371" y1="25.997" y2="17.271" gradientUnits="userSpaceOnUse"><stop offset=".056" stop-color="#2AAC94"/><stop offset=".155" stop-color="#239C87"/><stop offset=".372" stop-color="#177E71"/><stop offset=".588" stop-color="#0E6961"/><stop offset=".799" stop-color="#095D57"/><stop offset="1" stop-color="#085954"/></linearGradient><linearGradient id="icon-2d4a6fc01d157eb6__icon-7e7cfab7aeec1255__b" x1="18.396" x2="9.971" y1="19.666" y2="10.503" gradientUnits="userSpaceOnUse"><stop offset=".042" stop-color="#ABE88E"/><stop offset=".549" stop-color="#2AAA92"/><stop offset=".906" stop-color="#117865"/></linearGradient><linearGradient id="icon-52c04b2c9c06ee59__icon-3eefe9c3e9726ec5__c" x1="-2.309" x2="5.709" y1="19.221" y2="16.487" gradientUnits="userSpaceOnUse"><stop stop-color="#6AD6F9"/><stop offset="1" stop-color="#6AD6F9" stop-opacity="0"/></linearGradient><linearGradient id="icon-10749db0e3780e90__icon-10238bf2745ce16c__d" x1="3.808" x2="25.15" y1="8.731" y2="8.731" gradientUnits="userSpaceOnUse"><stop offset=".043" stop-color="#25FFD4"/><stop offset=".874" stop-color="#55DDB9"/></linearGradient><linearGradient id="icon-9becc7e904a09899__icon-fef2c82de9f8ed43__e" x1="3.808" x2="23.033" y1="5.747" y2="14.675" gradientUnits="userSpaceOnUse"><stop stop-color="#6AD6F9"/><stop offset=".23" stop-color="#60E9D0"/><stop offset=".651" stop-color="#6DE9BB"/><stop offset=".994" stop-color="#ABE88E"/></linearGradient><linearGradient id="icon-bf45448c86b806f2__icon-5619227372b4b7e0__f" x1="5.586" x2="16.04" y1="7.418" y2="9.73" gradientUnits="userSpaceOnUse"><stop stop-color="#fff" stop-opacity="0"/><stop offset=".459" stop-color="#fff"/><stop offset="1" stop-color="#fff" stop-opacity="0"/></linearGradient><linearGradient id="icon-739d24a5a117d221__icon-a65a111c4e3bcfca__g" x1="9.052" x2="9.299" y1="16.374" y2="9.043" gradientUnits="userSpaceOnUse"><stop offset=".205" stop-color="#063D3B" stop-opacity="0"/><stop offset=".586" stop-color="#063D3B" stop-opacity=".237"/><stop offset=".872" stop-color="#063D3B" stop-opacity=".75"/></linearGradient><linearGradient id="icon-d453b7c2ae7fe516__icon-e876eeddeea961ac__h" x1="1.286" x2="10.219" y1="15.645" y2="17.325" gradientUnits="userSpaceOnUse"><stop stop-color="#fff" stop-opacity="0"/><stop offset=".459" stop-color="#fff"/><stop offset="1" stop-color="#fff" stop-opacity="0"/></linearGradient><linearGradient id="icon-e8a5397224ee72fb__icon-7b1e62d515722376__i" x1="7.739" x2="5.997" y1="23.58" y2="15.057" gradientUnits="userSpaceOnUse"><stop offset=".064" stop-color="#063D3B" stop-opacity="0"/><stop offset=".17" stop-color="#063D3B" stop-opacity=".135"/><stop offset=".562" stop-color="#063D3B" stop-opacity=".599"/><stop offset=".85" stop-color="#063D3B" stop-opacity=".9"/><stop offset="1" stop-color="#063D3B"/></linearGradient></defs></svg>