<svg xmlns="http://www.w3.org/2000/svg" width="28" height="28" fill="currentColor"><path fill-rule="evenodd" d="m6.745 12.098 15.867-2.345 1.681-6.137L9.727 5.769a2.81 2.81 0 0 0-2.248 2.027l-.002.005-1.196 4.389c.15-.033.305-.064.464-.092Zm-.714-4.696-3.864 14.14a3.377 3.377 0 0 0 2.834 4.408 5.613 5.613 0 0 0 1.615-.024l2.768-.382a1.754 1.754 0 0 0 1.452-1.276l1.307-4.801 4.174-.61c.403-.061.728-.359.832-.746l1.717-6.288 4.307-.636c.384-.053.732-.452.83-.82l1.958-7.153a.957.957 0 0 0-1.043-1.207l-15.42 2.28A4.31 4.31 0 0 0 6.03 7.401Zm-.05 6.658c.2-.16.63-.387 1.648-.577l9.611-1.42-1.457 5.358-10.786 1.57-.011.003a7.375 7.375 0 0 0-.593.12l1.166-4.328c.146-.437.265-.6.422-.726Zm-2.48 8.534c0-.235.042-.457.119-.661.085-.218.553-1.263 2.227-1.548l4.677-.681-1.135 4.17a.254.254 0 0 1-.21.184l-2.78.384c-.483.071-.873.068-1.183.023l-.025-.003-.024-.003A1.877 1.877 0 0 1 3.5 22.594Z" clip-rule="evenodd"/></svg>