<svg xmlns="http://www.w3.org/2000/svg" width="20" height="20" fill="currentColor"><path fill="url(#icon-ebc0013bd3e05348__icon-3cc6503468f7a194__a)" fill-rule="evenodd" d="m2.656 13.042-.234.858c-.088.274-.21.677-.276 1.036a2.252 2.252 0 0 0 1.856 3.036c.316.045.675.043 1.076-.016l1.846-.255a1.17 1.17 0 0 0 .968-.85l1.27-4.666-6.506.857Z" clip-rule="evenodd"/><path fill="url(#icon-fcbb88b2b6ec28f8__icon-9544e3c3b11b5622__b)" d="M4.456 13.263c-1.945.301-2.344 1.77-2.344 1.77l1.863-6.846 9.734-1.317-1.327 4.822a.682.682 0 0 1-.556.497l-.054.01-7.37 1.073.054-.01Z"/><path fill="url(#icon-ec113c4100f4238d__icon-2f7252088c914600__c)" fill-opacity=".8" d="M4.456 13.263c-1.945.301-2.344 1.77-2.344 1.77l1.863-6.846 9.734-1.317-1.327 4.822a.682.682 0 0 1-.556.497l-.054.01-7.37 1.073.054-.01Z"/><path fill="url(#icon-faef7144a2c58d88__icon-1ea2132564edf80f__d)" d="m5.56 8.895 10.777-1.592a.639.639 0 0 0 .53-.468l1.111-4.025a.637.637 0 0 0-.614-.81.65.65 0 0 0-.081.005L7 3.525a2.874 2.874 0 0 0-2.312 2.077l-1.483 5.375c.298-1.087.481-1.743 2.355-2.082Z"/><path fill="url(#icon-9c07b33363cebc68__icon-80d539ca54d77e2d__e)" fill-opacity=".4" d="m5.56 8.895 10.777-1.592a.639.639 0 0 0 .53-.468l1.111-4.025a.637.637 0 0 0-.614-.81.65.65 0 0 0-.081.005L7 3.525a2.874 2.874 0 0 0-2.312 2.077l-1.483 5.375c.298-1.087.481-1.743 2.355-2.082Z"/><path fill="url(#icon-2f03c999d9f4c675__icon-3017392c9d6bd4c6__f)" d="M5.56 8.896c-1.56.282-1.948.785-2.206 1.573l-1.242 4.564s.397-1.453 2.318-1.764l7.343-1.07.054-.008a.683.683 0 0 0 .555-.498l1.092-3.966L5.56 8.896Z"/><path fill="url(#icon-5eda694a7ed5ef2d__icon-da8fe4e73734f9e9__g)" fill-opacity=".2" d="M5.56 8.896c-1.56.282-1.948.785-2.206 1.573l-1.242 4.564s.397-1.453 2.318-1.764l7.343-1.07.054-.008a.683.683 0 0 0 .555-.498l1.092-3.966L5.56 8.896Z"/><path fill="url(#icon-1486704c5c5b52fb__icon-6de74dec01571a6b__h)" fill-rule="evenodd" d="M4.43 13.27c-1.624.262-2.157 1.338-2.284 1.665A2.254 2.254 0 0 0 4 17.972c.317.046.676.043 1.077-.016l1.846-.254c.464-.064.845-.4.968-.852l1.158-4.253-4.62.673Z" clip-rule="evenodd"/><defs><linearGradient id="icon-ebc0013bd3e05348__icon-3cc6503468f7a194__a" x1="5.581" x2="5.581" y1="18.003" y2="12.185" gradientUnits="userSpaceOnUse"><stop offset=".056" stop-color="#2AAC94"/><stop offset=".155" stop-color="#239C87"/><stop offset=".372" stop-color="#177E71"/><stop offset=".588" stop-color="#0E6961"/><stop offset=".799" stop-color="#095D57"/><stop offset="1" stop-color="#085954"/></linearGradient><linearGradient id="icon-fcbb88b2b6ec28f8__icon-9544e3c3b11b5622__b" x1="12.934" x2="7.315" y1="13.781" y2="7.67" gradientUnits="userSpaceOnUse"><stop offset=".042" stop-color="#ABE88E"/><stop offset=".549" stop-color="#2AAA92"/><stop offset=".906" stop-color="#117865"/></linearGradient><linearGradient id="icon-ec113c4100f4238d__icon-2f7252088c914600__c" x1="-.873" x2="4.474" y1="13.484" y2="11.661" gradientUnits="userSpaceOnUse"><stop stop-color="#6AD6F9"/><stop offset="1" stop-color="#6AD6F9" stop-opacity="0"/></linearGradient><linearGradient id="icon-faef7144a2c58d88__icon-1ea2132564edf80f__d" x1="3.205" x2="16.026" y1="4.499" y2="10.453" gradientUnits="userSpaceOnUse"><stop stop-color="#6AD6F9"/><stop offset=".23" stop-color="#60E9D0"/><stop offset=".651" stop-color="#6DE9BB"/><stop offset=".994" stop-color="#ABE88E"/></linearGradient><linearGradient id="icon-9c07b33363cebc68__icon-80d539ca54d77e2d__e" x1="4.391" x2="11.363" y1="5.613" y2="7.155" gradientUnits="userSpaceOnUse"><stop stop-color="#fff" stop-opacity="0"/><stop offset=".459" stop-color="#fff"/><stop offset="1" stop-color="#fff" stop-opacity="0"/></linearGradient><linearGradient id="icon-2f03c999d9f4c675__icon-3017392c9d6bd4c6__f" x1="6.703" x2="6.868" y1="11.586" y2="6.697" gradientUnits="userSpaceOnUse"><stop offset=".205" stop-color="#063D3B" stop-opacity="0"/><stop offset=".586" stop-color="#063D3B" stop-opacity=".237"/><stop offset=".872" stop-color="#063D3B" stop-opacity=".75"/></linearGradient><linearGradient id="icon-5eda694a7ed5ef2d__icon-da8fe4e73734f9e9__g" x1="1.524" x2="7.481" y1="11.1" y2="12.22" gradientUnits="userSpaceOnUse"><stop stop-color="#fff" stop-opacity="0"/><stop offset=".459" stop-color="#fff"/><stop offset="1" stop-color="#fff" stop-opacity="0"/></linearGradient><linearGradient id="icon-1486704c5c5b52fb__icon-6de74dec01571a6b__h" x1="5.827" x2="4.665" y1="16.391" y2="10.708" gradientUnits="userSpaceOnUse"><stop offset=".064" stop-color="#063D3B" stop-opacity="0"/><stop offset=".17" stop-color="#063D3B" stop-opacity=".135"/><stop offset=".562" stop-color="#063D3B" stop-opacity=".599"/><stop offset=".85" stop-color="#063D3B" stop-opacity=".9"/><stop offset="1" stop-color="#063D3B"/></linearGradient></defs></svg>