<svg xmlns="http://www.w3.org/2000/svg" width="20" height="20" fill="currentColor"><path d="M16.25 5a.75.75 0 0 1 0 1.5H3.75a.75.75 0 0 1 0-1.5h12.5ZM10.477 10.75H5.75a.75.75 0 0 1 0-1.5h7.106a5.502 5.502 0 0 0-2.38 1.5ZM9.022 15H7.75a.75.75 0 0 1 0-1.5h1.34a5.531 5.531 0 0 0-.068 1.5ZM12.065 11.442a2 2 0 0 1-1.43 2.478l-.462.118a4.735 4.735 0 0 0 .01 1.016l.35.083a2 2 0 0 1 1.456 2.519l-.127.423c.258.203.537.377.835.517l.325-.344a2 2 0 0 1 2.91.002l.337.358c.292-.135.568-.302.822-.498l-.156-.556a2 2 0 0 1 1.43-2.478l.46-.118a4.7 4.7 0 0 0-.01-1.017l-.348-.082a2 2 0 0 1-1.456-2.52l.126-.421a4.318 4.318 0 0 0-.835-.519l-.325.344a2 2 0 0 1-2.91-.001l-.337-.358a4.31 4.31 0 0 0-.821.497l.156.557Zm2.434 4.058a1 1 0 1 1 0-2 1 1 0 0 1 0 2Z"/></svg>