<svg xmlns="http://www.w3.org/2000/svg" width="40" height="40" fill="currentColor"><path fill="#FFB900" d="m19 10-2.12-2.12A3 3 0 0 0 14.76 7H4a2 2 0 0 0-2 2v22a2 2 0 0 0 2 2h32a2 2 0 0 0 2-2V12a2 2 0 0 0-2-2H19Z"/><path fill="#FFD75E" d="m19 10-2.12 2.12a3 3 0 0 1-2.12.88H2v18a2 2 0 0 0 2 2h32a2 2 0 0 0 2-2V12a2 2 0 0 0-2-2H19Z"/><path fill="url(#icon-23deb5f817f1e455__icon-46329785546656bb__a)" d="m19 10-2.12 2.12a3 3 0 0 1-2.12.88H2v18a2 2 0 0 0 2 2h32a2 2 0 0 0 2-2V12a2 2 0 0 0-2-2H19Z" style="mix-blend-mode:multiply"/><path fill="#fff" d="M16.88 12.12a3 3 0 0 1-2.12.88H2v1h13.05a3.5 3.5 0 0 0 2.48-1l3-3H19l-2.12 2.12Z" opacity=".4"/><path fill="#BF5712" d="M4 33h32a2 2 0 0 0 1.92-1.43 2 2 0 0 1-1.23.43H3.32a2 2 0 0 1-1.24-.43A2 2 0 0 0 4 33Z"/><defs><linearGradient id="icon-23deb5f817f1e455__icon-46329785546656bb__a" x1="2" x2="2" y1="10" y2="33" gradientUnits="userSpaceOnUse"><stop stop-color="#fff" stop-opacity=".01"/><stop offset="1" stop-color="#FFD75E" stop-opacity=".3"/></linearGradient></defs></svg>