<svg xmlns="http://www.w3.org/2000/svg" width="24" height="24" fill="currentColor"><path d="M2 6.25A3.25 3.25 0 0 1 5.25 3h2.879a2.25 2.25 0 0 1 1.59.659L11.562 5.5h7.189a3.25 3.25 0 0 1 3.249 3.166A4.755 4.755 0 0 0 20.75 8.5h-.268A1.75 1.75 0 0 0 18.75 7h-7.19L9.72 8.841a2.25 2.25 0 0 1-1.591.659H3.5v8.25c0 .966.784 1.75 1.75 1.75H9.5v.25c0 .433.058.852.166 1.25H5.25A3.25 3.25 0 0 1 2 17.75V6.25Zm1.5 0V8h4.629a.75.75 0 0 0 .53-.22l1.53-1.53-1.53-1.53a.75.75 0 0 0-.53-.22H5.25A1.75 1.75 0 0 0 3.5 6.25Z"/><path d="M11 13.25A3.25 3.25 0 0 1 14.25 10h6.5A3.25 3.25 0 0 1 24 13.25v6.5A3.25 3.25 0 0 1 20.75 23h-6.5A3.25 3.25 0 0 1 11 19.75v-6.5Zm3.25-1.75a1.75 1.75 0 0 0-1.75 1.75V14H15v-2.5h-.75ZM15 18v-2.5h-2.5V18H15Zm1.5-2.5V18h2v-2.5h-2Zm3.5 0V18h2.5v-2.5H20Zm-1.5 4h-2v2h2v-2Zm4 0H20v2h.75a1.75 1.75 0 0 0 1.75-1.75v-.25Zm-1.75-8H20V14h2.5v-.75a1.75 1.75 0 0 0-1.75-1.75ZM16.5 14h2v-2.5h-2V14ZM15 21.5v-2h-2.5v.25c0 .966.784 1.75 1.75 1.75H15Z"/></svg>