<svg xmlns="http://www.w3.org/2000/svg" width="16" height="16" fill="currentColor"><path d="M1 4.5V6h3.535c-.179.31-.318.645-.409 1H1v4.5A1.5 1.5 0 0 0 2.5 13H4c0 .345.044.68.126 1H2.5A2.5 2.5 0 0 1 0 11.5v-7A2.5 2.5 0 0 1 2.5 2h2.086a1.5 1.5 0 0 1 1.06.44L7.207 4H8c-.642 0-1.249.151-1.787.42L4.94 3.146A.5.5 0 0 0 4.586 3H2.5A1.5 1.5 0 0 0 1 4.5Z"/><path d="M5 8a3 3 0 0 1 3-3h5a3 3 0 0 1 3 3v5a3 3 0 0 1-3 3H8a3 3 0 0 1-3-3V8Zm3-2a2 2 0 0 0-2 2h2V6Zm4 0H9v2h3V6Zm3 2a2 2 0 0 0-2-2v2h2Zm-3 1H9v3h3V9Zm3 0h-2v3h2V9Zm-3 4H9v2h3v-2Zm1 2a2 2 0 0 0 2-2h-2v2ZM8 9H6v3h2V9Zm0 4H6a2 2 0 0 0 2 2v-2Z"/></svg>