<svg xmlns="http://www.w3.org/2000/svg" width="20" height="20" fill="currentColor"><path d="M4.5 3A2.5 2.5 0 0 0 2 5.5v9A2.5 2.5 0 0 0 4.5 17h2.626A4.007 4.007 0 0 1 7 16H4.5A1.5 1.5 0 0 1 3 14.5V8h4.086a1.5 1.5 0 0 0 1.06-.44L9.707 6H15.5a1.5 1.5 0 0 1 1.45 1.113c.373.091.726.235 1.05.422V7.5A2.5 2.5 0 0 0 15.5 5H9.707L8.22 3.513A1.75 1.75 0 0 0 6.982 3H4.5ZM3 5.5A1.5 1.5 0 0 1 4.5 4h2.482a.75.75 0 0 1 .53.22l1.28 1.28L7.44 6.854A.5.5 0 0 1 7.086 7H3V5.5Z"/><path d="M8 11a3 3 0 0 1 3-3h5a3 3 0 0 1 3 3v5a3 3 0 0 1-3 3h-5a3 3 0 0 1-3-3v-5Zm3-2a2 2 0 0 0-2 2h2V9Zm1 0v2h3V9h-3Zm4 0v2h2a2 2 0 0 0-2-2Zm-1 3h-3v3h3v-3Zm3 0h-2v3h2v-3Zm-3 4h-3v2h3v-2Zm1 2a2 2 0 0 0 2-2h-2v2Zm-5-6H9v3h2v-3Zm0 4H9a2 2 0 0 0 2 2v-2Z"/></svg>