<svg xmlns="http://www.w3.org/2000/svg" width="16" height="16" fill="currentColor"><path d="M0 4.5A2.5 2.5 0 0 1 2.5 2h2.086a1.5 1.5 0 0 1 1.06.44L7 3.792l-.496.496A4.015 4.015 0 0 0 4.535 6H0V4.5ZM0 7h4.126C4.044 7.32 4 7.655 4 8v5c0 .345.044.68.126 1H2.5A2.5 2.5 0 0 1 0 11.5V7ZM5 8a3 3 0 0 1 3-3h5a3 3 0 0 1 3 3v5a3 3 0 0 1-3 3H8a3 3 0 0 1-3-3V8Zm3-2a2 2 0 0 0-2 2h2V6Zm4 0H9v2h3V6Zm3 2a2 2 0 0 0-2-2v2h2Zm-3 1H9v3h3V9Zm3 0h-2v3h2V9Zm-3 4H9v2h3v-2Zm1 2a2 2 0 0 0 2-2h-2v2Zm-5-3V9H6v3h2Zm-2 1a2 2 0 0 0 2 2v-2H6Z"/></svg>