<svg xmlns="http://www.w3.org/2000/svg" width="20" height="20" fill="currentColor"><path d="M2 5.5A2.5 2.5 0 0 1 4.5 3h2.482c.464 0 .91.184 1.238.513l1.28 1.28-2.06 2.06A.5.5 0 0 1 7.085 7H2V5.5Z"/><path d="M2 8v6.5A2.5 2.5 0 0 0 4.5 17h3.626A4.007 4.007 0 0 1 8 16v-5a4 4 0 0 1 4-4h5c.335 0 .66.041.971.119A2.5 2.5 0 0 0 15.5 5h-4.793l-2.56 2.56A1.5 1.5 0 0 1 7.085 8H2Z"/><path d="M9 11a3 3 0 0 1 3-3h5a3 3 0 0 1 3 3v5a3 3 0 0 1-3 3h-5a3 3 0 0 1-3-3v-5Zm3-2a2 2 0 0 0-2 2h2V9Zm1 0v2h3V9h-3Zm4 0v2h2a2 2 0 0 0-2-2Zm-1 3h-3v3h3v-3Zm3 0h-2v3h2v-3Zm-3 4h-3v2h3v-2Zm1 2a2 2 0 0 0 2-2h-2v2Zm-5-6h-2v3h2v-3Zm0 4h-2a2 2 0 0 0 2 2v-2Z"/></svg>