<svg xmlns="http://www.w3.org/2000/svg" width="24" height="24" fill="currentColor"><path fill="url(#icon-4e920c080f1837b3__icon-682f9ecb9f7b3f03__a)" d="M2 5a3 3 0 0 1 3-3h14a3 3 0 0 1 3 3v14a3 3 0 0 1-3 3H5a3 3 0 0 1-3-3V5Z"/><path fill="url(#icon-da01319a6f13696e__icon-fa5ce291163777d9__b)" fill-opacity=".2" d="M2 5a3 3 0 0 1 3-3h14a3 3 0 0 1 3 3v14a3 3 0 0 1-3 3H5a3 3 0 0 1-3-3V5Z"/><path fill="url(#icon-0b2f0079a003bbad__icon-b741063bca50ddc8__c)" fill-rule="evenodd" d="M19 3H5a2 2 0 0 0-2 2v14a2 2 0 0 0 2 2h14a2 2 0 0 0 2-2V5a2 2 0 0 0-2-2ZM5 2a3 3 0 0 0-3 3v14a3 3 0 0 0 3 3h14a3 3 0 0 0 3-3V5a3 3 0 0 0-3-3H5Z" clip-rule="evenodd"/><path fill="url(#icon-6cb917e745f3d931__icon-53e7e59608ca1a24__d)" d="M12.259 6.02a1.567 1.567 0 0 0-.533.005 1.19 1.19 0 0 0-.832.506c-.193.274-.315.655-.352 1.11-.002.154-.027.66-.064 1.337H12.5a.5.5 0 0 1 0 1h-2.077a381.122 381.122 0 0 1-.285 4.67v.004l-.005.059c-.038.457-.084 1.014-.248 1.528-.177.552-.5 1.09-1.114 1.451-.867.536-1.8.285-2.494-.061a.5.5 0 1 1 .446-.895c.592.295 1.105.365 1.525.103l.013-.007c.348-.203.546-.506.671-.896.13-.404.167-.86.208-1.352l.001-.01v-.002c.048-.625.18-2.828.28-4.592H7.5a.5.5 0 0 1 0-1h1.977a56.588 56.588 0 0 0 .067-1.397c.045-.582.204-1.159.532-1.626a2.19 2.19 0 0 1 1.5-.92h.006c.317-.045.599-.05.873.005.275.055.51.163.742.302a.5.5 0 1 1-.514.858 1.31 1.31 0 0 0-.424-.18Z"/><path fill="url(#icon-930e75467933403d__icon-f39f59ccb4acf700__e)" d="M17.854 11.146a.5.5 0 0 1 0 .708l-2.232 2.231c.367.64.694 1.207.782 1.35.058.095.107.178.147.247l.029.05c.047.08.077.128.103.164a.31.31 0 0 0 .11.099c.053.007.082.005.095.003.01-.001.012-.003.012-.003a.334.334 0 0 0 .06-.062c.027-.032.047-.059.073-.094l.071-.094a.5.5 0 0 1 .792.61l-.035.048c-.08.109-.22.298-.4.42-.268.18-.58.214-.932.14a.505.505 0 0 1-.117-.04 1.354 1.354 0 0 1-.535-.436 2.956 2.956 0 0 1-.16-.249l-.033-.057a73.89 73.89 0 0 1-.795-1.364l-2.035 2.037a.5.5 0 0 1-.708-.707l2.228-2.228a100.376 100.376 0 0 0-.797-1.377 2.404 2.404 0 0 0-.223-.364.746.746 0 0 0-.179-.177l-.005.002a.182.182 0 0 0-.03.015c-.063.038-.145.119-.244.248a.5.5 0 0 1-.792-.61c.118-.154.29-.355.517-.493a1.028 1.028 0 0 1 .967-.075c.243.118.426.308.558.48.13.168.234.35.312.5.095.155.352.602.649 1.118l2.04-2.04a.5.5 0 0 1 .707 0Z"/><defs><linearGradient id="icon-4e920c080f1837b3__icon-682f9ecb9f7b3f03__a" x1="7.556" x2="10.085" y1="2" y2="22.239" gradientUnits="userSpaceOnUse"><stop stop-color="#fff"/><stop offset="1" stop-color="#EBEBEB"/></linearGradient><linearGradient id="icon-0b2f0079a003bbad__icon-b741063bca50ddc8__c" x1="8.458" x2="11.151" y1="2" y2="22.197" gradientUnits="userSpaceOnUse"><stop stop-color="#BBB"/><stop offset="1" stop-color="#888"/></linearGradient><linearGradient id="icon-6cb917e745f3d931__icon-53e7e59608ca1a24__d" x1="6" x2="18.959" y1="5" y2="16.962" gradientUnits="userSpaceOnUse"><stop stop-color="#4BA446"/><stop offset="1" stop-color="#3F7D35"/></linearGradient><linearGradient id="icon-930e75467933403d__icon-f39f59ccb4acf700__e" x1="6" x2="18.959" y1="5" y2="16.962" gradientUnits="userSpaceOnUse"><stop stop-color="#4BA446"/><stop offset="1" stop-color="#3F7D35"/></linearGradient><radialGradient id="icon-da01319a6f13696e__icon-fa5ce291163777d9__b" cx="0" cy="0" r="1" gradientTransform="rotate(56.31 -2.54 11.442) scale(19.0293 16.4677)" gradientUnits="userSpaceOnUse"><stop offset=".177" stop-color="#fff"/><stop offset="1" stop-color="#B8B8B8"/></radialGradient></defs></svg>