<svg xmlns="http://www.w3.org/2000/svg" width="40" height="40" fill="currentColor"><path fill="url(#icon-b06352ae846427cb__icon-0df6a599ba3cace0__a)" d="M8 9a4 4 0 0 1 4-4h19a4 4 0 0 1 4 4v22a7 7 0 0 1-7 7H12a4 4 0 0 1-4-4V9Z"/><path fill="url(#icon-c64a8446c1e7a708__icon-2338d9eddeef0e75__b)" fill-opacity=".2" d="M8 9a4 4 0 0 1 4-4h19a4 4 0 0 1 4 4v22a7 7 0 0 1-7 7H12a4 4 0 0 1-4-4V9Z"/><path fill="url(#icon-d197640cf529976e__icon-a696b101b983d42f__c)" fill-rule="evenodd" d="M31 6H12a3 3 0 0 0-3 3v25a3 3 0 0 0 3 3h16a6 6 0 0 0 6-6V9a3 3 0 0 0-3-3ZM12 5a4 4 0 0 0-4 4v25a4 4 0 0 0 4 4h16a7 7 0 0 0 7-7V9a4 4 0 0 0-4-4H12Z" clip-rule="evenodd"/><path fill="url(#icon-0262e886a55f722c__icon-db8ab6c4610dbc72__d)" d="M5 6a4 4 0 0 1 4-4h19a4 4 0 0 1 4 4v25a4 4 0 0 1-4 4H9a4 4 0 0 1-4-4V6Z"/><path fill="url(#icon-15abf1526dfc9d8c__icon-e3382ff7bea33fe0__e)" fill-opacity=".2" d="M5 6a4 4 0 0 1 4-4h19a4 4 0 0 1 4 4v25a4 4 0 0 1-4 4H9a4 4 0 0 1-4-4V6Z"/><path fill="url(#icon-867f56d1de281208__icon-4971143a794496eb__f)" fill-rule="evenodd" d="M28 3H9a3 3 0 0 0-3 3v25a3 3 0 0 0 3 3h19a3 3 0 0 0 3-3V6a3 3 0 0 0-3-3ZM9 2a4 4 0 0 0-4 4v25a4 4 0 0 0 4 4h19a4 4 0 0 0 4-4V6a4 4 0 0 0-4-4H9Z" clip-rule="evenodd"/><path fill="url(#icon-0f805e81da518266__icon-cb2c9855eda1a76c__g)" d="M18.677 11.09c-.177-.035-.391-.04-.703.005a1.6 1.6 0 0 0-1.115.68c-.256.364-.412.863-.46 1.447-.002.19-.035.87-.084 1.778H18.5a.5.5 0 0 1 0 1h-2.24c-.126 2.25-.3 5.145-.361 5.938v.004l-.006.07c-.048.571-.104 1.251-.304 1.878-.213.667-.6 1.309-1.33 1.738-1.023.635-2.132.344-2.982-.08a.5.5 0 1 1 .447-.895c.747.374 1.436.483 2.011.123l.013-.008c.465-.27.727-.677.888-1.183.165-.515.213-1.096.264-1.702l.002-.021v-.002c.06-.793.231-3.64.356-5.86H13.5a.5.5 0 0 1 0-1h1.813a76.16 76.16 0 0 0 .089-1.838c.054-.71.247-1.405.639-1.962.4-.57.994-.973 1.783-1.094l.005-.001c.386-.055.722-.06 1.044.005.324.065.604.193.884.361a.5.5 0 0 1-.514.858 1.744 1.744 0 0 0-.566-.239Zm7.177 6.056a.5.5 0 0 1 0 .708l-3.22 3.22a162.495 162.495 0 0 0 1.394 2.466l.041.072c.066.115.111.19.154.25.06.084.117.144.244.214.216.037.28-.008.306-.025a.639.639 0 0 0 .125-.127c.038-.048.07-.092.11-.145.025-.036.055-.077.092-.126a.5.5 0 0 1 .8.6 4.932 4.932 0 0 0-.057.078c-.113.157-.28.39-.5.541-.316.22-.692.268-1.148.17a.5.5 0 0 1-.12-.042 1.686 1.686 0 0 1-.666-.556 3.963 3.963 0 0 1-.208-.336l-.045-.079c-.055-.096-.113-.2-.185-.319a135.34 135.34 0 0 1-1.072-1.902l-3.045 3.046a.5.5 0 0 1-.708-.708l3.246-3.245a149.943 149.943 0 0 0-1.14-2.024 3.639 3.639 0 0 0-.327-.549 1.143 1.143 0 0 0-.33-.317c-.061-.02-.117-.014-.205.041-.12.074-.249.213-.39.401a.5.5 0 1 1-.8-.6c.158-.211.378-.473.66-.649.302-.189.695-.287 1.125-.115.013.005.026.01.038.017.298.15.53.392.702.622.17.228.308.476.413.685.135.227.537.944.989 1.753l3.02-3.02a.5.5 0 0 1 .707 0Z"/><defs><linearGradient id="icon-b06352ae846427cb__icon-0df6a599ba3cace0__a" x1="15.5" x2="20.564" y1="5" y2="38.143" gradientUnits="userSpaceOnUse"><stop stop-color="#fff"/><stop offset="1" stop-color="#EBEBEB"/></linearGradient><linearGradient id="icon-d197640cf529976e__icon-a696b101b983d42f__c" x1="16.719" x2="22.103" y1="5" y2="38.039" gradientUnits="userSpaceOnUse"><stop stop-color="#BBB"/><stop offset="1" stop-color="#888"/></linearGradient><linearGradient id="icon-0262e886a55f722c__icon-db8ab6c4610dbc72__d" x1="12.5" x2="17.564" y1="2" y2="35.143" gradientUnits="userSpaceOnUse"><stop stop-color="#fff"/><stop offset="1" stop-color="#EBEBEB"/></linearGradient><linearGradient id="icon-867f56d1de281208__icon-4971143a794496eb__f" x1="13.719" x2="19.103" y1="2" y2="35.039" gradientUnits="userSpaceOnUse"><stop stop-color="#BBB"/><stop offset="1" stop-color="#888"/></linearGradient><linearGradient id="icon-0f805e81da518266__icon-cb2c9855eda1a76c__g" x1="11" x2="26.905" y1="10.063" y2="25.035" gradientUnits="userSpaceOnUse"><stop stop-color="#4BA446"/><stop offset="1" stop-color="#3F7D35"/></linearGradient><radialGradient id="icon-c64a8446c1e7a708__icon-2338d9eddeef0e75__b" cx="0" cy="0" r="1" gradientTransform="rotate(61.389 -3.137 20.8) scale(29.7587 23.4563)" gradientUnits="userSpaceOnUse"><stop offset=".177" stop-color="#fff"/><stop offset="1" stop-color="#B8B8B8"/></radialGradient><radialGradient id="icon-15abf1526dfc9d8c__icon-e3382ff7bea33fe0__e" cx="0" cy="0" r="1" gradientTransform="rotate(61.389 -2.11 16.773) scale(29.7587 23.4563)" gradientUnits="userSpaceOnUse"><stop offset=".177" stop-color="#fff"/><stop offset="1" stop-color="#B8B8B8"/></radialGradient></defs></svg>