<svg xmlns="http://www.w3.org/2000/svg" width="20" height="20" fill="currentColor"><path fill="url(#icon-73785baca0c3741a__icon-2e4d1528d0f88f04__a)" d="M2 4.5A2.5 2.5 0 0 1 4.5 2h11A2.5 2.5 0 0 1 18 4.5v11a2.5 2.5 0 0 1-2.5 2.5h-11A2.5 2.5 0 0 1 2 15.5v-11Z"/><path fill="url(#icon-a11fdb2b33310a01__icon-b3ca701fd012a858__b)" fill-opacity=".2" d="M2 4.5A2.5 2.5 0 0 1 4.5 2h11A2.5 2.5 0 0 1 18 4.5v11a2.5 2.5 0 0 1-2.5 2.5h-11A2.5 2.5 0 0 1 2 15.5v-11Z"/><path fill="url(#icon-7178c0598f3f79c0__icon-bc9f3cfd61245e92__c)" fill-rule="evenodd" d="M15.5 3h-11A1.5 1.5 0 0 0 3 4.5v11A1.5 1.5 0 0 0 4.5 17h11a1.5 1.5 0 0 0 1.5-1.5v-11A1.5 1.5 0 0 0 15.5 3Zm-11-1A2.5 2.5 0 0 0 2 4.5v11A2.5 2.5 0 0 0 4.5 18h11a2.5 2.5 0 0 0 2.5-2.5v-11A2.5 2.5 0 0 0 15.5 2h-11Z" clip-rule="evenodd"/><path fill="url(#icon-a55c5d424f3db60f__icon-8f25ab97aa9075d5__d)" d="M9.42 6.01c.17-.02.28-.02.36 0 .08.02.16.05.28.12.24.14.54.07.69-.17.14-.24.07-.54-.17-.69-.18-.11-.37-.2-.6-.24-.22-.04-.45-.04-.7 0-.53.08-.94.36-1.21.74-.26.37-.39.83-.42 1.28v.04c0 .04-.005.152-.013.318a86.13 86.13 0 0 0-.027.612H6.6c-.28 0-.5.22-.5.5s.22.5.5.5h.95a325.732 325.732 0 0 1-.199 3.26l-.001.02c-.03.38-.06.71-.15 1-.09.27-.22.47-.45.6h-.01c-.26.17-.59.14-1.02-.08a.505.505 0 0 0-.67.22c-.12.25-.02.55.22.67.53.27 1.28.48 1.99.04.49-.29.75-.72.89-1.16.12-.372.155-.77.183-1.097l.007-.073v-.05c.03-.45.13-2.03.2-3.35h1.05c.28 0 .5-.22.5-.5s-.22-.5-.5-.5H8.6l.022-.46c.01-.216.018-.372.018-.44.03-.33.11-.59.24-.77.12-.17.29-.29.54-.33v-.01Z"/><path fill="url(#icon-3ff39d34fafbf28e__icon-f1238111b8d93282__e)" d="M14.84 10.85c.2-.2.2-.51 0-.71-.2-.2-.51-.2-.71 0l-1.54 1.54c-.133-.228-.25-.432-.335-.582l-.115-.198c-.06-.12-.15-.27-.26-.41a1.406 1.406 0 0 0-.52-.43.941.941 0 0 0-.83.08c-.2.12-.34.29-.44.42-.17.22-.13.53.09.7.22.17.53.13.7-.09l.024-.03c.029-.036.053-.066.076-.09l.04-.04c.01.009.018.02.028.032.012.015.026.031.043.048.06.08.12.18.17.28 0 .01.01.02.02.03.07.11.31.52.58 1l-1.73 1.73c-.2.2-.2.51 0 .71.2.2.51.2.71 0l1.54-1.54.168.291a61.897 61.897 0 0 0 .402.689l.03.05.051.085a1.197 1.197 0 0 0 .548.505c.04.02.08.03.12.04.3.06.58.04.82-.13.16-.11.29-.28.35-.36 0-.005.006-.01.01-.015.005-.005.01-.01.01-.015.17-.22.13-.53-.09-.7a.496.496 0 0 0-.7.09c-.02.02-.04.05-.05.07v.02s-.05.04-.06.06l-.02.02s-.01 0-.01-.01l-.03-.03a.355.355 0 0 1-.041-.06 2.19 2.19 0 0 0-.038-.06l-.02-.04-.03-.05-.09-.15c-.046-.071-.163-.273-.316-.537l-.274-.473 1.73-1.73-.01-.01Z"/><defs><linearGradient id="icon-73785baca0c3741a__icon-2e4d1528d0f88f04__a" x1="6.444" x2="8.468" y1="2" y2="18.192" gradientUnits="userSpaceOnUse"><stop stop-color="#fff"/><stop offset="1" stop-color="#EBEBEB"/></linearGradient><linearGradient id="icon-7178c0598f3f79c0__icon-bc9f3cfd61245e92__c" x1="7.167" x2="9.321" y1="2" y2="18.157" gradientUnits="userSpaceOnUse"><stop stop-color="#BBB"/><stop offset="1" stop-color="#888"/></linearGradient><linearGradient id="icon-a55c5d424f3db60f__icon-8f25ab97aa9075d5__d" x1="4.999" x2="15.003" y1="5" y2="14.997" gradientUnits="userSpaceOnUse"><stop stop-color="#4BA446"/><stop offset="1" stop-color="#3F7D35"/></linearGradient><linearGradient id="icon-3ff39d34fafbf28e__icon-f1238111b8d93282__e" x1="4.999" x2="15.003" y1="5" y2="14.997" gradientUnits="userSpaceOnUse"><stop stop-color="#4BA446"/><stop offset="1" stop-color="#3F7D35"/></linearGradient><radialGradient id="icon-a11fdb2b33310a01__icon-b3ca701fd012a858__b" cx="0" cy="0" r="1" gradientTransform="rotate(56.31 -2.206 9.727) scale(15.2234 13.1741)" gradientUnits="userSpaceOnUse"><stop offset=".177" stop-color="#fff"/><stop offset="1" stop-color="#B8B8B8"/></radialGradient></defs></svg>