<svg xmlns="http://www.w3.org/2000/svg" width="48" height="48" fill="currentColor"><path fill="url(#icon-a93b9af75b9a133c__icon-d0a9cef3cd64f019__a)" d="M10 11a5 5 0 0 1 5-5h21a5 5 0 0 1 5 5v26a8 8 0 0 1-8 8H15a5 5 0 0 1-5-5V11Z"/><path fill="url(#icon-ee10b887b12b8c47__icon-7e3ee499fc4eb102__b)" fill-opacity=".2" d="M10 11a5 5 0 0 1 5-5h21a5 5 0 0 1 5 5v26a8 8 0 0 1-8 8H15a5 5 0 0 1-5-5V11Z"/><path fill="url(#icon-e42ca6deee8797a7__icon-a1decf73c2787210__c)" fill-rule="evenodd" d="M36 7H15a4 4 0 0 0-4 4v29a4 4 0 0 0 4 4h18a7 7 0 0 0 7-7V11a4 4 0 0 0-4-4ZM15 6a5 5 0 0 0-5 5v29a5 5 0 0 0 5 5h18a8 8 0 0 0 8-8V11a5 5 0 0 0-5-5H15Z" clip-rule="evenodd"/><path fill="url(#icon-d243ebe9d62a53c0__icon-e3edf3ff2d3859b8__d)" d="M7 8.078a5 5 0 0 1 5-5h21a5 5 0 0 1 5 5v29a5 5 0 0 1-5 5H12a5 5 0 0 1-5-5v-29Z"/><path fill="url(#icon-c495caa118aa1a3f__icon-89d48e9bd98bb0ea__e)" fill-opacity=".2" d="M7 8.078a5 5 0 0 1 5-5h21a5 5 0 0 1 5 5v29a5 5 0 0 1-5 5H12a5 5 0 0 1-5-5v-29Z"/><path fill="url(#icon-da5c7482839c76b8__icon-549322782816d941__f)" fill-rule="evenodd" d="M33 4H12a4 4 0 0 0-4 4v29a4 4 0 0 0 4 4h21a4 4 0 0 0 4-4V8a4 4 0 0 0-4-4ZM12 3a5 5 0 0 0-5 5v29a5 5 0 0 0 5 5h21a5 5 0 0 0 5-5V8a5 5 0 0 0-5-5H12Z" clip-rule="evenodd"/><path fill="url(#icon-1c5412b5dd0a7291__icon-babc6a08ca50e716__g)" d="M22.237 14.036c-.231-.046-.505-.05-.893.004-.65.1-1.107.414-1.425.864-.325.459-.518 1.08-.576 1.797-.003.23-.048 1.122-.112 2.299H22.5a.5.5 0 0 1 0 1h-3.325a581.301 581.301 0 0 1-.44 7.204v.003l-.008.08c-.058.692-.125 1.502-.364 2.246-.254.789-.71 1.538-1.57 2.038-1.193.736-2.493.406-3.515-.101a.5.5 0 0 1 .444-.896c.92.456 1.802.608 2.55.144l.013-.008c.593-.344.925-.858 1.126-1.483.203-.633.263-1.343.324-2.068l.002-.033v-.001c.075-.963.285-4.438.437-7.125H15.5a.5.5 0 0 1 0-1h2.73a98.768 98.768 0 0 0 .114-2.36c.066-.843.297-1.662.759-2.314.47-.665 1.166-1.133 2.093-1.275h.005c.461-.066.855-.07 1.23.004.378.075.705.223 1.04.422a.5.5 0 1 1-.512.86c-.273-.163-.492-.256-.722-.301Z"/><path fill="url(#icon-9878923cff24298c__icon-834c83a3bacc1e25__h)" d="M30.854 22.146a.5.5 0 0 1 0 .708l-3.733 3.732c.631 1.101 1.216 2.12 1.37 2.369.09.146.166.276.23.386l.048.082c.076.13.13.217.182.288a.829.829 0 0 0 .32.27c.283.048.385-.005.438-.041.088-.06.15-.142.277-.31l.118-.154a.5.5 0 0 1 .792.61 5.414 5.414 0 0 0-.069.092c-.132.178-.317.428-.559.59-.342.232-.75.286-1.261.18a.505.505 0 0 1-.117-.04 1.867 1.867 0 0 1-.745-.606 4.389 4.389 0 0 1-.238-.373l-.052-.089a153.223 153.223 0 0 1-1.467-2.521l-3.534 3.535a.5.5 0 0 1-.708-.708l3.727-3.726a179.418 179.418 0 0 0-1.383-2.39 4.153 4.153 0 0 0-.386-.629c-.143-.186-.283-.314-.412-.382-.107-.036-.2-.022-.323.053-.151.091-.308.256-.473.47a.5.5 0 0 1-.792-.61c.183-.238.432-.524.745-.715.334-.203.758-.304 1.224-.123l.037.016c.33.16.589.425.786.68.196.255.354.531.475.765.163.268.673 1.155 1.234 2.133l3.541-3.542a.5.5 0 0 1 .708 0Z"/><defs><linearGradient id="icon-a93b9af75b9a133c__icon-d0a9cef3cd64f019__a" x1="18.611" x2="24.762" y1="6" y2="45.116" gradientUnits="userSpaceOnUse"><stop stop-color="#fff"/><stop offset="1" stop-color="#EBEBEB"/></linearGradient><linearGradient id="icon-e42ca6deee8797a7__icon-a1decf73c2787210__c" x1="20.01" x2="26.55" y1="6" y2="44.986" gradientUnits="userSpaceOnUse"><stop stop-color="#BBB"/><stop offset="1" stop-color="#888"/></linearGradient><linearGradient id="icon-d243ebe9d62a53c0__icon-e3edf3ff2d3859b8__d" x1="15.611" x2="21.762" y1="3.078" y2="42.194" gradientUnits="userSpaceOnUse"><stop stop-color="#fff"/><stop offset="1" stop-color="#EBEBEB"/></linearGradient><linearGradient id="icon-da5c7482839c76b8__icon-549322782816d941__f" x1="17.01" x2="23.55" y1="3" y2="41.986" gradientUnits="userSpaceOnUse"><stop stop-color="#BBB"/><stop offset="1" stop-color="#888"/></linearGradient><linearGradient id="icon-1c5412b5dd0a7291__icon-babc6a08ca50e716__g" x1="13" x2="31.973" y1="13" y2="30.974" gradientUnits="userSpaceOnUse"><stop stop-color="#4BA446"/><stop offset="1" stop-color="#3F7D35"/></linearGradient><linearGradient id="icon-9878923cff24298c__icon-834c83a3bacc1e25__h" x1="13" x2="31.973" y1="13" y2="30.974" gradientUnits="userSpaceOnUse"><stop stop-color="#4BA446"/><stop offset="1" stop-color="#3F7D35"/></linearGradient><radialGradient id="icon-ee10b887b12b8c47__icon-7e3ee499fc4eb102__b" cx="0" cy="0" r="1" gradientTransform="rotate(62.08 -3.472 24.614) scale(34.9421 27.1064)" gradientUnits="userSpaceOnUse"><stop offset=".177" stop-color="#fff"/><stop offset="1" stop-color="#B8B8B8"/></radialGradient><radialGradient id="icon-c495caa118aa1a3f__icon-89d48e9bd98bb0ea__e" cx="0" cy="0" r="1" gradientTransform="rotate(62.08 -2.544 20.66) scale(34.9421 27.1064)" gradientUnits="userSpaceOnUse"><stop offset=".177" stop-color="#fff"/><stop offset="1" stop-color="#B8B8B8"/></radialGradient></defs></svg>