<svg xmlns="http://www.w3.org/2000/svg" width="40" height="40" fill="currentColor"><path fill="url(#icon-79d1ac75a2b6597c__icon-48a18e770e023c8d__a)" d="M4 8a4 4 0 0 1 4-4h24a4 4 0 0 1 4 4v24a4 4 0 0 1-4 4H8a4 4 0 0 1-4-4V8Z"/><path fill="url(#icon-732c86291e422eb1__icon-4d8e8901f195e632__b)" fill-opacity=".2" d="M4 8a4 4 0 0 1 4-4h24a4 4 0 0 1 4 4v24a4 4 0 0 1-4 4H8a4 4 0 0 1-4-4V8Z"/><path fill="url(#icon-2e2eaa8030c82082__icon-b179912427654c87__c)" fill-rule="evenodd" d="M32 5H8a3 3 0 0 0-3 3v24a3 3 0 0 0 3 3h24a3 3 0 0 0 3-3V8a3 3 0 0 0-3-3ZM8 4a4 4 0 0 0-4 4v24a4 4 0 0 0 4 4h24a4 4 0 0 0 4-4V8a4 4 0 0 0-4-4H8Z" clip-rule="evenodd"/><path fill="url(#icon-653939b3b7e2bfb6__icon-48f7687ccff3375f__d)" d="M19.677 13.09c-.177-.035-.391-.04-.703.005a1.6 1.6 0 0 0-1.115.68c-.256.364-.412.863-.46 1.447-.002.19-.035.87-.084 1.778H19.5a.5.5 0 0 1 0 1h-2.24c-.126 2.25-.3 5.145-.361 5.938v.004l-.006.07c-.048.571-.104 1.251-.304 1.878-.213.667-.6 1.31-1.33 1.738-1.023.635-2.132.345-2.982-.08a.5.5 0 1 1 .447-.895c.747.374 1.436.483 2.011.123l.013-.008c.465-.27.727-.677.888-1.183.165-.515.213-1.096.264-1.702l.002-.021v-.002c.06-.793.231-3.64.356-5.86H14.5a.5.5 0 1 1 0-1h1.813a76.133 76.133 0 0 0 .089-1.838c.054-.71.247-1.405.639-1.962.4-.57.994-.973 1.783-1.094l.005-.001c.386-.055.722-.06 1.044.005.324.065.604.193.884.361a.5.5 0 0 1-.514.858 1.745 1.745 0 0 0-.566-.239Zm7.177 6.056a.5.5 0 0 1 0 .708l-3.22 3.22a162.495 162.495 0 0 0 1.394 2.466l.041.072c.066.115.111.19.154.25.06.084.117.144.244.214.216.037.28-.008.306-.025a.637.637 0 0 0 .125-.127 3.56 3.56 0 0 0 .11-.145c.025-.036.055-.077.092-.126a.5.5 0 0 1 .8.6l-.057.078c-.113.157-.28.39-.5.541-.316.22-.692.268-1.148.17a.495.495 0 0 1-.12-.042 1.686 1.686 0 0 1-.666-.556 3.963 3.963 0 0 1-.208-.336l-.045-.079a134.132 134.132 0 0 1-1.257-2.22l-3.045 3.045a.5.5 0 0 1-.708-.707l3.246-3.246a149.943 149.943 0 0 0-1.14-2.024 3.644 3.644 0 0 0-.327-.549 1.142 1.142 0 0 0-.33-.317c-.061-.02-.117-.014-.205.041-.12.074-.249.213-.39.401a.5.5 0 1 1-.8-.6c.158-.211.378-.473.66-.649.302-.189.695-.287 1.125-.115.013.005.026.01.038.017.298.15.53.392.702.622.17.228.308.476.413.685.135.227.537.944.989 1.753l3.02-3.02a.5.5 0 0 1 .707 0Z"/><defs><linearGradient id="icon-79d1ac75a2b6597c__icon-48a18e770e023c8d__a" x1="12.889" x2="16.937" y1="4" y2="36.383" gradientUnits="userSpaceOnUse"><stop stop-color="#fff"/><stop offset="1" stop-color="#EBEBEB"/></linearGradient><linearGradient id="icon-2e2eaa8030c82082__icon-b179912427654c87__c" x1="14.333" x2="18.642" y1="4" y2="36.314" gradientUnits="userSpaceOnUse"><stop stop-color="#BBB"/><stop offset="1" stop-color="#888"/></linearGradient><linearGradient id="icon-653939b3b7e2bfb6__icon-48f7687ccff3375f__d" x1="12" x2="27.905" y1="12.063" y2="27.035" gradientUnits="userSpaceOnUse"><stop stop-color="#4BA446"/><stop offset="1" stop-color="#3F7D35"/></linearGradient><radialGradient id="icon-732c86291e422eb1__icon-4d8e8901f195e632__b" cx="0" cy="0" r="1" gradientTransform="rotate(56.31 -4.411 19.454) scale(30.4469 26.3483)" gradientUnits="userSpaceOnUse"><stop offset=".177" stop-color="#fff"/><stop offset="1" stop-color="#B8B8B8"/></radialGradient></defs></svg>