<svg xmlns="http://www.w3.org/2000/svg" width="20" height="20" fill="currentColor"><path d="M9.306 5.017a.948.948 0 0 1 .332-.005.79.79 0 0 1 .26.116.5.5 0 0 0 .527-.85c-.176-.109-.362-.2-.584-.245a1.932 1.932 0 0 0-.685-.005h-.005c-1.098.176-1.52 1.145-1.586 2.024A38.524 38.524 0 0 1 7.522 7H6.5a.5.5 0 0 0 0 1h.969c-.071 1.294-.161 2.842-.195 3.294-.03.375-.057.707-.147.998-.085.276-.214.472-.428.601l-.014.008c-.236.153-.542.13-.955-.084a.5.5 0 1 0-.46.888c.518.268 1.258.485 1.952.04.48-.292.728-.727.861-1.158.123-.398.157-.826.184-1.167l.004-.047v-.003c.034-.453.127-2.047.2-3.37H9.5a.5.5 0 0 0 0-1h-.976c.022-.445.038-.775.04-.888.054-.677.329-1.028.742-1.095Zm-2.032 6.277v-.002h.002l-.002.003ZM13.854 9.354a.5.5 0 0 0-.708-.708l-1.29 1.29a45.861 45.861 0 0 0-.355-.612 2.499 2.499 0 0 0-.23-.368 1.284 1.284 0 0 0-.48-.395.87.87 0 0 0-.784.075c-.183.111-.318.27-.403.381a.5.5 0 1 0 .792.61c.025-.031.047-.058.068-.08l.015.02c.05.064.097.145.142.231a59.363 59.363 0 0 1 .504.87l-1.479 1.478a.5.5 0 0 0 .708.708l1.286-1.287a38.588 38.588 0 0 0 .46.785l.023.041c.033.056.073.123.12.187.112.153.243.26.43.351a.496.496 0 0 0 .117.04c.274.057.536.035.766-.12.152-.103.27-.264.322-.335l.01-.015.008-.01a.5.5 0 0 0-.792-.61l-.046.06-.012.016-.01.013a1.918 1.918 0 0 1-.05-.083l-.02-.034a60.562 60.562 0 0 1-.593-1.018l1.48-1.481Z"/><path d="M3 4a3 3 0 0 1 3-3h7a3 3 0 0 1 3 3v10a3 3 0 0 1-3 3H6a3 3 0 0 1-3-3V4Zm3-2a2 2 0 0 0-2 2v10a2 2 0 0 0 2 2h7a2 2 0 0 0 2-2V4a2 2 0 0 0-2-2H6Z"/><path d="M7 18c.836.628 1.875 1 3 1h3a5 5 0 0 0 5-5V8a4.978 4.978 0 0 0-1-3v9a4 4 0 0 1-4 4H7Z"/></svg>