<svg xmlns="http://www.w3.org/2000/svg" width="16" height="16" fill="currentColor"><path d="M3 2a2 2 0 0 1 2-2h6a2 2 0 0 1 2 2v9a2 2 0 0 1-2 2H5a2 2 0 0 1-1.768-1.064c.3-.05.583-.157.839-.315.034-.02.067-.04.1-.062.18.266.484.441.829.441h6a1 1 0 0 0 1-1V2a1 1 0 0 0-1-1H5a1 1 0 0 0-1 1v.378a2.474 2.474 0 0 0-.782.719c-.082.116-.155.239-.218.368V2Z"/><path d="M5.192 4.043a.71.71 0 0 1 .236-.004h.001a.555.555 0 0 1 .178.079.5.5 0 1 0 .514-.858 1.53 1.53 0 0 0-.496-.201 1.661 1.661 0 0 0-.576-.004h-.005a1.478 1.478 0 0 0-1.008.619c-.218.31-.318.684-.346 1.045-.002.012-.002.025-.002.038v.004l-.002.012v.042a5.587 5.587 0 0 1-.006.134c-.003.09-.01.204-.016.336l-.003.046h-.943a.5.5 0 0 0 0 1h.888l-.016.278c-.052.906-.11 1.85-.133 2.149v.01c-.025.288-.046.525-.112.73-.06.192-.149.317-.293.4l-.013.009c-.148.092-.356.09-.676-.07a.5.5 0 0 0-.447.895c.423.21 1.05.394 1.645.027.41-.241.623-.602.736-.955.102-.317.13-.655.152-.914l.001-.011.004-.04v-.002c.026-.337.097-1.504.154-2.506H5.61a.5.5 0 0 0 0-1h-.947c.014-.27.023-.47.025-.55.02-.235.082-.414.165-.532a.48.48 0 0 1 .34-.206ZM6.05 14c.632.618 1.497 1 2.45 1h3a3.5 3.5 0 0 0 3.5-3.5v-6c0-.954-.381-1.818-1-2.45v8.45a2.5 2.5 0 0 1-2.5 2.5H6.05Z"/><path d="M8.854 6.646a.5.5 0 0 1 0 .707L7.678 8.529a52.112 52.112 0 0 0 .43.74l.018.029a.5.5 0 0 1 .77.637l-.007.009-.005.007a1.234 1.234 0 0 1-.29.3c-.214.145-.456.163-.7.113a.521.521 0 0 1-.116-.04.994.994 0 0 1-.387-.317 1.994 1.994 0 0 1-.103-.16l-.001-.002-.033-.055a4.485 4.485 0 0 0-.06-.101c-.037-.06-.127-.216-.242-.414l-.008-.014-.982.982a.5.5 0 0 1-.707-.707l1.174-1.174a40.744 40.744 0 0 0-.385-.665 1.428 1.428 0 0 0-.058-.104.5.5 0 0 1-.773-.633c.072-.094.19-.236.356-.336a.803.803 0 0 1 .76-.053c.182.088.312.226.398.338.084.109.149.223.197.315l.216.37.02.036.986-.985a.5.5 0 0 1 .707 0Z"/></svg>