<svg xmlns="http://www.w3.org/2000/svg" width="48" height="48" fill="currentColor"><path fill="url(#icon-7ada0ef37885a814__icon-a27368e0eabe500a__a)" d="M5 10a5 5 0 0 1 5-5h28a5 5 0 0 1 5 5v28a5 5 0 0 1-5 5H10a5 5 0 0 1-5-5V10Z"/><path fill="url(#icon-cc14aa95b75ef3f2__icon-fa769134926f03a2__b)" fill-opacity=".2" d="M5 10a5 5 0 0 1 5-5h28a5 5 0 0 1 5 5v28a5 5 0 0 1-5 5H10a5 5 0 0 1-5-5V10Z"/><path fill="url(#icon-3710af3df8fe5fcb__icon-a1e55a9f8d93f2e1__c)" fill-rule="evenodd" d="M38 6H10a4 4 0 0 0-4 4v28a4 4 0 0 0 4 4h28a4 4 0 0 0 4-4V10a4 4 0 0 0-4-4ZM10 5a5 5 0 0 0-5 5v28a5 5 0 0 0 5 5h28a5 5 0 0 0 5-5V10a5 5 0 0 0-5-5H10Z" clip-rule="evenodd"/><path fill="url(#icon-23f246f249e3d490__icon-b1e179df80d49c5c__d)" d="M24.237 15.036c-.231-.046-.505-.05-.893.004-.65.1-1.107.414-1.425.864-.325.459-.518 1.08-.576 1.797-.003.23-.048 1.122-.112 2.299H24.5a.5.5 0 0 1 0 1h-3.325a581.176 581.176 0 0 1-.44 7.204v.003l-.008.08c-.058.692-.125 1.502-.364 2.246-.254.789-.71 1.538-1.57 2.038-1.193.736-2.493.406-3.515-.101a.5.5 0 0 1 .444-.896c.92.456 1.802.608 2.55.144l.013-.008c.593-.344.925-.858 1.126-1.483.203-.633.263-1.343.324-2.068l.002-.033v-.001c.075-.963.285-4.438.437-7.125H17.5a.5.5 0 1 1 0-1h2.73a98.768 98.768 0 0 0 .114-2.36c.066-.843.297-1.662.759-2.314.47-.665 1.166-1.133 2.093-1.275h.005c.461-.066.855-.07 1.23.004a3.22 3.22 0 0 1 1.04.422.5.5 0 1 1-.512.86c-.273-.163-.492-.256-.722-.301Z"/><path fill="url(#icon-5c6dfc48a74a9974__icon-a3b21ab502902a94__e)" d="M32.854 23.146a.5.5 0 0 1 0 .708l-3.733 3.732c.631 1.101 1.216 2.12 1.37 2.369.09.147.166.276.23.386l.048.082c.076.13.13.217.182.288a.828.828 0 0 0 .32.27c.283.048.385-.005.438-.041.088-.06.15-.142.277-.31l.118-.154a.5.5 0 1 1 .792.61 5.414 5.414 0 0 0-.069.092c-.132.178-.317.428-.559.59-.342.232-.75.286-1.261.18a.5.5 0 0 1-.117-.04 1.867 1.867 0 0 1-.745-.606 4.39 4.39 0 0 1-.238-.373l-.052-.089a153.61 153.61 0 0 1-1.467-2.521l-3.534 3.535a.5.5 0 0 1-.708-.707l3.727-3.727a179.418 179.418 0 0 0-1.383-2.39 4.147 4.147 0 0 0-.386-.629c-.143-.186-.283-.314-.412-.382-.107-.036-.2-.022-.323.053-.151.091-.308.256-.473.47a.5.5 0 0 1-.792-.61c.183-.238.432-.524.745-.715.334-.203.758-.304 1.224-.123l.037.016c.33.16.589.425.786.68.196.255.354.531.475.766.163.267.673 1.154 1.234 2.132l3.541-3.541a.5.5 0 0 1 .708 0Z"/><defs><linearGradient id="icon-7ada0ef37885a814__icon-a27368e0eabe500a__a" x1="15.556" x2="20.362" y1="5" y2="43.455" gradientUnits="userSpaceOnUse"><stop stop-color="#fff"/><stop offset="1" stop-color="#EBEBEB"/></linearGradient><linearGradient id="icon-3710af3df8fe5fcb__icon-a1e55a9f8d93f2e1__c" x1="17.271" x2="22.387" y1="5" y2="43.373" gradientUnits="userSpaceOnUse"><stop stop-color="#BBB"/><stop offset="1" stop-color="#888"/></linearGradient><linearGradient id="icon-23f246f249e3d490__icon-b1e179df80d49c5c__d" x1="15" x2="33.973" y1="14" y2="31.974" gradientUnits="userSpaceOnUse"><stop stop-color="#4BA446"/><stop offset="1" stop-color="#3F7D35"/></linearGradient><linearGradient id="icon-5c6dfc48a74a9974__icon-a3b21ab502902a94__e" x1="15" x2="33.973" y1="14" y2="31.974" gradientUnits="userSpaceOnUse"><stop stop-color="#4BA446"/><stop offset="1" stop-color="#3F7D35"/></linearGradient><radialGradient id="icon-cc14aa95b75ef3f2__icon-fa769134926f03a2__b" cx="0" cy="0" r="1" gradientTransform="rotate(56.31 -5.347 23.46) scale(36.1557 31.2886)" gradientUnits="userSpaceOnUse"><stop offset=".177" stop-color="#fff"/><stop offset="1" stop-color="#B8B8B8"/></radialGradient></defs></svg>