<svg xmlns="http://www.w3.org/2000/svg" width="32" height="32" fill="currentColor"><path fill="url(#icon-adf62fec320b9677__icon-04ef8cbc0a1f9cd3__a)" d="M3 6.5A3.5 3.5 0 0 1 6.5 3h19A3.5 3.5 0 0 1 29 6.5v19a3.5 3.5 0 0 1-3.5 3.5h-19A3.5 3.5 0 0 1 3 25.5v-19Z"/><path fill="url(#icon-f4a291cbedaf7744__icon-4c01f34092ea5ff2__b)" fill-opacity=".2" d="M3 6.5A3.5 3.5 0 0 1 6.5 3h19A3.5 3.5 0 0 1 29 6.5v19a3.5 3.5 0 0 1-3.5 3.5h-19A3.5 3.5 0 0 1 3 25.5v-19Z"/><path fill="url(#icon-1acc2901495ce693__icon-11f7cbc8d23c1896__c)" fill-rule="evenodd" d="M25.5 4h-19A2.5 2.5 0 0 0 4 6.5v19A2.5 2.5 0 0 0 6.5 28h19a2.5 2.5 0 0 0 2.5-2.5v-19A2.5 2.5 0 0 0 25.5 4Zm-19-1A3.5 3.5 0 0 0 3 6.5v19A3.5 3.5 0 0 0 6.5 29h19a3.5 3.5 0 0 0 3.5-3.5v-19A3.5 3.5 0 0 0 25.5 3h-19Z" clip-rule="evenodd"/><path fill="url(#icon-af36bcd54d523f9a__icon-d52baa8136f2c374__d)" d="M16.33 9.223a2.5 2.5 0 0 0-3.52 2.113l-.11 1.661h-1.2a.5.5 0 1 0 0 1h1.133l-.44 6.595a1.5 1.5 0 0 1-2.112 1.268l-.376-.169a.5.5 0 1 0-.41.912l.375.17a2.5 2.5 0 0 0 3.52-2.114l.445-6.662H15.5a.5.5 0 1 0 0-1h-1.8l.107-1.595a1.5 1.5 0 0 1 2.112-1.268l.375.17a.5.5 0 0 0 .41-.913l-.375-.168Z"/><path fill="url(#icon-d724ed9f1913e077__icon-1de429f2a8a189ed__e)" d="M16.16 16.045a.25.25 0 0 1 .393.053l1.324 2.316-2.73 2.73a.5.5 0 1 0 .707.707l2.537-2.537 1.188 2.079a1.25 1.25 0 0 0 1.97.264l.305-.306a.5.5 0 1 0-.707-.707l-.306.306a.25.25 0 0 1-.394-.053l-1.323-2.316 2.73-2.73a.5.5 0 1 0-.707-.707L18.61 17.68l-1.188-2.08a1.25 1.25 0 0 0-1.97-.263l-.305.306a.5.5 0 0 0 .707.707l.306-.306Z"/><defs><linearGradient id="icon-adf62fec320b9677__icon-04ef8cbc0a1f9cd3__a" x1="10.222" x2="13.511" y1="3" y2="29.311" gradientUnits="userSpaceOnUse"><stop stop-color="#fff"/><stop offset="1" stop-color="#EBEBEB"/></linearGradient><linearGradient id="icon-1acc2901495ce693__icon-11f7cbc8d23c1896__c" x1="11.396" x2="14.897" y1="3" y2="29.256" gradientUnits="userSpaceOnUse"><stop stop-color="#BBB"/><stop offset="1" stop-color="#888"/></linearGradient><linearGradient id="icon-af36bcd54d523f9a__icon-d52baa8136f2c374__d" x1="9" x2="22.957" y1="9" y2="21.965" gradientUnits="userSpaceOnUse"><stop stop-color="#4BA446"/><stop offset="1" stop-color="#3F7D35"/></linearGradient><linearGradient id="icon-d724ed9f1913e077__icon-1de429f2a8a189ed__e" x1="9" x2="22.957" y1="9" y2="21.965" gradientUnits="userSpaceOnUse"><stop stop-color="#4BA446"/><stop offset="1" stop-color="#3F7D35"/></linearGradient><radialGradient id="icon-f4a291cbedaf7744__icon-4c01f34092ea5ff2__b" cx="0" cy="0" r="1" gradientTransform="rotate(56.31 -3.476 15.448) scale(24.7381 21.408)" gradientUnits="userSpaceOnUse"><stop offset=".177" stop-color="#fff"/><stop offset="1" stop-color="#B8B8B8"/></radialGradient></defs></svg>