<svg xmlns="http://www.w3.org/2000/svg" width="20" height="20" fill="currentColor"><path d="M9.306 5.017a.948.948 0 0 1 .332-.005.79.79 0 0 1 .26.116.5.5 0 0 0 .527-.85c-.176-.109-.362-.2-.584-.245a1.932 1.932 0 0 0-.685-.005h-.005c-1.098.176-1.52 1.145-1.586 2.024A38.524 38.524 0 0 1 7.522 7H6.5a.5.5 0 0 0 0 1h.969c-.071 1.294-.161 2.842-.195 3.294-.03.375-.057.707-.147.998-.085.276-.214.472-.428.601l-.014.008c-.236.153-.542.13-.955-.084a.5.5 0 1 0-.46.888c.518.268 1.258.485 1.952.04.48-.292.728-.727.861-1.158.123-.398.157-.826.184-1.167l.004-.047v-.003c.034-.453.127-2.047.2-3.37H9.5a.5.5 0 1 0 0-1h-.977c.022-.445.038-.775.04-.888.054-.677.329-1.028.742-1.095ZM13.854 9.354a.5.5 0 0 0-.707-.708l-1.29 1.29a44.074 44.074 0 0 0-.356-.612 2.481 2.481 0 0 0-.23-.368 1.282 1.282 0 0 0-.48-.396.87.87 0 0 0-.784.076c-.183.111-.318.27-.403.381a.5.5 0 0 0 .792.61c.025-.031.047-.058.068-.08a1.127 1.127 0 0 1 .157.25 60.352 60.352 0 0 1 .504.87l-1.478 1.48a.5.5 0 0 0 .707.707l1.286-1.287c.175.303.318.55.37.634l.09.15.023.042c.033.056.073.123.12.187.112.153.243.26.43.351a.496.496 0 0 0 .117.04c.274.057.536.035.766-.12.152-.103.27-.264.322-.335l.014-.02.004-.005a.5.5 0 1 0-.792-.61l-.046.06-.012.016-.01.013a1.983 1.983 0 0 1-.05-.084l-.02-.034a60.703 60.703 0 0 1-.593-1.018l1.48-1.48Z"/><path d="M3 3.75A3.25 3.25 0 0 1 6.25.5h6.5A3.25 3.25 0 0 1 16 3.75v10A3.25 3.25 0 0 1 12.75 17h-6.5A3.25 3.25 0 0 1 3 13.75v-10ZM6.25 2A1.75 1.75 0 0 0 4.5 3.75v10c0 .966.784 1.75 1.75 1.75h6.5a1.75 1.75 0 0 0 1.75-1.75v-10A1.75 1.75 0 0 0 12.75 2h-6.5Z"/><path d="M17 4.576a5.233 5.233 0 0 1 1.5 3.674v6c0 2.9-2.35 5.25-5.25 5.25h-2.5A5.233 5.233 0 0 1 7.076 18h6.174A3.75 3.75 0 0 0 17 14.25V4.576Z"/></svg>