<svg xmlns="http://www.w3.org/2000/svg" width="32" height="32" fill="currentColor"><path fill="url(#icon-9a240e54982c6586__icon-98bbffa27a3b3959__a)" d="M27 7.5A3.5 3.5 0 0 0 23.5 4h-13A3.5 3.5 0 0 0 7 7.5v19a3.5 3.5 0 0 0 3.5 3.5H22a5 5 0 0 0 5-5V7.5Z"/><path fill="url(#icon-1b5906b8666a84bf__icon-071824d352873f45__b)" d="M26 7.5A2.5 2.5 0 0 0 23.5 5h-13A2.5 2.5 0 0 0 8 7.5v19a2.5 2.5 0 0 0 2.5 2.5h11.25A4.25 4.25 0 0 0 26 24.75V7.5Z"/><path fill="url(#icon-5bded391c9184ced__icon-61834a979b04c608__c)" fill-opacity=".2" d="M26 7.5A2.5 2.5 0 0 0 23.5 5h-13A2.5 2.5 0 0 0 8 7.5v19a2.5 2.5 0 0 0 2.5 2.5h11.25A4.25 4.25 0 0 0 26 24.75V7.5Z"/><path fill="url(#icon-1fa20a624f075318__icon-8eb8d5ea0ffaa735__d)" d="M8.5 2h13A3.5 3.5 0 0 1 25 5.5v19a3.5 3.5 0 0 1-3.5 3.5h-13A3.5 3.5 0 0 1 5 24.5v-19A3.5 3.5 0 0 1 8.5 2Z"/><path fill="url(#icon-345099a92b6dedd6__icon-85eb4aea2672c90a__e)" d="M8.5 3h13A2.5 2.5 0 0 1 24 5.5v19a2.5 2.5 0 0 1-2.5 2.5h-13A2.5 2.5 0 0 1 6 24.5v-19A2.5 2.5 0 0 1 8.5 3Z"/><path fill="url(#icon-195ad4735ff5d80a__icon-e4df775326ac684f__f)" fill-opacity=".2" d="M8.5 3h13A2.5 2.5 0 0 1 24 5.5v19a2.5 2.5 0 0 1-2.5 2.5h-13A2.5 2.5 0 0 1 6 24.5v-19A2.5 2.5 0 0 1 8.5 3Z"/><path fill="url(#icon-cf1f29f1835f798f__icon-25617a996d34edaa__g)" d="M15.33 8.223a2.5 2.5 0 0 0-3.52 2.113l-.11 1.661h-1.2a.5.5 0 1 0 0 1h1.133l-.44 6.595A1.5 1.5 0 0 1 9.08 20.86l-.376-.169a.5.5 0 1 0-.41.912l.375.17a2.5 2.5 0 0 0 3.52-2.114l.445-6.662H14.5a.5.5 0 1 0 0-1h-1.8l.107-1.595a1.5 1.5 0 0 1 2.112-1.268l.375.17a.5.5 0 1 0 .41-.913l-.375-.168Z"/><path fill="url(#icon-bb0eaac950e6c249__icon-2a04962bf9111cae__h)" d="M15.16 15.045a.25.25 0 0 1 .393.053l1.324 2.316-2.73 2.73a.5.5 0 1 0 .707.707l2.537-2.537 1.188 2.079a1.25 1.25 0 0 0 1.97.264l.305-.306a.5.5 0 1 0-.707-.707l-.306.306a.25.25 0 0 1-.394-.053l-1.323-2.316 2.73-2.73a.5.5 0 1 0-.707-.707L17.61 16.68l-1.188-2.08a1.25 1.25 0 0 0-1.97-.263l-.305.306a.5.5 0 0 0 .707.707l.306-.306Z"/><defs><linearGradient id="icon-9a240e54982c6586__icon-98bbffa27a3b3959__a" x1="20.542" x2="16.045" y1="4" y2="29.943" gradientUnits="userSpaceOnUse"><stop stop-color="#BBB"/><stop offset="1" stop-color="#888"/></linearGradient><linearGradient id="icon-1b5906b8666a84bf__icon-071824d352873f45__b" x1="21" x2="17" y1="5" y2="29" gradientUnits="userSpaceOnUse"><stop stop-color="#fff"/><stop offset="1" stop-color="#EBEBEB"/></linearGradient><linearGradient id="icon-1fa20a624f075318__icon-8eb8d5ea0ffaa735__d" x1="18.542" x2="14.045" y1="2" y2="27.943" gradientUnits="userSpaceOnUse"><stop stop-color="#BBB"/><stop offset="1" stop-color="#888"/></linearGradient><linearGradient id="icon-345099a92b6dedd6__icon-85eb4aea2672c90a__e" x1="19" x2="15" y1="3" y2="27" gradientUnits="userSpaceOnUse"><stop stop-color="#fff"/><stop offset="1" stop-color="#EBEBEB"/></linearGradient><linearGradient id="icon-cf1f29f1835f798f__icon-25617a996d34edaa__g" x1="8" x2="21.957" y1="8" y2="20.965" gradientUnits="userSpaceOnUse"><stop stop-color="#4BA446"/><stop offset="1" stop-color="#3F7D35"/></linearGradient><linearGradient id="icon-bb0eaac950e6c249__icon-2a04962bf9111cae__h" x1="8" x2="21.957" y1="8" y2="20.965" gradientUnits="userSpaceOnUse"><stop stop-color="#4BA446"/><stop offset="1" stop-color="#3F7D35"/></linearGradient><radialGradient id="icon-5bded391c9184ced__icon-61834a979b04c608__c" cx="0" cy="0" r="1" gradientTransform="rotate(116.565 6.649 11.883) scale(21.2426 15.932)" gradientUnits="userSpaceOnUse"><stop offset=".177" stop-color="#fff"/><stop offset="1" stop-color="#B8B8B8"/></radialGradient><radialGradient id="icon-195ad4735ff5d80a__icon-e4df775326ac684f__f" cx="0" cy="0" r="1" gradientTransform="rotate(116.565 6.267 10.265) scale(21.2426 15.932)" gradientUnits="userSpaceOnUse"><stop offset=".177" stop-color="#fff"/><stop offset="1" stop-color="#B8B8B8"/></radialGradient></defs></svg>