<svg xmlns="http://www.w3.org/2000/svg" width="16" height="16" fill="currentColor"><path d="M5.75 0A2.75 2.75 0 0 0 3 2.75v.715c.063-.129.136-.252.218-.368.352-.501.864-.847 1.46-.99A1.25 1.25 0 0 1 5.75 1.5h4.5c.69 0 1.25.56 1.25 1.25v7.5c0 .69-.56 1.25-1.25 1.25h-4.5c-.263 0-.506-.081-.707-.22a1.497 1.497 0 0 1-.335-.19c-.182.21-.395.388-.637.53-.17.106-.354.189-.546.247.5.687 1.31 1.133 2.225 1.133h4.5A2.75 2.75 0 0 0 13 10.25v-7.5A2.75 2.75 0 0 0 10.25 0h-4.5Z"/><path d="M5.428 4.039a.702.702 0 0 0-.236.004.478.478 0 0 0-.34.205c-.082.118-.145.297-.165.533-.001.08-.01.28-.025.55h.947a.5.5 0 1 1 0 1H4.607a206.347 206.347 0 0 1-.153 2.506v.003l-.004.04c-.021.26-.05.603-.152.924-.113.353-.326.714-.736.956-.595.367-1.222.184-1.646-.028a.5.5 0 0 1 .447-.894c.32.16.528.162.676.07l.013-.009c.144-.083.232-.208.293-.4.067-.207.087-.448.112-.74.023-.299.08-1.244.133-2.15l.016-.279h-.888a.5.5 0 0 1 0-1h.943a65.81 65.81 0 0 0 .025-.516l.001-.041v-.017l.002-.038c.028-.362.128-.736.346-1.045.227-.323.566-.551 1.008-.619h.005c.2-.03.387-.034.576.004.19.038.35.113.496.2a.5.5 0 0 1-.513.859.553.553 0 0 0-.179-.078Z"/><path d="M8.854 6.646a.5.5 0 0 1 0 .707L7.678 8.53a44.475 44.475 0 0 0 .448.77.5.5 0 0 1 .759.653 1.26 1.26 0 0 1-.29.3c-.214.146-.457.164-.7.113a.5.5 0 0 1-.116-.04.993.993 0 0 1-.387-.317 1.9 1.9 0 0 1-.104-.162l-.02-.034-.073-.122c-.038-.061-.132-.223-.25-.428l-.982.982a.5.5 0 1 1-.707-.707l1.173-1.174a44.174 44.174 0 0 0-.385-.665 1.587 1.587 0 0 0-.058-.104.5.5 0 0 1-.773-.633c.072-.094.191-.236.356-.336a.805.805 0 0 1 .762-.053c.181.088.31.226.397.338.084.109.15.223.197.315.043.07.13.22.237.406l.985-.985a.5.5 0 0 1 .707 0ZM15.5 6.25c0-1.227-.589-2.316-1.5-3v8.5A2.25 2.25 0 0 1 11.75 14h-5.5c.684.91 1.773 1.5 3 1.5h2.5a3.75 3.75 0 0 0 3.75-3.75v-5.5Z"/></svg>