<svg xmlns="http://www.w3.org/2000/svg" width="20" height="20" fill="currentColor"><path d="M16.883 3.914a1.5 1.5 0 0 0-.8-.8A1.474 1.474 0 0 0 15.5 3h-13A1.495 1.495 0 0 0 1 4.5a1.44 1.44 0 0 0 .47 1.086l5.061 4.828c.073.073.14.151.2.234a1.389 1.389 0 0 1 .27.852v4A1.5 1.5 0 0 0 8.5 17h1a1.5 1.5 0 0 0 1.5-1.5v-4a1.417 1.417 0 0 1 .272-.852 1.73 1.73 0 0 1 .2-.234l5.062-4.828A1.44 1.44 0 0 0 17 4.5c.002-.201-.038-.4-.117-.586Zm-1.039.945-5.07 4.83A2.533 2.533 0 0 0 10 11.5v4a.5.5 0 0 1-.5.5h-1a.5.5 0 0 1-.5-.5v-4a2.534 2.534 0 0 0-.773-1.812L2.157 4.86A.47.47 0 0 1 2 4.492a.462.462 0 0 1 .148-.35A.5.5 0 0 1 2.5 4h13a.53.53 0 0 1 .463.304c.026.06.038.124.037.188a.47.47 0 0 1-.156.367Z"/></svg>