<svg xmlns="http://www.w3.org/2000/svg" width="20" height="20" fill="currentColor"><path d="M8 5.502c.003-.87.213-1.727.612-2.5H2.5a1.5 1.5 0 0 0-1.386.917A1.474 1.474 0 0 0 1 4.502a1.44 1.44 0 0 0 .47 1.086l5.061 4.828c.073.072.14.15.2.234a1.389 1.389 0 0 1 .27.852v4a1.5 1.5 0 0 0 1.5 1.5h1a1.5 1.5 0 0 0 1.5-1.5v-4a1.417 1.417 0 0 1 .272-.852c.023-.032.052-.06.077-.091A5.479 5.479 0 0 1 8 5.502Zm9.914-.878a4.5 4.5 0 1 0-8.828 1.753 4.5 4.5 0 0 0 8.828-1.753Zm-2.06 1.232a.5.5 0 0 1-.354.146H14v1.5a.5.5 0 0 1-1 0v-1.5h-1.5a.5.5 0 0 1 0-1H13v-1.5a.5.5 0 0 1 1 0v1.5h1.5a.5.5 0 0 1 .354.854Z"/></svg>