<svg xmlns="http://www.w3.org/2000/svg" width="20" height="20" fill="currentColor"><path d="M16.933 10.975a7 7 0 1 0-5.629 5.904c.099.099.199.197.396.296l-.4.4c-.11.11-.201.232-.271.36a8 8 0 1 1 6.912-6.96h-1.008Z"/><path d="M12.466 5.057a.5.5 0 0 1-.647.284 5.001 5.001 0 0 0-5.355 8.195.5.5 0 1 1-.707.707 6 6 0 0 1 6.425-9.834.5.5 0 0 1 .284.648ZM14.944 7.534a.5.5 0 0 1 .647.285c.393 1.007.503 2.1.33 3.156h-1.016a5.019 5.019 0 0 0-.246-2.793.5.5 0 0 1 .284-.648Z"/><path d="M14.085 5.82a.5.5 0 0 0-.635-.012l-.177.14a335.172 335.172 0 0 0-1.91 1.531c-.532.431-1.078.877-1.513 1.242-.218.182-.41.346-.56.478a3.97 3.97 0 0 0-.344.328 1.5 1.5 0 1 0 2.282 1.948c.072-.084.17-.232.27-.39.107-.17.239-.385.385-.628.292-.488.646-1.096.989-1.69a300.727 300.727 0 0 0 1.213-2.126l.111-.196a.5.5 0 0 0-.11-.626ZM13.484 12.004h5a.5.5 0 0 1 .5.5v5a.5.5 0 0 1-.853.354l-5-5a.5.5 0 0 1 .353-.854ZM13.54 14.657a.5.5 0 0 1 0 .707l-.706.707a.5.5 0 1 1-.708-.707l.708-.707a.5.5 0 0 1 .707 0ZM16.37 17.486a.5.5 0 0 1 0 .707l-.708.707a.5.5 0 1 1-.707-.707l.707-.707a.5.5 0 0 1 .707 0ZM14.955 16.072a.5.5 0 0 1 0 .707l-2.121 2.12a.5.5 0 1 1-.708-.706l2.122-2.122a.5.5 0 0 1 .707 0Z"/></svg>