<svg xmlns="http://www.w3.org/2000/svg" width="32" height="32" fill="currentColor"><path d="M2 16C2 8.268 8.268 2 16 2s14 6.268 14 14c0 .678-.048 1.344-.141 1.996H25.8a10.002 10.002 0 0 0-1.194-7.09 1 1 0 1 0-1.72 1.018 8.004 8.004 0 0 1 .863 6.072h-1.581a2.803 2.803 0 0 0-2.592 1.727l-.004.01-.005.01a2.814 2.814 0 0 0 .135 2.398c-.16.107-.311.23-.452.372l-.707.707a3 3 0 0 0 .382 4.566l-.029.03a2.99 2.99 0 0 0-.878 2.04C17.36 29.95 16.685 30 16 30 8.268 30 2 23.732 2 16Zm15.56-7.848a1 1 0 1 0 .388-1.962A10 10 0 0 0 7.708 21.59a1 1 0 1 0 1.657-1.118 8 8 0 0 1 8.196-12.32Zm3.432-.099-1.056.842c-.638.507-1.494 1.192-2.368 1.9-.874.708-1.77 1.437-2.485 2.037-.357.3-.673.568-.92.786a6.891 6.891 0 0 0-.563.538 2.463 2.463 0 0 0 3.745 3.2 6.63 6.63 0 0 0 .443-.64c.176-.278.393-.632.632-1.032.48-.8 1.061-1.798 1.623-2.773.562-.975 1.108-1.927 1.508-2.636l.484-.853.182-.322a.82.82 0 0 0-1.225-1.047Z"/><path d="M22.125 20h8.054a.806.806 0 0 1 .806.805v8.054a.806.806 0 0 1-1.375.57l-8.053-8.053A.807.807 0 0 1 22.126 20ZM21.371 26.048l.707-.707a1 1 0 0 0-1.414-1.414l-.707.707a1 1 0 1 0 1.414 1.414ZM24.553 26.401a1 1 0 0 1 0 1.415l-2.829 2.828a1 1 0 1 1-1.414-1.414L23.14 26.4a1 1 0 0 1 1.414 0ZM27.027 28.876a1 1 0 0 0-1.414 0l-.707.707a1 1 0 0 0 1.414 1.415l.707-.707a1 1 0 0 0 0-1.415Z"/></svg>