<svg xmlns="http://www.w3.org/2000/svg" width="24" height="24" fill="currentColor"><path d="M20.375 13.458a8.5 8.5 0 1 0-7.477 6.995 2.25 2.25 0 0 0 .732.738 2.237 2.237 0 0 0-.413.736A10.1 10.1 0 0 1 12 22C6.477 22 2 17.523 2 12S6.477 2 12 2s10 4.477 10 10c0 .491-.035.974-.104 1.446l-1.52.012Z"/><path d="M7.934 16.066a.75.75 0 1 1-1.06 1.06 7.25 7.25 0 0 1 6.798-12.182.75.75 0 1 1-.344 1.46 5.75 5.75 0 0 0-5.393 9.661ZM17.888 9.141a.75.75 0 0 1 .955.46 7.281 7.281 0 0 1 .258 3.866l-1.543.012a5.775 5.775 0 0 0-.13-3.382.75.75 0 0 1 .46-.956ZM22.548 14.94a.5.5 0 0 1 .504.505l-.05 6.32a.5.5 0 0 1-.853.35l-3.06-3.061h-.002l-1.06-1.06-.883-.885-.001.001-1.061-1.06v-.001l-.205-.206a.5.5 0 0 1 .35-.854l6.32-.048ZM14.792 20.03l.028.001a.747.747 0 0 0 .533-.22l.707-.706a.75.75 0 0 0-1.061-1.061l-.707.707a.75.75 0 0 0 .5 1.28ZM15.6 21.332l-.003.002 1.345-1.346a.747.747 0 0 1 .53-.22.75.75 0 0 1 .533 1.28l-2.121 2.122a.75.75 0 0 1-1.061-1.06l.777-.778Z"/><path d="M15.88 6.667a.625.625 0 0 1 .961.761l-.13.25a354.691 354.691 0 0 1-1.415 2.713 154.8 154.8 0 0 1-1.156 2.157c-.171.31-.326.586-.452.803a4.964 4.964 0 0 1-.32.5 1.875 1.875 0 0 1-2.94-2.327c.086-.109.244-.265.413-.425.182-.173.414-.387.678-.625.527-.476 1.187-1.058 1.832-1.62a375.175 375.175 0 0 1 2.314-2.003l.214-.184ZM19.948 21.933a.75.75 0 0 1 0 1.06l-.707.708a.75.75 0 0 1-1.06-1.06l.707-.708a.75.75 0 0 1 1.06 0Z"/></svg>