<svg xmlns="http://www.w3.org/2000/svg" width="32" height="32" fill="currentColor"><path d="M16 28c.957 0 1.888-.112 2.78-.324.048.039.096.075.145.11l-.029.03a2.99 2.99 0 0 0-.878 2.04C17.36 29.95 16.685 30 16 30 8.268 30 2 23.732 2 16S8.268 2 16 2s14 6.268 14 14c0 .678-.048 1.344-.141 1.996h-2.024C27.943 17.347 28 16.68 28 16c0-6.627-5.373-12-12-12S4 9.373 4 16s5.373 12 12 12Z"/><path d="M25.995 16.28c-.016.579-.083 1.153-.198 1.716h-2.05a8.007 8.007 0 0 0-.861-6.07 1 1 0 0 1 1.72-1.022 10.008 10.008 0 0 1 1.389 5.375ZM8.068 21.916a1 1 0 0 0 1.298-1.443A7.956 7.956 0 0 1 8 16a8.008 8.008 0 0 1 9.56-7.848 1 1 0 1 0 .389-1.962A10 10 0 0 0 7.708 21.592a1 1 0 0 0 .36.324Z"/><path d="M21.517 7.876a.821.821 0 0 0-.525.177l-1.056.842c-.638.507-1.494 1.192-2.368 1.9-.874.708-1.77 1.437-2.485 2.037-.357.3-.673.568-.92.786a6.891 6.891 0 0 0-.563.538 2.463 2.463 0 0 0 3.745 3.2 6.63 6.63 0 0 0 .443-.64c.176-.278.393-.632.632-1.032.48-.8 1.061-1.798 1.623-2.773.562-.975 1.108-1.927 1.508-2.636l.484-.853.182-.322a.82.82 0 0 0-.7-1.224ZM22.125 20h8.054a.806.806 0 0 1 .806.805v8.054a.806.806 0 0 1-1.375.57l-8.053-8.053A.807.807 0 0 1 22.126 20ZM21.371 26.048l.707-.707a1 1 0 0 0-1.414-1.414l-.707.707a1 1 0 1 0 1.414 1.414ZM24.553 26.401a1 1 0 0 1 0 1.415l-2.829 2.828a1 1 0 1 1-1.414-1.414L23.14 26.4a1 1 0 0 1 1.414 0ZM27.027 28.876a1 1 0 0 0-1.414 0l-.707.707a1 1 0 0 0 1.414 1.415l.707-.707a1 1 0 0 0 0-1.415Z"/></svg>