<svg xmlns="http://www.w3.org/2000/svg" width="24" height="24" fill="currentColor"><path fill="url(#icon-6a1615bbc6382627__icon-6ddf6c2dd31ab2c0__a)" d="M2 5a3 3 0 0 1 3-3h14a3 3 0 0 1 3 3v14a3 3 0 0 1-3 3H5a3 3 0 0 1-3-3V5Z"/><path fill="url(#icon-4fc70b616e22eaf2__icon-80966444713900d9__b)" fill-opacity=".2" d="M2 5a3 3 0 0 1 3-3h14a3 3 0 0 1 3 3v14a3 3 0 0 1-3 3H5a3 3 0 0 1-3-3V5Z"/><path fill="url(#icon-334bb3865813ad53__icon-51e12b799c86f5f2__c)" fill-rule="evenodd" d="M19 3H5a2 2 0 0 0-2 2v14a2 2 0 0 0 2 2h14a2 2 0 0 0 2-2V5a2 2 0 0 0-2-2ZM5 2a3 3 0 0 0-3 3v14a3 3 0 0 0 3 3h14a3 3 0 0 0 3-3V5a3 3 0 0 0-3-3H5Z" clip-rule="evenodd"/><path fill="#7A7A7A" fill-rule="evenodd" d="M10.83 6.114a6.027 6.027 0 0 1 2.34 0 .5.5 0 0 1-.194.981 5.027 5.027 0 0 0-1.952 0 .5.5 0 0 1-.194-.98Zm3.81 1.034a.5.5 0 0 1 .694-.137 6.03 6.03 0 0 1 1.655 1.655.5.5 0 0 1-.83.556 5.03 5.03 0 0 0-1.381-1.38.5.5 0 0 1-.138-.694Zm-5.28 0a.5.5 0 0 1-.138.694 5.03 5.03 0 0 0-1.38 1.38.5.5 0 1 1-.831-.556 6.03 6.03 0 0 1 1.655-1.655.5.5 0 0 1 .694.137Zm7.938 3.288a.5.5 0 0 1 .588.394 6.023 6.023 0 0 1 0 2.34.5.5 0 1 1-.981-.194 5.027 5.027 0 0 0 0-1.952.5.5 0 0 1 .393-.588Zm-10.596 0a.5.5 0 0 1 .393.588 5.027 5.027 0 0 0 0 1.952.5.5 0 0 1-.98.194 6.027 6.027 0 0 1 0-2.34.5.5 0 0 1 .587-.394Zm10.15 4.204a.5.5 0 0 1 .137.694 6.03 6.03 0 0 1-1.655 1.655.5.5 0 0 1-.556-.83 5.03 5.03 0 0 0 1.38-1.381.5.5 0 0 1 .694-.138Zm-9.704 0a.5.5 0 0 1 .694.138 5.03 5.03 0 0 0 1.38 1.38.5.5 0 0 1-.556.831 6.03 6.03 0 0 1-1.655-1.655.5.5 0 0 1 .137-.694Zm3.288 2.658a.5.5 0 0 1 .588-.393 5.027 5.027 0 0 0 1.952 0 .5.5 0 0 1 .194.98 6.023 6.023 0 0 1-2.34 0 .5.5 0 0 1-.394-.587Z" clip-rule="evenodd"/><defs><linearGradient id="icon-6a1615bbc6382627__icon-6ddf6c2dd31ab2c0__a" x1="7.556" x2="10.085" y1="2" y2="22.239" gradientUnits="userSpaceOnUse"><stop stop-color="#fff"/><stop offset="1" stop-color="#EBEBEB"/></linearGradient><linearGradient id="icon-334bb3865813ad53__icon-51e12b799c86f5f2__c" x1="8.458" x2="11.151" y1="2" y2="22.197" gradientUnits="userSpaceOnUse"><stop stop-color="#BBB"/><stop offset="1" stop-color="#888"/></linearGradient><radialGradient id="icon-4fc70b616e22eaf2__icon-80966444713900d9__b" cx="0" cy="0" r="1" gradientTransform="rotate(56.31 -2.54 11.442) scale(19.0293 16.4677)" gradientUnits="userSpaceOnUse"><stop offset=".177" stop-color="#fff"/><stop offset="1" stop-color="#B8B8B8"/></radialGradient></defs></svg>