<svg xmlns="http://www.w3.org/2000/svg" width="40" height="40" fill="currentColor"><path fill="url(#icon-97a1e0126ed66296__icon-4cda1bb60d222c0a__a)" d="M4 8a4 4 0 0 1 4-4h24a4 4 0 0 1 4 4v24a4 4 0 0 1-4 4H8a4 4 0 0 1-4-4V8Z"/><path fill="url(#icon-c276d8f00e389a94__icon-ab174a9cf07dbde4__b)" fill-opacity=".2" d="M4 8a4 4 0 0 1 4-4h24a4 4 0 0 1 4 4v24a4 4 0 0 1-4 4H8a4 4 0 0 1-4-4V8Z"/><path fill="url(#icon-60a8a05b5ad7b139__icon-3adf6643a2744303__c)" fill-rule="evenodd" d="M32 5H8a3 3 0 0 0-3 3v24a3 3 0 0 0 3 3h24a3 3 0 0 0 3-3V8a3 3 0 0 0-3-3ZM8 4a4 4 0 0 0-4 4v24a4 4 0 0 0 4 4h24a4 4 0 0 0 4-4V8a4 4 0 0 0-4-4H8Z" clip-rule="evenodd"/><path fill="#7A7A7A" fill-rule="evenodd" d="M18.63 9.589a10.595 10.595 0 0 1 2.74 0 .5.5 0 0 1-.129.991 9.606 9.606 0 0 0-2.482 0 .5.5 0 0 1-.13-.991Zm4.736.978a.5.5 0 0 1 .653-.27c.854.354 1.651.817 2.373 1.372a.5.5 0 0 1-.609.793 9.486 9.486 0 0 0-2.147-1.241.5.5 0 0 1-.27-.654Zm-6.732 0a.5.5 0 0 1-.27.654c-.772.32-1.493.739-2.147 1.242a.5.5 0 0 1-.61-.793 10.49 10.49 0 0 1 2.374-1.373.5.5 0 0 1 .653.27Zm10.995 2.949a.5.5 0 0 1 .701.091 10.49 10.49 0 0 1 1.373 2.374.5.5 0 0 1-.924.383 9.488 9.488 0 0 0-1.241-2.147.5.5 0 0 1 .091-.701Zm-15.258 0a.5.5 0 0 1 .091.7 9.488 9.488 0 0 0-1.241 2.148.5.5 0 1 1-.924-.383 10.49 10.49 0 0 1 1.372-2.373.5.5 0 0 1 .702-.092Zm17.48 4.682a.5.5 0 0 1 .56.431 10.603 10.603 0 0 1 0 2.742.5.5 0 0 1-.991-.13 9.606 9.606 0 0 0 0-2.482.5.5 0 0 1 .43-.56Zm-19.702 0a.5.5 0 0 1 .431.56 9.606 9.606 0 0 0 0 2.483.5.5 0 0 1-.991.13 10.595 10.595 0 0 1 0-2.742.5.5 0 0 1 .56-.43Zm19.284 5.168a.5.5 0 0 1 .27.653 10.49 10.49 0 0 1-1.372 2.373.5.5 0 0 1-.793-.609 9.486 9.486 0 0 0 1.241-2.147.5.5 0 0 1 .654-.27Zm-18.866 0a.5.5 0 0 1 .654.27c.32.772.739 1.493 1.242 2.147a.5.5 0 0 1-.793.61 10.49 10.49 0 0 1-1.373-2.374.5.5 0 0 1 .27-.653Zm15.917 4.263a.5.5 0 0 1-.092.701 10.49 10.49 0 0 1-2.373 1.373.5.5 0 0 1-.383-.924 9.488 9.488 0 0 0 2.147-1.241.5.5 0 0 1 .701.091Zm-12.968 0a.5.5 0 0 1 .7-.091 9.488 9.488 0 0 0 2.148 1.241.5.5 0 1 1-.383.924 10.49 10.49 0 0 1-2.373-1.372.5.5 0 0 1-.092-.702Zm4.682 2.222a.5.5 0 0 1 .56-.431 9.606 9.606 0 0 0 2.483 0 .5.5 0 0 1 .13.991 10.603 10.603 0 0 1-2.742 0 .5.5 0 0 1-.43-.56Z" clip-rule="evenodd"/><defs><linearGradient id="icon-97a1e0126ed66296__icon-4cda1bb60d222c0a__a" x1="12.889" x2="16.937" y1="4" y2="36.383" gradientUnits="userSpaceOnUse"><stop stop-color="#fff"/><stop offset="1" stop-color="#EBEBEB"/></linearGradient><linearGradient id="icon-60a8a05b5ad7b139__icon-3adf6643a2744303__c" x1="14.333" x2="18.642" y1="4" y2="36.314" gradientUnits="userSpaceOnUse"><stop stop-color="#BBB"/><stop offset="1" stop-color="#888"/></linearGradient><radialGradient id="icon-c276d8f00e389a94__icon-ab174a9cf07dbde4__b" cx="0" cy="0" r="1" gradientTransform="rotate(56.31 -4.411 19.454) scale(30.4469 26.3483)" gradientUnits="userSpaceOnUse"><stop offset=".177" stop-color="#fff"/><stop offset="1" stop-color="#B8B8B8"/></radialGradient></defs></svg>