<svg xmlns="http://www.w3.org/2000/svg" width="32" height="32" fill="currentColor"><path fill="url(#icon-0a4070b68e0e3378__icon-b99243f2ec0d3e42__a)" d="M3 6.5A3.5 3.5 0 0 1 6.5 3h19A3.5 3.5 0 0 1 29 6.5v19a3.5 3.5 0 0 1-3.5 3.5h-19A3.5 3.5 0 0 1 3 25.5v-19Z"/><path fill="url(#icon-a69871d745025414__icon-34e3d895e8a63c40__b)" fill-opacity=".2" d="M3 6.5A3.5 3.5 0 0 1 6.5 3h19A3.5 3.5 0 0 1 29 6.5v19a3.5 3.5 0 0 1-3.5 3.5h-19A3.5 3.5 0 0 1 3 25.5v-19Z"/><path fill="url(#icon-adf1aa9928d61820__icon-a55f149ec588cefa__c)" fill-rule="evenodd" d="M25.5 4h-19A2.5 2.5 0 0 0 4 6.5v19A2.5 2.5 0 0 0 6.5 28h19a2.5 2.5 0 0 0 2.5-2.5v-19A2.5 2.5 0 0 0 25.5 4Zm-19-1A3.5 3.5 0 0 0 3 6.5v19A3.5 3.5 0 0 0 6.5 29h19a3.5 3.5 0 0 0 3.5-3.5v-19A3.5 3.5 0 0 0 25.5 3h-19Z" clip-rule="evenodd"/><path fill="#7A7A7A" fill-rule="evenodd" d="M14.44 8.152a8.036 8.036 0 0 1 3.12 0 .5.5 0 0 1-.193.981 7.037 7.037 0 0 0-2.734 0 .5.5 0 1 1-.194-.98Zm5.312 1.333a.5.5 0 0 1 .693-.137 8.04 8.04 0 0 1 2.207 2.207.5.5 0 0 1-.83.556 7.043 7.043 0 0 0-1.933-1.932.5.5 0 0 1-.137-.694Zm-7.504 0a.5.5 0 0 1-.137.694 7.043 7.043 0 0 0-1.932 1.932.5.5 0 1 1-.831-.556 8.04 8.04 0 0 1 2.207-2.207.5.5 0 0 1 .693.137Zm-3.508 4.56a.5.5 0 0 1 .393.588 7.037 7.037 0 0 0 0 2.734.5.5 0 0 1-.98.194 8.038 8.038 0 0 1 0-3.122.5.5 0 0 1 .587-.393Zm14.52 0a.5.5 0 0 1 .588.394 8.031 8.031 0 0 1 0 3.122.5.5 0 0 1-.981-.194 7.042 7.042 0 0 0 0-2.734.5.5 0 0 1 .393-.587ZM9.485 19.753a.5.5 0 0 1 .694.137 7.043 7.043 0 0 0 1.932 1.932.5.5 0 1 1-.556.831 8.04 8.04 0 0 1-2.207-2.207.5.5 0 0 1 .137-.693Zm13.03 0a.5.5 0 0 1 .137.693 8.04 8.04 0 0 1-2.207 2.207.5.5 0 0 1-.556-.83 7.043 7.043 0 0 0 1.932-1.933.5.5 0 0 1 .694-.137Zm-8.47 3.508a.5.5 0 0 1 .588-.393 7.042 7.042 0 0 0 2.734 0 .5.5 0 1 1 .194.98 8.033 8.033 0 0 1-3.122 0 .5.5 0 0 1-.393-.587Z" clip-rule="evenodd"/><defs><linearGradient id="icon-0a4070b68e0e3378__icon-b99243f2ec0d3e42__a" x1="10.222" x2="13.511" y1="3" y2="29.311" gradientUnits="userSpaceOnUse"><stop stop-color="#fff"/><stop offset="1" stop-color="#EBEBEB"/></linearGradient><linearGradient id="icon-adf1aa9928d61820__icon-a55f149ec588cefa__c" x1="11.396" x2="14.897" y1="3" y2="29.256" gradientUnits="userSpaceOnUse"><stop stop-color="#BBB"/><stop offset="1" stop-color="#888"/></linearGradient><radialGradient id="icon-a69871d745025414__icon-34e3d895e8a63c40__b" cx="0" cy="0" r="1" gradientTransform="rotate(56.31 -3.476 15.448) scale(24.7381 21.408)" gradientUnits="userSpaceOnUse"><stop offset=".177" stop-color="#fff"/><stop offset="1" stop-color="#B8B8B8"/></radialGradient></defs></svg>