<svg xmlns="http://www.w3.org/2000/svg" width="48" height="48" fill="currentColor"><path fill="url(#icon-b77f099213ef4b3a__icon-ead208c7aabbdd0a__a)" d="M5 10a5 5 0 0 1 5-5h28a5 5 0 0 1 5 5v28a5 5 0 0 1-5 5H10a5 5 0 0 1-5-5V10Z"/><path fill="url(#icon-e86f728dc80b6341__icon-d4fd6864f5597615__b)" fill-opacity=".2" d="M5 10a5 5 0 0 1 5-5h28a5 5 0 0 1 5 5v28a5 5 0 0 1-5 5H10a5 5 0 0 1-5-5V10Z"/><path fill="url(#icon-8023dad8d16e95a6__icon-7d165a86e82b47bf__c)" fill-rule="evenodd" d="M38 6H10a4 4 0 0 0-4 4v28a4 4 0 0 0 4 4h28a4 4 0 0 0 4-4V10a4 4 0 0 0-4-4ZM10 5a5 5 0 0 0-5 5v28a5 5 0 0 0 5 5h28a5 5 0 0 0 5-5V10a5 5 0 0 0-5-5H10Z" clip-rule="evenodd"/><path fill="#7A7A7A" fill-rule="evenodd" d="M22.368 11.606a12.614 12.614 0 0 1 3.264 0 .5.5 0 0 1-.13.991 11.616 11.616 0 0 0-3.005 0 .5.5 0 1 1-.129-.991Zm5.764 1.113a.5.5 0 0 1 .653-.27c1.017.421 1.965.973 2.825 1.634a.5.5 0 0 1-.61.793 11.482 11.482 0 0 0-2.598-1.504.5.5 0 0 1-.27-.653Zm-8.264 0a.5.5 0 0 1-.27.653c-.935.388-1.807.895-2.599 1.504a.5.5 0 0 1-.61-.793c.86-.661 1.81-1.213 2.826-1.634a.5.5 0 0 1 .653.27Zm13.348 3.58a.5.5 0 0 1 .701.09c.661.86 1.213 1.81 1.634 2.826a.5.5 0 0 1-.923.383A11.482 11.482 0 0 0 33.124 17a.5.5 0 0 1 .092-.7Zm-18.432 0a.5.5 0 0 1 .092.7 11.482 11.482 0 0 0-1.504 2.6.5.5 0 1 1-.923-.384 12.489 12.489 0 0 1 1.634-2.825.5.5 0 0 1 .7-.092Zm21.05 5.638a.5.5 0 0 1 .56.431 12.614 12.614 0 0 1 0 3.264.5.5 0 0 1-.991-.13 11.616 11.616 0 0 0 0-3.005.5.5 0 0 1 .43-.56Zm-23.668 0a.5.5 0 0 1 .431.56 11.616 11.616 0 0 0 0 3.006.5.5 0 1 1-.991.129 12.614 12.614 0 0 1 0-3.264.5.5 0 0 1 .56-.431Zm23.115 6.195a.5.5 0 0 1 .27.653 12.489 12.489 0 0 1-1.634 2.825.5.5 0 0 1-.793-.61 11.482 11.482 0 0 0 1.504-2.598.5.5 0 0 1 .653-.27Zm-22.562 0a.5.5 0 0 1 .653.27c.388.935.895 1.807 1.504 2.599a.5.5 0 0 1-.793.61 12.489 12.489 0 0 1-1.634-2.826.5.5 0 0 1 .27-.653Zm18.983 5.084a.5.5 0 0 1-.092.701c-.86.661-1.808 1.213-2.825 1.634a.5.5 0 0 1-.383-.923A11.482 11.482 0 0 0 31 33.124a.5.5 0 0 1 .7.092Zm-15.404 0a.5.5 0 0 1 .701-.092 11.482 11.482 0 0 0 2.6 1.504.5.5 0 1 1-.384.923 12.489 12.489 0 0 1-2.825-1.634.5.5 0 0 1-.092-.7Zm9.765 2.618a.5.5 0 0 1-.431.56 12.614 12.614 0 0 1-3.264 0 .5.5 0 0 1 .13-.991 11.616 11.616 0 0 0 3.005 0 .5.5 0 0 1 .56.43Z" clip-rule="evenodd"/><defs><linearGradient id="icon-b77f099213ef4b3a__icon-ead208c7aabbdd0a__a" x1="15.556" x2="20.362" y1="5" y2="43.455" gradientUnits="userSpaceOnUse"><stop stop-color="#fff"/><stop offset="1" stop-color="#EBEBEB"/></linearGradient><linearGradient id="icon-8023dad8d16e95a6__icon-7d165a86e82b47bf__c" x1="17.271" x2="22.387" y1="5" y2="43.373" gradientUnits="userSpaceOnUse"><stop stop-color="#BBB"/><stop offset="1" stop-color="#888"/></linearGradient><radialGradient id="icon-e86f728dc80b6341__icon-d4fd6864f5597615__b" cx="0" cy="0" r="1" gradientTransform="rotate(56.31 -5.347 23.46) scale(36.1557 31.2886)" gradientUnits="userSpaceOnUse"><stop offset=".177" stop-color="#fff"/><stop offset="1" stop-color="#B8B8B8"/></radialGradient></defs></svg>