<svg xmlns="http://www.w3.org/2000/svg" width="24" height="24" fill="currentColor"><path d="M16 4a1 1 0 1 0 0-2 1 1 0 0 0 0 2ZM11 6.5a3 3 0 0 0-3 3 2.25 2.25 0 0 0 2.25 2.25 1.5 1.5 0 0 0 1.5-1.5.75.75 0 0 0-.75-.75.75.75 0 0 1-1.5 0A1.5 1.5 0 0 1 11 8a2.25 2.25 0 0 1 2.25 2.25 3 3 0 0 1-3 3A3.75 3.75 0 0 1 6.5 9.5 4.5 4.5 0 0 1 11 5c2.9 0 5.25 2.35 5.25 5.25 0 .392-.038.776-.11 1.147a2.48 2.48 0 0 0-.875.986l-1.28 2.563a5.975 5.975 0 0 1-3.735 1.304.75.75 0 0 1 0-1.5 4.5 4.5 0 0 0 4.5-4.5A3.75 3.75 0 0 0 11 6.5Z"/><path d="M10.25 17.25a6.974 6.974 0 0 0 2.897-.626l-1.877 3.757A2.471 2.471 0 0 0 11.055 22H7.25A3.25 3.25 0 0 1 4 18.75v-4.599l-1.834 1.223a.75.75 0 1 1-.832-1.248l2.37-1.58A3.25 3.25 0 0 1 5.507 12h.703a4.757 4.757 0 0 0 2.956 2.126 1.75 1.75 0 0 0 1.084 3.124ZM20.25 5a.75.75 0 0 0-1.5 0v.75H18a.75.75 0 0 0 0 1.5h.75V8a.75.75 0 0 0 1.5 0v-.75H21a.75.75 0 0 0 0-1.5h-.75V5ZM16.161 12.83l-3.997 7.998A1.5 1.5 0 0 0 13.507 23h7.994a1.5 1.5 0 0 0 1.343-2.172l-3.997-7.998c-.553-1.107-2.133-1.107-2.686 0Zm1.843 2.666v3.001a.5.5 0 0 1-1 0v-3.001a.5.5 0 0 1 1 0Zm-.5 5.503a.5.5 0 1 1 0-1.001.5.5 0 0 1 0 1Z"/></svg>