<svg xmlns="http://www.w3.org/2000/svg" width="24" height="24" fill="currentColor"><path d="M16 4a1 1 0 1 0 0-2 1 1 0 0 0 0 2ZM8 9.5a3 3 0 0 1 3-3 3.75 3.75 0 0 1 3.75 3.75 4.5 4.5 0 0 1-4.5 4.5.75.75 0 1 0 0 1.5c1.412 0 2.71-.488 3.735-1.304l1.28-2.563a2.48 2.48 0 0 1 .875-.986 6.03 6.03 0 0 0 .11-1.147C16.25 7.35 13.9 5 11 5a4.5 4.5 0 0 0-4.5 4.5 3.75 3.75 0 0 0 3.75 3.75 3 3 0 0 0 3-3A2.25 2.25 0 0 0 11 8a1.5 1.5 0 0 0-1.5 1.5.75.75 0 0 0 1.5 0 .75.75 0 0 1 .75.75 1.5 1.5 0 0 1-1.5 1.5A2.25 2.25 0 0 1 8 9.5ZM11.214 20.5H7.25a1.75 1.75 0 0 1-1.75-1.75v-6a.75.75 0 0 0-1.166-.624l-3 2a.75.75 0 1 0 .832 1.248L4 14.151v4.599A3.25 3.25 0 0 0 7.25 22h3.805c-.1-.482-.06-1.002.159-1.5ZM19.5 4.25a.75.75 0 0 1 .75.75v.75H21a.75.75 0 0 1 0 1.5h-.75V8a.75.75 0 0 1-1.5 0v-.75H18a.75.75 0 0 1 0-1.5h.75V5a.75.75 0 0 1 .75-.75ZM16.161 12.83l-3.997 7.998A1.5 1.5 0 0 0 13.507 23h7.994a1.5 1.5 0 0 0 1.343-2.172l-3.997-7.998c-.553-1.107-2.133-1.107-2.686 0Zm1.843 2.666v3.001a.5.5 0 0 1-1 0v-3.001a.5.5 0 0 1 1 0Zm-.5 5.503a.5.5 0 1 1 0-1.001.5.5 0 0 1 0 1Z"/></svg>