<svg xmlns="http://www.w3.org/2000/svg" width="16" height="16" fill="currentColor"><path d="M11.5 3.25a.75.75 0 1 0 0-1.5.75.75 0 0 0 0 1.5ZM4.5 5.5A2.5 2.5 0 0 1 7 3c1.344 0 2.482.884 2.864 2.103-.334.11-.643.31-.886.599A2 2 0 0 0 7 4a1.5 1.5 0 0 0-1.5 1.5 1 1 0 0 0 1 1A.5.5 0 0 0 7 6a.5.5 0 0 1 0-1 1 1 0 0 1 1 1 1.5 1.5 0 0 1-1.5 1.5 2 2 0 0 1-2-2ZM6.5 8.5a2.49 2.49 0 0 0 1.16-.285L7.04 9.46a3.527 3.527 0 0 1-.54.041.5.5 0 0 1 0-1ZM5.27 13H5a1 1 0 0 1-1-1V8.5a.5.5 0 0 0-.724-.447l-2 1a.5.5 0 1 0 .447.894l1.276-.638V12a2 2 0 0 0 2 2h.006c0-.297.067-.602.213-.896L5.271 13ZM12.5 6a.498.498 0 0 1-.363-.156 2.023 2.023 0 0 0-.071-.096A.5.5 0 0 1 12.5 5h.5v-.5a.5.5 0 0 1 1 0V5h.5a.5.5 0 1 1 0 1H14v.5a.5.5 0 1 1-1 0V6h-.5ZM9.603 6.554l-3.496 6.998A1 1 0 0 0 7.002 15h6.996a1 1 0 0 0 .895-1.448l-3.5-6.999a1 1 0 0 0-1.79 0Zm1.395 1.941v3.002a.5.5 0 1 1-1 0V8.495a.5.5 0 1 1 1 0Zm-.5 5.504a.5.5 0 1 1 0-1 .5.5 0 0 1 0 1Z"/></svg>