<svg xmlns="http://www.w3.org/2000/svg" width="20" height="20" fill="currentColor"><path d="M7.987 4.18a12.213 12.213 0 0 0-.669 2.32h5.364a12.21 12.21 0 0 0-.67-2.32c-.301-.733-.648-1.294-1.008-1.663C10.646 2.149 10.307 2 10 2c-.307 0-.646.149-1.004.517-.36.37-.707.93-1.009 1.663ZM7.89 2.281c-.313.426-.59.941-.827 1.518-.32.78-.58 1.694-.762 2.701H2.804a8.02 8.02 0 0 1 5.087-4.219ZM12.937 3.8a7.19 7.19 0 0 0-.827-1.519A8.02 8.02 0 0 1 17.196 6.5h-3.497c-.182-1.007-.441-1.922-.762-2.7ZM17.602 7.5H13.85c.06.493.104 1.002.128 1.524a5.477 5.477 0 0 1 4.018 1.23 7.994 7.994 0 0 0-.394-2.754ZM12.985 9.211a18.997 18.997 0 0 0-.143-1.711H7.158A19.438 19.438 0 0 0 7 10c0 .875.056 1.714.158 2.5h2.217a5.514 5.514 0 0 1 3.61-3.289ZM7.318 13.5h1.773c-.06.324-.091.659-.091 1 0 1.316.462 2.525 1.234 3.471A.987.987 0 0 1 10 18c-.307 0-.646-.149-1.004-.517-.36-.37-.707-.93-1.009-1.663a12.211 12.211 0 0 1-.669-2.32ZM2.804 13.5a8.02 8.02 0 0 0 5.087 4.219 7.187 7.187 0 0 1-.828-1.518c-.32-.78-.58-1.694-.762-2.701H2.804ZM2.398 12.5H6.15A20.524 20.524 0 0 1 6 10c0-.866.052-1.705.15-2.5H2.398A7.993 7.993 0 0 0 2 10c0 .873.14 1.713.398 2.5ZM12.065 11.442a2 2 0 0 1-1.43 2.478l-.461.118a4.734 4.734 0 0 0 .01 1.016l.35.083a2 2 0 0 1 1.455 2.519l-.126.422c.257.204.537.378.835.518l.325-.344a2 2 0 0 1 2.909.002l.337.358c.293-.135.568-.302.822-.498l-.156-.556a2 2 0 0 1 1.43-2.479l.461-.117a4.731 4.731 0 0 0-.01-1.017l-.349-.082a2 2 0 0 1-1.456-2.52l.126-.421a4.318 4.318 0 0 0-.835-.519l-.324.344a2 2 0 0 1-2.91-.001l-.337-.358a4.316 4.316 0 0 0-.822.497l.156.557ZM14.5 15.5a1 1 0 1 1 0-2 1 1 0 0 1 0 2Z"/></svg>