<svg xmlns="http://www.w3.org/2000/svg" width="20" height="20" fill="currentColor"><path d="M10 18c.085 0 .17-.001.254-.004a5.504 5.504 0 0 1-.698-1.083c-.536-.207-1.098-.793-1.578-1.821A9.254 9.254 0 0 1 7.42 13.5h1.672c.063-.346.159-.68.284-1H7.206A14.87 14.87 0 0 1 7 10c0-.883.073-1.725.206-2.5h5.588c.092.541.156 1.115.186 1.713.32-.092.651-.155.992-.188a15.538 15.538 0 0 0-.165-1.525h2.733c.251.656.406 1.36.448 2.094.361.183.699.405 1.008.66A8 8 0 1 0 10 18Zm0-15c.657 0 1.407.59 2.022 1.908.217.466.406 1.002.559 1.592H7.419c.153-.59.342-1.126.56-1.592C8.592 3.59 9.342 3 10 3ZM7.072 4.485A10.502 10.502 0 0 0 6.389 6.5H3.936a7.022 7.022 0 0 1 3.778-3.118c-.241.33-.456.704-.642 1.103ZM6.192 7.5A15.97 15.97 0 0 0 6 10c0 .87.067 1.712.193 2.5H3.46A6.984 6.984 0 0 1 3 10c0-.88.163-1.724.46-2.5h2.733Zm.197 6c.176.743.407 1.422.683 2.015.186.399.401.773.642 1.103A7.022 7.022 0 0 1 3.936 13.5H6.39Zm5.897-10.118A7.021 7.021 0 0 1 16.064 6.5H13.61a10.504 10.504 0 0 0-.683-2.015 6.635 6.635 0 0 0-.642-1.103Z"/><path d="M12.065 11.442a2 2 0 0 1-1.43 2.478l-.461.118a4.734 4.734 0 0 0 .01 1.016l.35.083a2 2 0 0 1 1.455 2.519l-.126.422c.257.204.537.378.835.518l.325-.344a2 2 0 0 1 2.909.002l.337.358c.293-.135.568-.302.822-.498l-.156-.556a2 2 0 0 1 1.43-2.479l.461-.117a4.731 4.731 0 0 0-.01-1.017l-.349-.082a2 2 0 0 1-1.456-2.52l.126-.421a4.318 4.318 0 0 0-.835-.519l-.324.344a2 2 0 0 1-2.91-.001l-.337-.358a4.316 4.316 0 0 0-.822.497l.156.557ZM14.5 15.5a1 1 0 1 1 0-2 1 1 0 0 1 0 2Z"/></svg>