<svg xmlns="http://www.w3.org/2000/svg" width="32" height="32" fill="currentColor"><path fill="url(#icon-b8e7addc645a8e7e__icon-cd576edd03196919__a)" fill-rule="evenodd" d="M10.5 4a3.75 3.75 0 1 0 0 7.5 3.75 3.75 0 0 0 0-7.5ZM7.75 7.75a2.75 2.75 0 1 1 5.5 0 2.75 2.75 0 0 1-5.5 0Z" clip-rule="evenodd"/><path fill="url(#icon-37e2038ae7d7aaab__icon-5178078314f09ecb__b)" fill-rule="evenodd" d="M12.25 14.75a3.75 3.75 0 1 1 7.5 0 3.75 3.75 0 0 1-7.5 0ZM16 12a2.75 2.75 0 1 0 0 5.5 2.75 2.75 0 0 0 0-5.5Z" clip-rule="evenodd"/><path fill="url(#icon-269017e56fd41ed5__icon-93feafc2e14438ae__c)" fill-rule="evenodd" d="M9.5 22.377c0 .24 0 1.632.83 2.98C11.2 26.773 12.894 28 16 28s4.8-1.228 5.67-2.642c.83-1.349.83-2.74.83-2.981v-.395A1.982 1.982 0 0 0 20.518 20h-9.036A1.982 1.982 0 0 0 9.5 21.982v.395Zm12 0v-.395a.982.982 0 0 0-.982-.982h-9.036a.982.982 0 0 0-.982.982v.395c0 .197.003 1.353.682 2.457C11.85 25.919 13.202 27 16 27c2.799 0 4.15-1.08 4.818-2.166.68-1.104.682-2.26.682-2.457Z" clip-rule="evenodd"/><path fill="url(#icon-663bd25bd11cacdb__icon-3b440df22baeceea__d)" fill-rule="evenodd" d="M17.75 7.75a3.75 3.75 0 1 1 7.5 0 3.75 3.75 0 0 1-7.5 0ZM21.5 5a2.75 2.75 0 1 0 0 5.5 2.75 2.75 0 0 0 0-5.5Z" clip-rule="evenodd"/><path fill="url(#icon-f011eb59b1716091__icon-16437cd912c9b29a__e)" d="M5.982 13h5.6a4.714 4.714 0 0 0-.273 1H5.982a.982.982 0 0 0-.982.982v.395c0 .197.003 1.353.682 2.457.566.92 1.624 1.837 3.638 2.095a2.986 2.986 0 0 0-.596.918c-2.005-.371-3.207-1.372-3.894-2.49C4 17.01 4 15.618 4 15.378v-.395C4 13.887 4.887 13 5.982 13Z"/><path fill="url(#icon-28fb18a95a47c469__icon-59bac828dedaa73f__f)" d="M27.17 18.358c-.687 1.117-1.889 2.118-3.894 2.489a2.984 2.984 0 0 0-.596-.918c2.014-.258 3.072-1.175 3.638-2.095.68-1.104.682-2.26.682-2.457v-.395a.982.982 0 0 0-.982-.982H20.69a4.714 4.714 0 0 0-.274-1h5.6c1.096 0 1.983.887 1.983 1.982v.395c0 .24 0 1.632-.83 2.98Z"/><defs><linearGradient id="icon-b8e7addc645a8e7e__icon-cd576edd03196919__a" x1="4" x2="28" y1="4" y2="28" gradientUnits="userSpaceOnUse"><stop stop-color="#209782"/><stop offset="1" stop-color="#0C695A"/></linearGradient><linearGradient id="icon-37e2038ae7d7aaab__icon-5178078314f09ecb__b" x1="4" x2="28" y1="4" y2="28" gradientUnits="userSpaceOnUse"><stop stop-color="#209782"/><stop offset="1" stop-color="#0C695A"/></linearGradient><linearGradient id="icon-269017e56fd41ed5__icon-93feafc2e14438ae__c" x1="4" x2="28" y1="4" y2="28" gradientUnits="userSpaceOnUse"><stop stop-color="#209782"/><stop offset="1" stop-color="#0C695A"/></linearGradient><linearGradient id="icon-663bd25bd11cacdb__icon-3b440df22baeceea__d" x1="4" x2="28" y1="4" y2="28" gradientUnits="userSpaceOnUse"><stop stop-color="#209782"/><stop offset="1" stop-color="#0C695A"/></linearGradient><linearGradient id="icon-f011eb59b1716091__icon-16437cd912c9b29a__e" x1="4" x2="28" y1="4" y2="28" gradientUnits="userSpaceOnUse"><stop stop-color="#209782"/><stop offset="1" stop-color="#0C695A"/></linearGradient><linearGradient id="icon-28fb18a95a47c469__icon-59bac828dedaa73f__f" x1="4" x2="28" y1="4" y2="28" gradientUnits="userSpaceOnUse"><stop stop-color="#209782"/><stop offset="1" stop-color="#0C695A"/></linearGradient></defs></svg>