<svg xmlns="http://www.w3.org/2000/svg" width="48" height="48" fill="currentColor"><path fill="url(#icon-06ec88d36b73dd0f__icon-78407abf97774acd__a)" fill-rule="evenodd" d="M9.5 10.5a5.5 5.5 0 1 1 11 0 5.5 5.5 0 0 1-11 0ZM15 6a4.5 4.5 0 1 0 0 9 4.5 4.5 0 0 0 0-9Z" clip-rule="evenodd"/><path fill="url(#icon-d61e720e9842f3cd__icon-c53376a59fd3b706__b)" d="M5.402 27.405c1.21 2.014 3.355 3.8 6.944 4.39.138-.332.315-.645.525-.932-3.544-.482-5.527-2.166-6.612-3.973C5.003 24.8 5 22.63 5 22.254v-.718C5 20.136 6.135 19 7.536 19h10.986c.23-.359.494-.694.788-1H7.536A3.536 3.536 0 0 0 4 21.536v.718c0 .417 0 2.818 1.402 5.151Z"/><path fill="url(#icon-4a8a5c0e375891aa__icon-f938d41eaac06394__c)" d="M35.654 31.795c3.59-.59 5.734-2.376 6.944-4.39C44 25.072 44 22.671 44 22.255v-.72A3.536 3.536 0 0 0 40.464 18H28.691c.294.306.558.641.787 1h10.986c1.4 0 2.536 1.135 2.536 2.536v.718c0 .375-.003 2.545-1.259 4.636-1.085 1.806-3.068 3.491-6.612 3.973.21.287.387.6.525.932Z"/><path fill="url(#icon-5af71875958efe07__icon-b3808ef8f99e3207__d)" fill-rule="evenodd" d="M33 5a5.5 5.5 0 1 0 0 11 5.5 5.5 0 0 0 0-11Zm-4.5 5.5a4.5 4.5 0 1 1 9 0 4.5 4.5 0 0 1-9 0Z" clip-rule="evenodd"/><path fill="url(#icon-a8f9722cedd4b3f1__icon-f0a7059f4bfd4d9b__e)" fill-rule="evenodd" d="M18.5 22.5a5.5 5.5 0 1 1 11 0 5.5 5.5 0 0 1-11 0ZM24 18a4.5 4.5 0 1 0 0 9 4.5 4.5 0 0 0 0-9Z" clip-rule="evenodd"/><path fill="url(#icon-e98de77d7a6ecb7a__icon-ef308d67c18e9e10__f)" fill-rule="evenodd" d="M35 34.254c0 .417 0 2.818-1.402 5.151C32.115 41.873 29.228 44 24 44c-5.228 0-8.116-2.127-9.598-4.595C13 37.072 13 34.671 13 34.255v-.72A3.536 3.536 0 0 1 16.536 30h14.928A3.536 3.536 0 0 1 35 33.536v.718Zm-2.259 4.636C33.997 36.8 34 34.63 34 34.254v-.718c0-1.4-1.135-2.536-2.536-2.536H16.536A2.536 2.536 0 0 0 14 33.536v.718c0 .375.003 2.545 1.259 4.636C16.545 41.03 19.09 43 24 43s7.455-1.97 8.741-4.11Z" clip-rule="evenodd"/><defs><linearGradient id="icon-06ec88d36b73dd0f__icon-78407abf97774acd__a" x1="4" x2="42.987" y1="5" y2="44.987" gradientUnits="userSpaceOnUse"><stop stop-color="#209782"/><stop offset="1" stop-color="#0C695A"/></linearGradient><linearGradient id="icon-d61e720e9842f3cd__icon-c53376a59fd3b706__b" x1="4" x2="42.987" y1="5" y2="44.987" gradientUnits="userSpaceOnUse"><stop stop-color="#209782"/><stop offset="1" stop-color="#0C695A"/></linearGradient><linearGradient id="icon-4a8a5c0e375891aa__icon-f938d41eaac06394__c" x1="4" x2="42.987" y1="5" y2="44.987" gradientUnits="userSpaceOnUse"><stop stop-color="#209782"/><stop offset="1" stop-color="#0C695A"/></linearGradient><linearGradient id="icon-5af71875958efe07__icon-b3808ef8f99e3207__d" x1="4" x2="42.987" y1="5" y2="44.987" gradientUnits="userSpaceOnUse"><stop stop-color="#209782"/><stop offset="1" stop-color="#0C695A"/></linearGradient><linearGradient id="icon-a8f9722cedd4b3f1__icon-f0a7059f4bfd4d9b__e" x1="4" x2="42.987" y1="5" y2="44.987" gradientUnits="userSpaceOnUse"><stop stop-color="#209782"/><stop offset="1" stop-color="#0C695A"/></linearGradient><linearGradient id="icon-e98de77d7a6ecb7a__icon-ef308d67c18e9e10__f" x1="4" x2="42.987" y1="5" y2="44.987" gradientUnits="userSpaceOnUse"><stop stop-color="#209782"/><stop offset="1" stop-color="#0C695A"/></linearGradient></defs></svg>