<svg xmlns="http://www.w3.org/2000/svg" width="24" height="24" fill="currentColor"><path fill="url(#icon-5c9786eff648ff4d__icon-db713e03ed492474__a)" fill-rule="evenodd" d="M4.5 5a3 3 0 1 1 6 0 3 3 0 0 1-6 0Zm3-2a2 2 0 1 0 0 4 2 2 0 0 0 0-4Z" clip-rule="evenodd"/><path fill="url(#icon-f762e26a6936d06b__icon-009e9cbba6d7454e__b)" fill-rule="evenodd" d="M12 8a3 3 0 1 0 0 6 3 3 0 0 0 0-6Zm-2 3a2 2 0 1 1 4 0 2 2 0 0 1-4 0Z" clip-rule="evenodd"/><path fill="url(#icon-a8bb2f66b592b84e__icon-911822c3d45f1541__c)" fill-rule="evenodd" d="M16.8 19.703c.7-1.167.7-2.367.7-2.576v-.36c0-.976-.791-1.767-1.768-1.767H8.268c-.977 0-1.768.791-1.768 1.768v.36c0 .207 0 1.408.7 2.575C7.943 20.937 9.387 22 12 22s4.058-1.063 4.8-2.297Zm-.3-2.576c0 .166-.003 1.136-.558 2.06C15.398 20.095 14.296 21 12 21c-2.296 0-3.398-.906-3.942-1.812-.555-.925-.558-1.895-.558-2.06v-.36c0-.424.344-.768.768-.768h7.464c.424 0 .768.344.768.768v.36Z" clip-rule="evenodd"/><path fill="url(#icon-6c4620ea31a931c3__icon-ab2fa4e233f8abc7__d)" d="M21.3 13.703c-.548.91-1.477 1.727-2.975 2.093a2.767 2.767 0 0 0-.556-.903c1.456-.265 2.24-.985 2.673-1.705.555-.925.558-1.895.558-2.06v-.36a.768.768 0 0 0-.768-.768h-4.358a3.976 3.976 0 0 0-.409-1h4.767C21.21 9 22 9.791 22 10.768v.36c0 .207 0 1.408-.7 2.575Z"/><path fill="url(#icon-88abe56f96e253f0__icon-506209c65b43237f__e)" d="M8.535 9H3.768C2.79 9 2 9.791 2 10.768v.36c0 .207 0 1.408.7 2.575.548.91 1.477 1.727 2.975 2.093.127-.337.317-.643.556-.903-1.456-.265-2.24-.985-2.673-1.705-.555-.925-.558-1.895-.558-2.06v-.36c0-.424.344-.768.768-.768h4.358c.091-.355.23-.69.41-1Z"/><path fill="url(#icon-08a4391e1344fe8a__icon-729862da45ca4b16__f)" fill-rule="evenodd" d="M16.5 2a3 3 0 1 0 0 6 3 3 0 0 0 0-6Zm-2 3a2 2 0 1 1 4 0 2 2 0 0 1-4 0Z" clip-rule="evenodd"/><defs><linearGradient id="icon-5c9786eff648ff4d__icon-db713e03ed492474__a" x1="2" x2="22" y1="2" y2="22" gradientUnits="userSpaceOnUse"><stop stop-color="#209782"/><stop offset="1" stop-color="#0C695A"/></linearGradient><linearGradient id="icon-f762e26a6936d06b__icon-009e9cbba6d7454e__b" x1="2" x2="22" y1="2" y2="22" gradientUnits="userSpaceOnUse"><stop stop-color="#209782"/><stop offset="1" stop-color="#0C695A"/></linearGradient><linearGradient id="icon-a8bb2f66b592b84e__icon-911822c3d45f1541__c" x1="2" x2="22" y1="2" y2="22" gradientUnits="userSpaceOnUse"><stop stop-color="#209782"/><stop offset="1" stop-color="#0C695A"/></linearGradient><linearGradient id="icon-6c4620ea31a931c3__icon-ab2fa4e233f8abc7__d" x1="2" x2="22" y1="2" y2="22" gradientUnits="userSpaceOnUse"><stop stop-color="#209782"/><stop offset="1" stop-color="#0C695A"/></linearGradient><linearGradient id="icon-88abe56f96e253f0__icon-506209c65b43237f__e" x1="2" x2="22" y1="2" y2="22" gradientUnits="userSpaceOnUse"><stop stop-color="#209782"/><stop offset="1" stop-color="#0C695A"/></linearGradient><linearGradient id="icon-08a4391e1344fe8a__icon-729862da45ca4b16__f" x1="2" x2="22" y1="2" y2="22" gradientUnits="userSpaceOnUse"><stop stop-color="#209782"/><stop offset="1" stop-color="#0C695A"/></linearGradient></defs></svg>