<svg xmlns="http://www.w3.org/2000/svg" width="40" height="40" fill="currentColor"><path fill="url(#icon-4c5dc04f6518ae29__icon-8cedcc2c27893984__a)" fill-rule="evenodd" d="M12.5 3.667a4.667 4.667 0 1 0 0 9.333 4.667 4.667 0 0 0 0-9.334ZM8.833 8.332a3.667 3.667 0 1 1 7.334 0 3.667 3.667 0 0 1-7.334 0Z" clip-rule="evenodd"/><path fill="url(#icon-03efbc232be6b9ef__icon-0c22e8b91de05270__b)" fill-rule="evenodd" d="M15.25 18.25a4.75 4.75 0 1 1 9.5 0 4.75 4.75 0 0 1-9.5 0ZM20 14.5a3.75 3.75 0 1 0 0 7.5 3.75 3.75 0 0 0 0-7.5Z" clip-rule="evenodd"/><path fill="url(#icon-94974fc44341b285__icon-f1ea9fa9b4084043__c)" fill-rule="evenodd" d="M29 28.343c0 .327 0 2.213-1.148 4.047C26.64 34.329 24.277 36 20 36c-4.277 0-6.64-1.671-7.853-3.61C11 30.556 11 28.67 11 28.343v-.565C11 26.244 12.294 25 13.892 25h12.215c1.597 0 2.892 1.244 2.892 2.778v.565Zm-1 0v-.565c0-.944-.81-1.778-1.893-1.778H13.892C12.808 26 12 26.834 12 27.778v.565c0 .281.002 1.93.995 3.517 1.008 1.61 3.027 3.14 7.005 3.14 3.978 0 5.998-1.53 7.006-3.14.992-1.587.994-3.236.994-3.517Z" clip-rule="evenodd"/><path fill="url(#icon-12365e3d8371a54a__icon-5f4b7ec5e7dcd6fd__d)" fill-rule="evenodd" d="M22.833 8.333a4.667 4.667 0 1 1 9.334 0 4.667 4.667 0 0 1-9.334 0ZM27.5 4.666a3.667 3.667 0 1 0 0 7.334 3.667 3.667 0 0 0 0-7.333Z" clip-rule="evenodd"/><path fill="url(#icon-acf458464ead66d8__icon-1b3074a7a8c50418__e)" d="M15.255 15a5.747 5.747 0 0 0-.549 1H6.392c-1.084 0-1.893.834-1.893 1.778v.565c0 .281.003 1.93.995 3.517.902 1.441 2.615 2.818 5.816 3.091-.306.263-.57.572-.78.918-3.058-.43-4.871-1.86-5.884-3.48C3.5 20.558 3.5 18.67 3.5 18.344v-.565C3.5 16.244 4.795 15 6.392 15h8.863Z"/><path fill="url(#icon-1d62feceb10dcdab__icon-a5dcd0cb86567430__f)" d="M25.293 16a5.747 5.747 0 0 0-.55-1h8.863c1.598 0 2.893 1.244 2.893 2.778v.565c0 .327 0 2.213-1.147 4.047-1.012 1.618-2.825 3.05-5.884 3.48a3.811 3.811 0 0 0-.78-.919c3.202-.273 4.915-1.65 5.817-3.091.992-1.587.994-3.236.994-3.517v-.565c0-.944-.809-1.778-1.893-1.778h-8.314Z"/><defs><linearGradient id="icon-4c5dc04f6518ae29__icon-8cedcc2c27893984__a" x1="3.499" x2="35.826" y1="3.667" y2="36.66" gradientUnits="userSpaceOnUse"><stop stop-color="#209782"/><stop offset="1" stop-color="#0C695A"/></linearGradient><linearGradient id="icon-03efbc232be6b9ef__icon-0c22e8b91de05270__b" x1="3.499" x2="35.826" y1="3.667" y2="36.66" gradientUnits="userSpaceOnUse"><stop stop-color="#209782"/><stop offset="1" stop-color="#0C695A"/></linearGradient><linearGradient id="icon-94974fc44341b285__icon-f1ea9fa9b4084043__c" x1="3.499" x2="35.826" y1="3.667" y2="36.66" gradientUnits="userSpaceOnUse"><stop stop-color="#209782"/><stop offset="1" stop-color="#0C695A"/></linearGradient><linearGradient id="icon-12365e3d8371a54a__icon-5f4b7ec5e7dcd6fd__d" x1="3.499" x2="35.826" y1="3.667" y2="36.66" gradientUnits="userSpaceOnUse"><stop stop-color="#209782"/><stop offset="1" stop-color="#0C695A"/></linearGradient><linearGradient id="icon-acf458464ead66d8__icon-1b3074a7a8c50418__e" x1="3.499" x2="35.826" y1="3.667" y2="36.66" gradientUnits="userSpaceOnUse"><stop stop-color="#209782"/><stop offset="1" stop-color="#0C695A"/></linearGradient><linearGradient id="icon-1d62feceb10dcdab__icon-a5dcd0cb86567430__f" x1="3.499" x2="35.826" y1="3.667" y2="36.66" gradientUnits="userSpaceOnUse"><stop stop-color="#209782"/><stop offset="1" stop-color="#0C695A"/></linearGradient></defs></svg>