<svg xmlns="http://www.w3.org/2000/svg" width="40" height="40" fill="currentColor"><path fill="url(#icon-8839a7110a3cd22e__icon-6ab7706638ae42fb__a)" d="M4 8a4 4 0 0 1 4-4h24a4 4 0 0 1 4 4v24a4 4 0 0 1-4 4H8a4 4 0 0 1-4-4V8Z"/><path fill="url(#icon-23286b82e945aaa5__icon-8eacb01fe967886f__b)" fill-opacity=".2" d="M4 8a4 4 0 0 1 4-4h24a4 4 0 0 1 4 4v24a4 4 0 0 1-4 4H8a4 4 0 0 1-4-4V8Z"/><path fill="url(#icon-4b62f2cdded93d1a__icon-fef5399ac108a010__c)" fill-rule="evenodd" d="M32 5H8a3 3 0 0 0-3 3v24a3 3 0 0 0 3 3h24a3 3 0 0 0 3-3V8a3 3 0 0 0-3-3ZM8 4a4 4 0 0 0-4 4v24a4 4 0 0 0 4 4h24a4 4 0 0 0 4-4V8a4 4 0 0 0-4-4H8Z" clip-rule="evenodd"/><path fill="url(#icon-45eca471db47d236__icon-754c377f7e3507e4__d)" d="M19.388 14.29a4.302 4.302 0 0 0-6.127-.016c-1.688 1.705-1.68 4.476.016 6.189l6.277 6.34c.26.263.682.263.943 0l2.9-2.93a1.5 1.5 0 0 1-.799-.839l-.731-1.92-.005.011a1.5 1.5 0 0 1-1.362.87h-2a1.5 1.5 0 0 1 0-3h1.04l1.098-2.374a1.5 1.5 0 0 1 2.764.095l.784 2.058.472-.945a1.5 1.5 0 0 1 2.613-.125l.566.904a4.414 4.414 0 0 0-1.113-4.296 4.306 4.306 0 0 0-6.135-.015l-.596.603-.605-.61Z"/><path fill="url(#icon-47b27d88b1e8f0b7__icon-4c4df6570a93faeb__e)" d="M26.424 18.235a.5.5 0 0 0-.871.042l-1.491 2.981-1.595-4.186a.495.495 0 0 0-.45-.322.5.5 0 0 0-.47.29l-1.367 2.956H18.5a.5.5 0 1 0 0 1h2a.5.5 0 0 0 .454-.29l1.002-2.168 1.577 4.14a.5.5 0 0 0 .914.046l1.602-3.204.777 1.241a.5.5 0 0 0 .424.235h1.25a.5.5 0 0 0 0-1h-.973l-1.103-1.761Z"/><defs><linearGradient id="icon-8839a7110a3cd22e__icon-6ab7706638ae42fb__a" x1="12.889" x2="16.937" y1="4" y2="36.383" gradientUnits="userSpaceOnUse"><stop stop-color="#fff"/><stop offset="1" stop-color="#EBEBEB"/></linearGradient><linearGradient id="icon-4b62f2cdded93d1a__icon-fef5399ac108a010__c" x1="14.333" x2="18.642" y1="4" y2="36.314" gradientUnits="userSpaceOnUse"><stop stop-color="#BBB"/><stop offset="1" stop-color="#888"/></linearGradient><linearGradient id="icon-45eca471db47d236__icon-754c377f7e3507e4__d" x1="12" x2="25.74" y1="13" y2="29.684" gradientUnits="userSpaceOnUse"><stop stop-color="#7751B8"/><stop offset="1" stop-color="#5A409C"/></linearGradient><linearGradient id="icon-47b27d88b1e8f0b7__icon-4c4df6570a93faeb__e" x1="12" x2="25.74" y1="13" y2="29.684" gradientUnits="userSpaceOnUse"><stop stop-color="#7751B8"/><stop offset="1" stop-color="#5A409C"/></linearGradient><radialGradient id="icon-23286b82e945aaa5__icon-8eacb01fe967886f__b" cx="0" cy="0" r="1" gradientTransform="rotate(56.31 -4.411 19.454) scale(30.4469 26.3483)" gradientUnits="userSpaceOnUse"><stop offset=".177" stop-color="#fff"/><stop offset="1" stop-color="#B8B8B8"/></radialGradient></defs></svg>