<svg xmlns="http://www.w3.org/2000/svg" width="20" height="20" fill="currentColor"><path fill="url(#icon-dd869989731e55d9__icon-032b6f9e708a8602__a)" d="M2 4.5A2.5 2.5 0 0 1 4.5 2h11A2.5 2.5 0 0 1 18 4.5v11a2.5 2.5 0 0 1-2.5 2.5h-11A2.5 2.5 0 0 1 2 15.5v-11Z"/><path fill="url(#icon-aa1b61260bee3d15__icon-b519de9b1b36a77e__b)" fill-opacity=".2" d="M2 4.5A2.5 2.5 0 0 1 4.5 2h11A2.5 2.5 0 0 1 18 4.5v11a2.5 2.5 0 0 1-2.5 2.5h-11A2.5 2.5 0 0 1 2 15.5v-11Z"/><path fill="url(#icon-e09790a5d0535723__icon-ccb9a4637b8c73c1__c)" fill-rule="evenodd" d="M15.5 3h-11A1.5 1.5 0 0 0 3 4.5v11A1.5 1.5 0 0 0 4.5 17h11a1.5 1.5 0 0 0 1.5-1.5v-11A1.5 1.5 0 0 0 15.5 3Zm-11-1A2.5 2.5 0 0 0 2 4.5v11A2.5 2.5 0 0 0 4.5 18h11a2.5 2.5 0 0 0 2.5-2.5v-11A2.5 2.5 0 0 0 15.5 2h-11Z" clip-rule="evenodd"/><path fill="url(#icon-c4884d206f138df5__icon-cff537a4aa588f23__d)" d="M9.656 6.737a2.394 2.394 0 0 0-3.447-.01c-.95.975-.945 2.559.01 3.537l3.53 3.623c.146.15.384.15.53 0l1.23-1.26a1.498 1.498 0 0 1-.432-.653l-.002-.007a1.499 1.499 0 0 1-.325.035H9.5a1.5 1.5 0 1 1 0-3h.21l.385-1.028a1.5 1.5 0 0 1 2.828.052l.02.06a1.499 1.499 0 0 1 1.545.186 2.53 2.53 0 0 0-.706-1.522 2.395 2.395 0 0 0-3.45-.009l-.336.345-.34-.35Z"/><path fill="url(#icon-2ce379d7c54cafed__icon-5601b66d3e1df0e0__e)" d="M12.944 11.73a.5.5 0 0 1-.918-.072l-.553-1.66-.255.68a.5.5 0 0 1-.465.324H9.5a.5.5 0 1 1 0-1h.903l.629-1.677a.5.5 0 0 1 .942.017l.627 1.879.518-.998a.5.5 0 0 1 .816-.103l.789.882H15a.5.5 0 0 1 0 1h-.5a.5.5 0 0 1-.373-.167l-.455-.508-.728 1.403Z"/><defs><linearGradient id="icon-dd869989731e55d9__icon-032b6f9e708a8602__a" x1="6.444" x2="8.468" y1="2" y2="18.192" gradientUnits="userSpaceOnUse"><stop stop-color="#fff"/><stop offset="1" stop-color="#EBEBEB"/></linearGradient><linearGradient id="icon-e09790a5d0535723__icon-ccb9a4637b8c73c1__c" x1="7.167" x2="9.321" y1="2" y2="18.157" gradientUnits="userSpaceOnUse"><stop stop-color="#BBB"/><stop offset="1" stop-color="#888"/></linearGradient><linearGradient id="icon-c4884d206f138df5__icon-cff537a4aa588f23__d" x1="5.5" x2="13.305" y1="6" y2="15.756" gradientUnits="userSpaceOnUse"><stop stop-color="#7751B8"/><stop offset="1" stop-color="#5A409C"/></linearGradient><linearGradient id="icon-2ce379d7c54cafed__icon-5601b66d3e1df0e0__e" x1="5.5" x2="13.305" y1="6" y2="15.756" gradientUnits="userSpaceOnUse"><stop stop-color="#7751B8"/><stop offset="1" stop-color="#5A409C"/></linearGradient><radialGradient id="icon-aa1b61260bee3d15__icon-b519de9b1b36a77e__b" cx="0" cy="0" r="1" gradientTransform="rotate(56.31 -2.206 9.727) scale(15.2234 13.1741)" gradientUnits="userSpaceOnUse"><stop offset=".177" stop-color="#fff"/><stop offset="1" stop-color="#B8B8B8"/></radialGradient></defs></svg>