<svg xmlns="http://www.w3.org/2000/svg" width="48" height="48" fill="currentColor"><path fill="url(#icon-4bf0ae5719c42916__icon-2159c02626632223__a)" d="M5 10a5 5 0 0 1 5-5h28a5 5 0 0 1 5 5v28a5 5 0 0 1-5 5H10a5 5 0 0 1-5-5V10Z"/><path fill="url(#icon-6fd85eeb6cc063d8__icon-a6d5810e47a4224b__b)" fill-opacity=".2" d="M5 10a5 5 0 0 1 5-5h28a5 5 0 0 1 5 5v28a5 5 0 0 1-5 5H10a5 5 0 0 1-5-5V10Z"/><path fill="url(#icon-443701295a5a3a38__icon-57810b9023e23910__c)" fill-rule="evenodd" d="M38 6H10a4 4 0 0 0-4 4v28a4 4 0 0 0 4 4h28a4 4 0 0 0 4-4V10a4 4 0 0 0-4-4ZM10 5a5 5 0 0 0-5 5v28a5 5 0 0 0 5 5h28a5 5 0 0 0 5-5V10a5 5 0 0 0-5-5H10Z" clip-rule="evenodd"/><path fill="url(#icon-b7dde449d0ab3c5a__icon-b6d0b0fa6ee906d1__d)" d="m24.82 17.58-.821.822-.823-.824a5.375 5.375 0 1 0-7.602 7.602l7.896 7.895a.75.75 0 0 0 1.06 0l3.893-3.89c-.145-.15-.26-.33-.333-.533l-1.27-3.498-.463.985A1.5 1.5 0 0 1 25 27h-2.5a1.5 1.5 0 0 1 0-3h1.548l1.595-3.389a1.5 1.5 0 0 1 2.767.127l1.291 3.56.95-1.954a1.5 1.5 0 0 1 2.635-.116l.466.777a5.38 5.38 0 0 0-8.932-5.425Z"/><path fill="url(#icon-cffac4600cc9881c__icon-32599982c50df552__e)" d="M29.95 28.36a.5.5 0 0 1-.92-.049l-2.09-5.76-1.488 3.162A.5.5 0 0 1 25 26h-2.5a.5.5 0 1 1 0-1h2.183l1.865-3.963a.5.5 0 0 1 .922.043l2.097 5.78 1.983-4.079a.5.5 0 0 1 .879-.038L33.783 25H35.5a.5.5 0 0 1 0 1h-2a.5.5 0 0 1-.429-.243l-1.025-1.708-2.096 4.31Z"/><defs><linearGradient id="icon-4bf0ae5719c42916__icon-2159c02626632223__a" x1="15.556" x2="20.362" y1="5" y2="43.455" gradientUnits="userSpaceOnUse"><stop stop-color="#fff"/><stop offset="1" stop-color="#EBEBEB"/></linearGradient><linearGradient id="icon-443701295a5a3a38__icon-57810b9023e23910__c" x1="17.271" x2="22.387" y1="5" y2="43.373" gradientUnits="userSpaceOnUse"><stop stop-color="#BBB"/><stop offset="1" stop-color="#888"/></linearGradient><linearGradient id="icon-b7dde449d0ab3c5a__icon-b6d0b0fa6ee906d1__d" x1="14" x2="30.803" y1="16.002" y2="37.379" gradientUnits="userSpaceOnUse"><stop stop-color="#7751B8"/><stop offset="1" stop-color="#5A409C"/></linearGradient><linearGradient id="icon-cffac4600cc9881c__icon-32599982c50df552__e" x1="14" x2="30.803" y1="16.002" y2="37.379" gradientUnits="userSpaceOnUse"><stop stop-color="#7751B8"/><stop offset="1" stop-color="#5A409C"/></linearGradient><radialGradient id="icon-6fd85eeb6cc063d8__icon-a6d5810e47a4224b__b" cx="0" cy="0" r="1" gradientTransform="rotate(56.31 -5.347 23.46) scale(36.1557 31.2886)" gradientUnits="userSpaceOnUse"><stop offset=".177" stop-color="#fff"/><stop offset="1" stop-color="#B8B8B8"/></radialGradient></defs></svg>