<svg xmlns="http://www.w3.org/2000/svg" width="32" height="32" fill="currentColor"><path fill="url(#icon-cc35cf9ccc96d1cc__icon-95d9ce51fd08aaf7__a)" d="M3 6.5A3.5 3.5 0 0 1 6.5 3h19A3.5 3.5 0 0 1 29 6.5v19a3.5 3.5 0 0 1-3.5 3.5h-19A3.5 3.5 0 0 1 3 25.5v-19Z"/><path fill="url(#icon-dad3d939f341fd4e__icon-28c3fa95c77b3c79__b)" fill-opacity=".2" d="M3 6.5A3.5 3.5 0 0 1 6.5 3h19A3.5 3.5 0 0 1 29 6.5v19a3.5 3.5 0 0 1-3.5 3.5h-19A3.5 3.5 0 0 1 3 25.5v-19Z"/><path fill="url(#icon-3929a25397e8ab44__icon-eaaac0debcd1a5b4__c)" fill-rule="evenodd" d="M25.5 4h-19A2.5 2.5 0 0 0 4 6.5v19A2.5 2.5 0 0 0 6.5 28h19a2.5 2.5 0 0 0 2.5-2.5v-19A2.5 2.5 0 0 0 25.5 4Zm-19-1A3.5 3.5 0 0 0 3 6.5v19A3.5 3.5 0 0 0 6.5 29h19a3.5 3.5 0 0 0 3.5-3.5v-19A3.5 3.5 0 0 0 25.5 3h-19Z" clip-rule="evenodd"/><path fill="url(#icon-983cac5c05896ead__icon-590e24c8ed2ad882__d)" d="M15.484 11.44c-1.43-1.43-3.745-1.437-5.17-.013a3.655 3.655 0 0 0 .013 5.17l5.296 5.296c.22.22.576.22.796 0l1.437-1.437c-.1-.119-.181-.255-.24-.404l-.758-1.895-.005.01a1.5 1.5 0 0 1-1.341.83h-1.013a1.5 1.5 0 0 1 0-3h.086l1.084-2.169a1.5 1.5 0 0 1 2.733.114l.757 1.895.505-1.01a1.5 1.5 0 0 1 2.682 0l.206.413a3.662 3.662 0 0 0-.88-3.78 3.658 3.658 0 0 0-5.175-.014l-.503.505-.51-.51Z"/><path fill="url(#icon-4eacde4e028700e4__icon-91768d12372ed8ec__e)" d="M17.03 14a.5.5 0 0 1 .443.313l1.585 3.964 1.5-3.002a.5.5 0 0 1 .893 0l.861 1.722h1.189a.5.5 0 0 1 0 1h-1.497a.5.5 0 0 1-.447-.277l-.552-1.105-1.551 3.104a.5.5 0 0 1-.91-.038l-1.585-3.964-1 2.003a.5.5 0 0 1-.447.276h-1.013a.5.5 0 0 1 0-.999h.704l1.36-2.722a.5.5 0 0 1 .468-.276Z"/><defs><linearGradient id="icon-cc35cf9ccc96d1cc__icon-95d9ce51fd08aaf7__a" x1="10.222" x2="13.511" y1="3" y2="29.311" gradientUnits="userSpaceOnUse"><stop stop-color="#fff"/><stop offset="1" stop-color="#EBEBEB"/></linearGradient><linearGradient id="icon-3929a25397e8ab44__icon-eaaac0debcd1a5b4__c" x1="11.396" x2="14.897" y1="3" y2="29.256" gradientUnits="userSpaceOnUse"><stop stop-color="#BBB"/><stop offset="1" stop-color="#888"/></linearGradient><linearGradient id="icon-983cac5c05896ead__icon-590e24c8ed2ad882__d" x1="9.25" x2="20.636" y1="10.363" y2="24.725" gradientUnits="userSpaceOnUse"><stop stop-color="#7751B8"/><stop offset="1" stop-color="#5A409C"/></linearGradient><linearGradient id="icon-4eacde4e028700e4__icon-91768d12372ed8ec__e" x1="9.25" x2="20.636" y1="10.363" y2="24.725" gradientUnits="userSpaceOnUse"><stop stop-color="#7751B8"/><stop offset="1" stop-color="#5A409C"/></linearGradient><radialGradient id="icon-dad3d939f341fd4e__icon-28c3fa95c77b3c79__b" cx="0" cy="0" r="1" gradientTransform="rotate(56.31 -3.476 15.448) scale(24.7381 21.408)" gradientUnits="userSpaceOnUse"><stop offset=".177" stop-color="#fff"/><stop offset="1" stop-color="#B8B8B8"/></radialGradient></defs></svg>