<svg xmlns="http://www.w3.org/2000/svg" width="12" height="12" fill="currentColor"><path d="M1.827 8.747a1 1 0 0 0 .498.865l1 .58a1 1 0 0 0 1.004 0l1-.58a1 1 0 0 0 .498-.865V7.583a1 1 0 0 0-.498-.865l-1-.58a1 1 0 0 0-1.004 0l-1 .58a1 1 0 0 0-.498.865v1.164ZM4.327 4.417a1 1 0 0 0 .498.865l1 .58a1 1 0 0 0 1.004 0l1-.58a1 1 0 0 0 .498-.865V3.253a1 1 0 0 0-.498-.865l-1-.58a1 1 0 0 0-1.004 0l-1 .58a1 1 0 0 0-.498.865v1.164ZM7.325 9.612a1 1 0 0 1-.498-.865V7.583a1 1 0 0 1 .498-.865l1-.58a1 1 0 0 1 1.004 0l1 .58a1 1 0 0 1 .498.865v1.164a1 1 0 0 1-.498.865l-1 .58a1 1 0 0 1-1.004 0l-1-.58Z"/></svg>