<svg xmlns="http://www.w3.org/2000/svg" width="32" height="32" fill="currentColor"><path d="M17 2.423a2 2 0 0 0-2 0l-4.629 2.672a2 2 0 0 0-1 1.732v5.346a2 2 0 0 0 1 1.732l4.63 2.672a2 2 0 0 0 2 0l4.628-2.672a2 2 0 0 0 1-1.732V6.827a2 2 0 0 0-1-1.732L17 2.423ZM9.5 15.173a2 2 0 0 0-2 0l-4.629 2.672a2 2 0 0 0-1 1.732v5.346a2 2 0 0 0 1 1.732l4.63 2.672a2 2 0 0 0 2 0l4.628-2.672a2 2 0 0 0 1-1.732v-5.346a2 2 0 0 0-1-1.732L9.5 15.173ZM24.5 15.173a2 2 0 0 0-2 0l-4.629 2.672a2 2 0 0 0-1 1.732v5.346a2 2 0 0 0 1 1.732l4.63 2.672a2 2 0 0 0 2 0l4.628-2.672a2 2 0 0 0 1-1.732v-5.346a2 2 0 0 0-1-1.732L24.5 15.173Z"/></svg>