<svg xmlns="http://www.w3.org/2000/svg" width="12" height="12" fill="currentColor"><path d="M2.325 9.612a1 1 0 0 1-.498-.865V7.583a1 1 0 0 1 .498-.865l1-.58a1 1 0 0 1 1.004 0l1 .58a1 1 0 0 1 .498.865v1.164a1 1 0 0 1-.498.865l-1 .58a1 1 0 0 1-1.004 0l-1-.58Zm.502-2.029v1.164l1 .58 1-.58V7.583l-1-.58-1 .58ZM4.327 4.417a1 1 0 0 0 .498.865l1 .58a1 1 0 0 0 1.004 0l1-.58a1 1 0 0 0 .498-.865V3.253a1 1 0 0 0-.498-.865l-1-.58a1 1 0 0 0-1.004 0l-1 .58a1 1 0 0 0-.498.865v1.164Zm1 0V3.253l1-.58 1 .58v1.164l-1 .58-1-.58ZM6.827 8.747a1 1 0 0 0 .498.865l1 .58a1 1 0 0 0 1.004 0l1-.58a1 1 0 0 0 .498-.865V7.583a1 1 0 0 0-.498-.865l-1-.58a1 1 0 0 0-1.004 0l-1 .58a1 1 0 0 0-.498.865v1.164Zm1 0V7.583l1-.58 1 .58v1.164l-1 .58-1-.58Z"/></svg>