<svg xmlns="http://www.w3.org/2000/svg" width="20" height="20" fill="currentColor"><path d="M2.426 16.548a1.25 1.25 0 0 1-.625-1.083v-3.17c0-.447.238-.86.625-1.083l2.75-1.585a1.25 1.25 0 0 1 1.25 0l2.75 1.585c.386.223.625.636.625 1.083v3.17c0 .447-.239.86-.626 1.083l-2.75 1.586a1.25 1.25 0 0 1-1.249 0l-2.75-1.586Zm.375-1.083c0 .09.047.172.125.217l2.75 1.585a.25.25 0 0 0 .25 0l2.75-1.585a.25.25 0 0 0 .125-.217v-3.17a.25.25 0 0 0-.125-.216l-2.75-1.586a.25.25 0 0 0-.25 0l-2.75 1.586a.25.25 0 0 0-.125.216v3.17ZM6.3 7.704c0 .447.24.86.626 1.083l2.75 1.586a1.25 1.25 0 0 0 1.25 0l2.75-1.586a1.25 1.25 0 0 0 .625-1.083v-3.17c0-.446-.239-.86-.626-1.082l-2.75-1.586a1.25 1.25 0 0 0-1.249 0l-2.75 1.586a1.25 1.25 0 0 0-.625 1.082v3.17Zm1.126.217a.25.25 0 0 1-.125-.217v-3.17a.25.25 0 0 1 .125-.216l2.75-1.586a.25.25 0 0 1 .25 0l2.75 1.586a.25.25 0 0 1 .125.216v3.17a.25.25 0 0 1-.125.217l-2.75 1.586a.25.25 0 0 1-.25 0L7.426 7.92ZM10.8 15.465c0 .447.24.86.626 1.083l2.75 1.586a1.25 1.25 0 0 0 1.25 0l2.75-1.586a1.25 1.25 0 0 0 .625-1.083v-3.17c0-.447-.239-.86-.626-1.083l-2.75-1.585a1.25 1.25 0 0 0-1.249 0l-2.75 1.585a1.25 1.25 0 0 0-.625 1.083v3.17Zm1.126.217a.25.25 0 0 1-.125-.217v-3.17a.25.25 0 0 1 .125-.216l2.75-1.586a.25.25 0 0 1 .25 0l2.75 1.586a.25.25 0 0 1 .125.216v3.17a.25.25 0 0 1-.125.217l-2.75 1.585a.25.25 0 0 1-.25 0l-2.75-1.585Z"/></svg>