<svg xmlns="http://www.w3.org/2000/svg" width="24" height="24" fill="currentColor"><path d="M2.68 18.338c0 .625.334 1.203.876 1.516l2.75 1.587a1.75 1.75 0 0 0 1.75 0l2.75-1.587a1.75 1.75 0 0 0 .875-1.516v-3.175a1.75 1.75 0 0 0-.875-1.516l-2.75-1.588a1.75 1.75 0 0 0-1.75 0l-2.75 1.588a1.75 1.75 0 0 0-.875 1.516v3.175Zm1.626.217a.25.25 0 0 1-.125-.217v-3.175a.25.25 0 0 1 .125-.217l2.75-1.588a.25.25 0 0 1 .25 0l2.75 1.588a.25.25 0 0 1 .125.217v3.175a.25.25 0 0 1-.125.217l-2.75 1.587a.25.25 0 0 1-.25 0l-2.75-1.587ZM13.68 18.338c0 .625.334 1.203.876 1.516l2.75 1.587a1.75 1.75 0 0 0 1.75 0l2.75-1.587a1.75 1.75 0 0 0 .875-1.516v-3.175a1.75 1.75 0 0 0-.875-1.516l-2.75-1.588a1.75 1.75 0 0 0-1.75 0l-2.75 1.588a1.75 1.75 0 0 0-.875 1.516v3.175Zm1.626.217a.25.25 0 0 1-.125-.217v-3.175a.25.25 0 0 1 .125-.217l2.75-1.588a.25.25 0 0 1 .25 0l2.75 1.588a.25.25 0 0 1 .125.217v3.175a.25.25 0 0 1-.125.217l-2.75 1.587a.25.25 0 0 1-.25 0l-2.75-1.587ZM9.056 10.354a1.75 1.75 0 0 1-.875-1.516V5.663c0-.626.333-1.203.875-1.516l2.75-1.588a1.75 1.75 0 0 1 1.75 0l2.75 1.588c.541.313.875.89.875 1.516v3.175a1.75 1.75 0 0 1-.875 1.516l-2.75 1.587a1.75 1.75 0 0 1-1.75 0l-2.75-1.587Zm.625-1.516c0 .09.047.172.125.217l2.75 1.587a.25.25 0 0 0 .25 0l2.75-1.587a.25.25 0 0 0 .125-.217V5.663a.25.25 0 0 0-.125-.217l-2.75-1.588a.25.25 0 0 0-.25 0l-2.75 1.588a.25.25 0 0 0-.125.217v3.175Z"/></svg>