<svg xmlns="http://www.w3.org/2000/svg" width="16" height="16" fill="currentColor"><path d="M2 12.162a1 1 0 0 0 .498.865l2 1.16a1 1 0 0 0 1.004 0l2-1.16A1 1 0 0 0 8 12.162V9.838a1 1 0 0 0-.498-.865l-2-1.16a1 1 0 0 0-1.004 0l-2 1.16A1 1 0 0 0 2 9.838v2.324Zm1 0V9.838l2-1.16 2 1.16v2.324l-2 1.16-2-1.16ZM9 12.162a1 1 0 0 0 .498.865l2 1.16a1 1 0 0 0 1.004 0l2-1.16a1 1 0 0 0 .498-.865V9.838a1 1 0 0 0-.498-.865l-2-1.16a1 1 0 0 0-1.004 0l-2 1.16A1 1 0 0 0 9 9.838v2.324Zm1 0V9.838l2-1.16 2 1.16v2.324l-2 1.16-2-1.16ZM5.998 7.027a1 1 0 0 1-.498-.865V3.838a1 1 0 0 1 .498-.865l2-1.16a1 1 0 0 1 1.004 0l2 1.16a1 1 0 0 1 .498.865v2.324a1 1 0 0 1-.498.865l-2 1.16a1 1 0 0 1-1.004 0l-2-1.16ZM6.5 3.838v2.324l2 1.16 2-1.16V3.838l-2-1.16-2 1.16Z"/></svg>