<svg xmlns="http://www.w3.org/2000/svg" width="16" height="16" fill="currentColor"><path d="M8.75 2a.75.75 0 0 1 0 1.5h-1.5a.75.75 0 0 1 0-1.5h1.5ZM11.25 3.5a.75.75 0 0 1 0-1.5A2.75 2.75 0 0 1 14 4.75a.75.75 0 0 1-1.5 0c0-.69-.56-1.25-1.25-1.25ZM13.25 6.5a.75.75 0 0 1 .75.75v1.5a.75.75 0 0 1-1.5 0v-1.5a.75.75 0 0 1 .75-.75ZM13.25 10.5a.75.75 0 0 1 .75.75A2.75 2.75 0 0 1 11.25 14a.75.75 0 0 1 0-1.5c.69 0 1.25-.56 1.25-1.25a.75.75 0 0 1 .75-.75ZM7.25 12.5a.75.75 0 0 0 0 1.5h1.5a.75.75 0 0 0 0-1.5h-1.5ZM4.75 2a.75.75 0 0 1 0 1.5c-.69 0-1.25.56-1.25 1.25a.75.75 0 0 1-1.5 0A2.75 2.75 0 0 1 4.75 2ZM5.5 13.25a.75.75 0 0 0-.75-.75c-.69 0-1.25-.56-1.25-1.25a.75.75 0 0 0-1.5 0A2.75 2.75 0 0 0 4.75 14a.75.75 0 0 0 .75-.75ZM2.75 9.5a.75.75 0 0 0 .75-.75v-1.5a.75.75 0 0 0-1.5 0v1.5c0 .414.336.75.75.75ZM11 6.5A1.5 1.5 0 0 0 9.5 5h-3A1.5 1.5 0 0 0 5 6.5v3A1.5 1.5 0 0 0 6.5 11h3A1.5 1.5 0 0 0 11 9.5v-3Zm-5 0a.5.5 0 0 1 .5-.5h1v1.5H6v-1Zm0 3v-1h1.5V10h-1a.5.5 0 0 1-.5-.5Zm3.5.5h-1V8.5H10v1a.5.5 0 0 1-.5.5Zm-1-2.5V6h1a.5.5 0 0 1 .5.5v1H8.5Z"/></svg>