<svg xmlns="http://www.w3.org/2000/svg" width="20" height="20" fill="currentColor"><path d="M8.5 3a.5.5 0 0 0 0 1h3a.5.5 0 0 0 0-1h-3ZM4.053 5.54A2.003 2.003 0 0 1 5.54 4.052a.509.509 0 0 0 .462-.6.509.509 0 0 0-.663-.38 3.004 3.004 0 0 0-2.265 2.265.509.509 0 0 0 .38.663.509.509 0 0 0 .6-.462ZM4.053 14.46a2.003 2.003 0 0 0 1.486 1.487.509.509 0 0 1 .462.6.509.509 0 0 1-.663.38 3.004 3.004 0 0 1-2.265-2.265.509.509 0 0 1 .38-.663.509.509 0 0 1 .6.462ZM14.662 3.073a.509.509 0 0 0-.663.38.509.509 0 0 0 .462.6 2.003 2.003 0 0 1 1.486 1.486.507.507 0 0 0 .6.463.509.509 0 0 0 .38-.664 3.004 3.004 0 0 0-2.265-2.265ZM15.947 14.46a2.003 2.003 0 0 1-1.486 1.487.509.509 0 0 0-.462.6.509.509 0 0 0 .663.38 3.004 3.004 0 0 0 2.265-2.265.509.509 0 0 0-.38-.663.509.509 0 0 0-.6.462ZM16.5 12a.5.5 0 0 1-.5-.5v-3a.5.5 0 0 1 1 0v3a.5.5 0 0 1-.5.5ZM3 11.5a.5.5 0 0 0 1 0v-3a.5.5 0 0 0-1 0v3ZM8 16.5a.5.5 0 0 1 .5-.5h3a.5.5 0 0 1 0 1h-3a.5.5 0 0 1-.5-.5ZM7.5 6A1.5 1.5 0 0 0 6 7.5v5A1.5 1.5 0 0 0 7.5 14h5a1.5 1.5 0 0 0 1.5-1.5v-5A1.5 1.5 0 0 0 12.5 6h-5ZM7 12.5v-2h2.5V13h-2a.5.5 0 0 1-.5-.5Zm0-3v-2a.5.5 0 0 1 .5-.5h2v2.5H7Zm3.5 3.5v-2.5H13v2a.5.5 0 0 1-.5.5h-2Zm0-3.5V7h2a.5.5 0 0 1 .5.5v2h-2.5Z"/></svg>