<svg xmlns="http://www.w3.org/2000/svg" width="16" height="16" fill="currentColor"><path d="M9 2a.5.5 0 0 1 0 1H7a.5.5 0 0 1 0-1h2ZM11.5 3a.5.5 0 0 1 0-1A2.5 2.5 0 0 1 14 4.5a.5.5 0 0 1-1 0A1.5 1.5 0 0 0 11.5 3ZM13.5 6.5a.5.5 0 0 1 .5.5v2a.5.5 0 0 1-1 0V7a.5.5 0 0 1 .5-.5ZM13.5 11a.5.5 0 0 1 .5.5 2.5 2.5 0 0 1-2.5 2.5.5.5 0 0 1 0-1 1.5 1.5 0 0 0 1.5-1.5.5.5 0 0 1 .5-.5ZM7 13a.5.5 0 0 0 0 1h2a.5.5 0 0 0 0-1H7ZM4.5 2a.5.5 0 0 1 0 1A1.5 1.5 0 0 0 3 4.5a.5.5 0 0 1-1 0A2.5 2.5 0 0 1 4.5 2ZM5 13.5a.5.5 0 0 0-.5-.5A1.5 1.5 0 0 1 3 11.5a.5.5 0 0 0-1 0A2.5 2.5 0 0 0 4.5 14a.5.5 0 0 0 .5-.5ZM2.5 9.5A.5.5 0 0 0 3 9V7a.5.5 0 0 0-1 0v2a.5.5 0 0 0 .5.5ZM11 6.5A1.5 1.5 0 0 0 9.5 5h-3A1.5 1.5 0 0 0 5 6.5v3A1.5 1.5 0 0 0 6.5 11h3A1.5 1.5 0 0 0 11 9.5v-3Zm-5 0a.5.5 0 0 1 .5-.5h1v1.5H6v-1Zm0 3v-1h1.5V10h-1a.5.5 0 0 1-.5-.5Zm4 0a.5.5 0 0 1-.5.5h-1V8.5H10v1Zm-1.5-2V6h1a.5.5 0 0 1 .5.5v1H8.5Z"/></svg>