<svg xmlns="http://www.w3.org/2000/svg" width="20" height="20" fill="currentColor"><path d="M8 3.75A.75.75 0 0 1 8.75 3h2.5a.75.75 0 0 1 0 1.5h-2.5A.75.75 0 0 1 8 3.75ZM8 16.25a.75.75 0 0 1 .75-.75h2.5a.75.75 0 0 1 0 1.5h-2.5a.75.75 0 0 1-.75-.75ZM4.604 5.449a1.505 1.505 0 0 1 .939-.878.75.75 0 0 0-.586-1.38v-.005a3.009 3.009 0 0 0-1.77 1.77h.004a.75.75 0 1 0 1.413.493ZM14.548 4.603c.387.151.696.46.85.846a.75.75 0 1 0 1.413-.492h.004a3.009 3.009 0 0 0-1.77-1.77v.004a.75.75 0 1 0-.497 1.412ZM3 11.25a.75.75 0 0 0 1.5 0v-2.5a.75.75 0 0 0-1.5 0v2.5ZM16.25 12a.75.75 0 0 1-.75-.75v-2.5a.75.75 0 0 1 1.5 0v2.5a.75.75 0 0 1-.75.75ZM4.604 14.552a1.505 1.505 0 0 0 .939.878.75.75 0 0 1-.586 1.38v.005a3.009 3.009 0 0 1-1.77-1.77h.004a.75.75 0 1 1 1.413-.493ZM14.548 15.398c.387-.151.696-.46.85-.846a.75.75 0 1 1 1.413.492h.004a3.01 3.01 0 0 1-1.77 1.77v-.004a.75.75 0 1 1-.497-1.412ZM7.5 6A1.5 1.5 0 0 0 6 7.5v5A1.5 1.5 0 0 0 7.5 14h5a1.5 1.5 0 0 0 1.5-1.5v-5A1.5 1.5 0 0 0 12.5 6h-5ZM7 12.5v-2h2.5V13h-2a.5.5 0 0 1-.5-.5Zm0-3v-2a.5.5 0 0 1 .5-.5h2v2.5H7Zm3.5 3.5v-2.5H13v2a.5.5 0 0 1-.5.5h-2Zm0-3.5V7h2a.5.5 0 0 1 .5.5v2h-2.5Z"/></svg>