<svg xmlns="http://www.w3.org/2000/svg" width="24" height="24" fill="currentColor"><path d="M9.537 2.532a2.25 2.25 0 0 1 2.903-.002l6.76 5.699c.507.428.8 1.057.8 1.72v2.774a2.272 2.272 0 0 0-1.5-1.165V9.949a.75.75 0 0 0-.267-.573l-6.76-5.7a.75.75 0 0 0-.968.001l-6.74 5.698a.75.75 0 0 0-.265.573v8.8c0 .138.112.25.25.25h5.142a.924.924 0 0 1-.142 0 2.25 2.25 0 0 0-2.121 1.5H3.75A1.75 1.75 0 0 1 2 18.748v-8.8c0-.662.292-1.29.797-1.718l6.74-5.698ZM15.1 18.998h-.187.186Z"/><path d="M16.743 14.548c.1-.134.186-.269.257-.395v.001a3.99 3.99 0 0 0 .279-.613l.003-.011a.75.75 0 0 1 1.441.02l.003.009.018.054a3.298 3.298 0 0 0 .504.922c.384.49.996.963 2.002.963a.75.75 0 0 1 0 1.5c-1.574 0-2.587-.777-3.183-1.537a4.655 4.655 0 0 1-.067-.089l-.056.076c-.473.63-1.238 1.32-2.358 1.503a3.63 3.63 0 0 1-1.191-.003c-1.11-.188-1.868-.873-2.339-1.5a5.235 5.235 0 0 1-.055-.076l-.068.089c-.596.76-1.61 1.537-3.183 1.537a.75.75 0 1 1 0-1.5c1.006 0 1.618-.473 2.002-.963a3.298 3.298 0 0 0 .505-.922l.017-.054.003-.009a.75.75 0 0 1 1.44-.02l.004.011.02.058a3.99 3.99 0 0 0 .259.556v-.002c.071.126.157.261.257.395.338.45.802.84 1.453.93a2.11 2.11 0 0 0 .623-.006c.628-.101 1.08-.484 1.41-.924ZM16.743 19.548c.1-.134.186-.269.257-.395v.001a3.99 3.99 0 0 0 .279-.613l.003-.011a.75.75 0 0 1 1.441.02l.003.009.018.054a3.298 3.298 0 0 0 .504.922c.384.49.996.963 2.002.963a.75.75 0 0 1 0 1.5c-1.574 0-2.587-.777-3.183-1.537a4.655 4.655 0 0 1-.067-.089l-.056.076c-.473.63-1.238 1.32-2.358 1.503a3.63 3.63 0 0 1-1.191-.003c-1.11-.188-1.868-.873-2.339-1.5a5.235 5.235 0 0 1-.055-.076l-.068.089c-.596.76-1.61 1.537-3.183 1.537a.75.75 0 1 1 0-1.5c1.006 0 1.618-.473 2.002-.963a3.298 3.298 0 0 0 .505-.922l.017-.054.003-.009a.75.75 0 0 1 1.44-.02l.004.011.02.058a3.99 3.99 0 0 0 .259.556v-.002c.071.126.157.261.257.395.338.45.802.84 1.453.93a2.11 2.11 0 0 0 .623-.006c.628-.101 1.08-.484 1.41-.924Z"/></svg>