<svg xmlns="http://www.w3.org/2000/svg" width="20" height="20" fill="currentColor"><path d="M3.5 16.175h5c-.7 0-1.2.4-1.4 1H3.5c-.8 0-1.5-.7-1.5-1.5v-7.2c0-.5.2-.9.5-1.2l5.5-4.9c.6-.5 1.4-.5 2 0l5.5 5c.3.3.5.7.5 1.1v1.7c-.4 0-.7.1-1 .4v-2.1c0-.117-.034-.2-.063-.269-.02-.048-.037-.09-.037-.131l-5.5-4.9c-.2-.2-.5-.2-.7 0l-5.5 4.9c-.1.1-.2.2-.2.4v7.2c0 .3.2.5.5.5Z"/><path d="M11.982 12.36c.357.44.854.815 1.518.815s1.16-.376 1.518-.816a3.621 3.621 0 0 0 .51-.85l.004-.01v-.001a.5.5 0 0 1 .953.055v-.001l.002.009.014.047a2.727 2.727 0 0 0 .399.767c.307.409.796.8 1.6.8a.5.5 0 0 1 0 1c-1.196 0-1.957-.61-2.4-1.2a3.526 3.526 0 0 1-.14-.202c-.051.071-.106.144-.166.217-.455.56-1.208 1.185-2.294 1.185s-1.84-.625-2.294-1.185a4.294 4.294 0 0 1-.165-.217c-.043.066-.09.134-.141.202-.443.59-1.204 1.2-2.4 1.2a.5.5 0 1 1 0-1c.804 0 1.293-.391 1.6-.8a2.722 2.722 0 0 0 .413-.814l.002-.009v.001a.5.5 0 0 1 .953-.055v.001l.004.01.022.051a3.621 3.621 0 0 0 .488.8ZM11.982 16.36c.357.44.854.815 1.518.815s1.16-.376 1.518-.816a3.621 3.621 0 0 0 .51-.85l.004-.01v-.001a.5.5 0 0 1 .953.055v-.001l.002.009.014.047a2.727 2.727 0 0 0 .399.767c.307.409.796.8 1.6.8a.5.5 0 0 1 0 1c-1.196 0-1.957-.61-2.4-1.2a3.526 3.526 0 0 1-.14-.202c-.051.071-.106.144-.166.217-.455.56-1.208 1.185-2.294 1.185s-1.84-.625-2.294-1.185a4.294 4.294 0 0 1-.165-.217c-.043.067-.09.134-.141.202-.443.59-1.204 1.2-2.4 1.2a.5.5 0 1 1 0-1c.804 0 1.293-.391 1.6-.8a2.722 2.722 0 0 0 .413-.814l.002-.009v.001a.5.5 0 0 1 .953-.055v.001l.004.01.022.051a3.621 3.621 0 0 0 .488.8Z"/></svg>