<svg xmlns="http://www.w3.org/2000/svg" width="16" height="16" fill="currentColor"><path d="M5.962 1.303a1.5 1.5 0 0 1 2.076 0l4.5 4.317A1.5 1.5 0 0 1 13 6.702v.412h-.001c-.62 0-1.184.39-1.413.994a2.594 2.594 0 0 1-.344.561c-.361.445-.648.445-.742.445-.094 0-.381 0-.743-.446a2.642 2.642 0 0 1-.353-.583c-.219-.578-.779-.967-1.483-.967h-.007a1.494 1.494 0 0 0-1.368 1.126l-.04.105a1.765 1.765 0 0 1-.206.366c-.21.28-.449.399-.8.399-.827 0-1.5.673-1.5 1.5s.673 1.5 1.5 1.5c.402 0 .789-.055 1.154-.162a1.51 1.51 0 0 0-.107.292l-.04.105a1.751 1.751 0 0 1-.207.366c-.21.28-.449.4-.8.4-.608 0-1.133.363-1.368.885H2.5A1.5 1.5 0 0 1 1 12.5V6.702c0-.408.167-.8.462-1.082l4.5-4.317Z"/><path d="M8.982 9.299c.358.44.854.815 1.518.815s1.161-.375 1.518-.815a3.62 3.62 0 0 0 .509-.849l.004-.011v-.001a.499.499 0 0 1 .953.055v-.001l.003.008.005.016.009.031a2.768 2.768 0 0 0 .398.767c.307.409.796.8 1.6.8a.5.5 0 0 1 0 1c-1.196 0-1.957-.609-2.4-1.2a3.379 3.379 0 0 1-.141-.202 4.802 4.802 0 0 1-.165.217c-.455.56-1.208 1.185-2.294 1.185s-1.839-.625-2.294-1.185a3.89 3.89 0 0 1-.165-.217 2.723 2.723 0 0 1-.14.202c-.443.591-1.204 1.2-2.4 1.2a.5.5 0 0 1 0-1c.804 0 1.293-.391 1.6-.8a2.768 2.768 0 0 0 .41-.805l.003-.009.002-.009a.5.5 0 0 1 .953-.054l.004.012a.677.677 0 0 1 .006.013l.004.011.012.027a3.62 3.62 0 0 0 .488.799ZM10.5 14.114c-.664 0-1.16-.375-1.518-.815a3.66 3.66 0 0 1-.489-.8l-.021-.05-.004-.011a.501.501 0 0 0-.953.054l-.002.008a2.768 2.768 0 0 1-.415.815c-.307.409-.796.8-1.6.8a.5.5 0 0 0 0 1c1.196 0 1.957-.609 2.4-1.2.051-.068.098-.136.141-.202.051.071.106.144.165.217.455.56 1.208 1.185 2.294 1.185s1.839-.625 2.294-1.185c.059-.073.114-.146.165-.217.043.067.09.134.141.202.443.591 1.204 1.2 2.4 1.2a.5.5 0 0 0 0-1c-.804 0-1.293-.391-1.6-.8a2.768 2.768 0 0 1-.412-.814l-.002-.009v.001a.5.5 0 0 0-.953-.055v.001l-.004.011-.021.05a3.62 3.62 0 0 1-.488.799c-.357.44-.854.815-1.518.815Z"/></svg>