<svg xmlns="http://www.w3.org/2000/svg" width="32" height="32" fill="currentColor"><path d="M17.374 3.546a2.001 2.001 0 0 0-2.748 0l-9.687 9.15A2.996 2.996 0 0 0 4 14.875v11.129A2.999 2.999 0 0 0 7 29h10.354v-.062a3 3 0 0 1 .877-2.122l.036-.035a3.032 3.032 0 0 1-.388-.319 3 3 0 0 1 0-4.242l.707-.707c.13-.13.273-.246.424-.349A2.801 2.801 0 0 1 21.461 17H28v-2.126c0-.824-.34-1.611-.939-2.178l-9.687-9.15Z"/><path d="M29.514 19H21.46a.806.806 0 0 0-.568 1.376l8.053 8.053a.8.8 0 0 0 1.374-.57v-8.054a.8.8 0 0 0-.8-.8L29.514 19ZM21.415 24.341l-.707.707a1.002 1.002 0 0 1-1.427.012 1 1 0 0 1 .013-1.426l.707-.707a1 1 0 0 1 1.414 1.414ZM23.889 25.4a.998.998 0 0 1 0 1.415l-2.83 2.829a1 1 0 0 1-1.413-1.414l2.829-2.83a1 1 0 0 1 1.414 0ZM24.95 27.876a1 1 0 1 1 1.413 1.415l-.707.709a1.002 1.002 0 0 1-1.414 0 1.001 1.001 0 0 1 0-1.415l.707-.709Z"/></svg>