<svg xmlns="http://www.w3.org/2000/svg" width="20" height="20" fill="currentColor"><path d="M9.057 1.869a1.5 1.5 0 0 1 1.886 0l5.5 4.442A1.5 1.5 0 0 1 17 7.478V10h-1V7.478a.5.5 0 0 0-.186-.389l-5.5-4.442a.5.5 0 0 0-.628 0l-5.5 4.442A.5.5 0 0 0 4 7.478V15.5a.5.5 0 0 0 .5.5h6.23c.04.023.08.045.121.064l-.418.417a1.501 1.501 0 0 0-.338.52H4.5A1.5 1.5 0 0 1 3 15.5V7.477a1.5 1.5 0 0 1 .557-1.167l5.5-4.442Z"/><path d="M12.5 11h5a.5.5 0 0 1 .5.5v5a.5.5 0 0 1-.853.354l-5-5A.5.5 0 0 1 12.5 11ZM12.562 13.657a.5.5 0 0 1 0 .707l-.707.708a.5.5 0 0 1-.708-.708l.708-.707a.5.5 0 0 1 .707 0ZM15.389 16.486a.5.5 0 0 1 0 .707l-.707.707a.5.5 0 1 1-.707-.707l.707-.707a.5.5 0 0 1 .707 0ZM13.975 15.072a.5.5 0 0 1 0 .707l-2.12 2.12a.5.5 0 0 1-.709-.706l2.122-2.121a.5.5 0 0 1 .707 0Z"/></svg>