<svg xmlns="http://www.w3.org/2000/svg" width="32" height="32" fill="currentColor"><path d="M12.626 3.546a2.001 2.001 0 0 1 2.748 0l9.687 9.15c.6.567.939 1.354.939 2.178v2.888A2.995 2.995 0 0 0 24 17v-2.126a.999.999 0 0 0-.313-.726L14 4.998l-9.687 9.15a.999.999 0 0 0-.313.726v11.129a1 1 0 0 0 1 .999h3.762A3 3 0 0 0 8 29H5c-1.657 0-3-1.342-3-2.997V14.874c0-.824.34-1.611.939-2.178l9.687-9.15Z"/><path d="M29 22a4.429 4.429 0 0 1-3.293-1.207 3.675 3.675 0 0 1-.614-.81 2.496 2.496 0 0 1-.109-.234 2.241 2.241 0 0 0-.12-.253 1 1 0 0 0-1.167-.447h-.01c-.23.078-.425.236-.549.446a2.249 2.249 0 0 0-.134.3l-.01.026c-.028.068-.055.137-.09.202-.15.3-.333.58-.546.839a3.007 3.007 0 0 1-4.714 0 4.46 4.46 0 0 1-.546-.84 2.429 2.429 0 0 1-.073-.164l-.027-.063a2.249 2.249 0 0 0-.134-.3 1.018 1.018 0 0 0-.549-.446h-.01a1 1 0 0 0-1.167.447 2.241 2.241 0 0 0-.12.253c-.032.08-.069.158-.109.234-.166.297-.373.57-.614.81A4.429 4.429 0 0 1 11 22a1 1 0 1 0 0 2 6.414 6.414 0 0 0 4.707-1.793c.087-.087.169-.174.245-.261.049.065.1.129.155.194a5.001 5.001 0 0 0 7.786 0c.054-.065.106-.13.155-.194.076.087.158.174.245.26A6.414 6.414 0 0 0 29 24a1 1 0 0 0 0-2ZM29 28a4.429 4.429 0 0 1-3.293-1.207 3.675 3.675 0 0 1-.614-.81 2.496 2.496 0 0 1-.109-.234 2.241 2.241 0 0 0-.12-.253 1 1 0 0 0-1.167-.447h-.01c-.23.078-.425.236-.549.446a2.249 2.249 0 0 0-.134.3l-.01.026c-.028.068-.055.137-.09.202-.15.3-.333.58-.546.839a3.007 3.007 0 0 1-4.714 0 4.46 4.46 0 0 1-.546-.84 2.429 2.429 0 0 1-.073-.164l-.027-.063a2.249 2.249 0 0 0-.134-.3 1.018 1.018 0 0 0-.549-.446h-.01a1 1 0 0 0-1.167.447 2.241 2.241 0 0 0-.12.253c-.032.08-.069.158-.109.234-.166.297-.373.57-.614.81A4.429 4.429 0 0 1 11 28a1 1 0 1 0 0 2 6.414 6.414 0 0 0 4.707-1.793c.087-.087.169-.174.245-.261.049.065.1.129.155.194a5.001 5.001 0 0 0 7.786 0c.054-.065.106-.13.155-.194.076.087.158.174.245.26A6.414 6.414 0 0 0 29 30a1 1 0 0 0 0-2Z"/></svg>