<svg xmlns="http://www.w3.org/2000/svg" width="20" height="20" fill="currentColor"><path d="M9 2a1.5 1.5 0 0 1 1 .382L15.5 7.3a1.5 1.5 0 0 1 .5 1.118v1.734a1.5 1.5 0 0 0-1.414.998l-.017.036c-.012.025-.026.056-.044.09-.08.153-.175.3-.283.434-.362.446-.648.446-.742.446-.163 0-.417-.048-.743-.448a2.583 2.583 0 0 1-.354-.583 1.532 1.532 0 0 0-1.483-.966h-.006a1.494 1.494 0 0 0-1.368 1.13l-.04.105a1.69 1.69 0 0 1-.206.365.908.908 0 0 1-.8.4 1.5 1.5 0 1 0 0 3c.393.005.78-.05 1.152-.16-.045.092-.08.19-.106.29l-.04.105a1.69 1.69 0 0 1-.206.365.908.908 0 0 1-.8.4 1.5 1.5 0 0 0-1.414 1H3.5a1.5 1.5 0 0 1-1.5-1.5V8.418A1.5 1.5 0 0 1 2.5 7.3L8 2.382A1.5 1.5 0 0 1 9 2Z"/><path d="M11.982 12.344a1.955 1.955 0 0 0 1.518.815 1.955 1.955 0 0 0 1.518-.815c.153-.187.287-.389.4-.602a4.18 4.18 0 0 0 .094-.2l.022-.05v-.011a.5.5 0 0 1 .953.055v.009l.014.047a2.77 2.77 0 0 0 .399.767 1.9 1.9 0 0 0 1.6.8.5.5 0 0 1 0 1 2.899 2.899 0 0 1-2.4-1.202 2.788 2.788 0 0 1-.14-.2 3.804 3.804 0 0 1-.166.217 2.951 2.951 0 0 1-2.294 1.185 2.95 2.95 0 0 1-2.294-1.185 3.804 3.804 0 0 1-.166-.217 2.501 2.501 0 0 1-.14.2 2.9 2.9 0 0 1-2.4 1.202.5.5 0 0 1 0-1 1.9 1.9 0 0 0 1.6-.8 2.77 2.77 0 0 0 .399-.767l.014-.047v-.009a.5.5 0 0 1 .953-.055v.011l.022.05c.02.046.051.114.094.2.113.213.247.415.4.602ZM12.646 16.928a1.957 1.957 0 0 1-.664-.584 3.661 3.661 0 0 1-.4-.602 4.18 4.18 0 0 1-.094-.2l-.022-.05v-.011a.5.5 0 0 0-.953.055v.009l-.014.047a2.77 2.77 0 0 1-.399.767 1.9 1.9 0 0 1-1.6.8.5.5 0 0 0 0 1 2.9 2.9 0 0 0 2.4-1.202c.051-.066.098-.133.14-.2.051.072.106.144.166.217a2.951 2.951 0 0 0 2.294 1.185 2.95 2.95 0 0 0 2.294-1.185c.06-.073.115-.145.166-.217.043.067.089.134.14.2a2.9 2.9 0 0 0 2.4 1.202.5.5 0 0 0 0-1 1.9 1.9 0 0 1-1.6-.8 2.77 2.77 0 0 1-.399-.767l-.014-.047v-.009a.5.5 0 0 0-.953-.055v.011l-.022.05a4.18 4.18 0 0 1-.094.2 3.661 3.661 0 0 1-.4.602 1.957 1.957 0 0 1-1.518.815c-.299-.01-.59-.09-.854-.231Z"/></svg>