<svg xmlns="http://www.w3.org/2000/svg" width="24" height="24" fill="currentColor"><path d="M10.537 2.534a2.25 2.25 0 0 1 2.903-.002L20.2 8.23c.507.427.8 1.057.8 1.72v2.5l-1.5.012V9.951a.75.75 0 0 0-.267-.573l-6.76-5.7a.75.75 0 0 0-.968.001l-6.74 5.698a.75.75 0 0 0-.265.573v9.8c0 .138.112.25.25.25h8.555c.084.07.174.133.269.19a2.238 2.238 0 0 0-.537 1.31H4.75A1.75 1.75 0 0 1 3 19.75v-9.8c0-.662.292-1.29.797-1.718l6.74-5.698Z"/><path d="m16.155 13.99 6.32-.05a.501.501 0 0 1 .502.505l-.048 6.32a.5.5 0 0 1-.854.35l-6.27-6.272a.5.5 0 0 1 .35-.853ZM17.69 18.825a.75.75 0 0 1 .243 1.224l-2.122 2.12a.75.75 0 0 1-1.06-1.06l2.12-2.121a.749.749 0 0 1 .818-.163ZM15.987 18.105l-.707.707a.75.75 0 0 1-1.06-1.061l.707-.707a.75.75 0 0 1 1.06 1.06ZM18.108 21.64l.707-.707a.751.751 0 1 1 1.06 1.06l-.706.707a.75.75 0 0 1-1.061-1.06Z"/></svg>