<svg xmlns="http://www.w3.org/2000/svg" width="16" height="16" fill="currentColor"><path d="M8.038 1.303a1.5 1.5 0 0 0-2.076 0l-4.5 4.317A1.5 1.5 0 0 0 1 6.702V12.5A1.5 1.5 0 0 0 2.5 14h1.632c.235-.522.76-.886 1.368-.886A.967.967 0 0 0 5.99 13H2.5a.5.5 0 0 1-.5-.5V6.702a.5.5 0 0 1 .154-.36l4.5-4.317a.5.5 0 0 1 .692 0l4.5 4.317a.5.5 0 0 1 .154.36V7.5c.272-.245.625-.386.999-.386H13v-.412a1.5 1.5 0 0 0-.462-1.082l-4.5-4.317ZM8.982 13.299c.358.44.854.815 1.518.815s1.161-.375 1.518-.815a3.62 3.62 0 0 0 .509-.849l.004-.011v-.001a.499.499 0 0 1 .953.055v-.001l.002.009.002.008.003.008.009.031a2.768 2.768 0 0 0 .398.767c.307.409.796.8 1.6.8a.5.5 0 0 1 0 1c-1.196 0-1.957-.609-2.4-1.2a3.379 3.379 0 0 1-.141-.202 4.802 4.802 0 0 1-.165.217c-.455.56-1.208 1.185-2.294 1.185s-1.839-.625-2.294-1.185a4.802 4.802 0 0 1-.165-.217c-.043.066-.09.134-.141.202-.443.591-1.204 1.2-2.4 1.2a.5.5 0 0 1 0-1c.804 0 1.293-.391 1.6-.8a2.768 2.768 0 0 0 .415-.815l.002-.008a.499.499 0 0 1 .953-.054l.004.011.021.05a3.66 3.66 0 0 0 .489.8Z"/><path d="M10.5 10.114c-.664 0-1.16-.375-1.518-.815a3.62 3.62 0 0 1-.488-.799l-.012-.027-.01-.024-.004-.011a.5.5 0 0 0-.953.054l-.002.008a1.536 1.536 0 0 1-.014.047 2.768 2.768 0 0 1-.399.767c-.307.409-.796.8-1.6.8a.5.5 0 0 0 0 1c1.196 0 1.957-.609 2.4-1.2.051-.067.098-.135.14-.202.051.072.106.145.165.217.455.56 1.208 1.185 2.294 1.185s1.839-.625 2.294-1.185c.059-.073.114-.146.165-.217.043.067.09.134.141.202.443.591 1.204 1.2 2.4 1.2a.5.5 0 0 0 0-1c-.804 0-1.293-.391-1.6-.8a2.768 2.768 0 0 1-.407-.798l-.005-.016-.003-.008v.001a.5.5 0 0 0-.953-.055v.001l-.004.011-.021.05a3.62 3.62 0 0 1-.488.799c-.357.44-.854.815-1.518.815Z"/></svg>