<svg xmlns="http://www.w3.org/2000/svg" width="16" height="16" fill="currentColor"><path d="M9.038 1.303a1.496 1.496 0 0 0-2.076 0l-4.5 4.317A1.5 1.5 0 0 0 2 6.702V12.5A1.5 1.5 0 0 0 3.5 14h3.595l.013-.032c.076-.182.186-.348.325-.487l.418-.417a1.509 1.509 0 0 1-.418-.29 1.5 1.5 0 0 1 0-2.121l.707-.707c.118-.115.253-.21.4-.281l-.1-.105A1.5 1.5 0 0 1 9.5 7H14v-.298a1.5 1.5 0 0 0-.462-1.082l-4.5-4.317Z"/><path d="M9.5 8h5a.5.5 0 0 1 .5.5v5a.5.5 0 0 1-.853.354l-5-5A.5.5 0 0 1 9.5 8ZM9.562 10.657a.5.5 0 0 1 0 .707l-.707.708a.5.5 0 0 1-.708-.708l.708-.707a.5.5 0 0 1 .707 0ZM12.389 13.486a.5.5 0 0 1 0 .707l-.707.707a.5.5 0 1 1-.707-.707l.707-.707a.5.5 0 0 1 .707 0ZM10.975 12.072a.5.5 0 0 1 0 .707l-2.12 2.12a.5.5 0 1 1-.709-.706l2.122-2.121a.5.5 0 0 1 .707 0Z"/></svg>