<svg xmlns="http://www.w3.org/2000/svg" width="32" height="32" fill="currentColor"><path d="M14.626 3.546a2.001 2.001 0 0 1 2.748 0l9.687 9.15c.6.567.939 1.354.939 2.178v5.005h-.003a2.566 2.566 0 0 1-.878-.5 1.523 1.523 0 0 1-.3-.426 4.188 4.188 0 0 0-.227-.465 2.994 2.994 0 0 0-3.43-1.367l-.114.035a2.963 2.963 0 0 0-1.633 1.333 4.707 4.707 0 0 0-.3.638c-.08.16-.177.312-.291.451a1.01 1.01 0 0 1-1.641 0 2.288 2.288 0 0 1-.322-.52 4.059 4.059 0 0 0-.264-.565 3 3 0 0 0-5.187-.008c-.096.169-.18.344-.25.525a1.7 1.7 0 0 1-.281.369A2.57 2.57 0 0 1 11 20a3 3 0 0 0 0 6 3 3 0 0 0-3 3H7c-1.657 0-3-1.342-3-2.997V14.874c0-.824.34-1.611.939-2.178l9.687-9.15Z"/><path d="M11.4 26a8.704 8.704 0 0 1-.4 0c.133.01.267.01.4 0ZM29 22a4.429 4.429 0 0 1-3.293-1.207 3.675 3.675 0 0 1-.614-.81 2.496 2.496 0 0 1-.109-.234 2.241 2.241 0 0 0-.12-.253 1 1 0 0 0-1.167-.447h-.01c-.23.078-.425.236-.549.446a2.249 2.249 0 0 0-.134.3l-.01.026c-.028.068-.055.137-.09.202-.15.3-.333.58-.546.839a3.007 3.007 0 0 1-4.714 0 4.46 4.46 0 0 1-.546-.84 2.429 2.429 0 0 1-.073-.164l-.027-.063a2.249 2.249 0 0 0-.134-.3 1.018 1.018 0 0 0-.549-.446h-.01a1 1 0 0 0-1.167.447 2.241 2.241 0 0 0-.12.253c-.032.08-.069.158-.109.234-.166.297-.373.57-.614.81A4.429 4.429 0 0 1 11 22a1 1 0 1 0 0 2 6.414 6.414 0 0 0 4.707-1.793c.087-.087.169-.174.245-.261.049.065.1.129.155.194a5.001 5.001 0 0 0 7.786 0c.054-.065.106-.13.155-.194.076.087.158.174.245.26A6.414 6.414 0 0 0 29 24a1 1 0 0 0 0-2ZM29 28a4.429 4.429 0 0 1-3.293-1.207 3.675 3.675 0 0 1-.614-.81 2.496 2.496 0 0 1-.109-.234 2.241 2.241 0 0 0-.12-.253 1 1 0 0 0-1.167-.447h-.01c-.23.078-.425.236-.549.446a2.249 2.249 0 0 0-.134.3l-.01.026c-.028.068-.055.137-.09.202-.15.3-.333.58-.546.839a3.007 3.007 0 0 1-4.714 0 4.46 4.46 0 0 1-.546-.84 2.429 2.429 0 0 1-.073-.164l-.027-.063a2.249 2.249 0 0 0-.134-.3 1.018 1.018 0 0 0-.549-.446h-.01a1 1 0 0 0-1.167.447 2.241 2.241 0 0 0-.12.253c-.032.08-.069.158-.109.234-.166.297-.373.57-.614.81A4.429 4.429 0 0 1 11 28a1 1 0 1 0 0 2 6.414 6.414 0 0 0 4.707-1.793c.087-.087.169-.174.245-.261.049.065.1.129.155.194a5.001 5.001 0 0 0 7.786 0c.054-.065.106-.13.155-.194.076.087.158.174.245.26A6.414 6.414 0 0 0 29 30a1 1 0 0 0 0-2Z"/></svg>