<svg xmlns="http://www.w3.org/2000/svg" width="20" height="20" fill="currentColor"><path d="M11.257 2.122a2 2 0 0 0-2.514 0l-5 4.039A2 2 0 0 0 3 7.717V15a2 2 0 0 0 2 2h5.095l.013-.032c.076-.182.186-.348.325-.487l.418-.417a1.51 1.51 0 0 1-.418-.29 1.5 1.5 0 0 1 0-2.121l.707-.707c.118-.115.253-.21.4-.281l-.1-.105A1.5 1.5 0 0 1 12.5 10H17V7.717a2 2 0 0 0-.743-1.556l-5-4.039Z"/><path d="M12.5 11h5a.5.5 0 0 1 .5.5v5a.5.5 0 0 1-.853.354l-5-5A.5.5 0 0 1 12.5 11ZM12.562 13.657a.5.5 0 0 1 0 .707l-.707.708a.5.5 0 0 1-.708-.708l.708-.707a.5.5 0 0 1 .707 0ZM15.389 16.486a.5.5 0 0 1 0 .707l-.707.707a.5.5 0 1 1-.707-.707l.707-.707a.5.5 0 0 1 .707 0ZM13.975 15.072a.5.5 0 0 1 0 .707l-2.12 2.12a.5.5 0 0 1-.709-.706l2.122-2.121a.5.5 0 0 1 .707 0Z"/></svg>