<svg xmlns="http://www.w3.org/2000/svg" width="40" height="40" fill="currentColor"><path fill="url(#icon-a3b25578eda5e4f1__icon-a2ee6bc4ed48f61e__a)" d="M6 7a3 3 0 0 1 3-3h18a3 3 0 0 1 3 3v14c-.338 0-.672.019-1 .055V7a2 2 0 0 0-2-2H9a2 2 0 0 0-2 2v26a2 2 0 0 0 2 2h13.515c.236.352.495.686.777 1H9a3 3 0 0 1-3-3V7Z"/><path fill="url(#icon-ec733098087c2f34__icon-111da1068d2d7019__b)" d="M31 21.055a8.946 8.946 0 0 1 2.474.64.751.751 0 0 0 .026-.195v-3a.75.75 0 0 0-.75-.75H31v3.305Z"/><path fill="url(#icon-a32f066899a37fda__icon-09b03cffb2c50400__c)" d="M20.233 9.378a.5.5 0 0 0-.966-.256l-3.25 12.25a.5.5 0 0 0 .966.256l3.25-12.25Z"/><path fill="url(#icon-e0a2d2847b5c2a78__icon-cc48c48435c15b51__d)" d="M14.353 11.146a.5.5 0 0 1 0 .708L11.207 15l3.146 3.146a.5.5 0 0 1-.707.708l-3.43-3.43a.6.6 0 0 1 0-.848l3.43-3.43a.5.5 0 0 1 .707 0Z"/><path fill="url(#icon-3ea875dc529de7e2__icon-2a2d8c33f948b29d__e)" d="M21.778 11.146a.5.5 0 0 0 0 .708L24.924 15l-3.146 3.146a.5.5 0 0 0 .707.708l3.43-3.43a.6.6 0 0 0 0-.848l-3.43-3.43a.5.5 0 0 0-.707 0Z"/><path fill="url(#icon-6b707734cfa0df82__icon-d9fc4bfc60893eeb__f)" d="M32.75 10.094H31v4.5h1.75a.75.75 0 0 0 .75-.75v-3a.75.75 0 0 0-.75-.75Z"/><path fill="url(#icon-8b60734cd624e5af__icon-3371b18aa8e8db6e__g)" fill-rule="evenodd" d="M30 38a8 8 0 1 0 0-16 8 8 0 0 0 0 16Zm.5-12.5a.5.5 0 0 0-1 0v4h-4a.5.5 0 0 0 0 1h4v4a.5.5 0 0 0 1 0v-4h4a.5.5 0 0 0 0-1h-4v-4Z" clip-rule="evenodd"/><defs><linearGradient id="icon-a3b25578eda5e4f1__icon-a2ee6bc4ed48f61e__a" x1="6" x2="39.938" y1="4" y2="35.941" gradientUnits="userSpaceOnUse"><stop stop-color="#209782"/><stop offset="1" stop-color="#0C695A"/></linearGradient><linearGradient id="icon-ec733098087c2f34__icon-111da1068d2d7019__b" x1="6" x2="39.938" y1="4" y2="35.941" gradientUnits="userSpaceOnUse"><stop stop-color="#209782"/><stop offset="1" stop-color="#0C695A"/></linearGradient><linearGradient id="icon-a32f066899a37fda__icon-09b03cffb2c50400__c" x1="6" x2="39.938" y1="4" y2="35.941" gradientUnits="userSpaceOnUse"><stop stop-color="#209782"/><stop offset="1" stop-color="#0C695A"/></linearGradient><linearGradient id="icon-e0a2d2847b5c2a78__icon-cc48c48435c15b51__d" x1="6" x2="39.938" y1="4" y2="35.941" gradientUnits="userSpaceOnUse"><stop stop-color="#209782"/><stop offset="1" stop-color="#0C695A"/></linearGradient><linearGradient id="icon-3ea875dc529de7e2__icon-2a2d8c33f948b29d__e" x1="6" x2="39.938" y1="4" y2="35.941" gradientUnits="userSpaceOnUse"><stop stop-color="#209782"/><stop offset="1" stop-color="#0C695A"/></linearGradient><linearGradient id="icon-6b707734cfa0df82__icon-d9fc4bfc60893eeb__f" x1="6" x2="39.938" y1="4" y2="35.941" gradientUnits="userSpaceOnUse"><stop stop-color="#209782"/><stop offset="1" stop-color="#0C695A"/></linearGradient><linearGradient id="icon-8b60734cd624e5af__icon-3371b18aa8e8db6e__g" x1="6" x2="39.938" y1="4" y2="35.941" gradientUnits="userSpaceOnUse"><stop stop-color="#209782"/><stop offset="1" stop-color="#0C695A"/></linearGradient></defs></svg>