<svg xmlns="http://www.w3.org/2000/svg" width="64" height="64" fill="currentColor"><path fill="url(#icon-a843f968e3366adb__icon-8ed060f54b933ba9__a)" d="M10 9.004a3 3 0 0 1 3-3h32a3 3 0 0 1 3 3V38.04A12.16 12.16 0 0 0 47 38V9.004a2 2 0 0 0-2-2H13a2 2 0 0 0-2 2v45a2 2 0 0 0 2 2h23.608c.2.345.415.678.647 1H13a3 3 0 0 1-3-3v-45Z"/><path fill="url(#icon-03c8eea3c57b2892__icon-5d20c8b833f151c4__b)" d="M31.621 15.015a.5.5 0 0 1 .364.606l-5 20a.5.5 0 0 1-.97-.242l5-20a.5.5 0 0 1 .606-.364Z"/><path fill="url(#icon-78949368fcf84e05__icon-7ae13f1a132de233__c)" d="M22.353 19.146a.5.5 0 0 1 0 .708L17.207 25l5.146 5.146a.5.5 0 0 1-.707.708l-5.43-5.43a.6.6 0 0 1 0-.848l5.43-5.43a.5.5 0 0 1 .707 0Z"/><path fill="url(#icon-dbbefb25cc0fd507__icon-e36a7b07f0bd3170__d)" d="M35.647 30.854a.5.5 0 0 1 0-.708L40.793 25l-5.146-5.146a.5.5 0 0 1 .707-.708l5.43 5.43a.6.6 0 0 1 0 .848l-5.43 5.43a.5.5 0 0 1-.707 0Z"/><path fill="url(#icon-b32262fbe50551ab__icon-4037a4e19606bcf7__e)" d="M49 16h2.5a1.5 1.5 0 0 1 1.5 1.5v4.2a1.5 1.5 0 0 1-1.5 1.5H49V16Z"/><path fill="url(#icon-a8f92e42e3f6f62c__icon-90ec31a23a6d2fc2__f)" d="M51.5 28.4H49v7.2h2.5a1.5 1.5 0 0 0 1.5-1.5v-4.2a1.5 1.5 0 0 0-1.5-1.5Z"/><path fill="url(#icon-93f5cb47329ae6c1__icon-ad332780a1ae69ad__g)" d="M58 50c0 6.075-4.925 11-11 11s-11-4.925-11-11 4.925-11 11-11 11 4.925 11 11Z"/><path fill="#fff" d="M47.5 44a.5.5 0 0 0-1 0v5.5H41a.5.5 0 0 0 0 1h5.5V56a.5.5 0 0 0 1 0v-5.5H53a.5.5 0 0 0 0-1h-5.5V44Z"/><defs><linearGradient id="icon-a843f968e3366adb__icon-8ed060f54b933ba9__a" x1="10" x2="64.491" y1="6.004" y2="53.563" gradientUnits="userSpaceOnUse"><stop stop-color="#209782"/><stop offset="1" stop-color="#0C695A"/></linearGradient><linearGradient id="icon-03c8eea3c57b2892__icon-5d20c8b833f151c4__b" x1="10" x2="64.491" y1="6.004" y2="53.563" gradientUnits="userSpaceOnUse"><stop stop-color="#209782"/><stop offset="1" stop-color="#0C695A"/></linearGradient><linearGradient id="icon-78949368fcf84e05__icon-7ae13f1a132de233__c" x1="10" x2="64.491" y1="6.004" y2="53.563" gradientUnits="userSpaceOnUse"><stop stop-color="#209782"/><stop offset="1" stop-color="#0C695A"/></linearGradient><linearGradient id="icon-dbbefb25cc0fd507__icon-e36a7b07f0bd3170__d" x1="10" x2="64.491" y1="6.004" y2="53.563" gradientUnits="userSpaceOnUse"><stop stop-color="#209782"/><stop offset="1" stop-color="#0C695A"/></linearGradient><linearGradient id="icon-b32262fbe50551ab__icon-4037a4e19606bcf7__e" x1="10" x2="64.491" y1="6.004" y2="53.563" gradientUnits="userSpaceOnUse"><stop stop-color="#209782"/><stop offset="1" stop-color="#0C695A"/></linearGradient><linearGradient id="icon-a8f92e42e3f6f62c__icon-90ec31a23a6d2fc2__f" x1="10" x2="64.491" y1="6.004" y2="53.563" gradientUnits="userSpaceOnUse"><stop stop-color="#209782"/><stop offset="1" stop-color="#0C695A"/></linearGradient><linearGradient id="icon-93f5cb47329ae6c1__icon-ad332780a1ae69ad__g" x1="10" x2="64.491" y1="6.004" y2="53.563" gradientUnits="userSpaceOnUse"><stop stop-color="#209782"/><stop offset="1" stop-color="#0C695A"/></linearGradient></defs></svg>