<svg xmlns="http://www.w3.org/2000/svg" width="48" height="48" fill="currentColor"><path fill="url(#icon-f068843067610f24__icon-5f1f8aa577361713__a)" d="M7 8a3 3 0 0 1 3-3h23a3 3 0 0 1 3 3v20.055A9.098 9.098 0 0 0 35 28V8a2 2 0 0 0-2-2H10a2 2 0 0 0-2 2v32a2 2 0 0 0 2 2h17.515c.236.352.495.686.777 1H10a3 3 0 0 1-3-3V8Z"/><path fill="url(#icon-488e527adf391721__icon-f6256a35ee40b043__b)" d="M23.883 10.518a.5.5 0 0 1 .35.615l-4 14.5a.5.5 0 1 1-.965-.266l4-14.5a.5.5 0 0 1 .615-.349Z"/><path fill="url(#icon-3d42ea2dc37b2a88__icon-35de8b010a82e932__c)" d="M17.103 13.646a.5.5 0 0 1 0 .708l-3.896 3.896 3.896 3.896a.5.5 0 0 1-.707.708l-4.18-4.18a.6.6 0 0 1 0-.848l4.18-4.18a.5.5 0 0 1 .707 0Z"/><path fill="url(#icon-87853ff7dd65f196__icon-a7fc9b5b2e7a7750__d)" d="M25.897 22.854a.5.5 0 0 1 0-.708l3.896-3.896-3.896-3.896a.5.5 0 0 1 .707-.708l4.18 4.18a.6.6 0 0 1 0 .848l-4.18 4.18a.5.5 0 0 1-.707 0Z"/><path fill="url(#icon-f3edc55f643f1ca5__icon-081995227c10428e__e)" d="M37 12h2a1 1 0 0 1 1 1v3.5a1 1 0 0 1-1 1h-2V12Z"/><path fill="url(#icon-6399fdda62051613__icon-2d5706e3bb4985df__f)" d="M39 21.25h-2v5.5h2a1 1 0 0 0 1-1v-3.5a1 1 0 0 0-1-1Z"/><path fill="url(#icon-e3959c161a3dbb4d__icon-2ca84eca198992e5__g)" fill-rule="evenodd" d="M35 45a8 8 0 1 0 0-16 8 8 0 0 0 0 16Zm.5-12.5a.5.5 0 0 0-1 0v4h-4a.5.5 0 0 0 0 1h4v4a.5.5 0 0 0 1 0v-4h4a.5.5 0 0 0 0-1h-4v-4Z" clip-rule="evenodd"/><defs><linearGradient id="icon-f068843067610f24__icon-5f1f8aa577361713__a" x1="7" x2="46.779" y1="5" y2="40.801" gradientUnits="userSpaceOnUse"><stop stop-color="#209782"/><stop offset="1" stop-color="#0C695A"/></linearGradient><linearGradient id="icon-488e527adf391721__icon-f6256a35ee40b043__b" x1="7" x2="46.779" y1="5" y2="40.801" gradientUnits="userSpaceOnUse"><stop stop-color="#209782"/><stop offset="1" stop-color="#0C695A"/></linearGradient><linearGradient id="icon-3d42ea2dc37b2a88__icon-35de8b010a82e932__c" x1="7" x2="46.779" y1="5" y2="40.801" gradientUnits="userSpaceOnUse"><stop stop-color="#209782"/><stop offset="1" stop-color="#0C695A"/></linearGradient><linearGradient id="icon-87853ff7dd65f196__icon-a7fc9b5b2e7a7750__d" x1="7" x2="46.779" y1="5" y2="40.801" gradientUnits="userSpaceOnUse"><stop stop-color="#209782"/><stop offset="1" stop-color="#0C695A"/></linearGradient><linearGradient id="icon-f3edc55f643f1ca5__icon-081995227c10428e__e" x1="7" x2="46.779" y1="5" y2="40.801" gradientUnits="userSpaceOnUse"><stop stop-color="#209782"/><stop offset="1" stop-color="#0C695A"/></linearGradient><linearGradient id="icon-6399fdda62051613__icon-2d5706e3bb4985df__f" x1="7" x2="46.779" y1="5" y2="40.801" gradientUnits="userSpaceOnUse"><stop stop-color="#209782"/><stop offset="1" stop-color="#0C695A"/></linearGradient><linearGradient id="icon-e3959c161a3dbb4d__icon-2ca84eca198992e5__g" x1="7" x2="46.779" y1="5" y2="40.801" gradientUnits="userSpaceOnUse"><stop stop-color="#209782"/><stop offset="1" stop-color="#0C695A"/></linearGradient></defs></svg>