<svg xmlns="http://www.w3.org/2000/svg" width="32" height="32" fill="currentColor"><path fill="url(#icon-fe157f0b413e90c0__icon-3daafeb417d51775__a)" d="M5 5a3 3 0 0 1 3-3h16a3 3 0 0 1 3 3v11.581a7.95 7.95 0 0 0-1-.329V5a2 2 0 0 0-2-2H8a2 2 0 0 0-2 2v22a2 2 0 0 0 2 2h9.755c.288.36.608.695.953 1H8a3 3 0 0 1-3-3V5Z"/><path fill="url(#icon-8a9e8c0f32a94d05__icon-67453e85ac3ffcdb__b)" d="M28 17.07c.461.267.893.579 1.29.929a.75.75 0 0 0 .71-.749v-2.5a.75.75 0 0 0-.75-.75H28v3.07Z"/><path fill="url(#icon-409477de5b8a5a75__icon-777b8aa1825d3ed7__c)" d="M17.495 6.521a.5.5 0 0 1 .335.623l-2.7 9a.5.5 0 1 1-.958-.287l2.7-9a.5.5 0 0 1 .623-.336Z"/><path fill="url(#icon-9a0822a3a39dead2__icon-02105fb26190766f__d)" d="M19.504 8.446a.5.5 0 1 0-.707.707l2.347 2.347-2.347 2.346a.5.5 0 0 0 .707.707l2.63-2.629a.6.6 0 0 0 0-.848l-2.63-2.63Z"/><path fill="url(#icon-cc5045511189161f__icon-0d05d663ef53a76b__e)" d="M12.496 8.446a.5.5 0 1 1 .707.707L10.857 11.5l2.347 2.346a.5.5 0 1 1-.708.707l-2.629-2.629a.6.6 0 0 1 0-.848l2.63-2.63Z"/><path fill="url(#icon-fd6353d4d41d30fe__icon-3fc4d40763b57ea4__f)" d="M29.25 8H28v4h1.25a.75.75 0 0 0 .75-.75v-2.5a.75.75 0 0 0-.75-.75Z"/><path fill="url(#icon-927e38ffae79377f__icon-8477d4ea5020a2b8__g)" fill-rule="evenodd" d="M31 24a7 7 0 1 1-14 0 7 7 0 0 1 14 0Zm-6.5-3.5a.5.5 0 0 0-1 0v3h-3a.5.5 0 0 0 0 1h3v3a.5.5 0 0 0 1 0v-3h3a.5.5 0 0 0 0-1h-3v-3Z" clip-rule="evenodd"/><defs><linearGradient id="icon-fe157f0b413e90c0__icon-3daafeb417d51775__a" x1="5" x2="33.828" y1="2" y2="27.846" gradientUnits="userSpaceOnUse"><stop stop-color="#209782"/><stop offset="1" stop-color="#0C695A"/></linearGradient><linearGradient id="icon-8a9e8c0f32a94d05__icon-67453e85ac3ffcdb__b" x1="5" x2="33.828" y1="2" y2="27.846" gradientUnits="userSpaceOnUse"><stop stop-color="#209782"/><stop offset="1" stop-color="#0C695A"/></linearGradient><linearGradient id="icon-409477de5b8a5a75__icon-777b8aa1825d3ed7__c" x1="5" x2="33.828" y1="2" y2="27.846" gradientUnits="userSpaceOnUse"><stop stop-color="#209782"/><stop offset="1" stop-color="#0C695A"/></linearGradient><linearGradient id="icon-9a0822a3a39dead2__icon-02105fb26190766f__d" x1="5" x2="33.828" y1="2" y2="27.846" gradientUnits="userSpaceOnUse"><stop stop-color="#209782"/><stop offset="1" stop-color="#0C695A"/></linearGradient><linearGradient id="icon-cc5045511189161f__icon-0d05d663ef53a76b__e" x1="5" x2="33.828" y1="2" y2="27.846" gradientUnits="userSpaceOnUse"><stop stop-color="#209782"/><stop offset="1" stop-color="#0C695A"/></linearGradient><linearGradient id="icon-fd6353d4d41d30fe__icon-3fc4d40763b57ea4__f" x1="5" x2="33.828" y1="2" y2="27.846" gradientUnits="userSpaceOnUse"><stop stop-color="#209782"/><stop offset="1" stop-color="#0C695A"/></linearGradient><linearGradient id="icon-927e38ffae79377f__icon-8477d4ea5020a2b8__g" x1="5" x2="33.828" y1="2" y2="27.846" gradientUnits="userSpaceOnUse"><stop stop-color="#209782"/><stop offset="1" stop-color="#0C695A"/></linearGradient></defs></svg>