<svg xmlns="http://www.w3.org/2000/svg" width="20" height="20" fill="currentColor"><path fill="url(#icon-6a8c131fe89260b4__icon-076daea19e52688b__a)" d="M5 2a2 2 0 0 0-2 2v12a2 2 0 0 0 2 2h5.257a5.503 5.503 0 0 1-.657-1H5a1 1 0 0 1-1-1V4a1 1 0 0 1 1-1h8a1 1 0 0 1 1 1v5.022a5.571 5.571 0 0 1 1 0V4a2 2 0 0 0-2-2H5Z"/><path fill="url(#icon-1cad717737a05b50__icon-76cda08db4439f0b__b)" d="M9.598 5.01a.5.5 0 0 1 .392.588l-1 5a.5.5 0 0 1-.98-.196l1-5a.5.5 0 0 1 .588-.392Z"/><path fill="url(#icon-ef809b6f7bfcceb6__icon-9761350ae865c957__c)" d="M7.353 6.146a.5.5 0 0 1 0 .708L6.207 8l1.146 1.146a.5.5 0 1 1-.707.708l-1.43-1.43a.6.6 0 0 1 0-.848l1.43-1.43a.5.5 0 0 1 .707 0Z"/><path fill="url(#icon-e49f99a7eb789d92__icon-abe5f3a19c0d8df1__d)" d="M10.647 6.146a.5.5 0 0 0 0 .708L11.793 8l-1.146 1.146a.5.5 0 1 0 .707.708l1.43-1.43a.6.6 0 0 0 0-.848l-1.43-1.43a.5.5 0 0 0-.707 0Z"/><path fill="url(#icon-2056d45f70f45e49__icon-6d09b7dbf6119caa__e)" d="M16.5 6H16v2.5h.5A.5.5 0 0 0 17 8V6.5a.5.5 0 0 0-.5-.5Z"/><path fill="url(#icon-5425eab7d1dda8bb__icon-fc75a0dedb0ad225__f)" fill-rule="evenodd" d="M19 14.5a4.5 4.5 0 1 1-9 0 4.5 4.5 0 0 1 9 0Zm-4-2a.5.5 0 0 0-1 0V14h-1.5a.5.5 0 0 0 0 1H14v1.5a.5.5 0 0 0 1 0V15h1.5a.5.5 0 0 0 0-1H15v-1.5Z" clip-rule="evenodd"/><defs><linearGradient id="icon-6a8c131fe89260b4__icon-076daea19e52688b__a" x1="3" x2="19.969" y1="2" y2="17.971" gradientUnits="userSpaceOnUse"><stop stop-color="#209782"/><stop offset="1" stop-color="#0C695A"/></linearGradient><linearGradient id="icon-1cad717737a05b50__icon-76cda08db4439f0b__b" x1="3" x2="19.969" y1="2" y2="17.971" gradientUnits="userSpaceOnUse"><stop stop-color="#209782"/><stop offset="1" stop-color="#0C695A"/></linearGradient><linearGradient id="icon-ef809b6f7bfcceb6__icon-9761350ae865c957__c" x1="3" x2="19.969" y1="2" y2="17.971" gradientUnits="userSpaceOnUse"><stop stop-color="#209782"/><stop offset="1" stop-color="#0C695A"/></linearGradient><linearGradient id="icon-e49f99a7eb789d92__icon-abe5f3a19c0d8df1__d" x1="3" x2="19.969" y1="2" y2="17.971" gradientUnits="userSpaceOnUse"><stop stop-color="#209782"/><stop offset="1" stop-color="#0C695A"/></linearGradient><linearGradient id="icon-2056d45f70f45e49__icon-6d09b7dbf6119caa__e" x1="3" x2="19.969" y1="2" y2="17.971" gradientUnits="userSpaceOnUse"><stop stop-color="#209782"/><stop offset="1" stop-color="#0C695A"/></linearGradient><linearGradient id="icon-5425eab7d1dda8bb__icon-fc75a0dedb0ad225__f" x1="3" x2="19.969" y1="2" y2="17.971" gradientUnits="userSpaceOnUse"><stop stop-color="#209782"/><stop offset="1" stop-color="#0C695A"/></linearGradient></defs></svg>