<svg width="16" height="16" fill="none" xmlns="http://www.w3.org/2000/svg"><path d="M12.331 9.32637C13.087 9.32637 13.8053 9.93503 14.0524 10.6036C14.122 10.7922 14.1602 10.9959 14.1602 11.2084C14.1602 12.1747 13.3748 12.9584 12.4056 12.9584H11.4994C9.95307 12.9584 8.64194 13.4246 7.83482 14.8443C7.78582 14.937 7.68816 15 7.57581 15C7.41446 15 7.2832 14.8695 7.2832 14.7085V9.16187L12.331 9.32637Z" fill="url(#icon-ba85a472286c4150__icon-d13d665aed9cf660__a)"/><path d="M12.331 9.32637C13.087 9.32637 13.8053 9.93503 14.0524 10.6036C14.122 10.7922 14.1602 10.9959 14.1602 11.2084C14.1602 12.1747 13.3748 12.9584 12.4056 12.9584H11.4994C9.95307 12.9584 8.64194 13.4246 7.83482 14.8443C7.78582 14.937 7.68816 15 7.57581 15C7.41446 15 7.2832 14.8695 7.2832 14.7085V9.16187L12.331 9.32637Z" fill="url(#icon-af7b489fc98246ab__icon-5d33bb8d1f91c5ff__b)"/><path d="M14.0522 10.6035C13.8054 9.93501 13.1611 9.45829 12.405 9.45829H3.0472C1.91667 9.45829 1 8.54407 1 7.41669C1 6.28931 1.98247 5.26904 3.113 5.26904L6.8378 5.14689L11.8289 5.11469L11.9399 5.34989L14.0525 10.6032" fill="url(#icon-d343caf68daf22c6__icon-ecd7cd7450bf081f__c)"/><path d="M14.0522 10.6035C13.8054 9.93501 13.1611 9.45829 12.405 9.45829H3.0472C1.91667 9.45829 1 8.54407 1 7.41669C1 6.28931 1.98247 5.26904 3.113 5.26904L6.8378 5.14689L11.8289 5.11469L11.9399 5.34989L14.0525 10.6032" fill="url(#icon-802fef885bb0140b__icon-7ac3a88520fd4103__d)"/><path d="M14.963 4.58759L13.7982 1.69162C13.6159 1.28421 13.206 1 12.7296 1H3.46316C2.9273 1 2.47544 1.35946 2.33718 1.84982L1.05615 6.9491C1.29556 6.08668 2.06908 5.37511 3.0099 5.37511H14.4153C14.7383 5.37511 15.0002 5.114 15.0002 4.79165C15.0002 4.71989 14.9872 4.65094 14.963 4.58759Z" fill="url(#icon-cc9c97f02652a266__icon-87a0b838f89a4edd__e)"/><defs><linearGradient id="icon-ba85a472286c4150__icon-d13d665aed9cf660__a" x1="6.62764" y1="12.3011" x2="13.9862" y2="10.3295" gradientUnits="userSpaceOnUse"><stop offset="0.536" stop-color="#0A5BAB"/><stop offset="0.726" stop-color="#0A4B95"/><stop offset="0.889" stop-color="#0B3B7F"/></linearGradient><linearGradient id="icon-af7b489fc98246ab__icon-5d33bb8d1f91c5ff__b" x1="10.7217" y1="12.2297" x2="10.7217" y2="6.39155" gradientUnits="userSpaceOnUse"><stop offset="0.309" stop-opacity="0"/><stop offset="0.563" stop-opacity="0.4"/></linearGradient><linearGradient id="icon-d343caf68daf22c6__icon-ecd7cd7450bf081f__c" x1="14.4298" y1="9.19649" x2="1.38956" y2="5.70235" gradientUnits="userSpaceOnUse"><stop offset="0.1" stop-color="#A0A4F3"/><stop offset="0.6" stop-color="#3D7DEB"/><stop offset="0.95" stop-color="#2C57C2"/></linearGradient><linearGradient id="icon-802fef885bb0140b__icon-7ac3a88520fd4103__d" x1="7.52661" y1="8.49962" x2="7.52661" y2="3.01078" gradientUnits="userSpaceOnUse"><stop offset="0.28" stop-color="#2C57C2" stop-opacity="0"/><stop offset="0.564" stop-color="#2849AB" stop-opacity="0.5"/></linearGradient><linearGradient id="icon-cc9c97f02652a266__icon-87a0b838f89a4edd__e" x1="10.786" y1="-0.303783" x2="5.21286" y2="9.34911" gradientUnits="userSpaceOnUse"><stop offset="0.24" stop-color="#BBC2FB"/><stop offset="0.8" stop-color="#79B6FB"/></linearGradient></defs></svg>