<svg width="28" height="28" fill="none" xmlns="http://www.w3.org/2000/svg"><path d="M21.4249 16.2738C22.7209 16.2738 23.9522 17.3172 24.3758 18.4632C24.4952 18.7866 24.5606 19.1358 24.5606 19.5C24.5606 21.1567 23.2141 22.5001 21.5527 22.5001H19.9993C17.3484 22.5001 15.1007 23.2993 13.7171 25.733C13.6331 25.892 13.4657 26 13.2731 26C12.9965 26 12.7715 25.7762 12.7715 25.5002V15.9918L21.4249 16.2738Z" fill="url(#icon-78a2baa35752f257__icon-ff7ed897100bd778__a)"/><path d="M21.4249 16.2738C22.7209 16.2738 23.9522 17.3172 24.3758 18.4632C24.4952 18.7866 24.5606 19.1358 24.5606 19.5C24.5606 21.1567 23.2141 22.5001 21.5527 22.5001H19.9993C17.3484 22.5001 15.1007 23.2993 13.7171 25.733C13.6331 25.892 13.4657 26 13.2731 26C12.9965 26 12.7715 25.7762 12.7715 25.5002V15.9918L21.4249 16.2738Z" fill="url(#icon-71ae06403e88d2d0__icon-e20c4605c91de3b8__b)"/><path d="M24.3752 18.4632C23.9521 17.3172 22.8475 16.5 21.5515 16.5H5.50949C3.57144 16.5 2 14.9327 2 13.0001C2 11.0674 3.68424 9.31838 5.62229 9.31838L12.0077 9.10897L20.5639 9.05377L20.7541 9.45698L24.3758 18.4626" fill="url(#icon-d43c8250def00b2d__icon-37114f1291de9586__c)"/><path d="M24.3752 18.4632C23.9521 17.3172 22.8475 16.5 21.5515 16.5H5.50949C3.57144 16.5 2 14.9327 2 13.0001C2 11.0674 3.68424 9.31838 5.62229 9.31838L12.0077 9.10897L20.5639 9.05377L20.7541 9.45698L24.3758 18.4626" fill="url(#icon-6aa693b3c417c528__icon-50f9584eaf3fef4c__d)"/><path d="M25.9371 8.15015L23.9402 3.18563C23.6276 2.48721 22.925 2 22.1084 2H6.22298C5.30436 2 4.52974 2.61622 4.29273 3.45684L2.09668 12.1985C2.50709 10.72 3.83312 9.50019 5.44596 9.50019H24.9981C25.5519 9.50019 26.0007 9.05258 26.0007 8.49996C26.0007 8.37696 25.9785 8.25876 25.9371 8.15015Z" fill="url(#icon-51f8bec6b9a0401d__icon-4c8d9224e6f50036__e)"/><defs><linearGradient id="icon-78a2baa35752f257__icon-ff7ed897100bd778__a" x1="11.6477" y1="21.3733" x2="24.2624" y2="17.9934" gradientUnits="userSpaceOnUse"><stop offset="0.536" stop-color="#0A5BAB"/><stop offset="0.726" stop-color="#0A4B95"/><stop offset="0.889" stop-color="#0B3B7F"/></linearGradient><linearGradient id="icon-71ae06403e88d2d0__icon-e20c4605c91de3b8__b" x1="18.666" y1="21.2509" x2="18.666" y2="11.2426" gradientUnits="userSpaceOnUse"><stop offset="0.309" stop-opacity="0"/><stop offset="0.563" stop-opacity="0.4"/></linearGradient><linearGradient id="icon-d43c8250def00b2d__icon-37114f1291de9586__c" x1="25.0226" y1="16.0511" x2="2.66782" y2="10.0612" gradientUnits="userSpaceOnUse"><stop offset="0.1" stop-color="#A0A4F3"/><stop offset="0.6" stop-color="#3D7DEB"/><stop offset="0.95" stop-color="#2C57C2"/></linearGradient><linearGradient id="icon-6aa693b3c417c528__icon-50f9584eaf3fef4c__d" x1="13.1885" y1="14.8565" x2="13.1885" y2="5.44708" gradientUnits="userSpaceOnUse"><stop offset="0.28" stop-color="#2C57C2" stop-opacity="0"/><stop offset="0.564" stop-color="#2849AB" stop-opacity="0.5"/></linearGradient><linearGradient id="icon-51f8bec6b9a0401d__icon-4c8d9224e6f50036__e" x1="18.7765" y1="-0.235057" x2="9.22246" y2="16.3128" gradientUnits="userSpaceOnUse"><stop offset="0.24" stop-color="#BBC2FB"/><stop offset="0.8" stop-color="#79B6FB"/></linearGradient></defs></svg>