<svg width="24" height="24" fill="none" xmlns="http://www.w3.org/2000/svg"><path d="M18.1873 13.8948C19.2673 13.8948 20.2933 14.7643 20.6463 15.7193C20.7458 15.9888 20.8003 16.2799 20.8003 16.5834C20.8003 17.9639 19.6783 19.0834 18.2938 19.0834H16.9992C14.7902 19.0834 12.9171 19.7494 11.7641 21.7775C11.6941 21.91 11.5546 22 11.3941 22C11.1636 22 10.9761 21.8135 10.9761 21.5835V13.6598L18.1873 13.8948Z" fill="url(#icon-17f78864d01d172d__icon-bdd05fb74fa34702__a)"/><path d="M18.1873 13.8948C19.2673 13.8948 20.2933 14.7643 20.6463 15.7193C20.7458 15.9888 20.8003 16.2799 20.8003 16.5834C20.8003 17.9639 19.6783 19.0834 18.2938 19.0834H16.9992C14.7902 19.0834 12.9171 19.7494 11.7641 21.7775C11.6941 21.91 11.5546 22 11.3941 22C11.1636 22 10.9761 21.8135 10.9761 21.5835V13.6598L18.1873 13.8948Z" fill="url(#icon-5c69fcfab8439778__icon-39804cd66febfa76__b)"/><path d="M20.646 15.7194C20.2935 14.7643 19.3729 14.0833 18.2929 14.0833H4.92457C3.30953 14.0833 2 12.7773 2 11.1668C2 9.55622 3.40353 8.09868 5.01858 8.09868L10.3397 7.92417L17.4699 7.87817L17.6284 8.21418L20.6465 15.7189" fill="url(#icon-db80a2b86ab70d1c__icon-0ee44fe80051b371__c)"/><path d="M20.646 15.7194C20.2935 14.7643 19.3729 14.0833 18.2929 14.0833H4.92457C3.30953 14.0833 2 12.7773 2 11.1668C2 9.55622 3.40353 8.09868 5.01858 8.09868L10.3397 7.92417L17.4699 7.87817L17.6284 8.21418L20.6465 15.7189" fill="url(#icon-97af4eb6563ddf85__icon-c89660776cf84236__d)"/><path d="M21.9476 7.12513L20.2835 2.98802C20.023 2.40601 19.4375 2 18.757 2H5.51915C4.75363 2 4.10812 2.51351 3.91061 3.21403L2.08057 10.4987C2.42257 9.26668 3.5276 8.25016 4.87164 8.25016H21.165C21.6266 8.25016 22.0006 7.87715 22.0006 7.41664C22.0006 7.31413 21.9821 7.21563 21.9476 7.12513Z" fill="url(#icon-83417ecfe4bf9201__icon-6d98dcd8fc6e0462__e)"/><defs><linearGradient id="icon-17f78864d01d172d__icon-bdd05fb74fa34702__a" x1="10.0396" y1="18.1444" x2="20.5518" y2="15.3278" gradientUnits="userSpaceOnUse"><stop offset="0.536" stop-color="#0A5BAB"/><stop offset="0.726" stop-color="#0A4B95"/><stop offset="0.889" stop-color="#0B3B7F"/></linearGradient><linearGradient id="icon-5c69fcfab8439778__icon-39804cd66febfa76__b" x1="15.8882" y1="18.0424" x2="15.8882" y2="9.70219" gradientUnits="userSpaceOnUse"><stop offset="0.309" stop-opacity="0"/><stop offset="0.563" stop-opacity="0.4"/></linearGradient><linearGradient id="icon-db80a2b86ab70d1c__icon-0ee44fe80051b371__c" x1="21.1855" y1="13.7093" x2="2.55651" y2="8.71769" gradientUnits="userSpaceOnUse"><stop offset="0.1" stop-color="#A0A4F3"/><stop offset="0.6" stop-color="#3D7DEB"/><stop offset="0.95" stop-color="#2C57C2"/></linearGradient><linearGradient id="icon-97af4eb6563ddf85__icon-c89660776cf84236__d" x1="11.3237" y1="12.7138" x2="11.3237" y2="4.8726" gradientUnits="userSpaceOnUse"><stop offset="0.28" stop-color="#2C57C2" stop-opacity="0"/><stop offset="0.564" stop-color="#2849AB" stop-opacity="0.5"/></linearGradient><linearGradient id="icon-83417ecfe4bf9201__icon-6d98dcd8fc6e0462__e" x1="15.9804" y1="0.137453" x2="8.01871" y2="13.9273" gradientUnits="userSpaceOnUse"><stop offset="0.24" stop-color="#BBC2FB"/><stop offset="0.8" stop-color="#79B6FB"/></linearGradient></defs></svg>