<svg width="32" height="32" fill="none" xmlns="http://www.w3.org/2000/svg"><path d="M24.6625 18.6527C26.1746 18.6527 27.611 19.8701 28.1052 21.2071C28.2445 21.5844 28.3208 21.9918 28.3208 22.4167C28.3208 24.3495 26.75 25.9168 24.8117 25.9168H22.9993C19.9066 25.9168 17.2844 26.8492 15.6701 29.6885C15.5721 29.874 15.3768 30 15.1521 30C14.8294 30 14.5669 29.7389 14.5669 29.4169V18.3237L24.6625 18.6527Z" fill="url(#icon-52ac4dfb1fafd83e__icon-c1191c23e4f068e1__a)"/><path d="M24.6625 18.6527C26.1746 18.6527 27.611 19.8701 28.1052 21.2071C28.2445 21.5844 28.3208 21.9918 28.3208 22.4167C28.3208 24.3495 26.75 25.9168 24.8117 25.9168H22.9993C19.9066 25.9168 17.2844 26.8492 15.6701 29.6885C15.5721 29.874 15.3768 30 15.1521 30C14.8294 30 14.5669 29.7389 14.5669 29.4169V18.3237L24.6625 18.6527Z" fill="url(#icon-a24abf11dd0ee81d__icon-dd151868c2231383__b)"/><path d="M28.1044 21.2071C27.6108 19.8701 26.3221 18.9166 24.8101 18.9166H6.0944C3.83335 18.9166 2 17.0882 2 14.8334C2 12.5787 3.96495 10.5381 6.22601 10.5381L13.6756 10.2938L23.6578 10.2294L23.8797 10.6998L28.1051 21.2064" fill="url(#icon-6861252a47733882__icon-553ebdbc819148f9__c)"/><path d="M28.1044 21.2071C27.6108 19.8701 26.3221 18.9166 24.8101 18.9166H6.0944C3.83335 18.9166 2 17.0882 2 14.8334C2 12.5787 3.96495 10.5381 6.22601 10.5381L13.6756 10.2938L23.6578 10.2294L23.8797 10.6998L28.1051 21.2064" fill="url(#icon-2d8d89de5606260c__icon-f9f918b9448dedc2__d)"/><path d="M29.9266 9.17518L27.5969 3.38323C27.2322 2.56841 26.4125 2 25.4598 2H6.92681C5.85509 2 4.95136 2.71892 4.67486 3.69964L2.11279 13.8982C2.5916 12.1734 4.13864 10.7502 6.02029 10.7502H28.8311C29.4772 10.7502 30.0008 10.228 30.0008 9.58329C30.0008 9.43979 29.9749 9.30188 29.9266 9.17518Z" fill="url(#icon-acebe9d1f09d63c8__icon-6b520f53a9681021__e)"/><defs><linearGradient id="icon-52ac4dfb1fafd83e__icon-c1191c23e4f068e1__a" x1="13.2558" y1="24.6022" x2="27.9729" y2="20.659" gradientUnits="userSpaceOnUse"><stop offset="0.536" stop-color="#0A5BAB"/><stop offset="0.726" stop-color="#0A4B95"/><stop offset="0.889" stop-color="#0B3B7F"/></linearGradient><linearGradient id="icon-a24abf11dd0ee81d__icon-dd151868c2231383__b" x1="21.4439" y1="24.4594" x2="21.4439" y2="12.7831" gradientUnits="userSpaceOnUse"><stop offset="0.309" stop-opacity="0"/><stop offset="0.563" stop-opacity="0.4"/></linearGradient><linearGradient id="icon-6861252a47733882__icon-553ebdbc819148f9__c" x1="28.8597" y1="18.393" x2="2.77912" y2="11.4048" gradientUnits="userSpaceOnUse"><stop offset="0.1" stop-color="#A0A4F3"/><stop offset="0.6" stop-color="#3D7DEB"/><stop offset="0.95" stop-color="#2C57C2"/></linearGradient><linearGradient id="icon-2d8d89de5606260c__icon-f9f918b9448dedc2__d" x1="15.0532" y1="16.9993" x2="15.0532" y2="6.02163" gradientUnits="userSpaceOnUse"><stop offset="0.28" stop-color="#2C57C2" stop-opacity="0"/><stop offset="0.564" stop-color="#2849AB" stop-opacity="0.5"/></linearGradient><linearGradient id="icon-acebe9d1f09d63c8__icon-6b520f53a9681021__e" x1="21.5726" y1="-0.607566" x2="10.4262" y2="18.6982" gradientUnits="userSpaceOnUse"><stop offset="0.24" stop-color="#BBC2FB"/><stop offset="0.8" stop-color="#79B6FB"/></linearGradient></defs></svg>