<svg width="20" height="20" fill="none" xmlns="http://www.w3.org/2000/svg"><path d="M14.9496 11.5158C15.8136 11.5158 16.6345 12.2114 16.9169 12.9755C16.9965 13.1911 17.0401 13.4239 17.0401 13.6667C17.0401 14.7711 16.1424 15.6667 15.0348 15.6667H13.9992C12.2319 15.6667 10.7335 16.1995 9.81108 17.822C9.75508 17.928 9.64348 18 9.51507 18C9.33067 18 9.18066 17.8508 9.18066 17.6668V11.3278L14.9496 11.5158Z" fill="url(#icon-1e988627ce84517d__icon-46b98c963ec48cd5__a)"/><path d="M14.9496 11.5158C15.8136 11.5158 16.6345 12.2114 16.9169 12.9755C16.9965 13.1911 17.0401 13.4239 17.0401 13.6667C17.0401 14.7711 16.1424 15.6667 15.0348 15.6667H13.9992C12.2319 15.6667 10.7335 16.1995 9.81108 17.822C9.75508 17.928 9.64348 18 9.51507 18C9.33067 18 9.18066 17.8508 9.18066 17.6668V11.3278L14.9496 11.5158Z" fill="url(#icon-32e1044748d9ff05__icon-c8a71e37013a6d48__b)"/><path d="M16.9168 12.9755C16.6348 12.2115 15.8983 11.6666 15.0343 11.6666H4.33966C3.04763 11.6666 2 10.6218 2 9.33338C2 8.04495 3.12283 6.87892 4.41486 6.87892L8.67177 6.73932L14.3759 6.70251L14.5027 6.97132L16.9172 12.9751" fill="url(#icon-0f3d691e693431d3__icon-e4be08bb92253ddf__c)"/><path d="M16.9168 12.9755C16.6348 12.2115 15.8983 11.6666 15.0343 11.6666H4.33966C3.04763 11.6666 2 10.6218 2 9.33338C2 8.04495 3.12283 6.87892 4.41486 6.87892L8.67177 6.73932L14.3759 6.70251L14.5027 6.97132L16.9172 12.9751" fill="url(#icon-4dcaf1cdd67d254b__icon-8a6214a960a421f7__d)"/><path d="M17.9581 6.1001L16.6268 2.79042C16.4184 2.32481 15.95 2 15.4056 2H4.81532C4.20291 2 3.68649 2.41081 3.52849 2.97122L2.06445 8.79897C2.33806 7.81335 3.22208 7.00013 4.29731 7.00013H17.332C17.7012 7.00013 18.0005 6.70172 18.0005 6.33331C18.0005 6.25131 17.9857 6.1725 17.9581 6.1001Z" fill="url(#icon-06891a0986a74bfe__icon-e43a5936e75bdc4a__e)"/><defs><linearGradient id="icon-1e988627ce84517d__icon-46b98c963ec48cd5__a" x1="8.43145" y1="14.9155" x2="16.8413" y2="12.6623" gradientUnits="userSpaceOnUse"><stop offset="0.536" stop-color="#0A5BAB"/><stop offset="0.726" stop-color="#0A4B95"/><stop offset="0.889" stop-color="#0B3B7F"/></linearGradient><linearGradient id="icon-32e1044748d9ff05__icon-c8a71e37013a6d48__b" x1="13.1104" y1="14.8339" x2="13.1104" y2="8.16174" gradientUnits="userSpaceOnUse"><stop offset="0.309" stop-opacity="0"/><stop offset="0.563" stop-opacity="0.4"/></linearGradient><linearGradient id="icon-0f3d691e693431d3__icon-e4be08bb92253ddf__c" x1="17.3484" y1="11.3674" x2="2.44521" y2="7.37413" gradientUnits="userSpaceOnUse"><stop offset="0.1" stop-color="#A0A4F3"/><stop offset="0.6" stop-color="#3D7DEB"/><stop offset="0.95" stop-color="#2C57C2"/></linearGradient><linearGradient id="icon-4dcaf1cdd67d254b__icon-8a6214a960a421f7__d" x1="9.45899" y1="10.571" x2="9.45899" y2="4.29805" gradientUnits="userSpaceOnUse"><stop offset="0.28" stop-color="#2C57C2" stop-opacity="0"/><stop offset="0.564" stop-color="#2849AB" stop-opacity="0.5"/></linearGradient><linearGradient id="icon-06891a0986a74bfe__icon-e43a5936e75bdc4a__e" x1="13.1843" y1="0.509962" x2="6.81497" y2="11.5418" gradientUnits="userSpaceOnUse"><stop offset="0.24" stop-color="#BBC2FB"/><stop offset="0.8" stop-color="#79B6FB"/></linearGradient></defs></svg>