<svg xmlns="http://www.w3.org/2000/svg" width="16" height="16" fill="currentColor"><path d="M9 3.5a1.5 1.5 0 1 1 1.25 1.48l-.018.032a2.983 2.983 0 0 0-1.43.514l.574-1.032A1.494 1.494 0 0 1 9 3.5Zm1.5-.5a.5.5 0 1 0 0 1 .5.5 0 0 0 0-1ZM8.7 5.6a2.501 2.501 0 0 0-2.079.314l-.767-.768a1.5 1.5 0 1 0-.707.707l.767.768a2.488 2.488 0 0 0-.299 2.132l-1.121.623a1.5 1.5 0 1 0 .486.874l1.122-.623c.288.336.664.595 1.093.74.319-.195.685-.322 1.078-.357a3.012 3.012 0 0 1-.374-.513 1.5 1.5 0 0 1 0-2.994c.204-.353.477-.66.801-.904ZM5 4.5a.5.5 0 1 1-1 0 .5.5 0 0 1 1 0Zm-1 6a.5.5 0 1 1-1 0 .5.5 0 0 1 1 0Z"/><path d="M10.5 10a2 2 0 1 0 0-4 2 2 0 0 0 0 4Zm0 5c2.5 0 3.5-1.255 3.5-2.5a1.5 1.5 0 0 0-1.5-1.5h-4A1.5 1.5 0 0 0 7 12.5c0 1.25 1 2.5 3.5 2.5Z"/></svg>