<svg xmlns="http://www.w3.org/2000/svg" width="16" height="16" fill="currentColor"><path d="M12 3.5a1.5 1.5 0 0 1-1.75 1.48l-.018.032a2.983 2.983 0 0 0-1.43.514l.574-1.033A1.5 1.5 0 1 1 12 3.5ZM6.102 9.627c.288.336.664.595 1.093.74.319-.195.685-.322 1.078-.357A2.99 2.99 0 0 1 7.5 8c0-.982.472-1.853 1.2-2.4a2.501 2.501 0 0 0-2.079.314l-.767-.767a1.5 1.5 0 1 0-.707.707l.767.767a2.488 2.488 0 0 0-.299 2.132l-1.122.623a1.5 1.5 0 1 0 .486.874l1.123-.623Z"/><path d="M12.5 8a2 2 0 1 1-4 0 2 2 0 0 1 4 0ZM14 12.5c0 1.245-1 2.5-3.5 2.5S7 13.75 7 12.5A1.5 1.5 0 0 1 8.5 11h4a1.5 1.5 0 0 1 1.5 1.5Z"/></svg>