<svg xmlns="http://www.w3.org/2000/svg" width="20" height="20" fill="currentColor"><path d="M16 3.991a2 2 0 0 1-2.647 1.893l-1.284 1.943c.356.34.628.765.784 1.243a2.983 2.983 0 0 0-.93.378 2 2 0 1 0-1.422 2.489L10.5 12c0 .35.06.687.17 1h-.195l-.012-.036a2.996 2.996 0 0 1-2.874-1.18l-1.635.788a2 2 0 1 1-.452-.892l1.633-.787a2.999 2.999 0 0 1 .637-2.902l-.935-1.174a2 2 0 1 1 .775-.632l.944 1.185C8.984 7.134 9.476 7 10 7c.442 0 .862.095 1.24.267l1.278-1.933A2 2 0 1 1 16 3.99Zm-1 0a1 1 0 1 0-2 0 1 1 0 0 0 2 0ZM6 6a1 1 0 1 0 0-2 1 1 0 0 0 0 2Zm-1 7a1 1 0 1 0-2 0 1 1 0 0 0 2 0Z"/><path d="M15.5 12a2 2 0 1 1-4 0 2 2 0 0 1 4 0ZM13.5 19c2.5 0 3.5-1.255 3.5-2.5a1.5 1.5 0 0 0-1.5-1.5h-4a1.5 1.5 0 0 0-1.5 1.5c0 1.25 1 2.5 3.5 2.5Z"/></svg>