<svg xmlns="http://www.w3.org/2000/svg" width="20" height="20" fill="currentColor"><path d="M14 5.991a2 2 0 1 0-1.482-.657L11.24 7.267A2.99 2.99 0 0 0 10 7c-.524 0-1.016.134-1.444.37l-.944-1.186a2 2 0 1 0-.775.632l.935 1.175a2.999 2.999 0 0 0-.637 2.903l-1.633.786a2 2 0 1 0 .452.892l1.635-.787a2.996 2.996 0 0 0 2.874 1.18l.012.035h.196a2.997 2.997 0 0 1-.17-1.063 2.998 2.998 0 0 1 2.352-2.867 3.001 3.001 0 0 0-.784-1.243l1.284-1.943c.203.07.42.107.647.107Z"/><path d="M15.5 12a2 2 0 1 1-4 0 2 2 0 0 1 4 0ZM17 16.5c0 1.245-1 2.5-3.5 2.5S10 17.75 10 16.5a1.5 1.5 0 0 1 1.5-1.5h4a1.5 1.5 0 0 1 1.5 1.5Z"/></svg>