<svg xmlns="http://www.w3.org/2000/svg" width="24" height="24" fill="currentColor"><g clip-path="url(#icon-125e99c00c2faa24__icon-331e68b66d229c97__a)"><mask id="icon-51bf9ea212e1ce28__icon-1d9808792aaa5c36__b" width="24" height="24" x="0" y="0" maskUnits="userSpaceOnUse" style="mask-type:luminance"><path fill="#fff" d="M24 0H0v24h24V0Z"/></mask><g mask="url(#icon-51bf9ea212e1ce28__icon-1d9808792aaa5c36__b)"><path fill="url(#icon-ac91dd0aa6e72073__icon-455d41875394afd8__c)" d="M2 5a3 3 0 0 1 3-3h14a3 3 0 0 1 3 3v14a3 3 0 0 1-3 3H5a3 3 0 0 1-3-3V5Z"/><path fill="url(#icon-2968abc698cd6866__icon-4ec4a7ac8e1b315b__d)" fill-opacity=".2" d="M2 5a3 3 0 0 1 3-3h14a3 3 0 0 1 3 3v14a3 3 0 0 1-3 3H5a3 3 0 0 1-3-3V5Z"/><path fill="url(#icon-2663baf693df39ff__icon-89e2c86d0116bb7d__e)" fill-rule="evenodd" d="M19 3H5a2 2 0 0 0-2 2v14a2 2 0 0 0 2 2h14a2 2 0 0 0 2-2V5a2 2 0 0 0-2-2ZM5 2a3 3 0 0 0-3 3v14a3 3 0 0 0 3 3h14a3 3 0 0 0 3-3V5a3 3 0 0 0-3-3H5Z" clip-rule="evenodd"/><path fill="url(#icon-a563843e799a5661__icon-6a3f4ef55aad3c80__f)" d="M12 11c1.193 0 2.317-.18 3.18-.503.283-.106.561-.237.812-.397L16 15.75c0 .775-.614 1.341-1.3 1.685-.715.358-1.669.565-2.695.565-1.026 0-1.98-.207-2.695-.565-.685-.343-1.3-.91-1.3-1.685l-.008-5.654c.252.162.533.294.818.401.863.323 1.987.503 3.18.503Z"/><path fill="url(#icon-9b02ec3c6e055150__icon-a6841ca604a36d0b__g)" d="M8.01 8.603C8.15 9.383 9.882 10 12 10c2.157 0 3.915-.64 3.997-1.442A.568.568 0 0 0 16 8.5c0-.828-1.79-1.5-3.997-1.5-2.205 0-3.992.672-3.992 1.5a.58.58 0 0 0 .01.113l-.012-.01Z"/><path fill="#F5F5F5" d="M23.56 15.44c-.28-.28-.66-.44-1.06-.44h-5c-.19 0-.38.04-.55.11l-.14.07-.13.08c-.15.1-.28.23-.44.46l-.04.07-.08.14c-.03.07-.05.13-.07.2l-.03.12v.06c-.03.16-.02.32 0 .49.06.29.2.56.41.76l.1.1c-.15.07-.28.16-.4.28l-.71.71a1.499 1.499 0 0 0 0 2.12c.12.12.27.22.42.29l-.42.42a1.499 1.499 0 1 0 2.12 2.12l.42-.42c.07.15.17.3.29.42a1.499 1.499 0 0 0 2.12 0l.71-.71c.12-.12.2-.26.27-.41l.08.08c.21.21.48.36.76.41l.2.03h.1c.2 0 .39-.04.59-.12.11-.05.2-.1.25-.14l.13-.1.06-.06.15-.17.05-.08c.17-.25.26-.54.26-.84V16.5c0-.4-.16-.78-.44-1.06h.02Z"/><path fill="url(#icon-4acc6e2292522b3e__icon-f2546ad3299abe82__h)" d="M17.504 16h5a.5.5 0 0 1 .5.5v5a.5.5 0 0 1-.084.278l-.016.022a.519.519 0 0 1-.208.162.5.5 0 0 1-.545-.108l-5-5a.498.498 0 0 1-.077-.609l.01-.015.014-.022a.499.499 0 0 1 .406-.208Z"/><path fill="url(#icon-eee635115e8ecb55__icon-f30740bcf3a7563b__i)" d="M17.56 18.653a.5.5 0 0 1 0 .707l-.706.707a.5.5 0 0 1-.707-.707l.707-.707a.5.5 0 0 1 .707 0Z"/><path fill="url(#icon-558f3755b8437c47__icon-3d72a838aad0fde7__j)" d="M20.39 21.482a.5.5 0 0 1 0 .707l-.708.707a.5.5 0 1 1-.707-.707l.707-.707a.5.5 0 0 1 .707 0Z"/><path fill="url(#icon-50e081ec1b01b665__icon-08ee4e2727d0a678__k)" d="M18.975 20.068a.5.5 0 0 1 0 .707l-2.122 2.121a.5.5 0 1 1-.707-.707l2.122-2.121a.5.5 0 0 1 .707 0Z"/></g></g><defs><linearGradient id="icon-ac91dd0aa6e72073__icon-455d41875394afd8__c" x1="7.556" x2="10.085" y1="2" y2="22.239" gradientUnits="userSpaceOnUse"><stop stop-color="#fff"/><stop offset="1" stop-color="#EBEBEB"/></linearGradient><linearGradient id="icon-2663baf693df39ff__icon-89e2c86d0116bb7d__e" x1="8.458" x2="11.151" y1="2" y2="22.197" gradientUnits="userSpaceOnUse"><stop stop-color="#BBB"/><stop offset="1" stop-color="#888"/></linearGradient><linearGradient id="icon-a563843e799a5661__icon-6a3f4ef55aad3c80__f" x1="8.002" x2="18.466" y1="7" y2="14.608" gradientUnits="userSpaceOnUse"><stop stop-color="#008EE6"/><stop offset="1" stop-color="#006094"/></linearGradient><linearGradient id="icon-9b02ec3c6e055150__icon-a6841ca604a36d0b__g" x1="8.002" x2="18.466" y1="7" y2="14.608" gradientUnits="userSpaceOnUse"><stop stop-color="#008EE6"/><stop offset="1" stop-color="#006094"/></linearGradient><linearGradient id="icon-4acc6e2292522b3e__icon-f2546ad3299abe82__h" x1="16" x2="23.042" y1="16" y2="23.004" gradientUnits="userSpaceOnUse"><stop stop-color="#008EE6"/><stop offset="1" stop-color="#006094"/></linearGradient><linearGradient id="icon-eee635115e8ecb55__icon-f30740bcf3a7563b__i" x1="16" x2="23.042" y1="16" y2="23.004" gradientUnits="userSpaceOnUse"><stop stop-color="#008EE6"/><stop offset="1" stop-color="#006094"/></linearGradient><linearGradient id="icon-558f3755b8437c47__icon-3d72a838aad0fde7__j" x1="16" x2="23.042" y1="16" y2="23.004" gradientUnits="userSpaceOnUse"><stop stop-color="#008EE6"/><stop offset="1" stop-color="#006094"/></linearGradient><linearGradient id="icon-50e081ec1b01b665__icon-08ee4e2727d0a678__k" x1="16" x2="23.042" y1="16" y2="23.004" gradientUnits="userSpaceOnUse"><stop stop-color="#008EE6"/><stop offset="1" stop-color="#006094"/></linearGradient><radialGradient id="icon-2968abc698cd6866__icon-4ec4a7ac8e1b315b__d" cx="0" cy="0" r="1" gradientTransform="rotate(56.31 -2.54 11.442) scale(19.0293 16.4677)" gradientUnits="userSpaceOnUse"><stop offset=".177" stop-color="#fff"/><stop offset="1" stop-color="#B8B8B8"/></radialGradient><clipPath id="icon-125e99c00c2faa24__icon-331e68b66d229c97__a"><path fill="#fff" d="M0 0h24v24H0z"/></clipPath></defs></svg>