<svg xmlns="http://www.w3.org/2000/svg" width="24" height="24" fill="currentColor"><g clip-path="url(#icon-ce82673bab98d65e__icon-c686c80e43f6279e__icon-ced8b2f2__a)"><path fill="url(#icon-9211b095cbc0047b__icon-b72fba8f66577ff9__icon-ced8b2f2__b)" d="M3 4a3 3 0 0 1 3-3h12a3 3 0 0 1 3 3v16a3 3 0 0 1-3 3H6a3 3 0 0 1-3-3V4Z"/><path fill="url(#icon-f95e19a936258948__icon-3b8f0af4667dbafb__icon-ced8b2f2__c)" fill-opacity=".2" d="M3 4a3 3 0 0 1 3-3h12a3 3 0 0 1 3 3v16a3 3 0 0 1-3 3H6a3 3 0 0 1-3-3V4Z"/><path fill="url(#icon-dcdee3cf01bdb966__icon-f01ffad4830f4388__icon-ced8b2f2__d)" fill-rule="evenodd" d="M18 2H6a2 2 0 0 0-2 2v16a2 2 0 0 0 2 2h12a2 2 0 0 0 2-2V4a2 2 0 0 0-2-2ZM6 1a3 3 0 0 0-3 3v16a3 3 0 0 0 3 3h12a3 3 0 0 0 3-3V4a3 3 0 0 0-3-3H6Z" clip-rule="evenodd"/><path fill="url(#icon-25e0e6f3e73227f7__icon-67877d7da14e460c__icon-ced8b2f2__e)" fill-rule="evenodd" d="M10.5 7A1.5 1.5 0 0 0 9 8.5V14h4.5a.5.5 0 0 1 .5.5v2a.5.5 0 0 0 1 0V7h-4.5ZM15 6h-4.5A2.5 2.5 0 0 0 8 8.5V14H6.5a.5.5 0 0 0-.5.5v1A2.5 2.5 0 0 0 8.5 18h5.945v-.001L14.5 18a1.5 1.5 0 0 0 1.5-1.5V12h1.5a.5.5 0 0 0 .5-.5V8a2 2 0 0 0-2-2h-1Zm-5 3.5a.5.5 0 0 1 .5-.5h3a.5.5 0 0 1 0 1h-3a.5.5 0 0 1-.5-.5Zm.5 1.5a.5.5 0 0 0 0 1h3a.5.5 0 0 0 0-1h-3Z" clip-rule="evenodd"/><path fill="#F5F5F5" d="M23.56 15.44c-.28-.28-.66-.44-1.06-.44h-5c-.19 0-.38.04-.55.11l-.14.07-.13.08c-.15.1-.28.23-.44.46l-.04.07-.08.14c-.03.07-.05.13-.07.2l-.03.12v.06c-.03.16-.02.32 0 .49.06.29.2.56.41.76l.1.1c-.15.07-.28.16-.4.28l-.71.71a1.499 1.499 0 0 0 0 2.12c.12.12.27.22.42.29l-.42.42a1.499 1.499 0 1 0 2.12 2.12l.42-.42c.07.15.17.3.29.42a1.499 1.499 0 0 0 2.12 0l.71-.71c.12-.12.2-.26.27-.41l.08.08c.21.21.48.36.76.41l.2.03h.1c.2 0 .39-.04.59-.12.11-.05.2-.1.25-.14l.13-.1.06-.06.15-.17.05-.08c.17-.25.26-.54.26-.84V16.5c0-.4-.16-.78-.44-1.06h.02Z"/><path fill="url(#icon-c9267be34d24c5f2__icon-6607e1aa0e7d932a__icon-ced8b2f2__f)" d="M17.504 16h5a.5.5 0 0 1 .5.5v5a.5.5 0 0 1-.084.278l-.016.022a.519.519 0 0 1-.208.162.5.5 0 0 1-.545-.108l-5-5a.498.498 0 0 1-.077-.609l.01-.015.014-.022a.499.499 0 0 1 .406-.208Z"/><path fill="url(#icon-3bc3a6d164f5e98d__icon-a2581ec56034518e__icon-ced8b2f2__g)" d="M17.56 18.653a.5.5 0 0 1 0 .707l-.706.708a.5.5 0 0 1-.707-.708l.707-.707a.5.5 0 0 1 .707 0Z"/><path fill="url(#icon-619b5f6d839371a0__icon-b0257249637e4815__icon-ced8b2f2__h)" d="M20.39 21.482a.5.5 0 0 1 0 .707l-.708.707a.5.5 0 1 1-.707-.707l.707-.707a.5.5 0 0 1 .707 0Z"/><path fill="url(#icon-6b0d43ec5a681ff8__icon-24337ee796f75fec__icon-ced8b2f2__i)" d="M18.975 20.068a.5.5 0 0 1 0 .707l-2.122 2.121a.5.5 0 1 1-.707-.707l2.122-2.121a.5.5 0 0 1 .707 0Z"/></g><defs><linearGradient id="icon-9211b095cbc0047b__icon-b72fba8f66577ff9__icon-ced8b2f2__b" x1="8" x2="11.376" y1="1" y2="23.095" gradientUnits="userSpaceOnUse"><stop stop-color="#fff"/><stop offset="1" stop-color="#EBEBEB"/></linearGradient><linearGradient id="icon-dcdee3cf01bdb966__icon-f01ffad4830f4388__icon-ced8b2f2__d" x1="8.813" x2="12.402" y1="1" y2="23.026" gradientUnits="userSpaceOnUse"><stop stop-color="#BBB"/><stop offset="1" stop-color="#888"/></linearGradient><linearGradient id="icon-25e0e6f3e73227f7__icon-67877d7da14e460c__icon-ced8b2f2__e" x1="6" x2="18" y1="6" y2="18" gradientUnits="userSpaceOnUse"><stop stop-color="#4BA446"/><stop offset="1" stop-color="#3F7D35"/></linearGradient><linearGradient id="icon-c9267be34d24c5f2__icon-6607e1aa0e7d932a__icon-ced8b2f2__f" x1="16" x2="23.042" y1="16" y2="23.004" gradientUnits="userSpaceOnUse"><stop stop-color="#4BA446"/><stop offset="1" stop-color="#3F7D35"/></linearGradient><linearGradient id="icon-3bc3a6d164f5e98d__icon-a2581ec56034518e__icon-ced8b2f2__g" x1="16" x2="23.042" y1="16" y2="23.004" gradientUnits="userSpaceOnUse"><stop stop-color="#4BA446"/><stop offset="1" stop-color="#3F7D35"/></linearGradient><linearGradient id="icon-619b5f6d839371a0__icon-b0257249637e4815__icon-ced8b2f2__h" x1="16" x2="23.042" y1="16" y2="23.004" gradientUnits="userSpaceOnUse"><stop stop-color="#4BA446"/><stop offset="1" stop-color="#3F7D35"/></linearGradient><linearGradient id="icon-6b0d43ec5a681ff8__icon-24337ee796f75fec__icon-ced8b2f2__i" x1="16" x2="23.042" y1="16" y2="23.004" gradientUnits="userSpaceOnUse"><stop stop-color="#4BA446"/><stop offset="1" stop-color="#3F7D35"/></linearGradient><radialGradient id="icon-f95e19a936258948__icon-3b8f0af4667dbafb__icon-ced8b2f2__c" cx="0" cy="0" r="1" gradientTransform="matrix(9.5 17.41665 -13.72809 7.48806 8.75 6.73)" gradientUnits="userSpaceOnUse"><stop offset=".177" stop-color="#fff"/><stop offset="1" stop-color="#B8B8B8"/></radialGradient><clipPath id="icon-ce82673bab98d65e__icon-c686c80e43f6279e__icon-ced8b2f2__a"><path fill="#fff" d="M0 0h24v24H0z"/></clipPath></defs></svg>