<svg xmlns="http://www.w3.org/2000/svg" width="48" height="48" fill="currentColor"><path fill="url(#icon-c03b6735b81aec94__icon-42ddaffc2b4d05c6__a)" d="M10 11a5 5 0 0 1 5-5h21a5 5 0 0 1 5 5v26a8 8 0 0 1-8 8H15a5 5 0 0 1-5-5V11Z"/><path fill="url(#icon-2b3e037856d50039__icon-8844e9d0461e2d90__b)" fill-opacity=".2" d="M10 11a5 5 0 0 1 5-5h21a5 5 0 0 1 5 5v26a8 8 0 0 1-8 8H15a5 5 0 0 1-5-5V11Z"/><path fill="url(#icon-8fad6ec0a77dfc58__icon-e32d944c019d3287__c)" fill-rule="evenodd" d="M36 7H15a4 4 0 0 0-4 4v29a4 4 0 0 0 4 4h18a7 7 0 0 0 7-7V11a4 4 0 0 0-4-4ZM15 6a5 5 0 0 0-5 5v29a5 5 0 0 0 5 5h18a8 8 0 0 0 8-8V11a5 5 0 0 0-5-5H15Z" clip-rule="evenodd"/><path fill="url(#icon-833ccbae7f1904a2__icon-bdd85bcfafb053fc__d)" d="M7 8a5 5 0 0 1 5-5h21a5 5 0 0 1 5 5v29a5 5 0 0 1-5 5H12a5 5 0 0 1-5-5V8Z"/><path fill="url(#icon-065e3de41e1c3d14__icon-1096fc9f0f6b5539__e)" fill-opacity=".2" d="M7 8a5 5 0 0 1 5-5h21a5 5 0 0 1 5 5v29a5 5 0 0 1-5 5H12a5 5 0 0 1-5-5V8Z"/><path fill="url(#icon-8ac3fcec7371729c__icon-662a4e766f7bf34e__f)" fill-rule="evenodd" d="M33 4H12a4 4 0 0 0-4 4v29a4 4 0 0 0 4 4h21a4 4 0 0 0 4-4V8a4 4 0 0 0-4-4ZM12 3a5 5 0 0 0-5 5v29a5 5 0 0 0 5 5h21a5 5 0 0 0 5-5V8a5 5 0 0 0-5-5H12Z" clip-rule="evenodd"/><path fill="#F5F5F5" fill-rule="evenodd" d="M32.156 44.664a1.5 1.5 0 1 0 2.121 2.122l.624-.624a1.5 1.5 0 0 0 2.558.977l2.121-2.12c.227-.227.366-.508.417-.8l1.456 1.42c.95.926 2.547.253 2.547-1.075V36.5a1.5 1.5 0 0 0-1.5-1.5h-8.27c-1.346 0-2.011 1.635-1.048 2.574l1.43 1.395a1.494 1.494 0 0 0-.688.392l-2.121 2.122a1.5 1.5 0 0 0 .976 2.558l-.623.623Z" clip-rule="evenodd"/><path fill="url(#icon-79d23881b1517594__icon-274401cdfa2b27bf__g)" d="M43 36.5a.5.5 0 0 0-.5-.5h-8.271a.5.5 0 0 0-.35.858l8.272 8.064a.5.5 0 0 0 .849-.358V36.5Z"/><path fill="url(#icon-5845896b886663b7__icon-876bb50f717b778c__h)" d="M37.105 42.543a.5.5 0 1 0-.707-.707l-3.535 3.535a.5.5 0 1 0 .707.707l3.535-3.535Z"/><path fill="url(#icon-961b8124c1bb217c__icon-98a64ac0301c2052__i)" d="m32.51 42.19 2.12-2.122a.5.5 0 0 1 .708.707l-2.121 2.122a.5.5 0 1 1-.708-.707Z"/><path fill="url(#icon-5d8e1aad8138501e__icon-3c061e5fc6223d76__j)" d="m38.166 43.604-2.121 2.121a.5.5 0 1 0 .707.707l2.12-2.12a.5.5 0 1 0-.706-.708Z"/><defs><linearGradient id="icon-c03b6735b81aec94__icon-42ddaffc2b4d05c6__a" x1="18.611" x2="24.762" y1="6" y2="45.116" gradientUnits="userSpaceOnUse"><stop stop-color="#fff"/><stop offset="1" stop-color="#EBEBEB"/></linearGradient><linearGradient id="icon-8fad6ec0a77dfc58__icon-e32d944c019d3287__c" x1="20.01" x2="26.55" y1="6" y2="44.986" gradientUnits="userSpaceOnUse"><stop stop-color="#BBB"/><stop offset="1" stop-color="#888"/></linearGradient><linearGradient id="icon-833ccbae7f1904a2__icon-bdd85bcfafb053fc__d" x1="15.611" x2="21.762" y1="3" y2="42.116" gradientUnits="userSpaceOnUse"><stop stop-color="#fff"/><stop offset="1" stop-color="#EBEBEB"/></linearGradient><linearGradient id="icon-8ac3fcec7371729c__icon-662a4e766f7bf34e__f" x1="17.01" x2="23.55" y1="3" y2="41.986" gradientUnits="userSpaceOnUse"><stop stop-color="#BBB"/><stop offset="1" stop-color="#888"/></linearGradient><linearGradient id="icon-79d23881b1517594__icon-274401cdfa2b27bf__g" x1="32.363" x2="42.942" y1="36" y2="46.637" gradientUnits="userSpaceOnUse"><stop stop-color="#4BA446"/><stop offset="1" stop-color="#3F7D35"/></linearGradient><linearGradient id="icon-5845896b886663b7__icon-876bb50f717b778c__h" x1="32.363" x2="42.942" y1="36" y2="46.637" gradientUnits="userSpaceOnUse"><stop stop-color="#4BA446"/><stop offset="1" stop-color="#3F7D35"/></linearGradient><linearGradient id="icon-961b8124c1bb217c__icon-98a64ac0301c2052__i" x1="32.363" x2="42.942" y1="36" y2="46.637" gradientUnits="userSpaceOnUse"><stop stop-color="#4BA446"/><stop offset="1" stop-color="#3F7D35"/></linearGradient><linearGradient id="icon-5d8e1aad8138501e__icon-3c061e5fc6223d76__j" x1="32.363" x2="42.942" y1="36" y2="46.637" gradientUnits="userSpaceOnUse"><stop stop-color="#4BA446"/><stop offset="1" stop-color="#3F7D35"/></linearGradient><radialGradient id="icon-2b3e037856d50039__icon-8844e9d0461e2d90__b" cx="0" cy="0" r="1" gradientTransform="rotate(62.08 -3.472 24.614) scale(34.9421 27.1064)" gradientUnits="userSpaceOnUse"><stop offset=".177" stop-color="#fff"/><stop offset="1" stop-color="#B8B8B8"/></radialGradient><radialGradient id="icon-065e3de41e1c3d14__icon-1096fc9f0f6b5539__e" cx="0" cy="0" r="1" gradientTransform="rotate(62.08 -2.48 20.621) scale(34.9421 27.1064)" gradientUnits="userSpaceOnUse"><stop offset=".177" stop-color="#fff"/><stop offset="1" stop-color="#B8B8B8"/></radialGradient></defs></svg>