<svg xmlns="http://www.w3.org/2000/svg" width="40" height="40" fill="currentColor"><path fill="url(#icon-a30b1b04d0136875__icon-4e434a0904123407__a)" d="M6 6a4 4 0 0 1 4-4h20a4 4 0 0 1 4 4v28a4 4 0 0 1-4 4H10a4 4 0 0 1-4-4V6Z"/><path fill="url(#icon-3158d00bc60170bd__icon-2beda27647983533__b)" fill-opacity=".2" d="M6 6a4 4 0 0 1 4-4h20a4 4 0 0 1 4 4v28a4 4 0 0 1-4 4H10a4 4 0 0 1-4-4V6Z"/><path fill="url(#icon-183463dad1c8df48__icon-44b7c38c3e76fdad__c)" fill-rule="evenodd" d="M30 3H10a3 3 0 0 0-3 3v28a3 3 0 0 0 3 3h20a3 3 0 0 0 3-3V6a3 3 0 0 0-3-3ZM10 2a4 4 0 0 0-4 4v28a4 4 0 0 0 4 4h20a4 4 0 0 0 4-4V6a4 4 0 0 0-4-4H10Z" clip-rule="evenodd"/><path fill="url(#icon-6f7a8c804eab90f3__icon-6e94b048268da0fe__d)" d="M17.5 13a.5.5 0 0 0 0 1h5a.5.5 0 0 0 0-1h-5Z"/><path fill="url(#icon-beb31da838fcc11d__icon-e2df50e81e4c39b6__e)" d="M17 16.5a.5.5 0 0 1 .5-.5h5a.5.5 0 0 1 0 1h-5a.5.5 0 0 1-.5-.5Z"/><path fill="url(#icon-9816f7fced3f0c67__icon-628cabe3d9a65e3c__f)" d="M17.5 19.031a.5.5 0 0 0 0 1h5a.5.5 0 1 0 0-1h-5Z"/><path fill="url(#icon-5ab162ead15d58a6__icon-7907b593ddb448b2__g)" fill-rule="evenodd" d="M14 22v-9a3 3 0 0 1 3-3h9.5a2.5 2.5 0 0 1 2.5 2.5V18a1 1 0 0 1-1 1h-2v6.5a2.5 2.5 0 0 1-2.454 2.5H13.5a2.5 2.5 0 0 1-2.5-2.5V23a1 1 0 0 1 1-1h2Zm1-9a2 2 0 0 1 2-2h8v14.5a1.5 1.5 0 0 1-3 0V23a1 1 0 0 0-1-1h-6v-9Z" clip-rule="evenodd"/><path fill="#F5F5F5" fill-rule="evenodd" d="M27.156 36.664a1.5 1.5 0 1 0 2.121 2.122l.624-.624a1.5 1.5 0 0 0 2.558.977l2.121-2.12c.227-.227.366-.508.417-.8l1.456 1.42c.95.926 2.547.253 2.547-1.075V28.5a1.5 1.5 0 0 0-1.5-1.5h-8.27c-1.346 0-2.011 1.635-1.048 2.574l1.43 1.395a1.494 1.494 0 0 0-.688.392l-2.121 2.122a1.5 1.5 0 0 0 .976 2.558l-.623.623Z" clip-rule="evenodd"/><path fill="url(#icon-046a8fcd6f79addb__icon-6a682594263de7bc__h)" d="M38 28.5a.5.5 0 0 0-.5-.5h-8.27a.5.5 0 0 0-.35.858l8.271 8.064a.5.5 0 0 0 .85-.358V28.5Z"/><path fill="url(#icon-85b89d0228465576__icon-44076cdefe554612__i)" d="M32.106 34.543a.5.5 0 1 0-.707-.707l-3.536 3.535a.5.5 0 1 0 .707.708l3.536-3.536Z"/><path fill="url(#icon-f335263af206d518__icon-13a4f5abb5833154__j)" d="m27.51 34.19 2.121-2.122a.5.5 0 0 1 .707.707l-2.121 2.122a.5.5 0 0 1-.707-.707Z"/><path fill="url(#icon-290d6084c1fbcd9d__icon-22b6989fb46857c2__k)" d="m33.166 35.604-2.121 2.121a.5.5 0 1 0 .707.707l2.121-2.12a.5.5 0 1 0-.707-.708Z"/><defs><linearGradient id="icon-a30b1b04d0136875__icon-4e434a0904123407__a" x1="13.778" x2="19.575" y1="2" y2="38.068" gradientUnits="userSpaceOnUse"><stop stop-color="#fff"/><stop offset="1" stop-color="#EBEBEB"/></linearGradient><linearGradient id="icon-183463dad1c8df48__icon-44b7c38c3e76fdad__c" x1="15.042" x2="21.203" y1="2" y2="37.944" gradientUnits="userSpaceOnUse"><stop stop-color="#BBB"/><stop offset="1" stop-color="#888"/></linearGradient><linearGradient id="icon-6f7a8c804eab90f3__icon-6e94b048268da0fe__d" x1="11" x2="29" y1="10" y2="28" gradientUnits="userSpaceOnUse"><stop stop-color="#4BA446"/><stop offset="1" stop-color="#3F7D35"/></linearGradient><linearGradient id="icon-beb31da838fcc11d__icon-e2df50e81e4c39b6__e" x1="11" x2="29" y1="10" y2="28" gradientUnits="userSpaceOnUse"><stop stop-color="#4BA446"/><stop offset="1" stop-color="#3F7D35"/></linearGradient><linearGradient id="icon-9816f7fced3f0c67__icon-628cabe3d9a65e3c__f" x1="11" x2="29" y1="10" y2="28" gradientUnits="userSpaceOnUse"><stop stop-color="#4BA446"/><stop offset="1" stop-color="#3F7D35"/></linearGradient><linearGradient id="icon-5ab162ead15d58a6__icon-7907b593ddb448b2__g" x1="11" x2="29" y1="10" y2="28" gradientUnits="userSpaceOnUse"><stop stop-color="#4BA446"/><stop offset="1" stop-color="#3F7D35"/></linearGradient><linearGradient id="icon-046a8fcd6f79addb__icon-6a682594263de7bc__h" x1="27.363" x2="37.942" y1="28" y2="38.637" gradientUnits="userSpaceOnUse"><stop stop-color="#4BA446"/><stop offset="1" stop-color="#3F7D35"/></linearGradient><linearGradient id="icon-85b89d0228465576__icon-44076cdefe554612__i" x1="27.363" x2="37.942" y1="28" y2="38.637" gradientUnits="userSpaceOnUse"><stop stop-color="#4BA446"/><stop offset="1" stop-color="#3F7D35"/></linearGradient><linearGradient id="icon-f335263af206d518__icon-13a4f5abb5833154__j" x1="27.363" x2="37.942" y1="28" y2="38.637" gradientUnits="userSpaceOnUse"><stop stop-color="#4BA446"/><stop offset="1" stop-color="#3F7D35"/></linearGradient><linearGradient id="icon-290d6084c1fbcd9d__icon-22b6989fb46857c2__k" x1="27.363" x2="37.942" y1="28" y2="38.637" gradientUnits="userSpaceOnUse"><stop stop-color="#4BA446"/><stop offset="1" stop-color="#3F7D35"/></linearGradient><radialGradient id="icon-3158d00bc60170bd__icon-2beda27647983533__b" cx="0" cy="0" r="1" gradientTransform="matrix(14.7778 28.50002 -21.83716 11.32298 14.944 11.375)" gradientUnits="userSpaceOnUse"><stop offset=".177" stop-color="#fff"/><stop offset="1" stop-color="#B8B8B8"/></radialGradient></defs></svg>