<svg xmlns="http://www.w3.org/2000/svg" width="40" height="40" fill="currentColor"><path fill="url(#icon-bbf3d727a667ab89__icon-7823eb7bcfeccced__icon-371ceb95__a)" d="M8 9a4 4 0 0 1 4-4h19a4 4 0 0 1 4 4v22a7 7 0 0 1-7 7H12a4 4 0 0 1-4-4V9Z"/><path fill="url(#icon-bd0aaced309f7f81__icon-f063ea62206df8fc__icon-371ceb95__b)" fill-opacity=".2" d="M8 9a4 4 0 0 1 4-4h19a4 4 0 0 1 4 4v22a7 7 0 0 1-7 7H12a4 4 0 0 1-4-4V9Z"/><path fill="url(#icon-d7cf2fd4233466e4__icon-65f83071b9761996__icon-371ceb95__c)" fill-rule="evenodd" d="M31 6H12a3 3 0 0 0-3 3v25a3 3 0 0 0 3 3h16a6 6 0 0 0 6-6V9a3 3 0 0 0-3-3ZM12 5a4 4 0 0 0-4 4v25a4 4 0 0 0 4 4h16a7 7 0 0 0 7-7V9a4 4 0 0 0-4-4H12Z" clip-rule="evenodd"/><path fill="url(#icon-09108de03d2aa9bd__icon-65f42439d0ab652b__icon-371ceb95__d)" d="M5 6a4 4 0 0 1 4-4h19a4 4 0 0 1 4 4v25a4 4 0 0 1-4 4H9a4 4 0 0 1-4-4V6Z"/><path fill="url(#icon-63efeef6b8b3e7c1__icon-ac8d728312f7feb9__icon-371ceb95__e)" fill-opacity=".2" d="M5 6a4 4 0 0 1 4-4h19a4 4 0 0 1 4 4v25a4 4 0 0 1-4 4H9a4 4 0 0 1-4-4V6Z"/><path fill="url(#icon-cdef50e2348c3874__icon-96ee30e7e0da9de8__icon-371ceb95__f)" fill-rule="evenodd" d="M28 3H9a3 3 0 0 0-3 3v25a3 3 0 0 0 3 3h19a3 3 0 0 0 3-3V6a3 3 0 0 0-3-3ZM9 2a4 4 0 0 0-4 4v25a4 4 0 0 0 4 4h19a4 4 0 0 0 4-4V6a4 4 0 0 0-4-4H9Z" clip-rule="evenodd"/><path fill="#F5F5F5" fill-rule="evenodd" d="M26.156 36.664a1.5 1.5 0 1 0 2.121 2.122l.624-.624a1.5 1.5 0 0 0 2.558.977l2.121-2.12c.227-.227.366-.508.417-.8l1.456 1.42c.95.926 2.547.253 2.547-1.075V28.5a1.5 1.5 0 0 0-1.5-1.5h-8.27c-1.346 0-2.011 1.635-1.048 2.574l1.43 1.395a1.494 1.494 0 0 0-.688.392l-2.121 2.122a1.5 1.5 0 0 0 .976 2.558l-.623.623Z" clip-rule="evenodd"/><path fill="url(#icon-23185ea42d32295c__icon-0e8c5e207f07f1fc__icon-371ceb95__g)" d="M37 28.5a.5.5 0 0 0-.5-.5h-8.271a.5.5 0 0 0-.35.858l8.272 8.064a.5.5 0 0 0 .849-.358V28.5Z"/><path fill="url(#icon-6198b25e8e404cba__icon-fe003acb3054f545__icon-371ceb95__h)" d="M31.105 34.543a.5.5 0 1 0-.707-.707l-3.535 3.535a.5.5 0 1 0 .707.707l3.535-3.535Z"/><path fill="url(#icon-06846ff7add8e32e__icon-b603b4ad90e35454__icon-371ceb95__i)" d="m26.51 34.19 2.12-2.122a.5.5 0 0 1 .708.707l-2.122 2.122a.5.5 0 1 1-.707-.707Z"/><path fill="url(#icon-9711345f21a00c66__icon-a659c2742e54407e__icon-371ceb95__j)" d="m32.166 35.604-2.121 2.121a.5.5 0 1 0 .707.707l2.121-2.12a.5.5 0 1 0-.707-.708Z"/><defs><linearGradient id="icon-bbf3d727a667ab89__icon-7823eb7bcfeccced__icon-371ceb95__a" x1="15.5" x2="20.564" y1="5" y2="38.143" gradientUnits="userSpaceOnUse"><stop stop-color="#fff"/><stop offset="1" stop-color="#EBEBEB"/></linearGradient><linearGradient id="icon-d7cf2fd4233466e4__icon-65f83071b9761996__icon-371ceb95__c" x1="16.719" x2="22.103" y1="5" y2="38.039" gradientUnits="userSpaceOnUse"><stop stop-color="#BBB"/><stop offset="1" stop-color="#888"/></linearGradient><linearGradient id="icon-09108de03d2aa9bd__icon-65f42439d0ab652b__icon-371ceb95__d" x1="12.5" x2="17.564" y1="2" y2="35.143" gradientUnits="userSpaceOnUse"><stop stop-color="#fff"/><stop offset="1" stop-color="#EBEBEB"/></linearGradient><linearGradient id="icon-cdef50e2348c3874__icon-96ee30e7e0da9de8__icon-371ceb95__f" x1="13.719" x2="19.103" y1="2" y2="35.039" gradientUnits="userSpaceOnUse"><stop stop-color="#BBB"/><stop offset="1" stop-color="#888"/></linearGradient><linearGradient id="icon-23185ea42d32295c__icon-0e8c5e207f07f1fc__icon-371ceb95__g" x1="26.363" x2="36.942" y1="28" y2="38.637" gradientUnits="userSpaceOnUse"><stop stop-color="#4BA446"/><stop offset="1" stop-color="#3F7D35"/></linearGradient><linearGradient id="icon-6198b25e8e404cba__icon-fe003acb3054f545__icon-371ceb95__h" x1="26.363" x2="36.942" y1="28" y2="38.637" gradientUnits="userSpaceOnUse"><stop stop-color="#4BA446"/><stop offset="1" stop-color="#3F7D35"/></linearGradient><linearGradient id="icon-06846ff7add8e32e__icon-b603b4ad90e35454__icon-371ceb95__i" x1="26.363" x2="36.942" y1="28" y2="38.637" gradientUnits="userSpaceOnUse"><stop stop-color="#4BA446"/><stop offset="1" stop-color="#3F7D35"/></linearGradient><linearGradient id="icon-9711345f21a00c66__icon-a659c2742e54407e__icon-371ceb95__j" x1="26.363" x2="36.942" y1="28" y2="38.637" gradientUnits="userSpaceOnUse"><stop stop-color="#4BA446"/><stop offset="1" stop-color="#3F7D35"/></linearGradient><radialGradient id="icon-bd0aaced309f7f81__icon-f063ea62206df8fc__icon-371ceb95__b" cx="0" cy="0" r="1" gradientTransform="rotate(61.389 -3.137 20.8) scale(29.7587 23.4563)" gradientUnits="userSpaceOnUse"><stop offset=".177" stop-color="#fff"/><stop offset="1" stop-color="#B8B8B8"/></radialGradient><radialGradient id="icon-63efeef6b8b3e7c1__icon-ac8d728312f7feb9__icon-371ceb95__e" cx="0" cy="0" r="1" gradientTransform="rotate(61.389 -2.11 16.773) scale(29.7587 23.4563)" gradientUnits="userSpaceOnUse"><stop offset=".177" stop-color="#fff"/><stop offset="1" stop-color="#B8B8B8"/></radialGradient></defs></svg>