<svg xmlns="http://www.w3.org/2000/svg" width="32" height="32" fill="currentColor"><g clip-path="url(#icon-45fe1b39af94a98a__icon-d85f070693f11df0__icon-2e5b2598__a)"><mask id="icon-4aaa0c6c0aae9e8f__icon-e98ae50d439ea64e__icon-2e5b2598__b" width="32" height="32" x="0" y="0" maskUnits="userSpaceOnUse" style="mask-type:luminance"><path fill="#fff" d="M32 0H0v32h32V0Z"/></mask><g mask="url(#icon-4aaa0c6c0aae9e8f__icon-e98ae50d439ea64e__icon-2e5b2598__b)"><path fill="url(#icon-55cd2e9b7f81a8e6__icon-008a82211f0a41a6__icon-2e5b2598__c)" d="M5 5.5A3.5 3.5 0 0 1 8.5 2h15A3.5 3.5 0 0 1 27 5.5v21a3.5 3.5 0 0 1-3.5 3.5h-15A3.5 3.5 0 0 1 5 26.5v-21Z"/><path fill="url(#icon-d33b86534cac72eb__icon-ed6dd12d081f232f__icon-2e5b2598__d)" fill-opacity=".2" d="M5 5.5A3.5 3.5 0 0 1 8.5 2h15A3.5 3.5 0 0 1 27 5.5v21a3.5 3.5 0 0 1-3.5 3.5h-15A3.5 3.5 0 0 1 5 26.5v-21Z"/><path fill="url(#icon-4ac7082a72748857__icon-32eaa97b671b9dc0__icon-2e5b2598__e)" fill-rule="evenodd" d="M23.5 3h-15A2.5 2.5 0 0 0 6 5.5v21A2.5 2.5 0 0 0 8.5 29h15a2.5 2.5 0 0 0 2.5-2.5v-21A2.5 2.5 0 0 0 23.5 3Zm-15-1A3.5 3.5 0 0 0 5 5.5v21A3.5 3.5 0 0 0 8.5 30h15a3.5 3.5 0 0 0 3.5-3.5v-21A3.5 3.5 0 0 0 23.5 2h-15Z" clip-rule="evenodd"/><path fill="url(#icon-68c1d3c079eafcb3__icon-50a327d56ef7c0b6__icon-2e5b2598__f)" d="M13.5 12a.5.5 0 0 0 0 1h5a.5.5 0 0 0 0-1h-5Z"/><path fill="url(#icon-0b7b692b064790a5__icon-e9188f642df31477__icon-2e5b2598__g)" d="M13 14.5a.5.5 0 0 1 .5-.5h5a.5.5 0 0 1 0 1h-5a.5.5 0 0 1-.5-.5Z"/><path fill="url(#icon-af0f93581897a223__icon-07061863222010b6__icon-2e5b2598__h)" d="M13.5 16a.5.5 0 0 0 0 1h5a.5.5 0 0 0 0-1h-5Z"/><path fill="url(#icon-a182a35c21171a4d__icon-2d7fe788d5413f24__icon-2e5b2598__i)" fill-rule="evenodd" d="M13.5 9a2.5 2.5 0 0 0-2.5 2.5V18H9.5a.5.5 0 0 0-.5.5v2a2.5 2.5 0 0 0 2.5 2.5H19a2 2 0 0 0 2-2v-5h1.5a.5.5 0 0 0 .5-.5V11a2 2 0 0 0-2-2h-7.5ZM20 21a1 1 0 1 1-2 0v-2.5a.5.5 0 0 0-.5-.5H12v-6.5a1.5 1.5 0 0 1 1.5-1.5H20v11Z" clip-rule="evenodd"/><path fill="#F5F5F5" d="M30.56 23.44c-.28-.28-.66-.44-1.06-.44h-5c-.19 0-.38.04-.55.11l-.14.07-.13.08c-.15.1-.28.23-.44.46l-.04.07-.08.14c-.03.07-.05.13-.07.2l-.03.12v.06c-.03.16-.02.32 0 .49.06.29.2.56.41.76l.1.1c-.15.07-.28.16-.4.28l-.71.71a1.499 1.499 0 0 0 0 2.12c.12.12.27.22.42.29l-.42.42a1.499 1.499 0 1 0 2.12 2.12l.42-.42c.07.15.17.3.29.42a1.499 1.499 0 0 0 2.12 0l.71-.71c.12-.12.2-.26.27-.41l.08.08c.21.21.48.36.76.41l.2.03h.1c.2 0 .39-.04.59-.12.11-.05.2-.1.25-.14l.13-.1.06-.06.15-.17.05-.08c.17-.25.26-.54.26-.84V24.5c0-.4-.16-.78-.44-1.06h.02Z"/><path fill="url(#icon-3b37944eb4b8b451__icon-cb48de5e9b71dfe9__icon-2e5b2598__j)" d="M24.504 24h5a.5.5 0 0 1 .5.5v5a.5.5 0 0 1-.084.278l-.016.022a.519.519 0 0 1-.208.162.5.5 0 0 1-.545-.108l-5-5a.498.498 0 0 1-.077-.609l.01-.015.014-.022a.499.499 0 0 1 .406-.208Z"/><path fill="url(#icon-aea1bb9932dcacd1__icon-1a6831abf79911ea__icon-2e5b2598__k)" d="M24.56 26.653a.5.5 0 0 1 0 .707l-.706.708a.5.5 0 0 1-.707-.708l.707-.707a.5.5 0 0 1 .707 0Z"/><path fill="url(#icon-ff70b3b536ba0723__icon-5e5d978d797a695a__icon-2e5b2598__l)" d="M27.39 29.482a.5.5 0 0 1 0 .707l-.708.707a.5.5 0 1 1-.707-.707l.707-.707a.5.5 0 0 1 .707 0Z"/><path fill="url(#icon-ab494a3e3dbe86ca__icon-097409e1e3646a02__icon-2e5b2598__m)" d="M25.975 28.068a.5.5 0 0 1 0 .707l-2.122 2.121a.5.5 0 1 1-.707-.707l2.122-2.121a.5.5 0 0 1 .707 0Z"/></g></g><defs><linearGradient id="icon-55cd2e9b7f81a8e6__icon-008a82211f0a41a6__icon-2e5b2598__c" x1="11.111" x2="15.576" y1="2" y2="30.067" gradientUnits="userSpaceOnUse"><stop stop-color="#fff"/><stop offset="1" stop-color="#EBEBEB"/></linearGradient><linearGradient id="icon-4ac7082a72748857__icon-32eaa97b671b9dc0__icon-2e5b2598__e" x1="12.104" x2="16.851" y1="2" y2="29.972" gradientUnits="userSpaceOnUse"><stop stop-color="#BBB"/><stop offset="1" stop-color="#888"/></linearGradient><linearGradient id="icon-68c1d3c079eafcb3__icon-50a327d56ef7c0b6__icon-2e5b2598__f" x1="9" x2="23" y1="9" y2="23" gradientUnits="userSpaceOnUse"><stop stop-color="#4BA446"/><stop offset="1" stop-color="#3F7D35"/></linearGradient><linearGradient id="icon-0b7b692b064790a5__icon-e9188f642df31477__icon-2e5b2598__g" x1="9" x2="23" y1="9" y2="23" gradientUnits="userSpaceOnUse"><stop stop-color="#4BA446"/><stop offset="1" stop-color="#3F7D35"/></linearGradient><linearGradient id="icon-af0f93581897a223__icon-07061863222010b6__icon-2e5b2598__h" x1="9" x2="23" y1="9" y2="23" gradientUnits="userSpaceOnUse"><stop stop-color="#4BA446"/><stop offset="1" stop-color="#3F7D35"/></linearGradient><linearGradient id="icon-a182a35c21171a4d__icon-2d7fe788d5413f24__icon-2e5b2598__i" x1="9" x2="23" y1="9" y2="23" gradientUnits="userSpaceOnUse"><stop stop-color="#4BA446"/><stop offset="1" stop-color="#3F7D35"/></linearGradient><linearGradient id="icon-3b37944eb4b8b451__icon-cb48de5e9b71dfe9__icon-2e5b2598__j" x1="23" x2="30.042" y1="24" y2="31.004" gradientUnits="userSpaceOnUse"><stop stop-color="#4BA446"/><stop offset="1" stop-color="#3F7D35"/></linearGradient><linearGradient id="icon-aea1bb9932dcacd1__icon-1a6831abf79911ea__icon-2e5b2598__k" x1="23" x2="30.042" y1="24" y2="31.004" gradientUnits="userSpaceOnUse"><stop stop-color="#4BA446"/><stop offset="1" stop-color="#3F7D35"/></linearGradient><linearGradient id="icon-ff70b3b536ba0723__icon-5e5d978d797a695a__icon-2e5b2598__l" x1="23" x2="30.042" y1="24" y2="31.004" gradientUnits="userSpaceOnUse"><stop stop-color="#4BA446"/><stop offset="1" stop-color="#3F7D35"/></linearGradient><linearGradient id="icon-ab494a3e3dbe86ca__icon-097409e1e3646a02__icon-2e5b2598__m" x1="23" x2="30.042" y1="24" y2="31.004" gradientUnits="userSpaceOnUse"><stop stop-color="#4BA446"/><stop offset="1" stop-color="#3F7D35"/></linearGradient><radialGradient id="icon-d33b86534cac72eb__icon-ed6dd12d081f232f__icon-2e5b2598__d" cx="0" cy="0" r="1" gradientTransform="matrix(11.61113 22.16669 -17.08352 8.94852 12.028 9.292)" gradientUnits="userSpaceOnUse"><stop offset=".177" stop-color="#fff"/><stop offset="1" stop-color="#B8B8B8"/></radialGradient><clipPath id="icon-45fe1b39af94a98a__icon-d85f070693f11df0__icon-2e5b2598__a"><path fill="#fff" d="M0 0h32v32H0z"/></clipPath></defs></svg>