<svg xmlns="http://www.w3.org/2000/svg" width="48" height="48" fill="currentColor"><path fill="url(#icon-c84b49496fa712c3__icon-d60abd44291cf456__a)" d="M5 10a5 5 0 0 1 5-5h28a5 5 0 0 1 5 5v28a5 5 0 0 1-5 5H10a5 5 0 0 1-5-5V10Z"/><path fill="url(#icon-7dc8097125b3018b__icon-29b7ece97cebbf78__b)" fill-opacity=".2" d="M5 10a5 5 0 0 1 5-5h28a5 5 0 0 1 5 5v28a5 5 0 0 1-5 5H10a5 5 0 0 1-5-5V10Z"/><path fill="url(#icon-184a87c1e3b5ac57__icon-8fd55c1010131d59__c)" fill-rule="evenodd" d="M38 6H10a4 4 0 0 0-4 4v28a4 4 0 0 0 4 4h28a4 4 0 0 0 4-4V10a4 4 0 0 0-4-4ZM10 5a5 5 0 0 0-5 5v28a5 5 0 0 0 5 5h28a5 5 0 0 0 5-5V10a5 5 0 0 0-5-5H10Z" clip-rule="evenodd"/><path fill="url(#icon-96bbd731cb039aaa__icon-e5cee81b21f07144__d)" d="M32.367 15.155c.378.377.629.824.633 1.332v.013"/><path fill="url(#icon-7115048f8924b8f0__icon-2090dfda06211a19__e)" d="M33 16.513c-.005.59-.342 1.099-.826 1.509-.489.414-1.17.767-1.973 1.054C28.593 19.652 26.4 20 24 20c-2.4 0-4.593-.348-6.201-.924-.803-.288-1.484-.64-1.973-1.054-.487-.413-.826-.926-.826-1.522a1.577 1.577 0 0 1 .003-.101v-.01c.04-.549.366-1.024.823-1.411.489-.414 1.17-.767 1.973-1.054C19.407 13.348 21.6 13 24 13c2.4 0 4.593.348 6.201.924.803.287 1.484.64 1.973 1.054.067.057.132.116.193.177"/><path fill="url(#icon-ed29a36e1b173368__icon-61ecdcd209891955__f)" d="M32.82 18.785c.06-.051.12-.105.18-.161v12.48h-.002c-.024.623-.342 1.173-.813 1.631-.488.475-1.17.88-1.973 1.21-1.607.659-3.796 1.055-6.196 1.055s-4.597-.396-6.212-1.056c-.806-.329-1.492-.733-1.983-1.208-.47-.453-.79-.999-.819-1.616H15V18.624c.06.056.12.11.18.161.614.52 1.416.923 2.282 1.233 1.742.624 4.054.982 6.538.982s4.796-.358 6.538-.982c.866-.31 1.668-.713 2.282-1.233Z"/><path fill="#F5F5F5" fill-rule="evenodd" d="M33.156 43.664a1.5 1.5 0 1 0 2.121 2.122l.624-.624a1.5 1.5 0 0 0 2.558.977l2.121-2.12c.227-.227.366-.508.417-.8l1.456 1.42c.95.926 2.547.253 2.547-1.075V35.5a1.5 1.5 0 0 0-1.5-1.5h-8.27c-1.346 0-2.011 1.635-1.048 2.574l1.43 1.395a1.494 1.494 0 0 0-.688.392l-2.121 2.122a1.5 1.5 0 0 0 .976 2.558l-.623.623Z" clip-rule="evenodd"/><path fill="url(#icon-5b9414acc06c0611__icon-d2b9bd9ced452936__g)" d="M44 35.5a.5.5 0 0 0-.5-.5h-8.27a.5.5 0 0 0-.35.858l8.271 8.064a.5.5 0 0 0 .85-.358V35.5Z"/><path fill="url(#icon-79e45d64fdef7a7f__icon-e023164c37f9eaa5__h)" d="M38.106 41.543a.5.5 0 1 0-.707-.707l-3.536 3.535a.5.5 0 1 0 .707.708l3.536-3.536Z"/><path fill="url(#icon-6209922581d7419f__icon-80fc4c7f4b4b6638__i)" d="m33.51 41.19 2.121-2.122a.5.5 0 0 1 .707.707l-2.121 2.122a.5.5 0 0 1-.707-.707Z"/><path fill="url(#icon-951523c5c87e0bee__icon-b6b545b8b18cb31b__j)" d="m39.166 42.604-2.121 2.121a.5.5 0 1 0 .707.707l2.121-2.12a.5.5 0 1 0-.707-.708Z"/><defs><linearGradient id="icon-c84b49496fa712c3__icon-d60abd44291cf456__a" x1="15.556" x2="20.362" y1="5" y2="43.455" gradientUnits="userSpaceOnUse"><stop stop-color="#fff"/><stop offset="1" stop-color="#EBEBEB"/></linearGradient><linearGradient id="icon-184a87c1e3b5ac57__icon-8fd55c1010131d59__c" x1="17.271" x2="22.387" y1="5" y2="43.373" gradientUnits="userSpaceOnUse"><stop stop-color="#BBB"/><stop offset="1" stop-color="#888"/></linearGradient><linearGradient id="icon-96bbd731cb039aaa__icon-e5cee81b21f07144__d" x1="15" x2="36.564" y1="13" y2="30.644" gradientUnits="userSpaceOnUse"><stop stop-color="#008EE6"/><stop offset="1" stop-color="#006094"/></linearGradient><linearGradient id="icon-7115048f8924b8f0__icon-2090dfda06211a19__e" x1="15" x2="36.564" y1="13" y2="30.644" gradientUnits="userSpaceOnUse"><stop stop-color="#008EE6"/><stop offset="1" stop-color="#006094"/></linearGradient><linearGradient id="icon-ed29a36e1b173368__icon-61ecdcd209891955__f" x1="15" x2="36.564" y1="13" y2="30.644" gradientUnits="userSpaceOnUse"><stop stop-color="#008EE6"/><stop offset="1" stop-color="#006094"/></linearGradient><linearGradient id="icon-5b9414acc06c0611__icon-d2b9bd9ced452936__g" x1="33.363" x2="43.942" y1="35" y2="45.637" gradientUnits="userSpaceOnUse"><stop stop-color="#008EE6"/><stop offset="1" stop-color="#006094"/></linearGradient><linearGradient id="icon-79e45d64fdef7a7f__icon-e023164c37f9eaa5__h" x1="33.363" x2="43.942" y1="35" y2="45.637" gradientUnits="userSpaceOnUse"><stop stop-color="#008EE6"/><stop offset="1" stop-color="#006094"/></linearGradient><linearGradient id="icon-6209922581d7419f__icon-80fc4c7f4b4b6638__i" x1="33.363" x2="43.942" y1="35" y2="45.637" gradientUnits="userSpaceOnUse"><stop stop-color="#008EE6"/><stop offset="1" stop-color="#006094"/></linearGradient><linearGradient id="icon-951523c5c87e0bee__icon-b6b545b8b18cb31b__j" x1="33.363" x2="43.942" y1="35" y2="45.637" gradientUnits="userSpaceOnUse"><stop stop-color="#008EE6"/><stop offset="1" stop-color="#006094"/></linearGradient><radialGradient id="icon-7dc8097125b3018b__icon-29b7ece97cebbf78__b" cx="0" cy="0" r="1" gradientTransform="rotate(56.31 -5.347 23.46) scale(36.1557 31.2886)" gradientUnits="userSpaceOnUse"><stop offset=".177" stop-color="#fff"/><stop offset="1" stop-color="#B8B8B8"/></radialGradient></defs></svg>