<svg xmlns="http://www.w3.org/2000/svg" width="40" height="40" fill="currentColor"><path fill="url(#icon-92d3aa572ad31331__icon-6b3a3deee28752f4__a)" d="M4 8a4 4 0 0 1 4-4h24a4 4 0 0 1 4 4v24a4 4 0 0 1-4 4H8a4 4 0 0 1-4-4V8Z"/><path fill="url(#icon-246f8c71d165f15f__icon-3732feaa8443fd6b__b)" fill-opacity=".2" d="M4 8a4 4 0 0 1 4-4h24a4 4 0 0 1 4 4v24a4 4 0 0 1-4 4H8a4 4 0 0 1-4-4V8Z"/><path fill="url(#icon-c2a0a2e5ee0c6500__icon-e890bf109dfc150e__c)" fill-rule="evenodd" d="M32 5H8a3 3 0 0 0-3 3v24a3 3 0 0 0 3 3h24a3 3 0 0 0 3-3V8a3 3 0 0 0-3-3ZM8 4a4 4 0 0 0-4 4v24a4 4 0 0 0 4 4h24a4 4 0 0 0 4-4V8a4 4 0 0 0-4-4H8Z" clip-rule="evenodd"/><path fill="#F5F5F5" fill-rule="evenodd" d="M27.156 36.664a1.5 1.5 0 1 0 2.121 2.122l.624-.624a1.5 1.5 0 0 0 2.558.977l2.121-2.12c.227-.227.366-.508.417-.8l1.456 1.42c.95.926 2.547.253 2.547-1.075V28.5a1.5 1.5 0 0 0-1.5-1.5h-8.27c-1.346 0-2.011 1.635-1.048 2.574l1.43 1.395a1.494 1.494 0 0 0-.688.392l-2.121 2.122a1.5 1.5 0 0 0 .976 2.558l-.623.623Z" clip-rule="evenodd"/><path fill="url(#icon-0a509c0b7f398685__icon-62981d219e950f50__d)" d="M38 28.5a.5.5 0 0 0-.5-.5h-8.27a.5.5 0 0 0-.35.858l8.271 8.064a.5.5 0 0 0 .85-.358V28.5Z"/><path fill="url(#icon-68aeee936c2e0928__icon-d99d862bea74ea5e__e)" d="M32.106 34.543a.5.5 0 1 0-.707-.707l-3.536 3.535a.5.5 0 1 0 .707.708l3.536-3.536Z"/><path fill="url(#icon-f09b1d8a4d9554d1__icon-f843cb48be171330__f)" d="m27.51 34.19 2.121-2.122a.5.5 0 0 1 .707.707l-2.121 2.122a.5.5 0 0 1-.707-.707Z"/><path fill="url(#icon-b74174f4af14735c__icon-2cafa7593d722766__g)" d="m33.166 35.604-2.121 2.121a.5.5 0 1 0 .707.707l2.121-2.12a.5.5 0 1 0-.707-.708Z"/><path fill="url(#icon-fb7ab4f77fb28af4__icon-56fa0b04cc19cebf__h)" d="M13 15.354v11.17h.008c.048.395.295.738.635 1.02.38.314.91.582 1.534.8 1.251.439 2.956.703 4.823.703 1.867 0 3.572-.264 4.823-.702.625-.219 1.154-.487 1.534-.802.34-.281.587-.624.635-1.019H27v-11.17l-.029.023c-.505.393-1.154.689-1.835.913-1.377.453-3.193.71-5.136.71s-3.759-.257-5.136-.71c-.682-.224-1.33-.52-1.835-.913a5.679 5.679 0 0 1-.029-.023Z"/><path fill="url(#icon-04ac42bc8f4d628d__icon-e66345fa582f1521__i)" d="M26.999 13.453 27 13.5c0 .426-.264.792-.643 1.087-.38.296-.91.548-1.534.753-1.251.412-2.956.66-4.823.66-1.867 0-3.572-.248-4.823-.66-.624-.205-1.154-.457-1.534-.753-.38-.295-.643-.661-.643-1.087a1.045 1.045 0 0 1 .003-.08c.03-.391.284-.73.64-1.007.38-.296.91-.548 1.534-.753C16.428 11.248 18.133 11 20 11c1.867 0 3.572.248 4.823.66.625.205 1.154.457 1.534.753.366.284.623.634.642 1.04Z"/><defs><linearGradient id="icon-92d3aa572ad31331__icon-6b3a3deee28752f4__a" x1="12.889" x2="16.937" y1="4" y2="36.383" gradientUnits="userSpaceOnUse"><stop stop-color="#fff"/><stop offset="1" stop-color="#EBEBEB"/></linearGradient><linearGradient id="icon-c2a0a2e5ee0c6500__icon-e890bf109dfc150e__c" x1="14.333" x2="18.642" y1="4" y2="36.314" gradientUnits="userSpaceOnUse"><stop stop-color="#BBB"/><stop offset="1" stop-color="#888"/></linearGradient><linearGradient id="icon-0a509c0b7f398685__icon-62981d219e950f50__d" x1="27.363" x2="37.942" y1="28" y2="38.637" gradientUnits="userSpaceOnUse"><stop stop-color="#008EE6"/><stop offset="1" stop-color="#006094"/></linearGradient><linearGradient id="icon-68aeee936c2e0928__icon-d99d862bea74ea5e__e" x1="27.363" x2="37.942" y1="28" y2="38.637" gradientUnits="userSpaceOnUse"><stop stop-color="#008EE6"/><stop offset="1" stop-color="#006094"/></linearGradient><linearGradient id="icon-f09b1d8a4d9554d1__icon-f843cb48be171330__f" x1="27.363" x2="37.942" y1="28" y2="38.637" gradientUnits="userSpaceOnUse"><stop stop-color="#008EE6"/><stop offset="1" stop-color="#006094"/></linearGradient><linearGradient id="icon-b74174f4af14735c__icon-2cafa7593d722766__g" x1="27.363" x2="37.942" y1="28" y2="38.637" gradientUnits="userSpaceOnUse"><stop stop-color="#008EE6"/><stop offset="1" stop-color="#006094"/></linearGradient><linearGradient id="icon-fb7ab4f77fb28af4__icon-56fa0b04cc19cebf__h" x1="13" x2="30.481" y1="11" y2="24.561" gradientUnits="userSpaceOnUse"><stop stop-color="#008EE6"/><stop offset="1" stop-color="#006094"/></linearGradient><linearGradient id="icon-04ac42bc8f4d628d__icon-e66345fa582f1521__i" x1="13" x2="30.481" y1="11" y2="24.56" gradientUnits="userSpaceOnUse"><stop stop-color="#008EE6"/><stop offset="1" stop-color="#006094"/></linearGradient><radialGradient id="icon-246f8c71d165f15f__icon-3732feaa8443fd6b__b" cx="0" cy="0" r="1" gradientTransform="rotate(56.31 -4.411 19.454) scale(30.4469 26.3483)" gradientUnits="userSpaceOnUse"><stop offset=".177" stop-color="#fff"/><stop offset="1" stop-color="#B8B8B8"/></radialGradient></defs></svg>