<svg xmlns="http://www.w3.org/2000/svg" width="48" height="48" fill="currentColor"><path fill="url(#icon-594850e44cb6809f__icon-727cba59f7dc5f7a__a)" d="M8 8a5 5 0 0 1 5-5h22a5 5 0 0 1 5 5v32a5 5 0 0 1-5 5H13a5 5 0 0 1-5-5V8Z"/><path fill="url(#icon-97eae4bb9495b31d__icon-38dc485428bfebf6__b)" fill-opacity=".2" d="M8 8a5 5 0 0 1 5-5h22a5 5 0 0 1 5 5v32a5 5 0 0 1-5 5H13a5 5 0 0 1-5-5V8Z"/><path fill="url(#icon-d9114ebabad0f4f3__icon-e512fc347dc7e30a__c)" fill-rule="evenodd" d="M35 4H13a4 4 0 0 0-4 4v32a4 4 0 0 0 4 4h22a4 4 0 0 0 4-4V8a4 4 0 0 0-4-4ZM13 3a5 5 0 0 0-5 5v32a5 5 0 0 0 5 5h22a5 5 0 0 0 5-5V8a5 5 0 0 0-5-5H13Z" clip-rule="evenodd"/><path fill="url(#icon-d9948730325b1b74__icon-e7389d602f18f7c3__d)" d="M20.5 18a.5.5 0 0 0 0 1h7a.5.5 0 0 0 0-1h-7Z"/><path fill="url(#icon-840153f02e376744__icon-6703a68312a5a6f1__e)" d="M20 21.5a.5.5 0 0 1 .5-.5h7a.5.5 0 0 1 0 1h-7a.5.5 0 0 1-.5-.5Z"/><path fill="url(#icon-271ad39a7d43ec27__icon-f604eb34e52e14e8__f)" d="M20.5 24.031a.5.5 0 0 0 0 1h7a.5.5 0 1 0 0-1h-7Z"/><path fill="url(#icon-14409ad763c19d4b__icon-b1fc8d5393e9d316__g)" fill-rule="evenodd" d="M17 27V17a3 3 0 0 1 3-3h11.5a2.5 2.5 0 0 1 2.5 2.5V23a1 1 0 0 1-1 1h-2v7.5a2.5 2.5 0 0 1-2.454 2.5H16.5a2.5 2.5 0 0 1-2.5-2.5V28a1 1 0 0 1 1-1h2Zm1-10a2 2 0 0 1 2-2h10v16.5a1.5 1.5 0 0 1-3 0V28a1 1 0 0 0-1-1h-8V17Z" clip-rule="evenodd"/><path fill="#F5F5F5" fill-rule="evenodd" d="M32.156 44.664a1.5 1.5 0 1 0 2.121 2.122l.624-.624a1.5 1.5 0 0 0 2.558.977l2.121-2.12c.227-.227.366-.508.417-.8l1.456 1.42c.95.926 2.547.253 2.547-1.075V36.5a1.5 1.5 0 0 0-1.5-1.5h-8.27c-1.346 0-2.011 1.635-1.048 2.574l1.43 1.395a1.494 1.494 0 0 0-.688.392l-2.121 2.122a1.5 1.5 0 0 0 .976 2.558l-.623.623Z" clip-rule="evenodd"/><path fill="url(#icon-788128b97619d597__icon-bee2dd527a24bf2a__h)" d="M43 36.5a.5.5 0 0 0-.5-.5h-8.271a.5.5 0 0 0-.35.858l8.272 8.064a.5.5 0 0 0 .849-.358V36.5Z"/><path fill="url(#icon-1215a556b4bc3d64__icon-4a22731c723655e7__i)" d="M37.105 42.543a.5.5 0 1 0-.707-.707l-3.535 3.535a.5.5 0 1 0 .707.707l3.535-3.535Z"/><path fill="url(#icon-49cef0d406fe9474__icon-04b84b9cd6adc82d__j)" d="m32.51 42.19 2.12-2.122a.5.5 0 0 1 .708.707l-2.121 2.122a.5.5 0 1 1-.708-.707Z"/><path fill="url(#icon-8f8424bbe6be4432__icon-5470c67730dedec1__k)" d="m38.166 43.604-2.121 2.121a.5.5 0 1 0 .707.707l2.121-2.12a.5.5 0 1 0-.707-.708Z"/><defs><linearGradient id="icon-594850e44cb6809f__icon-727cba59f7dc5f7a__a" x1="16.889" x2="23.785" y1="3" y2="45.035" gradientUnits="userSpaceOnUse"><stop stop-color="#fff"/><stop offset="1" stop-color="#EBEBEB"/></linearGradient><linearGradient id="icon-d9114ebabad0f4f3__icon-e512fc347dc7e30a__c" x1="18.333" x2="25.663" y1="3" y2="44.884" gradientUnits="userSpaceOnUse"><stop stop-color="#BBB"/><stop offset="1" stop-color="#888"/></linearGradient><linearGradient id="icon-d9948730325b1b74__icon-e7389d602f18f7c3__d" x1="14" x2="34" y1="14" y2="34" gradientUnits="userSpaceOnUse"><stop stop-color="#4BA446"/><stop offset="1" stop-color="#3F7D35"/></linearGradient><linearGradient id="icon-840153f02e376744__icon-6703a68312a5a6f1__e" x1="14" x2="34" y1="14" y2="34" gradientUnits="userSpaceOnUse"><stop stop-color="#4BA446"/><stop offset="1" stop-color="#3F7D35"/></linearGradient><linearGradient id="icon-271ad39a7d43ec27__icon-f604eb34e52e14e8__f" x1="14" x2="34" y1="14" y2="34" gradientUnits="userSpaceOnUse"><stop stop-color="#4BA446"/><stop offset="1" stop-color="#3F7D35"/></linearGradient><linearGradient id="icon-14409ad763c19d4b__icon-b1fc8d5393e9d316__g" x1="14" x2="34" y1="14" y2="34" gradientUnits="userSpaceOnUse"><stop stop-color="#4BA446"/><stop offset="1" stop-color="#3F7D35"/></linearGradient><linearGradient id="icon-788128b97619d597__icon-bee2dd527a24bf2a__h" x1="32.363" x2="42.942" y1="36" y2="46.637" gradientUnits="userSpaceOnUse"><stop stop-color="#4BA446"/><stop offset="1" stop-color="#3F7D35"/></linearGradient><linearGradient id="icon-1215a556b4bc3d64__icon-4a22731c723655e7__i" x1="32.363" x2="42.942" y1="36" y2="46.637" gradientUnits="userSpaceOnUse"><stop stop-color="#4BA446"/><stop offset="1" stop-color="#3F7D35"/></linearGradient><linearGradient id="icon-49cef0d406fe9474__icon-04b84b9cd6adc82d__j" x1="32.363" x2="42.942" y1="36" y2="46.637" gradientUnits="userSpaceOnUse"><stop stop-color="#4BA446"/><stop offset="1" stop-color="#3F7D35"/></linearGradient><linearGradient id="icon-8f8424bbe6be4432__icon-5470c67730dedec1__k" x1="32.363" x2="42.942" y1="36" y2="46.637" gradientUnits="userSpaceOnUse"><stop stop-color="#4BA446"/><stop offset="1" stop-color="#3F7D35"/></linearGradient><radialGradient id="icon-97eae4bb9495b31d__icon-38dc485428bfebf6__b" cx="0" cy="0" r="1" gradientTransform="rotate(63.072 -2.245 21.816) scale(37.2934 28.2333)" gradientUnits="userSpaceOnUse"><stop offset=".177" stop-color="#fff"/><stop offset="1" stop-color="#B8B8B8"/></radialGradient></defs></svg>