<svg xmlns="http://www.w3.org/2000/svg" width="20" height="20" fill="currentColor"><path fill="url(#icon-1c29f57a8677c4db__icon-a9bac6c1224e09c0__a)" d="M2 3.5A2.5 2.5 0 0 1 4.5 1h11A2.5 2.5 0 0 1 18 3.5v13a2.5 2.5 0 0 1-2.5 2.5h-11A2.5 2.5 0 0 1 2 16.5v-13Z"/><path fill="url(#icon-86a4945261cee8a1__icon-3f03b6b79d61d565__b)" fill-opacity=".2" d="M2 3.5A2.5 2.5 0 0 1 4.5 1h11A2.5 2.5 0 0 1 18 3.5v13a2.5 2.5 0 0 1-2.5 2.5h-11A2.5 2.5 0 0 1 2 16.5v-13Z"/><path fill="url(#icon-5984f83ef70aad5a__icon-00d11320dc9a5575__c)" fill-rule="evenodd" d="M15.5 2h-11A1.5 1.5 0 0 0 3 3.5v13A1.5 1.5 0 0 0 4.5 18h11a1.5 1.5 0 0 0 1.5-1.5v-13A1.5 1.5 0 0 0 15.5 2Zm-11-1A2.5 2.5 0 0 0 2 3.5v13A2.5 2.5 0 0 0 4.5 19h11a2.5 2.5 0 0 0 2.5-2.5v-13A2.5 2.5 0 0 0 15.5 1h-11Z" clip-rule="evenodd"/><path fill="url(#icon-e0343be92d52ba28__icon-d080fd364588e7ae__d)" d="M8.99 14.69a1.5 1.5 0 0 0-.153.31H6.5A1.5 1.5 0 0 1 5 13.5V9.668c0-.425.18-.83.497-1.115l3.5-3.15a1.5 1.5 0 0 1 2.007 0l3.5 3.15A1.5 1.5 0 0 1 15 9.668v.34L14.98 10a1.51 1.51 0 0 0-.94-.01l-.12.05c-.37.15-.66.44-.81.81-.01.02-.05.07-.11.13-.06-.05-.11-.11-.11-.13a1.49 1.49 0 0 0-1.39-.93h-.14c-.57.05-1.05.42-1.26.95-.04.08-.06.13-.06.13a.317.317 0 0 1-.09.031l-.03.009a1.5 1.5 0 0 0-1.13 1.79 1.46 1.46 0 0 0 1.264 1.15l-.004.01a.314.314 0 0 1-.09.031l-.03.009c-.39.09-.73.32-.94.66Z"/><path fill="url(#icon-351c97850ae336ed__icon-9bafa6679ae51bed__e)" d="M14.347 10.935a.498.498 0 0 0-.31.287c-.071.176-.22.379-.422.536-.2.157-.418.242-.622.242-.204 0-.417-.085-.613-.24a1.395 1.395 0 0 1-.417-.537.5.5 0 0 0-.929.007c-.103.265-.218.426-.343.533-.126.108-.294.191-.55.25a.5.5 0 1 0 .219.975c.369-.083.7-.224.982-.466.067-.058.13-.12.188-.185.071.074.148.143.23.207.325.258.751.456 1.233.456.48 0 .909-.197 1.238-.453a2.46 2.46 0 0 0 .238-.213c.058.067.121.13.19.188.28.242.613.383.982.466a.5.5 0 1 0 .22-.976c-.257-.058-.426-.141-.551-.249-.126-.107-.24-.268-.344-.533a.498.498 0 0 0-.277-.282h-.002a.501.501 0 0 0-.34-.013Z"/><path fill="url(#icon-ae2be599bb083351__icon-d25ffc6e589f7ee0__f)" d="M11.342 15.522c.067-.058.13-.12.188-.185.071.074.148.143.23.207.325.258.751.456 1.233.456.48 0 .909-.197 1.238-.453.084-.066.163-.137.238-.212.058.066.121.129.19.187.28.242.613.383.982.466a.5.5 0 1 0 .22-.976c-.257-.058-.426-.141-.551-.249-.126-.107-.24-.268-.344-.533a.498.498 0 0 0-.812-.18.498.498 0 0 0-.117.173c-.071.175-.22.378-.422.535-.2.157-.418.242-.622.242-.204 0-.417-.085-.613-.24a1.395 1.395 0 0 1-.417-.537.5.5 0 0 0-.929.007c-.103.265-.218.426-.343.533-.126.108-.294.191-.55.25a.5.5 0 1 0 .219.975c.369-.083.7-.224.982-.466Z"/><defs><linearGradient id="icon-1c29f57a8677c4db__icon-a9bac6c1224e09c0__a" x1="6.444" x2="8.996" y1="1" y2="19.141" gradientUnits="userSpaceOnUse"><stop stop-color="#fff"/><stop offset="1" stop-color="#EBEBEB"/></linearGradient><linearGradient id="icon-5984f83ef70aad5a__icon-00d11320dc9a5575__c" x1="7.167" x2="9.881" y1="1" y2="19.093" gradientUnits="userSpaceOnUse"><stop stop-color="#BBB"/><stop offset="1" stop-color="#888"/></linearGradient><linearGradient id="icon-e0343be92d52ba28__icon-d080fd364588e7ae__d" x1="5" x2="15.979" y1="5.018" y2="16.265" gradientUnits="userSpaceOnUse"><stop stop-color="#3477EA"/><stop offset="1" stop-color="#1D53A4"/></linearGradient><linearGradient id="icon-351c97850ae336ed__icon-9bafa6679ae51bed__e" x1="5" x2="15.979" y1="5.018" y2="16.265" gradientUnits="userSpaceOnUse"><stop stop-color="#3477EA"/><stop offset="1" stop-color="#1D53A4"/></linearGradient><linearGradient id="icon-ae2be599bb083351__icon-d25ffc6e589f7ee0__f" x1="5" x2="15.979" y1="5.018" y2="16.265" gradientUnits="userSpaceOnUse"><stop stop-color="#3477EA"/><stop offset="1" stop-color="#1D53A4"/></linearGradient><radialGradient id="icon-86a4945261cee8a1__icon-3f03b6b79d61d565__b" cx="0" cy="0" r="1" gradientTransform="rotate(59.349 -1.435 9.084) scale(16.5642 13.6213)" gradientUnits="userSpaceOnUse"><stop offset=".177" stop-color="#fff"/><stop offset="1" stop-color="#B8B8B8"/></radialGradient></defs></svg>