<svg xmlns="http://www.w3.org/2000/svg" width="40" height="40" fill="currentColor"><path fill="url(#icon-bdac2495d6504d00__icon-1eabf609420a3d0f__a)" d="M6 6a4 4 0 0 1 4-4h20a4 4 0 0 1 4 4v28a4 4 0 0 1-4 4H10a4 4 0 0 1-4-4V6Z"/><path fill="url(#icon-9d247df2ce41a2f8__icon-a3e7153a5f7c2f9e__b)" fill-opacity=".2" d="M6 6a4 4 0 0 1 4-4h20a4 4 0 0 1 4 4v28a4 4 0 0 1-4 4H10a4 4 0 0 1-4-4V6Z"/><path fill="url(#icon-182f707e32d40879__icon-4f9e5e33ac1601fd__c)" fill-rule="evenodd" d="M30 3H10a3 3 0 0 0-3 3v28a3 3 0 0 0 3 3h20a3 3 0 0 0 3-3V6a3 3 0 0 0-3-3ZM10 2a4 4 0 0 0-4 4v28a4 4 0 0 0 4 4h20a4 4 0 0 0 4-4V6a4 4 0 0 0-4-4H10Z" clip-rule="evenodd"/><path fill="url(#icon-c5be2b8c0b76d8ab__icon-403606407ce02524__d)" d="M20.92 28.13a1.497 1.497 0 0 0-1.042.87H13.5a2 2 0 0 1-2-2v-7.827a2 2 0 0 1 .702-1.522l6.5-5.544a2 2 0 0 1 2.597 0l6.499 5.544a2 2 0 0 1 .702 1.522v4.837c-.62 0-1.16.36-1.39.93-.01.04-.06.09-.11.13a.423.423 0 0 1-.11-.13c-.22-.55-.77-.91-1.39-.91-.62 0-1.17.35-1.39.9-.01.04-.06.09-.11.13a.423.423 0 0 1-.11-.13c-.23-.56-.76-.93-1.4-.93-.62.01-1.16.38-1.38.96-.04.09-.06.13-.06.13a.68.68 0 0 1-.13.04c-.8.18-1.31.99-1.13 1.79a1.476 1.476 0 0 0 1.266 1.157l-.006.013a.68.68 0 0 1-.13.04Z"/><path fill="url(#icon-c2bb2d64083f89fd__icon-f10cb1036c2cf8cd__e)" d="M29.75 27.09h-.01a.502.502 0 0 0 .1-.99c-.47-.11-.71-.31-.89-.78a.488.488 0 0 0-.46-.32c-.2 0-.38.12-.46.31-.15.38-.6.78-1.04.78-.44 0-.88-.41-1.03-.78-.16-.38-.78-.38-.93 0-.15.38-.6.78-1.04.78-.44 0-.88-.41-1.03-.78-.08-.19-.26-.33-.47-.31-.2 0-.39.13-.46.32-.18.47-.41.67-.89.78-.27.06-.44.33-.38.6.06.27.33.43.6.38.5-.11.88-.32 1.17-.65.37.38.86.66 1.46.66s1.13-.29 1.51-.69c.37.39.91.69 1.49.69s1.1-.28 1.48-.66c.29.33.67.54 1.17.65.031.008.08.01.1.01h-.01.02Z"/><path fill="url(#icon-249fe1bd7d07c760__icon-906724d9dbf0331a__f)" d="M29.75 30.09h-.01a.502.502 0 0 0 .1-.99c-.47-.11-.71-.31-.89-.78a.488.488 0 0 0-.46-.32c-.2 0-.38.12-.46.31-.15.38-.6.78-1.04.78-.44 0-.88-.41-1.03-.78-.16-.38-.78-.38-.93 0-.15.38-.6.78-1.04.78-.44 0-.88-.41-1.03-.78-.08-.19-.26-.33-.47-.31-.2 0-.39.13-.46.32-.18.47-.41.67-.89.78-.27.06-.44.33-.38.6.06.27.33.43.6.38.5-.11.88-.32 1.17-.65.37.38.86.66 1.46.66s1.13-.29 1.51-.69c.37.39.91.69 1.49.69s1.1-.28 1.48-.66c.29.33.67.54 1.17.65.031.008.08.01.1.01h-.01.02Z"/><defs><linearGradient id="icon-bdac2495d6504d00__icon-1eabf609420a3d0f__a" x1="13.778" x2="19.575" y1="2" y2="38.068" gradientUnits="userSpaceOnUse"><stop stop-color="#fff"/><stop offset="1" stop-color="#EBEBEB"/></linearGradient><linearGradient id="icon-182f707e32d40879__icon-4f9e5e33ac1601fd__c" x1="15.042" x2="21.203" y1="2" y2="37.944" gradientUnits="userSpaceOnUse"><stop stop-color="#BBB"/><stop offset="1" stop-color="#888"/></linearGradient><linearGradient id="icon-c5be2b8c0b76d8ab__icon-403606407ce02524__d" x1="11.5" x2="29.959" y1="11.629" y2="30.359" gradientUnits="userSpaceOnUse"><stop stop-color="#3477EA"/><stop offset="1" stop-color="#1D53A4"/></linearGradient><linearGradient id="icon-c2bb2d64083f89fd__icon-f10cb1036c2cf8cd__e" x1="11.5" x2="29.959" y1="11.629" y2="30.359" gradientUnits="userSpaceOnUse"><stop stop-color="#3477EA"/><stop offset="1" stop-color="#1D53A4"/></linearGradient><linearGradient id="icon-249fe1bd7d07c760__icon-906724d9dbf0331a__f" x1="11.5" x2="29.959" y1="11.629" y2="30.359" gradientUnits="userSpaceOnUse"><stop stop-color="#3477EA"/><stop offset="1" stop-color="#1D53A4"/></linearGradient><radialGradient id="icon-9d247df2ce41a2f8__icon-a3e7153a5f7c2f9e__b" cx="0" cy="0" r="1" gradientTransform="matrix(14.7778 28.50002 -21.83716 11.32298 14.944 11.375)" gradientUnits="userSpaceOnUse"><stop offset=".177" stop-color="#fff"/><stop offset="1" stop-color="#B8B8B8"/></radialGradient></defs></svg>