<svg xmlns="http://www.w3.org/2000/svg" width="24" height="24" fill="currentColor"><path d="M21 6.25V8H3V6.25A3.25 3.25 0 0 1 6.25 3h11.5A3.25 3.25 0 0 1 21 6.25ZM13 14.5c.29-.219.63-.375 1-.45V14a3.5 3.5 0 1 1 7 0V9.5H3v5h10ZM12.05 16H3v1.75A3.25 3.25 0 0 0 6.25 21H12v-4.5c0-.171.017-.338.05-.5Z"/><path d="M14.5 15h.5v-1a2.5 2.5 0 0 1 5 0v1h.5a1.5 1.5 0 0 1 1.5 1.5v5a1.5 1.5 0 0 1-1.5 1.5h-6a1.5 1.5 0 0 1-1.5-1.5v-5a1.5 1.5 0 0 1 1.5-1.5Zm2-1v1h2v-1a1 1 0 1 0-2 0Zm2 5a1 1 0 1 0-2 0 1 1 0 0 0 2 0Z"/></svg>