<svg xmlns="http://www.w3.org/2000/svg" width="20" height="20" fill="currentColor"><g clip-path="url(#icon-27d3c485ca7d4365__icon-dd17e0528e129dd7__a)"><path d="M2 3.499C2 2.672 2.671 2 3.5 2h1c.827 0 1.499.67 1.499 1.498v7.841a3.015 3.015 0 0 0-1-.938V3.499a.5.5 0 0 0-.5-.5h-1a.5.5 0 0 0-.5.5v6.543c-.358.06-.695.185-.999.36V3.5ZM7.977 17.886c.016-.128.023-.257.023-.385 0-.819-.393-1.545-1.002-2.001V3.499c0-.827.672-1.498 1.5-1.498h1c.828 0 1.499.67 1.499 1.498V16.48c0 .828-.671 1.498-1.5 1.498h-1c-.182 0-.357-.032-.52-.092Zm.021-14.387V16.48a.5.5 0 0 0 .5.5h1a.5.5 0 0 0 .5-.5V3.5a.5.5 0 0 0-.5-.5h-1a.5.5 0 0 0-.5.5ZM15.718 6.158a1.5 1.5 0 0 0-1.87-1.106l-.745.21a1.498 1.498 0 0 0-1.06 1.741l2.003 9.8a1.5 1.5 0 0 0 1.839 1.151l.985-.25c.79-.2 1.274-.994 1.092-1.787l-2.244-9.76Zm-1.598-.145a.5.5 0 0 1 .624.368l2.243 9.76a.5.5 0 0 1-.364.595l-.985.25a.5.5 0 0 1-.613-.383l-2.003-9.8a.5.5 0 0 1 .353-.58l.745-.21ZM5.5 13.001a2 2 0 1 1-4 0 2 2 0 0 1 4 0ZM7 17.501c0 1.245-1 2.5-3.5 2.5s-3.5-1.25-3.5-2.5a1.5 1.5 0 0 1 1.5-1.5h4a1.5 1.5 0 0 1 1.5 1.5Z"/></g><defs><clipPath id="icon-27d3c485ca7d4365__icon-dd17e0528e129dd7__a"><path d="M0 0h20v20H0z"/></clipPath></defs></svg>