<svg xmlns="http://www.w3.org/2000/svg" width="20" height="20" fill="currentColor"><path d="M2 3.499C2 2.672 2.671 2 3.5 2h1c.827 0 1.499.67 1.499 1.498v5.524a5.571 5.571 0 0 0-1 0V3.5a.5.5 0 0 0-.5-.5h-1a.5.5 0 0 0-.5.5V9.6a5.51 5.51 0 0 0-.999.657v-6.76ZM10.997 14.319V3.499c0-.827-.671-1.498-1.5-1.498h-1c-.827 0-1.499.67-1.499 1.498v5.709c.349.098.683.23 1 .392V3.499a.5.5 0 0 1 .5-.5h1a.5.5 0 0 1 .5.5v7.835c.598.85.963 1.876.999 2.985ZM15.718 6.158a1.5 1.5 0 0 0-1.87-1.106l-.745.21a1.498 1.498 0 0 0-1.06 1.741l2.003 9.8a1.5 1.5 0 0 0 1.839 1.151l.985-.25c.79-.2 1.274-.994 1.092-1.787l-2.244-9.76Zm-1.598-.145a.5.5 0 0 1 .624.368l2.243 9.76a.5.5 0 0 1-.364.595l-.985.25a.5.5 0 0 1-.613-.383l-2.003-9.8a.5.5 0 0 1 .353-.58l.745-.21ZM4.55 11.151c-.29.727-.493 1.722-.54 2.85h2.98c-.047-1.128-.25-2.123-.54-2.85-.167-.417-.354-.722-.535-.913-.18-.191-.32-.237-.415-.237-.094 0-.235.046-.415.237-.182.191-.368.496-.535.913ZM3.83 10.321a5.327 5.327 0 0 0-.209.459c-.344.862-.565 1.987-.612 3.221H1.027a4.504 4.504 0 0 1 2.802-3.68Z"/><path d="M7.17 10.321c.075.145.144.299.208.459.345.862.565 1.987.612 3.221h1.982a4.504 4.504 0 0 0-2.802-3.68ZM9.972 15.001H7.99c-.047 1.234-.267 2.36-.612 3.221a5.3 5.3 0 0 1-.208.459A4.504 4.504 0 0 0 9.972 15ZM5.5 19.001c.094 0 .235-.046.415-.236.181-.192.368-.497.535-.914.29-.727.493-1.722.54-2.85H4.01c.047 1.128.25 2.123.54 2.85.167.417.353.722.535.914.18.19.32.236.415.236ZM3.83 18.68a4.504 4.504 0 0 1-2.803-3.679H3.01c.047 1.234.268 2.36.612 3.221a5.3 5.3 0 0 0 .208.459Z"/></svg>