<svg xmlns="http://www.w3.org/2000/svg" width="20" height="20" fill="currentColor"><g clip-path="url(#icon-39d77072b6e41ab7__icon-b6b30e5830668fd2__a)"><path d="M3.5 2.001c-.829 0-1.5.67-1.5 1.498v6.903a2.997 2.997 0 0 1 3.999.938V3.5c0-.827-.672-1.498-1.5-1.498h-1ZM8 17.501c0 .128-.007.257-.023.384.163.06.338.093.52.093h1c.829 0 1.5-.67 1.5-1.498V3.5c0-.827-.671-1.498-1.5-1.498h-1c-.827 0-1.499.67-1.499 1.498v12A2.496 2.496 0 0 1 8 17.502ZM15.718 6.158a1.5 1.5 0 0 0-1.87-1.106l-.745.21a1.498 1.498 0 0 0-1.06 1.742l2.003 9.799a1.5 1.5 0 0 0 1.839 1.151l.985-.25c.79-.2 1.274-.994 1.092-1.787l-2.244-9.76ZM5.5 13.001a2 2 0 1 1-4 0 2 2 0 0 1 4 0ZM7 17.501c0 1.245-1 2.5-3.5 2.5s-3.5-1.25-3.5-2.5a1.5 1.5 0 0 1 1.5-1.5h4a1.5 1.5 0 0 1 1.5 1.5Z"/></g><defs><clipPath id="icon-39d77072b6e41ab7__icon-b6b30e5830668fd2__a"><path d="M0 0h20v20H0z"/></clipPath></defs></svg>