<svg xmlns="http://www.w3.org/2000/svg" width="20" height="20" fill="currentColor"><g clip-path="url(#icon-f84d382e9598b915__icon-c39ad51b56657639__a)"><path d="M2 3.499C2 2.672 2.671 2 3.5 2h1c.827 0 1.499.67 1.499 1.498v8.63c-.283.1-.54.256-.759.454A2.749 2.749 0 0 0 5 12.168v-8.67a.5.5 0 0 0-.5-.498h-1a.5.5 0 0 0-.5.499v7.513a2.785 2.785 0 0 0-.999.092V3.5ZM5.5 14.251a1.248 1.248 0 0 1 1.498-1.225A1.25 1.25 0 1 1 5.5 14.25ZM8.965 17.978c-.162.805-.905 1.523-2.465 1.523h-.023A2.945 2.945 0 0 0 7 17.813c0-.483-.148-.937-.404-1.312H7.93a1.044 1.044 0 0 1 .07.002c.333.023.626.206.807.477.122.183.194.405.194.646 0 .118-.011.236-.035.352Z"/><path d="M9.987 17.897a1.499 1.499 0 0 0 1.01-1.416V3.498c0-.827-.671-1.498-1.5-1.498h-1c-.827 0-1.499.67-1.499 1.498v8.515c.367.04.708.17 1 .365v-8.88a.5.5 0 0 1 .5-.5h1a.5.5 0 0 1 .5.5V16.48a.498.498 0 0 1-.148.354c.097.248.15.516.15.792 0 .09-.004.18-.013.27ZM5.833 17.166c.106.191.167.412.167.648C6 18.902 5.143 20 3 20s-3-1.094-3-2.188c0-.724.576-1.312 1.286-1.312h3.428a1.285 1.285 0 0 1 1.119.665ZM2 15.333a1.743 1.743 0 0 0 1 .15 1.75 1.75 0 1 0-1-.15ZM15.718 6.158a1.5 1.5 0 0 0-1.87-1.106l-.745.21a1.498 1.498 0 0 0-1.06 1.741l2.003 9.8a1.5 1.5 0 0 0 1.839 1.151l.985-.25c.79-.2 1.274-.994 1.092-1.787l-2.244-9.76Zm-1.598-.145a.5.5 0 0 1 .624.368l2.243 9.76a.5.5 0 0 1-.364.595l-.985.25a.5.5 0 0 1-.613-.383l-2.003-9.8a.5.5 0 0 1 .353-.58l.745-.21Z"/></g><defs><clipPath id="icon-f84d382e9598b915__icon-c39ad51b56657639__a"><path d="M0 0h20v20H0z"/></clipPath></defs></svg>