<svg xmlns="http://www.w3.org/2000/svg" width="20" height="20" fill="currentColor"><g clip-path="url(#icon-ed5c92299e83e681__icon-91a80ffbc674cf89__a)"><path d="M2 3.499C2 2.672 2.671 2 3.5 2h1c.827 0 1.499.67 1.499 1.498v8.63c-.283.1-.54.256-.759.454A2.75 2.75 0 0 0 2 11.104V3.5ZM2.75 15.501a1.75 1.75 0 1 1 0-3.5 1.75 1.75 0 0 1 0 3.5ZM5.833 17.166c.106.19.167.412.167.648C6 18.902 5.143 20 3 20s-3-1.094-3-2.188c0-.724.576-1.312 1.286-1.312h3.428a1.276 1.276 0 0 1 1.119.665ZM7.929 16.501c.592 0 1.071.504 1.071 1.125 0 .118-.011.236-.035.352-.162.804-.904 1.523-2.465 1.523h-.023A2.945 2.945 0 0 0 7 17.813c0-.483-.148-.937-.404-1.312H7.93ZM10.997 16.48c0 .656-.422 1.214-1.01 1.416.009-.09.013-.18.013-.27 0-.919-.586-1.752-1.447-2.028a2.25 2.25 0 0 0-1.554-3.583V3.498c0-.827.67-1.498 1.499-1.498h1c.828 0 1.499.67 1.499 1.498V16.48Z"/><path d="M6.998 13.026a1.25 1.25 0 1 1-.497 2.45 1.25 1.25 0 0 1 .497-2.45ZM13.848 5.052a1.5 1.5 0 0 1 1.87 1.106l2.244 9.76a1.498 1.498 0 0 1-1.092 1.786l-.985.25a1.5 1.5 0 0 1-1.839-1.152l-2.004-9.798a1.498 1.498 0 0 1 1.06-1.741l.746-.211ZM4.876 15.496l-.005.005h.008l-.003-.005Z"/></g><defs><clipPath id="icon-ed5c92299e83e681__icon-91a80ffbc674cf89__a"><path d="M0 0h20v20H0z"/></clipPath></defs></svg>