<svg xmlns="http://www.w3.org/2000/svg" width="32" height="32" fill="currentColor"><path fill="url(#icon-7c1be6669dd6947d__icon-4732de6a1e05c2c5__a)" d="M3 6.5A3.5 3.5 0 0 1 6.5 3h19A3.5 3.5 0 0 1 29 6.5v19a3.5 3.5 0 0 1-3.5 3.5h-19A3.5 3.5 0 0 1 3 25.5v-19Z"/><path fill="url(#icon-9d0b52b0c42be73f__icon-33a61ad4b9422028__b)" fill-opacity=".2" d="M3 6.5A3.5 3.5 0 0 1 6.5 3h19A3.5 3.5 0 0 1 29 6.5v19a3.5 3.5 0 0 1-3.5 3.5h-19A3.5 3.5 0 0 1 3 25.5v-19Z"/><path fill="url(#icon-99fcdd54656208f5__icon-10a1f6298560827b__c)" fill-rule="evenodd" d="M25.5 4h-19A2.5 2.5 0 0 0 4 6.5v19A2.5 2.5 0 0 0 6.5 28h19a2.5 2.5 0 0 0 2.5-2.5v-19A2.5 2.5 0 0 0 25.5 4Zm-19-1A3.5 3.5 0 0 0 3 6.5v19A3.5 3.5 0 0 0 6.5 29h19a3.5 3.5 0 0 0 3.5-3.5v-19A3.5 3.5 0 0 0 25.5 3h-19Z" clip-rule="evenodd"/><path fill="url(#icon-daa84c03a1db0188__icon-e262238f8267eaa2__d)" d="M9 16a4.5 4.5 0 0 1 4.5-4.5h.75a.75.75 0 0 1 0 1.5h-.75a3 3 0 1 0 0 6h.75a.75.75 0 0 1 0 1.5h-.75A4.5 4.5 0 0 1 9 16Z"/><path fill="url(#icon-cdbf2cd09590823e__icon-c7a712597c761a00__e)" d="M23 16a4.5 4.5 0 0 1-4.5 4.5h-.75a.75.75 0 0 1 0-1.5h.75a3 3 0 1 0 0-6h-.75a.75.75 0 0 1 0-1.5h.75A4.5 4.5 0 0 1 23 16Z"/><path fill="url(#icon-cee23ae330052402__icon-1e8a053d32a6e4aa__f)" d="M13.75 15.25a.75.75 0 0 0 0 1.5h4.5a.75.75 0 0 0 0-1.5h-4.5Z"/><defs><linearGradient id="icon-7c1be6669dd6947d__icon-4732de6a1e05c2c5__a" x1="10.222" x2="13.511" y1="3" y2="29.311" gradientUnits="userSpaceOnUse"><stop stop-color="#fff"/><stop offset="1" stop-color="#EBEBEB"/></linearGradient><linearGradient id="icon-99fcdd54656208f5__icon-10a1f6298560827b__c" x1="11.396" x2="14.897" y1="3" y2="29.256" gradientUnits="userSpaceOnUse"><stop stop-color="#BBB"/><stop offset="1" stop-color="#888"/></linearGradient><linearGradient id="icon-daa84c03a1db0188__icon-e262238f8267eaa2__d" x1="9" x2="17.188" y1="11.5" y2="24.236" gradientUnits="userSpaceOnUse"><stop stop-color="#EB6D00"/><stop offset="1" stop-color="#B85500"/></linearGradient><linearGradient id="icon-cdbf2cd09590823e__icon-c7a712597c761a00__e" x1="9" x2="17.188" y1="11.5" y2="24.236" gradientUnits="userSpaceOnUse"><stop stop-color="#EB6D00"/><stop offset="1" stop-color="#B85500"/></linearGradient><linearGradient id="icon-cee23ae330052402__icon-1e8a053d32a6e4aa__f" x1="9" x2="17.188" y1="11.5" y2="24.236" gradientUnits="userSpaceOnUse"><stop stop-color="#EB6D00"/><stop offset="1" stop-color="#B85500"/></linearGradient><radialGradient id="icon-9d0b52b0c42be73f__icon-33a61ad4b9422028__b" cx="0" cy="0" r="1" gradientTransform="rotate(56.31 -3.476 15.448) scale(24.7381 21.408)" gradientUnits="userSpaceOnUse"><stop offset=".177" stop-color="#fff"/><stop offset="1" stop-color="#B8B8B8"/></radialGradient></defs></svg>