<svg xmlns="http://www.w3.org/2000/svg" width="40" height="40" fill="currentColor"><path fill="url(#icon-8a9a740fdf9e6e67__icon-e189f597c3b6bade__a)" d="M4 8a4 4 0 0 1 4-4h24a4 4 0 0 1 4 4v24a4 4 0 0 1-4 4H8a4 4 0 0 1-4-4V8Z"/><path fill="url(#icon-1b00b303f4985974__icon-23398be859ecc9e4__b)" fill-opacity=".2" d="M4 8a4 4 0 0 1 4-4h24a4 4 0 0 1 4 4v24a4 4 0 0 1-4 4H8a4 4 0 0 1-4-4V8Z"/><path fill="url(#icon-ada6502740439d0d__icon-aeaa47e44f1b41a0__c)" fill-rule="evenodd" d="M32 5H8a3 3 0 0 0-3 3v24a3 3 0 0 0 3 3h24a3 3 0 0 0 3-3V8a3 3 0 0 0-3-3ZM8 4a4 4 0 0 0-4 4v24a4 4 0 0 0 4 4h24a4 4 0 0 0 4-4V8a4 4 0 0 0-4-4H8Z" clip-rule="evenodd"/><path fill="url(#icon-19c4c790466bc391__icon-823ac5b262b9de64__d)" d="M11 20a5 5 0 0 1 5-5h1.25a.75.75 0 0 1 0 1.5H16a3.5 3.5 0 1 0 0 7h1.25a.75.75 0 0 1 0 1.5H16a5 5 0 0 1-5-5Z"/><path fill="url(#icon-2428ff4a1805d3f6__icon-05f75971b4874943__e)" d="M29 20a5 5 0 0 1-5 5h-1.25a.75.75 0 0 1 0-1.5H24a3.5 3.5 0 1 0 0-7h-1.25a.75.75 0 0 1 0-1.5H24a5 5 0 0 1 5 5Z"/><path fill="url(#icon-d85d90f51f3804c0__icon-74c6e250daf19046__f)" d="M17.75 19.25a.75.75 0 0 0 0 1.5h4.5a.75.75 0 0 0 0-1.5h-4.5Z"/><defs><linearGradient id="icon-8a9a740fdf9e6e67__icon-e189f597c3b6bade__a" x1="12.889" x2="16.937" y1="4" y2="36.383" gradientUnits="userSpaceOnUse"><stop stop-color="#fff"/><stop offset="1" stop-color="#EBEBEB"/></linearGradient><linearGradient id="icon-ada6502740439d0d__icon-aeaa47e44f1b41a0__c" x1="14.333" x2="18.642" y1="4" y2="36.314" gradientUnits="userSpaceOnUse"><stop stop-color="#BBB"/><stop offset="1" stop-color="#888"/></linearGradient><linearGradient id="icon-19c4c790466bc391__icon-823ac5b262b9de64__d" x1="11" x2="19.491" y1="15" y2="30.283" gradientUnits="userSpaceOnUse"><stop stop-color="#EB6D00"/><stop offset="1" stop-color="#B85500"/></linearGradient><linearGradient id="icon-2428ff4a1805d3f6__icon-05f75971b4874943__e" x1="11" x2="19.491" y1="15" y2="30.283" gradientUnits="userSpaceOnUse"><stop stop-color="#EB6D00"/><stop offset="1" stop-color="#B85500"/></linearGradient><linearGradient id="icon-d85d90f51f3804c0__icon-74c6e250daf19046__f" x1="11" x2="19.491" y1="15" y2="30.283" gradientUnits="userSpaceOnUse"><stop stop-color="#EB6D00"/><stop offset="1" stop-color="#B85500"/></linearGradient><radialGradient id="icon-1b00b303f4985974__icon-23398be859ecc9e4__b" cx="0" cy="0" r="1" gradientTransform="rotate(56.31 -4.411 19.454) scale(30.4469 26.3483)" gradientUnits="userSpaceOnUse"><stop offset=".177" stop-color="#fff"/><stop offset="1" stop-color="#B8B8B8"/></radialGradient></defs></svg>