<svg xmlns="http://www.w3.org/2000/svg" width="48" height="48" fill="currentColor"><path fill="url(#icon-fe3938d096c98a47__icon-b15db74969c481d5__a)" d="M5 10a5 5 0 0 1 5-5h28a5 5 0 0 1 5 5v28a5 5 0 0 1-5 5H10a5 5 0 0 1-5-5V10Z"/><path fill="url(#icon-bbf31af88b3f39b7__icon-40956f2e39f4235b__b)" fill-opacity=".2" d="M5 10a5 5 0 0 1 5-5h28a5 5 0 0 1 5 5v28a5 5 0 0 1-5 5H10a5 5 0 0 1-5-5V10Z"/><path fill="url(#icon-7c265f7d929cc645__icon-0125e3066f46a9f3__c)" fill-rule="evenodd" d="M38 6H10a4 4 0 0 0-4 4v28a4 4 0 0 0 4 4h28a4 4 0 0 0 4-4V10a4 4 0 0 0-4-4ZM10 5a5 5 0 0 0-5 5v28a5 5 0 0 0 5 5h28a5 5 0 0 0 5-5V10a5 5 0 0 0-5-5H10Z" clip-rule="evenodd"/><path fill="url(#icon-e0763f2bc08e141f__icon-0bf74b7d4f821aaa__d)" d="M14 24a5.5 5.5 0 0 1 5.5-5.5h1.75a.75.75 0 0 1 0 1.5H19.5a4 4 0 0 0 0 8h1.75a.75.75 0 0 1 0 1.5H19.5A5.5 5.5 0 0 1 14 24Z"/><path fill="url(#icon-7f1b84c405cfb6f7__icon-528edb7b02a2bd45__e)" d="M34 24a5.5 5.5 0 0 1-5.5 5.5h-1.75a.75.75 0 0 1 0-1.5h1.75a4 4 0 0 0 0-8h-1.75a.75.75 0 0 1 0-1.5h1.75A5.5 5.5 0 0 1 34 24Z"/><path fill="url(#icon-e359cc52cd36a646__icon-bd5a54fa08e16dae__f)" d="M21.25 23.25a.75.75 0 0 0 0 1.5h5.5a.75.75 0 0 0 0-1.5h-5.5Z"/><defs><linearGradient id="icon-fe3938d096c98a47__icon-b15db74969c481d5__a" x1="15.556" x2="20.362" y1="5" y2="43.455" gradientUnits="userSpaceOnUse"><stop stop-color="#fff"/><stop offset="1" stop-color="#EBEBEB"/></linearGradient><linearGradient id="icon-7c265f7d929cc645__icon-0125e3066f46a9f3__c" x1="17.271" x2="22.387" y1="5" y2="43.373" gradientUnits="userSpaceOnUse"><stop stop-color="#BBB"/><stop offset="1" stop-color="#888"/></linearGradient><linearGradient id="icon-e0763f2bc08e141f__icon-0bf74b7d4f821aaa__d" x1="14" x2="23.29" y1="18.5" y2="35.391" gradientUnits="userSpaceOnUse"><stop stop-color="#EB6D00"/><stop offset="1" stop-color="#B85500"/></linearGradient><linearGradient id="icon-7f1b84c405cfb6f7__icon-528edb7b02a2bd45__e" x1="14" x2="23.29" y1="18.5" y2="35.391" gradientUnits="userSpaceOnUse"><stop stop-color="#EB6D00"/><stop offset="1" stop-color="#B85500"/></linearGradient><linearGradient id="icon-e359cc52cd36a646__icon-bd5a54fa08e16dae__f" x1="14" x2="23.29" y1="18.5" y2="35.391" gradientUnits="userSpaceOnUse"><stop stop-color="#EB6D00"/><stop offset="1" stop-color="#B85500"/></linearGradient><radialGradient id="icon-bbf31af88b3f39b7__icon-40956f2e39f4235b__b" cx="0" cy="0" r="1" gradientTransform="rotate(56.31 -5.347 23.46) scale(36.1557 31.2886)" gradientUnits="userSpaceOnUse"><stop offset=".177" stop-color="#fff"/><stop offset="1" stop-color="#B8B8B8"/></radialGradient></defs></svg>