<svg xmlns="http://www.w3.org/2000/svg" width="48" height="48" fill="currentColor"><path fill="url(#icon-8602b33e4b48d3e7__icon-12ee1d3458fbed64__a)" d="M5 10a5 5 0 0 1 5-5h28a5 5 0 0 1 5 5v28a5 5 0 0 1-5 5H10a5 5 0 0 1-5-5V10Z"/><path fill="url(#icon-0ba45b94852ea34e__icon-151cb32d47c6a2eb__b)" fill-opacity=".2" d="M5 10a5 5 0 0 1 5-5h28a5 5 0 0 1 5 5v28a5 5 0 0 1-5 5H10a5 5 0 0 1-5-5V10Z"/><path fill="url(#icon-20dc6e9c06e28377__icon-d051918810ce91b1__c)" fill-rule="evenodd" d="M38 6H10a4 4 0 0 0-4 4v28a4 4 0 0 0 4 4h28a4 4 0 0 0 4-4V10a4 4 0 0 0-4-4ZM10 5a5 5 0 0 0-5 5v28a5 5 0 0 0 5 5h28a5 5 0 0 0 5-5V10a5 5 0 0 0-5-5H10Z" clip-rule="evenodd"/><path fill="url(#icon-87c7a7d9f97d9c6a__icon-c3230cf69a834bd3__d)" fill-rule="evenodd" d="M18 16h-2a2 2 0 0 0-2 2v12a2 2 0 0 0 2 2h2V16Zm1 16V16h13a2 2 0 0 1 2 2v12a2 2 0 0 1-2 2H19Zm3-10.5a1.5 1.5 0 0 1 1.5-1.5h4.996a1.5 1.5 0 0 1 1.5 1.5v1a1.5 1.5 0 0 1-1.5 1.5H23.5a1.5 1.5 0 0 1-1.5-1.5v-1Zm1.5-.5a.5.5 0 0 0-.5.5v1a.5.5 0 0 0 .5.5h4.996a.5.5 0 0 0 .5-.5v-1a.5.5 0 0 0-.5-.5H23.5Z" clip-rule="evenodd"/><defs><linearGradient id="icon-8602b33e4b48d3e7__icon-12ee1d3458fbed64__a" x1="15.556" x2="20.362" y1="5" y2="43.455" gradientUnits="userSpaceOnUse"><stop stop-color="#fff"/><stop offset="1" stop-color="#EBEBEB"/></linearGradient><linearGradient id="icon-20dc6e9c06e28377__icon-d051918810ce91b1__c" x1="17.271" x2="22.387" y1="5" y2="43.373" gradientUnits="userSpaceOnUse"><stop stop-color="#BBB"/><stop offset="1" stop-color="#888"/></linearGradient><linearGradient id="icon-87c7a7d9f97d9c6a__icon-c3230cf69a834bd3__d" x1="14" x2="29.61" y1="16" y2="35.512" gradientUnits="userSpaceOnUse"><stop stop-color="#C28400"/><stop offset="1" stop-color="#A86500"/></linearGradient><radialGradient id="icon-0ba45b94852ea34e__icon-151cb32d47c6a2eb__b" cx="0" cy="0" r="1" gradientTransform="rotate(56.31 -5.347 23.46) scale(36.1557 31.2886)" gradientUnits="userSpaceOnUse"><stop offset=".177" stop-color="#fff"/><stop offset="1" stop-color="#B8B8B8"/></radialGradient></defs></svg>