<svg xmlns="http://www.w3.org/2000/svg" width="24" height="24" fill="currentColor"><path fill="url(#icon-2115e0580f659116__icon-04f3e427e099666d__a)" d="M2 5a3 3 0 0 1 3-3h14a3 3 0 0 1 3 3v14a3 3 0 0 1-3 3H5a3 3 0 0 1-3-3V5Z"/><path fill="url(#icon-cb16ad4e933a0f3d__icon-2ed4cb914ca27924__b)" fill-opacity=".2" d="M2 5a3 3 0 0 1 3-3h14a3 3 0 0 1 3 3v14a3 3 0 0 1-3 3H5a3 3 0 0 1-3-3V5Z"/><path fill="url(#icon-2e362ded643cf2cd__icon-a5b9b2acc2ee17e3__c)" fill-rule="evenodd" d="M19 3H5a2 2 0 0 0-2 2v14a2 2 0 0 0 2 2h14a2 2 0 0 0 2-2V5a2 2 0 0 0-2-2ZM5 2a3 3 0 0 0-3 3v14a3 3 0 0 0 3 3h14a3 3 0 0 0 3-3V5a3 3 0 0 0-3-3H5Z" clip-rule="evenodd"/><path fill="url(#icon-1cc15570aa1ee7d9__icon-9ac46a44ea64499d__d)" d="M12 10c2.21 0 4-.672 4-1.5S14.21 7 12 7s-4 .672-4 1.5S9.79 10 12 10Z"/><path fill="url(#icon-6894f7de4327de76__icon-1575fd9d0c59c67f__e)" d="M12 10c2.21 0 4-.672 4-1.5S14.21 7 12 7s-4 .672-4 1.5S9.79 10 12 10Z"/><path fill="url(#icon-ad9424c152891054__icon-591cd4e0321fbcc3__f)" d="M12 11c1.193 0 2.317-.18 3.18-.503.283-.106.56-.237.811-.397L16 15.75c0 .775-.614 1.341-1.3 1.685-.715.358-1.668.565-2.694.565s-1.98-.207-2.695-.565c-.686-.343-1.3-.91-1.3-1.685l-.008-5.654c.252.162.532.294.818.401.863.323 1.987.503 3.18.503Z"/><path fill="url(#icon-a7bbd2afbfd5c86f__icon-42903846d29eb3d4__g)" d="M8.009 8.603C8.15 9.383 9.883 10 11.999 10c2.158 0 3.916-.64 3.998-1.442A.568.568 0 0 0 16 8.5c0-.828-1.79-1.5-3.998-1.5-2.205 0-3.992.672-3.992 1.5a.58.58 0 0 0 .012.113l-.013-.01Z"/><path fill="url(#icon-af12edd3570cdb23__icon-ba4dc776bf6cf48e__h)" d="M18 17.761a.85.85 0 0 0-1.403-.645l-2.154 1.846a.85.85 0 0 0-.086 1.205l2.154 2.461c.516.591 1.49.225 1.49-.56v-4.307Z"/><path fill="url(#icon-8293441d1bff1e2d__icon-1e50fcdb9f92f5e7__i)" d="M19 17.761a.85.85 0 0 1 1.403-.645l2.154 1.846a.85.85 0 0 1 .086 1.205l-2.154 2.461c-.516.591-1.49.225-1.49-.56v-4.307Z"/><path fill="#F5F5F5" fill-rule="evenodd" d="M19 22.094a.73.73 0 0 1 0-.025v-4.333a.85.85 0 0 1 1.403-.62l2.154 1.846a.85.85 0 0 1 .086 1.205l-2.154 2.461c-.51.584-1.468.233-1.489-.534Zm-.5 1.247c.696.727 1.96.84 2.742-.054l2.154-2.462a1.85 1.85 0 0 0-.189-2.622l-2.153-1.847c-.81-.694-1.92-.53-2.554.135-.634-.666-1.743-.83-2.554-.135l-2.153 1.846a1.85 1.85 0 0 0-.189 2.623l2.154 2.462c.783.894 2.046.781 2.742.054Zm-.5-1.247V17.736a.85.85 0 0 0-1.403-.62l-2.154 1.846a.85.85 0 0 0-.086 1.205l2.154 2.461c.51.584 1.468.233 1.489-.534Z" clip-rule="evenodd"/><defs><linearGradient id="icon-2115e0580f659116__icon-04f3e427e099666d__a" x1="7.556" x2="10.085" y1="2" y2="22.239" gradientUnits="userSpaceOnUse"><stop stop-color="#fff"/><stop offset="1" stop-color="#EBEBEB"/></linearGradient><linearGradient id="icon-2e362ded643cf2cd__icon-a5b9b2acc2ee17e3__c" x1="8.458" x2="11.151" y1="2" y2="22.197" gradientUnits="userSpaceOnUse"><stop stop-color="#BBB"/><stop offset="1" stop-color="#888"/></linearGradient><linearGradient id="icon-1cc15570aa1ee7d9__icon-9ac46a44ea64499d__d" x1="8" x2="9.973" y1="7" y2="12.26" gradientUnits="userSpaceOnUse"><stop stop-color="#008EE6"/><stop offset="1" stop-color="#006094"/></linearGradient><linearGradient id="icon-6894f7de4327de76__icon-1575fd9d0c59c67f__e" x1="8" x2="9.973" y1="7" y2="12.26" gradientUnits="userSpaceOnUse"><stop stop-color="#008EE6"/><stop offset="1" stop-color="#006094"/></linearGradient><linearGradient id="icon-ad9424c152891054__icon-591cd4e0321fbcc3__f" x1="8.002" x2="18.466" y1="7" y2="14.608" gradientUnits="userSpaceOnUse"><stop stop-color="#008EE6"/><stop offset="1" stop-color="#006094"/></linearGradient><linearGradient id="icon-a7bbd2afbfd5c86f__icon-42903846d29eb3d4__g" x1="8.002" x2="18.466" y1="7" y2="14.608" gradientUnits="userSpaceOnUse"><stop stop-color="#008EE6"/><stop offset="1" stop-color="#006094"/></linearGradient><linearGradient id="icon-af12edd3570cdb23__icon-ba4dc776bf6cf48e__h" x1="14.146" x2="19.767" y1="16.909" y2="25.051" gradientUnits="userSpaceOnUse"><stop stop-color="#008EE6"/><stop offset="1" stop-color="#006094"/></linearGradient><linearGradient id="icon-8293441d1bff1e2d__icon-1e50fcdb9f92f5e7__i" x1="14.146" x2="19.767" y1="16.909" y2="25.051" gradientUnits="userSpaceOnUse"><stop stop-color="#008EE6"/><stop offset="1" stop-color="#006094"/></linearGradient><radialGradient id="icon-cb16ad4e933a0f3d__icon-2ed4cb914ca27924__b" cx="0" cy="0" r="1" gradientTransform="rotate(56.31 -2.54 11.442) scale(19.0293 16.4677)" gradientUnits="userSpaceOnUse"><stop offset=".177" stop-color="#fff"/><stop offset="1" stop-color="#B8B8B8"/></radialGradient></defs></svg>