<svg xmlns="http://www.w3.org/2000/svg" width="40" height="40" fill="currentColor"><path fill="url(#icon-a50f9841627308d7__icon-05b00a31710f0571__a)" d="M4 8a4 4 0 0 1 4-4h24a4 4 0 0 1 4 4v24a4 4 0 0 1-4 4H8a4 4 0 0 1-4-4V8Z"/><path fill="url(#icon-b16f20bd95231272__icon-025986fc2491a868__b)" fill-opacity=".2" d="M4 8a4 4 0 0 1 4-4h24a4 4 0 0 1 4 4v24a4 4 0 0 1-4 4H8a4 4 0 0 1-4-4V8Z"/><path fill="url(#icon-81885f5d9ede8bf9__icon-3ca3ceb79a87045c__c)" fill-rule="evenodd" d="M32 5H8a3 3 0 0 0-3 3v24a3 3 0 0 0 3 3h24a3 3 0 0 0 3-3V8a3 3 0 0 0-3-3ZM8 4a4 4 0 0 0-4 4v24a4 4 0 0 0 4 4h24a4 4 0 0 0 4-4V8a4 4 0 0 0-4-4H8Z" clip-rule="evenodd"/><path fill="url(#icon-60a2ef3867632c07__icon-c8a5aae278c4b3c7__d)" d="M13 15.354v11.17h.008c.048.395.295.738.635 1.02.38.314.91.582 1.534.8 1.251.439 2.956.703 4.823.703 1.867 0 3.572-.264 4.823-.702.625-.219 1.154-.487 1.534-.802.34-.281.587-.624.635-1.019H27v-11.17l-.029.023c-.505.392-1.154.689-1.835.913-1.377.453-3.193.71-5.136.71s-3.759-.257-5.136-.71c-.682-.224-1.33-.52-1.835-.913a5.679 5.679 0 0 1-.029-.023Z"/><path fill="url(#icon-ca3746bd37148b1d__icon-c5df9285c40125c1__e)" d="M26.999 13.453 27 13.5c0 .426-.264.792-.643 1.087-.38.296-.91.548-1.534.753-1.251.412-2.956.66-4.823.66-1.867 0-3.572-.248-4.823-.66-.624-.205-1.154-.457-1.534-.753-.38-.295-.643-.661-.643-1.087a1.045 1.045 0 0 1 .003-.08c.03-.391.284-.73.64-1.007.38-.296.91-.548 1.534-.753C16.428 11.248 18.133 11 20 11c1.867 0 3.572.248 4.823.66.625.205 1.154.457 1.534.753.366.284.623.634.642 1.04Z"/><path fill="url(#icon-c9b7152ff38a881d__icon-f9a1bac8048c4de5__f)" d="M31 28.761a.85.85 0 0 0-1.403-.645l-4.154 3.56a.85.85 0 0 0-.086 1.205l4.154 4.747c.516.591 1.49.225 1.49-.56v-8.307Z"/><path fill="url(#icon-08d4e74a88aff836__icon-1be3426e2b1e48ee__g)" d="M32 28.761a.85.85 0 0 1 1.403-.645l4.154 3.56a.85.85 0 0 1 .086 1.205l-4.154 4.747c-.516.591-1.49.225-1.49-.56v-8.307Z"/><path fill="#F5F5F5" fill-rule="evenodd" d="m24.793 30.917 4.153-3.56c.81-.695 1.92-.532 2.554.134.634-.666 1.743-.83 2.554-.135l4.154 3.56a1.85 1.85 0 0 1 .188 2.624l-4.154 4.747c-.783.894-2.046.781-2.742.054-.696.727-1.96.84-2.742-.054l-4.154-4.747a1.85 1.85 0 0 1 .189-2.623ZM31 37.094c-.021.767-.978 1.118-1.49.534l-4.153-4.747a.85.85 0 0 1 .086-1.205l4.154-3.56A.85.85 0 0 1 31 28.76v8.333Zm1 0c.021.767.978 1.118 1.49.534l4.153-4.747a.85.85 0 0 0-.086-1.205l-4.154-3.56A.85.85 0 0 0 32 28.76v8.333Z" clip-rule="evenodd"/><defs><linearGradient id="icon-a50f9841627308d7__icon-05b00a31710f0571__a" x1="12.889" x2="16.937" y1="4" y2="36.383" gradientUnits="userSpaceOnUse"><stop stop-color="#fff"/><stop offset="1" stop-color="#EBEBEB"/></linearGradient><linearGradient id="icon-81885f5d9ede8bf9__icon-3ca3ceb79a87045c__c" x1="14.333" x2="18.642" y1="4" y2="36.314" gradientUnits="userSpaceOnUse"><stop stop-color="#BBB"/><stop offset="1" stop-color="#888"/></linearGradient><linearGradient id="icon-60a2ef3867632c07__icon-c8a5aae278c4b3c7__d" x1="13" x2="30.481" y1="11" y2="24.56" gradientUnits="userSpaceOnUse"><stop stop-color="#008EE6"/><stop offset="1" stop-color="#006094"/></linearGradient><linearGradient id="icon-ca3746bd37148b1d__icon-c5df9285c40125c1__e" x1="13" x2="30.481" y1="11" y2="24.56" gradientUnits="userSpaceOnUse"><stop stop-color="#008EE6"/><stop offset="1" stop-color="#006094"/></linearGradient><linearGradient id="icon-c9b7152ff38a881d__icon-f9a1bac8048c4de5__f" x1="25.146" x2="34.879" y1="27.909" y2="40.264" gradientUnits="userSpaceOnUse"><stop stop-color="#008EE6"/><stop offset="1" stop-color="#006094"/></linearGradient><linearGradient id="icon-08d4e74a88aff836__icon-1be3426e2b1e48ee__g" x1="25.146" x2="34.879" y1="27.909" y2="40.264" gradientUnits="userSpaceOnUse"><stop stop-color="#008EE6"/><stop offset="1" stop-color="#006094"/></linearGradient><radialGradient id="icon-b16f20bd95231272__icon-025986fc2491a868__b" cx="0" cy="0" r="1" gradientTransform="rotate(56.31 -4.411 19.454) scale(30.4469 26.3483)" gradientUnits="userSpaceOnUse"><stop offset=".177" stop-color="#fff"/><stop offset="1" stop-color="#B8B8B8"/></radialGradient></defs></svg>