<svg xmlns="http://www.w3.org/2000/svg" width="32" height="32" fill="currentColor"><path fill="url(#icon-0a937606839d88c2__icon-6ae5bd9aa074d8af__a)" d="M3 6.5A3.5 3.5 0 0 1 6.5 3h19A3.5 3.5 0 0 1 29 6.5v19a3.5 3.5 0 0 1-3.5 3.5h-19A3.5 3.5 0 0 1 3 25.5v-19Z"/><path fill="url(#icon-f692499c6fb4f9e1__icon-1e3e3b92ad0a0192__b)" fill-opacity=".2" d="M3 6.5A3.5 3.5 0 0 1 6.5 3h19A3.5 3.5 0 0 1 29 6.5v19a3.5 3.5 0 0 1-3.5 3.5h-19A3.5 3.5 0 0 1 3 25.5v-19Z"/><path fill="url(#icon-ca376326da91f7ed__icon-6ed75d616a99dde4__c)" fill-rule="evenodd" d="M25.5 4h-19A2.5 2.5 0 0 0 4 6.5v19A2.5 2.5 0 0 0 6.5 28h19a2.5 2.5 0 0 0 2.5-2.5v-19A2.5 2.5 0 0 0 25.5 4Zm-19-1A3.5 3.5 0 0 0 3 6.5v19A3.5 3.5 0 0 0 6.5 29h19a3.5 3.5 0 0 0 3.5-3.5v-19A3.5 3.5 0 0 0 25.5 3h-19Z" clip-rule="evenodd"/><path fill="url(#icon-d190ae7f931e55dd__icon-fb72e495473e39ad__d)" d="M16 14c1.475 0 2.857-.237 3.907-.657.395-.158.77-.353 1.093-.592v6.75c0 1.424-2.149 2.5-5 2.5s-5-1.076-5-2.5v-6.75c.322.239.698.434 1.093.592 1.05.42 2.432.657 3.907.657Z"/><path fill="url(#icon-4ed381cda1914b55__icon-840dd67b9dcd3cf9__e)" d="M11 11c0 1.105 2.239 2 5 2s5-.895 5-2l-.001-.043C20.942 9.872 18.726 9 16 9c-2.071 0-3.848.504-4.607 1.222-.24.226-.378.475-.392.735A.878.878 0 0 0 11 11Z"/><path fill="url(#icon-3fa8be6b381f96f8__icon-0eec50b7513d2763__f)" d="M24 22.761a.85.85 0 0 0-1.403-.645l-3.654 3.131a.85.85 0 0 0-.086 1.206l3.654 4.175c.516.591 1.49.225 1.49-.56v-7.307Z"/><path fill="url(#icon-8166c9f76d7264e2__icon-9c7913888e69566a__g)" d="M25 22.761a.85.85 0 0 1 1.403-.645l3.654 3.131a.85.85 0 0 1 .086 1.206l-3.654 4.175c-.516.591-1.49.225-1.49-.56v-7.307Z"/><path fill="#F5F5F5" fill-rule="evenodd" d="m21.758 31.287-3.654-4.176a1.85 1.85 0 0 1 .189-2.623l3.653-3.132c.81-.694 1.92-.53 2.554.135.634-.666 1.743-.83 2.554-.135l3.654 3.132a1.85 1.85 0 0 1 .188 2.623l-3.654 4.176c-.783.894-2.046.781-2.742.054-.696.727-1.96.84-2.742-.054ZM24 30.094c-.021.767-.978 1.118-1.49.534l-3.653-4.175a.85.85 0 0 1 .086-1.206l3.654-3.131A.85.85 0 0 1 24 22.76v7.333Zm1 0c.021.767.978 1.118 1.49.534l3.653-4.175a.85.85 0 0 0-.086-1.206l-3.654-3.131A.85.85 0 0 0 25 22.76v7.308a.73.73 0 0 0 0 .025Z" clip-rule="evenodd"/><defs><linearGradient id="icon-0a937606839d88c2__icon-6ae5bd9aa074d8af__a" x1="10.222" x2="13.511" y1="3" y2="29.311" gradientUnits="userSpaceOnUse"><stop stop-color="#fff"/><stop offset="1" stop-color="#EBEBEB"/></linearGradient><linearGradient id="icon-ca376326da91f7ed__icon-6ed75d616a99dde4__c" x1="11.396" x2="14.897" y1="3" y2="29.256" gradientUnits="userSpaceOnUse"><stop stop-color="#BBB"/><stop offset="1" stop-color="#888"/></linearGradient><linearGradient id="icon-d190ae7f931e55dd__icon-fb72e495473e39ad__d" x1="11" x2="23.565" y1="9" y2="18.665" gradientUnits="userSpaceOnUse"><stop stop-color="#008EE6"/><stop offset="1" stop-color="#006094"/></linearGradient><linearGradient id="icon-4ed381cda1914b55__icon-840dd67b9dcd3cf9__e" x1="11" x2="23.565" y1="9" y2="18.665" gradientUnits="userSpaceOnUse"><stop stop-color="#008EE6"/><stop offset="1" stop-color="#006094"/></linearGradient><linearGradient id="icon-3fa8be6b381f96f8__icon-0eec50b7513d2763__f" x1="18.646" x2="27.357" y1="21.909" y2="33.227" gradientUnits="userSpaceOnUse"><stop stop-color="#008EE6"/><stop offset="1" stop-color="#006094"/></linearGradient><linearGradient id="icon-8166c9f76d7264e2__icon-9c7913888e69566a__g" x1="18.646" x2="27.357" y1="21.909" y2="33.227" gradientUnits="userSpaceOnUse"><stop stop-color="#008EE6"/><stop offset="1" stop-color="#006094"/></linearGradient><radialGradient id="icon-f692499c6fb4f9e1__icon-1e3e3b92ad0a0192__b" cx="0" cy="0" r="1" gradientTransform="rotate(56.31 -3.476 15.448) scale(24.7381 21.408)" gradientUnits="userSpaceOnUse"><stop offset=".177" stop-color="#fff"/><stop offset="1" stop-color="#B8B8B8"/></radialGradient></defs></svg>