<svg xmlns="http://www.w3.org/2000/svg" width="20" height="20" fill="currentColor"><path fill="url(#icon-ac51f69aadded005__icon-f3bafdf352f11bba__a)" d="M2 4.5A2.5 2.5 0 0 1 4.5 2h11A2.5 2.5 0 0 1 18 4.5v11a2.5 2.5 0 0 1-2.5 2.5h-11A2.5 2.5 0 0 1 2 15.5v-11Z"/><path fill="url(#icon-8b1cfde67be6a954__icon-03637090c34c105c__b)" fill-opacity=".2" d="M2 4.5A2.5 2.5 0 0 1 4.5 2h11A2.5 2.5 0 0 1 18 4.5v11a2.5 2.5 0 0 1-2.5 2.5h-11A2.5 2.5 0 0 1 2 15.5v-11Z"/><path fill="url(#icon-d371eed5dc468f19__icon-2eaf18eda5fe9290__c)" fill-rule="evenodd" d="M15.5 3h-11A1.5 1.5 0 0 0 3 4.5v11A1.5 1.5 0 0 0 4.5 17h11a1.5 1.5 0 0 0 1.5-1.5v-11A1.5 1.5 0 0 0 15.5 3Zm-11-1A2.5 2.5 0 0 0 2 4.5v11A2.5 2.5 0 0 0 4.5 18h11a2.5 2.5 0 0 0 2.5-2.5v-11A2.5 2.5 0 0 0 15.5 2h-11Z" clip-rule="evenodd"/><path fill="url(#icon-bec36f15fa812f6e__icon-7f472ccc49601b26__d)" d="M10 9c1.193 0 2.318-.18 3.18-.503a4.34 4.34 0 0 0 .812-.397L14 12.75c0 .775-.615 1.341-1.301 1.685-.717.358-1.672.565-2.699.565s-1.982-.207-2.698-.565C6.615 14.09 6 13.525 6 12.75l-.008-4.66c.255.165.54.298.829.407C7.683 8.82 8.808 9 10 9Z"/><path fill="url(#icon-c867cf019e6efb86__icon-fc79ab8651d56834__e)" d="M13.99 6.61A.579.579 0 0 0 14 6.5c0-.828-1.79-1.5-4-1.5-2.209 0-4 .672-4 1.5a.578.578 0 0 0 .012.113C6.165 7.389 7.892 8 10 8c2.11 0 3.839-.613 3.99-1.39Z"/><path fill="url(#icon-c54afea938e26c81__icon-540d07869df035ea__f)" d="M14 13.761a.85.85 0 0 0-1.403-.645l-2.154 1.846a.85.85 0 0 0-.086 1.205l2.154 2.461c.516.591 1.49.225 1.49-.56v-4.307Z"/><path fill="url(#icon-4c75fcf128f5d11b__icon-64ebb8afc15d7e31__g)" d="M15 13.761a.85.85 0 0 1 1.403-.645l2.154 1.846a.85.85 0 0 1 .086 1.205l-2.154 2.461c-.516.591-1.49.225-1.49-.56v-4.307Z"/><path fill="#F5F5F5" fill-rule="evenodd" d="M15 18.094V13.736a.85.85 0 0 1 1.403-.62l2.154 1.846a.85.85 0 0 1 .086 1.205l-2.154 2.461c-.51.584-1.468.233-1.489-.534Zm-.5 1.247c.696.727 1.96.84 2.742-.054l2.154-2.462a1.85 1.85 0 0 0-.189-2.622l-2.153-1.847c-.81-.694-1.92-.53-2.554.135-.634-.666-1.743-.83-2.554-.135l-2.153 1.847a1.85 1.85 0 0 0-.189 2.622l2.154 2.462c.783.894 2.046.781 2.742.054Zm-.5-1.247a.73.73 0 0 0 0-.025v-4.333a.85.85 0 0 0-1.403-.62l-2.154 1.846a.85.85 0 0 0-.086 1.205l2.154 2.461c.51.584 1.468.233 1.489-.534Z" clip-rule="evenodd"/><defs><linearGradient id="icon-ac51f69aadded005__icon-f3bafdf352f11bba__a" x1="6.444" x2="8.468" y1="2" y2="18.192" gradientUnits="userSpaceOnUse"><stop stop-color="#fff"/><stop offset="1" stop-color="#EBEBEB"/></linearGradient><linearGradient id="icon-d371eed5dc468f19__icon-2eaf18eda5fe9290__c" x1="7.167" x2="9.321" y1="2" y2="18.157" gradientUnits="userSpaceOnUse"><stop stop-color="#BBB"/><stop offset="1" stop-color="#888"/></linearGradient><linearGradient id="icon-bec36f15fa812f6e__icon-7f472ccc49601b26__d" x1="5.992" x2="15.751" y1="5" y2="12.815" gradientUnits="userSpaceOnUse"><stop stop-color="#008EE6"/><stop offset="1" stop-color="#006094"/></linearGradient><linearGradient id="icon-c867cf019e6efb86__icon-fc79ab8651d56834__e" x1="5.992" x2="15.751" y1="5" y2="12.815" gradientUnits="userSpaceOnUse"><stop stop-color="#008EE6"/><stop offset="1" stop-color="#006094"/></linearGradient><linearGradient id="icon-c54afea938e26c81__icon-540d07869df035ea__f" x1="10.146" x2="15.767" y1="12.909" y2="21.051" gradientUnits="userSpaceOnUse"><stop stop-color="#008EE6"/><stop offset="1" stop-color="#006094"/></linearGradient><linearGradient id="icon-4c75fcf128f5d11b__icon-64ebb8afc15d7e31__g" x1="10.146" x2="15.767" y1="12.909" y2="21.051" gradientUnits="userSpaceOnUse"><stop stop-color="#008EE6"/><stop offset="1" stop-color="#006094"/></linearGradient><radialGradient id="icon-8b1cfde67be6a954__icon-03637090c34c105c__b" cx="0" cy="0" r="1" gradientTransform="rotate(56.31 -2.206 9.727) scale(15.2234 13.1741)" gradientUnits="userSpaceOnUse"><stop offset=".177" stop-color="#fff"/><stop offset="1" stop-color="#B8B8B8"/></radialGradient></defs></svg>