<svg xmlns="http://www.w3.org/2000/svg" width="48" height="48" fill="currentColor"><path fill="url(#icon-ce02825702413e20__icon-d0d50a7aebd9b046__a)" d="M5 10a5 5 0 0 1 5-5h28a5 5 0 0 1 5 5v28a5 5 0 0 1-5 5H10a5 5 0 0 1-5-5V10Z"/><path fill="url(#icon-2dde2d917015b3a2__icon-55062f428c001c45__b)" fill-opacity=".2" d="M5 10a5 5 0 0 1 5-5h28a5 5 0 0 1 5 5v28a5 5 0 0 1-5 5H10a5 5 0 0 1-5-5V10Z"/><path fill="url(#icon-7155d3cb36551753__icon-447f0cd053eb1488__c)" fill-rule="evenodd" d="M38 6H10a4 4 0 0 0-4 4v28a4 4 0 0 0 4 4h28a4 4 0 0 0 4-4V10a4 4 0 0 0-4-4ZM10 5a5 5 0 0 0-5 5v28a5 5 0 0 0 5 5h28a5 5 0 0 0 5-5V10a5 5 0 0 0-5-5H10Z" clip-rule="evenodd"/><path fill="url(#icon-fe6a9062e707b35c__icon-ffc1b9f2b568d8e2__d)" fill-rule="evenodd" d="M21.5 14.354a5 5 0 0 1 4.788-.025l6.16 3.319a2 2 0 0 1 1.052 1.76v7.38a4 4 0 0 1-2.021 3.476L24.62 34.17a.74.74 0 0 1-.62.056.74.74 0 0 1-.622-.056l-6.858-3.904a4 4 0 0 1-2.021-3.477v-7.39a2 2 0 0 1 1.033-1.75l5.968-3.294Zm-6 12.434V20.33l6.457 3.587A3 3 0 0 1 23.5 26.54v6.548l-6.485-3.691a3 3 0 0 1-1.515-2.608Zm9-.249v6.548l6.484-3.692a3 3 0 0 0 1.516-2.607V20.33l-6.457 3.587A3 3 0 0 0 24.5 26.54Z" clip-rule="evenodd"/><defs><linearGradient id="icon-ce02825702413e20__icon-d0d50a7aebd9b046__a" x1="15.556" x2="20.362" y1="5" y2="43.455" gradientUnits="userSpaceOnUse"><stop stop-color="#fff"/><stop offset="1" stop-color="#EBEBEB"/></linearGradient><linearGradient id="icon-7155d3cb36551753__icon-447f0cd053eb1488__c" x1="17.271" x2="22.387" y1="5" y2="43.373" gradientUnits="userSpaceOnUse"><stop stop-color="#BBB"/><stop offset="1" stop-color="#888"/></linearGradient><linearGradient id="icon-fe6a9062e707b35c__icon-ffc1b9f2b568d8e2__d" x1="14.5" x2="34.975" y1="13.731" y2="32.674" gradientUnits="userSpaceOnUse"><stop stop-color="#4BA446"/><stop offset="1" stop-color="#3F7D35"/></linearGradient><radialGradient id="icon-2dde2d917015b3a2__icon-55062f428c001c45__b" cx="0" cy="0" r="1" gradientTransform="rotate(56.31 -5.347 23.46) scale(36.1557 31.2886)" gradientUnits="userSpaceOnUse"><stop offset=".177" stop-color="#fff"/><stop offset="1" stop-color="#B8B8B8"/></radialGradient></defs></svg>