<svg xmlns="http://www.w3.org/2000/svg" width="24" height="24" fill="currentColor"><path fill="url(#icon-e6f7feac156f2e53__icon-4b67da47ff2d1109__a)" d="M2 5a3 3 0 0 1 3-3h14a3 3 0 0 1 3 3v14a3 3 0 0 1-3 3H5a3 3 0 0 1-3-3V5Z"/><path fill="url(#icon-25c5ee66c6a5610b__icon-0848dc87cb1f0024__b)" fill-opacity=".2" d="M2 5a3 3 0 0 1 3-3h14a3 3 0 0 1 3 3v14a3 3 0 0 1-3 3H5a3 3 0 0 1-3-3V5Z"/><path fill="url(#icon-5ac9a5a51dc46a61__icon-a47ef2cf80933af0__c)" fill-rule="evenodd" d="M19 3H5a2 2 0 0 0-2 2v14a2 2 0 0 0 2 2h14a2 2 0 0 0 2-2V5a2 2 0 0 0-2-2ZM5 2a3 3 0 0 0-3 3v14a3 3 0 0 0 3 3h14a3 3 0 0 0 3-3V5a3 3 0 0 0-3-3H5Z" clip-rule="evenodd"/><path fill="url(#icon-a7da26224d468fdc__icon-5c79d5c342cb2634__d)" fill-rule="evenodd" d="M10.913 17.503c.04.02.081.037.122.054l.021.01c.079.038.159.064.24.08a2.5 2.5 0 0 0 1.359.005c.089-.015.178-.043.265-.085l.113-.054.03-.014 2.986-1.43a2.5 2.5 0 0 0 1.42-2.255V9.716a1.5 1.5 0 0 0-.804-1.329l-3.52-1.844a2.5 2.5 0 0 0-2.314-.004L7.277 8.387a1.5 1.5 0 0 0-.808 1.33v4.098a2.5 2.5 0 0 0 1.429 2.259l3.015 1.429Zm.525-.862.05.019v-3.59a2 2 0 0 0-1.136-1.803L7.508 9.904v3.91a1.5 1.5 0 0 0 .852 1.353l3.078 1.474Zm1.05.016c.04-.015.08-.031.12-.05l3.009-1.44a1.5 1.5 0 0 0 .852-1.353v-3.91l-2.845 1.363a2 2 0 0 0-1.136 1.803v3.587Z" clip-rule="evenodd"/><defs><linearGradient id="icon-e6f7feac156f2e53__icon-4b67da47ff2d1109__a" x1="7.556" x2="10.085" y1="2" y2="22.239" gradientUnits="userSpaceOnUse"><stop stop-color="#fff"/><stop offset="1" stop-color="#EBEBEB"/></linearGradient><linearGradient id="icon-5ac9a5a51dc46a61__icon-a47ef2cf80933af0__c" x1="8.458" x2="11.151" y1="2" y2="22.197" gradientUnits="userSpaceOnUse"><stop stop-color="#BBB"/><stop offset="1" stop-color="#888"/></linearGradient><linearGradient id="icon-a7da26224d468fdc__icon-5c79d5c342cb2634__d" x1="6.469" x2="17.945" y1="6.257" y2="17.247" gradientUnits="userSpaceOnUse"><stop stop-color="#4BA446"/><stop offset="1" stop-color="#3F7D35"/></linearGradient><radialGradient id="icon-25c5ee66c6a5610b__icon-0848dc87cb1f0024__b" cx="0" cy="0" r="1" gradientTransform="rotate(56.31 -2.54 11.442) scale(19.0293 16.4677)" gradientUnits="userSpaceOnUse"><stop offset=".177" stop-color="#fff"/><stop offset="1" stop-color="#B8B8B8"/></radialGradient></defs></svg>