<svg xmlns="http://www.w3.org/2000/svg" width="40" height="40" fill="currentColor"><path fill="url(#icon-3ce8216ea9f7d68a__icon-06e0c7ce00759e20__a)" d="M4 8a4 4 0 0 1 4-4h24a4 4 0 0 1 4 4v24a4 4 0 0 1-4 4H8a4 4 0 0 1-4-4V8Z"/><path fill="url(#icon-d925e26f09855acd__icon-b0bb41fb30ffc288__b)" fill-opacity=".2" d="M4 8a4 4 0 0 1 4-4h24a4 4 0 0 1 4 4v24a4 4 0 0 1-4 4H8a4 4 0 0 1-4-4V8Z"/><path fill="url(#icon-bc556c01abc2dee9__icon-3cfdd9a4f58ecce7__c)" fill-rule="evenodd" d="M32 5H8a3 3 0 0 0-3 3v24a3 3 0 0 0 3 3h24a3 3 0 0 0 3-3V8a3 3 0 0 0-3-3ZM8 4a4 4 0 0 0-4 4v24a4 4 0 0 0 4 4h24a4 4 0 0 0 4-4V8a4 4 0 0 0-4-4H8Z" clip-rule="evenodd"/><path fill="url(#icon-3ad1cb15c43942c5__icon-7b9cd672577d126e__d)" fill-rule="evenodd" d="M22.4 12.431a4.5 4.5 0 0 0-4.8 0l-4.198 2.647a2.001 2.001 0 0 0-.43.365h-.003v.004a2 2 0 0 0-.5 1.323v1.47a.5.5 0 0 0 .031.175v3.786a3.5 3.5 0 0 0 1.764 3.04l5.114 2.922a.74.74 0 0 0 .622.056.74.74 0 0 0 .622-.056l5.114-2.923a3.5 3.5 0 0 0 1.764-3.039v-4.288a.499.499 0 0 0 .031-.174v-.97a2 2 0 0 0-.5-1.322v-.004h-.003a2.001 2.001 0 0 0-.43-.365L22.4 12.431Zm-2.9 9.252a2.5 2.5 0 0 0-1.26-2.17l-4.74-2.709v5.397a2.5 2.5 0 0 0 1.26 2.171l4.74 2.709v-5.398Zm1 5.398 4.74-2.709a2.5 2.5 0 0 0 1.26-2.17v-5.398l-4.74 2.709a2.5 2.5 0 0 0-1.26 2.17v5.398Z" clip-rule="evenodd"/><defs><linearGradient id="icon-3ce8216ea9f7d68a__icon-06e0c7ce00759e20__a" x1="12.889" x2="16.937" y1="4" y2="36.383" gradientUnits="userSpaceOnUse"><stop stop-color="#fff"/><stop offset="1" stop-color="#EBEBEB"/></linearGradient><linearGradient id="icon-bc556c01abc2dee9__icon-3cfdd9a4f58ecce7__c" x1="14.333" x2="18.642" y1="4" y2="36.314" gradientUnits="userSpaceOnUse"><stop stop-color="#BBB"/><stop offset="1" stop-color="#888"/></linearGradient><linearGradient id="icon-3ad1cb15c43942c5__icon-7b9cd672577d126e__d" x1="12.469" x2="28.923" y1="11.737" y2="26.735" gradientUnits="userSpaceOnUse"><stop stop-color="#4BA446"/><stop offset="1" stop-color="#3F7D35"/></linearGradient><radialGradient id="icon-d925e26f09855acd__icon-b0bb41fb30ffc288__b" cx="0" cy="0" r="1" gradientTransform="rotate(56.31 -4.411 19.454) scale(30.4469 26.3483)" gradientUnits="userSpaceOnUse"><stop offset=".177" stop-color="#fff"/><stop offset="1" stop-color="#B8B8B8"/></radialGradient></defs></svg>