<svg xmlns="http://www.w3.org/2000/svg" width="20" height="20" fill="currentColor"><path fill="url(#icon-a3c3b14d34419661__icon-c2ccb3e9462ae866__a)" d="M2 4.5A2.5 2.5 0 0 1 4.5 2h11A2.5 2.5 0 0 1 18 4.5v11a2.5 2.5 0 0 1-2.5 2.5h-11A2.5 2.5 0 0 1 2 15.5v-11Z"/><path fill="url(#icon-9ec32caefc064fd8__icon-260dc6a000a3ddee__b)" fill-opacity=".2" d="M2 4.5A2.5 2.5 0 0 1 4.5 2h11A2.5 2.5 0 0 1 18 4.5v11a2.5 2.5 0 0 1-2.5 2.5h-11A2.5 2.5 0 0 1 2 15.5v-11Z"/><path fill="url(#icon-a505d0fcff0bced1__icon-be5cc8aa69235da2__c)" fill-rule="evenodd" d="M15.5 3h-11A1.5 1.5 0 0 0 3 4.5v11A1.5 1.5 0 0 0 4.5 17h11a1.5 1.5 0 0 0 1.5-1.5v-11A1.5 1.5 0 0 0 15.5 3Zm-11-1A2.5 2.5 0 0 0 2 4.5v11A2.5 2.5 0 0 0 4.5 18h11a2.5 2.5 0 0 0 2.5-2.5v-11A2.5 2.5 0 0 0 15.5 2h-11Z" clip-rule="evenodd"/><path fill="url(#icon-6a2af55c0d13228e__icon-bc9fbe2a85766d68__d)" fill-rule="evenodd" d="M8.925 14.315c.04.019.08.036.12.053l.023.011c.08.038.16.065.24.08.444.127.914.129 1.358.005a1.01 1.01 0 0 0 .266-.085l.118-.056.025-.013 2.005-.96a2.5 2.5 0 0 0 1.42-2.254V8.17a1.5 1.5 0 0 0-.804-1.328l-2.54-1.331a2.5 2.5 0 0 0-2.313-.004L6.277 6.843a1.5 1.5 0 0 0-.808 1.33v2.922a2.5 2.5 0 0 0 1.429 2.26l2.027.96Zm1.096-4.949-.021.01-.02-.007.02.029.021-.032Zm-.573 4.086.052.02v-2.416a2 2 0 0 0-1.136-1.803L6.5 8.36v2.736a1.5 1.5 0 0 0 .852 1.352l2.096 1.004Zm1.052.016c.042-.014.083-.031.124-.05l2.024-.97a1.5 1.5 0 0 0 .852-1.352V8.36l-1.864.893a2 2 0 0 0-1.136 1.803v2.412Z" clip-rule="evenodd"/><defs><linearGradient id="icon-a3c3b14d34419661__icon-c2ccb3e9462ae866__a" x1="6.444" x2="8.468" y1="2" y2="18.192" gradientUnits="userSpaceOnUse"><stop stop-color="#fff"/><stop offset="1" stop-color="#EBEBEB"/></linearGradient><linearGradient id="icon-a505d0fcff0bced1__icon-be5cc8aa69235da2__c" x1="7.167" x2="9.321" y1="2" y2="18.157" gradientUnits="userSpaceOnUse"><stop stop-color="#BBB"/><stop offset="1" stop-color="#888"/></linearGradient><linearGradient id="icon-6a2af55c0d13228e__icon-bc9fbe2a85766d68__d" x1="5.469" x2="14.793" y1="5.226" y2="14.253" gradientUnits="userSpaceOnUse"><stop stop-color="#4BA446"/><stop offset="1" stop-color="#3F7D35"/></linearGradient><radialGradient id="icon-9ec32caefc064fd8__icon-260dc6a000a3ddee__b" cx="0" cy="0" r="1" gradientTransform="rotate(56.31 -2.206 9.727) scale(15.2234 13.1741)" gradientUnits="userSpaceOnUse"><stop offset=".177" stop-color="#fff"/><stop offset="1" stop-color="#B8B8B8"/></radialGradient></defs></svg>