<svg xmlns="http://www.w3.org/2000/svg" width="20" height="20" fill="currentColor"><path d="M10 14.5c.344 0 .678-.039 1-.111v1.528a6.04 6.04 0 0 1-.25.037v1.296a.75.75 0 0 1-1.5 0v-1.296a6.003 6.003 0 0 1-5.204-5.204H2.75a.75.75 0 0 1 0-1.5h1.296A6.003 6.003 0 0 1 9.25 4.046V2.75a.75.75 0 0 1 1.5 0v1.296A6.004 6.004 0 0 1 15.917 9c-.514.005-1.02.05-1.5.135A4.502 4.502 0 0 0 5.5 10a4.5 4.5 0 0 0 4.5 4.5Z"/><path d="M10 13c.35 0 .687-.06 1-.17v-.991l.006.004c.046-.643.37-1.144.705-1.481.357-.36.799-.617 1.226-.8l.03-.012A3 3 0 1 0 10 13ZM16 10c-1.014 0-1.959.177-2.669.481-.354.152-.672.345-.91.585-.24.241-.421.557-.421.934s.182.693.421.934c.238.24.556.433.91.585.71.304 1.655.481 2.669.481s1.959-.177 2.669-.481c.354-.152.672-.345.91-.585.24-.241.421-.557.421-.934s-.182-.693-.421-.934c-.238-.24-.556-.433-.91-.585C17.959 10.177 17.014 10 16 10Z"/><path d="M12 13.895V18c0 .14.025.272.07.394.075.208.201.389.352.54.236.24.555.433.91.585.709.304 1.654.481 2.668.481 1.014 0 1.959-.177 2.668-.481.355-.152.674-.345.91-.585.172-.173.315-.386.383-.632.025-.095.039-.196.039-.302v-4.105c-.293.23-.62.407-.938.543-.86.369-1.945.562-3.062.562a9.36 9.36 0 0 1-1.24-.081 7.078 7.078 0 0 1-1.822-.48 4.188 4.188 0 0 1-.938-.544Z"/></svg>