<svg xmlns="http://www.w3.org/2000/svg" width="32" height="32" fill="currentColor"><path d="M16.25 2c.69 0 1.25.56 1.25 1.25v2.5c0 .036-.002.073-.005.108a10.262 10.262 0 0 1 8.319 7.173c-.856.078-1.67.3-2.42.64a7.75 7.75 0 1 0-3.981 9.288c.156.45.353.88.587 1.285v1.196c-.79.335-1.629.574-2.505.702.003.035.005.072.005.108v2.5a1.25 1.25 0 1 1-2.5 0v-2.548a10.253 10.253 0 0 1-9.202-9.203L5.75 17h-2.5a1.25 1.25 0 1 1 0-2.5h2.5c.036 0 .073.002.108.005a10.255 10.255 0 0 1 9.143-8.707L15 5.75v-2.5c0-.69.56-1.25 1.25-1.25Z"/><path d="M16 11a5 5 0 0 1 4.968 4.436 7.47 7.47 0 0 0-1.95 4.551A5 5 0 1 1 16 11ZM24 15.6a5.465 5.465 0 0 1 2.5-.6 5.5 5.5 0 1 1-2.5.6Z"/><path d="M22 30.05a.95.95 0 0 0 1.444.811L26.5 29l3.056 1.861A.95.95 0 0 0 31 30.05v-4.518a6.725 6.725 0 0 1-4.973 1.702A6.713 6.713 0 0 1 22 25.531v4.519Z"/></svg>