<svg xmlns="http://www.w3.org/2000/svg" width="20" height="20" fill="currentColor"><path d="M10 14.5a4.48 4.48 0 0 0 2.12-.53c.123.49.338.953.633 1.363a5.962 5.962 0 0 1-2.003.62v1.297a.75.75 0 0 1-1.5 0v-1.296a6.003 6.003 0 0 1-5.204-5.204H2.75a.75.75 0 0 1 0-1.5h1.296A6.003 6.003 0 0 1 9.25 4.046V2.75a.75.75 0 0 1 1.5 0v1.296a6.004 6.004 0 0 1 5.167 4.952 4 4 0 0 0-1.47.313A4.501 4.501 0 1 0 10 14.5Z"/><path d="M10 13a2.99 2.99 0 0 0 2.09-.848 3.991 3.991 0 0 1 .886-1.773A3 3 0 1 0 10 13ZM18.494 14.667a3 3 0 1 0-4.987-3.333 3 3 0 0 0 4.987 3.333ZM16 17c.702 0 1.392-.184 2-.535v2.285a.25.25 0 0 1-.378.215L16 18l-1.622.965A.25.25 0 0 1 14 18.75v-2.285c.608.35 1.298.535 2 .535Z"/></svg>