<svg xmlns="http://www.w3.org/2000/svg" width="32" height="32" fill="currentColor"><path d="M16 2a1 1 0 0 1 1 1v3l-.001.05c4.056.401 7.4 3.227 8.561 7.009a7.462 7.462 0 0 0-1.935.513 8 8 0 1 0-4.125 9.625c.14.363.307.713.5 1.047v.924a9.933 9.933 0 0 1-3.001.783L17 26v3a1 1 0 1 1-2 0v-3l.001-.05A10.003 10.003 0 0 1 6.05 17L6 17H3a1 1 0 1 1 0-2h3l.05.001A10.003 10.003 0 0 1 15 6.05L15 6V3a1 1 0 0 1 1-1Z"/><path d="M16 11a5 5 0 0 1 4.968 4.436 7.47 7.47 0 0 0-1.95 4.551A5 5 0 1 1 16 11ZM24 15.6a5.465 5.465 0 0 1 2.5-.6 5.5 5.5 0 1 1-2.5.6Z"/><path d="M22 30.05a.95.95 0 0 0 1.444.811L26.5 29l3.056 1.861A.95.95 0 0 0 31 30.05v-4.518a6.725 6.725 0 0 1-4.973 1.702A6.713 6.713 0 0 1 22 25.531v4.519Z"/></svg>