<svg xmlns="http://www.w3.org/2000/svg" width="20" height="20" fill="currentColor"><path d="M10 15c.82 0 1.592-.197 2.275-.546a4 4 0 0 0 .478.879 5.964 5.964 0 0 1-2.253.646V17.5a.5.5 0 0 1-1 0v-1.52a6.001 6.001 0 0 1-5.48-5.48H2.5a.5.5 0 0 1 0-1h1.52A6.001 6.001 0 0 1 9.5 4.02V2.5a.5.5 0 0 1 1 0v1.52a6.003 6.003 0 0 1 5.417 4.978 4 4 0 0 0-.99.146A5.001 5.001 0 0 0 5 10a5 5 0 0 0 5 5Z"/><path d="M10 13a2.99 2.99 0 0 0 2.09-.848 3.991 3.991 0 0 1 .886-1.773A3 3 0 1 0 10 13ZM18.494 14.667a3 3 0 1 0-4.987-3.333 3 3 0 0 0 4.987 3.333ZM16 17c.702 0 1.392-.184 2-.535v2.285a.25.25 0 0 1-.378.215L16 18l-1.622.965A.25.25 0 0 1 14 18.75v-2.285c.608.35 1.298.535 2 .535Z"/></svg>