<svg xmlns="http://www.w3.org/2000/svg" width="32" height="32" fill="currentColor"><path fill="url(#icon-ef2f0ac18e62e022__icon-2efd2aa16c30db2a__a)" fill-rule="evenodd" d="M16 2.5A6.75 6.75 0 1 0 16 16a6.75 6.75 0 0 0 0-13.5Zm-5.75 6.75a5.75 5.75 0 1 1 11.5 0 5.75 5.75 0 0 1-11.5 0Z" clip-rule="evenodd"/><path fill="url(#icon-863beff579190a95__icon-c32d17cfdb43ff08__b)" fill-rule="evenodd" d="M16 30c-3.198 0-6.14-.823-8.315-2.207C5.523 26.417 4 24.393 4 22v-.5A3.5 3.5 0 0 1 7.5 18h17a3.5 3.5 0 0 1 3.5 3.5v.5c0 2.393-1.523 4.417-3.685 5.794C22.141 29.177 19.198 30 16 30Zm-7.778-3.05C6.23 25.682 5 23.932 5 22v-.5A2.5 2.5 0 0 1 7.5 19h17a2.5 2.5 0 0 1 2.5 2.5v.5c0 1.932-1.23 3.682-3.222 4.95C21.788 28.217 19.038 29 16 29c-3.038 0-5.788-.784-7.778-2.05Z" clip-rule="evenodd"/><defs><linearGradient id="icon-ef2f0ac18e62e022__icon-2efd2aa16c30db2a__a" x1="4" x2="31.247" y1="2.5" y2="26.279" gradientUnits="userSpaceOnUse"><stop stop-color="#209782"/><stop offset="1" stop-color="#0C695A"/></linearGradient><linearGradient id="icon-863beff579190a95__icon-c32d17cfdb43ff08__b" x1="4" x2="31.247" y1="2.5" y2="26.279" gradientUnits="userSpaceOnUse"><stop stop-color="#209782"/><stop offset="1" stop-color="#0C695A"/></linearGradient></defs></svg>