<svg xmlns="http://www.w3.org/2000/svg" width="24" height="24" fill="currentColor"><path fill="url(#icon-6c6973bcea4db869__icon-6b3d8382dc768d44__a)" fill-rule="evenodd" d="M12.503 2a5 5 0 1 0 0 10 5 5 0 0 0 0-10Zm-4 5a4 4 0 1 1 8 0 4 4 0 0 1-8 0Z" clip-rule="evenodd"/><path fill="url(#icon-ccbc7ce8ae25e6a1__icon-ba814c5565345419__b)" fill-rule="evenodd" d="M18.254 14a2.249 2.249 0 0 1 2.249 2.249v.918a2.75 2.75 0 0 1-.513 1.6C18.444 20.93 15.92 22 12.5 22c-3.421 0-5.944-1.072-7.486-3.236a2.75 2.75 0 0 1-.51-1.596v-.92A2.249 2.249 0 0 1 6.751 14h11.502Zm0 1c.69 0 1.249.56 1.249 1.249v.918c0 .365-.114.72-.326 1.018C17.873 20.007 15.707 21 12.5 21c-3.209 0-5.374-.995-6.672-2.817a1.75 1.75 0 0 1-.325-1.015v-.92c0-.69.56-1.249 1.249-1.249h11.502Z" clip-rule="evenodd"/><defs><linearGradient id="icon-6c6973bcea4db869__icon-6b3d8382dc768d44__a" x1="4.503" x2="24.016" y1="2" y2="17.609" gradientUnits="userSpaceOnUse"><stop stop-color="#209782"/><stop offset="1" stop-color="#0C695A"/></linearGradient><linearGradient id="icon-ccbc7ce8ae25e6a1__icon-ba814c5565345419__b" x1="4.503" x2="24.016" y1="2" y2="17.609" gradientUnits="userSpaceOnUse"><stop stop-color="#209782"/><stop offset="1" stop-color="#0C695A"/></linearGradient></defs></svg>