<svg xmlns="http://www.w3.org/2000/svg" width="40" height="40" fill="currentColor"><path fill="url(#icon-3595bd3dd7695b75__icon-60c71111bce8832a__a)" fill-rule="evenodd" d="M7 26.667c0 2.33 1.483 4.418 3.836 5.915C13.189 34.079 16.429 35 20 35c3.57 0 6.811-.92 9.164-2.418C31.516 31.085 33 28.997 33 26.667v-.584C33 24.353 31.676 23 30 23H10c-1.676 0-3 1.353-3 3.083v.584Zm-1 0c0 2.792 1.776 5.153 4.3 6.759C12.835 35.04 16.267 36 20 36c3.731 0 7.164-.96 9.7-2.574 2.524-1.606 4.3-3.967 4.3-6.76v-.583C34 23.828 32.255 22 30 22H10c-2.255 0-4 1.828-4 4.083v.584Z" clip-rule="evenodd"/><path fill="url(#icon-335efee1771490da__icon-ca914fb23d0a5523__b)" fill-rule="evenodd" d="M20.209 5a7 7 0 1 0 0 14 7 7 0 0 0 0-14Zm-8 7a8 8 0 1 1 16 0 8 8 0 0 1-16 0Z" clip-rule="evenodd"/><defs><linearGradient id="icon-3595bd3dd7695b75__icon-60c71111bce8832a__a" x1="6" x2="17.2" y1="22" y2="44.4" gradientUnits="userSpaceOnUse"><stop stop-color="#209782"/><stop offset="1" stop-color="#0C695A"/></linearGradient><linearGradient id="icon-335efee1771490da__icon-ca914fb23d0a5523__b" x1="12.209" x2="28.209" y1="4" y2="20" gradientUnits="userSpaceOnUse"><stop stop-color="#209782"/><stop offset="1" stop-color="#0C695A"/></linearGradient></defs></svg>