<svg xmlns="http://www.w3.org/2000/svg" width="48" height="48" fill="currentColor"><path fill="url(#icon-862240d411c4c1b0__icon-aae378eea267a98d__a)" fill-rule="evenodd" d="M24 5.001a9.5 9.5 0 1 0 0 19 9.5 9.5 0 1 0 0-19Zm-8.5 9.5a8.5 8.5 0 1 1 17 0 8.5 8.5 0 0 1-17 0Z" clip-rule="evenodd"/><path fill="url(#icon-ff53806a1fe6bf2e__icon-a44cf7de44a99ca9__b)" fill-rule="evenodd" d="M24 43c-4.531 0-8.7-1.166-11.78-3.126C9.157 37.924 7 35.057 7 31.667v-.709A4.958 4.958 0 0 1 11.958 26h24.084A4.958 4.958 0 0 1 41 30.958v.709c0 3.39-2.157 6.258-5.22 8.207C32.7 41.834 28.53 43 24 43Zm-11.243-3.97C9.864 37.19 8 34.596 8 31.667v-.709A3.958 3.958 0 0 1 11.958 27h24.084A3.958 3.958 0 0 1 40 30.958v.709c0 2.929-1.864 5.522-4.757 7.363C32.346 40.874 28.37 42 24 42s-8.346-1.127-11.243-2.97Z" clip-rule="evenodd"/><defs><linearGradient id="icon-862240d411c4c1b0__icon-aae378eea267a98d__a" x1="7" x2="44.765" y1="5.001" y2="38.792" gradientUnits="userSpaceOnUse"><stop stop-color="#209782"/><stop offset="1" stop-color="#0C695A"/></linearGradient><linearGradient id="icon-ff53806a1fe6bf2e__icon-a44cf7de44a99ca9__b" x1="7" x2="44.765" y1="5.001" y2="38.792" gradientUnits="userSpaceOnUse"><stop stop-color="#209782"/><stop offset="1" stop-color="#0C695A"/></linearGradient></defs></svg>