<svg xmlns="http://www.w3.org/2000/svg" width="20" height="20" fill="currentColor"><g clip-path="url(#icon-a6c5c8c38a13dc4d__icon-23d050d7965aafdd__a)"><mask id="icon-56a854e840fb62be__icon-90936acbd606a758__b" width="20" height="20" x="0" y="0" maskUnits="userSpaceOnUse" style="mask-type:luminance"><path fill="#fff" d="M20 0H0v20h20V0Z"/></mask><g mask="url(#icon-56a854e840fb62be__icon-90936acbd606a758__b)"><path fill="url(#icon-db8d05b847fe6763__icon-463156d4d05c6c28__c)" d="M2 4.5A2.5 2.5 0 0 1 4.5 2h11A2.5 2.5 0 0 1 18 4.5v11a2.5 2.5 0 0 1-2.5 2.5h-11A2.5 2.5 0 0 1 2 15.5v-11Z"/><path fill="url(#icon-a816f1c167b7e416__icon-a52a40c060efadfe__d)" fill-opacity=".2" d="M2 4.5A2.5 2.5 0 0 1 4.5 2h11A2.5 2.5 0 0 1 18 4.5v11a2.5 2.5 0 0 1-2.5 2.5h-11A2.5 2.5 0 0 1 2 15.5v-11Z"/><path fill="url(#icon-a9aefc19175a7f39__icon-982dbae9536d3bf7__e)" fill-rule="evenodd" d="M15.5 3h-11A1.5 1.5 0 0 0 3 4.5v11A1.5 1.5 0 0 0 4.5 17h11a1.5 1.5 0 0 0 1.5-1.5v-11A1.5 1.5 0 0 0 15.5 3Zm-11-1A2.5 2.5 0 0 0 2 4.5v11A2.5 2.5 0 0 0 4.5 18h11a2.5 2.5 0 0 0 2.5-2.5v-11A2.5 2.5 0 0 0 15.5 2h-11Z" clip-rule="evenodd"/><path fill="url(#icon-6a431f57dbc74f00__icon-712f951f1bf324b0__f)" d="M6 9a1 1 0 1 0 0-2 1 1 0 0 0 0 2Z"/><path fill="url(#icon-7b25569ca5118be8__icon-1440c3a09885cc4d__g)" d="M10 9a1 1 0 1 0 0-2 1 1 0 0 0 0 2Z"/><path fill="url(#icon-f505215e7728446e__icon-8b23a7ce6bd7b02e__h)" d="M15 8a1 1 0 1 1-2 0 1 1 0 0 1 2 0Z"/><path fill="url(#icon-7e795776c8f47934__icon-ba0bf573986f7faa__i)" d="M10 13a1 1 0 1 0 0-2 1 1 0 0 0 0 2Z"/><path fill="url(#icon-4447c7adce1214fc__icon-7bae6cdf04ef519f__j)" d="M7 12a1 1 0 1 1-2 0 1 1 0 0 1 2 0Z"/><path fill="#F5F5F5" d="M20 15a5 5 0 1 0-10 0 5 5 0 0 0 10 0Z"/><path fill="url(#icon-0ab0a55688cc1383__icon-870d9e0ec6bee6f7__k)" fill-rule="evenodd" d="M17.465 13.29a3 3 0 0 1-4.176 4.176l4.176-4.177Zm-.7-.716-4.19 4.191a3 3 0 0 1 4.191-4.191ZM15 11a4 4 0 1 1 0 8 4 4 0 0 1 0-8Z" clip-rule="evenodd"/></g></g><defs><linearGradient id="icon-db8d05b847fe6763__icon-463156d4d05c6c28__c" x1="6.444" x2="8.468" y1="2" y2="18.192" gradientUnits="userSpaceOnUse"><stop stop-color="#fff"/><stop offset="1" stop-color="#EBEBEB"/></linearGradient><linearGradient id="icon-a9aefc19175a7f39__icon-982dbae9536d3bf7__e" x1="7.167" x2="9.321" y1="2" y2="18.157" gradientUnits="userSpaceOnUse"><stop stop-color="#BBB"/><stop offset="1" stop-color="#888"/></linearGradient><linearGradient id="icon-6a431f57dbc74f00__icon-712f951f1bf324b0__f" x1="5" x2="10.294" y1="7" y2="15.823" gradientUnits="userSpaceOnUse"><stop stop-color="#7751B8"/><stop offset="1" stop-color="#5A409C"/></linearGradient><linearGradient id="icon-7b25569ca5118be8__icon-1440c3a09885cc4d__g" x1="5" x2="10.294" y1="7" y2="15.823" gradientUnits="userSpaceOnUse"><stop stop-color="#7751B8"/><stop offset="1" stop-color="#5A409C"/></linearGradient><linearGradient id="icon-f505215e7728446e__icon-8b23a7ce6bd7b02e__h" x1="5" x2="10.294" y1="7" y2="15.823" gradientUnits="userSpaceOnUse"><stop stop-color="#7751B8"/><stop offset="1" stop-color="#5A409C"/></linearGradient><linearGradient id="icon-7e795776c8f47934__icon-ba0bf573986f7faa__i" x1="5" x2="10.294" y1="7" y2="15.823" gradientUnits="userSpaceOnUse"><stop stop-color="#7751B8"/><stop offset="1" stop-color="#5A409C"/></linearGradient><linearGradient id="icon-4447c7adce1214fc__icon-7bae6cdf04ef519f__j" x1="5" x2="10.294" y1="7" y2="15.823" gradientUnits="userSpaceOnUse"><stop stop-color="#7751B8"/><stop offset="1" stop-color="#5A409C"/></linearGradient><linearGradient id="icon-0ab0a55688cc1383__icon-870d9e0ec6bee6f7__k" x1="11" x2="19" y1="11" y2="19" gradientUnits="userSpaceOnUse"><stop stop-color="#7751B8"/><stop offset="1" stop-color="#5A409C"/></linearGradient><radialGradient id="icon-a816f1c167b7e416__icon-a52a40c060efadfe__d" cx="0" cy="0" r="1" gradientTransform="rotate(56.31 -2.206 9.727) scale(15.2234 13.1741)" gradientUnits="userSpaceOnUse"><stop offset=".177" stop-color="#fff"/><stop offset="1" stop-color="#B8B8B8"/></radialGradient><clipPath id="icon-a6c5c8c38a13dc4d__icon-23d050d7965aafdd__a"><path fill="#fff" d="M0 0h20v20H0z"/></clipPath></defs></svg>