<svg xmlns="http://www.w3.org/2000/svg" width="24" height="24" fill="currentColor"><path fill="url(#icon-8b3ae5065f349025__icon-3f4076e02e63b039__a)" d="M2 5a3 3 0 0 1 3-3h14a3 3 0 0 1 3 3v14a3 3 0 0 1-3 3H5a3 3 0 0 1-3-3V5Z"/><path fill="url(#icon-fc9393741cbb0c7c__icon-eae061b7895361a4__b)" fill-opacity=".2" d="M2 5a3 3 0 0 1 3-3h14a3 3 0 0 1 3 3v14a3 3 0 0 1-3 3H5a3 3 0 0 1-3-3V5Z"/><path fill="url(#icon-0061747eafc922a9__icon-e11dfa73c2c8a89f__c)" fill-rule="evenodd" d="M19 3H5a2 2 0 0 0-2 2v14a2 2 0 0 0 2 2h14a2 2 0 0 0 2-2V5a2 2 0 0 0-2-2ZM5 2a3 3 0 0 0-3 3v14a3 3 0 0 0 3 3h14a3 3 0 0 0 3-3V5a3 3 0 0 0-3-3H5Z" clip-rule="evenodd"/><path fill="url(#icon-e8c6325e6a081951__icon-bb730b955c64640c__d)" d="M7.25 10.5a1.25 1.25 0 1 0 0-2.5 1.25 1.25 0 0 0 0 2.5Z"/><path fill="url(#icon-50cf87b04cfe9257__icon-66290a7d1092b49d__e)" d="M12 10.5A1.25 1.25 0 1 0 12 8a1.25 1.25 0 0 0 0 2.5Z"/><path fill="url(#icon-0c5fa809d45f0d69__icon-76e0f9eb708d593f__f)" d="M13.25 14.75a1.25 1.25 0 1 1-2.5 0 1.25 1.25 0 0 1 2.5 0Z"/><path fill="url(#icon-ab57727b2d22cc1e__icon-2895eef1163ae011__g)" d="M7.25 16a1.25 1.25 0 1 0 0-2.5 1.25 1.25 0 0 0 0 2.5Z"/><path fill="url(#icon-7657470f6df7cdb9__icon-4882606193e4080f__h)" d="M18 9.25a1.25 1.25 0 1 1-2.5 0 1.25 1.25 0 0 1 2.5 0Z"/><path fill="#F5F5F5" d="M24 18a6 6 0 1 1-12 0 6 6 0 0 1 12 0Z"/><path fill="url(#icon-72cccda0eb06bffb__icon-9f0a738f848c702b__i)" fill-rule="evenodd" d="M21.535 14.464a5 5 0 1 1-7.07 7.071 5 5 0 0 1 7.07-7.07Zm-.375 1.083a4 4 0 0 1-5.613 5.613l5.613-5.613Zm-.707-.707-5.613 5.613a4 4 0 0 1 5.613-5.613Z" clip-rule="evenodd"/><defs><linearGradient id="icon-8b3ae5065f349025__icon-3f4076e02e63b039__a" x1="7.556" x2="10.085" y1="2" y2="22.239" gradientUnits="userSpaceOnUse"><stop stop-color="#fff"/><stop offset="1" stop-color="#EBEBEB"/></linearGradient><linearGradient id="icon-0061747eafc922a9__icon-e11dfa73c2c8a89f__c" x1="8.458" x2="11.151" y1="2" y2="22.197" gradientUnits="userSpaceOnUse"><stop stop-color="#BBB"/><stop offset="1" stop-color="#888"/></linearGradient><linearGradient id="icon-e8c6325e6a081951__icon-bb730b955c64640c__d" x1="6" x2="13.385" y1="8" y2="19.077" gradientUnits="userSpaceOnUse"><stop stop-color="#7751B8"/><stop offset="1" stop-color="#5A409C"/></linearGradient><linearGradient id="icon-50cf87b04cfe9257__icon-66290a7d1092b49d__e" x1="6" x2="13.385" y1="8" y2="19.077" gradientUnits="userSpaceOnUse"><stop stop-color="#7751B8"/><stop offset="1" stop-color="#5A409C"/></linearGradient><linearGradient id="icon-0c5fa809d45f0d69__icon-76e0f9eb708d593f__f" x1="6" x2="13.385" y1="8" y2="19.077" gradientUnits="userSpaceOnUse"><stop stop-color="#7751B8"/><stop offset="1" stop-color="#5A409C"/></linearGradient><linearGradient id="icon-ab57727b2d22cc1e__icon-2895eef1163ae011__g" x1="6" x2="13.385" y1="8" y2="19.077" gradientUnits="userSpaceOnUse"><stop stop-color="#7751B8"/><stop offset="1" stop-color="#5A409C"/></linearGradient><linearGradient id="icon-7657470f6df7cdb9__icon-4882606193e4080f__h" x1="6" x2="13.385" y1="8" y2="19.077" gradientUnits="userSpaceOnUse"><stop stop-color="#7751B8"/><stop offset="1" stop-color="#5A409C"/></linearGradient><linearGradient id="icon-72cccda0eb06bffb__icon-9f0a738f848c702b__i" x1="13" x2="23" y1="13" y2="23" gradientUnits="userSpaceOnUse"><stop stop-color="#7751B8"/><stop offset="1" stop-color="#5A409C"/></linearGradient><radialGradient id="icon-fc9393741cbb0c7c__icon-eae061b7895361a4__b" cx="0" cy="0" r="1" gradientTransform="rotate(56.31 -2.54 11.442) scale(19.0293 16.4677)" gradientUnits="userSpaceOnUse"><stop offset=".177" stop-color="#fff"/><stop offset="1" stop-color="#B8B8B8"/></radialGradient></defs></svg>