<svg xmlns="http://www.w3.org/2000/svg" width="32" height="32" fill="currentColor"><g clip-path="url(#icon-e813021122892a1c__icon-9615979754b4d6b4__a)"><mask id="icon-bb4a7afc83a608d9__icon-5e2d2493c8795d30__b" width="32" height="32" x="0" y="0" maskUnits="userSpaceOnUse" style="mask-type:luminance"><path fill="#fff" d="M32 0H0v32h32V0Z"/></mask><g mask="url(#icon-bb4a7afc83a608d9__icon-5e2d2493c8795d30__b)"><path fill="url(#icon-d08499c507a27d35__icon-d9eab7f73719f008__c)" d="M3 6.5A3.5 3.5 0 0 1 6.5 3h19A3.5 3.5 0 0 1 29 6.5v19a3.5 3.5 0 0 1-3.5 3.5h-19A3.5 3.5 0 0 1 3 25.5v-19Z"/><path fill="url(#icon-cbbc072f724848ee__icon-69a716bd04706e1a__d)" fill-opacity=".2" d="M3 6.5A3.5 3.5 0 0 1 6.5 3h19A3.5 3.5 0 0 1 29 6.5v19a3.5 3.5 0 0 1-3.5 3.5h-19A3.5 3.5 0 0 1 3 25.5v-19Z"/><path fill="url(#icon-8f75592c68423f0c__icon-b1906e83ae64e799__e)" fill-rule="evenodd" d="M25.5 4h-19A2.5 2.5 0 0 0 4 6.5v19A2.5 2.5 0 0 0 6.5 28h19a2.5 2.5 0 0 0 2.5-2.5v-19A2.5 2.5 0 0 0 25.5 4Zm-19-1A3.5 3.5 0 0 0 3 6.5v19A3.5 3.5 0 0 0 6.5 29h19a3.5 3.5 0 0 0 3.5-3.5v-19A3.5 3.5 0 0 0 25.5 3h-19Z" clip-rule="evenodd"/><path fill="url(#icon-59d1b52aa99dfa05__icon-17712b25a4ceac51__f)" d="M9.75 14.5a1.75 1.75 0 1 0 0-3.5 1.75 1.75 0 0 0 0 3.5Z"/><path fill="url(#icon-63d98e5a1ccd723b__icon-c079cf064c09818e__g)" d="M16 14.5a1.75 1.75 0 1 0 0-3.5 1.75 1.75 0 0 0 0 3.5Z"/><path fill="url(#icon-afc62f987ceae09c__icon-2eec4efcd73d9984__h)" d="M11.5 19.25a1.75 1.75 0 1 1-3.5 0 1.75 1.75 0 0 1 3.5 0Z"/><path fill="url(#icon-215965075886d51d__icon-3243c6e77923acb5__i)" d="M16 21a1.75 1.75 0 1 0 0-3.5 1.75 1.75 0 0 0 0 3.5Z"/><path fill="url(#icon-a4aed21c9a503cc7__icon-f906c438da9a179f__j)" d="M24 12.75a1.75 1.75 0 1 1-3.5 0 1.75 1.75 0 0 1 3.5 0Z"/><path fill="#F5F5F5" d="M25 33a8 8 0 1 0 0-16 8 8 0 0 0 0 16Z"/><path fill="url(#icon-321615d9f70cef0d__icon-76fc59c7e3ef7f2f__k)" fill-rule="evenodd" d="M29.95 20.05a7 7 0 1 1-9.9 9.9 7 7 0 0 1 9.9-9.9Zm-.368 1.075a6 6 0 0 1-8.457 8.457l8.457-8.457Zm-.707-.707-8.457 8.457a6 6 0 0 1 8.457-8.457Z" clip-rule="evenodd"/></g></g><defs><linearGradient id="icon-d08499c507a27d35__icon-d9eab7f73719f008__c" x1="10.222" x2="13.511" y1="3" y2="29.311" gradientUnits="userSpaceOnUse"><stop stop-color="#fff"/><stop offset="1" stop-color="#EBEBEB"/></linearGradient><linearGradient id="icon-8f75592c68423f0c__icon-b1906e83ae64e799__e" x1="11.396" x2="14.897" y1="3" y2="29.256" gradientUnits="userSpaceOnUse"><stop stop-color="#BBB"/><stop offset="1" stop-color="#888"/></linearGradient><linearGradient id="icon-59d1b52aa99dfa05__icon-17712b25a4ceac51__f" x1="8" x2="16.989" y1="11" y2="25.382" gradientUnits="userSpaceOnUse"><stop stop-color="#7751B8"/><stop offset="1" stop-color="#5A409C"/></linearGradient><linearGradient id="icon-63d98e5a1ccd723b__icon-c079cf064c09818e__g" x1="8" x2="16.989" y1="11" y2="25.382" gradientUnits="userSpaceOnUse"><stop stop-color="#7751B8"/><stop offset="1" stop-color="#5A409C"/></linearGradient><linearGradient id="icon-afc62f987ceae09c__icon-2eec4efcd73d9984__h" x1="8" x2="16.989" y1="11" y2="25.382" gradientUnits="userSpaceOnUse"><stop stop-color="#7751B8"/><stop offset="1" stop-color="#5A409C"/></linearGradient><linearGradient id="icon-215965075886d51d__icon-3243c6e77923acb5__i" x1="8" x2="16.989" y1="11" y2="25.382" gradientUnits="userSpaceOnUse"><stop stop-color="#7751B8"/><stop offset="1" stop-color="#5A409C"/></linearGradient><linearGradient id="icon-a4aed21c9a503cc7__icon-f906c438da9a179f__j" x1="8" x2="16.989" y1="11" y2="25.382" gradientUnits="userSpaceOnUse"><stop stop-color="#7751B8"/><stop offset="1" stop-color="#5A409C"/></linearGradient><linearGradient id="icon-321615d9f70cef0d__icon-76fc59c7e3ef7f2f__k" x1="18" x2="32" y1="18" y2="32" gradientUnits="userSpaceOnUse"><stop stop-color="#7751B8"/><stop offset="1" stop-color="#5A409C"/></linearGradient><radialGradient id="icon-cbbc072f724848ee__icon-69a716bd04706e1a__d" cx="0" cy="0" r="1" gradientTransform="rotate(56.31 -3.476 15.448) scale(24.7381 21.408)" gradientUnits="userSpaceOnUse"><stop offset=".177" stop-color="#fff"/><stop offset="1" stop-color="#B8B8B8"/></radialGradient><clipPath id="icon-e813021122892a1c__icon-9615979754b4d6b4__a"><path fill="#fff" d="M0 0h32v32H0z"/></clipPath></defs></svg>