<svg xmlns="http://www.w3.org/2000/svg" width="40" height="40" fill="currentColor"><path fill="url(#icon-dd6eef09bde24c7d__icon-235e3b2b17aee6d6__a)" d="M4 8a4 4 0 0 1 4-4h24a4 4 0 0 1 4 4v24a4 4 0 0 1-4 4H8a4 4 0 0 1-4-4V8Z"/><path fill="url(#icon-bc0ce4f5a3d83354__icon-16a20acb43230c82__b)" fill-opacity=".2" d="M4 8a4 4 0 0 1 4-4h24a4 4 0 0 1 4 4v24a4 4 0 0 1-4 4H8a4 4 0 0 1-4-4V8Z"/><path fill="url(#icon-8567f7a14598e454__icon-e28d62d1d556a09e__c)" fill-rule="evenodd" d="M32 5H8a3 3 0 0 0-3 3v24a3 3 0 0 0 3 3h24a3 3 0 0 0 3-3V8a3 3 0 0 0-3-3ZM8 4a4 4 0 0 0-4 4v24a4 4 0 0 0 4 4h24a4 4 0 0 0 4-4V8a4 4 0 0 0-4-4H8Z" clip-rule="evenodd"/><path fill="url(#icon-2dba9ee198c8596f__icon-fdf8133da8b2d20a__d)" d="M12 18.25a2 2 0 1 0 0-4 2 2 0 0 0 0 4Z"/><path fill="url(#icon-9716ff066f727d1e__icon-e71646a8c60fc017__e)" d="M20 18.25a2 2 0 1 0 0-4 2 2 0 0 0 0 4Z"/><path fill="url(#icon-cb753bbf3edfd12b__icon-44c567901054ad90__f)" d="M30 16.25a2 2 0 1 1-4 0 2 2 0 0 1 4 0Z"/><path fill="url(#icon-40f9c105b95de43b__icon-f74cf63fa26bcd19__g)" d="M20 26.25a2 2 0 1 0 0-4 2 2 0 0 0 0 4Z"/><path fill="url(#icon-14a07e2c6939569d__icon-56623ba8efb5b30e__h)" d="M14 24.25a2 2 0 1 1-4 0 2 2 0 0 1 4 0Z"/><path fill="#F5F5F5" d="M39 31a8 8 0 1 0-16 0 8 8 0 0 0 16 0Z"/><path fill="url(#icon-2acc85373f2bcb4c__icon-fd2466b82ea2b379__i)" fill-rule="evenodd" d="M31 24a7 7 0 1 1 0 14 7 7 0 0 1 0-14Zm4.526 3.061a6 6 0 0 1-8.465 8.465l8.465-8.465Zm-.717-.697-8.445 8.445a6 6 0 0 1 8.445-8.445Z" clip-rule="evenodd"/><defs><linearGradient id="icon-dd6eef09bde24c7d__icon-235e3b2b17aee6d6__a" x1="12.889" x2="16.937" y1="4" y2="36.383" gradientUnits="userSpaceOnUse"><stop stop-color="#fff"/><stop offset="1" stop-color="#EBEBEB"/></linearGradient><linearGradient id="icon-8567f7a14598e454__icon-e28d62d1d556a09e__c" x1="14.333" x2="18.642" y1="4" y2="36.314" gradientUnits="userSpaceOnUse"><stop stop-color="#BBB"/><stop offset="1" stop-color="#888"/></linearGradient><linearGradient id="icon-2dba9ee198c8596f__icon-fdf8133da8b2d20a__d" x1="10" x2="20.588" y1="14.25" y2="31.897" gradientUnits="userSpaceOnUse"><stop stop-color="#7751B8"/><stop offset="1" stop-color="#5A409C"/></linearGradient><linearGradient id="icon-9716ff066f727d1e__icon-e71646a8c60fc017__e" x1="10" x2="20.588" y1="14.25" y2="31.897" gradientUnits="userSpaceOnUse"><stop stop-color="#7751B8"/><stop offset="1" stop-color="#5A409C"/></linearGradient><linearGradient id="icon-cb753bbf3edfd12b__icon-44c567901054ad90__f" x1="10" x2="20.588" y1="14.25" y2="31.897" gradientUnits="userSpaceOnUse"><stop stop-color="#7751B8"/><stop offset="1" stop-color="#5A409C"/></linearGradient><linearGradient id="icon-40f9c105b95de43b__icon-f74cf63fa26bcd19__g" x1="10" x2="20.588" y1="14.25" y2="31.897" gradientUnits="userSpaceOnUse"><stop stop-color="#7751B8"/><stop offset="1" stop-color="#5A409C"/></linearGradient><linearGradient id="icon-14a07e2c6939569d__icon-56623ba8efb5b30e__h" x1="10" x2="20.588" y1="14.25" y2="31.897" gradientUnits="userSpaceOnUse"><stop stop-color="#7751B8"/><stop offset="1" stop-color="#5A409C"/></linearGradient><linearGradient id="icon-2acc85373f2bcb4c__icon-fd2466b82ea2b379__i" x1="24" x2="38" y1="24" y2="38" gradientUnits="userSpaceOnUse"><stop stop-color="#7751B8"/><stop offset="1" stop-color="#5A409C"/></linearGradient><radialGradient id="icon-bc0ce4f5a3d83354__icon-16a20acb43230c82__b" cx="0" cy="0" r="1" gradientTransform="rotate(56.31 -4.411 19.454) scale(30.4469 26.3483)" gradientUnits="userSpaceOnUse"><stop offset=".177" stop-color="#fff"/><stop offset="1" stop-color="#B8B8B8"/></radialGradient></defs></svg>