<svg xmlns="http://www.w3.org/2000/svg" width="24" height="24" fill="currentColor"><path fill="url(#icon-3ff2490838cc62d2__icon-9f245ebffed4ec90__a)" fill-rule="evenodd" d="M18 1.5H6.5c-1.243 0-3 1.257-3 2.5v17c.5 1 2.265 1.5 3 1.5h11c.828 0 3-1.672 3-2.5V4c0-.828-1.672-2.5-2.5-2.5Z" clip-rule="evenodd"/><path fill="url(#icon-5e0b691e4cf05a8d__icon-d6f897a24b7cf54c__b)" fill-opacity=".2" fill-rule="evenodd" d="M18 1.5H6.5c-1.243 0-3 1.257-3 2.5v17c.5 1 2.265 1.5 3 1.5h11c.828 0 3-1.672 3-2.5V4c0-.828-1.672-2.5-2.5-2.5Z" clip-rule="evenodd"/><path fill="url(#icon-b02158c22e8dbb35__icon-f165c71f35309795__c)" d="M13.676 5.032a.5.5 0 0 1 .292.644l-3 8a.5.5 0 1 1-.936-.351l3-8a.5.5 0 0 1 .644-.293Z"/><path fill="url(#icon-3341fde627185c0e__icon-24ccbd3c7e6ca4cc__d)" d="M15.146 7.146a.5.5 0 0 1 .707 0l1.93 1.93a.6.6 0 0 1 0 .848l-1.93 1.93a.5.5 0 0 1-.707-.708L16.793 9.5l-1.647-1.646a.5.5 0 0 1 0-.708Z"/><path fill="url(#icon-d37a96d0e84a40a7__icon-e8b621135dc51252__e)" d="M8.105 7.146a.5.5 0 1 1 .707.708L7.167 9.5l1.646 1.646a.5.5 0 0 1-.707.708l-1.929-1.93a.6.6 0 0 1 0-.848l1.93-1.93Z"/><path fill="url(#icon-9ae6b25716eef086__icon-c42d3ad42437c0c5__f)" fill-rule="evenodd" d="M17.5 23a3.5 3.5 0 0 0 3.5-3.5v-15A3.5 3.5 0 0 0 17.5 1h-11A3.5 3.5 0 0 0 3 4.5v15.625h.003A3 3 0 0 0 6 23h11.5Zm0-1a2.5 2.5 0 0 0 2.5-2.5v-.05a3.49 3.49 0 0 1-2.5 1.05h-11a.5.5 0 0 1 0-1h11A2.5 2.5 0 0 0 20 17v-.05A3.49 3.49 0 0 1 17.5 18H6a2 2 0 1 0 0 4h11.5ZM4 17.764A2.99 2.99 0 0 1 6 17h11.5a2.5 2.5 0 0 0 2.5-2.5v-10A2.5 2.5 0 0 0 17.5 2h-11A2.5 2.5 0 0 0 4 4.5v13.264Z" clip-rule="evenodd"/><defs><linearGradient id="icon-3ff2490838cc62d2__icon-9f245ebffed4ec90__a" x1="8.222" x2="11.477" y1="1.5" y2="22.581" gradientUnits="userSpaceOnUse"><stop stop-color="#fff"/><stop offset="1" stop-color="#EBEBEB"/></linearGradient><linearGradient id="icon-b02158c22e8dbb35__icon-f165c71f35309795__c" x1="6" x2="14.649" y1="5" y2="16.491" gradientUnits="userSpaceOnUse"><stop stop-color="#4BA446"/><stop offset="1" stop-color="#3F7D35"/></linearGradient><linearGradient id="icon-3341fde627185c0e__icon-24ccbd3c7e6ca4cc__d" x1="6" x2="14.649" y1="5" y2="16.491" gradientUnits="userSpaceOnUse"><stop stop-color="#4BA446"/><stop offset="1" stop-color="#3F7D35"/></linearGradient><linearGradient id="icon-d37a96d0e84a40a7__icon-e8b621135dc51252__e" x1="6" x2="14.649" y1="5" y2="16.491" gradientUnits="userSpaceOnUse"><stop stop-color="#4BA446"/><stop offset="1" stop-color="#3F7D35"/></linearGradient><linearGradient id="icon-9ae6b25716eef086__icon-c42d3ad42437c0c5__f" x1="8.813" x2="12.402" y1="1" y2="23.026" gradientUnits="userSpaceOnUse"><stop stop-color="#BBB"/><stop offset="1" stop-color="#888"/></linearGradient><radialGradient id="icon-5e0b691e4cf05a8d__icon-d6f897a24b7cf54c__b" cx="0" cy="0" r="1" gradientTransform="rotate(61.645 -1.375 10.968) scale(18.8916 14.8045)" gradientUnits="userSpaceOnUse"><stop offset=".177" stop-color="#fff"/><stop offset="1" stop-color="#B8B8B8"/></radialGradient></defs></svg>