<svg xmlns="http://www.w3.org/2000/svg" width="20" height="20" fill="currentColor"><path fill="url(#icon-a183d6f5fc0fab2e__icon-50c63a1446e23d81__a)" d="M3.047 3a2 2 0 0 1 2-2h10a2 2 0 0 1 2 2v14a2 2 0 0 1-2 2h-10a2 2 0 0 1-2-2V3Z"/><path fill="url(#icon-dd8c081532a5dcc2__icon-ae0e0f922b050771__b)" fill-opacity=".2" d="M3.047 3a2 2 0 0 1 2-2h10a2 2 0 0 1 2 2v14a2 2 0 0 1-2 2h-10a2 2 0 0 1-2-2V3Z"/><path fill="url(#icon-7ca89cc31a23cfbc__icon-e4b76f9fd25ec797__c)" fill-rule="evenodd" d="M17.047 3a2 2 0 0 0-2-2h-10a2 2 0 0 0-2 2v14a2 2 0 0 0 2 2h10a2 2 0 0 0 2-2V3Zm-12-1h10a1 1 0 0 1 1 1v10.5a1.5 1.5 0 0 1-1.5 1.5h-9.5a1.99 1.99 0 0 0-1 .268V3a1 1 0 0 1 1-1Zm-1 15a1 1 0 0 0 1 1h10a1 1 0 0 0 1-1v-1.5a2.49 2.49 0 0 1-1.5.5h-9.5a1 1 0 0 0-1 1Z" clip-rule="evenodd"/><path fill="url(#icon-3321310af1f3bba4__icon-a8aaec00f7fced47__d)" d="M11.485 4.621a.5.5 0 1 0-.97-.242l-1.75 7a.5.5 0 0 0 .97.242l1.75-7Z"/><path fill="url(#icon-32ad56d86d4005b0__icon-00e8ae2c3e67df26__e)" d="M12.116 5.553a.5.5 0 0 0 0 .707L13.856 8l-1.74 1.74a.5.5 0 1 0 .707.707l2.023-2.023a.6.6 0 0 0 0-.848l-2.023-2.023a.5.5 0 0 0-.707 0Z"/><path fill="url(#icon-0109f335815e900b__icon-999299372c634696__f)" d="M7.916 5.584a.5.5 0 0 1 0 .707L6.206 8l1.71 1.709a.5.5 0 0 1-.707.707L5.217 8.424a.6.6 0 0 1 0-.848l1.992-1.992a.5.5 0 0 1 .707 0Z"/><defs><linearGradient id="icon-a183d6f5fc0fab2e__icon-50c63a1446e23d81__a" x1="6.936" x2="9.834" y1="1" y2="19.034" gradientUnits="userSpaceOnUse"><stop stop-color="#fff"/><stop offset="1" stop-color="#EBEBEB"/></linearGradient><linearGradient id="icon-7ca89cc31a23cfbc__icon-e4b76f9fd25ec797__c" x1="7.568" x2="10.649" y1="1" y2="18.972" gradientUnits="userSpaceOnUse"><stop stop-color="#BBB"/><stop offset="1" stop-color="#888"/></linearGradient><linearGradient id="icon-3321310af1f3bba4__icon-a8aaec00f7fced47__d" x1="5.041" x2="12.85" y1="4" y2="13.741" gradientUnits="userSpaceOnUse"><stop stop-color="#4BA446"/><stop offset="1" stop-color="#3F7D35"/></linearGradient><linearGradient id="icon-32ad56d86d4005b0__icon-00e8ae2c3e67df26__e" x1="5.041" x2="12.85" y1="4" y2="13.741" gradientUnits="userSpaceOnUse"><stop stop-color="#4BA446"/><stop offset="1" stop-color="#3F7D35"/></linearGradient><linearGradient id="icon-0109f335815e900b__icon-999299372c634696__f" x1="5.041" x2="12.85" y1="4" y2="13.741" gradientUnits="userSpaceOnUse"><stop stop-color="#4BA446"/><stop offset="1" stop-color="#3F7D35"/></linearGradient><radialGradient id="icon-dd8c081532a5dcc2__icon-ae0e0f922b050771__b" cx="0" cy="0" r="1" gradientTransform="matrix(7.38888 14.24997 -10.91858 5.6615 7.52 5.688)" gradientUnits="userSpaceOnUse"><stop offset=".177" stop-color="#fff"/><stop offset="1" stop-color="#B8B8B8"/></radialGradient></defs></svg>