<svg xmlns="http://www.w3.org/2000/svg" width="16" height="16" fill="currentColor"><path d="M2 2.75C2 1.784 2.784 1 3.75 1h7.5c.966 0 1.75.784 1.75 1.75v10.5A1.75 1.75 0 0 1 11.25 15h-7.5A1.75 1.75 0 0 1 2 13.25V2.75Zm6.482 2.558a.5.5 0 1 0-.97-.241l-.953 3.828a.5.5 0 1 0 .97.241l.953-3.828Zm.665.24a.5.5 0 0 0-.001.708l.649.652-.65.652a.5.5 0 0 0 .71.705l.93-.934a.6.6 0 0 0 0-.846l-.93-.934a.5.5 0 0 0-.708-.002Zm-3.293.8a.5.5 0 0 0-.708-.705l-.93.934a.6.6 0 0 0 0 .847l.93.934a.5.5 0 0 0 .708-.706L5.205 7l.65-.652ZM14.625 4H14v2h.625A.375.375 0 0 0 15 5.625v-1.25A.375.375 0 0 0 14.625 4ZM14 7h.625c.207 0 .375.168.375.375v1.25a.375.375 0 0 1-.375.375H14V7ZM14.625 10H14v2h.625a.375.375 0 0 0 .375-.375v-1.25a.375.375 0 0 0-.375-.375Z"/></svg>