<svg xmlns="http://www.w3.org/2000/svg" width="24" height="24" fill="currentColor"><path d="M9.605 8.674a.75.75 0 0 0-1.061-1.06L7.259 8.899a.85.85 0 0 0 0 1.202l1.285 1.285a.75.75 0 0 0 1.06-1.06L8.78 9.5l.826-.826ZM13.427 11.386a.75.75 0 0 1 0-1.06l.825-.826-.825-.826a.75.75 0 0 1 1.06-1.06l1.286 1.285a.85.85 0 0 1 0 1.202l-1.286 1.285a.75.75 0 0 1-1.06 0ZM12.922 6.97a.75.75 0 0 0-1.456-.364l-1.355 5.425a.75.75 0 1 0 1.455.363l1.356-5.424Z"/><path fill-rule="evenodd" d="M18.999 4.25A2.25 2.25 0 0 0 16.749 2H6.25A2.25 2.25 0 0 0 4 4.25v15.5A2.25 2.25 0 0 0 6.25 22h10.499a2.25 2.25 0 0 0 2.25-2.25V4.25ZM6.25 3.5h10.499a.75.75 0 0 1 .75.75v15.5a.75.75 0 0 1-.75.75H6.25a.75.75 0 0 1-.75-.75V4.25a.75.75 0 0 1 .75-.75Z" clip-rule="evenodd"/><path d="M20.75 15.002H20V18h.75l.102-.007a.75.75 0 0 0 .648-.743v-1.498l-.007-.102a.75.75 0 0 0-.743-.648ZM20.75 11.002H20V14h.75l.102-.007a.75.75 0 0 0 .648-.743v-1.498l-.007-.102a.75.75 0 0 0-.743-.648ZM20.75 7.002H20V10h.75l.102-.007a.75.75 0 0 0 .648-.743V7.752l-.007-.102a.75.75 0 0 0-.743-.648Z"/></svg>