<svg xmlns="http://www.w3.org/2000/svg" width="40" height="40" fill="currentColor"><path fill="url(#icon-5b481a253b336bf7__icon-a62f90ab1d556db4__a)" fill-rule="evenodd" d="M9.199 2.677h21.728c1.5 0 3.073 1.046 3.073 2.59v22.777c0 .947-.591 1.88-1.395 2.46l1.038-.43-.456 5.363-2.156 2-22.281-.374-1.594-2.407-.843-1.47v-.967c-.818.44.196.472-.313 1.007V7.817c0-2.318.949-5.14 3.199-5.14Z" clip-rule="evenodd"/><path fill="url(#icon-6d6b0e4d97ab6178__icon-4fab29b316111d3e__b)" fill-opacity=".2" fill-rule="evenodd" d="M9.199 2.677h21.728c1.5 0 3.073 1.046 3.073 2.59v22.777c0 .947-.591 1.88-1.395 2.46l1.038-.43-.456 5.363-2.156 2-22.281-.374-1.594-2.407-.843-1.47v-.967c-.818.44.196.472-.313 1.007V7.817c0-2.318.949-5.14 3.199-5.14Z" clip-rule="evenodd"/><path fill="url(#icon-b4972c829e1c96d7__icon-2417c2abb9528753__c)" fill-rule="evenodd" d="M6 33a5 5 0 0 0 5 5h19a4 4 0 0 0 4-4V6a4 4 0 0 0-4-4H10a4 4 0 0 0-4 4v27Zm4-30h20a3 3 0 0 1 3 3v18a3.5 3.5 0 0 1-3.5 3.5h-18c-1.86 0-3.505.923-4.5 2.337V6a3 3 0 0 1 3-3ZM7 33a4 4 0 0 0 4 4h19a3 3 0 0 0 3-3v-2.171a4.491 4.491 0 0 1-3.5 1.671h-17a.5.5 0 0 1 0-1h17A3.5 3.5 0 0 0 33 29v-2.171a4.491 4.491 0 0 1-3.5 1.671h-18A4.5 4.5 0 0 0 7 33Z" clip-rule="evenodd"/><path fill="url(#icon-39d91cca98712ce5__icon-d229f28205ff005e__d)" d="M22.203 8.52a.5.5 0 0 1 .335.623L18.63 22.144a.5.5 0 1 1-.957-.288l3.907-13a.5.5 0 0 1 .623-.336Z"/><path fill="url(#icon-1330513c90cf5a27__icon-90407a1c03f2585f__e)" d="M15.855 11.146a.5.5 0 0 0-.707 0l-3.929 3.93a.6.6 0 0 0 0 .848l3.93 3.93a.5.5 0 0 0 .707-.708L12.208 15.5l3.646-3.646a.5.5 0 0 0 0-.708Z"/><path fill="url(#icon-a4aa01ed2eb2a353__icon-e7946323c2c4702c__f)" d="M24.853 19.854a.5.5 0 0 1-.708-.708l3.647-3.646-3.647-3.646a.5.5 0 0 1 .708-.708l3.929 3.93a.6.6 0 0 1 0 .848l-3.93 3.93Z"/><defs><linearGradient id="icon-5b481a253b336bf7__icon-a62f90ab1d556db4__a" x1="13.764" x2="19.174" y1="2.677" y2="37.564" gradientUnits="userSpaceOnUse"><stop stop-color="#fff"/><stop offset="1" stop-color="#EBEBEB"/></linearGradient><linearGradient id="icon-b4972c829e1c96d7__icon-2417c2abb9528753__c" x1="15.042" x2="21.203" y1="2" y2="37.944" gradientUnits="userSpaceOnUse"><stop stop-color="#BBB"/><stop offset="1" stop-color="#888"/></linearGradient><linearGradient id="icon-39d91cca98712ce5__icon-d229f28205ff005e__d" x1="11.043" x2="24.63" y1="8.499" y2="25.883" gradientUnits="userSpaceOnUse"><stop stop-color="#4BA446"/><stop offset="1" stop-color="#3F7D35"/></linearGradient><linearGradient id="icon-1330513c90cf5a27__icon-90407a1c03f2585f__e" x1="11.043" x2="24.63" y1="8.499" y2="25.883" gradientUnits="userSpaceOnUse"><stop stop-color="#4BA446"/><stop offset="1" stop-color="#3F7D35"/></linearGradient><linearGradient id="icon-a4aa01ed2eb2a353__icon-e7946323c2c4702c__f" x1="11.043" x2="24.63" y1="8.499" y2="25.883" gradientUnits="userSpaceOnUse"><stop stop-color="#4BA446"/><stop offset="1" stop-color="#3F7D35"/></linearGradient><radialGradient id="icon-6d6b0e4d97ab6178__icon-4fab29b316111d3e__b" cx="0" cy="0" r="1" gradientTransform="rotate(61.747 -2.344 18.351) scale(31.2407 24.4245)" gradientUnits="userSpaceOnUse"><stop offset=".177" stop-color="#fff"/><stop offset="1" stop-color="#B8B8B8"/></radialGradient></defs></svg>