<svg xmlns="http://www.w3.org/2000/svg" width="16" height="16" fill="currentColor"><path d="M5.854 6.348a.5.5 0 0 0-.708-.705l-.93.934a.6.6 0 0 0 0 .847l.93.934a.5.5 0 0 0 .708-.706L5.205 7l.65-.652ZM9.147 5.549a.5.5 0 0 0-.001.707l.649.652-.65.652a.5.5 0 0 0 .71.705l.93-.934a.6.6 0 0 0 0-.846l-.93-.934a.5.5 0 0 0-.708-.002ZM8.482 5.308a.5.5 0 1 0-.97-.241l-.953 3.828a.5.5 0 1 0 .97.241l.953-3.828Z"/><path d="M3.75 1A1.75 1.75 0 0 0 2 2.75v10.5c0 .966.784 1.75 1.75 1.75h7.5A1.75 1.75 0 0 0 13 13.25V2.75A1.75 1.75 0 0 0 11.25 1h-7.5ZM3 2.75A.75.75 0 0 1 3.75 2h7.5a.75.75 0 0 1 .75.75v10.5a.75.75 0 0 1-.75.75h-7.5a.75.75 0 0 1-.75-.75V2.75ZM14 4h.625c.207 0 .375.168.375.375v1.25a.375.375 0 0 1-.375.375H14V4ZM14.625 7H14v2h.625A.375.375 0 0 0 15 8.625v-1.25A.375.375 0 0 0 14.625 7ZM14 10h.625c.207 0 .375.168.375.375v1.25a.375.375 0 0 1-.375.375H14v-2Z"/></svg>