<svg xmlns="http://www.w3.org/2000/svg" width="20" height="20" fill="currentColor"><path d="M7.103 7.604a.5.5 0 1 0-.707-.708l-1.18 1.18a.6.6 0 0 0 0 .848l1.18 1.18a.5.5 0 0 0 .707-.708L6.207 8.5l.896-.896ZM10.897 10.104a.5.5 0 0 1 0-.708l.896-.896-.896-.896a.5.5 0 1 1 .707-.708l1.18 1.18a.6.6 0 0 1 0 .848l-1.18 1.18a.5.5 0 0 1-.707 0ZM10.11 6.121a.5.5 0 1 0-.97-.242l-1.25 5a.5.5 0 0 0 .97.242l1.25-5Z"/><path d="M5 2a2 2 0 0 0-2 2v12a2 2 0 0 0 2 2h8a2 2 0 0 0 2-2V4a2 2 0 0 0-2-2H5ZM4 4a1 1 0 0 1 1-1h8a1 1 0 0 1 1 1v12a1 1 0 0 1-1 1H5a1 1 0 0 1-1-1V4ZM16.5 6H16v2.5h.5A.5.5 0 0 0 17 8V6.5a.5.5 0 0 0-.5-.5ZM16 9.5h.5a.5.5 0 0 1 .5.5v1.5a.5.5 0 0 1-.5.5H16V9.5ZM16.5 13H16v2.5h.5a.5.5 0 0 0 .5-.5v-1.5a.5.5 0 0 0-.5-.5Z"/></svg>