<svg xmlns="http://www.w3.org/2000/svg" width="20" height="20" fill="currentColor"><path d="M5 2a2 2 0 0 0-2 2v12a2 2 0 0 0 2 2h5.257a5.503 5.503 0 0 1-.657-1H5a1 1 0 0 1-1-1V4a1 1 0 0 1 1-1h8a1 1 0 0 1 1 1v5.022a5.571 5.571 0 0 1 1 0V4a2 2 0 0 0-2-2H5Z"/><path d="M5 5.5a.5.5 0 0 1 .5-.5h7a.5.5 0 0 1 .5.5v2a.5.5 0 0 1-.5.5h-7a.5.5 0 0 1-.5-.5v-2ZM6 6v1h6V6H6ZM16 6h.5a.5.5 0 0 1 .5.5V8a.5.5 0 0 1-.5.5H16V6ZM13.55 11.15c-.29.727-.493 1.722-.54 2.85h2.98c-.047-1.128-.25-2.123-.54-2.85-.167-.417-.353-.722-.535-.914-.18-.19-.32-.236-.415-.236-.095 0-.235.046-.415.236-.182.192-.368.497-.535.914ZM12.83 10.32a5.346 5.346 0 0 0-.209.459c-.344.862-.565 1.987-.612 3.221h-1.982a4.505 4.505 0 0 1 2.802-3.68ZM16.17 10.32c.075.145.144.299.208.459.345.862.565 1.987.612 3.221h1.982a4.504 4.504 0 0 0-2.802-3.68ZM18.972 15H16.99c-.047 1.234-.267 2.36-.612 3.221-.064.16-.133.314-.208.459A4.504 4.504 0 0 0 18.972 15ZM14.5 19c.094 0 .235-.046.415-.236.182-.192.368-.497.535-.914.29-.727.493-1.722.54-2.85h-2.98c.047 1.128.25 2.123.54 2.85.167.417.353.722.535.913.18.191.32.237.415.237ZM12.83 18.68A4.505 4.505 0 0 1 10.026 15h1.982c.047 1.234.268 2.36.612 3.221.064.16.134.314.208.459Z"/></svg>