<svg xmlns="http://www.w3.org/2000/svg" width="20" height="20" fill="currentColor"><path d="M1 3.75A2.75 2.75 0 0 1 3.75 1h8.5A2.75 2.75 0 0 1 15 3.75v4.607a2.593 2.593 0 0 0-.84-.311 2.944 2.944 0 0 0-.66-.043V3.75c0-.69-.56-1.25-1.25-1.25h-8.5c-.69 0-1.25.56-1.25 1.25v7.5c0 .69.56 1.25 1.25 1.25h5.349v.02c0 .744.544 1.363 1.256 1.48H3.75A2.75 2.75 0 0 1 1 11.25v-7.5Z"/><path d="M12.25 8.325a2.783 2.783 0 0 0-.997.869 3.311 3.311 0 0 0-.503 1.132V6.03a3.377 3.377 0 0 1-.568.198.75.75 0 1 1-.364-1.456 1.961 1.961 0 0 0 1.057-.687l.005-.007a.75.75 0 0 1 1.37.422v3.825ZM6 3.75A2.25 2.25 0 0 0 3.75 6v3a2.25 2.25 0 0 0 4.5 0V6A2.25 2.25 0 0 0 6 3.75ZM5.25 6a.75.75 0 0 1 1.5 0v3a.75.75 0 0 1-1.5 0V6ZM13.42 10.01c.17-.02.28-.02.36 0 .08.02.16.05.28.12.24.14.54.07.69-.17.14-.24.07-.54-.17-.69-.18-.11-.37-.2-.6-.24-.22-.04-.45-.04-.7 0-.53.08-.94.36-1.21.74-.26.37-.39.83-.42 1.28v.04c0 .041-.005.152-.013.318l-.008.164-.02.448H10.6c-.28 0-.5.22-.5.5s.22.5.5.5h.95a309.746 309.746 0 0 1-.198 3.259v.021c-.031.38-.061.71-.151 1-.09.27-.22.47-.45.6h-.01c-.26.17-.59.14-1.02-.08a.505.505 0 0 0-.67.22c-.12.25-.02.55.22.67.53.27 1.28.48 1.99.04.49-.29.75-.72.89-1.16.12-.367.154-.76.183-1.085v-.012l.007-.073v-.05c.03-.45.13-2.03.2-3.35h1.05c.28 0 .5-.22.5-.5s-.22-.5-.5-.5h-.99l.005-.1.017-.361.005-.103c.007-.162.013-.28.013-.336.03-.33.11-.59.24-.77.12-.17.29-.29.54-.33v-.01ZM18.84 14.85c.2-.2.2-.51 0-.71-.2-.2-.51-.2-.71 0l-1.54 1.54a87.367 87.367 0 0 1-.45-.78c-.06-.12-.15-.27-.26-.41-.11-.14-.27-.31-.48-.41-.005 0-.01-.003-.017-.007l-.004-.002-.019-.011a.942.942 0 0 0-.83.08c-.2.12-.34.29-.44.42-.17.22-.13.53.09.7.22.17.53.13.7-.09l.024-.03.014-.018c.023-.028.042-.052.062-.072l.04-.04.028.032a.8.8 0 0 0 .042.048c.06.08.12.18.17.28 0 .01.01.02.02.03.07.11.31.52.58 1l-1.73 1.73c-.2.2-.2.51 0 .71.2.2.51.2.71 0l1.54-1.54.168.291a53.96 53.96 0 0 0 .363.62l.006.012.033.057.03.05c.013.019.025.04.038.062l.014.023.008.013c.021.037.044.076.07.112.12.16.26.28.47.38.04.02.08.03.12.04.3.06.58.04.82-.13.16-.11.29-.28.35-.36 0-.005.005-.01.01-.015.005-.005.01-.01.01-.015.17-.22.13-.53-.09-.7a.496.496 0 0 0-.7.09c-.02.02-.04.05-.05.07v.02s-.05.04-.06.06l-.02.02s-.01 0-.01-.01l-.03-.03a.344.344 0 0 1-.042-.06l-.015-.024-.005-.008a2.045 2.045 0 0 0-.018-.028l-.02-.04-.03-.051a4.27 4.27 0 0 0-.09-.149c-.044-.07-.158-.266-.307-.523l-.07-.12a92.482 92.482 0 0 0-.213-.367l1.73-1.73-.01-.01Z"/></svg>