<svg xmlns="http://www.w3.org/2000/svg" width="20" height="20" fill="currentColor"><path fill-rule="evenodd" d="M13.89 4.947a3.49 3.49 0 0 0-.984-1.912c-1.076-1.075-2.667-1.309-3.928-.69-.25.13-.552.328-.768.526a9.133 9.133 0 0 0-2.234 2.505 4.376 4.376 0 0 0-1.525.538c-1.443.833-2.236 2.366-2.217 3.954a7.814 7.814 0 0 0 .32 2.56 7.797 7.797 0 0 0 12.451 3.767l.012-.01.01-.009a7.82 7.82 0 0 0 .581-.539 6.465 6.465 0 0 0 1.983-6.077 6.46 6.46 0 0 0-3.702-4.613Zm2.788 6.6c.035.034-.032-.035 0 0a5.468 5.468 0 0 0-8.513-5.208c.2.842.574 1.831 1.187 2.994a12.367 12.367 0 0 0 2.275 3.07c.283-.254.567-.528.85-.814 1.21-1.227 3.394-.972 4.201-.042Zm-7.395 2.327c-1.031.202-1.93.2-2.709.052a8.195 8.195 0 0 1 .446-8.328c.132 1.166.577 2.55 1.447 4.201a13.384 13.384 0 0 0 2.388 3.247c-.572.433-1.111.737-1.572.828Zm-4.706.386a6.797 6.797 0 0 0 6.807 2.593 6.762 6.762 0 0 0 2.982-1.427l.007-.006.006-.005.006-.005c.269-.225.519-.47.748-.732a5.766 5.766 0 0 0 1.125-2.054c-.555-.963-2.144-1.27-3.07-.333-.585.593-1.202 1.16-1.804 1.608-.581.432-1.242.825-1.908.956-2.01.395-3.64.1-4.899-.595Z" clip-rule="evenodd"/></svg>