<svg xmlns="http://www.w3.org/2000/svg" width="28" height="28" fill="currentColor"><path fill-rule="evenodd" d="M18.04 4.2a5.136 5.136 0 0 0-.449-.513c-1.933-1.932-5.022-1.975-6.9-.097-.24.24-.449.501-.626.776-.178.276-.229.85-.244 1.39-.045 1.542.518 3.736 2.304 6.853a20.632 20.632 0 0 0 2.86 3.87 25.853 25.853 0 0 0 1.78-1.658c2.61-2.645 7.213-2.151 9.134.847a10.323 10.323 0 0 0-.116-3.474A10.339 10.339 0 0 0 18.041 4.2Zm-4.263 13.182a22.154 22.154 0 0 1-2.954-4.027C9.51 11.063 8.774 9.153 8.476 7.548c-1.65 2.889-1.77 6.752.097 10.4 1.093.27 2.411.311 3.998 0 .282-.055.686-.232 1.206-.566ZM7.451 6.334a5.662 5.662 0 0 0-2.213 1.371c-2.272 2.273-2.218 6.01.12 8.348.356.356.744.659 1.155.908-1.357-3.759-.961-7.665.938-10.627Zm17.708 10.908a10.377 10.377 0 0 1-2.189 4.278c-.406.464-.848.898-1.324 1.297l-.034.027a11.912 11.912 0 0 1-5.25 2.515C9.888 26.68 3.569 22.503 2.248 16.03a11.928 11.928 0 0 1-.03-4.653c-.09 3.292 2.765 9.448 10.614 7.907 1.357-.266 3.162-1.745 4.9-3.506 2.264-2.294 6.4-1.471 7.427 1.465Z" clip-rule="evenodd"/></svg>