<svg xmlns="http://www.w3.org/2000/svg" width="20" height="20" fill="currentColor"><path fill="url(#icon-f2f38e891ccec897__icon-f700fccf6c2fa366__a)" d="M9.284 13.42c2.195-1.268 2.918-4.127 1.614-6.386C9.593 4.775 6.756 3.972 4.56 5.24c-2.196 1.267-2.919 4.126-1.614 6.385 1.304 2.259 4.14 3.063 6.337 1.795Z"/><path fill="url(#icon-69e58f2a04ee9075__icon-b9e05d0c54e80d57__b)" d="M12.15 7.087c1.14-1.14 1.112-3.015-.061-4.189-1.174-1.173-3.05-1.2-4.189-.059-1.14 1.14-1.113 3.016.06 4.189 1.174 1.173 3.05 1.2 4.19.06Z"/><path fill="url(#icon-15c48980733f4196__icon-a7489c6acf0fb464__c)" d="M10.92 17.693a6.874 6.874 0 1 0 0-13.748 6.874 6.874 0 0 0 0 13.748Z"/><path fill="url(#icon-5f81384f077d5bf8__icon-61216e633b427b11__d)" fill-rule="evenodd" d="M8.227 2.555a8.955 8.955 0 0 0-2.618 12.758l.18.028 3.988 1.331 3.789-2.538c-.634.02-3.273-1.478-4.998-4.75-2.16-4.101-1.27-5.996-.338-6.83h-.003Z" clip-rule="evenodd"/><path fill="url(#icon-3272be72fb652fcd__icon-009a9a5d7cf67ccf__e)" fill-opacity=".2" fill-rule="evenodd" d="M8.227 2.555a8.955 8.955 0 0 0-2.618 12.758l.18.028 3.988 1.331 3.789-2.538c-.634.02-3.273-1.478-4.998-4.75-2.16-4.101-1.27-5.996-.338-6.83h-.003Z" clip-rule="evenodd"/><path fill="url(#icon-e33af6c104e8bb73__icon-21e5a4bd2f0ba8de__f)" fill-rule="evenodd" d="M16.148 15.283a6.899 6.899 0 0 0 1.456-2.845c-.684-1.951-3.434-2.5-4.939-.974-1.155 1.172-2.356 2.155-3.259 2.331-5.22 1.025-7.436-3.304-7.06-5.258a7.92 7.92 0 0 0 .02 3.093 7.955 7.955 0 0 0 12.879 4.532l.022-.018c.316-.265.61-.553.88-.863v.002Z" clip-rule="evenodd"/><defs><radialGradient id="icon-15c48980733f4196__icon-a7489c6acf0fb464__c" cx="0" cy="0" r="1" gradientTransform="rotate(134.83 7.405 3.5) scale(10.3609 13.3663)" gradientUnits="userSpaceOnUse"><stop offset=".39" stop-color="#028FDC"/><stop offset=".59" stop-color="#0078D4"/><stop offset="1" stop-color="#1A508B"/></radialGradient><radialGradient id="icon-5f81384f077d5bf8__icon-61216e633b427b11__d" cx="0" cy="0" r="1" gradientTransform="rotate(139.44 5.179 5.833) scale(9.32369 11.5041)" gradientUnits="userSpaceOnUse"><stop offset=".46" stop-color="#40D9FA"/><stop offset=".9" stop-color="#0095E6"/></radialGradient><radialGradient id="icon-3272be72fb652fcd__icon-009a9a5d7cf67ccf__e" cx="0" cy="0" r="1" gradientTransform="matrix(-1.06162 9.83638 -6.9859 -.75398 7.762 4.906)" gradientUnits="userSpaceOnUse"><stop offset=".77" stop-opacity="0"/><stop offset="1"/></radialGradient><radialGradient id="icon-e33af6c104e8bb73__icon-21e5a4bd2f0ba8de__f" cx="0" cy="0" r="1" gradientTransform="matrix(1.082 15.35763 -28.00409 1.97297 12.477 12.213)" gradientUnits="userSpaceOnUse"><stop offset=".1" stop-color="#BDF5FF"/><stop offset=".47" stop-color="#40D9FA"/></radialGradient><linearGradient id="icon-f2f38e891ccec897__icon-f700fccf6c2fa366__a" x1="16.206" x2="2.176" y1="7.19" y2="10.425" gradientUnits="userSpaceOnUse"><stop offset=".2" stop-color="#028FDC"/><stop offset=".51" stop-color="#0078D4"/><stop offset="1" stop-color="#0B315B"/></linearGradient><linearGradient id="icon-69e58f2a04ee9075__icon-b9e05d0c54e80d57__b" x1="17.201" x2="7.932" y1="11.539" y2="3.044" gradientUnits="userSpaceOnUse"><stop offset=".04" stop-color="#028FDC"/><stop offset=".46" stop-color="#0078D4"/><stop offset="1" stop-color="#0B315B"/></linearGradient></defs></svg>