<svg xmlns="http://www.w3.org/2000/svg" width="24" height="24" fill="currentColor"><path fill-rule="evenodd" d="M9.824 7.714A6.576 6.576 0 0 1 20.16 13.75c-1.305-1.07-3.544-1.237-5.017.255-.353.358-.709.7-1.062 1.018a15.437 15.437 0 0 1-2.841-3.835 144.69 144.69 0 0 0-.365-.686c-.711-1.334-.915-1.717-1.05-2.79Zm8.503 12.02a9.738 9.738 0 0 0 .724-.672 8.072 8.072 0 0 0 2.478-7.589 8.065 8.065 0 0 0-4.622-5.76 4.357 4.357 0 0 0-1.228-2.385c-1.345-1.345-3.336-1.636-4.912-.857-.296.156-.673.4-.93.633a11.4 11.4 0 0 0-2.813 3.147 5.464 5.464 0 0 0-1.9.67c-1.79 1.034-2.78 2.932-2.769 4.901a9.755 9.755 0 0 0 .653 3.972c1.684 4.344 6.301 6.971 11.02 6.009a9.691 9.691 0 0 0 4.272-2.046l.014-.012.013-.011Zm-7.171-2.875c-1.153.226-2.173.249-3.071.117a9.976 9.976 0 0 1 .096-9.733c.248 1.34.8 2.877 1.732 4.646a16.97 16.97 0 0 0 3 4.088c-.638.46-1.238.78-1.757.882Zm6.193 1.738.007-.007.008-.006c.325-.272.628-.569.906-.886a6.95 6.95 0 0 0 1.32-2.364c-.656-.982-2.364-1.303-3.38-.274-.735.746-1.516 1.463-2.282 2.033-.734.545-1.596 1.064-2.483 1.238-2.04.4-3.784.245-5.23-.287a8.227 8.227 0 0 0 7.513 2.289 8.19 8.19 0 0 0 3.613-1.73l.008-.006Z" clip-rule="evenodd"/></svg>