<svg xmlns="http://www.w3.org/2000/svg" width="32" height="32" fill="currentColor"><path fill-rule="evenodd" d="M25.815 25.85c2.87-2.59 4.33-6.59 3.5-10.65-.76-3.71-3.26-6.63-6.47-8.07-.2-1.22-.77-2.39-1.72-3.34-1.88-1.88-4.67-2.28-6.88-1.19-.42.22-.94.56-1.3.89-.87.67-1.65 1.41-2.35 2.22-.59.69-1.12 1.42-1.58 2.18-.91.14-1.81.45-2.66.94a7.726 7.726 0 0 0-3.66 4.9c-.15.62-.23 1.25-.23 1.89-.06 1.12.03 2.26.26 3.41.14.66.32 1.31.54 1.93 2.26 6.25 8.83 10.07 15.54 8.7 2.28-.47 4.33-1.486 6-2.875-.003.002-.004.002 0 0 .003-.003-.003.002 0 0 .34-.29.7-.616 1.01-.936Zm1.54-10.26c.2.967.239 1.941.14 2.87-1.93-1.636-5.14-1.713-7.11.28-.624.63-.87.885-1.49 1.42-1.37-1.34-2.8-3.12-3.98-5.37-1.57-2.97-2.01-4.97-2.01-4.97a9.168 9.168 0 0 1 3.47-1.49c5.04-1.03 9.95 2.22 10.98 7.26Zm-10.01 5.85c-.076.057-.001-.002-.001-.002a23.596 23.596 0 0 1-4.19-5.708c-1.35-2.57-2.13-4.78-2.45-6.69a.268.268 0 0 0-.04.035c-.012.012-.024.025-.04.035a14.08 14.08 0 0 0-.24 13.77c1.29.2 2.76.18 4.42-.15.752-.146 1.62-.617 2.54-1.292v.002Zm1.07 6.26c-4.16.85-8.25-.64-10.92-3.56 2.09.87 4.65 1.16 7.69.56 1.22-.24 2.41-.95 3.44-1.72 1.07-.79 2.16-1.79 3.18-2.84 1.48-1.5 3.98-1.02 4.91.44a9.9 9.9 0 0 1-1.88 3.39c-.39.45-.82.86-1.27 1.25a11.685 11.685 0 0 1-5.14 2.47l-.01.01Z" clip-rule="evenodd"/></svg>