<svg width="28" height="28" fill="none" xmlns="http://www.w3.org/2000/svg"><g clip-path="url(#icon-f86aa95bf147a4c5__clip0_56017_2920)"><path d="M12.9252 19.1279C16.2182 17.2267 17.302 12.939 15.346 9.55105C13.39 6.16312 9.13481 4.95789 5.84181 6.8591C2.54881 8.76032 1.46498 13.048 3.421 16.436C5.37703 19.8239 9.63221 21.0291 12.9252 19.1279Z" fill="url(#icon-3e9605171516928e__paint0_linear_56017_2920)"/><path d="M17.2238 9.6302C18.9334 7.91995 18.8926 5.10724 17.1326 3.34785C15.3726 1.58845 12.5599 1.54861 10.8502 3.25886C9.14056 4.96912 9.18138 7.78183 10.9414 9.54122C12.7014 11.3006 15.5141 11.3405 17.2238 9.6302Z" fill="url(#icon-7e5defcd25902159__paint1_linear_56017_2920)"/><path d="M15.3788 25.5366C21.0727 25.5366 25.6884 20.9209 25.6884 15.227C25.6884 9.5332 21.0727 4.91744 15.3788 4.91744C9.68502 4.91744 5.06926 9.5332 5.06926 15.227C5.06926 20.9209 9.68502 25.5366 15.3788 25.5366Z" fill="url(#icon-56f843aa7cd7d846__paint2_radial_56017_2920)"/><path fill-rule="evenodd" clip-rule="evenodd" d="M11.3398 2.83172C5.28732 6.57043 3.17208 14.4448 6.65008 20.7432C6.88412 21.1698 7.1389 21.5786 7.41442 21.9667L7.68401 22.0082L13.6653 24.0049L19.3475 20.198C18.3965 20.2277 14.4386 17.9821 11.8523 13.0732C8.61128 6.92297 9.94738 4.0819 11.3457 2.83172H11.3398Z" fill="url(#icon-d1eae2c990b06fe4__paint3_radial_56017_2920)"/><path fill-rule="evenodd" clip-rule="evenodd" d="M11.3398 2.83172C5.28732 6.57043 3.17208 14.4448 6.65008 20.7432C6.88412 21.1698 7.1389 21.5786 7.41442 21.9667L7.68401 22.0082L13.6653 24.0049L19.3475 20.198C18.3965 20.2277 14.4386 17.9821 11.8523 13.0732C8.61128 6.92297 9.94738 4.0819 11.3457 2.83172H11.3398Z" fill="url(#icon-5ae508b88bc60806__paint4_radial_56017_2920)" fill-opacity="0.2"/><path fill-rule="evenodd" clip-rule="evenodd" d="M23.2205 21.922C24.2663 20.6985 25.0187 19.235 25.4039 17.656C24.3788 14.729 20.255 13.9054 17.9976 16.1954C16.2645 17.9522 14.4633 19.4276 13.1094 19.6912C5.27943 21.2288 1.9563 14.7349 2.52132 11.805C2.23395 13.2951 2.22803 14.8653 2.55094 16.4443C3.86927 22.9026 10.1706 27.0679 16.6289 25.7496C18.6256 25.3408 20.4031 24.4579 21.8666 23.2403C21.8666 23.2403 21.8903 23.2226 21.8992 23.2137C22.3732 22.8167 22.8146 22.3842 23.2205 21.919V21.922Z" fill="url(#icon-717d2e2084c185f1__paint5_radial_56017_2920)"/></g><defs><linearGradient id="icon-3e9605171516928e__paint0_linear_56017_2920" x1="23.3077" y1="9.78459" x2="2.26578" y2="14.6365" gradientUnits="userSpaceOnUse"><stop offset="0.2" stop-color="#028FDC"/><stop offset="0.51" stop-color="#0078D4"/><stop offset="1" stop-color="#0B315B"/></linearGradient><linearGradient id="icon-7e5defcd25902159__paint1_linear_56017_2920" x1="24.7998" y1="16.3072" x2="10.8984" y2="3.5668" gradientUnits="userSpaceOnUse"><stop offset="0.04" stop-color="#028FDC"/><stop offset="0.46" stop-color="#0078D4"/><stop offset="1" stop-color="#0B315B"/></linearGradient><radialGradient id="icon-56f843aa7cd7d846__paint2_radial_56017_2920" cx="0" cy="0" r="1" gradientUnits="userSpaceOnUse" gradientTransform="translate(21.66 0.0762116) rotate(134.83) scale(15.5392 20.0467)"><stop offset="0.39" stop-color="#028FDC"/><stop offset="0.59" stop-color="#0078D4"/><stop offset="1" stop-color="#1A508B"/></radialGradient><radialGradient id="icon-d1eae2c990b06fe4__paint3_radial_56017_2920" cx="0" cy="0" r="1" gradientUnits="userSpaceOnUse" gradientTransform="translate(18.3584 9.34376) rotate(139.44) scale(13.9836 17.2538)"><stop offset="0.46" stop-color="#40D9FA"/><stop offset="0.9" stop-color="#0095E6"/></radialGradient><radialGradient id="icon-5ae508b88bc60806__paint4_radial_56017_2920" cx="0" cy="0" r="1" gradientUnits="userSpaceOnUse" gradientTransform="translate(10.6433 6.3589) rotate(96.16) scale(14.8382 10.5383)"><stop offset="0.77" stop-opacity="0"/><stop offset="1"/></radialGradient><radialGradient id="icon-717d2e2084c185f1__paint5_radial_56017_2920" cx="0" cy="0" r="1" gradientUnits="userSpaceOnUse" gradientTransform="translate(17.7159 17.3174) rotate(85.97) scale(23.0904 42.1045)"><stop offset="0.1" stop-color="#BDF5FF"/><stop offset="0.47" stop-color="#40D9FA"/></radialGradient><clipPath id="icon-f86aa95bf147a4c5__clip0_56017_2920"><rect width="28" height="28" fill="white"/></clipPath></defs></svg>