<svg xmlns="http://www.w3.org/2000/svg" width="32" height="32" fill="currentColor"><path fill-rule="evenodd" d="M29.797 18.04c-2.23-3.482-7.575-4.055-10.607-.984-.703.713-1.4 1.368-2.065 1.924a23.965 23.965 0 0 1-3.323-4.494 31.513 31.513 0 0 1-1.074-2.034c-1.127-2.35-1.567-4.157-1.602-5.546-.02-.791.091-1.446.283-1.989.206-.32.45-.623.73-.903 2.18-2.182 5.767-2.131 8.011.112.19.19.364.39.523.597a12.006 12.006 0 0 1 8.99 9.283c.279 1.366.313 2.726.134 4.034Zm-17.73-2.56a25.983 25.983 0 0 0 3.431 4.689c-.497.299-.892.462-1.178.518-1.685.331-3.11.319-4.313.074-2.1-3.965-2.122-8.152-.545-11.4.422 1.746 1.257 3.767 2.605 6.12Zm14.33 9.355a12.05 12.05 0 0 0 2.542-4.968c-1.193-3.41-5.995-4.365-8.624-1.701-2.018 2.045-4.114 3.762-5.69 4.072-9.114 1.789-12.43-5.36-12.325-9.183a13.852 13.852 0 0 0 .033 5.403c1.534 7.518 8.872 12.369 16.39 10.835a13.83 13.83 0 0 0 6.098-2.92l.039-.033a13.9 13.9 0 0 0 1.538-1.505ZM7.287 19.544a7.122 7.122 0 0 1-.914-.66 7.37 7.37 0 0 1-.225-.226c-1.644-1.716-2.309-4.041-2.267-5.56h-.003a6.621 6.621 0 0 1 1.926-4.304A6.575 6.575 0 0 1 8.373 7.2c-2.205 3.44-2.663 7.977-1.087 12.343Z" clip-rule="evenodd"/></svg>