<svg xmlns="http://www.w3.org/2000/svg" width="24" height="24" fill="currentColor"><path fill="url(#icon-9cd84d41eff0f0d8__icon-1771f45b1409ff68__a)" d="M11.104 16.279c2.745-1.585 3.649-5.16 2.018-7.984-1.63-2.824-5.178-3.829-7.923-2.244s-3.649 5.16-2.018 7.984c1.63 2.824 5.178 3.829 7.923 2.244Z"/><path fill="url(#icon-647daa0747891c02__icon-87dc9edbe951854d__b)" d="M14.687 8.361c1.426-1.425 1.392-3.77-.076-5.237-1.467-1.467-3.812-1.5-5.237-.074-1.425 1.426-1.391 3.77.076 5.237s3.812 1.5 5.237.074Z"/><path fill="url(#icon-b30d0c8195d0ee6f__icon-7665f0b6fc921dff__c)" d="M13.15 21.62a8.594 8.594 0 1 0 0-17.188 8.594 8.594 0 0 0 0 17.188Z"/><path fill="url(#icon-2e0505f431c686d7__icon-26883d140dd9cc0a__d)" fill-rule="evenodd" d="M9.782 2.693c-5.045 3.117-6.808 9.681-3.91 14.932.196.356.408.696.638 1.02l.225.035 4.986 1.664 4.737-3.173c-.793.024-4.092-1.848-6.248-5.94-2.702-5.127-1.588-7.495-.423-8.538h-.005Z" clip-rule="evenodd"/><path fill="url(#icon-96685f62d5787425__icon-b963f65b87e7040e__e)" fill-opacity=".2" fill-rule="evenodd" d="M9.782 2.693c-5.045 3.117-6.808 9.681-3.91 14.932.196.356.408.696.638 1.02l.225.035 4.986 1.664 4.737-3.173c-.793.024-4.092-1.848-6.248-5.94-2.702-5.127-1.588-7.495-.423-8.538h-.005Z" clip-rule="evenodd"/><path fill="url(#icon-c24e1cee10de28f3__icon-ff6229491c4601a6__f)" fill-rule="evenodd" d="M19.686 18.608a8.626 8.626 0 0 0 1.82-3.557c-.854-2.44-4.292-3.126-6.174-1.217-1.444 1.464-2.946 2.694-4.075 2.914-6.527 1.282-9.297-4.132-8.826-6.574a9.903 9.903 0 0 0 .025 3.867c1.099 5.384 6.352 8.857 11.735 7.758a9.913 9.913 0 0 0 4.367-2.092s.02-.015.027-.023a9.883 9.883 0 0 0 1.101-1.079v.003Z" clip-rule="evenodd"/><defs><radialGradient id="icon-b30d0c8195d0ee6f__icon-7665f0b6fc921dff__c" cx="0" cy="0" r="1" gradientTransform="matrix(-9.13264 9.187 -11.8519 -11.78177 18.386 .396)" gradientUnits="userSpaceOnUse"><stop offset=".39" stop-color="#028FDC"/><stop offset=".59" stop-color="#0078D4"/><stop offset="1" stop-color="#1A508B"/></radialGradient><radialGradient id="icon-2e0505f431c686d7__icon-26883d140dd9cc0a__d" cx="0" cy="0" r="1" gradientTransform="matrix(-8.85627 7.58002 -9.35265 -10.92736 15.633 8.122)" gradientUnits="userSpaceOnUse"><stop offset=".46" stop-color="#40D9FA"/><stop offset=".9" stop-color="#0095E6"/></radialGradient><radialGradient id="icon-96685f62d5787425__icon-b963f65b87e7040e__e" cx="0" cy="0" r="1" gradientTransform="rotate(96.16 2.072 6.948) scale(12.3697 8.78506)" gradientUnits="userSpaceOnUse"><stop offset=".77" stop-opacity="0"/><stop offset="1"/></radialGradient><radialGradient id="icon-c24e1cee10de28f3__icon-ff6229491c4601a6__f" cx="0" cy="0" r="1" gradientTransform="matrix(1.35279 19.2013 -35.01301 2.46677 15.098 14.77)" gradientUnits="userSpaceOnUse"><stop offset=".1" stop-color="#BDF5FF"/><stop offset=".47" stop-color="#40D9FA"/></radialGradient><linearGradient id="icon-9cd84d41eff0f0d8__icon-1771f45b1409ff68__a" x1="19.759" x2="2.218" y1="8.49" y2="12.535" gradientUnits="userSpaceOnUse"><stop offset=".2" stop-color="#028FDC"/><stop offset=".51" stop-color="#0078D4"/><stop offset="1" stop-color="#0B315B"/></linearGradient><linearGradient id="icon-647daa0747891c02__icon-87dc9edbe951854d__b" x1="21.003" x2="9.414" y1="13.927" y2="3.307" gradientUnits="userSpaceOnUse"><stop offset=".04" stop-color="#028FDC"/><stop offset=".46" stop-color="#0078D4"/><stop offset="1" stop-color="#0B315B"/></linearGradient></defs></svg>