<svg xmlns="http://www.w3.org/2000/svg" width="16" height="16" fill="currentColor"><path fill-rule="evenodd" d="M8.9 2.131a2.315 2.315 0 0 0-.142-.156c-.871-.871-2.267-.888-3.117-.037a2.173 2.173 0 0 0-.502 2.257c.234.99.865 2.224 2.167 3.74a11.823 11.823 0 0 0 2.513 2.205c.317-.263.638-.55.956-.85 1.149-1.082 2.92-1.037 4.048-.169A6.249 6.249 0 0 0 8.9 2.131Zm-.33 8.753c-1.695.696-2.981.633-3.926.28A7.217 7.217 0 0 1 4.32 5.44c.4.982 1.079 2.062 2.101 3.253.74.862 1.532 1.559 2.304 2.11a1.124 1.124 0 0 1-.155.08H8.57Zm3.004-.746c.924-.871 2.427-.528 2.953.383a5.865 5.865 0 0 1-1.151 1.938l-.046.05c-.244.259-.507.499-.788.718l-.003.002-.024.018a6.913 6.913 0 0 1-3.098 1.347 6.937 6.937 0 0 1-6.508-2.447c1.233.593 2.778.842 4.643.546.725-.114 1.446-.511 2.07-.94.65-.448 1.319-1.018 1.952-1.615Zm-8.142 1.188a8.392 8.392 0 0 1-.143-6.45c-.05.027-.1.054-.15.083C1.486 5.913.9 8.102 1.921 9.873a3.72 3.72 0 0 0 1.511 1.453Z" clip-rule="evenodd"/></svg>