<svg xmlns="http://www.w3.org/2000/svg" width="20" height="20" fill="currentColor"><path d="M10.56 2.44A1.5 1.5 0 0 0 9.5 2h-4A1.5 1.5 0 0 0 4 3.5v8A1.5 1.5 0 0 0 5.5 13h4a1.5 1.5 0 0 0 1.5-1.5v-2a.5.5 0 0 0 .5.5h1a.5.5 0 0 0 0-1h-1a.5.5 0 0 0-.5.5v-6a1.5 1.5 0 0 0-.44-1.06Zm-.706.706A.5.5 0 0 1 10 3.5v8a.5.5 0 0 1-.5.5h-4a.5.5 0 0 1-.5-.5v-8a.5.5 0 0 1 .5-.5h4a.5.5 0 0 1 .354.146ZM15 3.25a.25.25 0 0 0-.25-.25h-.25a.5.5 0 0 1 0-1h.25A1.25 1.25 0 0 1 16 3.25v.25a.5.5 0 0 1-1 0v-.25ZM15.5 5a.5.5 0 0 1 .5.5v1a.5.5 0 0 1-1 0v-1a.5.5 0 0 1 .5-.5ZM15.854 8.146A.5.5 0 0 0 15 8.5v.25a.25.25 0 0 1-.25.25h-.25a.5.5 0 0 0 0 1h.25A1.25 1.25 0 0 0 16 8.75V8.5a.5.5 0 0 0-.146-.354ZM14.146 14.854l-.152-.153A3.5 3.5 0 0 1 7 14.5a.5.5 0 1 1 1 0 2.5 2.5 0 0 0 4.991.216l-.137.138a.5.5 0 0 1-.708-.708l1-1a.5.5 0 0 1 .708 0l1 1a.5.5 0 1 1-.708.708ZM12.854 2.854A.5.5 0 0 1 12.5 3h-1a.5.5 0 0 1 0-1h1a.5.5 0 0 1 .354.854Z"/></svg>