<svg xmlns="http://www.w3.org/2000/svg" width="24" height="24" fill="currentColor"><path fill="url(#icon-893470f8f529a245__icon-d555485d03236372__a)" d="M4 6a3 3 0 0 1 3-3h12a3 3 0 0 1 3 3v11.5a5.5 5.5 0 0 1-5.5 5.5H7a3 3 0 0 1-3-3V6Z"/><path fill="url(#icon-ff8ea1e1d83f091f__icon-904b5246489e5e1d__b)" fill-opacity=".2" d="M4 6a3 3 0 0 1 3-3h12a3 3 0 0 1 3 3v11.5a5.5 5.5 0 0 1-5.5 5.5H7a3 3 0 0 1-3-3V6Z"/><path fill="url(#icon-8587f832ba44d795__icon-22624a8973a650ac__c)" fill-rule="evenodd" d="M19 4H7a2 2 0 0 0-2 2v14a2 2 0 0 0 2 2h9.5a4.5 4.5 0 0 0 4.5-4.5V6a2 2 0 0 0-2-2ZM7 3a3 3 0 0 0-3 3v14a3 3 0 0 0 3 3h9.5a5.5 5.5 0 0 0 5.5-5.5V6a3 3 0 0 0-3-3H7Z" clip-rule="evenodd"/><path fill="url(#icon-52e4626682349c94__icon-271672491a95a15e__d)" d="M2 4a3 3 0 0 1 3-3h12a3 3 0 0 1 3 3v14a3 3 0 0 1-3 3H5a3 3 0 0 1-3-3V4Z"/><path fill="url(#icon-7041a716f724eded__icon-6220e5acf2ddf43f__e)" fill-opacity=".2" d="M2 4a3 3 0 0 1 3-3h12a3 3 0 0 1 3 3v14a3 3 0 0 1-3 3H5a3 3 0 0 1-3-3V4Z"/><path fill="url(#icon-0a482a27fe6c7221__icon-c57a20acc0ec4445__f)" fill-rule="evenodd" d="M17 2H5a2 2 0 0 0-2 2v14a2 2 0 0 0 2 2h12a2 2 0 0 0 2-2V4a2 2 0 0 0-2-2ZM5 1a3 3 0 0 0-3 3v14a3 3 0 0 0 3 3h12a3 3 0 0 0 3-3V4a3 3 0 0 0-3-3H5Z" clip-rule="evenodd"/><path fill="url(#icon-f65bae144ffd336f__icon-4a722f125cf64c6e__g)" d="M6 5a1 1 0 0 0-1 1v3a1 1 0 0 0 1 1h3a1 1 0 0 0 1-1V6a1 1 0 0 0-1-1H6Z"/><path fill="url(#icon-29d0d86461709b4d__icon-0df122ab91f07b8b__h)" d="M12 6.5a.5.5 0 0 1 .5-.5h4a.5.5 0 0 1 0 1h-4a.5.5 0 0 1-.5-.5Z"/><path fill="url(#icon-07b97091d2be6f92__icon-7daf352afcabd723__i)" d="M12 9.5a.5.5 0 0 1 .5-.5h4a.5.5 0 0 1 0 1h-4a.5.5 0 0 1-.5-.5Z"/><path fill="url(#icon-a1240d14b1c4cf5c__icon-721302b683101a2f__j)" d="M5.5 12a.5.5 0 0 0 0 1h11a.5.5 0 0 0 0-1h-11Z"/><path fill="url(#icon-975a2304fa2d42d7__icon-82472b676835d593__k)" d="M5 15.5a.5.5 0 0 1 .5-.5h11a.5.5 0 0 1 0 1h-11a.5.5 0 0 1-.5-.5Z"/><defs><linearGradient id="icon-893470f8f529a245__icon-d555485d03236372__a" x1="9" x2="11.801" y1="3" y2="23.166" gradientUnits="userSpaceOnUse"><stop stop-color="#fff"/><stop offset="1" stop-color="#EBEBEB"/></linearGradient><linearGradient id="icon-8587f832ba44d795__icon-22624a8973a650ac__c" x1="9.813" x2="12.792" y1="3" y2="23.114" gradientUnits="userSpaceOnUse"><stop stop-color="#BBB"/><stop offset="1" stop-color="#888"/></linearGradient><linearGradient id="icon-52e4626682349c94__icon-271672491a95a15e__d" x1="7" x2="9.801" y1="1" y2="21.166" gradientUnits="userSpaceOnUse"><stop stop-color="#fff"/><stop offset="1" stop-color="#EBEBEB"/></linearGradient><linearGradient id="icon-0a482a27fe6c7221__icon-c57a20acc0ec4445__f" x1="7.813" x2="10.792" y1="1" y2="21.114" gradientUnits="userSpaceOnUse"><stop stop-color="#BBB"/><stop offset="1" stop-color="#888"/></linearGradient><linearGradient id="icon-f65bae144ffd336f__icon-4a722f125cf64c6e__g" x1="5" x2="15.959" y1="5" y2="16.955" gradientUnits="userSpaceOnUse"><stop stop-color="#C28400"/><stop offset="1" stop-color="#A86500"/></linearGradient><linearGradient id="icon-29d0d86461709b4d__icon-0df122ab91f07b8b__h" x1="5" x2="15.959" y1="5" y2="16.955" gradientUnits="userSpaceOnUse"><stop stop-color="#C28400"/><stop offset="1" stop-color="#A86500"/></linearGradient><linearGradient id="icon-07b97091d2be6f92__icon-7daf352afcabd723__i" x1="5" x2="15.959" y1="5" y2="16.955" gradientUnits="userSpaceOnUse"><stop stop-color="#C28400"/><stop offset="1" stop-color="#A86500"/></linearGradient><linearGradient id="icon-a1240d14b1c4cf5c__icon-721302b683101a2f__j" x1="5" x2="15.959" y1="5" y2="16.955" gradientUnits="userSpaceOnUse"><stop stop-color="#C28400"/><stop offset="1" stop-color="#A86500"/></linearGradient><linearGradient id="icon-975a2304fa2d42d7__icon-82472b676835d593__k" x1="5" x2="15.959" y1="5" y2="16.955" gradientUnits="userSpaceOnUse"><stop stop-color="#C28400"/><stop offset="1" stop-color="#A86500"/></linearGradient><radialGradient id="icon-ff8ea1e1d83f091f__icon-904b5246489e5e1d__b" cx="0" cy="0" r="1" gradientTransform="matrix(9.50002 15.83334 -13.09743 7.85847 9.75 8.208)" gradientUnits="userSpaceOnUse"><stop offset=".177" stop-color="#fff"/><stop offset="1" stop-color="#B8B8B8"/></radialGradient><radialGradient id="icon-7041a716f724eded__icon-6220e5acf2ddf43f__e" cx="0" cy="0" r="1" gradientTransform="matrix(9.50002 15.83334 -13.09743 7.85847 7.75 6.208)" gradientUnits="userSpaceOnUse"><stop offset=".177" stop-color="#fff"/><stop offset="1" stop-color="#B8B8B8"/></radialGradient></defs></svg>