<svg xmlns="http://www.w3.org/2000/svg" width="48" height="48" fill="currentColor"><path fill="url(#icon-fbf557ab71fe9e66__icon-02860c3b22212821__a)" d="M10 11a5 5 0 0 1 5-5h21a5 5 0 0 1 5 5v26a8 8 0 0 1-8 8H15a5 5 0 0 1-5-5V11Z"/><path fill="url(#icon-85378ac60c5be485__icon-0ffd5d8fd4602abe__b)" fill-opacity=".2" d="M10 11a5 5 0 0 1 5-5h21a5 5 0 0 1 5 5v26a8 8 0 0 1-8 8H15a5 5 0 0 1-5-5V11Z"/><path fill="url(#icon-0cb0d128ea72d2eb__icon-6b7c8f283a7e086c__c)" fill-rule="evenodd" d="M36 7H15a4 4 0 0 0-4 4v29a4 4 0 0 0 4 4h18a7 7 0 0 0 7-7V11a4 4 0 0 0-4-4ZM15 6a5 5 0 0 0-5 5v29a5 5 0 0 0 5 5h18a8 8 0 0 0 8-8V11a5 5 0 0 0-5-5H15Z" clip-rule="evenodd"/><path fill="url(#icon-38a548c5a14ec868__icon-2f2d099c1134bc6c__d)" d="M7 8a5 5 0 0 1 5-5h21a5 5 0 0 1 5 5v29a5 5 0 0 1-5 5H12a5 5 0 0 1-5-5V8Z"/><path fill="url(#icon-848c667d9bfac841__icon-02735d334d845b93__e)" fill-opacity=".2" d="M7 8a5 5 0 0 1 5-5h21a5 5 0 0 1 5 5v29a5 5 0 0 1-5 5H12a5 5 0 0 1-5-5V8Z"/><path fill="url(#icon-a9fe54ec534bf02c__icon-6aeff7735b98692d__f)" fill-rule="evenodd" d="M33 4H12a4 4 0 0 0-4 4v29a4 4 0 0 0 4 4h21a4 4 0 0 0 4-4V8a4 4 0 0 0-4-4ZM12 3a5 5 0 0 0-5 5v29a5 5 0 0 0 5 5h21a5 5 0 0 0 5-5V8a5 5 0 0 0-5-5H12Z" clip-rule="evenodd"/><path fill="url(#icon-fe8c0442865cdedd__icon-dd8b8ac2bf69689e__g)" d="M13.5 11a1.5 1.5 0 0 0-1.5 1.5v6a1.5 1.5 0 0 0 1.5 1.5h6a1.5 1.5 0 0 0 1.5-1.5v-6a1.5 1.5 0 0 0-1.5-1.5h-6Z"/><path fill="url(#icon-4ec5007624e465af__icon-ae3baaef1c9c49d4__h)" d="M24.502 13a.5.5 0 1 0 0 1h8a.5.5 0 0 0 0-1h-8Z"/><path fill="url(#icon-4119bd358f0fabab__icon-6da87d2edb1bbd60__i)" d="M24.502 18a.5.5 0 1 0 0 1h8a.5.5 0 0 0 0-1h-8Z"/><path fill="url(#icon-924d02b5492e3c10__icon-4d5ff516c8c144d9__j)" d="M12 23.5a.5.5 0 0 1 .5-.5h20a.5.5 0 0 1 0 1h-20a.5.5 0 0 1-.5-.5Z"/><path fill="url(#icon-f9a496e8dcb20a81__icon-142e670ee0eac3bf__k)" d="M12.5 28a.5.5 0 0 0 0 1h20a.5.5 0 0 0 0-1h-20Z"/><path fill="url(#icon-51c1a4714310474d__icon-890da9ef46f1a255__l)" d="M12 33.5a.5.5 0 0 1 .5-.5h20a.5.5 0 0 1 0 1h-20a.5.5 0 0 1-.5-.5Z"/><defs><linearGradient id="icon-fbf557ab71fe9e66__icon-02860c3b22212821__a" x1="18.611" x2="24.762" y1="6" y2="45.116" gradientUnits="userSpaceOnUse"><stop stop-color="#fff"/><stop offset="1" stop-color="#EBEBEB"/></linearGradient><linearGradient id="icon-0cb0d128ea72d2eb__icon-6b7c8f283a7e086c__c" x1="20.01" x2="26.55" y1="6" y2="44.986" gradientUnits="userSpaceOnUse"><stop stop-color="#BBB"/><stop offset="1" stop-color="#888"/></linearGradient><linearGradient id="icon-38a548c5a14ec868__icon-2f2d099c1134bc6c__d" x1="15.611" x2="21.762" y1="3" y2="42.116" gradientUnits="userSpaceOnUse"><stop stop-color="#fff"/><stop offset="1" stop-color="#EBEBEB"/></linearGradient><linearGradient id="icon-a9fe54ec534bf02c__icon-6aeff7735b98692d__f" x1="17.01" x2="23.55" y1="3" y2="41.986" gradientUnits="userSpaceOnUse"><stop stop-color="#BBB"/><stop offset="1" stop-color="#888"/></linearGradient><linearGradient id="icon-fe8c0442865cdedd__icon-dd8b8ac2bf69689e__g" x1="12" x2="34.905" y1="11" y2="31.916" gradientUnits="userSpaceOnUse"><stop stop-color="#C28400"/><stop offset="1" stop-color="#A86500"/></linearGradient><linearGradient id="icon-4ec5007624e465af__icon-ae3baaef1c9c49d4__h" x1="12" x2="34.905" y1="11" y2="31.916" gradientUnits="userSpaceOnUse"><stop stop-color="#C28400"/><stop offset="1" stop-color="#A86500"/></linearGradient><linearGradient id="icon-4119bd358f0fabab__icon-6da87d2edb1bbd60__i" x1="12" x2="34.905" y1="11" y2="31.916" gradientUnits="userSpaceOnUse"><stop stop-color="#C28400"/><stop offset="1" stop-color="#A86500"/></linearGradient><linearGradient id="icon-924d02b5492e3c10__icon-4d5ff516c8c144d9__j" x1="12" x2="34.905" y1="11" y2="31.916" gradientUnits="userSpaceOnUse"><stop stop-color="#C28400"/><stop offset="1" stop-color="#A86500"/></linearGradient><linearGradient id="icon-f9a496e8dcb20a81__icon-142e670ee0eac3bf__k" x1="12" x2="34.905" y1="11" y2="31.916" gradientUnits="userSpaceOnUse"><stop stop-color="#C28400"/><stop offset="1" stop-color="#A86500"/></linearGradient><linearGradient id="icon-51c1a4714310474d__icon-890da9ef46f1a255__l" x1="12" x2="34.905" y1="11" y2="31.916" gradientUnits="userSpaceOnUse"><stop stop-color="#C28400"/><stop offset="1" stop-color="#A86500"/></linearGradient><radialGradient id="icon-85378ac60c5be485__icon-0ffd5d8fd4602abe__b" cx="0" cy="0" r="1" gradientTransform="rotate(62.08 -3.472 24.614) scale(34.9421 27.1064)" gradientUnits="userSpaceOnUse"><stop offset=".177" stop-color="#fff"/><stop offset="1" stop-color="#B8B8B8"/></radialGradient><radialGradient id="icon-848c667d9bfac841__icon-02735d334d845b93__e" cx="0" cy="0" r="1" gradientTransform="rotate(62.08 -2.48 20.621) scale(34.9421 27.1064)" gradientUnits="userSpaceOnUse"><stop offset=".177" stop-color="#fff"/><stop offset="1" stop-color="#B8B8B8"/></radialGradient></defs></svg>