<svg xmlns="http://www.w3.org/2000/svg" width="40" height="40" fill="currentColor"><path fill="url(#icon-86adab16e45e0ce2__icon-5bfc00154d797d2d__a)" d="M8 9a4 4 0 0 1 4-4h19a4 4 0 0 1 4 4v22a7 7 0 0 1-7 7H12a4 4 0 0 1-4-4V9Z"/><path fill="url(#icon-9fab3847567f7585__icon-8f3f335eb32c84bf__b)" fill-opacity=".2" d="M8 9a4 4 0 0 1 4-4h19a4 4 0 0 1 4 4v22a7 7 0 0 1-7 7H12a4 4 0 0 1-4-4V9Z"/><path fill="url(#icon-fa3e530359847b90__icon-4a57fb58d7bb76d2__c)" fill-rule="evenodd" d="M31 6H12a3 3 0 0 0-3 3v25a3 3 0 0 0 3 3h16a6 6 0 0 0 6-6V9a3 3 0 0 0-3-3ZM12 5a4 4 0 0 0-4 4v25a4 4 0 0 0 4 4h16a7 7 0 0 0 7-7V9a4 4 0 0 0-4-4H12Z" clip-rule="evenodd"/><path fill="url(#icon-4ca12d179179a645__icon-5613336de0777608__d)" d="M5 6a4 4 0 0 1 4-4h19a4 4 0 0 1 4 4v25a4 4 0 0 1-4 4H9a4 4 0 0 1-4-4V6Z"/><path fill="url(#icon-7f40c7cb5e636e31__icon-b8fc14e2b705ac6f__e)" fill-opacity=".2" d="M5 6a4 4 0 0 1 4-4h19a4 4 0 0 1 4 4v25a4 4 0 0 1-4 4H9a4 4 0 0 1-4-4V6Z"/><path fill="url(#icon-ae9ec4960e77f9ea__icon-7afc9b67849a3a54__f)" fill-rule="evenodd" d="M28 3H9a3 3 0 0 0-3 3v25a3 3 0 0 0 3 3h19a3 3 0 0 0 3-3V6a3 3 0 0 0-3-3ZM9 2a4 4 0 0 0-4 4v25a4 4 0 0 0 4 4h19a4 4 0 0 0 4-4V6a4 4 0 0 0-4-4H9Z" clip-rule="evenodd"/><path fill="url(#icon-1b8716d081ef42e3__icon-ecd5c2a7c3c861d7__g)" d="M11.5 9a1.5 1.5 0 0 0-1.5 1.5v4a1.5 1.5 0 0 0 1.5 1.5h4a1.5 1.5 0 0 0 1.5-1.5v-4A1.5 1.5 0 0 0 15.5 9h-4Z"/><path fill="url(#icon-0fa5111f13766ce4__icon-1f1ebe08a33c3842__h)" d="M19.5 11a.5.5 0 0 0 0 1h7a.5.5 0 0 0 0-1h-7Z"/><path fill="url(#icon-4d66002b3b0e82cd__icon-971979b9ea144dcb__i)" d="M19.5 15a.5.5 0 0 0 0 1h7a.5.5 0 0 0 0-1h-7Z"/><path fill="url(#icon-0443f4288089ed8e__icon-958a7b010485c39f__j)" d="M10 19.5a.5.5 0 0 1 .5-.5h16a.5.5 0 0 1 0 1h-16a.5.5 0 0 1-.5-.5Z"/><path fill="url(#icon-8ba5aaad23793011__icon-f683c5f15f2bb905__k)" d="M10.5 23a.5.5 0 0 0 0 1h16a.5.5 0 0 0 0-1h-16Z"/><path fill="url(#icon-ea47ab28438cf24f__icon-b59eab2186143ee3__l)" d="M10 27.5a.5.5 0 0 1 .5-.5h16a.5.5 0 0 1 0 1h-16a.5.5 0 0 1-.5-.5Z"/><defs><linearGradient id="icon-86adab16e45e0ce2__icon-5bfc00154d797d2d__a" x1="15.5" x2="20.564" y1="5" y2="38.143" gradientUnits="userSpaceOnUse"><stop stop-color="#fff"/><stop offset="1" stop-color="#EBEBEB"/></linearGradient><linearGradient id="icon-fa3e530359847b90__icon-4a57fb58d7bb76d2__c" x1="16.719" x2="22.103" y1="5" y2="38.039" gradientUnits="userSpaceOnUse"><stop stop-color="#BBB"/><stop offset="1" stop-color="#888"/></linearGradient><linearGradient id="icon-4ca12d179179a645__icon-5613336de0777608__d" x1="12.5" x2="17.564" y1="2" y2="35.143" gradientUnits="userSpaceOnUse"><stop stop-color="#fff"/><stop offset="1" stop-color="#EBEBEB"/></linearGradient><linearGradient id="icon-ae9ec4960e77f9ea__icon-7afc9b67849a3a54__f" x1="13.719" x2="19.103" y1="2" y2="35.039" gradientUnits="userSpaceOnUse"><stop stop-color="#BBB"/><stop offset="1" stop-color="#888"/></linearGradient><linearGradient id="icon-1b8716d081ef42e3__icon-ecd5c2a7c3c861d7__g" x1="10" x2="28.883" y1="9" y2="25.895" gradientUnits="userSpaceOnUse"><stop stop-color="#C28400"/><stop offset="1" stop-color="#A86500"/></linearGradient><linearGradient id="icon-0fa5111f13766ce4__icon-1f1ebe08a33c3842__h" x1="10" x2="28.883" y1="9" y2="25.895" gradientUnits="userSpaceOnUse"><stop stop-color="#C28400"/><stop offset="1" stop-color="#A86500"/></linearGradient><linearGradient id="icon-4d66002b3b0e82cd__icon-971979b9ea144dcb__i" x1="10" x2="28.883" y1="9" y2="25.895" gradientUnits="userSpaceOnUse"><stop stop-color="#C28400"/><stop offset="1" stop-color="#A86500"/></linearGradient><linearGradient id="icon-0443f4288089ed8e__icon-958a7b010485c39f__j" x1="10" x2="28.883" y1="9" y2="25.895" gradientUnits="userSpaceOnUse"><stop stop-color="#C28400"/><stop offset="1" stop-color="#A86500"/></linearGradient><linearGradient id="icon-8ba5aaad23793011__icon-f683c5f15f2bb905__k" x1="10" x2="28.883" y1="9" y2="25.895" gradientUnits="userSpaceOnUse"><stop stop-color="#C28400"/><stop offset="1" stop-color="#A86500"/></linearGradient><linearGradient id="icon-ea47ab28438cf24f__icon-b59eab2186143ee3__l" x1="10" x2="28.883" y1="9" y2="25.895" gradientUnits="userSpaceOnUse"><stop stop-color="#C28400"/><stop offset="1" stop-color="#A86500"/></linearGradient><radialGradient id="icon-9fab3847567f7585__icon-8f3f335eb32c84bf__b" cx="0" cy="0" r="1" gradientTransform="rotate(61.389 -3.137 20.8) scale(29.7587 23.4563)" gradientUnits="userSpaceOnUse"><stop offset=".177" stop-color="#fff"/><stop offset="1" stop-color="#B8B8B8"/></radialGradient><radialGradient id="icon-7f40c7cb5e636e31__icon-b8fc14e2b705ac6f__e" cx="0" cy="0" r="1" gradientTransform="rotate(61.389 -2.11 16.773) scale(29.7587 23.4563)" gradientUnits="userSpaceOnUse"><stop offset=".177" stop-color="#fff"/><stop offset="1" stop-color="#B8B8B8"/></radialGradient></defs></svg>