<svg xmlns="http://www.w3.org/2000/svg" width="32" height="32" fill="currentColor"><path fill="url(#icon-61aa2cbe73c1ef9c__icon-54ae8138cc098f06__a)" d="M27 7.5A3.5 3.5 0 0 0 23.5 4h-13A3.5 3.5 0 0 0 7 7.5v19a3.5 3.5 0 0 0 3.5 3.5H22a5 5 0 0 0 5-5V7.5Z"/><path fill="url(#icon-6191b47284f89bb9__icon-683f92fd9be6bf60__b)" d="M26 7.5A2.5 2.5 0 0 0 23.5 5h-13A2.5 2.5 0 0 0 8 7.5v19a2.5 2.5 0 0 0 2.5 2.5h11.25A4.25 4.25 0 0 0 26 24.75V7.5Z"/><path fill="url(#icon-92a295e81e5acde4__icon-fea4fa7a159eb3b8__c)" fill-opacity=".2" d="M26 7.5A2.5 2.5 0 0 0 23.5 5h-13A2.5 2.5 0 0 0 8 7.5v19a2.5 2.5 0 0 0 2.5 2.5h11.25A4.25 4.25 0 0 0 26 24.75V7.5Z"/><path fill="url(#icon-2dbe8c4a264d6c27__icon-e87282493ce69976__d)" d="M8.5 2h13A3.5 3.5 0 0 1 25 5.5v19a3.5 3.5 0 0 1-3.5 3.5h-13A3.5 3.5 0 0 1 5 24.5v-19A3.5 3.5 0 0 1 8.5 2Z"/><path fill="url(#icon-4246d5eea5a56b54__icon-a1ae8b4e2c453a2c__e)" d="M8.5 3h13A2.5 2.5 0 0 1 24 5.5v19a2.5 2.5 0 0 1-2.5 2.5h-13A2.5 2.5 0 0 1 6 24.5v-19A2.5 2.5 0 0 1 8.5 3Z"/><path fill="url(#icon-a9d8b5d5f67a930a__icon-cb636f42735b36c3__f)" fill-opacity=".2" d="M8.5 3h13A2.5 2.5 0 0 1 24 5.5v19a2.5 2.5 0 0 1-2.5 2.5h-13A2.5 2.5 0 0 1 6 24.5v-19A2.5 2.5 0 0 1 8.5 3Z"/><path fill="url(#icon-844fbc16b5bb3978__icon-12b6d8ad06804ff2__g)" d="M10 8a1 1 0 0 0-1 1v3a1 1 0 0 0 1 1h3a1 1 0 0 0 1-1V9a1 1 0 0 0-1-1h-3Z"/><path fill="url(#icon-5b05bd8a9bdcbfca__icon-40c351052f8e64c9__h)" d="M16.5 9a.5.5 0 0 0 0 1h4a.5.5 0 0 0 0-1h-4Z"/><path fill="url(#icon-781db3747ded75af__icon-cb725b15790a0c8b__i)" d="M16.5 12a.5.5 0 0 0 0 1h4a.5.5 0 0 0 0-1h-4Z"/><path fill="url(#icon-6dc6b75e146b3af8__icon-2d7e4bbc02a2a2e3__j)" d="M9 15.5a.5.5 0 0 1 .5-.5h11a.5.5 0 0 1 0 1h-11a.5.5 0 0 1-.5-.5Z"/><path fill="url(#icon-07905c80c0f3d4a9__icon-346c3b621bdd006b__k)" d="M9.5 18a.5.5 0 0 0 0 1h11a.5.5 0 0 0 0-1h-11Z"/><path fill="url(#icon-2b446712e868ec54__icon-1aa1084490f1813c__l)" d="M9 21.5a.5.5 0 0 1 .5-.5h11a.5.5 0 0 1 0 1h-11a.5.5 0 0 1-.5-.5Z"/><defs><linearGradient id="icon-61aa2cbe73c1ef9c__icon-54ae8138cc098f06__a" x1="20.542" x2="16.045" y1="4" y2="29.943" gradientUnits="userSpaceOnUse"><stop stop-color="#BBB"/><stop offset="1" stop-color="#888"/></linearGradient><linearGradient id="icon-6191b47284f89bb9__icon-683f92fd9be6bf60__b" x1="21" x2="17" y1="5" y2="29" gradientUnits="userSpaceOnUse"><stop stop-color="#fff"/><stop offset="1" stop-color="#EBEBEB"/></linearGradient><linearGradient id="icon-2dbe8c4a264d6c27__icon-e87282493ce69976__d" x1="18.542" x2="14.045" y1="2" y2="27.943" gradientUnits="userSpaceOnUse"><stop stop-color="#BBB"/><stop offset="1" stop-color="#888"/></linearGradient><linearGradient id="icon-4246d5eea5a56b54__icon-a1ae8b4e2c453a2c__e" x1="19" x2="15" y1="3" y2="27" gradientUnits="userSpaceOnUse"><stop stop-color="#fff"/><stop offset="1" stop-color="#EBEBEB"/></linearGradient><linearGradient id="icon-844fbc16b5bb3978__icon-12b6d8ad06804ff2__g" x1="9" x2="22.835" y1="8" y2="19.859" gradientUnits="userSpaceOnUse"><stop stop-color="#C28400"/><stop offset="1" stop-color="#A86500"/></linearGradient><linearGradient id="icon-5b05bd8a9bdcbfca__icon-40c351052f8e64c9__h" x1="9" x2="22.835" y1="8" y2="19.859" gradientUnits="userSpaceOnUse"><stop stop-color="#C28400"/><stop offset="1" stop-color="#A86500"/></linearGradient><linearGradient id="icon-781db3747ded75af__icon-cb725b15790a0c8b__i" x1="9" x2="22.835" y1="8" y2="19.859" gradientUnits="userSpaceOnUse"><stop stop-color="#C28400"/><stop offset="1" stop-color="#A86500"/></linearGradient><linearGradient id="icon-6dc6b75e146b3af8__icon-2d7e4bbc02a2a2e3__j" x1="9" x2="22.835" y1="8" y2="19.859" gradientUnits="userSpaceOnUse"><stop stop-color="#C28400"/><stop offset="1" stop-color="#A86500"/></linearGradient><linearGradient id="icon-07905c80c0f3d4a9__icon-346c3b621bdd006b__k" x1="9" x2="22.835" y1="8" y2="19.859" gradientUnits="userSpaceOnUse"><stop stop-color="#C28400"/><stop offset="1" stop-color="#A86500"/></linearGradient><linearGradient id="icon-2b446712e868ec54__icon-1aa1084490f1813c__l" x1="9" x2="22.835" y1="8" y2="19.859" gradientUnits="userSpaceOnUse"><stop stop-color="#C28400"/><stop offset="1" stop-color="#A86500"/></linearGradient><radialGradient id="icon-92a295e81e5acde4__icon-fea4fa7a159eb3b8__c" cx="0" cy="0" r="1" gradientTransform="rotate(116.565 6.649 11.883) scale(21.2426 15.932)" gradientUnits="userSpaceOnUse"><stop offset=".177" stop-color="#fff"/><stop offset="1" stop-color="#B8B8B8"/></radialGradient><radialGradient id="icon-a9d8b5d5f67a930a__icon-cb636f42735b36c3__f" cx="0" cy="0" r="1" gradientTransform="rotate(116.565 6.267 10.265) scale(21.2426 15.932)" gradientUnits="userSpaceOnUse"><stop offset=".177" stop-color="#fff"/><stop offset="1" stop-color="#B8B8B8"/></radialGradient></defs></svg>