<svg xmlns="http://www.w3.org/2000/svg" width="20" height="20" fill="currentColor"><path fill="url(#icon-093a82420e440e76__icon-ce0d11b3b8013aa8__a)" d="M4 5.5A2.5 2.5 0 0 1 6.5 3h9A2.5 2.5 0 0 1 18 5.5v9a4.5 4.5 0 0 1-4.5 4.5h-7A2.5 2.5 0 0 1 4 16.5v-11Z"/><path fill="url(#icon-50d7ff5b9082eb66__icon-cf6f50e86c71dc48__b)" fill-opacity=".2" d="M4 5.5A2.5 2.5 0 0 1 6.5 3h9A2.5 2.5 0 0 1 18 5.5v9a4.5 4.5 0 0 1-4.5 4.5h-7A2.5 2.5 0 0 1 4 16.5v-11Z"/><path fill="url(#icon-e29437174d2ce87a__icon-e583dbe00af39b8f__c)" fill-rule="evenodd" d="M15.5 4h-9A1.5 1.5 0 0 0 5 5.5v11A1.5 1.5 0 0 0 6.5 18h7a3.5 3.5 0 0 0 3.5-3.5v-9A1.5 1.5 0 0 0 15.5 4Zm-9-1A2.5 2.5 0 0 0 4 5.5v11A2.5 2.5 0 0 0 6.5 19h7a4.5 4.5 0 0 0 4.5-4.5v-9A2.5 2.5 0 0 0 15.5 3h-9Z" clip-rule="evenodd"/><path fill="url(#icon-4a55361e57263c9d__icon-6e73b00705d7ad18__d)" d="M2 3.5A2.5 2.5 0 0 1 4.5 1h9A2.5 2.5 0 0 1 16 3.5v11a2.5 2.5 0 0 1-2.5 2.5h-9A2.5 2.5 0 0 1 2 14.5v-11Z"/><path fill="url(#icon-1844191f0660e59a__icon-d282341ab54d773b__e)" fill-opacity=".2" d="M2 3.5A2.5 2.5 0 0 1 4.5 1h9A2.5 2.5 0 0 1 16 3.5v11a2.5 2.5 0 0 1-2.5 2.5h-9A2.5 2.5 0 0 1 2 14.5v-11Z"/><path fill="url(#icon-dcf94b9e871ac594__icon-7140453df3e1826b__f)" fill-rule="evenodd" d="M13.5 2h-9A1.5 1.5 0 0 0 3 3.5v11A1.5 1.5 0 0 0 4.5 16h9a1.5 1.5 0 0 0 1.5-1.5v-11A1.5 1.5 0 0 0 13.5 2Zm-9-1A2.5 2.5 0 0 0 2 3.5v11A2.5 2.5 0 0 0 4.5 17h9a2.5 2.5 0 0 0 2.5-2.5v-11A2.5 2.5 0 0 0 13.5 1h-9Z" clip-rule="evenodd"/><path fill="url(#icon-f009c64fe9e328b3__icon-6899c0414e68e01a__g)" d="M9 4.5a.5.5 0 0 1 .5-.5h4a.5.5 0 0 1 0 1h-4a.5.5 0 0 1-.5-.5Z"/><path fill="url(#icon-23a346ba5611c196__icon-5857ae6f2d76d9db__h)" d="M9 7.5a.5.5 0 0 1 .5-.5h4a.5.5 0 0 1 0 1h-4a.5.5 0 0 1-.5-.5Z"/><path fill="url(#icon-4dfa0e1a12416cb7__icon-2034d24b046d451c__i)" d="M4.5 10a.5.5 0 0 0 0 1h9a.5.5 0 0 0 0-1h-9Z"/><path fill="url(#icon-141f12c312598445__icon-b287063d8f324f94__j)" d="M4 13.5a.5.5 0 0 1 .5-.5h9a.5.5 0 0 1 0 1h-9a.5.5 0 0 1-.5-.5Z"/><path fill="url(#icon-eb6b0f99d2bea899__icon-784ac4da12d8c21b__k)" d="M5 4a1 1 0 0 0-1 1v2a1 1 0 0 0 1 1h2a1 1 0 0 0 1-1V5a1 1 0 0 0-1-1H5Z"/><defs><linearGradient id="icon-093a82420e440e76__icon-ce0d11b3b8013aa8__a" x1="7.889" x2="10.191" y1="3" y2="19.116" gradientUnits="userSpaceOnUse"><stop stop-color="#fff"/><stop offset="1" stop-color="#EBEBEB"/></linearGradient><linearGradient id="icon-e29437174d2ce87a__icon-e583dbe00af39b8f__c" x1="8.521" x2="10.97" y1="3" y2="19.071" gradientUnits="userSpaceOnUse"><stop stop-color="#BBB"/><stop offset="1" stop-color="#888"/></linearGradient><linearGradient id="icon-4a55361e57263c9d__icon-6e73b00705d7ad18__d" x1="5.889" x2="8.191" y1="1" y2="17.116" gradientUnits="userSpaceOnUse"><stop stop-color="#fff"/><stop offset="1" stop-color="#EBEBEB"/></linearGradient><linearGradient id="icon-dcf94b9e871ac594__icon-7140453df3e1826b__f" x1="6.521" x2="8.97" y1="1" y2="17.071" gradientUnits="userSpaceOnUse"><stop stop-color="#BBB"/><stop offset="1" stop-color="#888"/></linearGradient><linearGradient id="icon-f009c64fe9e328b3__icon-6899c0414e68e01a__g" x1="4" x2="14" y1="4" y2="14" gradientUnits="userSpaceOnUse"><stop stop-color="#C28400"/><stop offset="1" stop-color="#A86500"/></linearGradient><linearGradient id="icon-23a346ba5611c196__icon-5857ae6f2d76d9db__h" x1="4" x2="14" y1="4" y2="14" gradientUnits="userSpaceOnUse"><stop stop-color="#C28400"/><stop offset="1" stop-color="#A86500"/></linearGradient><linearGradient id="icon-4dfa0e1a12416cb7__icon-2034d24b046d451c__i" x1="4" x2="14" y1="4" y2="14" gradientUnits="userSpaceOnUse"><stop stop-color="#C28400"/><stop offset="1" stop-color="#A86500"/></linearGradient><linearGradient id="icon-141f12c312598445__icon-b287063d8f324f94__j" x1="4" x2="14" y1="4" y2="14" gradientUnits="userSpaceOnUse"><stop stop-color="#C28400"/><stop offset="1" stop-color="#A86500"/></linearGradient><linearGradient id="icon-eb6b0f99d2bea899__icon-784ac4da12d8c21b__k" x1="4" x2="14" y1="4" y2="14" gradientUnits="userSpaceOnUse"><stop stop-color="#C28400"/><stop offset="1" stop-color="#A86500"/></linearGradient><radialGradient id="icon-50d7ff5b9082eb66__icon-cf6f50e86c71dc48__b" cx="0" cy="0" r="1" gradientTransform="rotate(59.744 -2.003 10.959) scale(14.6642 11.9669)" gradientUnits="userSpaceOnUse"><stop offset=".177" stop-color="#fff"/><stop offset="1" stop-color="#B8B8B8"/></radialGradient><radialGradient id="icon-1844191f0660e59a__icon-d282341ab54d773b__e" cx="0" cy="0" r="1" gradientTransform="rotate(59.744 -1.262 8.218) scale(14.6642 11.9669)" gradientUnits="userSpaceOnUse"><stop offset=".177" stop-color="#fff"/><stop offset="1" stop-color="#B8B8B8"/></radialGradient></defs></svg>