<svg xmlns="http://www.w3.org/2000/svg" width="16" height="16" fill="currentColor"><path d="M2 2.75C2 1.784 2.784 1 3.75 1h8.5c.966 0 1.75.784 1.75 1.75v1.5A1.75 1.75 0 0 1 12.25 6h-8.5A1.75 1.75 0 0 1 2 4.25v-1.5ZM3.75 2a.75.75 0 0 0-.75.75v1.5c0 .414.336.75.75.75h8.5a.75.75 0 0 0 .75-.75v-1.5a.75.75 0 0 0-.75-.75h-8.5ZM3.75 9a.75.75 0 0 0-.75.75v.75a.5.5 0 0 1-1 0v-.75C2 8.784 2.784 8 3.75 8h.75a.5.5 0 0 1 0 1h-.75ZM13 13.25a.75.75 0 0 1-.75.75h-.75a.5.5 0 0 0 0 1h.75A1.75 1.75 0 0 0 14 13.25v-.75a.5.5 0 0 0-1 0v.75ZM12.25 9a.75.75 0 0 1 .75.75v.75a.5.5 0 0 0 1 0v-.75A1.75 1.75 0 0 0 12.25 8h-.75a.5.5 0 0 0 0 1h.75ZM3 13.25c0 .414.336.75.75.75h.75a.5.5 0 0 1 0 1h-.75A1.75 1.75 0 0 1 2 13.25v-.75a.5.5 0 0 1 1 0v.75ZM9 9H7a.5.5 0 0 1 0-1h2a.5.5 0 0 1 0 1ZM7 15h2a.5.5 0 0 0 0-1H7a.5.5 0 0 0 0 1Z"/></svg>