<svg xmlns="http://www.w3.org/2000/svg" width="20" height="20" fill="currentColor"><path d="M10 2a4 4 0 1 0 0 8 4 4 0 0 0 0-8ZM7 6a3 3 0 1 1 6 0 3 3 0 0 1-6 0ZM5.009 11A2.001 2.001 0 0 0 3 13c0 1.691.833 2.966 2.135 3.797 1.05.669 2.398 1.049 3.87 1.165.005-.285.073-.577.213-.858l.063-.125c-1.435-.088-2.688-.439-3.608-1.026C4.623 15.283 4 14.31 4 13c0-.553.448-1 1.009-1h6.759l.5-1h-7.26ZM13.603 10.554l-3.496 6.998A1 1 0 0 0 11.002 19h6.996a1 1 0 0 0 .895-1.448l-3.5-6.999a1 1 0 0 0-1.79 0Zm1.395 1.941v3.002a.5.5 0 1 1-1 0v-3.002a.5.5 0 1 1 1 0Zm-.5 5.504a.5.5 0 1 1 0-1 .5.5 0 0 1 0 1Z"/></svg>