<svg xmlns="http://www.w3.org/2000/svg" width="20" height="20" fill="currentColor"><path d="M2.977 8.922a.896.896 0 0 1-.375-.078 1.24 1.24 0 0 1-.313-.203.783.783 0 0 1-.21-.305A1.166 1.166 0 0 1 2 7.953v-.07a.49.49 0 0 1 .008-.078A7.03 7.03 0 0 1 5.71 2.703a6.839 6.839 0 0 1 2.094-.695.362.362 0 0 1 .07-.008h.078a.93.93 0 0 1 .375.078c.12.052.221.123.305.211.083.089.153.193.21.313.058.12.084.244.079.375v4.945a.97.97 0 0 1-.29.703 1.09 1.09 0 0 1-.32.219.847.847 0 0 1-.39.078H2.977Zm2.43 5.969a.98.98 0 0 1 .313-.726l4.202-3.962V4.906a.97.97 0 0 1 .289-.703.887.887 0 0 1 .32-.203c.125-.047.255-.073.39-.078.642 0 1.259.083 1.852.25a7.19 7.19 0 0 1 1.672.703c.521.302.995.67 1.422 1.102a7.058 7.058 0 0 1 1.805 3.086c.172.604.255 1.223.25 1.859a6.85 6.85 0 0 1-.25 1.86 7.194 7.194 0 0 1-.703 1.671c-.302.521-.667.992-1.094 1.414a7.381 7.381 0 0 1-1.414 1.094 6.821 6.821 0 0 1-1.672.71 7.186 7.186 0 0 1-3.367.094 6.514 6.514 0 0 1-1.43-.484 6.863 6.863 0 0 1-.633-.336 8.462 8.462 0 0 1-.64-.422 7.652 7.652 0 0 1-.602-.484 3.245 3.245 0 0 1-.484-.531 1.354 1.354 0 0 1-.172-.29.865.865 0 0 1-.055-.327Zm-1.509-.649a.908.908 0 0 1-.789-.422 6.17 6.17 0 0 1-.375-.625 7.715 7.715 0 0 1-.359-.78 6.704 6.704 0 0 1-.266-.813A3.245 3.245 0 0 1 2 10.89a.93.93 0 0 1 .078-.375.912.912 0 0 1 .211-.305c.089-.083.19-.154.305-.211a.778.778 0 0 1 .383-.078H6.21c.14 0 .27.026.39.078.12.052.227.122.32.21a.923.923 0 0 1 .22.321c.052.125.078.258.078.399 0 .27-.1.505-.297.703l-2.32 2.32a.957.957 0 0 1-.704.29Z"/></svg>