<svg xmlns="http://www.w3.org/2000/svg" width="40" height="40" fill="currentColor"><path fill="url(#icon-db7ea9edc4cedfd9__icon-9c1b026f069a7677__a)" d="M4 8a4 4 0 0 1 4-4h24a4 4 0 0 1 4 4v24a4 4 0 0 1-4 4H8a4 4 0 0 1-4-4V8Z"/><path fill="url(#icon-4f15c27127f4f938__icon-6efd986f2e64e83e__b)" fill-opacity=".2" d="M4 8a4 4 0 0 1 4-4h24a4 4 0 0 1 4 4v24a4 4 0 0 1-4 4H8a4 4 0 0 1-4-4V8Z"/><path fill="url(#icon-6338afda34f0ce80__icon-206473977244c007__c)" fill-rule="evenodd" d="M32 5H8a3 3 0 0 0-3 3v24a3 3 0 0 0 3 3h24a3 3 0 0 0 3-3V8a3 3 0 0 0-3-3ZM8 4a4 4 0 0 0-4 4v24a4 4 0 0 0 4 4h24a4 4 0 0 0 4-4V8a4 4 0 0 0-4-4H8Z" clip-rule="evenodd"/><path fill="url(#icon-393920880864b75d__icon-1aeb3318b278a3bb__d)" fill-rule="evenodd" d="M12.5 13a1.5 1.5 0 0 0-1.5 1.5v11a1.5 1.5 0 0 0 3 0V24h12v1.5a1.5 1.5 0 0 0 3 0v-11a1.5 1.5 0 0 0-3 0V16H14v-1.5a1.5 1.5 0 0 0-1.5-1.5Zm.5 12.5v-11a.5.5 0 0 0-1 0v11a.5.5 0 0 0 1 0Zm15-11v11a.5.5 0 0 1-1 0v-11a.5.5 0 0 1 1 0Z" clip-rule="evenodd"/><defs><linearGradient id="icon-db7ea9edc4cedfd9__icon-9c1b026f069a7677__a" x1="12.889" x2="16.937" y1="4" y2="36.383" gradientUnits="userSpaceOnUse"><stop stop-color="#fff"/><stop offset="1" stop-color="#EBEBEB"/></linearGradient><linearGradient id="icon-6338afda34f0ce80__icon-206473977244c007__c" x1="14.333" x2="18.642" y1="4" y2="36.314" gradientUnits="userSpaceOnUse"><stop stop-color="#BBB"/><stop offset="1" stop-color="#888"/></linearGradient><linearGradient id="icon-393920880864b75d__icon-1aeb3318b278a3bb__d" x1="11" x2="24.569" y1="13" y2="30.446" gradientUnits="userSpaceOnUse"><stop stop-color="#4BA446"/><stop offset="1" stop-color="#3F7D35"/></linearGradient><radialGradient id="icon-4f15c27127f4f938__icon-6efd986f2e64e83e__b" cx="0" cy="0" r="1" gradientTransform="rotate(56.31 -4.411 19.454) scale(30.4469 26.3483)" gradientUnits="userSpaceOnUse"><stop offset=".177" stop-color="#fff"/><stop offset="1" stop-color="#B8B8B8"/></radialGradient></defs></svg>