<svg xmlns="http://www.w3.org/2000/svg" width="16" height="16" fill="currentColor"><path fill-rule="evenodd" d="M12.5 15a1.5 1.5 0 0 0 1.5-1.5v-11A1.5 1.5 0 0 0 12.5 1h-3A1.5 1.5 0 0 0 8 2.5V4H6.5A1.5 1.5 0 0 0 5 5.5V7H3.5A1.5 1.5 0 0 0 2 8.5v5A1.5 1.5 0 0 0 3.5 15h9Zm0-13a.5.5 0 0 1 .5.5v11a.5.5 0 0 1-.5.5H11V5.5A1.5 1.5 0 0 0 9.5 4H9V2.5a.5.5 0 0 1 .5-.5h3ZM8 14h2V5.5a.5.5 0 0 0-.5-.5h-3a.5.5 0 0 0-.5.5V7h.5A1.5 1.5 0 0 1 8 8.5V14ZM3 8.5a.5.5 0 0 1 .5-.5h3a.5.5 0 0 1 .5.5V14H3.5a.5.5 0 0 1-.5-.5v-5Z" clip-rule="evenodd"/></svg>