<svg xmlns="http://www.w3.org/2000/svg" width="20" height="20" fill="currentColor"><path fill="url(#icon-e4b3761aae9c82d6__icon-6257e6a9e8fc572a__a)" d="M11.667 2a.667.667 0 0 0-.667.667V18h5.333a.667.667 0 0 0 .667-.667V2.667A.667.667 0 0 0 16.333 2h-4.666Z"/><path fill="#000" fill-opacity=".5" d="M7.667 6A.667.667 0 0 0 7 6.667V10h-.5v8h1V7h4.833c.092 0 .167.075.167.167V18h1V7.167C13.5 6.522 12.978 6 12.333 6H7.667Z" opacity=".25"/><path fill="url(#icon-b676cd44c880c8e5__icon-9f061dec05348b98__b)" d="M7.667 6A.667.667 0 0 0 7 6.667V18h6V6.667A.667.667 0 0 0 12.333 6H7.667Z"/><path fill="url(#icon-f7e43a874f90bf08__icon-46c7a0b031e7f87b__c)" d="M3.667 10a.667.667 0 0 0-.667.667v6.666c0 .369.298.667.667.667H9v-7.333A.667.667 0 0 0 8.333 10H3.667Z"/><defs><linearGradient id="icon-e4b3761aae9c82d6__icon-6257e6a9e8fc572a__a" x1="10" x2="16.5" y1="2" y2="17.5" gradientUnits="userSpaceOnUse"><stop stop-color="#E6AD10"/><stop offset="1" stop-color="#C87E0E"/></linearGradient><linearGradient id="icon-b676cd44c880c8e5__icon-9f061dec05348b98__b" x1="7" x2="12.499" y1="6" y2="18" gradientUnits="userSpaceOnUse"><stop stop-color="#F6D751"/><stop offset="1" stop-color="#E6AD10"/></linearGradient><linearGradient id="icon-f7e43a874f90bf08__icon-46c7a0b031e7f87b__c" x1="3" x2="6" y1="10" y2="18" gradientUnits="userSpaceOnUse"><stop stop-color="#F9E589"/><stop offset="1" stop-color="#F6D751"/></linearGradient></defs></svg>