<svg xmlns="http://www.w3.org/2000/svg" width="32" height="32" fill="currentColor"><path fill-rule="evenodd" d="M27.43 26.812a3.177 3.177 0 0 1-3.178 3.177H7.741a3.17 3.17 0 0 1-3.17-3.17v-9.661a3.17 3.17 0 0 1 3.17-3.17h1.973v-2.831a3.17 3.17 0 0 1 3.17-3.17h1.973V5.163a3.177 3.177 0 0 1 3.177-3.177h6.218a3.177 3.177 0 0 1 3.177 3.177v21.649ZM16.856 9.987h-3.973a1.17 1.17 0 0 0-1.17 1.17v2.83h2.262a3.167 3.167 0 0 1 3.167 3.167V27.99h3.143V11.154c0-.645-.523-1.167-1.167-1.167h-2.262Zm5.429 18.002V11.154a3.167 3.167 0 0 0-3.167-3.167h-2.262V5.163c0-.65.527-1.177 1.177-1.177h6.218c.65 0 1.177.527 1.177 1.177v21.649c0 .65-.527 1.177-1.177 1.177h-1.966Zm-12.572 0H15.143V17.154c0-.644-.523-1.166-1.167-1.166H7.741a1.17 1.17 0 0 0-1.17 1.17v9.66c0 .647.523 1.17 1.17 1.17h1.973Z" clip-rule="evenodd"/></svg>