<svg xmlns="http://www.w3.org/2000/svg" width="24" height="24" fill="currentColor"><path fill-rule="evenodd" d="M17.75 22a2.75 2.75 0 0 0 2.75-2.75V4.75A2.75 2.75 0 0 0 17.75 2h-4A2.75 2.75 0 0 0 11 4.75V7H9.75A2.75 2.75 0 0 0 7 9.75V12H5.75A2.75 2.75 0 0 0 3 14.75v4.5A2.75 2.75 0 0 0 5.75 22h12Zm0-18.5c.69 0 1.25.56 1.25 1.25v14.5c0 .69-.56 1.25-1.25 1.25H16.5V9.75A2.75 2.75 0 0 0 13.75 7H12.5V4.75c0-.69.56-1.25 1.25-1.25h4Zm-5.25 17H15V9.75c0-.69-.56-1.25-1.25-1.25h-4c-.69 0-1.25.56-1.25 1.25V12h1.25a2.75 2.75 0 0 1 2.75 2.75v5.75Zm-8-5.75c0-.69.56-1.25 1.25-1.25h4c.69 0 1.25.56 1.25 1.25v5.75H5.75c-.69 0-1.25-.56-1.25-1.25v-4.5Z" clip-rule="evenodd"/></svg>