<svg xmlns="http://www.w3.org/2000/svg" width="28" height="28" fill="currentColor"><path fill="url(#icon-7788e15846996524__icon-06875a8bdf7a40dd__a)" d="M16 2a1 1 0 0 0-1 1v23h7a1 1 0 0 0 1-1V3a1 1 0 0 0-1-1h-6Z"/><path fill="#000" fill-opacity=".5" d="M11 8a1 1 0 0 0-1 1v5h-.5v12h1V9H17a.5.5 0 0 1 .5.5V26h1V9.5A1.5 1.5 0 0 0 17 8h-6Z" opacity=".25"/><path fill="url(#icon-41159416979fd33b__icon-7ea52e2902d1222c__b)" d="M11 8a1 1 0 0 0-1 1v17h8V9a1 1 0 0 0-1-1h-6Z"/><path fill="url(#icon-06980622b25a5355__icon-9acdbf1e8b02547a__c)" d="M6 14a1 1 0 0 0-1 1v10a1 1 0 0 0 1 1h7V15a1 1 0 0 0-1-1H6Z"/><defs><linearGradient id="icon-7788e15846996524__icon-06875a8bdf7a40dd__a" x1="13.667" x2="24.216" y1="2" y2="24.362" gradientUnits="userSpaceOnUse"><stop stop-color="#E6AD10"/><stop offset="1" stop-color="#C87E0E"/></linearGradient><linearGradient id="icon-41159416979fd33b__icon-7ea52e2902d1222c__b" x1="9.999" x2="18.872" y1="8" y2="25.207" gradientUnits="userSpaceOnUse"><stop stop-color="#F6D751"/><stop offset="1" stop-color="#E6AD10"/></linearGradient><linearGradient id="icon-06980622b25a5355__icon-9acdbf1e8b02547a__c" x1="4.999" x2="9.902" y1="14" y2="25.619" gradientUnits="userSpaceOnUse"><stop stop-color="#F9E589"/><stop offset="1" stop-color="#F6D751"/></linearGradient></defs></svg>