<svg xmlns="http://www.w3.org/2000/svg" width="24" height="24" fill="currentColor"><path fill="url(#icon-949a9466d2c100d7__icon-a97513c1105861a1__a)" d="M12.833 2a.833.833 0 0 0-.833.833V22h6.167c.46 0 .833-.373.833-.833V2.833A.833.833 0 0 0 18.167 2h-5.334Z"/><path fill="#000" fill-opacity=".5" d="M8.833 7A.833.833 0 0 0 8 7.833V12h-.5v10h1V8h5.667c.184 0 .333.15.333.333V22h1V8.333C15.5 7.597 14.903 7 14.167 7H8.833Z" opacity=".25"/><path fill="url(#icon-4acc46e6d4d86b71__icon-52ea4660d25337d5__b)" d="M8.833 7A.833.833 0 0 0 8 7.833V22h7V7.833A.833.833 0 0 0 14.167 7H8.833Z"/><path fill="url(#icon-05139e365c870e7e__icon-f580387c1cafef2a__c)" d="M4.833 12a.833.833 0 0 0-.833.833v8.334c0 .46.373.833.833.833H11v-9.167a.833.833 0 0 0-.833-.833H4.833Z"/><defs><linearGradient id="icon-949a9466d2c100d7__icon-a97513c1105861a1__a" x1="10.833" x2="19.35" y1="2" y2="20.956" gradientUnits="userSpaceOnUse"><stop stop-color="#E6AD10"/><stop offset="1" stop-color="#C87E0E"/></linearGradient><linearGradient id="icon-4acc46e6d4d86b71__icon-52ea4660d25337d5__b" x1="7.999" x2="15.181" y1="7" y2="21.624" gradientUnits="userSpaceOnUse"><stop stop-color="#F6D751"/><stop offset="1" stop-color="#E6AD10"/></linearGradient><linearGradient id="icon-05139e365c870e7e__icon-f580387c1cafef2a__c" x1="3.999" x2="7.946" y1="12" y2="21.821" gradientUnits="userSpaceOnUse"><stop stop-color="#F9E589"/><stop offset="1" stop-color="#F6D751"/></linearGradient></defs></svg>