<svg xmlns="http://www.w3.org/2000/svg" width="28" height="28" fill="currentColor"><path fill-rule="evenodd" d="M14.688 4.65c0-.635.514-1.15 1.15-1.15h4.7c.634 0 1.15.515 1.15 1.15v19.661a.187.187 0 0 1-.188.188h-3V10.625a3 3 0 0 0-3-3h-.813V4.65Zm-.5 21.348H6.5a1.687 1.687 0 0 1-1.687-1.687V16.25a3 3 0 0 1 3-3h.798v-2.625a3 3 0 0 1 3-3h1.576V5a3 3 0 0 1 3-3h4a3 3 0 0 1 3 3v19.311c0 .932-.755 1.688-1.687 1.688h-7.313ZM10.11 13.25h.701a3 3 0 0 1 3 3v8.25H17V10.274a1.15 1.15 0 0 0-1.15-1.15h-4.59a1.15 1.15 0 0 0-1.15 1.15v2.974ZM6.313 15.9c0-.635.515-1.15 1.15-1.15h3.7c.635 0 1.15.515 1.15 1.15v8.6H6.5a.188.188 0 0 1-.187-.188V15.9Z" clip-rule="evenodd"/></svg>