<svg xmlns="http://www.w3.org/2000/svg" width="32" height="32" fill="currentColor"><path fill-rule="evenodd" d="m27.04 28.823-.004-25.645c0-.65-.527-1.177-1.177-1.177h-7.828c-.65 0-1.177.527-1.177 1.177v4.823h2.266a3.167 3.167 0 0 1 3.167 3.167V30h3.576c.65 0 1.177-.527 1.177-1.177ZM20.287 30V11.168c0-.645-.522-1.167-1.167-1.167h-6.235a1.17 1.17 0 0 0-1.17 1.17V14h1.262a3.167 3.167 0 0 1 3.167 3.167v12.835h4.143V30Zm-8.572 0v.003h2.429V17.168c0-.644-.523-1.166-1.167-1.166H6.741a1.17 1.17 0 0 0-1.17 1.17V28.83c0 .647.524 1.17 1.17 1.17h4.973Z" clip-rule="evenodd"/></svg>