<svg xmlns="http://www.w3.org/2000/svg" width="12" height="12" fill="currentColor"><path d="M4.382 8.407a.5.5 0 0 1-.323-.119A3.019 3.019 0 0 1 3.3 7.3a.5.5 0 0 1 .9-.436c.123.252.296.476.51.658a.5.5 0 0 1-.325.881l-.002.004ZM3.682 5.557a.5.5 0 0 1-.458-.688c.158-.39.397-.74.7-1.03a.5.5 0 0 1 .693.721 1.956 1.956 0 0 0-.467.686.5.5 0 0 1-.468.311ZM5.646 8.854A.5.5 0 0 0 6 9a3 3 0 1 0 0-6 .5.5 0 1 0 0 1 2 2 0 1 1 0 4 .5.5 0 0 0-.354.854Z"/><path d="M6 1a5 5 0 1 0 0 10A5 5 0 0 0 6 1Zm0 1a4 4 0 1 1 0 8 4 4 0 0 1 0-8Z"/></svg>