<svg xmlns="http://www.w3.org/2000/svg" width="20" height="20" fill="currentColor"><path d="M7.757 13.188a.5.5 0 0 1-.32-.117A4.007 4.007 0 0 1 6.185 11.2a.5.5 0 0 1 .954-.3 3 3 0 0 0 .94 1.407.5.5 0 0 1-.322.884v-.003ZM6.65 9.487a.5.5 0 0 1-.479-.644l.047-.143a3.994 3.994 0 0 1 1.188-1.744.5.5 0 1 1 .648.76 3 3 0 0 0-.89 1.308l-.035.108a.5.5 0 0 1-.478.355ZM9.646 13.854A.5.5 0 0 0 10 14a4 4 0 1 0 0-8 .5.5 0 1 0 0 1 3 3 0 0 1 0 6 .5.5 0 0 0-.354.854Z"/><path d="M18 10a8 8 0 1 0-16 0 8 8 0 0 0 16 0Zm-1 0a7 7 0 1 1-14 0 7 7 0 0 1 14 0Z"/></svg>