<svg xmlns="http://www.w3.org/2000/svg" width="24" height="24" fill="currentColor"><path d="M20.999 5.25A2.25 2.25 0 0 0 18.749 3H5.25A2.25 2.25 0 0 0 3 5.25v13.502a2.25 2.25 0 0 0 2.25 2.25h7.922A3.738 3.738 0 0 1 13 19.875v-.103c0-.091.004-.181.013-.27H5.25a.75.75 0 0 1-.75-.75V5.25a.75.75 0 0 1 .75-.75h13.499a.75.75 0 0 1 .75.75v5.895c.576.17 1.09.486 1.5.904v-6.8ZM20.999 16.95a3.82 3.82 0 0 1-.05.05H21v-.05Z"/><path d="M15.25 11.5h1.446a3.499 3.499 0 0 0-1.695 2.923l-.83 1.658a.75.75 0 0 1-1.319.043l-.048-.1-2.337-5.835-1.035 2.362a.75.75 0 0 1-.577.44l-.11.009H6.75a.75.75 0 0 1-.102-1.493l.102-.007h1.505l1.557-3.551a.75.75 0 0 1 1.333-.08l.05.102 2.381 5.947 1.003-2.004a.75.75 0 0 1 .566-.407l.105-.007ZM21 14.5a2.5 2.5 0 1 1-5 0 2.5 2.5 0 0 1 5 0ZM23 19.875C23 21.431 21.714 23 18.5 23S14 21.437 14 19.875v-.103c0-.98.794-1.772 1.773-1.772h5.454c.98 0 1.773.793 1.773 1.772v.103Z"/></svg>