<svg xmlns="http://www.w3.org/2000/svg" width="20" height="20" fill="currentColor"><path d="M5 16h6.05c-.033.162-.05.329-.05.5 0 .167.013.334.038.5H5a2 2 0 0 1-2-2V5a2 2 0 0 1 2-2h10a2 2 0 0 1 2 2v4.401a2.98 2.98 0 0 0-1-.36V5a1 1 0 0 0-1-1H5a1 1 0 0 0-1 1v10a1 1 0 0 0 1 1Z"/><path d="M8.97 6.332a.5.5 0 0 0-.938-.008L6.654 10H5.5a.5.5 0 0 0 0 1H7a.5.5 0 0 0 .468-.324l1.02-2.721 2.041 5.713a.5.5 0 0 0 .918.056l1.086-2.173a2.99 2.99 0 0 1 .73-1.551H12.5a.5.5 0 0 0-.447.276l-.976 1.952L8.97 6.332ZM17.5 12a2 2 0 1 1-4 0 2 2 0 0 1 4 0ZM19 16.5c0 1.245-1 2.5-3.5 2.5S12 17.75 12 16.5a1.5 1.5 0 0 1 1.5-1.5h4a1.5 1.5 0 0 1 1.5 1.5Z"/></svg>