<svg xmlns="http://www.w3.org/2000/svg" width="20" height="20" fill="currentColor"><path fill-rule="evenodd" d="m10.52 3.004-.71 4.653a2.333 2.333 0 0 1-2.238 1.671H4.44l6.08-6.324ZM2.472 9.933a1.834 1.834 0 0 0 1.362 3.06l5.226.002-.556 3.738a1 1 0 0 0 1.7.944l7.441-8.446c.22-.238.354-.561.356-.908 0 0-.001-.059-.003-.088A1.328 1.328 0 0 0 16.667 7h-5.745l.57-3.737a1 1 0 0 0-1.7-.944l-7.32 7.614Zm7.6 3.062-.603 4.002 3.013-3.421a1.33 1.33 0 0 0-1.102-.583l-1.309.002Zm1.308-1.002H3.833a.835.835 0 0 1-.052-1.665h3.79c1.491 0 2.756-.979 3.18-2.33L16.669 8c.183 0 .331.148.331.331v.046a.336.336 0 0 1-.09.176l-3.755 4.259a2.328 2.328 0 0 0-1.775-.819Z" clip-rule="evenodd"/></svg>