<svg xmlns="http://www.w3.org/2000/svg" width="40" height="40" fill="currentColor"><path fill="url(#icon-cabaa3da5850a40d__icon-ff1032c2eacd84d8__a)" d="M4 8a4 4 0 0 1 4-4h24a4 4 0 0 1 4 4v24a4 4 0 0 1-4 4H8a4 4 0 0 1-4-4V8Z"/><path fill="url(#icon-ddf445bcaf1ee56d__icon-fd772e71e17eff78__b)" fill-opacity=".2" d="M4 8a4 4 0 0 1 4-4h24a4 4 0 0 1 4 4v24a4 4 0 0 1-4 4H8a4 4 0 0 1-4-4V8Z"/><path fill="url(#icon-8ac19ec48e29aa35__icon-8d044e9d4233d11b__c)" fill-rule="evenodd" d="M32 5H8a3 3 0 0 0-3 3v24a3 3 0 0 0 3 3h24a3 3 0 0 0 3-3V8a3 3 0 0 0-3-3ZM8 4a4 4 0 0 0-4 4v24a4 4 0 0 0 4 4h24a4 4 0 0 0 4-4V8a4 4 0 0 0-4-4H8Z" clip-rule="evenodd"/><path fill="url(#icon-aa8cb64c2cd819ca__icon-251394d77e6eaca8__d)" d="M20 30c5.523 0 10-4.477 10-10s-4.477-10-10-10-10 4.477-10 10 4.477 10 10 10Z"/><path fill="#F5BCD8" fill-rule="evenodd" d="M20 14a6 6 0 0 0-4.89 9.477.5.5 0 1 1-.815.58 7 7 0 0 1 8.427-10.508.5.5 0 0 1-.39.921A5.98 5.98 0 0 0 20 14Z" clip-rule="evenodd"/><path fill="#F5BCD8" d="M25.268 14.775a.66.66 0 0 0-.84-.015l-.233.186a416.232 416.232 0 0 0-2.525 2.024c-.704.57-1.425 1.159-2 1.64-.289.242-.543.458-.742.634a5.258 5.258 0 0 0-.453.433 1.983 1.983 0 0 0 3.016 2.575c.095-.111.225-.307.357-.515.142-.224.316-.51.509-.831.386-.644.855-1.449 1.307-2.233a395.245 395.245 0 0 0 1.604-2.811l.147-.26a.66.66 0 0 0-.147-.827Z"/><path fill="#F5F5F5" fill-rule="evenodd" d="M27.156 36.664a1.5 1.5 0 1 0 2.121 2.122l.624-.624a1.5 1.5 0 0 0 2.558.977l2.121-2.12c.227-.227.366-.508.417-.8l1.456 1.42c.95.926 2.547.253 2.547-1.075V28.5a1.5 1.5 0 0 0-1.5-1.5h-8.27c-1.346 0-2.011 1.635-1.048 2.574l1.43 1.395a1.494 1.494 0 0 0-.688.392l-2.121 2.122a1.5 1.5 0 0 0 .976 2.558l-.623.623Z" clip-rule="evenodd"/><path fill="url(#icon-4c5afffd149c23f4__icon-f082e3c66de6358e__e)" d="M38 28.5a.5.5 0 0 0-.5-.5h-8.271a.5.5 0 0 0-.35.858l8.272 8.064a.5.5 0 0 0 .849-.358V28.5Z"/><path fill="url(#icon-7fab8c57823b6477__icon-e16a255045101ded__f)" d="M32.105 34.543a.5.5 0 1 0-.707-.707l-3.535 3.535a.5.5 0 1 0 .707.707l3.535-3.535Z"/><path fill="url(#icon-bc5fe538444c0705__icon-24ff5ff53408a60b__g)" d="m27.51 34.19 2.12-2.122a.5.5 0 0 1 .708.707l-2.122 2.122a.5.5 0 1 1-.707-.707Z"/><path fill="url(#icon-38cdd6ce22877f39__icon-e10735f7c9e04fb6__h)" d="m33.166 35.604-2.121 2.121a.5.5 0 1 0 .707.707l2.121-2.12a.5.5 0 1 0-.707-.708Z"/><defs><linearGradient id="icon-cabaa3da5850a40d__icon-ff1032c2eacd84d8__a" x1="12.889" x2="16.937" y1="4" y2="36.383" gradientUnits="userSpaceOnUse"><stop stop-color="#fff"/><stop offset="1" stop-color="#EBEBEB"/></linearGradient><linearGradient id="icon-8ac19ec48e29aa35__icon-8d044e9d4233d11b__c" x1="14.333" x2="18.642" y1="4" y2="36.314" gradientUnits="userSpaceOnUse"><stop stop-color="#BBB"/><stop offset="1" stop-color="#888"/></linearGradient><linearGradient id="icon-aa8cb64c2cd819ca__icon-251394d77e6eaca8__d" x1="10" x2="30" y1="10" y2="30" gradientUnits="userSpaceOnUse"><stop stop-color="#E03F8F"/><stop offset="1" stop-color="#BD1E7B"/></linearGradient><linearGradient id="icon-4c5afffd149c23f4__icon-f082e3c66de6358e__e" x1="27.363" x2="37.942" y1="28" y2="38.637" gradientUnits="userSpaceOnUse"><stop stop-color="#E03F8F"/><stop offset="1" stop-color="#BD1E7B"/></linearGradient><linearGradient id="icon-7fab8c57823b6477__icon-e16a255045101ded__f" x1="27.363" x2="37.942" y1="28" y2="38.637" gradientUnits="userSpaceOnUse"><stop stop-color="#E03F8F"/><stop offset="1" stop-color="#BD1E7B"/></linearGradient><linearGradient id="icon-bc5fe538444c0705__icon-24ff5ff53408a60b__g" x1="27.363" x2="37.942" y1="28" y2="38.637" gradientUnits="userSpaceOnUse"><stop stop-color="#E03F8F"/><stop offset="1" stop-color="#BD1E7B"/></linearGradient><linearGradient id="icon-38cdd6ce22877f39__icon-e10735f7c9e04fb6__h" x1="27.363" x2="37.942" y1="28" y2="38.637" gradientUnits="userSpaceOnUse"><stop stop-color="#E03F8F"/><stop offset="1" stop-color="#BD1E7B"/></linearGradient><radialGradient id="icon-ddf445bcaf1ee56d__icon-fd772e71e17eff78__b" cx="0" cy="0" r="1" gradientTransform="rotate(56.31 -4.411 19.454) scale(30.4469 26.3483)" gradientUnits="userSpaceOnUse"><stop offset=".177" stop-color="#fff"/><stop offset="1" stop-color="#B8B8B8"/></radialGradient></defs></svg>