<svg xmlns="http://www.w3.org/2000/svg" width="20" height="20" fill="currentColor"><g clip-path="url(#icon-834b48a34ea74dbe__icon-020584dcdd20641c__a)"><mask id="icon-f0823393e87b718d__icon-55702c67f29a0167__b" width="20" height="20" x="0" y="0" maskUnits="userSpaceOnUse" style="mask-type:luminance"><path fill="#fff" d="M20 0H0v20h20V0Z"/></mask><g mask="url(#icon-f0823393e87b718d__icon-55702c67f29a0167__b)"><path fill="url(#icon-6aa5a99005abb804__icon-17be405465329d93__c)" d="M2 4.5A2.5 2.5 0 0 1 4.5 2h11A2.5 2.5 0 0 1 18 4.5v11a2.5 2.5 0 0 1-2.5 2.5h-11A2.5 2.5 0 0 1 2 15.5v-11Z"/><path fill="url(#icon-86c58d5fd35d00b5__icon-684ad2e756f691b0__d)" fill-opacity=".2" d="M2 4.5A2.5 2.5 0 0 1 4.5 2h11A2.5 2.5 0 0 1 18 4.5v11a2.5 2.5 0 0 1-2.5 2.5h-11A2.5 2.5 0 0 1 2 15.5v-11Z"/><path fill="url(#icon-b826209836f83fee__icon-60b64339be3768e4__e)" fill-rule="evenodd" d="M15.5 3h-11A1.5 1.5 0 0 0 3 4.5v11A1.5 1.5 0 0 0 4.5 17h11a1.5 1.5 0 0 0 1.5-1.5v-11A1.5 1.5 0 0 0 15.5 3Zm-11-1A2.5 2.5 0 0 0 2 4.5v11A2.5 2.5 0 0 0 4.5 18h11a2.5 2.5 0 0 0 2.5-2.5v-11A2.5 2.5 0 0 0 15.5 2h-11Z" clip-rule="evenodd"/><path fill="url(#icon-85aa9166c37e4973__icon-8cbc4318f18ac705__f)" d="M10 15a5 5 0 1 0 0-10 5 5 0 0 0 0 10Z"/><path fill="#F5BCD8" fill-rule="evenodd" d="M10 7.5a2.5 2.5 0 0 0-2.064 3.91.5.5 0 1 1-.825.566A3.5 3.5 0 0 1 10 6.5a.5.5 0 0 1-.001 1Z" clip-rule="evenodd"/><path fill="#F5BCD8" d="M13.064 6.864a.375.375 0 0 0-.476-.008l-.133.105a221.374 221.374 0 0 0-1.432 1.149 92.7 92.7 0 0 0-1.136.93c-.163.137-.307.26-.42.36a2.976 2.976 0 0 0-.257.245 1.125 1.125 0 0 0 1.711 1.462c.054-.064.128-.175.203-.293.08-.127.179-.289.288-.471.22-.366.485-.822.742-1.267a229.254 229.254 0 0 0 .91-1.595l.083-.147a.375.375 0 0 0-.083-.47Z"/><path fill="#F5F5F5" d="M19.56 11.44c-.28-.28-.66-.44-1.06-.44h-5c-.19 0-.38.04-.55.11l-.14.07-.13.08c-.15.1-.28.23-.44.46l-.04.07-.08.14c-.03.07-.05.13-.07.2l-.03.12v.06c-.03.16-.02.32 0 .49.06.29.2.56.41.76l.1.1c-.15.07-.28.16-.4.28l-.71.71a1.499 1.499 0 0 0 0 2.12c.12.12.27.22.42.29l-.42.42a1.499 1.499 0 1 0 2.12 2.12l.42-.42c.07.15.17.3.29.42a1.499 1.499 0 0 0 2.12 0l.71-.71c.12-.12.2-.26.27-.41l.08.08c.21.21.48.36.76.41l.2.03h.1c.2 0 .39-.04.59-.12.11-.05.2-.1.25-.14l.13-.1.06-.06.15-.17.05-.08c.17-.25.26-.54.26-.84V12.5c0-.4-.16-.78-.44-1.06h.02Z"/><path fill="url(#icon-634ad67ba31f2977__icon-0feae9d74b84a2e8__g)" d="M13.504 12h5a.5.5 0 0 1 .5.5v5a.5.5 0 0 1-.084.278l-.016.022a.519.519 0 0 1-.208.162.5.5 0 0 1-.545-.108l-5-5a.498.498 0 0 1-.077-.609l.01-.015.014-.022a.499.499 0 0 1 .406-.208Z"/><path fill="url(#icon-c51bf802bad1f8de__icon-f581bb6943451c0f__h)" d="M13.56 14.653a.5.5 0 0 1 0 .707l-.707.707a.5.5 0 0 1-.707-.707l.707-.707a.5.5 0 0 1 .708 0Z"/><path fill="url(#icon-ed29f609f63f1a0d__icon-cc69f1c07d1ca8fb__i)" d="M16.39 17.482a.5.5 0 0 1 0 .707l-.708.707a.5.5 0 1 1-.707-.707l.707-.707a.5.5 0 0 1 .707 0Z"/><path fill="url(#icon-759c7c79e41f9bd1__icon-66496bf72772f411__j)" d="M14.975 16.068a.5.5 0 0 1 0 .707l-2.121 2.121a.5.5 0 1 1-.707-.707l2.12-2.121a.5.5 0 0 1 .708 0Z"/></g></g><defs><linearGradient id="icon-6aa5a99005abb804__icon-17be405465329d93__c" x1="6.444" x2="8.468" y1="2" y2="18.192" gradientUnits="userSpaceOnUse"><stop stop-color="#fff"/><stop offset="1" stop-color="#EBEBEB"/></linearGradient><linearGradient id="icon-b826209836f83fee__icon-60b64339be3768e4__e" x1="7.167" x2="9.321" y1="2" y2="18.157" gradientUnits="userSpaceOnUse"><stop stop-color="#BBB"/><stop offset="1" stop-color="#888"/></linearGradient><linearGradient id="icon-85aa9166c37e4973__icon-8cbc4318f18ac705__f" x1="5" x2="15" y1="5" y2="15" gradientUnits="userSpaceOnUse"><stop stop-color="#E03F8F"/><stop offset="1" stop-color="#BD1E7B"/></linearGradient><linearGradient id="icon-634ad67ba31f2977__icon-0feae9d74b84a2e8__g" x1="12" x2="19.042" y1="12" y2="19.004" gradientUnits="userSpaceOnUse"><stop stop-color="#E03F8F"/><stop offset="1" stop-color="#BD1E7B"/></linearGradient><linearGradient id="icon-c51bf802bad1f8de__icon-f581bb6943451c0f__h" x1="12" x2="19.042" y1="12" y2="19.004" gradientUnits="userSpaceOnUse"><stop stop-color="#E03F8F"/><stop offset="1" stop-color="#BD1E7B"/></linearGradient><linearGradient id="icon-ed29f609f63f1a0d__icon-cc69f1c07d1ca8fb__i" x1="12" x2="19.042" y1="12" y2="19.004" gradientUnits="userSpaceOnUse"><stop stop-color="#E03F8F"/><stop offset="1" stop-color="#BD1E7B"/></linearGradient><linearGradient id="icon-759c7c79e41f9bd1__icon-66496bf72772f411__j" x1="12" x2="19.042" y1="12" y2="19.004" gradientUnits="userSpaceOnUse"><stop stop-color="#E03F8F"/><stop offset="1" stop-color="#BD1E7B"/></linearGradient><radialGradient id="icon-86c58d5fd35d00b5__icon-684ad2e756f691b0__d" cx="0" cy="0" r="1" gradientTransform="rotate(56.31 -2.206 9.727) scale(15.2234 13.1741)" gradientUnits="userSpaceOnUse"><stop offset=".177" stop-color="#fff"/><stop offset="1" stop-color="#B8B8B8"/></radialGradient><clipPath id="icon-834b48a34ea74dbe__icon-020584dcdd20641c__a"><path fill="#fff" d="M0 0h20v20H0z"/></clipPath></defs></svg>