<svg width="20" height="20" fill="none" xmlns="http://www.w3.org/2000/svg"><path d="M9.75207 12.1218L8.50006 16.7368C8.47606 16.8208 8.46407 16.9087 8.46407 17.0007C8.46407 17.5526 8.91207 18.0005 9.46407 18.0005C9.75607 18.0005 10.0161 17.8765 10.2001 17.6806L17.6441 9.23442C17.4001 9.50236 17.0481 9.67033 16.6601 9.67033H12.9681C11.4321 9.67033 10.1361 10.7101 9.75207 12.1258" fill="url(#icon-d6fdcafef0cbeaa7__icon-ce39abb0d0a751a4__icon-ab122b61__a)"/><path d="M17.996 8.33441C17.996 7.59857 17.4 7.0027 16.664 7.0027H6.43199L3.33199 10.334C2.59599 10.334 2 10.9298 2 11.6657C2 12.4015 2.59599 12.9974 3.33199 12.9974H11.376C12.112 12.9974 12.708 13.5933 12.708 14.3291C12.708 14.669 12.58 14.981 12.368 15.2169L17.208 9.72611L17.64 9.23821H17.636C17.86 8.99827 18 8.68233 18 8.33041L17.996 8.33441Z" fill="url(#icon-d44d74ac5f240cb3__icon-e889deba9a545882__icon-ab122b61__b)"/><path d="M17.996 8.33441C17.996 7.59857 17.4 7.0027 16.664 7.0027H6.43199L3.33199 10.334C2.59599 10.334 2 10.9298 2 11.6657C2 12.4015 2.59599 12.9974 3.33199 12.9974H11.376C12.112 12.9974 12.708 13.5933 12.708 14.3291C12.708 14.669 12.58 14.981 12.368 15.2169L17.208 9.72611L17.64 9.23821H17.636C17.86 8.99827 18 8.68233 18 8.33041L17.996 8.33441Z" fill="url(#icon-9656b68102885166__icon-b4e65b06bd5e0ca7__icon-ab122b61__c)"/><path d="M10.236 7.87872L11.4879 3.26373C11.5119 3.17975 11.524 3.09177 11.524 2.99979C11.524 2.44791 11.076 2.00001 10.524 2.00001C10.232 2.00001 9.97196 2.12398 9.78796 2.31994L2.34395 10.7661C2.58795 10.4981 2.93994 10.3302 3.32795 10.3302H7.01995C8.55595 10.3302 9.85195 9.29041 10.236 7.87472" fill="url(#icon-c92c21267e82fe90__icon-245877f597a7767f__icon-ab122b61__d)"/><path d="M9.75207 12.1218L8.50006 16.7368C8.47606 16.8208 8.46407 16.9087 8.46407 17.0007C8.46407 17.5526 8.91207 18.0005 9.46407 18.0005C9.75607 18.0005 10.0161 17.8765 10.2001 17.6806L17.6441 9.23442C17.4001 9.50236 17.0481 9.67033 16.6601 9.67033H12.9681C11.4321 9.67033 10.1361 10.7101 9.75207 12.1258" fill="url(#icon-607f7a9a4647dbe8__icon-f04bf42a14d1ab93__icon-ab122b61__e)"/><path d="M17.996 8.33441C17.996 7.59857 17.4 7.0027 16.664 7.0027H6.43199L3.33199 10.334C2.59599 10.334 2 10.9298 2 11.6657C2 12.4015 2.59599 12.9974 3.33199 12.9974H11.376C12.112 12.9974 12.708 13.5933 12.708 14.3291C12.708 14.669 12.58 14.981 12.368 15.2169L17.208 9.72611L17.64 9.23821H17.636C17.86 8.99827 18 8.68233 18 8.33041L17.996 8.33441Z" fill="url(#icon-40f418aa1402bd42__icon-ba6461e2853525fc__icon-ab122b61__f)"/><path d="M17.996 8.33441C17.996 7.59857 17.4 7.0027 16.664 7.0027H6.43199L3.33199 10.334C2.59599 10.334 2 10.9298 2 11.6657C2 12.4015 2.59599 12.9974 3.33199 12.9974H11.376C12.112 12.9974 12.708 13.5933 12.708 14.3291C12.708 14.669 12.58 14.981 12.368 15.2169L17.208 9.72611L17.64 9.23821H17.636C17.86 8.99827 18 8.68233 18 8.33041L17.996 8.33441Z" fill="url(#icon-60838aec280c1b67__icon-ae6f8eff99ca9412__icon-ab122b61__g)"/><path d="M10.236 7.87872L11.4879 3.26373C11.5119 3.17975 11.524 3.09177 11.524 2.99979C11.524 2.44791 11.076 2.00001 10.524 2.00001C10.232 2.00001 9.97196 2.12398 9.78796 2.31994L2.34395 10.7661C2.58795 10.4981 2.93994 10.3302 3.32795 10.3302H7.01995C8.55595 10.3302 9.85195 9.29041 10.236 7.87472" fill="url(#icon-88f105e465a9a391__icon-dd11795c4d5ebba5__icon-ab122b61__h)"/><defs><linearGradient id="icon-d6fdcafef0cbeaa7__icon-ce39abb0d0a751a4__icon-ab122b61__a" x1="9.02807" y1="18.6644" x2="14.9341" y2="8.43348" gradientUnits="userSpaceOnUse"><stop offset="0.226672" stop-color="#CA2134"/><stop offset="0.497218" stop-color="#670938"/></linearGradient><linearGradient id="icon-d44d74ac5f240cb3__icon-e889deba9a545882__icon-ab122b61__b" x1="2.8" y1="6.39999" x2="16.4" y2="14.8" gradientUnits="userSpaceOnUse"><stop offset="0.132123" stop-color="#CA2134"/><stop offset="0.554865" stop-color="#E82C41"/><stop offset="0.679382" stop-color="#F83F54"/><stop offset="0.923699" stop-color="#FF921F"/></linearGradient><radialGradient id="icon-9656b68102885166__icon-b4e65b06bd5e0ca7__icon-ab122b61__c" cx="0" cy="0" r="1" gradientUnits="userSpaceOnUse" gradientTransform="translate(5.8 8.59999) rotate(68.1986) scale(4.30813 6.93162)"><stop offset="0.140388" stop-color="#4A0829"/><stop offset="0.958033" stop-color="#670938" stop-opacity="0"/></radialGradient><linearGradient id="icon-c92c21267e82fe90__icon-245877f597a7767f__icon-ab122b61__d" x1="9.99991" y1="9.20001" x2="5.30062" y2="5.65432" gradientUnits="userSpaceOnUse"><stop offset="0.0857729" stop-color="#FF835C"/><stop offset="0.745847" stop-color="#F83F54"/></linearGradient><linearGradient id="icon-607f7a9a4647dbe8__icon-f04bf42a14d1ab93__icon-ab122b61__e" x1="9.02807" y1="18.6644" x2="14.9341" y2="8.43348" gradientUnits="userSpaceOnUse"><stop offset="0.226672" stop-color="#CA2134"/><stop offset="0.497218" stop-color="#670938"/></linearGradient><linearGradient id="icon-40f418aa1402bd42__icon-ba6461e2853525fc__icon-ab122b61__f" x1="2.8" y1="6.39999" x2="16.4" y2="14.8" gradientUnits="userSpaceOnUse"><stop offset="0.132123" stop-color="#CA2134"/><stop offset="0.554865" stop-color="#E82C41"/><stop offset="0.647463" stop-color="#F83F54"/><stop offset="0.897072" stop-color="#FFA43D"/></linearGradient><radialGradient id="icon-60838aec280c1b67__icon-ae6f8eff99ca9412__icon-ab122b61__g" cx="0" cy="0" r="1" gradientUnits="userSpaceOnUse" gradientTransform="translate(5.8 8.59999) rotate(68.1986) scale(4.30813 6.93162)"><stop offset="0.140388" stop-color="#4A0829"/><stop offset="0.958033" stop-color="#670938" stop-opacity="0"/></radialGradient><linearGradient id="icon-88f105e465a9a391__icon-dd11795c4d5ebba5__icon-ab122b61__h" x1="9.99991" y1="9.20001" x2="5.30062" y2="5.65432" gradientUnits="userSpaceOnUse"><stop stop-color="#FF9C70"/><stop offset="0.285" stop-color="#FF835C"/><stop offset="0.8" stop-color="#F83F54"/></linearGradient></defs></svg>