<svg xmlns="http://www.w3.org/2000/svg" width="16" height="16" fill="currentColor"><path fill-rule="evenodd" d="M8.753 2.223 3.451 7.287h2.942c.863 0 1.596-.572 1.833-1.36l.527-3.704Zm-2.36 6.064a2.916 2.916 0 0 0 2.737-1.91h4.697c.092 0 .165.073.165.165v.028a.198.198 0 0 1-.046.08l-1.48 1.682-1.713 1.943a2.159 2.159 0 0 0-1.55-.654H2.66a.664.664 0 0 1 .005-1.329v-.005h3.728Zm-4.857-.554L8.293 1.28a.875.875 0 0 1 1.487.826l-.466 3.27h4.514a1.16 1.16 0 0 1 1.146.956c.012.066.022.144.022.213a1.165 1.165 0 0 1-.317.786l-6.505 7.387a.875.875 0 0 1-1.487-.826l.58-3.271H2.664a1.664 1.664 0 0 1-1.13-2.888Zm6.766 2.888-.51 3.018 2.298-2.608-.002-.002a1.162 1.162 0 0 0-.886-.408h-.9Z" clip-rule="evenodd"/></svg>