<svg xmlns="http://www.w3.org/2000/svg" width="28" height="28" fill="currentColor"><path fill-rule="evenodd" d="M14.78 2c-.44 0-.83.19-1.1.48L3.09 14.495l6.74-.01c.98-.06 1.94-.42 2.72-1.01.74-.56 1.32-1.34 1.65-2.209.138-.353 2.02-7.357 2.02-7.357.04-.13.05-.26.05-.4 0-.83-.67-1.499-1.5-1.499l.01-.01ZM26 11.506c0-.37-.12-.76-.33-1.07-.3-.48-.82-.81-1.37-.91a2.925 2.925 0 0 0-.55-.03h-7.49l-.46 1.71a6.506 6.506 0 0 1-6.27 4.788H3.25c-.69 0-1.25.56-1.25 1.25s.56 1.249 1.27 1.249h14.85c.17 0 .33.02.49.06.14.03.32.11.44.17.27.15.51.35.7.62l5.51-6.248s.39-.44.53-.71c.14-.27.21-.58.21-.88Zm-13.14 8.486h5.25v.01c.28 0 .5.22.5.5 0 .06-.03.16-.03.16L14.3 25.52a1.5 1.5 0 0 1-2.6-1.02c0-.14.01-.27.05-.4l1.11-4.108Z" clip-rule="evenodd"/></svg>