<svg width="48" height="48" fill="none" xmlns="http://www.w3.org/2000/svg"><path d="M23.38 29.3045L20.25 40.8419C20.19 41.0519 20.16 41.2718 20.16 41.5018C20.16 42.8815 21.28 44.0012 22.66 44.0012C23.39 44.0012 24.04 43.6913 24.5 43.2014L43.11 22.086C42.5 22.7559 41.62 23.1758 40.65 23.1758H31.42C27.58 23.1758 24.34 25.7752 23.38 29.3145" fill="url(#icon-06a49e861c35455c__icon-bff78cf77c31bb54__icon-beb6ab93__a)"/><path d="M43.99 19.836C43.99 17.9964 42.5 16.5068 40.66 16.5068H15.08L7.32999 24.8349C5.48999 24.8349 4 26.3246 4 28.1642C4 30.0038 5.48999 31.4935 7.32999 31.4935H27.44C29.28 31.4935 30.77 32.9832 30.77 34.8228C30.77 35.6726 30.45 36.4524 29.92 37.0423L42.02 23.3153L43.1 22.0955H43.09C43.65 21.4957 44 20.7059 44 19.826L43.99 19.836Z" fill="url(#icon-803a60c5e58d5303__icon-2a213c03b9c83dce__icon-beb6ab93__b)"/><path d="M43.99 19.836C43.99 17.9964 42.5 16.5068 40.66 16.5068H15.08L7.32999 24.8349C5.48999 24.8349 4 26.3246 4 28.1642C4 30.0038 5.48999 31.4935 7.32999 31.4935H27.44C29.28 31.4935 30.77 32.9832 30.77 34.8228C30.77 35.6726 30.45 36.4524 29.92 37.0423L42.02 23.3153L43.1 22.0955H43.09C43.65 21.4957 44 20.7059 44 19.826L43.99 19.836Z" fill="url(#icon-b91bfb72a93bfb78__icon-5b5f3dc5b9273e43__icon-beb6ab93__c)"/><path d="M24.59 18.6968L27.72 7.15932C27.78 6.94937 27.81 6.72942 27.81 6.49947C27.81 5.11977 26.69 4.00002 25.31 4.00002C24.58 4.00002 23.93 4.30995 23.47 4.79984L4.86003 25.9152C5.47003 25.2454 6.35002 24.8255 7.32002 24.8255H16.55C20.39 24.8255 23.63 22.226 24.59 18.6868" fill="url(#icon-983b28229e1f19ec__icon-4e1f9f8094be02d5__icon-beb6ab93__d)"/><defs><linearGradient id="icon-06a49e861c35455c__icon-bff78cf77c31bb54__icon-beb6ab93__a" x1="21.57" y1="45.6609" x2="36.3352" y2="20.0837" gradientUnits="userSpaceOnUse"><stop offset="0.226672" stop-color="#CA2134"/><stop offset="0.497218" stop-color="#670938"/></linearGradient><linearGradient id="icon-803a60c5e58d5303__icon-2a213c03b9c83dce__icon-beb6ab93__b" x1="6" y1="15" x2="40" y2="36" gradientUnits="userSpaceOnUse"><stop offset="0.132123" stop-color="#CA2134"/><stop offset="0.554865" stop-color="#E82C41"/><stop offset="0.647463" stop-color="#F83F54"/><stop offset="0.897072" stop-color="#FFA43D"/></linearGradient><radialGradient id="icon-b91bfb72a93bfb78__icon-5b5f3dc5b9273e43__icon-beb6ab93__c" cx="0" cy="0" r="1" gradientUnits="userSpaceOnUse" gradientTransform="translate(13.5 20.5) rotate(68.1986) scale(10.7703 17.3291)"><stop offset="0.140388" stop-color="#4A0829"/><stop offset="0.958033" stop-color="#670938" stop-opacity="0"/></radialGradient><linearGradient id="icon-983b28229e1f19ec__icon-4e1f9f8094be02d5__icon-beb6ab93__d" x1="23.9999" y1="22" x2="12.2517" y2="13.1358" gradientUnits="userSpaceOnUse"><stop stop-color="#FF9C70"/><stop offset="0.285" stop-color="#FF835C"/><stop offset="0.8" stop-color="#F83F54"/></linearGradient></defs></svg>