<svg xmlns="http://www.w3.org/2000/svg" width="32" height="32" fill="currentColor"><path fill-rule="evenodd" d="m6.663 14.578 9.729-9.86-.91 7.038h-.001a3.831 3.831 0 0 1-3.696 2.82l-5.122.002Zm-3.852 1.156a3.28 3.28 0 0 0-.805 2.176 3.332 3.332 0 0 0 3.333 3.332h8.81l-.838 7.005c0 .966.784 1.75 1.75 1.75.51 0 .965-.218 1.287-.56L29.37 14.657l-.027.03.02-.023h-.007l.003-.003.004-.005c.385-.415.626-.96.63-1.566v-.015l-.007.008v-.015a2.33 2.33 0 0 0-2.33-2.316H17.637l.964-6.542c.02-.11.063-.3.063-.462A1.75 1.75 0 0 0 16.914 2c-.51 0-.965.217-1.287.56L3.203 15.352s-.279.253-.392.382Zm2.528.841v.003a1.332 1.332 0 0 0 0 2.664h13.066c1.216 0 2.315.501 3.102 1.308l3.424-3.885 2.963-3.365a.398.398 0 0 0 .092-.16v-.056a.33.33 0 0 0-.33-.33H17.26a5.832 5.832 0 0 1-5.475 3.821H5.34Zm10.882 4.667-.637 6.037 4.596-5.217-.003-.003a2.325 2.325 0 0 0-1.772-.817h-2.184Z" clip-rule="evenodd"/></svg>