<svg xmlns="http://www.w3.org/2000/svg" width="48" height="48" fill="currentColor"><path fill="url(#icon-decfc37f8037343e__icon-95b232b845366f87__a)" d="M5 10a5 5 0 0 1 5-5h28a5 5 0 0 1 5 5v28a5 5 0 0 1-5 5H10a5 5 0 0 1-5-5V10Z"/><path fill="url(#icon-21acd2c5f27c4511__icon-227375467b247fd5__b)" fill-opacity=".2" d="M5 10a5 5 0 0 1 5-5h28a5 5 0 0 1 5 5v28a5 5 0 0 1-5 5H10a5 5 0 0 1-5-5V10Z"/><path fill="url(#icon-af5fd501bc1e26fa__icon-df3ac17afd85d76b__c)" fill-rule="evenodd" d="M38 6H10a4 4 0 0 0-4 4v28a4 4 0 0 0 4 4h28a4 4 0 0 0 4-4V10a4 4 0 0 0-4-4ZM10 5a5 5 0 0 0-5 5v28a5 5 0 0 0 5 5h28a5 5 0 0 0 5-5V10a5 5 0 0 0-5-5H10Z" clip-rule="evenodd"/><path fill="url(#icon-21e630709453e1bc__icon-4f39a8c32b5f8e4c__d)" d="M24 36c6.627 0 12-5.373 12-12s-5.373-12-12-12-12 5.373-12 12 5.373 12 12 12Z"/><path fill="#F5BCD8" d="M27.699 16.585a.75.75 0 0 1-.971.427 7.502 7.502 0 0 0-8.031 12.291.75.75 0 0 1-1.06 1.061 9 9 0 0 1 9.635-14.75.75.75 0 0 1 .427.971Zm2.429 1.144a.75.75 0 0 0-.953-.017l-.265.21a499.821 499.821 0 0 0-2.865 2.297c-.799.646-1.617 1.315-2.27 1.862-.327.273-.615.519-.841.718a5.95 5.95 0 0 0-.515.492 2.25 2.25 0 1 0 3.422 2.922c.108-.127.256-.349.406-.585.16-.254.358-.578.577-.943.438-.731.97-1.644 1.483-2.534a446.963 446.963 0 0 0 1.82-3.19l.167-.293a.75.75 0 0 0-.166-.94Z"/><path fill="#F5F5F5" fill-rule="evenodd" d="M33.156 43.664a1.5 1.5 0 1 0 2.121 2.122l.624-.624a1.5 1.5 0 0 0 2.558.977l2.121-2.12c.227-.227.366-.508.417-.8l1.456 1.42c.95.926 2.547.253 2.547-1.075V35.5a1.5 1.5 0 0 0-1.5-1.5h-8.27c-1.346 0-2.011 1.635-1.048 2.574l1.43 1.395a1.494 1.494 0 0 0-.688.392l-2.121 2.122a1.5 1.5 0 0 0 .976 2.558l-.623.623Z" clip-rule="evenodd"/><path fill="url(#icon-5c779eb2ca9941d3__icon-7345026383bdb50c__e)" d="M44 35.5a.5.5 0 0 0-.5-.5h-8.271a.5.5 0 0 0-.35.858l8.272 8.064a.5.5 0 0 0 .849-.358V35.5Z"/><path fill="url(#icon-b9131ee64a8f7d19__icon-99b959f6b54b046f__f)" d="M38.105 41.543a.5.5 0 1 0-.707-.707l-3.535 3.535a.5.5 0 1 0 .707.707l3.535-3.535Z"/><path fill="url(#icon-d2d509326b713afe__icon-19466e3d75674d6c__g)" d="m33.51 41.19 2.12-2.122a.5.5 0 0 1 .708.707l-2.121 2.122a.5.5 0 1 1-.708-.707Z"/><path fill="url(#icon-bb18a709d01d0f5c__icon-64bf99f3c2c6f81f__h)" d="m39.166 42.604-2.121 2.121a.5.5 0 1 0 .707.707l2.121-2.12a.5.5 0 1 0-.707-.708Z"/><defs><linearGradient id="icon-decfc37f8037343e__icon-95b232b845366f87__a" x1="15.556" x2="20.362" y1="5" y2="43.455" gradientUnits="userSpaceOnUse"><stop stop-color="#fff"/><stop offset="1" stop-color="#EBEBEB"/></linearGradient><linearGradient id="icon-af5fd501bc1e26fa__icon-df3ac17afd85d76b__c" x1="17.271" x2="22.387" y1="5" y2="43.373" gradientUnits="userSpaceOnUse"><stop stop-color="#BBB"/><stop offset="1" stop-color="#888"/></linearGradient><linearGradient id="icon-21e630709453e1bc__icon-4f39a8c32b5f8e4c__d" x1="12" x2="36" y1="12" y2="36" gradientUnits="userSpaceOnUse"><stop stop-color="#E03F8F"/><stop offset="1" stop-color="#BD1E7B"/></linearGradient><linearGradient id="icon-5c779eb2ca9941d3__icon-7345026383bdb50c__e" x1="33.363" x2="43.942" y1="35" y2="45.637" gradientUnits="userSpaceOnUse"><stop stop-color="#E03F8F"/><stop offset="1" stop-color="#BD1E7B"/></linearGradient><linearGradient id="icon-b9131ee64a8f7d19__icon-99b959f6b54b046f__f" x1="33.363" x2="43.942" y1="35" y2="45.637" gradientUnits="userSpaceOnUse"><stop stop-color="#E03F8F"/><stop offset="1" stop-color="#BD1E7B"/></linearGradient><linearGradient id="icon-d2d509326b713afe__icon-19466e3d75674d6c__g" x1="33.363" x2="43.942" y1="35" y2="45.637" gradientUnits="userSpaceOnUse"><stop stop-color="#E03F8F"/><stop offset="1" stop-color="#BD1E7B"/></linearGradient><linearGradient id="icon-bb18a709d01d0f5c__icon-64bf99f3c2c6f81f__h" x1="33.363" x2="43.942" y1="35" y2="45.637" gradientUnits="userSpaceOnUse"><stop stop-color="#E03F8F"/><stop offset="1" stop-color="#BD1E7B"/></linearGradient><radialGradient id="icon-21acd2c5f27c4511__icon-227375467b247fd5__b" cx="0" cy="0" r="1" gradientTransform="rotate(56.31 -5.347 23.46) scale(36.1557 31.2886)" gradientUnits="userSpaceOnUse"><stop offset=".177" stop-color="#fff"/><stop offset="1" stop-color="#B8B8B8"/></radialGradient></defs></svg>