<svg xmlns="http://www.w3.org/2000/svg" width="28" height="28" fill="currentColor"><path fill-rule="evenodd" d="m14.787 3.5-.903 7.008a3.5 3.5 0 0 1-3.351 2.489h-4.87L14.787 3.5Zm.513 7.505a5 5 0 0 1-4.768 3.492H4.628v.009a1.252 1.252 0 0 0 0 2.49v.002h11.439a3.49 3.49 0 0 1 2.662 1.229l5.63-6.392a.505.505 0 0 0 .137-.264v-.068a.497.497 0 0 0-.498-.498H15.3ZM4.627 18.498v.002a2.751 2.751 0 0 1-1.82-4.695L13.684 2.48c.276-.294.666-.48 1.104-.48a1.5 1.5 0 0 1 1.446 1.896l-.711 5.61h8.474a1.992 1.992 0 0 1 1.993 1.854c.003.043.01.105.01.149-.002.52-.203.988-.533 1.344L14.302 25.524c-.276.294-.666.48-1.104.48a1.5 1.5 0 0 1-1.5-1.5c0-.138.029-.258.054-.396l.711-5.61H4.627Zm9.349 0-.777 6.006 4.521-5.128-.002-.003a1.995 1.995 0 0 0-1.652-.875h-2.09Z" clip-rule="evenodd"/></svg>