<svg xmlns="http://www.w3.org/2000/svg" width="24" height="24" fill="currentColor"><g clip-path="url(#icon-feaa09aa624c141a__icon-00be28c93eb76fda__a)"><mask id="icon-757f2b072da99918__icon-226866372178934e__b" width="24" height="24" x="0" y="0" maskUnits="userSpaceOnUse" style="mask-type:luminance"><path fill="#fff" d="M24 0H0v24h24V0Z"/></mask><g mask="url(#icon-757f2b072da99918__icon-226866372178934e__b)"><path fill="url(#icon-589c9c7dbc290622__icon-2bb6144ac59b2c61__c)" d="M2 5a3 3 0 0 1 3-3h14a3 3 0 0 1 3 3v14a3 3 0 0 1-3 3H5a3 3 0 0 1-3-3V5Z"/><path fill="url(#icon-e2dbfb602bdf3e88__icon-b572b3e81a12968c__d)" fill-opacity=".2" d="M2 5a3 3 0 0 1 3-3h14a3 3 0 0 1 3 3v14a3 3 0 0 1-3 3H5a3 3 0 0 1-3-3V5Z"/><path fill="url(#icon-2285ff36601fb1c1__icon-4a479832fcd6fe3c__e)" fill-rule="evenodd" d="M19 3H5a2 2 0 0 0-2 2v14a2 2 0 0 0 2 2h14a2 2 0 0 0 2-2V5a2 2 0 0 0-2-2ZM5 2a3 3 0 0 0-3 3v14a3 3 0 0 0 3 3h14a3 3 0 0 0 3-3V5a3 3 0 0 0-3-3H5Z" clip-rule="evenodd"/><path fill="url(#icon-5ccdb149883c0c40__icon-140dafaa1f886086__f)" d="M12 18a6 6 0 1 0 0-12 6 6 0 0 0 0 12Z"/><path fill="#F5BCD8" d="M12 8c-2.206 0-4 1.794-4 4 0 1.108.447 2.105 1.18 2.826a.5.5 0 1 0 .7-.712A2.943 2.943 0 0 1 9 12a3.004 3.004 0 0 1 3.404-2.974.5.5 0 0 0 .132-.992A4.093 4.093 0 0 0 12 8Z"/><path fill="#F5BCD8" d="M15.064 8.864a.375.375 0 0 0-.476-.008l-.133.105a221.374 221.374 0 0 0-1.432 1.149c-.4.323-.809.657-1.136.93a22 22 0 0 0-.42.36 2.965 2.965 0 0 0-.257.245 1.125 1.125 0 0 0 1.711 1.462c.054-.064.128-.175.203-.293.08-.127.179-.289.288-.471.22-.366.485-.822.742-1.268a227.305 227.305 0 0 0 .91-1.594l.083-.147a.375.375 0 0 0-.083-.47Z"/><path fill="#F5F5F5" d="M23.56 15.44c-.28-.28-.66-.44-1.06-.44h-5c-.19 0-.38.04-.55.11l-.14.07-.13.08c-.15.1-.28.23-.44.46l-.04.07-.08.14c-.03.07-.05.13-.07.2l-.03.12v.06c-.03.16-.02.32 0 .49.06.29.2.56.41.76l.1.1c-.15.07-.28.16-.4.28l-.71.71a1.499 1.499 0 0 0 0 2.12c.12.12.27.22.42.29l-.42.42a1.499 1.499 0 1 0 2.12 2.12l.42-.42c.07.15.17.3.29.42a1.499 1.499 0 0 0 2.12 0l.71-.71c.12-.12.2-.26.27-.41l.08.08c.21.21.48.36.76.41l.2.03h.1c.2 0 .39-.04.59-.12.11-.05.2-.1.25-.14l.13-.1.06-.06.15-.17.05-.08c.17-.25.26-.54.26-.84V16.5c0-.4-.16-.78-.44-1.06h.02Z"/><path fill="url(#icon-34d1f6e1541ed11b__icon-52ce09689fa8ff3c__g)" d="M17.504 16h5a.5.5 0 0 1 .5.5v5a.5.5 0 0 1-.084.278l-.016.022a.52.52 0 0 1-.208.162.5.5 0 0 1-.545-.108l-5-5a.498.498 0 0 1-.077-.609l.01-.015.014-.022a.499.499 0 0 1 .406-.208Z"/><path fill="url(#icon-7cc63f385453b39b__icon-a396544f9255f56d__h)" d="M17.56 18.653a.5.5 0 0 1 0 .707l-.706.707a.5.5 0 0 1-.707-.707l.707-.707a.5.5 0 0 1 .707 0Z"/><path fill="url(#icon-4b0d6fad038899a1__icon-784c464d6eced894__i)" d="M20.39 21.482a.5.5 0 0 1 0 .707l-.708.707a.5.5 0 1 1-.707-.707l.707-.707a.5.5 0 0 1 .707 0Z"/><path fill="url(#icon-9cfe705529947e06__icon-deebcbad3c79d4fe__j)" d="M18.975 20.068a.5.5 0 0 1 0 .707l-2.122 2.121a.5.5 0 1 1-.707-.707l2.122-2.121a.5.5 0 0 1 .707 0Z"/></g></g><defs><linearGradient id="icon-589c9c7dbc290622__icon-2bb6144ac59b2c61__c" x1="7.556" x2="10.085" y1="2" y2="22.239" gradientUnits="userSpaceOnUse"><stop stop-color="#fff"/><stop offset="1" stop-color="#EBEBEB"/></linearGradient><linearGradient id="icon-2285ff36601fb1c1__icon-4a479832fcd6fe3c__e" x1="8.458" x2="11.151" y1="2" y2="22.197" gradientUnits="userSpaceOnUse"><stop stop-color="#BBB"/><stop offset="1" stop-color="#888"/></linearGradient><linearGradient id="icon-5ccdb149883c0c40__icon-140dafaa1f886086__f" x1="6" x2="18" y1="6" y2="18" gradientUnits="userSpaceOnUse"><stop stop-color="#E03F8F"/><stop offset="1" stop-color="#BD1E7B"/></linearGradient><linearGradient id="icon-34d1f6e1541ed11b__icon-52ce09689fa8ff3c__g" x1="16" x2="23.042" y1="16" y2="23.004" gradientUnits="userSpaceOnUse"><stop stop-color="#E03F8F"/><stop offset="1" stop-color="#BD1E7B"/></linearGradient><linearGradient id="icon-7cc63f385453b39b__icon-a396544f9255f56d__h" x1="16" x2="23.042" y1="16" y2="23.004" gradientUnits="userSpaceOnUse"><stop stop-color="#E03F8F"/><stop offset="1" stop-color="#BD1E7B"/></linearGradient><linearGradient id="icon-4b0d6fad038899a1__icon-784c464d6eced894__i" x1="16" x2="23.042" y1="16" y2="23.004" gradientUnits="userSpaceOnUse"><stop stop-color="#E03F8F"/><stop offset="1" stop-color="#BD1E7B"/></linearGradient><linearGradient id="icon-9cfe705529947e06__icon-deebcbad3c79d4fe__j" x1="16" x2="23.042" y1="16" y2="23.004" gradientUnits="userSpaceOnUse"><stop stop-color="#E03F8F"/><stop offset="1" stop-color="#BD1E7B"/></linearGradient><radialGradient id="icon-e2dbfb602bdf3e88__icon-b572b3e81a12968c__d" cx="0" cy="0" r="1" gradientTransform="rotate(56.31 -2.54 11.442) scale(19.0293 16.4677)" gradientUnits="userSpaceOnUse"><stop offset=".177" stop-color="#fff"/><stop offset="1" stop-color="#B8B8B8"/></radialGradient><clipPath id="icon-feaa09aa624c141a__icon-00be28c93eb76fda__a"><path fill="#fff" d="M0 0h24v24H0z"/></clipPath></defs></svg>