<svg width="24" height="24" fill="none" xmlns="http://www.w3.org/2000/svg"><path d="M11.69 14.6522L10.125 20.421C10.095 20.5259 10.08 20.6359 10.08 20.7509C10.08 21.4407 10.64 22.0006 11.33 22.0006C11.695 22.0006 12.02 21.8457 12.25 21.6007L21.555 11.043C21.25 11.3779 20.81 11.5879 20.325 11.5879H15.71C13.79 11.5879 12.17 12.8876 11.69 14.6572" fill="url(#icon-7b24946845107bf8__icon-e94d8ff876a4a010__icon-e84e0661__a)"/><path d="M21.995 9.91802C21.995 8.99822 21.25 8.25338 20.33 8.25338H7.53999L3.66499 12.4175C2.74499 12.4175 2 13.1623 2 14.0821C2 15.0019 2.74499 15.7467 3.66499 15.7467H13.72C14.64 15.7467 15.385 16.4916 15.385 17.4114C15.385 17.8363 15.225 18.2262 14.96 18.5211L21.01 11.6576L21.55 11.0478H21.545C21.825 10.7478 22 10.3529 22 9.91302L21.995 9.91802Z" fill="url(#icon-c4aaa16e128c3df1__icon-03820aa7059b289b__icon-e84e0661__b)"/><path d="M21.995 9.91802C21.995 8.99822 21.25 8.25338 20.33 8.25338H7.53999L3.66499 12.4175C2.74499 12.4175 2 13.1623 2 14.0821C2 15.0019 2.74499 15.7467 3.66499 15.7467H13.72C14.64 15.7467 15.385 16.4916 15.385 17.4114C15.385 17.8363 15.225 18.2262 14.96 18.5211L21.01 11.6576L21.55 11.0478H21.545C21.825 10.7478 22 10.3529 22 9.91302L21.995 9.91802Z" fill="url(#icon-822f2f7e7c1af904__icon-580b537ccbcca6f1__icon-e84e0661__c)"/><path d="M12.295 9.3484L13.86 3.57966C13.89 3.47469 13.905 3.36471 13.905 3.24973C13.905 2.55989 13.345 2.00001 12.655 2.00001C12.29 2.00001 11.965 2.15497 11.735 2.39992L2.42999 12.9576C2.73499 12.6227 3.17499 12.4127 3.65999 12.4127H8.27499C10.195 12.4127 11.815 11.113 12.295 9.3434" fill="url(#icon-b39840f173d7000f__icon-e0709116d473ec08__icon-e84e0661__d)"/><defs><linearGradient id="icon-7b24946845107bf8__icon-e94d8ff876a4a010__icon-e84e0661__a" x1="10.785" y1="22.8304" x2="18.1676" y2="10.0418" gradientUnits="userSpaceOnUse"><stop offset="0.226672" stop-color="#CA2134"/><stop offset="0.497218" stop-color="#670938"/></linearGradient><linearGradient id="icon-c4aaa16e128c3df1__icon-03820aa7059b289b__icon-e84e0661__b" x1="3" y1="7.49999" x2="20" y2="18" gradientUnits="userSpaceOnUse"><stop offset="0.132123" stop-color="#CA2134"/><stop offset="0.554865" stop-color="#E82C41"/><stop offset="0.647463" stop-color="#F83F54"/><stop offset="0.897072" stop-color="#FFA43D"/></linearGradient><radialGradient id="icon-822f2f7e7c1af904__icon-580b537ccbcca6f1__icon-e84e0661__c" cx="0" cy="0" r="1" gradientUnits="userSpaceOnUse" gradientTransform="translate(6.75 10.25) rotate(68.1986) scale(5.38517 8.66453)"><stop offset="0.140388" stop-color="#4A0829"/><stop offset="0.958033" stop-color="#670938" stop-opacity="0"/></radialGradient><linearGradient id="icon-b39840f173d7000f__icon-e0709116d473ec08__icon-e84e0661__d" x1="11.9999" y1="11" x2="6.12584" y2="6.56789" gradientUnits="userSpaceOnUse"><stop stop-color="#FF9C70"/><stop offset="0.285" stop-color="#FF835C"/><stop offset="0.8" stop-color="#F83F54"/></linearGradient></defs></svg>