<svg width="32" height="32" fill="none" xmlns="http://www.w3.org/2000/svg"><path d="M15.566 19.7131L13.375 27.7894C13.333 27.9363 13.312 28.0903 13.312 28.2513C13.312 29.217 14.096 30.0009 15.062 30.0009C15.573 30.0009 16.028 29.7839 16.35 29.441L29.377 14.6602C28.95 15.1291 28.334 15.4231 27.655 15.4231H21.194C18.506 15.4231 16.238 17.2427 15.566 19.7201" fill="url(#icon-c30de5f685b1c753__icon-ce63fae1c55a837b__icon-512536c5__a)"/><path d="M29.993 13.0852C29.993 11.7975 28.95 10.7547 27.662 10.7547H9.75599L4.33099 16.5845C3.04299 16.5845 2 17.6272 2 18.915C2 20.2027 3.04299 21.2454 4.33099 21.2454H18.408C19.696 21.2454 20.739 22.2882 20.739 23.5759C20.739 24.1708 20.515 24.7167 20.144 25.1296L28.614 15.5207L29.37 14.6669H29.363C29.755 14.247 30 13.6941 30 13.0782L29.993 13.0852Z" fill="url(#icon-4ebd632128f5a682__icon-c4ed9c9d82a53090__icon-512536c5__b)"/><path d="M29.993 13.0852C29.993 11.7975 28.95 10.7547 27.662 10.7547H9.75599L4.33099 16.5845C3.04299 16.5845 2 17.6272 2 18.915C2 20.2027 3.04299 21.2454 4.33099 21.2454H18.408C19.696 21.2454 20.739 22.2882 20.739 23.5759C20.739 24.1708 20.515 24.7167 20.144 25.1296L28.614 15.5207L29.37 14.6669H29.363C29.755 14.247 30 13.6941 30 13.0782L29.993 13.0852Z" fill="url(#icon-bcaadb3bfd3dbaa5__icon-d200ace9e7939b09__icon-512536c5__c)"/><path d="M16.413 12.2878L18.604 4.21152C18.646 4.06456 18.667 3.91059 18.667 3.74963C18.667 2.78384 17.883 2.00001 16.917 2.00001C16.406 2.00001 15.951 2.21696 15.629 2.55989L2.60199 17.3407C3.02899 16.8718 3.64498 16.5778 4.32398 16.5778H10.785C13.473 16.5778 15.741 14.7582 16.413 12.2808" fill="url(#icon-70f27b634bf67bc0__icon-2737274746a44e56__icon-512536c5__d)"/><defs><linearGradient id="icon-c30de5f685b1c753__icon-ce63fae1c55a837b__icon-512536c5__a" x1="14.299" y1="31.1626" x2="24.6346" y2="13.2586" gradientUnits="userSpaceOnUse"><stop offset="0.226672" stop-color="#CA2134"/><stop offset="0.497218" stop-color="#670938"/></linearGradient><linearGradient id="icon-4ebd632128f5a682__icon-c4ed9c9d82a53090__icon-512536c5__b" x1="3.4" y1="9.69999" x2="27.2" y2="24.4" gradientUnits="userSpaceOnUse"><stop offset="0.132123" stop-color="#CA2134"/><stop offset="0.554865" stop-color="#E82C41"/><stop offset="0.647463" stop-color="#F83F54"/><stop offset="0.897072" stop-color="#FFA43D"/></linearGradient><radialGradient id="icon-bcaadb3bfd3dbaa5__icon-d200ace9e7939b09__icon-512536c5__c" cx="0" cy="0" r="1" gradientUnits="userSpaceOnUse" gradientTransform="translate(8.65 13.55) rotate(68.1986) scale(7.53923 12.1303)"><stop offset="0.140388" stop-color="#4A0829"/><stop offset="0.958033" stop-color="#670938" stop-opacity="0"/></radialGradient><linearGradient id="icon-70f27b634bf67bc0__icon-2737274746a44e56__icon-512536c5__d" x1="15.9999" y1="14.6" x2="7.77617" y2="8.39505" gradientUnits="userSpaceOnUse"><stop stop-color="#FF9C70"/><stop offset="0.285" stop-color="#FF835C"/><stop offset="0.8" stop-color="#F83F54"/></linearGradient></defs></svg>