<svg width="16" height="16" fill="none" xmlns="http://www.w3.org/2000/svg"><path d="M7.78317 9.85656L6.68767 13.8947C6.66667 13.9682 6.65617 14.0451 6.65617 14.1256C6.65617 14.6085 7.04817 15.0004 7.53117 15.0004C7.78667 15.0004 8.01417 14.892 8.17517 14.7205L14.6887 7.33012C14.4752 7.56456 14.1672 7.71153 13.8277 7.71153H10.5972C9.25317 7.71153 8.11917 8.62133 7.78317 9.86006" fill="url(#icon-deff4485ac4403ec__icon-3bda6d49ad876f8f__icon-a3e79c59__a)"/><path d="M14.9965 6.54261C14.9965 5.89875 14.475 5.37737 13.831 5.37737H4.878L2.1655 8.29223C1.5215 8.29223 1 8.81361 1 9.45747C1 10.1013 1.5215 10.6227 2.1655 10.6227H9.204C9.848 10.6227 10.3695 11.1441 10.3695 11.788C10.3695 12.0854 10.2575 12.3583 10.072 12.5648L14.307 7.76034L14.685 7.33344H14.6815C14.8775 7.12348 15 6.84704 15 6.53911L14.9965 6.54261Z" fill="url(#icon-e543f9ab33e37b55__icon-a7f3ea30967cb6e4__icon-a3e79c59__b)"/><path d="M14.9965 6.54261C14.9965 5.89875 14.475 5.37737 13.831 5.37737H4.878L2.1655 8.29223C1.5215 8.29223 1 8.81361 1 9.45747C1 10.1013 1.5215 10.6227 2.1655 10.6227H9.204C9.848 10.6227 10.3695 11.1441 10.3695 11.788C10.3695 12.0854 10.2575 12.3583 10.072 12.5648L14.307 7.76034L14.685 7.33344H14.6815C14.8775 7.12348 15 6.84704 15 6.53911L14.9965 6.54261Z" fill="url(#icon-6e934617fd50c7a3__icon-01e7c1a48e749885__icon-a3e79c59__c)"/><path d="M8.20658 6.14388L9.30207 2.10577C9.32307 2.03228 9.33358 1.9553 9.33358 1.87482C9.33358 1.39192 8.94158 1.00001 8.45858 1.00001C8.20308 1.00001 7.97558 1.10848 7.81458 1.27995L1.30107 8.67033C1.51457 8.43588 1.82257 8.28891 2.16207 8.28891H5.39257C6.73657 8.28891 7.87058 7.37911 8.20658 6.14038" fill="url(#icon-0b8992847e9cd2e9__icon-2bf322d74a9d543c__icon-a3e79c59__d)"/><defs><linearGradient id="icon-deff4485ac4403ec__icon-3bda6d49ad876f8f__icon-a3e79c59__a" x1="7.14967" y1="15.5813" x2="12.3175" y2="6.62929" gradientUnits="userSpaceOnUse"><stop offset="0.226672" stop-color="#CA2134"/><stop offset="0.497218" stop-color="#670938"/></linearGradient><linearGradient id="icon-e543f9ab33e37b55__icon-a7f3ea30967cb6e4__icon-a3e79c59__b" x1="1.7" y1="4.84999" x2="13.6" y2="12.2" gradientUnits="userSpaceOnUse"><stop offset="0.132123" stop-color="#CA2134"/><stop offset="0.554865" stop-color="#E82C41"/><stop offset="0.647463" stop-color="#F83F54"/><stop offset="0.897072" stop-color="#FFA43D"/></linearGradient><radialGradient id="icon-6e934617fd50c7a3__icon-01e7c1a48e749885__icon-a3e79c59__c" cx="0" cy="0" r="1" gradientUnits="userSpaceOnUse" gradientTransform="translate(4.325 6.77499) rotate(68.1986) scale(3.76962 6.06517)"><stop offset="0.140388" stop-color="#4A0829"/><stop offset="0.958033" stop-color="#670938" stop-opacity="0"/></radialGradient><linearGradient id="icon-0b8992847e9cd2e9__icon-2bf322d74a9d543c__icon-a3e79c59__d" x1="8.00003" y1="7.30001" x2="3.88816" y2="4.19753" gradientUnits="userSpaceOnUse"><stop stop-color="#FF9C70"/><stop offset="0.285" stop-color="#FF835C"/><stop offset="0.8" stop-color="#F83F54"/></linearGradient></defs></svg>