<svg xmlns="http://www.w3.org/2000/svg" width="16" height="16" fill="currentColor"><path fill-rule="evenodd" d="M5.893 8.245c-.16.03-.32.04-.49.04H1.65l6.185-7.004a.872.872 0 0 1 1.481.822l-1.1 4.038a2.924 2.924 0 0 1-2.278 2.094.146.146 0 0 1-.045.01ZM15 6.532c0-.13-.02-.25-.06-.371-.19-.531-.7-.792-1.24-.792H9.465l-.28 1.032a3.915 3.915 0 0 1-3.783 2.887H1.67a.671.671 0 0 0 0 1.342h8.887c.09 0 .17 0 .26.03.07.02.14.04.2.07.01 0 .02 0 .03.01.15.07.28.171.39.301l2.883-3.277s.41-.39.54-.661c.09-.17.14-.38.14-.571Zm-4.463 5.08-3.222.01-.62 2.276a.872.872 0 0 0 1.481.822l2.5-2.847s.03-.05.03-.09c0-.09-.07-.17-.17-.17Z" clip-rule="evenodd"/></svg>