<svg width="28" height="28" fill="none" xmlns="http://www.w3.org/2000/svg"><path d="M13.628 17.1827L11.75 24.1052C11.714 24.2311 11.696 24.3631 11.696 24.5011C11.696 25.3289 12.368 26.0007 13.196 26.0007C13.634 26.0007 14.024 25.8148 14.3 25.5209L25.466 12.8516C25.1 13.2535 24.572 13.5055 23.99 13.5055H18.452C16.148 13.5055 14.204 15.0651 13.628 17.1887" fill="url(#icon-028c8c4d1924e307__icon-c88d906205e875dc__icon-87e12f41__a)"/><path d="M25.994 11.5016C25.994 10.3979 25.1 9.50406 23.996 9.50406H8.64799L3.99799 14.501C2.89399 14.501 2 15.3948 2 16.4985C2 17.6023 2.89399 18.4961 3.99799 18.4961H16.064C17.168 18.4961 18.062 19.3899 18.062 20.4937C18.062 21.0035 17.87 21.4714 17.552 21.8254L24.812 13.5892L25.46 12.8573H25.454C25.79 12.4974 26 12.0235 26 11.4956L25.994 11.5016Z" fill="url(#icon-f4b1356e44764016__icon-009942a13b0d6e21__icon-87e12f41__b)"/><path d="M25.994 11.5016C25.994 10.3979 25.1 9.50406 23.996 9.50406H8.64799L3.99799 14.501C2.89399 14.501 2 15.3948 2 16.4985C2 17.6023 2.89399 18.4961 3.99799 18.4961H16.064C17.168 18.4961 18.062 19.3899 18.062 20.4937C18.062 21.0035 17.87 21.4714 17.552 21.8254L24.812 13.5892L25.46 12.8573H25.454C25.79 12.4974 26 12.0235 26 11.4956L25.994 11.5016Z" fill="url(#icon-8abb42017678996f__icon-dc4f84986c751371__icon-87e12f41__c)"/><path d="M14.3541 10.8181L16.232 3.89559C16.268 3.76962 16.2861 3.63765 16.2861 3.49968C16.2861 2.67186 15.6141 2.00001 14.7861 2.00001C14.3481 2.00001 13.9581 2.18597 13.6821 2.4799L2.51604 15.1491C2.88204 14.7472 3.41004 14.4953 3.99204 14.4953H9.53005C11.834 14.4953 13.7781 12.9356 14.3541 10.8121" fill="url(#icon-3239d3ecb88febc1__icon-a6b93cfd6e3bef0e__icon-87e12f41__d)"/><defs><linearGradient id="icon-028c8c4d1924e307__icon-c88d906205e875dc__icon-87e12f41__a" x1="12.542" y1="26.9965" x2="21.4011" y2="11.6502" gradientUnits="userSpaceOnUse"><stop offset="0.226672" stop-color="#CA2134"/><stop offset="0.497218" stop-color="#670938"/></linearGradient><linearGradient id="icon-f4b1356e44764016__icon-009942a13b0d6e21__icon-87e12f41__b" x1="3.2" y1="8.59999" x2="23.6" y2="21.2" gradientUnits="userSpaceOnUse"><stop offset="0.132123" stop-color="#CA2134"/><stop offset="0.554865" stop-color="#E82C41"/><stop offset="0.647463" stop-color="#F83F54"/><stop offset="0.897072" stop-color="#FFA43D"/></linearGradient><radialGradient id="icon-8abb42017678996f__icon-dc4f84986c751371__icon-87e12f41__c" cx="0" cy="0" r="1" gradientUnits="userSpaceOnUse" gradientTransform="translate(7.7 11.9) rotate(68.1986) scale(6.4622 10.3974)"><stop offset="0.140388" stop-color="#4A0829"/><stop offset="0.958033" stop-color="#670938" stop-opacity="0"/></radialGradient><linearGradient id="icon-3239d3ecb88febc1__icon-a6b93cfd6e3bef0e__icon-87e12f41__d" x1="14" y1="12.8" x2="6.95106" y2="7.48147" gradientUnits="userSpaceOnUse"><stop stop-color="#FF9C70"/><stop offset="0.285" stop-color="#FF835C"/><stop offset="0.8" stop-color="#F83F54"/></linearGradient></defs></svg>