<svg xmlns="http://www.w3.org/2000/svg" width="24" height="24" fill="currentColor"><path fill-rule="evenodd" d="M12.316 3.951 5.51 10.912h3.766c1.189 0 2.2-.78 2.54-1.856l.5-5.105Zm-3.04 8.461a4.166 4.166 0 0 0 3.885-2.659h7.167c.091 0 .165.074.165.165v.031a.21.21 0 0 1-.046.075l-2.223 2.524-2.292 2.6a3.154 3.154 0 0 0-2.212-.901H4.414a.915.915 0 0 1 0-1.83v-.005h4.862Zm-6.458-.892 8.917-9.12a1.25 1.25 0 0 1 2.17.85c0 .115-.022.207-.045.33l-.458 4.673h6.926a1.665 1.665 0 0 1 1.623 1.294c.027.117.046.247.047.371-.003.433-.17.828-.445 1.125L12.25 21.6a1.25 1.25 0 0 1-2.17-.85c0-.115.025-.191.046-.33l.457-4.673H4.41a2.415 2.415 0 0 1-1.591-4.227Zm9.272 4.227-.414 4.236 3.264-3.704a1.666 1.666 0 0 0-1.22-.532h-1.63Z" clip-rule="evenodd"/></svg>