<svg xmlns="http://www.w3.org/2000/svg" width="20" height="20" fill="currentColor"><path d="M5.02 3a2 2 0 0 0-2 2v5.975h1V5a1 1 0 0 1 1-1h7a1 1 0 0 1 1 1v11h-4.1v1h5.1a3 3 0 0 0 3-3v-2h-3V5a2 2 0 0 0-2-2h-7Zm9 13v-3h2v1a2 2 0 0 1-2 2Z"/><path d="M6.52 6a.5.5 0 1 0 0 1h4a.5.5 0 0 0 0-1h-4ZM6.02 9.5a.5.5 0 0 1 .5-.5h4a.5.5 0 0 1 0 1h-4a.5.5 0 0 1-.5-.5ZM2.504 12.004h5a.5.5 0 0 1 .5.5v5a.5.5 0 0 1-.853.354l-5-5a.5.5 0 0 1 .353-.854ZM2.56 14.657a.5.5 0 0 1 0 .707l-.706.707a.5.5 0 1 1-.708-.707l.708-.707a.5.5 0 0 1 .707 0ZM5.39 17.486a.5.5 0 0 1 0 .707l-.708.707a.5.5 0 1 1-.707-.707l.707-.707a.5.5 0 0 1 .707 0ZM3.975 16.072a.5.5 0 0 1 0 .707l-2.121 2.12a.5.5 0 1 1-.708-.706l2.122-2.122a.5.5 0 0 1 .707 0Z"/></svg>