<svg xmlns="http://www.w3.org/2000/svg" width="20" height="20" fill="currentColor"><path d="M5 3a2 2 0 0 0-2 2v4.6c.75-.384 1.6-.6 2.5-.6.193-.01.381-.06.555-.143a3.03 3.03 0 0 0 .578-.343c.184-.137.358-.286.523-.446.141-.133.272-.276.391-.429a2.55 2.55 0 0 0 .328-.539c.083-.189.126-.393.125-.6a.505.505 0 0 1 .5-.5.505.505 0 0 1 .5.5c.003.21.047.417.132.609.084.19.192.369.32.532.11.125.243.268.4.429.16.165.335.314.523.446.183.13.376.244.578.343.17.088.356.136.547.141a.5.5 0 0 1 0 1 1.268 1.268 0 0 0-.555.143 3.85 3.85 0 0 0-.578.351 4.36 4.36 0 0 0-.605.529A5.477 5.477 0 0 1 11 14.5c0 .9-.216 1.75-.6 2.5H14a3 3 0 0 0 3-3v-2h-3V5a2 2 0 0 0-2-2H5Zm11 11a2 2 0 0 1-2 2v-3h2v1Z"/><path d="M7.267 9.29c.664.225 1.27.573 1.793 1.018a6.283 6.283 0 0 1 .717-.623 5.2 5.2 0 0 1 .271-.185 4.647 4.647 0 0 1-.916-.733c-.17-.176-.314-.331-.432-.467l-.019-.022-.017-.022a3.28 3.28 0 0 1-.164-.228l-.001.001a4.744 4.744 0 0 1-.649.761c-.185.178-.38.345-.583.5ZM8 18.242a4.5 4.5 0 1 1-5-7.483 4.5 4.5 0 0 1 5 7.483Zm-2.146-6.096A.5.5 0 0 0 5 12.5V14H3.5a.5.5 0 0 0 0 1H5v1.5a.5.5 0 0 0 1 0V15h1.5a.5.5 0 0 0 0-1H6v-1.5a.5.5 0 0 0-.146-.354Z"/></svg>