<svg xmlns="http://www.w3.org/2000/svg" width="20" height="20" fill="currentColor"><path d="M8.148 6.148A.505.505 0 0 1 8.5 6a.505.505 0 0 1 .5.5c.003.21.047.417.132.609.084.19.192.369.32.532.11.125.243.268.4.429.16.165.335.314.523.446.183.13.376.244.578.343.17.088.356.136.547.141a.5.5 0 0 1 0 1 1.267 1.267 0 0 0-.555.143 3.85 3.85 0 0 0-.578.351 4.36 4.36 0 0 0-.523.446 5.339 5.339 0 0 0-.391.429c-.132.162-.242.34-.328.531a1.472 1.472 0 0 0-.125.6.5.5 0 0 1-1 0 1.546 1.546 0 0 0-.132-.602 2.542 2.542 0 0 0-.32-.531 5.22 5.22 0 0 0-.923-.883 3.343 3.343 0 0 0-.57-.343A1.3 1.3 0 0 0 5.5 10a.5.5 0 1 1 0-1c.193-.01.381-.06.555-.143a3.03 3.03 0 0 0 .578-.343c.184-.137.358-.286.523-.446.141-.133.272-.276.391-.429a2.55 2.55 0 0 0 .328-.539c.083-.189.126-.393.125-.6a.505.505 0 0 1 .148-.352Zm.516 2.108a3.28 3.28 0 0 1-.164-.228l-.001.001a4.744 4.744 0 0 1-.649.761 6.63 6.63 0 0 1-.619.527 4.361 4.361 0 0 1-.271.187 6.1 6.1 0 0 1 .882.709c.18.17.347.354.5.55.055.069.106.141.155.215.056-.082.116-.162.179-.24a5.89 5.89 0 0 1 .46-.506 5.395 5.395 0 0 1 .912-.732 4.647 4.647 0 0 1-.916-.733c-.17-.176-.314-.331-.432-.467l-.019-.022-.017-.022Z"/><path d="M4.82 16.766c.352.156.733.235 1.118.234h8.124a2.856 2.856 0 0 0 1.126-.242 3.079 3.079 0 0 0 1.578-1.578c.156-.352.235-.732.234-1.117V12h-3V5a2.089 2.089 0 0 0-.156-.766 1.93 1.93 0 0 0-.422-.632 2.163 2.163 0 0 0-.625-.438A1.778 1.778 0 0 0 12.039 3H4.961a1.96 1.96 0 0 0-.761.164 1.9 1.9 0 0 0-.622.438 2.2 2.2 0 0 0-.422.64c-.104.24-.157.497-.156.758v9.063c.004.388.086.77.242 1.125.31.705.873 1.268 1.578 1.578ZM13 5v11H5.961a1.916 1.916 0 0 1-.75-.164 2.087 2.087 0 0 1-1.055-1.055A1.809 1.809 0 0 1 4 14.039V5a.856.856 0 0 1 .078-.391 1.011 1.011 0 0 1 .531-.531A.972.972 0 0 1 5 4h7c.134 0 .267.026.391.078.121.05.23.124.32.219.088.094.16.202.211.32.052.121.079.251.078.383Zm1.039 11H14v-3h2v1.039c-.004.258-.06.514-.164.75-.21.47-.585.845-1.055 1.055a1.808 1.808 0 0 1-.742.156Z"/></svg>