<svg xmlns="http://www.w3.org/2000/svg" width="24" height="24" fill="currentColor"><path d="M6.178 4a2.25 2.25 0 0 0-2.25 2.25v7.233l1.5-.011V6.25a.75.75 0 0 1 .75-.75h8.5a.75.75 0 0 1 .75.75V19H11.45l-.012 1.5h5.74a3.25 3.25 0 0 0 3.25-3.25V14h-3.5V6.25A2.25 2.25 0 0 0 14.678 4h-8.5Zm11 15h-.25v-3.5h2v1.75a1.75 1.75 0 0 1-1.75 1.75Z"/><path d="M9.475 14.94a.5.5 0 0 1 .504.505l-.048 6.32a.5.5 0 0 1-.854.35L7.462 20.5H7.46l-3.532-3.532v-.002l-1.123-1.123a.5.5 0 0 1 .35-.854l6.32-.048ZM7.678 8a.75.75 0 1 0 0 1.5h5.5a.75.75 0 1 0 0-1.5h-5.5ZM6.928 12.25a.75.75 0 0 1 .75-.75h5.5a.75.75 0 1 1 0 1.5h-5.5a.75.75 0 0 1-.75-.75ZM4.933 21.049a.75.75 0 0 0-1.06-1.06l-2.122 2.12a.75.75 0 1 0 1.06 1.061l2.122-2.121ZM2.987 19.105a.75.75 0 0 0-1.06-1.061l-.707.707a.75.75 0 0 0 1.06 1.06l.707-.706ZM6.876 21.933a.75.75 0 0 1 0 1.06l-.707.708a.75.75 0 0 1-1.06-1.06l.706-.708a.75.75 0 0 1 1.061 0Z"/></svg>