<svg xmlns="http://www.w3.org/2000/svg" width="20" height="20" fill="currentColor"><path d="M3 5v4.6a5.464 5.464 0 0 1 1-.393V5a.856.856 0 0 1 .078-.391 1.011 1.011 0 0 1 .531-.531A.972.972 0 0 1 5 4h7c.134 0 .267.026.391.078.121.05.23.124.32.219.088.094.16.202.211.32.052.121.079.251.078.383v11h-2.207c-.099.349-.23.683-.393 1h3.662a2.856 2.856 0 0 0 1.126-.242 3.079 3.079 0 0 0 1.578-1.578c.156-.352.235-.732.234-1.117V12h-3V5a2.089 2.089 0 0 0-.156-.766 1.93 1.93 0 0 0-.422-.632 2.163 2.163 0 0 0-.625-.438A1.778 1.778 0 0 0 12.039 3H4.961a1.96 1.96 0 0 0-.761.164 1.9 1.9 0 0 0-.622.438 2.2 2.2 0 0 0-.422.64c-.104.24-.157.497-.156.758Zm11.039 11H14v-3h2v1.039c-.004.258-.06.514-.164.75-.21.47-.585.845-1.055 1.055a1.808 1.808 0 0 1-.742.156Z"/><path d="M7.267 9.29A5.493 5.493 0 0 0 5.5 9c.193-.01.381-.06.555-.143a3.03 3.03 0 0 0 .578-.343c.184-.137.358-.286.523-.446.141-.133.272-.276.391-.429a2.55 2.55 0 0 0 .328-.539c.083-.189.126-.393.125-.6a.505.505 0 0 1 .5-.5.505.505 0 0 1 .5.5c.003.21.047.417.132.609.084.19.192.369.32.532.11.125.243.268.4.429.16.165.335.314.523.446.183.13.376.244.578.343.17.088.356.136.547.141a.5.5 0 0 1 0 1 1.268 1.268 0 0 0-.555.143 3.85 3.85 0 0 0-.578.351 4.36 4.36 0 0 0-.605.529 5.528 5.528 0 0 0-.702-.715 6.284 6.284 0 0 1 .717-.623c.089-.065.18-.127.271-.185a4.647 4.647 0 0 1-.916-.733c-.17-.176-.314-.331-.432-.467l-.019-.022-.017-.022a3.28 3.28 0 0 1-.164-.228l-.001.001a4.744 4.744 0 0 1-.649.761c-.185.178-.38.345-.583.5Z"/><path d="M8 18.242a4.5 4.5 0 1 1-5-7.483 4.5 4.5 0 0 1 5 7.483Zm-2.146-6.096A.5.5 0 0 0 5 12.5V14H3.5a.5.5 0 0 0 0 1H5v1.5a.5.5 0 0 0 1 0V15h1.5a.5.5 0 0 0 0-1H6v-1.5a.5.5 0 0 0-.146-.354Z"/></svg>