<svg xmlns="http://www.w3.org/2000/svg" width="20" height="20" fill="currentColor"><path d="M19.02 5.5a4.5 4.5 0 1 1-9 0 4.5 4.5 0 0 1 9 0Zm-4-2a.5.5 0 1 0-1 0V5h-1.5a.5.5 0 0 0 0 1h1.5v1.5a.5.5 0 0 0 1 0V6h1.5a.5.5 0 1 0 0-1h-1.5V3.5ZM5.02 3h4.6a5.463 5.463 0 0 0-.393 1H5.02a1 1 0 0 0-1 1v5.975h-1V5a2 2 0 0 1 2-2Z"/><path d="M6.52 6h2.522c.03.343.093.678.185 1H6.52a.5.5 0 1 1 0-1ZM10.976 9.706a5.534 5.534 0 0 1-.7-.706H6.52a.5.5 0 1 0 0 1h4a.5.5 0 0 0 .456-.294ZM13.02 16v-5.207a5.48 5.48 0 0 0 1 .185V12h3v2a3 3 0 0 1-3 3h-5.1v-1h4.1Zm1-3v3a2 2 0 0 0 2-2v-1h-2ZM2.504 12.004h5a.5.5 0 0 1 .5.5v5a.5.5 0 0 1-.853.354l-5-5a.5.5 0 0 1 .353-.854ZM2.56 14.657a.5.5 0 0 1 0 .707l-.706.707a.5.5 0 1 1-.708-.707l.708-.707a.5.5 0 0 1 .707 0ZM5.39 17.486a.5.5 0 0 1 0 .707l-.708.707a.5.5 0 1 1-.707-.707l.707-.707a.5.5 0 0 1 .707 0ZM3.975 16.072a.5.5 0 0 1 0 .707l-2.121 2.12a.5.5 0 1 1-.708-.706l2.122-2.122a.5.5 0 0 1 .707 0Z"/></svg>