<svg xmlns="http://www.w3.org/2000/svg" width="20" height="20" fill="currentColor"><path d="M6 2h8a2 2 0 0 1 2 2v5.207a5.48 5.48 0 0 0-1-.185V4a1 1 0 0 0-1-1H6a1 1 0 0 0-1 1v12a1 1 0 0 0 1 1h3.6c.183.358.404.693.657 1H6a2 2 0 0 1-2-2V4a2 2 0 0 1 2-2Z"/><path d="M7.5 9.5h4.706a5.51 5.51 0 0 0-1.48 1H7.5a.5.5 0 0 1-.09-.992L7.5 9.5ZM9.207 13H7.5l-.09.008A.5.5 0 0 0 7.5 14h1.522a5.48 5.48 0 0 1 .185-1ZM13 6.5a.5.5 0 0 1-.41.492L12.5 7h-5a.5.5 0 0 1-.09-.992L7.5 6h5a.5.5 0 0 1 .5.5ZM12 10.758a4.5 4.5 0 1 1 5 7.484 4.5 4.5 0 0 1-5-7.484Zm4.917 5.425a.5.5 0 0 0 .003-.863l-1.42-.82 1.406-.832a.5.5 0 0 0-.506-.863l-1.4.822V12a.5.5 0 0 0-1 0v1.634l-1.411-.812a.5.5 0 0 0-.5.866l1.42.82-1.415.829a.5.5 0 1 0 .506.863l1.4-.827V17a.5.5 0 0 0 1 0v-1.634l1.417.817a.493.493 0 0 0 .5 0Z"/></svg>