<svg xmlns="http://www.w3.org/2000/svg" width="24" height="24" fill="currentColor"><path fill="url(#icon-cb413c457f02bd57__icon-83f18b8a3f7812a2__a)" d="M2 5a3 3 0 0 1 3-3h14a3 3 0 0 1 3 3v14a3 3 0 0 1-3 3H5a3 3 0 0 1-3-3V5Z"/><path fill="url(#icon-795ba4a1c2ecf414__icon-80e9bafe36ebcbdb__b)" fill-opacity=".2" d="M2 5a3 3 0 0 1 3-3h14a3 3 0 0 1 3 3v14a3 3 0 0 1-3 3H5a3 3 0 0 1-3-3V5Z"/><path fill="url(#icon-145c65f4bdfb5ac6__icon-d57e0410239ba207__c)" fill-rule="evenodd" d="M19 3H5a2 2 0 0 0-2 2v14a2 2 0 0 0 2 2h14a2 2 0 0 0 2-2V5a2 2 0 0 0-2-2ZM5 2a3 3 0 0 0-3 3v14a3 3 0 0 0 3 3h14a3 3 0 0 0 3-3V5a3 3 0 0 0-3-3H5Z" clip-rule="evenodd"/><path fill="url(#icon-fb861c13f79444a4__icon-8323479ed71bffcd__d)" fill-rule="evenodd" d="M10.75 6.5a1 1 0 0 0-.949.684l-1.75 5.25A1 1 0 0 0 9 13.75h.94l-.807 3.638c-.288 1.292 1.369 2.086 2.196 1.052l5.452-6.815A1 1 0 0 0 16 10h-1.182l.806-2.149a1 1 0 0 0-.937-1.351H10.75Z" clip-rule="evenodd"/><defs><linearGradient id="icon-cb413c457f02bd57__icon-83f18b8a3f7812a2__a" x1="7.556" x2="10.085" y1="2" y2="22.239" gradientUnits="userSpaceOnUse"><stop stop-color="#fff"/><stop offset="1" stop-color="#EBEBEB"/></linearGradient><linearGradient id="icon-145c65f4bdfb5ac6__icon-d57e0410239ba207__c" x1="8.458" x2="11.151" y1="2" y2="22.197" gradientUnits="userSpaceOnUse"><stop stop-color="#BBB"/><stop offset="1" stop-color="#888"/></linearGradient><linearGradient id="icon-fb861c13f79444a4__icon-8323479ed71bffcd__d" x1="8" x2="19.799" y1="6.5" y2="15.054" gradientUnits="userSpaceOnUse"><stop stop-color="#E03F8F"/><stop offset="1" stop-color="#BD1E7B"/></linearGradient><radialGradient id="icon-795ba4a1c2ecf414__icon-80e9bafe36ebcbdb__b" cx="0" cy="0" r="1" gradientTransform="rotate(56.31 -2.54 11.442) scale(19.0293 16.4677)" gradientUnits="userSpaceOnUse"><stop offset=".177" stop-color="#fff"/><stop offset="1" stop-color="#B8B8B8"/></radialGradient></defs></svg>