<svg xmlns="http://www.w3.org/2000/svg" width="48" height="48" fill="currentColor"><path fill="url(#icon-6c5863b17c40faa1__icon-f9e878a170944fd0__a)" d="M5 10a5 5 0 0 1 5-5h28a5 5 0 0 1 5 5v28a5 5 0 0 1-5 5H10a5 5 0 0 1-5-5V10Z"/><path fill="url(#icon-9e3e94032073a9c7__icon-914e20a72fdbf1a0__b)" fill-opacity=".2" d="M5 10a5 5 0 0 1 5-5h28a5 5 0 0 1 5 5v28a5 5 0 0 1-5 5H10a5 5 0 0 1-5-5V10Z"/><path fill="url(#icon-fe5aecd9ac69130d__icon-4bb7bdf0cc5a59a1__c)" fill-rule="evenodd" d="M38 6H10a4 4 0 0 0-4 4v28a4 4 0 0 0 4 4h28a4 4 0 0 0 4-4V10a4 4 0 0 0-4-4ZM10 5a5 5 0 0 0-5 5v28a5 5 0 0 0 5 5h28a5 5 0 0 0 5-5V10a5 5 0 0 0-5-5H10Z" clip-rule="evenodd"/><path fill="url(#icon-afbce37c07eaa6ea__icon-c55ab03ec1e1cad3__d)" d="M19.425 14.83a1.25 1.25 0 0 1 1.178-.83h6.453a1.25 1.25 0 0 1 1.186 1.645L26.791 20h3.958c1.104 0 1.666 1.327.898 2.12L20.586 33.536c-1.054 1.088-2.872.106-2.541-1.372l1.27-5.668-1.57-.006a1.75 1.75 0 0 1-1.641-2.337l3.321-9.322Z"/><defs><linearGradient id="icon-6c5863b17c40faa1__icon-f9e878a170944fd0__a" x1="15.556" x2="20.362" y1="5" y2="43.455" gradientUnits="userSpaceOnUse"><stop stop-color="#fff"/><stop offset="1" stop-color="#EBEBEB"/></linearGradient><linearGradient id="icon-fe5aecd9ac69130d__icon-4bb7bdf0cc5a59a1__c" x1="17.271" x2="22.387" y1="5" y2="43.373" gradientUnits="userSpaceOnUse"><stop stop-color="#BBB"/><stop offset="1" stop-color="#888"/></linearGradient><linearGradient id="icon-afbce37c07eaa6ea__icon-c55ab03ec1e1cad3__d" x1="16.001" x2="35.512" y1="14" y2="29.611" gradientUnits="userSpaceOnUse"><stop stop-color="#E03F8F"/><stop offset="1" stop-color="#BD1E7B"/></linearGradient><radialGradient id="icon-9e3e94032073a9c7__icon-914e20a72fdbf1a0__b" cx="0" cy="0" r="1" gradientTransform="rotate(56.31 -5.347 23.46) scale(36.1557 31.2886)" gradientUnits="userSpaceOnUse"><stop offset=".177" stop-color="#fff"/><stop offset="1" stop-color="#B8B8B8"/></radialGradient></defs></svg>