<svg xmlns="http://www.w3.org/2000/svg" width="40" height="40" fill="currentColor"><path fill="url(#icon-7fcd75fd9426a3a7__icon-867438cfc31d6398__a)" d="M4 8a4 4 0 0 1 4-4h24a4 4 0 0 1 4 4v24a4 4 0 0 1-4 4H8a4 4 0 0 1-4-4V8Z"/><path fill="url(#icon-3964870cbdefb190__icon-e4f59fc047a2043b__b)" fill-opacity=".2" d="M4 8a4 4 0 0 1 4-4h24a4 4 0 0 1 4 4v24a4 4 0 0 1-4 4H8a4 4 0 0 1-4-4V8Z"/><path fill="url(#icon-5476fc2b492fcb36__icon-a64ffa5d291285c1__c)" fill-rule="evenodd" d="M32 5H8a3 3 0 0 0-3 3v24a3 3 0 0 0 3 3h24a3 3 0 0 0 3-3V8a3 3 0 0 0-3-3ZM8 4a4 4 0 0 0-4 4v24a4 4 0 0 0 4 4h24a4 4 0 0 0 4-4V8a4 4 0 0 0-4-4H8Z" clip-rule="evenodd"/><path fill="url(#icon-7fa0ab9000b20d26__icon-7ad60933b5c6a684__d)" d="M17.212 12c-.474 0-.89.314-1.021.77l-2.25 7.874a1.062 1.062 0 0 0 1.022 1.354h1.267l-1.17 4.68c-.264 1.055 1.041 1.777 1.795.995l8.677-8.858.004-.004c.64-.667.18-1.811-.767-1.811h-2.564l1.262-3.594.002-.008A1.062 1.062 0 0 0 22.461 12h-5.249Z"/><defs><linearGradient id="icon-7fcd75fd9426a3a7__icon-867438cfc31d6398__a" x1="12.889" x2="16.937" y1="4" y2="36.383" gradientUnits="userSpaceOnUse"><stop stop-color="#fff"/><stop offset="1" stop-color="#EBEBEB"/></linearGradient><linearGradient id="icon-5476fc2b492fcb36__icon-a64ffa5d291285c1__c" x1="14.333" x2="18.642" y1="4" y2="36.314" gradientUnits="userSpaceOnUse"><stop stop-color="#BBB"/><stop offset="1" stop-color="#888"/></linearGradient><linearGradient id="icon-7fa0ab9000b20d26__icon-7ad60933b5c6a684__d" x1="13.9" x2="29.237" y1="12" y2="23.437" gradientUnits="userSpaceOnUse"><stop stop-color="#E03F8F"/><stop offset="1" stop-color="#BD1E7B"/></linearGradient><radialGradient id="icon-3964870cbdefb190__icon-e4f59fc047a2043b__b" cx="0" cy="0" r="1" gradientTransform="rotate(56.31 -4.411 19.454) scale(30.4469 26.3483)" gradientUnits="userSpaceOnUse"><stop offset=".177" stop-color="#fff"/><stop offset="1" stop-color="#B8B8B8"/></radialGradient></defs></svg>