<svg xmlns="http://www.w3.org/2000/svg" width="20" height="20" fill="currentColor"><path fill="url(#icon-89a1e19e184074f8__icon-012d23a02afda8d6__a)" d="M2 4.5A2.5 2.5 0 0 1 4.5 2h11A2.5 2.5 0 0 1 18 4.5v11a2.5 2.5 0 0 1-2.5 2.5h-11A2.5 2.5 0 0 1 2 15.5v-11Z"/><path fill="url(#icon-a7fa87412a249a61__icon-3d1dea0e3203e05d__b)" fill-opacity=".2" d="M2 4.5A2.5 2.5 0 0 1 4.5 2h11A2.5 2.5 0 0 1 18 4.5v11a2.5 2.5 0 0 1-2.5 2.5h-11A2.5 2.5 0 0 1 2 15.5v-11Z"/><path fill="url(#icon-bc0368cc765b32bf__icon-b2c31c47fda50f22__c)" fill-rule="evenodd" d="M15.5 3h-11A1.5 1.5 0 0 0 3 4.5v11A1.5 1.5 0 0 0 4.5 17h11a1.5 1.5 0 0 0 1.5-1.5v-11A1.5 1.5 0 0 0 15.5 3Zm-11-1A2.5 2.5 0 0 0 2 4.5v11A2.5 2.5 0 0 0 4.5 18h11a2.5 2.5 0 0 0 2.5-2.5v-11A2.5 2.5 0 0 0 15.5 2h-11Z" clip-rule="evenodd"/><path fill="url(#icon-4cda005ac84c138e__icon-9edf56bc2bfa20ea__d)" fill-rule="evenodd" d="M7.296 6.202A1 1 0 0 1 8.25 5.5h3.25a1 1 0 0 1 .949 1.316L11.887 8.5H13a1 1 0 0 1 .733 1.68l-4.568 4.927c-.858.925-2.391.14-2.142-1.097l.506-2.51H7a1 1 0 0 1-.954-1.298l1.25-4Z" clip-rule="evenodd"/><defs><linearGradient id="icon-89a1e19e184074f8__icon-012d23a02afda8d6__a" x1="6.444" x2="8.468" y1="2" y2="18.192" gradientUnits="userSpaceOnUse"><stop stop-color="#fff"/><stop offset="1" stop-color="#EBEBEB"/></linearGradient><linearGradient id="icon-bc0368cc765b32bf__icon-b2c31c47fda50f22__c" x1="7.167" x2="9.321" y1="2" y2="18.157" gradientUnits="userSpaceOnUse"><stop stop-color="#BBB"/><stop offset="1" stop-color="#888"/></linearGradient><linearGradient id="icon-4cda005ac84c138e__icon-9edf56bc2bfa20ea__d" x1="6" x2="15.765" y1="5.5" y2="13.303" gradientUnits="userSpaceOnUse"><stop stop-color="#E03F8F"/><stop offset="1" stop-color="#BD1E7B"/></linearGradient><radialGradient id="icon-a7fa87412a249a61__icon-3d1dea0e3203e05d__b" cx="0" cy="0" r="1" gradientTransform="rotate(56.31 -2.206 9.727) scale(15.2234 13.1741)" gradientUnits="userSpaceOnUse"><stop offset=".177" stop-color="#fff"/><stop offset="1" stop-color="#B8B8B8"/></radialGradient></defs></svg>