<svg xmlns="http://www.w3.org/2000/svg" width="20" height="20" fill="currentColor"><path fill="url(#icon-0b9cb7e730f62066__icon-f50288910ce2b8f9__a)" d="M2 4.5A2.5 2.5 0 0 1 4.5 2h11A2.5 2.5 0 0 1 18 4.5v11a2.5 2.5 0 0 1-2.5 2.5h-11A2.5 2.5 0 0 1 2 15.5v-11Z"/><path fill="url(#icon-43f77dc9e5287abc__icon-048efb96d5bb59cc__b)" fill-opacity=".2" d="M2 4.5A2.5 2.5 0 0 1 4.5 2h11A2.5 2.5 0 0 1 18 4.5v11a2.5 2.5 0 0 1-2.5 2.5h-11A2.5 2.5 0 0 1 2 15.5v-11Z"/><path fill="url(#icon-8be23c5a9cdff88e__icon-eb919face7c24d2b__c)" fill-rule="evenodd" d="M15.5 3h-11A1.5 1.5 0 0 0 3 4.5v11A1.5 1.5 0 0 0 4.5 17h11a1.5 1.5 0 0 0 1.5-1.5v-11A1.5 1.5 0 0 0 15.5 3Zm-11-1A2.5 2.5 0 0 0 2 4.5v11A2.5 2.5 0 0 0 4.5 18h11a2.5 2.5 0 0 0 2.5-2.5v-11A2.5 2.5 0 0 0 15.5 2h-11Z" clip-rule="evenodd"/><path fill="url(#icon-04e806ad304725b6__icon-5783f9cb5869f86f__d)" fill-rule="evenodd" d="M5.5 14.25v-8.5a.75.75 0 0 1 1.5 0v8.5a.75.75 0 0 1-1.5 0Z" clip-rule="evenodd"/><path fill="url(#icon-2145ac277079eadd__icon-c0e948e5056a2c30__e)" fill-rule="evenodd" d="M9.25 14.25v-5.5a.75.75 0 0 1 1.5 0v5.5a.75.75 0 0 1-1.5 0Z" clip-rule="evenodd"/><path fill="url(#icon-e57ded0f56fad5fd__icon-3dfb64b9abe17540__f)" fill-rule="evenodd" d="M13.75 11a.75.75 0 0 1 .75.75v2.5a.75.75 0 0 1-1.5 0v-2.5a.75.75 0 0 1 .75-.75Z" clip-rule="evenodd"/><defs><linearGradient id="icon-0b9cb7e730f62066__icon-f50288910ce2b8f9__a" x1="6.444" x2="8.468" y1="2" y2="18.192" gradientUnits="userSpaceOnUse"><stop stop-color="#fff"/><stop offset="1" stop-color="#EBEBEB"/></linearGradient><linearGradient id="icon-8be23c5a9cdff88e__icon-eb919face7c24d2b__c" x1="7.167" x2="9.321" y1="2" y2="18.157" gradientUnits="userSpaceOnUse"><stop stop-color="#BBB"/><stop offset="1" stop-color="#888"/></linearGradient><linearGradient id="icon-04e806ad304725b6__icon-5783f9cb5869f86f__d" x1="5.5" x2="15.445" y1="5" y2="13.95" gradientUnits="userSpaceOnUse"><stop stop-color="#C28400"/><stop offset="1" stop-color="#A86500"/></linearGradient><linearGradient id="icon-2145ac277079eadd__icon-c0e948e5056a2c30__e" x1="5.5" x2="15.445" y1="5" y2="13.95" gradientUnits="userSpaceOnUse"><stop stop-color="#C28400"/><stop offset="1" stop-color="#A86500"/></linearGradient><linearGradient id="icon-e57ded0f56fad5fd__icon-3dfb64b9abe17540__f" x1="5.5" x2="15.445" y1="5" y2="13.95" gradientUnits="userSpaceOnUse"><stop stop-color="#C28400"/><stop offset="1" stop-color="#A86500"/></linearGradient><radialGradient id="icon-43f77dc9e5287abc__icon-048efb96d5bb59cc__b" cx="0" cy="0" r="1" gradientTransform="rotate(56.31 -2.206 9.727) scale(15.2234 13.1741)" gradientUnits="userSpaceOnUse"><stop offset=".177" stop-color="#fff"/><stop offset="1" stop-color="#B8B8B8"/></radialGradient></defs></svg>