<svg xmlns="http://www.w3.org/2000/svg" width="24" height="24" fill="currentColor"><path fill="url(#icon-c94f19f07cceacb7__icon-6c07d3b90d880a17__a)" d="M2 5a3 3 0 0 1 3-3h14a3 3 0 0 1 3 3v14a3 3 0 0 1-3 3H5a3 3 0 0 1-3-3V5Z"/><path fill="url(#icon-15b938ee7a797736__icon-def8c062740de961__b)" fill-opacity=".2" d="M2 5a3 3 0 0 1 3-3h14a3 3 0 0 1 3 3v14a3 3 0 0 1-3 3H5a3 3 0 0 1-3-3V5Z"/><path fill="url(#icon-9668e864d49d33d8__icon-c83ff879e07e52c6__c)" fill-rule="evenodd" d="M19 3H5a2 2 0 0 0-2 2v14a2 2 0 0 0 2 2h14a2 2 0 0 0 2-2V5a2 2 0 0 0-2-2ZM5 2a3 3 0 0 0-3 3v14a3 3 0 0 0 3 3h14a3 3 0 0 0 3-3V5a3 3 0 0 0-3-3H5Z" clip-rule="evenodd"/><path fill="url(#icon-95f4067a8b182166__icon-24359216d2f27bff__d)" fill-rule="evenodd" d="M7.5 17.25V6.75a.75.75 0 0 1 1.5 0v10.5a.75.75 0 0 1-1.5 0Zm3.75 0v-7.5a.75.75 0 0 1 1.5 0v7.5a.75.75 0 0 1-1.5 0ZM16.5 13a.75.75 0 0 0-1.5 0v4.25a.75.75 0 0 0 1.5 0V13Z" clip-rule="evenodd"/><defs><linearGradient id="icon-c94f19f07cceacb7__icon-6c07d3b90d880a17__a" x1="7.556" x2="10.085" y1="2" y2="22.239" gradientUnits="userSpaceOnUse"><stop stop-color="#fff"/><stop offset="1" stop-color="#EBEBEB"/></linearGradient><linearGradient id="icon-9668e864d49d33d8__icon-c83ff879e07e52c6__c" x1="8.458" x2="11.151" y1="2" y2="22.197" gradientUnits="userSpaceOnUse"><stop stop-color="#BBB"/><stop offset="1" stop-color="#888"/></linearGradient><linearGradient id="icon-95f4067a8b182166__icon-24359216d2f27bff__d" x1="7.5" x2="19.02" y1="6" y2="14.64" gradientUnits="userSpaceOnUse"><stop stop-color="#C28400"/><stop offset="1" stop-color="#A86500"/></linearGradient><radialGradient id="icon-15b938ee7a797736__icon-def8c062740de961__b" cx="0" cy="0" r="1" gradientTransform="rotate(56.31 -2.54 11.442) scale(19.0293 16.4677)" gradientUnits="userSpaceOnUse"><stop offset=".177" stop-color="#fff"/><stop offset="1" stop-color="#B8B8B8"/></radialGradient></defs></svg>