<svg xmlns="http://www.w3.org/2000/svg" width="40" height="40" fill="currentColor"><path fill="url(#icon-70bcf6d0f55a2942__icon-4242538967df01e6__a)" d="M4 8a4 4 0 0 1 4-4h24a4 4 0 0 1 4 4v24a4 4 0 0 1-4 4H8a4 4 0 0 1-4-4V8Z"/><path fill="url(#icon-dc0b139118bb2d4d__icon-c6342d3cd3764fa8__b)" fill-opacity=".2" d="M4 8a4 4 0 0 1 4-4h24a4 4 0 0 1 4 4v24a4 4 0 0 1-4 4H8a4 4 0 0 1-4-4V8Z"/><path fill="url(#icon-7b3712e074eecb56__icon-2bf0fd79d4c93d1a__c)" fill-rule="evenodd" d="M32 5H8a3 3 0 0 0-3 3v24a3 3 0 0 0 3 3h24a3 3 0 0 0 3-3V8a3 3 0 0 0-3-3ZM8 4a4 4 0 0 0-4 4v24a4 4 0 0 0 4 4h24a4 4 0 0 0 4-4V8a4 4 0 0 0-4-4H8Z" clip-rule="evenodd"/><path fill="url(#icon-59b8238f8ecc5f62__icon-c196a20213c1c3ba__d)" d="M14.219 11a.75.75 0 0 1 .75.75v16.5a.75.75 0 0 1-1.5 0v-16.5a.75.75 0 0 1 .75-.75Z"/><path fill="url(#icon-852ac7840bf2cce5__icon-0de4fcc0a34018e2__e)" d="M19.25 28.25v-11.5a.75.75 0 0 1 1.5 0v11.5a.75.75 0 0 1-1.5 0Z"/><path fill="url(#icon-7cf558d2bf095569__icon-2d3a84d59e8bb045__f)" d="M26.531 22.75a.75.75 0 1 0-1.5 0v5.5a.75.75 0 0 0 1.5 0v-5.5Z"/><defs><linearGradient id="icon-70bcf6d0f55a2942__icon-4242538967df01e6__a" x1="12.889" x2="16.937" y1="4" y2="36.383" gradientUnits="userSpaceOnUse"><stop stop-color="#fff"/><stop offset="1" stop-color="#EBEBEB"/></linearGradient><linearGradient id="icon-7b3712e074eecb56__icon-2bf0fd79d4c93d1a__c" x1="14.333" x2="18.642" y1="4" y2="36.314" gradientUnits="userSpaceOnUse"><stop stop-color="#BBB"/><stop offset="1" stop-color="#888"/></linearGradient><linearGradient id="icon-59b8238f8ecc5f62__icon-c196a20213c1c3ba__d" x1="13.469" x2="30.582" y1="11" y2="23.419" gradientUnits="userSpaceOnUse"><stop stop-color="#C28400"/><stop offset="1" stop-color="#A86500"/></linearGradient><linearGradient id="icon-852ac7840bf2cce5__icon-0de4fcc0a34018e2__e" x1="13.469" x2="30.582" y1="11" y2="23.419" gradientUnits="userSpaceOnUse"><stop stop-color="#C28400"/><stop offset="1" stop-color="#A86500"/></linearGradient><linearGradient id="icon-7cf558d2bf095569__icon-2d3a84d59e8bb045__f" x1="13.469" x2="30.582" y1="11" y2="23.419" gradientUnits="userSpaceOnUse"><stop stop-color="#C28400"/><stop offset="1" stop-color="#A86500"/></linearGradient><radialGradient id="icon-dc0b139118bb2d4d__icon-c6342d3cd3764fa8__b" cx="0" cy="0" r="1" gradientTransform="rotate(56.31 -4.411 19.454) scale(30.4469 26.3483)" gradientUnits="userSpaceOnUse"><stop offset=".177" stop-color="#fff"/><stop offset="1" stop-color="#B8B8B8"/></radialGradient></defs></svg>