<svg xmlns="http://www.w3.org/2000/svg" width="24" height="24" fill="currentColor"><path fill="url(#icon-ec2de086692b916a__icon-3359ce0a782eced7__a)" d="M2 5a3 3 0 0 1 3-3h14a3 3 0 0 1 3 3v14a3 3 0 0 1-3 3H5a3 3 0 0 1-3-3V5Z"/><path fill="url(#icon-6222560212a71795__icon-678eb8811f1ba01f__b)" fill-opacity=".2" d="M2 5a3 3 0 0 1 3-3h14a3 3 0 0 1 3 3v14a3 3 0 0 1-3 3H5a3 3 0 0 1-3-3V5Z"/><path fill="url(#icon-d7c592a195db1040__icon-0c046a95cc7879f2__c)" fill-rule="evenodd" d="M19 3H5a2 2 0 0 0-2 2v14a2 2 0 0 0 2 2h14a2 2 0 0 0 2-2V5a2 2 0 0 0-2-2ZM5 2a3 3 0 0 0-3 3v14a3 3 0 0 0 3 3h14a3 3 0 0 0 3-3V5a3 3 0 0 0-3-3H5Z" clip-rule="evenodd"/><path fill="url(#icon-05988bcee42d5cdb__icon-4e1e93ce9b299c2f__d)" fill-rule="evenodd" d="M7.5 17.25V6.75a.75.75 0 0 1 1.5 0v10.5a.75.75 0 0 1-1.5 0Zm3.75 0v-7.5a.75.75 0 0 1 1.5 0v7.5a.75.75 0 0 1-1.5 0ZM16.5 13a.75.75 0 0 0-1.5 0v4.25a.75.75 0 0 0 1.5 0V13Z" clip-rule="evenodd"/><path fill="#F5F5F5" d="M24 18a6 6 0 1 1-12 0 6 6 0 0 1 12 0Z"/><path fill="url(#icon-32afc5c739c98c1b__icon-cfe7f5c04b76b79f__e)" fill-rule="evenodd" d="M21.535 14.464a5 5 0 1 1-7.07 7.071 5 5 0 0 1 7.07-7.07Zm-.375 1.083a4 4 0 0 1-5.613 5.613l5.613-5.613Zm-.707-.707-5.613 5.613a4 4 0 0 1 5.613-5.613Z" clip-rule="evenodd"/><defs><linearGradient id="icon-ec2de086692b916a__icon-3359ce0a782eced7__a" x1="7.556" x2="10.085" y1="2" y2="22.239" gradientUnits="userSpaceOnUse"><stop stop-color="#fff"/><stop offset="1" stop-color="#EBEBEB"/></linearGradient><linearGradient id="icon-d7c592a195db1040__icon-0c046a95cc7879f2__c" x1="8.458" x2="11.151" y1="2" y2="22.197" gradientUnits="userSpaceOnUse"><stop stop-color="#BBB"/><stop offset="1" stop-color="#888"/></linearGradient><linearGradient id="icon-05988bcee42d5cdb__icon-4e1e93ce9b299c2f__d" x1="7.5" x2="19.02" y1="6" y2="14.64" gradientUnits="userSpaceOnUse"><stop stop-color="#C28400"/><stop offset="1" stop-color="#A86500"/></linearGradient><linearGradient id="icon-32afc5c739c98c1b__icon-cfe7f5c04b76b79f__e" x1="13" x2="23" y1="13" y2="23" gradientUnits="userSpaceOnUse"><stop stop-color="#C28400"/><stop offset="1" stop-color="#A86500"/></linearGradient><radialGradient id="icon-6222560212a71795__icon-678eb8811f1ba01f__b" cx="0" cy="0" r="1" gradientTransform="rotate(56.31 -2.54 11.442) scale(19.0293 16.4677)" gradientUnits="userSpaceOnUse"><stop offset=".177" stop-color="#fff"/><stop offset="1" stop-color="#B8B8B8"/></radialGradient></defs></svg>