<svg xmlns="http://www.w3.org/2000/svg" width="48" height="48" fill="currentColor"><path fill="url(#icon-87fabd2a82e19b81__icon-670f48d7efe2b6ad__a)" d="M5 10a5 5 0 0 1 5-5h28a5 5 0 0 1 5 5v28a5 5 0 0 1-5 5H10a5 5 0 0 1-5-5V10Z"/><path fill="url(#icon-bdf3e08737cf28fb__icon-7fca90abf7bd99d8__b)" fill-opacity=".2" d="M5 10a5 5 0 0 1 5-5h28a5 5 0 0 1 5 5v28a5 5 0 0 1-5 5H10a5 5 0 0 1-5-5V10Z"/><path fill="url(#icon-2242bc4ff8a1e538__icon-d333ef0990b9b4aa__c)" fill-rule="evenodd" d="M38 6H10a4 4 0 0 0-4 4v28a4 4 0 0 0 4 4h28a4 4 0 0 0 4-4V10a4 4 0 0 0-4-4ZM10 5a5 5 0 0 0-5 5v28a5 5 0 0 0 5 5h28a5 5 0 0 0 5-5V10a5 5 0 0 0-5-5H10Z" clip-rule="evenodd"/><path fill="url(#icon-be2f973597bdb881__icon-11eb46994b663eb0__d)" fill-rule="evenodd" d="M17.219 14a.75.75 0 0 1 .75.75v18.5a.75.75 0 0 1-1.5 0v-18.5a.75.75 0 0 1 .75-.75Zm6.031 19.25v-13.5a.75.75 0 0 1 1.5 0v13.5a.75.75 0 0 1-1.5 0Zm8.281-7.5a.75.75 0 1 0-1.5 0v7.5a.75.75 0 0 0 1.5 0v-7.5Z" clip-rule="evenodd"/><path fill="#F5F5F5" d="M47 37c0-5.523-4.477-10-10-10s-10 4.477-10 10 4.477 10 10 10 10-4.477 10-10Z"/><path fill="url(#icon-c27a0ae47c6a0119__icon-0d7605753f90b028__e)" fill-rule="evenodd" d="M37 28a9 9 0 1 1 0 18 9 9 0 0 1 0-18Zm6.021 3.733a8 8 0 0 1-11.289 11.289l11.29-11.29Zm-.704-.71L31.023 42.317a8 8 0 0 1 11.295-11.295Z" clip-rule="evenodd"/><defs><linearGradient id="icon-87fabd2a82e19b81__icon-670f48d7efe2b6ad__a" x1="15.556" x2="20.362" y1="5" y2="43.455" gradientUnits="userSpaceOnUse"><stop stop-color="#fff"/><stop offset="1" stop-color="#EBEBEB"/></linearGradient><linearGradient id="icon-2242bc4ff8a1e538__icon-d333ef0990b9b4aa__c" x1="17.271" x2="22.387" y1="5" y2="43.373" gradientUnits="userSpaceOnUse"><stop stop-color="#BBB"/><stop offset="1" stop-color="#888"/></linearGradient><linearGradient id="icon-be2f973597bdb881__icon-11eb46994b663eb0__d" x1="16.469" x2="35.691" y1="14" y2="28.477" gradientUnits="userSpaceOnUse"><stop stop-color="#C28400"/><stop offset="1" stop-color="#A86500"/></linearGradient><linearGradient id="icon-c27a0ae47c6a0119__icon-0d7605753f90b028__e" x1="28" x2="46" y1="28" y2="46" gradientUnits="userSpaceOnUse"><stop stop-color="#C28400"/><stop offset="1" stop-color="#A86500"/></linearGradient><radialGradient id="icon-bdf3e08737cf28fb__icon-7fca90abf7bd99d8__b" cx="0" cy="0" r="1" gradientTransform="rotate(56.31 -5.347 23.46) scale(36.1557 31.2886)" gradientUnits="userSpaceOnUse"><stop offset=".177" stop-color="#fff"/><stop offset="1" stop-color="#B8B8B8"/></radialGradient></defs></svg>