<svg xmlns="http://www.w3.org/2000/svg" width="40" height="40" fill="currentColor"><path fill="url(#icon-b654b063de6de2f6__icon-56781fe311031f60__a)" d="M4 8a4 4 0 0 1 4-4h24a4 4 0 0 1 4 4v24a4 4 0 0 1-4 4H8a4 4 0 0 1-4-4V8Z"/><path fill="url(#icon-5d827ca1bff92453__icon-5723a017c719777d__b)" fill-opacity=".2" d="M4 8a4 4 0 0 1 4-4h24a4 4 0 0 1 4 4v24a4 4 0 0 1-4 4H8a4 4 0 0 1-4-4V8Z"/><path fill="url(#icon-5f1a78375d571d04__icon-a37bab274c64259f__c)" fill-rule="evenodd" d="M32 5H8a3 3 0 0 0-3 3v24a3 3 0 0 0 3 3h24a3 3 0 0 0 3-3V8a3 3 0 0 0-3-3ZM8 4a4 4 0 0 0-4 4v24a4 4 0 0 0 4 4h24a4 4 0 0 0 4-4V8a4 4 0 0 0-4-4H8Z" clip-rule="evenodd"/><path fill="url(#icon-0ceaa19064a0da55__icon-fa08494c88f18364__d)" d="M14.219 11a.75.75 0 0 1 .75.75v16.5a.75.75 0 0 1-1.5 0v-16.5a.75.75 0 0 1 .75-.75Z"/><path fill="url(#icon-7bb8cc87c0afac67__icon-6203ec9cfc7486b4__e)" d="M19.25 28.25v-11.5a.75.75 0 0 1 1.5 0v11.5a.75.75 0 0 1-1.5 0Z"/><path fill="url(#icon-9eec7cfb0f4fa3b2__icon-193d9d976555082b__f)" d="M26.531 22.75a.75.75 0 1 0-1.5 0v5.5a.75.75 0 0 0 1.5 0v-5.5Z"/><path fill="#F5F5F5" d="M39 31a8 8 0 1 0-16 0 8 8 0 0 0 16 0Z"/><path fill="url(#icon-27221d9d8f867ea8__icon-fe8d23bee6ff1936__g)" fill-rule="evenodd" d="M31 24a7 7 0 1 1 0 14 7 7 0 0 1 0-14Zm4.526 3.061a6 6 0 0 1-8.465 8.465l8.465-8.465Zm-.717-.697-8.445 8.445a6 6 0 0 1 8.445-8.445Z" clip-rule="evenodd"/><defs><linearGradient id="icon-b654b063de6de2f6__icon-56781fe311031f60__a" x1="12.889" x2="16.937" y1="4" y2="36.383" gradientUnits="userSpaceOnUse"><stop stop-color="#fff"/><stop offset="1" stop-color="#EBEBEB"/></linearGradient><linearGradient id="icon-5f1a78375d571d04__icon-a37bab274c64259f__c" x1="14.333" x2="18.642" y1="4" y2="36.314" gradientUnits="userSpaceOnUse"><stop stop-color="#BBB"/><stop offset="1" stop-color="#888"/></linearGradient><linearGradient id="icon-0ceaa19064a0da55__icon-fa08494c88f18364__d" x1="13.469" x2="30.582" y1="11" y2="23.419" gradientUnits="userSpaceOnUse"><stop stop-color="#C28400"/><stop offset="1" stop-color="#A86500"/></linearGradient><linearGradient id="icon-7bb8cc87c0afac67__icon-6203ec9cfc7486b4__e" x1="13.469" x2="30.582" y1="11" y2="23.419" gradientUnits="userSpaceOnUse"><stop stop-color="#C28400"/><stop offset="1" stop-color="#A86500"/></linearGradient><linearGradient id="icon-9eec7cfb0f4fa3b2__icon-193d9d976555082b__f" x1="13.469" x2="30.582" y1="11" y2="23.419" gradientUnits="userSpaceOnUse"><stop stop-color="#C28400"/><stop offset="1" stop-color="#A86500"/></linearGradient><linearGradient id="icon-27221d9d8f867ea8__icon-fe8d23bee6ff1936__g" x1="24" x2="38" y1="24" y2="38" gradientUnits="userSpaceOnUse"><stop stop-color="#C28400"/><stop offset="1" stop-color="#A86500"/></linearGradient><radialGradient id="icon-5d827ca1bff92453__icon-5723a017c719777d__b" cx="0" cy="0" r="1" gradientTransform="rotate(56.31 -4.411 19.454) scale(30.4469 26.3483)" gradientUnits="userSpaceOnUse"><stop offset=".177" stop-color="#fff"/><stop offset="1" stop-color="#B8B8B8"/></radialGradient></defs></svg>