<svg xmlns="http://www.w3.org/2000/svg" width="20" height="20" fill="currentColor"><g clip-path="url(#icon-4c4c5da5977c8268__icon-09494cc6bb592774__a)"><mask id="icon-a1cecad165ab1e22__icon-66dbe15c879ed44f__b" width="20" height="20" x="0" y="0" maskUnits="userSpaceOnUse" style="mask-type:luminance"><path fill="#fff" d="M20 0H0v20h20V0Z"/></mask><g mask="url(#icon-a1cecad165ab1e22__icon-66dbe15c879ed44f__b)"><path fill="url(#icon-c2c1ee543585a007__icon-85184df43c7b1185__c)" d="M2 4.5A2.5 2.5 0 0 1 4.5 2h11A2.5 2.5 0 0 1 18 4.5v11a2.5 2.5 0 0 1-2.5 2.5h-11A2.5 2.5 0 0 1 2 15.5v-11Z"/><path fill="url(#icon-c70e2963a27ad7f0__icon-bfaa220c26b94f42__d)" fill-opacity=".2" d="M2 4.5A2.5 2.5 0 0 1 4.5 2h11A2.5 2.5 0 0 1 18 4.5v11a2.5 2.5 0 0 1-2.5 2.5h-11A2.5 2.5 0 0 1 2 15.5v-11Z"/><path fill="url(#icon-d2c0990141d25570__icon-284d807738e6623e__e)" fill-rule="evenodd" d="M15.5 3h-11A1.5 1.5 0 0 0 3 4.5v11A1.5 1.5 0 0 0 4.5 17h11a1.5 1.5 0 0 0 1.5-1.5v-11A1.5 1.5 0 0 0 15.5 3Zm-11-1A2.5 2.5 0 0 0 2 4.5v11A2.5 2.5 0 0 0 4.5 18h11a2.5 2.5 0 0 0 2.5-2.5v-11A2.5 2.5 0 0 0 15.5 2h-11Z" clip-rule="evenodd"/><path fill="url(#icon-08f2b0bfe690ee10__icon-702f23d1748109c0__f)" fill-rule="evenodd" d="M5.5 14.25v-8.5a.75.75 0 0 1 1.5 0v8.5a.75.75 0 0 1-1.5 0Z" clip-rule="evenodd"/><path fill="url(#icon-a1939fff17c59351__icon-95ad467e4c879f0d__g)" fill-rule="evenodd" d="M9.25 14.25v-5.5a.75.75 0 0 1 1.5 0v5.5a.75.75 0 0 1-1.5 0Z" clip-rule="evenodd"/><path fill="url(#icon-9658ac6503195aed__icon-ae13c8320805c241__h)" fill-rule="evenodd" d="M13.75 11a.75.75 0 0 1 .75.75v2.5a.75.75 0 0 1-1.5 0v-2.5a.75.75 0 0 1 .75-.75Z" clip-rule="evenodd"/><path fill="#F5F5F5" d="M20 15a5 5 0 1 0-10 0 5 5 0 0 0 10 0Z"/><path fill="url(#icon-c79c5e7fd4446b0e__icon-17c2ddbf216f6264__i)" fill-rule="evenodd" d="M17.465 13.29a3 3 0 0 1-4.176 4.176l4.176-4.177Zm-.7-.716-4.19 4.191a3 3 0 0 1 4.191-4.191ZM15 11a4 4 0 1 1 0 8 4 4 0 0 1 0-8Z" clip-rule="evenodd"/></g></g><defs><linearGradient id="icon-c2c1ee543585a007__icon-85184df43c7b1185__c" x1="6.444" x2="8.468" y1="2" y2="18.192" gradientUnits="userSpaceOnUse"><stop stop-color="#fff"/><stop offset="1" stop-color="#EBEBEB"/></linearGradient><linearGradient id="icon-d2c0990141d25570__icon-284d807738e6623e__e" x1="7.167" x2="9.321" y1="2" y2="18.157" gradientUnits="userSpaceOnUse"><stop stop-color="#BBB"/><stop offset="1" stop-color="#888"/></linearGradient><linearGradient id="icon-08f2b0bfe690ee10__icon-702f23d1748109c0__f" x1="5.5" x2="15.445" y1="5" y2="13.95" gradientUnits="userSpaceOnUse"><stop stop-color="#C28400"/><stop offset="1" stop-color="#A86500"/></linearGradient><linearGradient id="icon-a1939fff17c59351__icon-95ad467e4c879f0d__g" x1="5.5" x2="15.445" y1="5" y2="13.95" gradientUnits="userSpaceOnUse"><stop stop-color="#C28400"/><stop offset="1" stop-color="#A86500"/></linearGradient><linearGradient id="icon-9658ac6503195aed__icon-ae13c8320805c241__h" x1="5.5" x2="15.445" y1="5" y2="13.95" gradientUnits="userSpaceOnUse"><stop stop-color="#C28400"/><stop offset="1" stop-color="#A86500"/></linearGradient><linearGradient id="icon-c79c5e7fd4446b0e__icon-17c2ddbf216f6264__i" x1="11" x2="19" y1="11" y2="19" gradientUnits="userSpaceOnUse"><stop stop-color="#C28400"/><stop offset="1" stop-color="#A86500"/></linearGradient><radialGradient id="icon-c70e2963a27ad7f0__icon-bfaa220c26b94f42__d" cx="0" cy="0" r="1" gradientTransform="rotate(56.31 -2.206 9.727) scale(15.2234 13.1741)" gradientUnits="userSpaceOnUse"><stop offset=".177" stop-color="#fff"/><stop offset="1" stop-color="#B8B8B8"/></radialGradient><clipPath id="icon-4c4c5da5977c8268__icon-09494cc6bb592774__a"><path fill="#fff" d="M0 0h20v20H0z"/></clipPath></defs></svg>