<svg xmlns="http://www.w3.org/2000/svg" width="49" height="48" fill="currentColor"><path fill="url(#icon-720b2534e4f4bad8__icon-e45370a55c0741cb__a)" d="M5.5 10a5 5 0 0 1 5-5h28a5 5 0 0 1 5 5v28a5 5 0 0 1-5 5h-28a5 5 0 0 1-5-5V10Z"/><path fill="url(#icon-48824fcfc0bf6222__icon-49cc3784b75adef0__b)" fill-opacity=".2" d="M5.5 10a5 5 0 0 1 5-5h28a5 5 0 0 1 5 5v28a5 5 0 0 1-5 5h-28a5 5 0 0 1-5-5V10Z"/><path fill="url(#icon-0a406d7acd764027__icon-8822684694fd2958__c)" fill-rule="evenodd" d="M38.5 6h-28a4 4 0 0 0-4 4v28a4 4 0 0 0 4 4h28a4 4 0 0 0 4-4V10a4 4 0 0 0-4-4Zm-28-1a5 5 0 0 0-5 5v28a5 5 0 0 0 5 5h28a5 5 0 0 0 5-5V10a5 5 0 0 0-5-5h-28Z" clip-rule="evenodd"/><path fill="url(#icon-cb97d98a6873b23c__icon-5b3a94bc70f220fa__d)" d="M27.753 14a2.25 2.25 0 0 1 2.236 2h1.268A1.75 1.75 0 0 1 33 17.607l.006.143v3a3.25 3.25 0 0 1-3.066 3.245l-.21.006A5.758 5.758 0 0 1 25 27.95V29.5h1.753a3.25 3.25 0 0 1 3.244 3.066l.006.184v.5a.75.75 0 0 1-.649.743l-.101.007H19.25a.75.75 0 0 1-.744-.648l-.006-.102v-.5a3.25 3.25 0 0 1 3.065-3.245l.185-.005h1.75v-1.549a5.758 5.758 0 0 1-4.729-3.95L18.745 24a3.25 3.25 0 0 1-3.25-3.25v-3c0-.966.784-1.75 1.75-1.75h1.268a2.25 2.25 0 0 1 2.237-2h7.003Zm3.504 3.5h-1.254v4.983a1.75 1.75 0 0 0 1.497-1.579l.007-.154v-3a.25.25 0 0 0-.193-.243l-.057-.007Zm-12.757 0h-1.255a.25.25 0 0 0-.25.25v3a1.75 1.75 0 0 0 1.505 1.733V17.5Z"/><path fill="#F5F5F5" d="M47.5 37c0-5.523-4.477-10-10-10s-10 4.477-10 10 4.477 10 10 10 10-4.477 10-10Z"/><path fill="url(#icon-d173bde9ab77ceb1__icon-82b3928934e3bb1d__e)" fill-rule="evenodd" d="M37.5 28a9 9 0 1 1 0 18 9 9 0 0 1 0-18Zm6.021 3.733a8 8 0 0 1-11.289 11.289l11.29-11.29Zm-.704-.71L31.523 42.317a8 8 0 0 1 11.295-11.295Z" clip-rule="evenodd"/><defs><linearGradient id="icon-720b2534e4f4bad8__icon-e45370a55c0741cb__a" x1="16.056" x2="20.862" y1="5" y2="43.455" gradientUnits="userSpaceOnUse"><stop stop-color="#fff"/><stop offset="1" stop-color="#EBEBEB"/></linearGradient><linearGradient id="icon-0a406d7acd764027__icon-8822684694fd2958__c" x1="17.771" x2="22.887" y1="5" y2="43.373" gradientUnits="userSpaceOnUse"><stop stop-color="#BBB"/><stop offset="1" stop-color="#888"/></linearGradient><linearGradient id="icon-cb97d98a6873b23c__icon-5b3a94bc70f220fa__d" x1="15.495" x2="35.32" y1="14" y2="31.358" gradientUnits="userSpaceOnUse"><stop stop-color="#C28400"/><stop offset="1" stop-color="#A86500"/></linearGradient><linearGradient id="icon-d173bde9ab77ceb1__icon-82b3928934e3bb1d__e" x1="28.5" x2="46.5" y1="28" y2="46" gradientUnits="userSpaceOnUse"><stop stop-color="#C28400"/><stop offset="1" stop-color="#A86500"/></linearGradient><radialGradient id="icon-48824fcfc0bf6222__icon-49cc3784b75adef0__b" cx="0" cy="0" r="1" gradientTransform="rotate(56.31 -5.097 23.927) scale(36.1557 31.2886)" gradientUnits="userSpaceOnUse"><stop offset=".177" stop-color="#fff"/><stop offset="1" stop-color="#B8B8B8"/></radialGradient></defs></svg>