<svg xmlns="http://www.w3.org/2000/svg" width="41" height="40" fill="currentColor"><path fill="url(#icon-8cc2ec0ec868be98__icon-32d7414c1125601e__a)" d="M4.5 8a4 4 0 0 1 4-4h24a4 4 0 0 1 4 4v24a4 4 0 0 1-4 4h-24a4 4 0 0 1-4-4V8Z"/><path fill="url(#icon-36e0fedf799ad0ff__icon-28a86a4941b35a31__b)" fill-opacity=".2" d="M4.5 8a4 4 0 0 1 4-4h24a4 4 0 0 1 4 4v24a4 4 0 0 1-4 4h-24a4 4 0 0 1-4-4V8Z"/><path fill="url(#icon-1bee577f12e7d0d0__icon-8c0c01cd3dfbc73b__c)" fill-rule="evenodd" d="M32.5 5h-24a3 3 0 0 0-3 3v24a3 3 0 0 0 3 3h24a3 3 0 0 0 3-3V8a3 3 0 0 0-3-3Zm-24-1a4 4 0 0 0-4 4v24a4 4 0 0 0 4 4h24a4 4 0 0 0 4-4V8a4 4 0 0 0-4-4h-24Z" clip-rule="evenodd"/><path fill="url(#icon-7b529eb6f0557600__icon-12e3ec09573c122d__d)" d="M16 14a2 2 0 0 1 2-1.998h5A2 2 0 0 1 25 14h.995a1.5 1.5 0 0 1 1.5 1.5v1.505a2.996 2.996 0 0 1-2.601 2.97A4.503 4.503 0 0 1 21 23.472v1.495h2.003a2 2 0 0 1 2 2v.5a.5.5 0 0 1-.5.5h-8a.5.5 0 0 1-.5-.5v-.5a2 2 0 0 1 2-2H20v-1.495a4.503 4.503 0 0 1-3.895-3.501 3.006 3.006 0 0 1-2.61-2.974V15.5a1.5 1.5 0 0 1 1.5-1.5H16Zm9 4.937a1.996 1.996 0 0 0 1.495-1.932V15.5a.5.5 0 0 0-.5-.5H25v3.937ZM16 15h-1.005a.5.5 0 0 0-.5.5v1.498c0 .93.64 1.713 1.505 1.936V15Z"/><path fill="#F5F5F5" d="M39.5 31a8 8 0 1 0-16 0 8 8 0 0 0 16 0Z"/><path fill="url(#icon-ed166c2b7b759f17__icon-fb0f1168cc65997c__e)" fill-rule="evenodd" d="M31.5 24a7 7 0 1 1 0 14 7 7 0 0 1 0-14Zm4.526 3.061a6 6 0 0 1-8.465 8.465l8.465-8.465Zm-.717-.697-8.445 8.445a6 6 0 0 1 8.445-8.445Z" clip-rule="evenodd"/><defs><linearGradient id="icon-8cc2ec0ec868be98__icon-32d7414c1125601e__a" x1="13.389" x2="17.437" y1="4" y2="36.383" gradientUnits="userSpaceOnUse"><stop stop-color="#fff"/><stop offset="1" stop-color="#EBEBEB"/></linearGradient><linearGradient id="icon-1bee577f12e7d0d0__icon-8c0c01cd3dfbc73b__c" x1="14.833" x2="19.142" y1="4" y2="36.314" gradientUnits="userSpaceOnUse"><stop stop-color="#BBB"/><stop offset="1" stop-color="#888"/></linearGradient><linearGradient id="icon-7b529eb6f0557600__icon-12e3ec09573c122d__d" x1="13.495" x2="29.325" y1="12.002" y2="25.882" gradientUnits="userSpaceOnUse"><stop stop-color="#C28400"/><stop offset="1" stop-color="#A86500"/></linearGradient><linearGradient id="icon-ed166c2b7b759f17__icon-fb0f1168cc65997c__e" x1="24.5" x2="38.5" y1="24" y2="38" gradientUnits="userSpaceOnUse"><stop stop-color="#C28400"/><stop offset="1" stop-color="#A86500"/></linearGradient><radialGradient id="icon-36e0fedf799ad0ff__icon-28a86a4941b35a31__b" cx="0" cy="0" r="1" gradientTransform="rotate(56.31 -4.161 19.921) scale(30.4469 26.3483)" gradientUnits="userSpaceOnUse"><stop offset=".177" stop-color="#fff"/><stop offset="1" stop-color="#B8B8B8"/></radialGradient></defs></svg>