<svg xmlns="http://www.w3.org/2000/svg" width="20" height="20" fill="currentColor"><path fill="url(#icon-000b95e7ccb51662__icon-9d1418721c7c3ba1__a)" d="M2 4.5A2.5 2.5 0 0 1 4.5 2h11A2.5 2.5 0 0 1 18 4.5v11a2.5 2.5 0 0 1-2.5 2.5h-11A2.5 2.5 0 0 1 2 15.5v-11Z"/><path fill="url(#icon-4281448ae30a9453__icon-4b5e9682fae39279__b)" fill-opacity=".2" d="M2 4.5A2.5 2.5 0 0 1 4.5 2h11A2.5 2.5 0 0 1 18 4.5v11a2.5 2.5 0 0 1-2.5 2.5h-11A2.5 2.5 0 0 1 2 15.5v-11Z"/><path fill="url(#icon-a69d1064261d3055__icon-43ca770a3323f4dd__c)" fill-rule="evenodd" d="M15.5 3h-11A1.5 1.5 0 0 0 3 4.5v11A1.5 1.5 0 0 0 4.5 17h11a1.5 1.5 0 0 0 1.5-1.5v-11A1.5 1.5 0 0 0 15.5 3Zm-11-1A2.5 2.5 0 0 0 2 4.5v11A2.5 2.5 0 0 0 4.5 18h11a2.5 2.5 0 0 0 2.5-2.5v-11A2.5 2.5 0 0 0 15.5 2h-11Z" clip-rule="evenodd"/><path fill="url(#icon-2b966de7b0998142__icon-c53ac5d32f4bcc69__d)" d="M5.922 5.5a.5.5 0 1 0 0 1h.038a.5.5 0 0 1 .478.354l.263.862.719 2.555a1 1 0 0 0 .963.729h3.856a1 1 0 0 0 .906-.576l1.104-2.356A.75.75 0 0 0 13.57 7H7.528l-.134-.438A1.5 1.5 0 0 0 5.96 5.5h-.038Z"/><path fill="url(#icon-0e5532599fb10265__icon-064cffe6b6cc3b7e__e)" d="M8.938 14.5a1.25 1.25 0 1 0 0-2.5 1.25 1.25 0 0 0 0 2.5Z"/><path fill="url(#icon-012614a59bee4a53__icon-e4e16f69ba60939d__f)" d="M13.125 13.25a1.25 1.25 0 1 1-2.5 0 1.25 1.25 0 0 1 2.5 0Z"/><defs><linearGradient id="icon-000b95e7ccb51662__icon-9d1418721c7c3ba1__a" x1="6.444" x2="8.468" y1="2" y2="18.192" gradientUnits="userSpaceOnUse"><stop stop-color="#fff"/><stop offset="1" stop-color="#EBEBEB"/></linearGradient><linearGradient id="icon-a69d1064261d3055__icon-43ca770a3323f4dd__c" x1="7.167" x2="9.321" y1="2" y2="18.157" gradientUnits="userSpaceOnUse"><stop stop-color="#BBB"/><stop offset="1" stop-color="#888"/></linearGradient><linearGradient id="icon-2b966de7b0998142__icon-c53ac5d32f4bcc69__d" x1="5.422" x2="14.421" y1="5.5" y2="14.399" gradientUnits="userSpaceOnUse"><stop stop-color="#7751B8"/><stop offset="1" stop-color="#5A409C"/></linearGradient><linearGradient id="icon-0e5532599fb10265__icon-064cffe6b6cc3b7e__e" x1="5.422" x2="14.421" y1="5.5" y2="14.399" gradientUnits="userSpaceOnUse"><stop stop-color="#7751B8"/><stop offset="1" stop-color="#5A409C"/></linearGradient><linearGradient id="icon-012614a59bee4a53__icon-e4e16f69ba60939d__f" x1="5.422" x2="14.421" y1="5.5" y2="14.399" gradientUnits="userSpaceOnUse"><stop stop-color="#7751B8"/><stop offset="1" stop-color="#5A409C"/></linearGradient><radialGradient id="icon-4281448ae30a9453__icon-4b5e9682fae39279__b" cx="0" cy="0" r="1" gradientTransform="rotate(56.31 -2.206 9.727) scale(15.2234 13.1741)" gradientUnits="userSpaceOnUse"><stop offset=".177" stop-color="#fff"/><stop offset="1" stop-color="#B8B8B8"/></radialGradient></defs></svg>