<svg xmlns="http://www.w3.org/2000/svg" width="48" height="48" fill="currentColor"><path fill="url(#icon-39b00374647cff5d__icon-374ec44899dca8c8__a)" d="M5 10a5 5 0 0 1 5-5h28a5 5 0 0 1 5 5v28a5 5 0 0 1-5 5H10a5 5 0 0 1-5-5V10Z"/><path fill="url(#icon-a10db6d57744775e__icon-7ed5af11f7695907__b)" fill-opacity=".2" d="M5 10a5 5 0 0 1 5-5h28a5 5 0 0 1 5 5v28a5 5 0 0 1-5 5H10a5 5 0 0 1-5-5V10Z"/><path fill="url(#icon-76d996599288e99d__icon-d66d026d7dec85e2__c)" fill-rule="evenodd" d="M38 6H10a4 4 0 0 0-4 4v28a4 4 0 0 0 4 4h28a4 4 0 0 0 4-4V10a4 4 0 0 0-4-4ZM10 5a5 5 0 0 0-5 5v28a5 5 0 0 0 5 5h28a5 5 0 0 0 5-5V10a5 5 0 0 0-5-5H10Z" clip-rule="evenodd"/><path fill="url(#icon-9a55b064c9cd098f__icon-aa953ac4bacee134__d)" d="M14.5 16.25a.75.75 0 0 1 .75-.75h.558c.95 0 1.52.639 1.845 1.233.217.396.374.855.497 1.271.033-.003.067-.004.1-.004h12.498c.83 0 1.43.794 1.202 1.593l-1.828 6.409a2.75 2.75 0 0 1-2.644 1.996H21.53a2.75 2.75 0 0 1-2.652-2.022l-.76-2.771-1.26-4.25-.001-.007c-.156-.567-.302-1.098-.52-1.494-.21-.385-.378-.454-.529-.454h-.558a.75.75 0 0 1-.75-.75ZM21 33a2 2 0 1 0 0-4 2 2 0 0 0 0 4Zm7 0a2 2 0 1 0 0-4 2 2 0 0 0 0 4Z"/><defs><linearGradient id="icon-39b00374647cff5d__icon-374ec44899dca8c8__a" x1="15.556" x2="20.362" y1="5" y2="43.455" gradientUnits="userSpaceOnUse"><stop stop-color="#fff"/><stop offset="1" stop-color="#EBEBEB"/></linearGradient><linearGradient id="icon-76d996599288e99d__icon-d66d026d7dec85e2__c" x1="17.271" x2="22.387" y1="5" y2="43.373" gradientUnits="userSpaceOnUse"><stop stop-color="#BBB"/><stop offset="1" stop-color="#888"/></linearGradient><linearGradient id="icon-9a55b064c9cd098f__icon-aa953ac4bacee134__d" x1="14.5" x2="32" y1="15.5" y2="32.999" gradientUnits="userSpaceOnUse"><stop stop-color="#7751B8"/><stop offset="1" stop-color="#5A409C"/></linearGradient><radialGradient id="icon-a10db6d57744775e__icon-7ed5af11f7695907__b" cx="0" cy="0" r="1" gradientTransform="rotate(56.31 -5.347 23.46) scale(36.1557 31.2886)" gradientUnits="userSpaceOnUse"><stop offset=".177" stop-color="#fff"/><stop offset="1" stop-color="#B8B8B8"/></radialGradient></defs></svg>