<svg xmlns="http://www.w3.org/2000/svg" width="24" height="24" fill="currentColor"><path fill="url(#icon-b3e93be00caa2023__icon-33606ce4205b372d__a)" d="M2 5a3 3 0 0 1 3-3h14a3 3 0 0 1 3 3v14a3 3 0 0 1-3 3H5a3 3 0 0 1-3-3V5Z"/><path fill="url(#icon-d21f0920ff9d0d4f__icon-46a11c65e4dbff75__b)" fill-opacity=".2" d="M2 5a3 3 0 0 1 3-3h14a3 3 0 0 1 3 3v14a3 3 0 0 1-3 3H5a3 3 0 0 1-3-3V5Z"/><path fill="url(#icon-3937ea1bbd24a20c__icon-8e86aa92e00d5c44__c)" fill-rule="evenodd" d="M19 3H5a2 2 0 0 0-2 2v14a2 2 0 0 0 2 2h14a2 2 0 0 0 2-2V5a2 2 0 0 0-2-2ZM5 2a3 3 0 0 0-3 3v14a3 3 0 0 0 3 3h14a3 3 0 0 0 3-3V5a3 3 0 0 0-3-3H5Z" clip-rule="evenodd"/><path fill="url(#icon-2cbf392de2298293__icon-2aeb5be62333ab7a__d)" d="M6.5 7.034a.5.5 0 0 1 .5-.5h.037a1.5 1.5 0 0 1 1.435 1.063L8.9 9h7.08a1 1 0 0 1 .918 1.396l-1.165 2.699a1.5 1.5 0 0 1-1.377.905h-3.899a1.5 1.5 0 0 1-1.452-1.124l-.167-.645-1.321-4.342a.5.5 0 0 0-.479-.355H7a.5.5 0 0 1-.5-.5Z"/><path fill="url(#icon-fdd22d1bc8a8edf3__icon-edbb6be1cc8d378f__e)" d="M11.75 16.375a1.375 1.375 0 1 1-2.75 0 1.375 1.375 0 0 1 2.75 0Z"/><path fill="url(#icon-cb97c9af40e39b1d__icon-4a5002828d3c0cc3__f)" d="M15.5 16.375a1.375 1.375 0 1 1-2.75 0 1.375 1.375 0 0 1 2.75 0Z"/><defs><linearGradient id="icon-b3e93be00caa2023__icon-33606ce4205b372d__a" x1="7.556" x2="10.085" y1="2" y2="22.239" gradientUnits="userSpaceOnUse"><stop stop-color="#fff"/><stop offset="1" stop-color="#EBEBEB"/></linearGradient><linearGradient id="icon-3937ea1bbd24a20c__icon-8e86aa92e00d5c44__c" x1="8.458" x2="11.151" y1="2" y2="22.197" gradientUnits="userSpaceOnUse"><stop stop-color="#BBB"/><stop offset="1" stop-color="#888"/></linearGradient><linearGradient id="icon-2cbf392de2298293__icon-2aeb5be62333ab7a__d" x1="6.5" x2="17.69" y1="6.534" y2="16.99" gradientUnits="userSpaceOnUse"><stop stop-color="#7751B8"/><stop offset="1" stop-color="#5A409C"/></linearGradient><linearGradient id="icon-fdd22d1bc8a8edf3__icon-edbb6be1cc8d378f__e" x1="6.5" x2="17.69" y1="6.534" y2="16.99" gradientUnits="userSpaceOnUse"><stop stop-color="#7751B8"/><stop offset="1" stop-color="#5A409C"/></linearGradient><linearGradient id="icon-cb97c9af40e39b1d__icon-4a5002828d3c0cc3__f" x1="6.5" x2="17.69" y1="6.534" y2="16.99" gradientUnits="userSpaceOnUse"><stop stop-color="#7751B8"/><stop offset="1" stop-color="#5A409C"/></linearGradient><radialGradient id="icon-d21f0920ff9d0d4f__icon-46a11c65e4dbff75__b" cx="0" cy="0" r="1" gradientTransform="rotate(56.31 -2.54 11.442) scale(19.0293 16.4677)" gradientUnits="userSpaceOnUse"><stop offset=".177" stop-color="#fff"/><stop offset="1" stop-color="#B8B8B8"/></radialGradient></defs></svg>