<svg xmlns="http://www.w3.org/2000/svg" width="32" height="32" fill="currentColor"><path fill="url(#icon-a77ee0460be779f5__icon-41707d0a98271621__a)" d="M3 6.5A3.5 3.5 0 0 1 6.5 3h19A3.5 3.5 0 0 1 29 6.5v19a3.5 3.5 0 0 1-3.5 3.5h-19A3.5 3.5 0 0 1 3 25.5v-19Z"/><path fill="url(#icon-efd568f94e12a62e__icon-d222f855fac43af6__b)" fill-opacity=".2" d="M3 6.5A3.5 3.5 0 0 1 6.5 3h19A3.5 3.5 0 0 1 29 6.5v19a3.5 3.5 0 0 1-3.5 3.5h-19A3.5 3.5 0 0 1 3 25.5v-19Z"/><path fill="url(#icon-6482e2c15aeaa40e__icon-170232b1cf3ebdb2__c)" fill-rule="evenodd" d="M25.5 4h-19A2.5 2.5 0 0 0 4 6.5v19A2.5 2.5 0 0 0 6.5 28h19a2.5 2.5 0 0 0 2.5-2.5v-19A2.5 2.5 0 0 0 25.5 4Zm-19-1A3.5 3.5 0 0 0 3 6.5v19A3.5 3.5 0 0 0 6.5 29h19a3.5 3.5 0 0 0 3.5-3.5v-19A3.5 3.5 0 0 0 25.5 3h-19Z" clip-rule="evenodd"/><path fill="url(#icon-44b2bf5e97a8c1ae__icon-96ba3bcc6ce44ff7__d)" d="M10.5 10a.5.5 0 0 0 0 1h.246a.5.5 0 0 1 .48.363l1.586 5.55A1.5 1.5 0 0 0 14.254 18h4.569a1.5 1.5 0 0 0 1.393-.943l1.474-3.686A1 1 0 0 0 20.762 12h-8.313l-.261-.912A1.5 1.5 0 0 0 10.746 10H10.5Zm4 12a1.5 1.5 0 1 0 0-3 1.5 1.5 0 0 0 0 3Zm4 0a1.5 1.5 0 1 0 0-3 1.5 1.5 0 0 0 0 3Z"/><defs><linearGradient id="icon-a77ee0460be779f5__icon-41707d0a98271621__a" x1="10.222" x2="13.511" y1="3" y2="29.311" gradientUnits="userSpaceOnUse"><stop stop-color="#fff"/><stop offset="1" stop-color="#EBEBEB"/></linearGradient><linearGradient id="icon-6482e2c15aeaa40e__icon-170232b1cf3ebdb2__c" x1="11.396" x2="14.897" y1="3" y2="29.256" gradientUnits="userSpaceOnUse"><stop stop-color="#BBB"/><stop offset="1" stop-color="#888"/></linearGradient><linearGradient id="icon-44b2bf5e97a8c1ae__icon-96ba3bcc6ce44ff7__d" x1="10" x2="21.998" y1="10" y2="21.76" gradientUnits="userSpaceOnUse"><stop stop-color="#7751B8"/><stop offset="1" stop-color="#5A409C"/></linearGradient><radialGradient id="icon-efd568f94e12a62e__icon-d222f855fac43af6__b" cx="0" cy="0" r="1" gradientTransform="rotate(56.31 -3.476 15.448) scale(24.7381 21.408)" gradientUnits="userSpaceOnUse"><stop offset=".177" stop-color="#fff"/><stop offset="1" stop-color="#B8B8B8"/></radialGradient></defs></svg>