<svg xmlns="http://www.w3.org/2000/svg" width="32" height="32" fill="currentColor"><path fill="url(#icon-2206dbad33b115a6__icon-a757a6418d185e8e__a)" fill-rule="evenodd" d="M6.5 5a.5.5 0 0 0-.5.5V19h19.513l-4.916-6.704a.5.5 0 0 1 0-.592L25.513 5H6.5ZM6 20v7.5a.5.5 0 0 1-1 0v-22A1.5 1.5 0 0 1 6.5 4h20a.5.5 0 0 1 .403.796L21.62 12l5.283 7.204A.5.5 0 0 1 26.5 20H6Z" clip-rule="evenodd"/><defs><linearGradient id="icon-2206dbad33b115a6__icon-a757a6418d185e8e__a" x1="5" x2="28.909" y1="4" y2="25.917" gradientUnits="userSpaceOnUse"><stop stop-color="#209782"/><stop offset="1" stop-color="#0C695A"/></linearGradient></defs></svg>