<svg xmlns="http://www.w3.org/2000/svg" width="20" height="20" fill="currentColor"><path fill="url(#icon-193371b28e99412b__icon-ec6bba7d6ac3d397__a)" fill-rule="evenodd" d="M4.5 3a.5.5 0 0 0-.5.5V12h11.617L13.07 7.757a.5.5 0 0 1 0-.514L15.617 3H4.5ZM4 13v4.5a.5.5 0 0 1-1 0v-14A1.5 1.5 0 0 1 4.5 2h12a.5.5 0 0 1 .429.757L14.083 7.5l2.846 4.743A.5.5 0 0 1 16.5 13H4Z" clip-rule="evenodd"/><defs><linearGradient id="icon-193371b28e99412b__icon-ec6bba7d6ac3d397__a" x1="3" x2="18.858" y1="2" y2="15.876" gradientUnits="userSpaceOnUse"><stop stop-color="#209782"/><stop offset="1" stop-color="#0C695A"/></linearGradient></defs></svg>