<svg xmlns="http://www.w3.org/2000/svg" width="20" height="20" fill="currentColor"><path d="M5 3a2 2 0 0 0-2 2v10a2 2 0 0 0 2 2v-5.5A1.5 1.5 0 0 1 6.5 10h6.129c.504-.61 1.267-1 2.121-1H17V6.621a2 2 0 0 0-.586-1.414l-1.621-1.621A2 2 0 0 0 13.379 3H13v3.5A1.5 1.5 0 0 1 11.5 8h-4A1.5 1.5 0 0 1 6 6.5V3H5Z"/><path d="M12.104 11c-.068.238-.104.49-.104.75V17H6v-5.5a.5.5 0 0 1 .5-.5h5.604ZM12 3H7v3.5a.5.5 0 0 0 .5.5h4a.5.5 0 0 0 .5-.5V3ZM13 11.75c0-.966.784-1.75 1.75-1.75h2.5c.966 0 1.75.784 1.75 1.75v5.5A1.75 1.75 0 0 1 17.25 19h-2.5A1.75 1.75 0 0 1 13 17.25v-5.5ZM15.5 16a.5.5 0 0 0 0 1h1a.5.5 0 0 0 0-1h-1Z"/></svg>