<svg xmlns="http://www.w3.org/2000/svg" width="48" height="48" fill="currentColor"><path fill="url(#icon-aa8de09d643fc51f__icon-5a7b20035bb1a14e__a)" d="M5 10a5 5 0 0 1 5-5h28a5 5 0 0 1 5 5v28a5 5 0 0 1-5 5H10a5 5 0 0 1-5-5V10Z"/><path fill="url(#icon-30733ca5c485592e__icon-6216f5b44605f589__b)" fill-opacity=".2" d="M5 10a5 5 0 0 1 5-5h28a5 5 0 0 1 5 5v28a5 5 0 0 1-5 5H10a5 5 0 0 1-5-5V10Z"/><path fill="url(#icon-a9f62ee3ad93357e__icon-5a90a7c6211a3112__c)" fill-rule="evenodd" d="M38 6H10a4 4 0 0 0-4 4v28a4 4 0 0 0 4 4h28a4 4 0 0 0 4-4V10a4 4 0 0 0-4-4ZM10 5a5 5 0 0 0-5 5v28a5 5 0 0 0 5 5h28a5 5 0 0 0 5-5V10a5 5 0 0 0-5-5H10Z" clip-rule="evenodd"/><path fill="url(#icon-f8dd9f5028dd92b0__icon-57403ff5f672adc9__d)" d="M30 17a2 2 0 0 0-2-2h-8a2 2 0 0 0-2 2v3a2 2 0 0 0 2 2h1.387l-3.556 5H17a2 2 0 0 0-2 2v2a2 2 0 0 0 2 2h3a2 2 0 0 0 2-2v-2a2 2 0 0 0-2-2h-.328l3.555-5h1.546l3.555 5H28a2 2 0 0 0-2 2v2a2 2 0 0 0 2 2h3a2 2 0 0 0 2-2v-2a2 2 0 0 0-2-2h-.831l-3.556-5H28a2 2 0 0 0 2-2v-3Z"/><defs><linearGradient id="icon-aa8de09d643fc51f__icon-5a7b20035bb1a14e__a" x1="15.556" x2="20.362" y1="5" y2="43.455" gradientUnits="userSpaceOnUse"><stop stop-color="#fff"/><stop offset="1" stop-color="#EBEBEB"/></linearGradient><linearGradient id="icon-a9f62ee3ad93357e__icon-5a90a7c6211a3112__c" x1="17.271" x2="22.387" y1="5" y2="43.373" gradientUnits="userSpaceOnUse"><stop stop-color="#BBB"/><stop offset="1" stop-color="#888"/></linearGradient><linearGradient id="icon-f8dd9f5028dd92b0__icon-57403ff5f672adc9__d" x1="15" x2="33" y1="15" y2="33" gradientUnits="userSpaceOnUse"><stop stop-color="#4BA446"/><stop offset="1" stop-color="#3F7D35"/></linearGradient><radialGradient id="icon-30733ca5c485592e__icon-6216f5b44605f589__b" cx="0" cy="0" r="1" gradientTransform="rotate(56.31 -5.347 23.46) scale(36.1557 31.2886)" gradientUnits="userSpaceOnUse"><stop offset=".177" stop-color="#fff"/><stop offset="1" stop-color="#B8B8B8"/></radialGradient></defs></svg>