<svg xmlns="http://www.w3.org/2000/svg" width="16" height="16" fill="currentColor"><path d="M2 3.5A1.5 1.5 0 0 1 3.5 2h2A1.5 1.5 0 0 1 7 3.5V4h2v-.5A1.5 1.5 0 0 1 10.5 2h2A1.5 1.5 0 0 1 14 3.5v2A1.5 1.5 0 0 1 12.5 7H12v2h.5a1.5 1.5 0 0 1 1.5 1.5v2a1.5 1.5 0 0 1-1.5 1.5h-2A1.5 1.5 0 0 1 9 12.5v-2A1.5 1.5 0 0 1 10.5 9h.5V7h-.5A1.5 1.5 0 0 1 9 5.5V5H7v.5A1.5 1.5 0 0 1 5.5 7h-2A1.5 1.5 0 0 1 2 5.5v-2ZM3.5 3a.5.5 0 0 0-.5.5v2a.5.5 0 0 0 .5.5h2a.5.5 0 0 0 .5-.5v-2a.5.5 0 0 0-.5-.5h-2Zm7 0a.5.5 0 0 0-.5.5v2a.5.5 0 0 0 .5.5h2a.5.5 0 0 0 .5-.5v-2a.5.5 0 0 0-.5-.5h-2Zm-.5 7.5v2a.5.5 0 0 0 .5.5h2a.5.5 0 0 0 .5-.5v-2a.5.5 0 0 0-.5-.5h-2a.5.5 0 0 0-.5.5Z"/></svg>