<svg xmlns="http://www.w3.org/2000/svg" width="24" height="24" fill="currentColor"><path fill="url(#icon-9092464f75506da0__icon-64d13bf59def513f__a)" d="M2 5a3 3 0 0 1 3-3h14a3 3 0 0 1 3 3v14a3 3 0 0 1-3 3H5a3 3 0 0 1-3-3V5Z"/><path fill="url(#icon-415e97e214e4169d__icon-c6decef09b3a8f25__b)" fill-opacity=".2" d="M2 5a3 3 0 0 1 3-3h14a3 3 0 0 1 3 3v14a3 3 0 0 1-3 3H5a3 3 0 0 1-3-3V5Z"/><path fill="url(#icon-b54e173da669c6f1__icon-447babd99e10e53f__c)" fill-rule="evenodd" d="M19 3H5a2 2 0 0 0-2 2v14a2 2 0 0 0 2 2h14a2 2 0 0 0 2-2V5a2 2 0 0 0-2-2ZM5 2a3 3 0 0 0-3 3v14a3 3 0 0 0 3 3h14a3 3 0 0 0 3-3V5a3 3 0 0 0-3-3H5Z" clip-rule="evenodd"/><path fill="url(#icon-9f2ed49936232765__icon-00cec58507a284f2__d)" d="M9 8.002a1 1 0 0 1 1-1h4a1 1 0 0 1 1 1v1.5a1 1 0 0 1-1 1h-.48l1.893 2.998H16a1 1 0 0 1 1 1V16a1 1 0 0 1-1 1h-2a1 1 0 0 1-1-1v-1.5a1 1 0 0 1 1-1h.23l-1.893-2.998h-.674L9.77 13.5H10a1 1 0 0 1 1 1V16a1 1 0 0 1-1 1H8a1 1 0 0 1-1-1v-1.5a1 1 0 0 1 1-1h.587l1.893-2.998H10a1 1 0 0 1-1-1v-1.5Z"/><defs><linearGradient id="icon-9092464f75506da0__icon-64d13bf59def513f__a" x1="7.556" x2="10.085" y1="2" y2="22.239" gradientUnits="userSpaceOnUse"><stop stop-color="#fff"/><stop offset="1" stop-color="#EBEBEB"/></linearGradient><linearGradient id="icon-b54e173da669c6f1__icon-447babd99e10e53f__c" x1="8.458" x2="11.151" y1="2" y2="22.197" gradientUnits="userSpaceOnUse"><stop stop-color="#BBB"/><stop offset="1" stop-color="#888"/></linearGradient><linearGradient id="icon-9f2ed49936232765__icon-00cec58507a284f2__d" x1="7" x2="16.998" y1="7.002" y2="17.002" gradientUnits="userSpaceOnUse"><stop stop-color="#4BA446"/><stop offset="1" stop-color="#3F7D35"/></linearGradient><radialGradient id="icon-415e97e214e4169d__icon-c6decef09b3a8f25__b" cx="0" cy="0" r="1" gradientTransform="rotate(56.31 -2.54 11.442) scale(19.0293 16.4677)" gradientUnits="userSpaceOnUse"><stop offset=".177" stop-color="#fff"/><stop offset="1" stop-color="#B8B8B8"/></radialGradient></defs></svg>