<svg xmlns="http://www.w3.org/2000/svg" width="40" height="40" fill="currentColor"><path fill="url(#icon-62657013d6a5b0a6__icon-c27d7c573fe589dc__a)" d="M4 8a4 4 0 0 1 4-4h24a4 4 0 0 1 4 4v24a4 4 0 0 1-4 4H8a4 4 0 0 1-4-4V8Z"/><path fill="url(#icon-83dbc4985d7b3a60__icon-68c4c8ea5a1da322__b)" fill-opacity=".2" d="M4 8a4 4 0 0 1 4-4h24a4 4 0 0 1 4 4v24a4 4 0 0 1-4 4H8a4 4 0 0 1-4-4V8Z"/><path fill="url(#icon-7a0ea4791dd229d6__icon-ddacce3291acab3a__c)" fill-rule="evenodd" d="M32 5H8a3 3 0 0 0-3 3v24a3 3 0 0 0 3 3h24a3 3 0 0 0 3-3V8a3 3 0 0 0-3-3ZM8 4a4 4 0 0 0-4 4v24a4 4 0 0 0 4 4h24a4 4 0 0 0 4-4V8a4 4 0 0 0-4-4H8Z" clip-rule="evenodd"/><path fill="url(#icon-0b2f58ae108f925a__icon-34f3b51dcbf9fbba__d)" d="M24 14.125c0-.621-.504-1.125-1.125-1.125h-5.75c-.621 0-1.125.504-1.125 1.125v2.75c0 .621.504 1.125 1.125 1.125h.99l-2.4 4h-1.59c-.621 0-1.125.504-1.125 1.125v2.75c0 .621.504 1.125 1.125 1.125h3.75c.621 0 1.125-.504 1.125-1.125v-2.75c0-.621-.504-1.125-1.125-1.125h-.993l2.4-4h1.434l2.4 4h-.991c-.621 0-1.125.504-1.125 1.125v2.75c0 .621.504 1.125 1.125 1.125h3.75c.621 0 1.125-.504 1.125-1.125v-2.75c0-.621-.504-1.125-1.125-1.125h-1.593l-2.4-4h.993c.621 0 1.125-.504 1.125-1.125v-2.75Z"/><defs><linearGradient id="icon-62657013d6a5b0a6__icon-c27d7c573fe589dc__a" x1="12.889" x2="16.937" y1="4" y2="36.383" gradientUnits="userSpaceOnUse"><stop stop-color="#fff"/><stop offset="1" stop-color="#EBEBEB"/></linearGradient><linearGradient id="icon-7a0ea4791dd229d6__icon-ddacce3291acab3a__c" x1="14.333" x2="18.642" y1="4" y2="36.314" gradientUnits="userSpaceOnUse"><stop stop-color="#BBB"/><stop offset="1" stop-color="#888"/></linearGradient><linearGradient id="icon-0b2f58ae108f925a__icon-34f3b51dcbf9fbba__d" x1="13" x2="27" y1="13" y2="27" gradientUnits="userSpaceOnUse"><stop stop-color="#4BA446"/><stop offset="1" stop-color="#3F7D35"/></linearGradient><radialGradient id="icon-83dbc4985d7b3a60__icon-68c4c8ea5a1da322__b" cx="0" cy="0" r="1" gradientTransform="rotate(56.31 -4.411 19.454) scale(30.4469 26.3483)" gradientUnits="userSpaceOnUse"><stop offset=".177" stop-color="#fff"/><stop offset="1" stop-color="#B8B8B8"/></radialGradient></defs></svg>