<svg xmlns="http://www.w3.org/2000/svg" width="20" height="20" fill="currentColor"><path fill="url(#icon-af3aa2b2fa7f4226__icon-2ca2436d387c7557__a)" d="M2 4.5A2.5 2.5 0 0 1 4.5 2h11A2.5 2.5 0 0 1 18 4.5v11a2.5 2.5 0 0 1-2.5 2.5h-11A2.5 2.5 0 0 1 2 15.5v-11Z"/><path fill="url(#icon-cfa9ad530230743e__icon-4ff24c8a61626f83__b)" fill-opacity=".2" d="M2 4.5A2.5 2.5 0 0 1 4.5 2h11A2.5 2.5 0 0 1 18 4.5v11a2.5 2.5 0 0 1-2.5 2.5h-11A2.5 2.5 0 0 1 2 15.5v-11Z"/><path fill="url(#icon-8309d8e4b3550bc1__icon-df98e701b272bd8a__c)" fill-rule="evenodd" d="M15.5 3h-11A1.5 1.5 0 0 0 3 4.5v11A1.5 1.5 0 0 0 4.5 17h11a1.5 1.5 0 0 0 1.5-1.5v-11A1.5 1.5 0 0 0 15.5 3Zm-11-1A2.5 2.5 0 0 0 2 4.5v11A2.5 2.5 0 0 0 4.5 18h11a2.5 2.5 0 0 0 2.5-2.5v-11A2.5 2.5 0 0 0 15.5 2h-11Z" clip-rule="evenodd"/><path fill="url(#icon-2d6046a1d41dc452__icon-f6837d8de6d78771__d)" d="M7.5 6.75A.75.75 0 0 1 8.25 6h3.5a.75.75 0 0 1 .75.75v1.5a.75.75 0 0 1-.75.75h-.066l1.263 2h.553a.75.75 0 0 1 .75.75v1.5a.75.75 0 0 1-.75.75h-2a.75.75 0 0 1-.75-.75v-1.5a.75.75 0 0 1 .75-.75h.264l-1.263-2H9.5l-1.263 2H8.5a.75.75 0 0 1 .75.75v1.5a.75.75 0 0 1-.75.75h-2a.75.75 0 0 1-.75-.75v-1.5A.75.75 0 0 1 6.5 11h.553l1.263-2H8.25a.75.75 0 0 1-.75-.75v-1.5Z"/><defs><linearGradient id="icon-af3aa2b2fa7f4226__icon-2ca2436d387c7557__a" x1="6.444" x2="8.468" y1="2" y2="18.192" gradientUnits="userSpaceOnUse"><stop stop-color="#fff"/><stop offset="1" stop-color="#EBEBEB"/></linearGradient><linearGradient id="icon-8309d8e4b3550bc1__icon-df98e701b272bd8a__c" x1="7.167" x2="9.321" y1="2" y2="18.157" gradientUnits="userSpaceOnUse"><stop stop-color="#BBB"/><stop offset="1" stop-color="#888"/></linearGradient><linearGradient id="icon-2d6046a1d41dc452__icon-f6837d8de6d78771__d" x1="5.75" x2="13.735" y1="6" y2="14.484" gradientUnits="userSpaceOnUse"><stop stop-color="#4BA446"/><stop offset="1" stop-color="#3F7D35"/></linearGradient><radialGradient id="icon-cfa9ad530230743e__icon-4ff24c8a61626f83__b" cx="0" cy="0" r="1" gradientTransform="rotate(56.31 -2.206 9.727) scale(15.2234 13.1741)" gradientUnits="userSpaceOnUse"><stop offset=".177" stop-color="#fff"/><stop offset="1" stop-color="#B8B8B8"/></radialGradient></defs></svg>