<svg xmlns="http://www.w3.org/2000/svg" width="48" height="48" fill="currentColor"><path fill="url(#icon-da8a6b71bdafb392__icon-5b67d574ded3d9df__a)" d="M5 10a5 5 0 0 1 5-5h28a5 5 0 0 1 5 5v28a5 5 0 0 1-5 5H10a5 5 0 0 1-5-5V10Z"/><path fill="url(#icon-e06cad01a95fc0fe__icon-43721c9c92f3fad8__b)" fill-opacity=".2" d="M5 10a5 5 0 0 1 5-5h28a5 5 0 0 1 5 5v28a5 5 0 0 1-5 5H10a5 5 0 0 1-5-5V10Z"/><path fill="url(#icon-5a0d89b26736ca5b__icon-e5e3227d79705241__c)" fill-rule="evenodd" d="M38 6H10a4 4 0 0 0-4 4v28a4 4 0 0 0 4 4h28a4 4 0 0 0 4-4V10a4 4 0 0 0-4-4ZM10 5a5 5 0 0 0-5 5v28a5 5 0 0 0 5 5h28a5 5 0 0 0 5-5V10a5 5 0 0 0-5-5H10Z" clip-rule="evenodd"/><path fill="url(#icon-b0c6e10fe00bef71__icon-7332ab29343b7229__d)" d="M27.253 14a2.25 2.25 0 0 1 2.236 2h1.268a1.75 1.75 0 0 1 1.744 1.607l.006.143v3a3.25 3.25 0 0 1-3.065 3.245l-.21.006a5.758 5.758 0 0 1-4.732 3.95V29.5h1.753a3.25 3.25 0 0 1 3.245 3.066l.005.184v.5a.75.75 0 0 1-.648.743l-.102.007H18.75a.75.75 0 0 1-.743-.648L18 33.25v-.5a3.25 3.25 0 0 1 3.066-3.245l.184-.005H23v-1.549a5.758 5.758 0 0 1-4.728-3.95L18.246 24a3.25 3.25 0 0 1-3.25-3.25v-3c0-.966.783-1.75 1.75-1.75h1.268a2.25 2.25 0 0 1 2.236-2h7.003Zm3.504 3.5h-1.254v4.983A1.75 1.75 0 0 0 31 20.904l.007-.154v-3a.25.25 0 0 0-.193-.243l-.057-.007ZM18 17.5h-1.255a.25.25 0 0 0-.25.25v3A1.75 1.75 0 0 0 18 22.483V17.5Z"/><defs><linearGradient id="icon-da8a6b71bdafb392__icon-5b67d574ded3d9df__a" x1="15.556" x2="20.362" y1="5" y2="43.455" gradientUnits="userSpaceOnUse"><stop stop-color="#fff"/><stop offset="1" stop-color="#EBEBEB"/></linearGradient><linearGradient id="icon-5a0d89b26736ca5b__icon-e5e3227d79705241__c" x1="17.271" x2="22.387" y1="5" y2="43.373" gradientUnits="userSpaceOnUse"><stop stop-color="#BBB"/><stop offset="1" stop-color="#888"/></linearGradient><linearGradient id="icon-b0c6e10fe00bef71__icon-7332ab29343b7229__d" x1="14.995" x2="34.82" y1="14" y2="31.358" gradientUnits="userSpaceOnUse"><stop stop-color="#C28400"/><stop offset="1" stop-color="#A86500"/></linearGradient><radialGradient id="icon-e06cad01a95fc0fe__icon-43721c9c92f3fad8__b" cx="0" cy="0" r="1" gradientTransform="rotate(56.31 -5.347 23.46) scale(36.1557 31.2886)" gradientUnits="userSpaceOnUse"><stop offset=".177" stop-color="#fff"/><stop offset="1" stop-color="#B8B8B8"/></radialGradient></defs></svg>