<svg xmlns="http://www.w3.org/2000/svg" width="20" height="20" fill="currentColor"><path fill="url(#icon-52b151def2eb707a__icon-87bb74bc070ee978__a)" d="M2 4.5A2.5 2.5 0 0 1 4.5 2h11A2.5 2.5 0 0 1 18 4.5v11a2.5 2.5 0 0 1-2.5 2.5h-11A2.5 2.5 0 0 1 2 15.5v-11Z"/><path fill="url(#icon-a14f0378cf5dd2fe__icon-b5cb64186f08b126__b)" fill-opacity=".2" d="M2 4.5A2.5 2.5 0 0 1 4.5 2h11A2.5 2.5 0 0 1 18 4.5v11a2.5 2.5 0 0 1-2.5 2.5h-11A2.5 2.5 0 0 1 2 15.5v-11Z"/><path fill="url(#icon-e110ca5f28e08222__icon-cf97a0c0c487194d__c)" fill-rule="evenodd" d="M15.5 3h-11A1.5 1.5 0 0 0 3 4.5v11A1.5 1.5 0 0 0 4.5 17h11a1.5 1.5 0 0 0 1.5-1.5v-11A1.5 1.5 0 0 0 15.5 3Zm-11-1A2.5 2.5 0 0 0 2 4.5v11A2.5 2.5 0 0 0 4.5 18h11a2.5 2.5 0 0 0 2.5-2.5v-11A2.5 2.5 0 0 0 15.5 2h-11Z" clip-rule="evenodd"/><path fill="url(#icon-565f93826d01a7e6__icon-08c0a1f72834d857__d)" fill-rule="evenodd" d="M8.059 5c-.565 0-1.027.443-1.057 1h-.645C5.607 6 5 6.608 5 7.357A2.643 2.643 0 0 0 7.643 10h.12c.445.496 1.052.844 1.737.959V12.5h-.9A1.6 1.6 0 0 0 7 14.1c0 .22.18.4.4.4h5.2a.4.4 0 0 0 .4-.4 1.6 1.6 0 0 0-1.6-1.6h-.9v-1.541A2.995 2.995 0 0 0 12.236 10h.121A2.643 2.643 0 0 0 15 7.357C15 6.607 14.392 6 13.643 6h-.645c-.03-.557-.492-1-1.057-1H8.06ZM13 7v1a3 3 0 0 1-.145.923A1.644 1.644 0 0 0 14 7.357.357.357 0 0 0 13.643 7H13ZM7.145 8.923A2.998 2.998 0 0 1 7 8V7h-.643A.357.357 0 0 0 6 7.357c0 .734.48 1.355 1.145 1.566Z" clip-rule="evenodd"/><defs><linearGradient id="icon-52b151def2eb707a__icon-87bb74bc070ee978__a" x1="6.444" x2="8.468" y1="2" y2="18.192" gradientUnits="userSpaceOnUse"><stop stop-color="#fff"/><stop offset="1" stop-color="#EBEBEB"/></linearGradient><linearGradient id="icon-e110ca5f28e08222__icon-cf97a0c0c487194d__c" x1="7.167" x2="9.321" y1="2" y2="18.157" gradientUnits="userSpaceOnUse"><stop stop-color="#BBB"/><stop offset="1" stop-color="#888"/></linearGradient><linearGradient id="icon-565f93826d01a7e6__icon-08c0a1f72834d857__d" x1="5" x2="14.488" y1="5" y2="14.987" gradientUnits="userSpaceOnUse"><stop stop-color="#C28400"/><stop offset="1" stop-color="#A86500"/></linearGradient><radialGradient id="icon-a14f0378cf5dd2fe__icon-b5cb64186f08b126__b" cx="0" cy="0" r="1" gradientTransform="rotate(56.31 -2.206 9.727) scale(15.2234 13.1741)" gradientUnits="userSpaceOnUse"><stop offset=".177" stop-color="#fff"/><stop offset="1" stop-color="#B8B8B8"/></radialGradient></defs></svg>