<svg xmlns="http://www.w3.org/2000/svg" width="40" height="40" fill="currentColor"><path fill="url(#icon-5452fe6366a84cf2__icon-c3b592a99c8fbe49__a)" d="M4 8a4 4 0 0 1 4-4h24a4 4 0 0 1 4 4v24a4 4 0 0 1-4 4H8a4 4 0 0 1-4-4V8Z"/><path fill="url(#icon-513a0c160b903de7__icon-e03d563c02d5e3c0__b)" fill-opacity=".2" d="M4 8a4 4 0 0 1 4-4h24a4 4 0 0 1 4 4v24a4 4 0 0 1-4 4H8a4 4 0 0 1-4-4V8Z"/><path fill="url(#icon-f2da0686842a26ff__icon-41c49690fb480b89__c)" fill-rule="evenodd" d="M32 5H8a3 3 0 0 0-3 3v24a3 3 0 0 0 3 3h24a3 3 0 0 0 3-3V8a3 3 0 0 0-3-3ZM8 4a4 4 0 0 0-4 4v24a4 4 0 0 0 4 4h24a4 4 0 0 0 4-4V8a4 4 0 0 0-4-4H8Z" clip-rule="evenodd"/><path fill="url(#icon-df8c5e60223374ad__icon-efa30ff91a3cc213__d)" d="M15.5 14a2 2 0 0 1 2-1.998h5a2 2 0 0 1 2 1.998h.995a1.5 1.5 0 0 1 1.5 1.5v1.505a2.996 2.996 0 0 1-2.6 2.97 4.503 4.503 0 0 1-3.895 3.498v1.495h2.003a2 2 0 0 1 2 2v.5a.5.5 0 0 1-.5.5h-8a.5.5 0 0 1-.5-.5v-.5a2 2 0 0 1 2-2H19.5v-1.495a4.503 4.503 0 0 1-3.895-3.501 3.006 3.006 0 0 1-2.61-2.974V15.5a1.5 1.5 0 0 1 1.5-1.5H15.5Zm9 4.937a1.996 1.996 0 0 0 1.495-1.932V15.5a.5.5 0 0 0-.5-.5H24.5v3.937ZM15.5 15h-1.005a.5.5 0 0 0-.5.5v1.498c0 .93.64 1.713 1.505 1.936V15Z"/><defs><linearGradient id="icon-5452fe6366a84cf2__icon-c3b592a99c8fbe49__a" x1="12.889" x2="16.937" y1="4" y2="36.383" gradientUnits="userSpaceOnUse"><stop stop-color="#fff"/><stop offset="1" stop-color="#EBEBEB"/></linearGradient><linearGradient id="icon-f2da0686842a26ff__icon-41c49690fb480b89__c" x1="14.333" x2="18.642" y1="4" y2="36.314" gradientUnits="userSpaceOnUse"><stop stop-color="#BBB"/><stop offset="1" stop-color="#888"/></linearGradient><linearGradient id="icon-df8c5e60223374ad__icon-efa30ff91a3cc213__d" x1="12.995" x2="28.825" y1="12.002" y2="25.882" gradientUnits="userSpaceOnUse"><stop stop-color="#C28400"/><stop offset="1" stop-color="#A86500"/></linearGradient><radialGradient id="icon-513a0c160b903de7__icon-e03d563c02d5e3c0__b" cx="0" cy="0" r="1" gradientTransform="rotate(56.31 -4.411 19.454) scale(30.4469 26.3483)" gradientUnits="userSpaceOnUse"><stop offset=".177" stop-color="#fff"/><stop offset="1" stop-color="#B8B8B8"/></radialGradient></defs></svg>