<svg xmlns="http://www.w3.org/2000/svg" width="20" height="20" fill="currentColor"><path d="M16.563 2H6.5A2.5 2.5 0 0 0 4 4.5V13H2a1 1 0 0 0-1 1v1.688C1 17.02 2.086 18 3.375 18h8.4l-.014-.02a3.095 3.095 0 0 0-.3-.328 4.335 4.335 0 0 0-.434-.37 2.215 2.215 0 0 0-.4-.242.35.35 0 0 0-.129-.042L10.5 17H3.375C2.593 17 2 16.425 2 15.687V14h8v.088c.16-.057.328-.087.5-.088a.846.846 0 0 0 .123-.045c.122-.054.239-.12.348-.196A1 1 0 0 0 10 13H5V4.5A1.5 1.5 0 0 1 6.5 3h8c-.29.387-.472.86-.497 1.375H14v6.71a1.498 1.498 0 0 1 1 1.407v.012V7h3a1 1 0 0 0 1-1V4.5A2.5 2.5 0 0 0 16.562 2ZM16.5 3A1.5 1.5 0 0 1 18 4.5V6h-3V4.5c0-.828.67-1.5 1.499-1.5h.002Z"/><path d="M13.403 12.013A.5.5 0 0 0 13 12.5c0 .207-.042.411-.125.6a2.553 2.553 0 0 1-.328.54c-.12.152-.25.295-.391.428-.165.16-.34.309-.523.446-.18.135-.373.25-.578.343A1.467 1.467 0 0 1 10.5 15a.5.5 0 0 0 0 1c.193.006.383.055.555.143.201.095.392.21.57.343a5.18 5.18 0 0 1 .923.883c.128.163.235.342.32.531.084.19.129.393.132.6a.5.5 0 0 0 1 0c0-.206.042-.41.125-.6.086-.19.196-.369.328-.53.122-.151.253-.294.391-.43a4.36 4.36 0 0 1 .523-.446c.182-.134.375-.251.578-.35.172-.09.362-.139.555-.144a.5.5 0 0 0 0-1 1.255 1.255 0 0 1-.547-.14 4.148 4.148 0 0 1-.578-.344 3.648 3.648 0 0 1-.523-.446 10.803 10.803 0 0 1-.4-.429 2.524 2.524 0 0 1-.32-.532A1.54 1.54 0 0 1 14 12.5a.5.5 0 0 0-.597-.487Zm.097 2.015c.051.078.106.154.164.228l.018.021.019.022c.118.136.262.291.432.467a4.634 4.634 0 0 0 .916.733 5.296 5.296 0 0 0-.912.732 5.94 5.94 0 0 0-.46.506 3.735 3.735 0 0 0-.179.24 3.007 3.007 0 0 0-.155-.215 6.159 6.159 0 0 0-1.123-1.08 4.115 4.115 0 0 0-.259-.179c.092-.058.182-.12.271-.187.217-.163.424-.339.619-.527a4.727 4.727 0 0 0 .649-.76Z"/></svg>