<svg xmlns="http://www.w3.org/2000/svg" width="20" height="20" fill="currentColor"><path d="M16.563 2H6.5A2.5 2.5 0 0 0 4 4.5V13h6a1 1 0 0 1 .97.759l.06-.043a4.28 4.28 0 0 0 .432-.367c.106-.1.205-.209.295-.324.082-.103.151-.216.206-.336a.476.476 0 0 0 .037-.184 1.5 1.5 0 1 1 3-.013v.009-8.126h.003A2.501 2.501 0 0 1 17 2.05a2.506 2.506 0 0 0-.438-.05ZM10 14.088a1.502 1.502 0 0 0-.966 1.702 1.5 1.5 0 0 0 1.09 1.16c.115.389.308.745.56 1.05H3.374C2.085 18 1 17.021 1 15.687V14.5a.5.5 0 0 1 .5-.5H10v.088Z"/><path d="M18 7a1 1 0 0 0 1-1V4.5a1.5 1.5 0 0 0-3 0V7h2ZM13.403 12.013A.5.5 0 0 0 13 12.5c0 .207-.042.411-.125.6a2.553 2.553 0 0 1-.328.54c-.12.152-.25.295-.391.428-.165.16-.34.309-.523.446-.18.135-.373.25-.578.343A1.467 1.467 0 0 1 10.5 15a.5.5 0 0 0 0 1c.193.006.383.055.555.143.201.095.392.21.57.343a5.18 5.18 0 0 1 .923.883c.128.163.235.342.32.531.084.19.129.393.132.6a.5.5 0 0 0 1 0c0-.206.042-.41.125-.6.086-.19.196-.369.328-.53.122-.151.253-.294.391-.43a4.36 4.36 0 0 1 .523-.446c.182-.134.375-.251.578-.35.172-.09.362-.139.555-.144a.5.5 0 0 0 0-1 1.255 1.255 0 0 1-.547-.14 4.148 4.148 0 0 1-.578-.344 3.648 3.648 0 0 1-.523-.446 10.803 10.803 0 0 1-.4-.429 2.524 2.524 0 0 1-.32-.532A1.54 1.54 0 0 1 14 12.5a.5.5 0 0 0-.597-.487Zm.097 2.015c.051.078.106.154.164.228l.018.021.019.022c.118.136.262.291.432.467a4.634 4.634 0 0 0 .916.733 5.296 5.296 0 0 0-.912.732 5.94 5.94 0 0 0-.46.506 3.735 3.735 0 0 0-.179.24 3.007 3.007 0 0 0-.155-.215 6.159 6.159 0 0 0-1.123-1.08 4.115 4.115 0 0 0-.259-.179c.092-.058.182-.12.271-.187.217-.163.424-.339.619-.527a4.727 4.727 0 0 0 .649-.76Z"/></svg>