<svg xmlns="http://www.w3.org/2000/svg" width="20" height="20" fill="currentColor"><path d="M10 5.5a4.5 4.5 0 1 1-9 0 4.5 4.5 0 0 1 9 0Zm-4-2a.5.5 0 0 0-1 0V5H3.5a.5.5 0 0 0 0 1H5v1.5a.5.5 0 0 0 1 0V6h1.5a.5.5 0 0 0 0-1H6V3.5ZM14.5 3h-4.1a5.508 5.508 0 0 0-.657-1H16.563A2.5 2.5 0 0 1 19 4.5V6a1 1 0 0 1-1 1h-3v4h-1V4.375h.003c.025-.515.206-.988.497-1.375ZM18 4.5A1.5 1.5 0 0 0 16.501 3H16.5A1.5 1.5 0 0 0 15 4.5V6h3V4.5ZM4 10.793c.322.091.657.154 1 .185V13h4.087a1.5 1.5 0 0 0 .353.56l.1.105a1.522 1.522 0 0 0-.4.281L9.086 14H2v1.688C2 16.424 2.593 17 3.375 17h5.354c.04.023.08.044.122.064l-.418.417a1.499 1.499 0 0 0-.338.519h-4.72C2.085 18 1 17.021 1 15.687V14a1 1 0 0 1 1-1h2v-2.207ZM10.5 12h5a.5.5 0 0 1 .5.5v5a.5.5 0 0 1-.853.354l-5-5A.5.5 0 0 1 10.5 12Z"/><path d="M10.562 14.657a.5.5 0 0 1 0 .707l-.707.708a.5.5 0 0 1-.708-.708l.708-.707a.5.5 0 0 1 .707 0ZM13.389 17.486a.5.5 0 0 1 0 .707l-.707.707a.5.5 0 1 1-.707-.707l.707-.707a.5.5 0 0 1 .707 0ZM11.975 16.072a.5.5 0 0 1 0 .707l-2.12 2.12a.5.5 0 1 1-.709-.706l2.122-2.121a.5.5 0 0 1 .707 0Z"/></svg>