<svg xmlns="http://www.w3.org/2000/svg" width="20" height="20" fill="currentColor"><path d="M10 5.5a4.5 4.5 0 1 1-9 0 4.5 4.5 0 0 1 9 0Zm-4-2a.5.5 0 0 0-1 0V5H3.5a.5.5 0 0 0 0 1H5v1.5a.5.5 0 0 0 1 0V6h1.5a.5.5 0 0 0 0-1H6V3.5Z"/><path d="M5.5 11a5.5 5.5 0 0 0 4.243-9H16.563c.149.004.295.021.437.05a2.501 2.501 0 0 0-1.997 2.325H15v8.126-.009a1.5 1.5 0 0 0-3 .013.476.476 0 0 1-.037.184c-.055.12-.124.233-.206.336a2.84 2.84 0 0 1-.295.324 4.28 4.28 0 0 1-.491.41A1 1 0 0 0 10 13H4v-2.207c.477.135.98.207 1.5.207ZM10 14.088a1.502 1.502 0 0 0-.966 1.702 1.5 1.5 0 0 0 1.09 1.16c.115.389.308.745.56 1.05H3.374C2.085 18 1 17.021 1 15.687V14.5a.5.5 0 0 1 .5-.5H10v.088Z"/><path d="M18 7a1 1 0 0 0 1-1V4.5a1.5 1.5 0 0 0-3 0V7h2ZM13.403 12.013A.5.5 0 0 0 13 12.5c0 .207-.042.411-.125.6a2.553 2.553 0 0 1-.328.54c-.12.152-.25.295-.391.428-.165.16-.34.309-.523.446-.18.135-.373.25-.578.343A1.467 1.467 0 0 1 10.5 15a.5.5 0 0 0 0 1c.193.006.383.055.555.143.201.095.392.21.57.343a5.18 5.18 0 0 1 .923.883c.128.163.235.342.32.531.084.19.129.393.132.6a.5.5 0 0 0 1 0c0-.206.042-.41.125-.6.086-.19.196-.369.328-.53.122-.151.253-.294.391-.43a4.36 4.36 0 0 1 .523-.446c.182-.134.375-.251.578-.35.172-.09.362-.139.555-.144a.5.5 0 0 0 0-1 1.255 1.255 0 0 1-.547-.14 4.148 4.148 0 0 1-.578-.344 3.648 3.648 0 0 1-.523-.446 10.803 10.803 0 0 1-.4-.429 2.524 2.524 0 0 1-.32-.532A1.54 1.54 0 0 1 14 12.5a.5.5 0 0 0-.597-.487Zm.097 2.015c.051.078.106.154.164.228l.018.021.019.022c.118.136.262.291.432.467a4.634 4.634 0 0 0 .916.733 5.296 5.296 0 0 0-.912.732 5.94 5.94 0 0 0-.46.506 3.735 3.735 0 0 0-.179.24 3.007 3.007 0 0 0-.155-.215 6.159 6.159 0 0 0-1.123-1.08 4.115 4.115 0 0 0-.259-.179c.092-.058.182-.12.271-.187.217-.163.424-.339.619-.527a4.727 4.727 0 0 0 .649-.76Z"/></svg>