<svg xmlns="http://www.w3.org/2000/svg" width="20" height="20" fill="currentColor"><path d="M10 5.5a4.5 4.5 0 1 1-9 0 4.5 4.5 0 0 1 9 0Zm-4-2a.5.5 0 0 0-1 0V5H3.5a.5.5 0 0 0 0 1H5v1.5a.5.5 0 0 0 1 0V6h1.5a.5.5 0 0 0 0-1H6V3.5Z"/><path d="M11 5.5a5.5 5.5 0 0 1-7 5.293V13h5.087a1.5 1.5 0 0 1 1.413-2H15V4.375h.003A2.501 2.501 0 0 1 17 2.05a2.506 2.506 0 0 0-.438-.05H9.744A5.477 5.477 0 0 1 11 5.5ZM9.086 14l-.653.653a1.5 1.5 0 0 0 0 2.121c.122.12.264.218.418.29l-.418.417a1.499 1.499 0 0 0-.338.519h-4.72C2.085 18 1 17.021 1 15.687V14.5a.5.5 0 0 1 .5-.5h7.586Z"/><path d="M18 7a1 1 0 0 0 1-1V4.5a1.5 1.5 0 0 0-3 0V7h2ZM10.5 12h5a.5.5 0 0 1 .5.5v5a.5.5 0 0 1-.853.354l-5-5A.5.5 0 0 1 10.5 12ZM10.562 14.657a.5.5 0 0 1 0 .707l-.707.708a.5.5 0 0 1-.708-.708l.708-.707a.5.5 0 0 1 .707 0ZM13.389 17.486a.5.5 0 0 1 0 .707l-.707.707a.5.5 0 1 1-.707-.707l.707-.707a.5.5 0 0 1 .707 0ZM11.975 16.072a.5.5 0 0 1 0 .707l-2.12 2.12a.5.5 0 1 1-.709-.706l2.122-2.121a.5.5 0 0 1 .707 0Z"/></svg>