<svg xmlns="http://www.w3.org/2000/svg" width="20" height="20" fill="currentColor"><path d="M16.563 2H6.5A2.5 2.5 0 0 0 4 4.5V13H2a1 1 0 0 0-1 1v1.688C1 17.02 2.086 18 3.375 18h4.72a1.499 1.499 0 0 1 .338-.519l.418-.417A1.497 1.497 0 0 1 8.73 17H3.375C2.593 17 2 16.425 2 15.687V14h7.086l.054-.054c.118-.115.253-.21.4-.281l-.1-.105a1.5 1.5 0 0 1-.353-.56H5V4.5A1.5 1.5 0 0 1 6.5 3h8c-.29.387-.472.86-.497 1.375H14V11h1V7h3a1 1 0 0 0 1-1V4.5A2.5 2.5 0 0 0 16.562 2ZM16.5 3A1.5 1.5 0 0 1 18 4.5V6h-3V4.5c0-.828.67-1.5 1.499-1.5h.002Z"/><path d="M10.5 12h5a.5.5 0 0 1 .5.5v5a.5.5 0 0 1-.853.354l-5-5A.5.5 0 0 1 10.5 12ZM10.562 14.657a.5.5 0 0 1 0 .707l-.707.708a.5.5 0 0 1-.708-.708l.708-.707a.5.5 0 0 1 .707 0ZM13.389 17.486a.5.5 0 0 1 0 .707l-.707.707a.5.5 0 1 1-.707-.707l.707-.707a.5.5 0 0 1 .707 0ZM11.975 16.072a.5.5 0 0 1 0 .707l-2.12 2.12a.5.5 0 1 1-.709-.706l2.122-2.121a.5.5 0 0 1 .707 0Z"/></svg>