<svg xmlns="http://www.w3.org/2000/svg" width="20" height="20" fill="currentColor"><path fill="url(#icon-7389fa01afb220cf__icon-2cc36d856286bcbc__a)" d="M2 4.5A2.5 2.5 0 0 1 4.5 2h11A2.5 2.5 0 0 1 18 4.5v11a2.5 2.5 0 0 1-2.5 2.5h-11A2.5 2.5 0 0 1 2 15.5v-11Z"/><path fill="url(#icon-e0d992701a9e25b6__icon-1715a057f90fb7ec__b)" fill-opacity=".2" d="M2 4.5A2.5 2.5 0 0 1 4.5 2h11A2.5 2.5 0 0 1 18 4.5v11a2.5 2.5 0 0 1-2.5 2.5h-11A2.5 2.5 0 0 1 2 15.5v-11Z"/><path fill="url(#icon-8c3e6972cdb856fa__icon-b24a4d23b61876f7__c)" fill-rule="evenodd" d="M15.5 3h-11A1.5 1.5 0 0 0 3 4.5v11A1.5 1.5 0 0 0 4.5 17h11a1.5 1.5 0 0 0 1.5-1.5v-11A1.5 1.5 0 0 0 15.5 3Zm-11-1A2.5 2.5 0 0 0 2 4.5v11A2.5 2.5 0 0 0 4.5 18h11a2.5 2.5 0 0 0 2.5-2.5v-11A2.5 2.5 0 0 0 15.5 2h-11Z" clip-rule="evenodd"/><path fill="url(#icon-55844b2000cc7849__icon-5cf76b54375280d7__d)" d="M6 9a1 1 0 1 0 0-2 1 1 0 0 0 0 2Z"/><path fill="url(#icon-5b9fb0c35041c47d__icon-c1810ea2dc5ed22b__e)" d="M10 9a1 1 0 1 0 0-2 1 1 0 0 0 0 2Z"/><path fill="url(#icon-ce25c69b5924b855__icon-a63662c361b0699a__f)" d="M15 8a1 1 0 1 1-2 0 1 1 0 0 1 2 0Z"/><path fill="url(#icon-52b17b8322179fd3__icon-78e388ed291fe10b__g)" d="M10 13a1 1 0 1 0 0-2 1 1 0 0 0 0 2Z"/><path fill="url(#icon-5066c73de6945ae6__icon-05aa12883439f319__h)" d="M7 12a1 1 0 1 1-2 0 1 1 0 0 1 2 0Z"/><defs><linearGradient id="icon-7389fa01afb220cf__icon-2cc36d856286bcbc__a" x1="6.444" x2="8.468" y1="2" y2="18.192" gradientUnits="userSpaceOnUse"><stop stop-color="#fff"/><stop offset="1" stop-color="#EBEBEB"/></linearGradient><linearGradient id="icon-8c3e6972cdb856fa__icon-b24a4d23b61876f7__c" x1="7.167" x2="9.321" y1="2" y2="18.157" gradientUnits="userSpaceOnUse"><stop stop-color="#BBB"/><stop offset="1" stop-color="#888"/></linearGradient><linearGradient id="icon-55844b2000cc7849__icon-5cf76b54375280d7__d" x1="5" x2="10.294" y1="7" y2="15.823" gradientUnits="userSpaceOnUse"><stop stop-color="#7751B8"/><stop offset="1" stop-color="#5A409C"/></linearGradient><linearGradient id="icon-5b9fb0c35041c47d__icon-c1810ea2dc5ed22b__e" x1="5" x2="10.294" y1="7" y2="15.823" gradientUnits="userSpaceOnUse"><stop stop-color="#7751B8"/><stop offset="1" stop-color="#5A409C"/></linearGradient><linearGradient id="icon-ce25c69b5924b855__icon-a63662c361b0699a__f" x1="5" x2="10.294" y1="7" y2="15.823" gradientUnits="userSpaceOnUse"><stop stop-color="#7751B8"/><stop offset="1" stop-color="#5A409C"/></linearGradient><linearGradient id="icon-52b17b8322179fd3__icon-78e388ed291fe10b__g" x1="5" x2="10.294" y1="7" y2="15.823" gradientUnits="userSpaceOnUse"><stop stop-color="#7751B8"/><stop offset="1" stop-color="#5A409C"/></linearGradient><linearGradient id="icon-5066c73de6945ae6__icon-05aa12883439f319__h" x1="5" x2="10.294" y1="7" y2="15.823" gradientUnits="userSpaceOnUse"><stop stop-color="#7751B8"/><stop offset="1" stop-color="#5A409C"/></linearGradient><radialGradient id="icon-e0d992701a9e25b6__icon-1715a057f90fb7ec__b" cx="0" cy="0" r="1" gradientTransform="rotate(56.31 -2.206 9.727) scale(15.2234 13.1741)" gradientUnits="userSpaceOnUse"><stop offset=".177" stop-color="#fff"/><stop offset="1" stop-color="#B8B8B8"/></radialGradient></defs></svg>