<svg xmlns="http://www.w3.org/2000/svg" width="64" height="64" fill="currentColor"><path fill="url(#icon-5c94ae82bdef3a58__icon-0f80fdbc893d62ad__a)" d="M6 13a7 7 0 0 1 7-7h38a7 7 0 0 1 7 7v38a7 7 0 0 1-7 7H13a7 7 0 0 1-7-7V13Z"/><path fill="url(#icon-1c9ad3be598ec2f6__icon-d1fdd1753148a5bd__b)" fill-opacity=".2" d="M6 13a7 7 0 0 1 7-7h38a7 7 0 0 1 7 7v38a7 7 0 0 1-7 7H13a7 7 0 0 1-7-7V13Z"/><path fill="url(#icon-811cfc121f601987__icon-ac4bec689c69fa0d__c)" fill-rule="evenodd" d="M51 7H13a6 6 0 0 0-6 6v38a6 6 0 0 0 6 6h38a6 6 0 0 0 6-6V13a6 6 0 0 0-6-6ZM13 6a7 7 0 0 0-7 7v38a7 7 0 0 0 7 7h38a7 7 0 0 0 7-7V13a7 7 0 0 0-7-7H13Z" clip-rule="evenodd"/><path fill="url(#icon-1fb11d753c8ec2bf__icon-24c252fc598a59a8__d)" d="M18 28a3 3 0 1 0 0-6 3 3 0 0 0 0 6Z"/><path fill="url(#icon-774c0a9a13daf49c__icon-b8b7ce4bb4390dc6__e)" d="M32 28a3 3 0 1 0 0-6 3 3 0 0 0 0 6Z"/><path fill="url(#icon-99fab0bea612898d__icon-39fb06d4e416cb54__f)" d="M34.873 39a3 3 0 1 1-6 0 3 3 0 0 1 6 0Z"/><path fill="url(#icon-ad435304cbb69eff__icon-38cbf4b5eb65ed66__g)" d="M18 42a3 3 0 1 0 0-6 3 3 0 0 0 0 6Z"/><path fill="url(#icon-754337226477a225__icon-b587aa3303c474fd__h)" d="M49 25a3 3 0 1 1-6 0 3 3 0 0 1 6 0Z"/><defs><linearGradient id="icon-5c94ae82bdef3a58__icon-0f80fdbc893d62ad__a" x1="20.444" x2="27.022" y1="6" y2="58.622" gradientUnits="userSpaceOnUse"><stop stop-color="#fff"/><stop offset="1" stop-color="#EBEBEB"/></linearGradient><linearGradient id="icon-811cfc121f601987__icon-ac4bec689c69fa0d__c" x1="22.792" x2="29.793" y1="6" y2="58.511" gradientUnits="userSpaceOnUse"><stop stop-color="#BBB"/><stop offset="1" stop-color="#888"/></linearGradient><linearGradient id="icon-1fb11d753c8ec2bf__icon-24c252fc598a59a8__d" x1="15" x2="32.481" y1="22" y2="51.717" gradientUnits="userSpaceOnUse"><stop stop-color="#7751B8"/><stop offset="1" stop-color="#5A409C"/></linearGradient><linearGradient id="icon-774c0a9a13daf49c__icon-b8b7ce4bb4390dc6__e" x1="15" x2="32.481" y1="22" y2="51.717" gradientUnits="userSpaceOnUse"><stop stop-color="#7751B8"/><stop offset="1" stop-color="#5A409C"/></linearGradient><linearGradient id="icon-99fab0bea612898d__icon-39fb06d4e416cb54__f" x1="15" x2="32.481" y1="22" y2="51.717" gradientUnits="userSpaceOnUse"><stop stop-color="#7751B8"/><stop offset="1" stop-color="#5A409C"/></linearGradient><linearGradient id="icon-ad435304cbb69eff__icon-38cbf4b5eb65ed66__g" x1="15" x2="32.481" y1="22" y2="51.717" gradientUnits="userSpaceOnUse"><stop stop-color="#7751B8"/><stop offset="1" stop-color="#5A409C"/></linearGradient><linearGradient id="icon-754337226477a225__icon-b587aa3303c474fd__h" x1="15" x2="32.481" y1="22" y2="51.717" gradientUnits="userSpaceOnUse"><stop stop-color="#7751B8"/><stop offset="1" stop-color="#5A409C"/></linearGradient><radialGradient id="icon-1c9ad3be598ec2f6__icon-d1fdd1753148a5bd__b" cx="0" cy="0" r="1" gradientTransform="rotate(56.31 -6.951 30.895) scale(49.4762 42.8159)" gradientUnits="userSpaceOnUse"><stop offset=".177" stop-color="#fff"/><stop offset="1" stop-color="#B8B8B8"/></radialGradient></defs></svg>