<svg xmlns="http://www.w3.org/2000/svg" width="48" height="48" fill="currentColor"><path fill="url(#icon-55af7ec33f7de1b8__icon-8fda844ab27f852b__a)" d="M5 10a5 5 0 0 1 5-5h28a5 5 0 0 1 5 5v28a5 5 0 0 1-5 5H10a5 5 0 0 1-5-5V10Z"/><path fill="url(#icon-659cfaf9f98e398f__icon-34571e12a3f4f998__b)" fill-opacity=".2" d="M5 10a5 5 0 0 1 5-5h28a5 5 0 0 1 5 5v28a5 5 0 0 1-5 5H10a5 5 0 0 1-5-5V10Z"/><path fill="url(#icon-7008b8ee5cc41db9__icon-28352708c885764e__c)" fill-rule="evenodd" d="M38 6H10a4 4 0 0 0-4 4v28a4 4 0 0 0 4 4h28a4 4 0 0 0 4-4V10a4 4 0 0 0-4-4ZM10 5a5 5 0 0 0-5 5v28a5 5 0 0 0 5 5h28a5 5 0 0 0 5-5V10a5 5 0 0 0-5-5H10Z" clip-rule="evenodd"/><path fill="url(#icon-7c1587a55cb99641__icon-9e145b6b9ec17e63__d)" d="M14.5 21a2.5 2.5 0 1 0 0-5 2.5 2.5 0 0 0 0 5Z"/><path fill="url(#icon-2ef1f4f6d694b7f7__icon-44dc77b4c5d1c304__e)" d="M24 21a2.5 2.5 0 1 0 0-5 2.5 2.5 0 0 0 0 5Z"/><path fill="url(#icon-b3efa2b23be4c28e__icon-0a4116eaf4c22fcc__f)" d="M26.5 29.5a2.5 2.5 0 1 1-5 0 2.5 2.5 0 0 1 5 0Z"/><path fill="url(#icon-f8e9d7fd540bcddd__icon-2898cfcc234f0fc0__g)" d="M14.5 32a2.5 2.5 0 1 0 0-5 2.5 2.5 0 0 0 0 5Z"/><path fill="url(#icon-e972536d9e39ab10__icon-c0543af47c4cf011__h)" d="M36 18.5a2.5 2.5 0 1 1-5 0 2.5 2.5 0 0 1 5 0Z"/><defs><linearGradient id="icon-55af7ec33f7de1b8__icon-8fda844ab27f852b__a" x1="15.556" x2="20.362" y1="5" y2="43.455" gradientUnits="userSpaceOnUse"><stop stop-color="#fff"/><stop offset="1" stop-color="#EBEBEB"/></linearGradient><linearGradient id="icon-7008b8ee5cc41db9__icon-28352708c885764e__c" x1="17.271" x2="22.387" y1="5" y2="43.373" gradientUnits="userSpaceOnUse"><stop stop-color="#BBB"/><stop offset="1" stop-color="#888"/></linearGradient><linearGradient id="icon-7c1587a55cb99641__icon-9e145b6b9ec17e63__d" x1="12" x2="26.769" y1="16" y2="38.154" gradientUnits="userSpaceOnUse"><stop stop-color="#7751B8"/><stop offset="1" stop-color="#5A409C"/></linearGradient><linearGradient id="icon-2ef1f4f6d694b7f7__icon-44dc77b4c5d1c304__e" x1="12" x2="26.769" y1="16" y2="38.154" gradientUnits="userSpaceOnUse"><stop stop-color="#7751B8"/><stop offset="1" stop-color="#5A409C"/></linearGradient><linearGradient id="icon-b3efa2b23be4c28e__icon-0a4116eaf4c22fcc__f" x1="12" x2="26.769" y1="16" y2="38.154" gradientUnits="userSpaceOnUse"><stop stop-color="#7751B8"/><stop offset="1" stop-color="#5A409C"/></linearGradient><linearGradient id="icon-f8e9d7fd540bcddd__icon-2898cfcc234f0fc0__g" x1="12" x2="26.769" y1="16" y2="38.154" gradientUnits="userSpaceOnUse"><stop stop-color="#7751B8"/><stop offset="1" stop-color="#5A409C"/></linearGradient><linearGradient id="icon-e972536d9e39ab10__icon-c0543af47c4cf011__h" x1="12" x2="26.769" y1="16" y2="38.154" gradientUnits="userSpaceOnUse"><stop stop-color="#7751B8"/><stop offset="1" stop-color="#5A409C"/></linearGradient><radialGradient id="icon-659cfaf9f98e398f__icon-34571e12a3f4f998__b" cx="0" cy="0" r="1" gradientTransform="rotate(56.31 -5.347 23.46) scale(36.1557 31.2886)" gradientUnits="userSpaceOnUse"><stop offset=".177" stop-color="#fff"/><stop offset="1" stop-color="#B8B8B8"/></radialGradient></defs></svg>