<svg xmlns="http://www.w3.org/2000/svg" width="16" height="16" fill="currentColor"><path fill="#EAA300" d="M8.355 2.147a.5.5 0 0 0-.708 0C6.404 3.388 5.03 4 3.5 4a.5.5 0 0 0-.5.5v3.001c0 2.923 1.354 4.996 4 6.151V10a2 2 0 0 1 1.5-1.937V8A3 3 0 0 1 13 5.401V4.5a.5.5 0 0 0-.5-.5c-1.531 0-2.905-.61-4.145-1.853ZM9.5 9V8a2 2 0 1 1 4 0v1h.5a1 1 0 0 1 1 1v4a1 1 0 0 1-1 1H9a1 1 0 0 1-1-1v-4a1 1 0 0 1 1-1h.5Zm1-1v1h2V8a1 1 0 1 0-2 0Zm1.75 4a.75.75 0 1 0-1.5 0 .75.75 0 0 0 1.5 0Z"/><path fill="#242424" d="M7.647 2.146a.5.5 0 0 1 .708 0C9.595 3.39 10.969 4 12.5 4a.5.5 0 0 1 .5.5v.901a2.98 2.98 0 0 0-1-.36v-.06c-1.48-.112-2.815-.726-4-1.792-1.186 1.066-2.52 1.68-4 1.792v2.52c0 1.434.363 2.564 1.021 3.444.47.628 1.12 1.168 1.979 1.603v1.104c-2.646-1.155-4-3.228-4-6.15V4.5a.5.5 0 0 1 .5-.5c1.53 0 2.904-.611 4.147-1.854ZM9.5 8v1H9a1 1 0 0 0-1 1v4a1 1 0 0 0 1 1h5a1 1 0 0 0 1-1v-4a1 1 0 0 0-1-1h-.5V8a2 2 0 1 0-4 0Zm1 1V8a1 1 0 1 1 2 0v1h-2Zm1 2.25a.75.75 0 1 1 0 1.5.75.75 0 0 1 0-1.5Z"/></svg>