<svg xmlns="http://www.w3.org/2000/svg" width="20" height="20" fill="currentColor"><path d="M1.911 7.383a8.491 8.491 0 0 1 1.78-3.08.5.5 0 0 1 .54-.135l1.918.686a1 1 0 0 0 1.32-.762l.366-2.006a.5.5 0 0 1 .388-.4 8.532 8.532 0 0 1 3.554 0 .5.5 0 0 1 .388.4l.366 2.006a1 1 0 0 0 1.32.762l1.919-.686a.5.5 0 0 1 .54.136 8.491 8.491 0 0 1 1.78 3.079.5.5 0 0 1-.153.535L16.473 9.16a2.996 2.996 0 0 0-1.18-.154c.112-.196.26-.377.442-.532l1.294-1.098a7.491 7.491 0 0 0-1.245-2.152l-1.596.57a2 2 0 0 1-2.64-1.524l-.305-1.669a7.555 7.555 0 0 0-2.486 0l-.304 1.669a2 2 0 0 1-2.64 1.525l-1.597-.571a7.491 7.491 0 0 0-1.244 2.152l1.293 1.098a2 2 0 0 1 0 3.05l-1.293 1.098c.292.782.713 1.51 1.244 2.152l1.596-.57a2 2 0 0 1 2.64 1.525l.305 1.668a7.556 7.556 0 0 0 2.373.018c.096.327.246.643.454.937a8.545 8.545 0 0 1-3.361-.04.5.5 0 0 1-.388-.399l-.366-2.006a1 1 0 0 0-1.32-.762l-1.918.686a.5.5 0 0 1-.54-.136 8.49 8.49 0 0 1-1.78-3.079.5.5 0 0 1 .152-.535l1.555-1.32a1 1 0 0 0 0-1.524l-1.555-1.32a.5.5 0 0 1-.152-.535Z"/><path d="M7.5 10a2.5 2.5 0 1 1 5 0 2.5 2.5 0 0 1-5 0Zm1 0a1.5 1.5 0 1 0 3 0 1.5 1.5 0 0 0-3 0ZM17.5 12a2 2 0 1 1-4 0 2 2 0 0 1 4 0ZM19 16.5c0 1.245-1 2.5-3.5 2.5S12 17.75 12 16.5a1.5 1.5 0 0 1 1.5-1.5h4a1.5 1.5 0 0 1 1.5 1.5Z"/></svg>