<svg xmlns="http://www.w3.org/2000/svg" width="20" height="20" fill="currentColor"><path d="M1.911 7.383a8.491 8.491 0 0 1 1.78-3.08.5.5 0 0 1 .54-.135l1.918.686a1 1 0 0 0 1.32-.762l.366-2.006a.5.5 0 0 1 .388-.4 8.532 8.532 0 0 1 3.554 0 .5.5 0 0 1 .388.4l.366 2.006a1 1 0 0 0 1.32.762l1.919-.686a.5.5 0 0 1 .54.136 8.491 8.491 0 0 1 1.78 3.079.5.5 0 0 1-.153.535L16.473 9.16a3 3 0 0 0-3.2 4.849A2.5 2.5 0 0 0 11 16.5c0 .643.186 1.29.584 1.853a8.545 8.545 0 0 1-3.361-.04.5.5 0 0 1-.388-.399l-.366-2.006a1 1 0 0 0-1.32-.762l-1.918.686a.5.5 0 0 1-.54-.136 8.49 8.49 0 0 1-1.78-3.079.5.5 0 0 1 .152-.535l1.555-1.32a1 1 0 0 0 0-1.524l-1.555-1.32a.5.5 0 0 1-.152-.535ZM8.001 10a2 2 0 1 0 4 0 2 2 0 0 0-4 0Z"/><path d="M17.5 12a2 2 0 1 1-4 0 2 2 0 0 1 4 0ZM19 16.5c0 1.245-1 2.5-3.5 2.5S12 17.75 12 16.5a1.5 1.5 0 0 1 1.5-1.5h4a1.5 1.5 0 0 1 1.5 1.5Z"/></svg>