<svg xmlns="http://www.w3.org/2000/svg" width="16" height="16" fill="currentColor"><path d="M5.203 10.618a1.71 1.71 0 0 1 1.918 1.111A2.498 2.498 0 0 0 7 12.5c0 .499.112 1 .348 1.463a6.07 6.07 0 0 1-.608-.096.354.354 0 0 1-.275-.282l-.259-1.416a.708.708 0 0 0-.935-.538l-1.36.484a.355.355 0 0 1-.382-.095 5.986 5.986 0 0 1-1.262-2.173.352.352 0 0 1 .108-.378l1.102-.931a.704.704 0 0 0 0-1.076l-1.102-.931a.352.352 0 0 1-.108-.378A5.986 5.986 0 0 1 3.53 3.98a.355.355 0 0 1 .382-.095l1.36.484a.71.71 0 0 0 .935-.538l.26-1.416a.354.354 0 0 1 .274-.282 6.072 6.072 0 0 1 2.52 0c.14.03.248.141.274.282l.26 1.416a.708.708 0 0 0 .935.538l1.36-.484a.355.355 0 0 1 .382.095c.51.562.909 1.214 1.174 1.923a2.994 2.994 0 0 0-1.588-.851 5.564 5.564 0 0 0-.056-.075l-.128.046a2.987 2.987 0 0 0-1.797.336A1.706 1.706 0 0 1 8.81 4.011l-.178-.97a5.105 5.105 0 0 0-1.265 0l-.177.97a1.71 1.71 0 0 1-2.255 1.3L4 4.977a4.986 4.986 0 0 0-.63 1.084l.754.637a1.704 1.704 0 0 1 0 2.603l-.755.638c.164.386.376.75.63 1.084l.937-.334c.088-.03.177-.055.268-.071Z"/><path d="M8 6a2 2 0 1 0 1.036 3.711 2.987 2.987 0 0 1-.43-.916 1 1 0 1 1 0-1.59c.091-.332.238-.641.43-.916A1.99 1.99 0 0 0 8 6ZM13.5 8a2 2 0 1 1-4 0 2 2 0 0 1 4 0ZM15 12.5c0 1.245-1 2.5-3.5 2.5S8 13.75 8 12.5A1.5 1.5 0 0 1 9.5 11h4a1.5 1.5 0 0 1 1.5 1.5Z"/></svg>