<svg xmlns="http://www.w3.org/2000/svg" width="20" height="20" fill="currentColor"><path d="M2 10c0-.615.107-1.185.32-1.71.214-.527.506-1.011.875-1.454A6.45 6.45 0 0 1 4.47 5.672a9.116 9.116 0 0 1 3.484-1.477C8.625 4.065 9.307 4 10 4c.693 0 1.375.065 2.047.195.672.13 1.325.336 1.96.617.532.235 1.037.521 1.516.86.48.338.904.726 1.274 1.164.37.437.661.92.875 1.445.213.526.323 1.1.328 1.719 0 .61-.11 1.18-.328 1.71a5.567 5.567 0 0 1-.875 1.454c-.365.438-.79.826-1.274 1.164-.484.339-.99.628-1.515.867a8.81 8.81 0 0 1-1.961.61c-.672.125-1.354.19-2.047.195-.693 0-1.375-.063-2.047-.188a8.569 8.569 0 0 1-1.96-.617 8.848 8.848 0 0 1-1.509-.86 6.65 6.65 0 0 1-1.273-1.17 5.623 5.623 0 0 1-.883-1.454A4.411 4.411 0 0 1 2 10Zm15 0c0-.484-.08-.93-.242-1.336a4.433 4.433 0 0 0-.703-1.172 5.515 5.515 0 0 0-1.235-1.125 7.487 7.487 0 0 0-1.508-.773 8.698 8.698 0 0 0-1.64-.446A10.665 10.665 0 0 0 10 5a10.2 10.2 0 0 0-1.781.156 7.913 7.913 0 0 0-1.727.516c-.448.187-.883.42-1.304.695a5.522 5.522 0 0 0-1.118.961c-.323.365-.58.771-.773 1.219A3.734 3.734 0 0 0 3 10c0 .526.096 1.01.29 1.453.192.443.452.847.78 1.211.328.365.7.685 1.117.961.417.276.852.51 1.305.703.557.235 1.13.404 1.719.508.588.104 1.185.159 1.789.164.547 0 1.102-.047 1.664-.14a8.32 8.32 0 0 0 1.649-.454 7.84 7.84 0 0 0 1.5-.773 5.646 5.646 0 0 0 1.242-1.125 4.42 4.42 0 0 0 .695-1.164c.162-.406.245-.854.25-1.344Z"/></svg>