<svg xmlns="http://www.w3.org/2000/svg" width="20" height="20" fill="currentColor"><path d="M4 4.75C4 3.784 4.784 3 5.75 3h4.5c.966 0 1.75.784 1.75 1.75v1.189l-.014.024L11 7.691V4.75a.75.75 0 0 0-.75-.75h-4.5a.75.75 0 0 0-.75.75v3.457c-.349.099-.683.23-1 .393V4.75ZM9.565 10.205A4.481 4.481 0 0 0 6.5 9 4.493 4.493 0 0 0 2 13.5a4.5 4.5 0 1 0 7.565-3.295ZM8.95 11A3.486 3.486 0 0 1 10 13.499v.001a3.475 3.475 0 0 1-.337 1.5 3.5 3.5 0 1 1-.713-4ZM17.732 15h-5.939c.093-.328.156-.668.186-1.017h5.579L13.64 7.119l-2.229 3.905a5.513 5.513 0 0 0-.616-.959l2.058-3.606a.903.903 0 0 1 1.573 0l4.091 7.169c.348.61-.088 1.372-.786 1.372Z"/></svg>