<svg xmlns="http://www.w3.org/2000/svg" width="20" height="20" fill="currentColor"><path d="M13 3a4.997 4.997 0 0 0-4.274 2.405 2.17 2.17 0 0 1 1.153.96l1.928 3.338A5.475 5.475 0 0 1 14.5 9c1.15 0 2.22.353 3.102.958A5 5 0 0 0 13 3ZM9.013 6.864l1.968 3.409A5.488 5.488 0 0 0 9 14.5c0 .895.214 1.74.593 2.486H3.17a1.171 1.171 0 0 1-1.014-1.755l4.83-8.367a1.17 1.17 0 0 1 2.027 0Z"/><path d="M12.065 11.442a2 2 0 0 1-1.43 2.478l-.461.118a4.735 4.735 0 0 0 .01 1.016l.35.083a2 2 0 0 1 1.455 2.519l-.126.423c.257.203.537.377.835.517l.325-.344a2 2 0 0 1 2.909.002l.337.358c.293-.135.568-.302.822-.498l-.156-.556a2 2 0 0 1 1.43-2.478l.461-.118a4.731 4.731 0 0 0-.01-1.017l-.349-.082a2 2 0 0 1-1.456-2.52l.126-.421a4.318 4.318 0 0 0-.835-.519l-.324.344a2 2 0 0 1-2.91-.001l-.337-.358a4.316 4.316 0 0 0-.822.497l.156.557ZM14.5 15.5a1 1 0 1 1 0-2 1 1 0 0 1 0 2Z"/></svg>