<svg xmlns="http://www.w3.org/2000/svg" width="20" height="20" fill="currentColor"><path d="M13 4c-1.459 0-2.735.78-3.434 1.948a2.17 2.17 0 0 0-.84-.543 5 5 0 0 1 8.877 4.553 5.49 5.49 0 0 0-.88-.49A4 4 0 0 0 13 4ZM9.013 6.864l1.968 3.409c-.29.242-.556.514-.791.81L8.069 7.41A.08.08 0 0 0 8 7.37a.08.08 0 0 0-.069.04l-4.83 8.366a.08.08 0 0 0 0 .08.08.08 0 0 0 .069.04h6.008c.1.38.24.746.415 1.09H3.17a1.171 1.171 0 0 1-1.014-1.755l4.83-8.367a1.17 1.17 0 0 1 2.027 0Z"/><path d="M12.065 11.442a2 2 0 0 1-1.43 2.478l-.461.118a4.735 4.735 0 0 0 .01 1.016l.35.083a2 2 0 0 1 1.455 2.519l-.126.423c.257.203.537.377.835.517l.325-.344a2 2 0 0 1 2.909.002l.337.358c.293-.135.568-.302.822-.498l-.156-.556a2 2 0 0 1 1.43-2.478l.461-.118a4.731 4.731 0 0 0-.01-1.017l-.349-.082a2 2 0 0 1-1.456-2.52l.126-.421a4.318 4.318 0 0 0-.835-.519l-.324.344a2 2 0 0 1-2.91-.001l-.337-.358a4.316 4.316 0 0 0-.822.497l.156.557ZM14.5 15.5a1 1 0 1 1 0-2 1 1 0 0 1 0 2Z"/></svg>