<svg xmlns="http://www.w3.org/2000/svg" width="20" height="20" fill="currentColor"><path d="M2 10c0-.615.107-1.185.32-1.71.214-.527.506-1.011.875-1.454A6.45 6.45 0 0 1 4.47 5.672a9.116 9.116 0 0 1 3.484-1.477C8.625 4.065 9.307 4 10 4c.693 0 1.375.065 2.047.195.672.13 1.325.336 1.96.617.532.235 1.037.521 1.516.86.48.338.904.726 1.274 1.164.37.437.661.92.875 1.445.213.526.323 1.1.328 1.719 0 .61-.11 1.18-.328 1.71a5.567 5.567 0 0 1-.875 1.454c-.365.438-.79.826-1.274 1.164-.484.339-.99.628-1.515.867a8.81 8.81 0 0 1-1.961.61c-.672.125-1.354.19-2.047.195-.693 0-1.375-.063-2.047-.188a8.569 8.569 0 0 1-1.96-.617 8.848 8.848 0 0 1-1.509-.86 6.65 6.65 0 0 1-1.273-1.17 5.623 5.623 0 0 1-.883-1.454A4.411 4.411 0 0 1 2 10Z"/></svg>