<svg xmlns="http://www.w3.org/2000/svg" width="24" height="24" fill="currentColor"><path d="M4 4.75a2 2 0 0 1 2-2h5a2 2 0 0 1 2 2v.778a3.321 3.321 0 0 0-.44.597L11.5 7.962V4.75a.5.5 0 0 0-.5-.5H6a.5.5 0 0 0-.5.5v4.23a6.707 6.707 0 0 0-1.5.602V4.75ZM20.246 17.938h-6.7a6.7 6.7 0 0 0 .39-1.5h6.31a.25.25 0 0 0 .217-.375L15.59 7.624a.25.25 0 0 0-.432 0l-2.342 4.056a6.784 6.784 0 0 0-1.044-1.192l2.086-3.614c.674-1.167 2.358-1.167 3.031 0l4.872 8.438c.674 1.166-.169 2.624-1.516 2.624ZM12.5 15.5a5.25 5.25 0 1 1-10.5 0 5.25 5.25 0 0 1 10.5 0Zm-1.37 0a3.88 3.88 0 1 0-7.76 0 3.88 3.88 0 0 0 7.76 0Z"/></svg>