<svg xmlns="http://www.w3.org/2000/svg" width="16" height="16" fill="currentColor"><path d="M3 4.75C3 3.784 3.784 3 4.75 3h2.5c.887 0 1.62.66 1.734 1.514-.233.185-.44.417-.605.697L8 5.851V4.75A.75.75 0 0 0 7.25 4h-2.5a.75.75 0 0 0-.75.75v2.452c-.34.113-.658.27-.95.466A1.754 1.754 0 0 1 3 7.25v-2.5ZM12.905 12H9.063c.087-.319.136-.654.14-1h3.702a.5.5 0 0 0 .43-.754l-2.373-4.017a.5.5 0 0 0-.861 0L8.574 8.813a3.973 3.973 0 0 0-.687-.805L9.24 5.72a1.5 1.5 0 0 1 2.583 0l2.373 4.017A1.5 1.5 0 0 1 12.907 12ZM5.25 14a3 3 0 1 0 0-6 3 3 0 0 0 0 6Zm2-3a2 2 0 1 1-4 0 2 2 0 0 1 4 0Z"/></svg>