<svg xmlns="http://www.w3.org/2000/svg" width="20" height="20" fill="currentColor"><g clip-path="url(#icon-4a7c60501106d043__icon-242116092df099d1__a)"><mask id="icon-8598712575bb1838__icon-dddedb0e3c7736eb__b" width="20" height="20" x="0" y="0" maskUnits="userSpaceOnUse" style="mask-type:luminance"><path fill="#fff" d="M20 0H0v20h20V0Z"/></mask><g mask="url(#icon-8598712575bb1838__icon-dddedb0e3c7736eb__b)"><path fill="url(#icon-0ee7f4ef7cd186c0__icon-fdc282fe91d82052__c)" d="M2 4.5A2.5 2.5 0 0 1 4.5 2h11A2.5 2.5 0 0 1 18 4.5v11a2.5 2.5 0 0 1-2.5 2.5h-11A2.5 2.5 0 0 1 2 15.5v-11Z"/><path fill="url(#icon-36d45adc5eabe8c4__icon-d41b9aff4d7fd7ca__d)" fill-opacity=".2" d="M2 4.5A2.5 2.5 0 0 1 4.5 2h11A2.5 2.5 0 0 1 18 4.5v11a2.5 2.5 0 0 1-2.5 2.5h-11A2.5 2.5 0 0 1 2 15.5v-11Z"/><path fill="url(#icon-cd98290440fa4ebd__icon-7ecb833246840d6c__e)" fill-rule="evenodd" d="M15.5 3h-11A1.5 1.5 0 0 0 3 4.5v11A1.5 1.5 0 0 0 4.5 17h11a1.5 1.5 0 0 0 1.5-1.5v-11A1.5 1.5 0 0 0 15.5 3Zm-11-1A2.5 2.5 0 0 0 2 4.5v11A2.5 2.5 0 0 0 4.5 18h11a2.5 2.5 0 0 0 2.5-2.5v-11A2.5 2.5 0 0 0 15.5 2h-11Z" clip-rule="evenodd"/><path fill="url(#icon-68a13aae5982b998__icon-5ae7b286a1016909__f)" d="M6 9a1 1 0 1 0 0-2 1 1 0 0 0 0 2Z"/><path fill="url(#icon-0b04f4a1d3de7b8d__icon-bc330265f73081fe__g)" d="M10 9a1 1 0 1 0 0-2 1 1 0 0 0 0 2Z"/><path fill="url(#icon-4522dbdec6bc8e39__icon-5aaf3976f0342f4c__h)" d="M15 8a1 1 0 1 1-2 0 1 1 0 0 1 2 0Z"/><path fill="url(#icon-660ad46a83ff407d__icon-32442bae56e65531__i)" d="M10 13a1 1 0 1 0 0-2 1 1 0 0 0 0 2Z"/><path fill="url(#icon-0e1d6de6a64692ad__icon-2f8122048af33979__j)" d="M7 12a1 1 0 1 1-2 0 1 1 0 0 1 2 0Z"/><path fill="#F5F5F5" fill-rule="evenodd" d="M13.32 14.01a3 3 0 1 1 4.454 0 2.5 2.5 0 0 1 2.273 2.49 3.2 3.2 0 0 1-1.172 2.485c-.792.66-1.918 1.015-3.328 1.015s-2.535-.353-3.328-1.013a3.199 3.199 0 0 1-1.172-2.487 2.5 2.5 0 0 1 2.273-2.49Z" clip-rule="evenodd"/><path fill="url(#icon-551c7b5306f7c62b__icon-61af92fcf81b6924__k)" d="M15.547 14a2 2 0 1 0 0-4 2 2 0 0 0 0 4Zm0 5c2.5 0 3.5-1.255 3.5-2.5a1.5 1.5 0 0 0-1.5-1.5h-4a1.5 1.5 0 0 0-1.5 1.5c0 1.25 1 2.5 3.5 2.5Z"/></g></g><defs><linearGradient id="icon-0ee7f4ef7cd186c0__icon-fdc282fe91d82052__c" x1="6.444" x2="8.468" y1="2" y2="18.192" gradientUnits="userSpaceOnUse"><stop stop-color="#fff"/><stop offset="1" stop-color="#EBEBEB"/></linearGradient><linearGradient id="icon-cd98290440fa4ebd__icon-7ecb833246840d6c__e" x1="7.167" x2="9.321" y1="2" y2="18.157" gradientUnits="userSpaceOnUse"><stop stop-color="#BBB"/><stop offset="1" stop-color="#888"/></linearGradient><linearGradient id="icon-68a13aae5982b998__icon-5ae7b286a1016909__f" x1="5" x2="10.294" y1="7" y2="15.823" gradientUnits="userSpaceOnUse"><stop stop-color="#7751B8"/><stop offset="1" stop-color="#5A409C"/></linearGradient><linearGradient id="icon-0b04f4a1d3de7b8d__icon-bc330265f73081fe__g" x1="5" x2="10.294" y1="7" y2="15.823" gradientUnits="userSpaceOnUse"><stop stop-color="#7751B8"/><stop offset="1" stop-color="#5A409C"/></linearGradient><linearGradient id="icon-4522dbdec6bc8e39__icon-5aaf3976f0342f4c__h" x1="5" x2="10.294" y1="7" y2="15.823" gradientUnits="userSpaceOnUse"><stop stop-color="#7751B8"/><stop offset="1" stop-color="#5A409C"/></linearGradient><linearGradient id="icon-660ad46a83ff407d__icon-32442bae56e65531__i" x1="5" x2="10.294" y1="7" y2="15.823" gradientUnits="userSpaceOnUse"><stop stop-color="#7751B8"/><stop offset="1" stop-color="#5A409C"/></linearGradient><linearGradient id="icon-0e1d6de6a64692ad__icon-2f8122048af33979__j" x1="5" x2="10.294" y1="7" y2="15.823" gradientUnits="userSpaceOnUse"><stop stop-color="#7751B8"/><stop offset="1" stop-color="#5A409C"/></linearGradient><linearGradient id="icon-551c7b5306f7c62b__icon-61af92fcf81b6924__k" x1="12.047" x2="20.77" y1="10" y2="16.785" gradientUnits="userSpaceOnUse"><stop stop-color="#7751B8"/><stop offset="1" stop-color="#5A409C"/></linearGradient><radialGradient id="icon-36d45adc5eabe8c4__icon-d41b9aff4d7fd7ca__d" cx="0" cy="0" r="1" gradientTransform="rotate(56.31 -2.206 9.727) scale(15.2234 13.1741)" gradientUnits="userSpaceOnUse"><stop offset=".177" stop-color="#fff"/><stop offset="1" stop-color="#B8B8B8"/></radialGradient><clipPath id="icon-4a7c60501106d043__icon-242116092df099d1__a"><path fill="#fff" d="M0 0h20v20H0z"/></clipPath></defs></svg>