<svg xmlns="http://www.w3.org/2000/svg" width="48" height="48" fill="currentColor"><path fill="url(#icon-c084512d5b90fd30__icon-71cb40c28277bc02__a)" d="M5 10a5 5 0 0 1 5-5h28a5 5 0 0 1 5 5v28a5 5 0 0 1-5 5H10a5 5 0 0 1-5-5V10Z"/><path fill="url(#icon-53d83407c3a96c32__icon-f13ba6c28eec5418__b)" fill-opacity=".2" d="M5 10a5 5 0 0 1 5-5h28a5 5 0 0 1 5 5v28a5 5 0 0 1-5 5H10a5 5 0 0 1-5-5V10Z"/><path fill="url(#icon-07d5c34f2183c9d4__icon-809e2d8d169136f5__c)" fill-rule="evenodd" d="M38 6H10a4 4 0 0 0-4 4v28a4 4 0 0 0 4 4h28a4 4 0 0 0 4-4V10a4 4 0 0 0-4-4ZM10 5a5 5 0 0 0-5 5v28a5 5 0 0 0 5 5h28a5 5 0 0 0 5-5V10a5 5 0 0 0-5-5H10Z" clip-rule="evenodd"/><path fill="url(#icon-5231076bd6de067a__icon-db68e60c30bd5a31__d)" d="M14.5 21a2.5 2.5 0 1 0 0-5 2.5 2.5 0 0 0 0 5Z"/><path fill="url(#icon-2ccffdba432e9244__icon-87b2f7d30f07a6f3__e)" d="M24 21a2.5 2.5 0 1 0 0-5 2.5 2.5 0 0 0 0 5Z"/><path fill="url(#icon-9afde3b03ff1b858__icon-62564d99153722d0__f)" d="M26.5 29.5a2.5 2.5 0 1 1-5 0 2.5 2.5 0 0 1 5 0Z"/><path fill="url(#icon-1c2b2faa7e5581fe__icon-317c8095c5693e98__g)" d="M14.5 32a2.5 2.5 0 1 0 0-5 2.5 2.5 0 0 0 0 5Z"/><path fill="url(#icon-d08bd55d4fba9bf4__icon-162cf0f11ed00308__h)" d="M36 18.5a2.5 2.5 0 1 1-5 0 2.5 2.5 0 0 1 5 0Z"/><path fill="#F5F5F5" d="M45.5 35a4.5 4.5 0 0 1-2.436 4h1.519C46.48 39 48 40.561 48 42.438c0 1.31-.563 2.617-1.773 3.574-1.192.943-2.936 1.488-5.227 1.488-2.29 0-4.034-.542-5.227-1.485C34.563 45.06 34 43.751 34 42.437 34 40.562 35.52 39 37.417 39h1.52a4.5 4.5 0 1 1 6.564-4Z"/><path fill="url(#icon-d343edef4ec20dbc__icon-b67abde5e4a9ea65__i)" d="M41 38.5a3.5 3.5 0 1 0 0-7 3.5 3.5 0 0 0 0 7Zm0 8c4.286 0 6-2.039 6-4.063C47 41.102 45.918 40 44.583 40h-7.166C36.082 40 35 41.102 35 42.438c0 2.03 1.714 4.062 6 4.062Z"/><defs><linearGradient id="icon-c084512d5b90fd30__icon-71cb40c28277bc02__a" x1="15.556" x2="20.362" y1="5" y2="43.455" gradientUnits="userSpaceOnUse"><stop stop-color="#fff"/><stop offset="1" stop-color="#EBEBEB"/></linearGradient><linearGradient id="icon-07d5c34f2183c9d4__icon-809e2d8d169136f5__c" x1="17.271" x2="22.387" y1="5" y2="43.373" gradientUnits="userSpaceOnUse"><stop stop-color="#BBB"/><stop offset="1" stop-color="#888"/></linearGradient><linearGradient id="icon-5231076bd6de067a__icon-db68e60c30bd5a31__d" x1="12" x2="26.769" y1="16" y2="38.154" gradientUnits="userSpaceOnUse"><stop stop-color="#7751B8"/><stop offset="1" stop-color="#5A409C"/></linearGradient><linearGradient id="icon-2ccffdba432e9244__icon-87b2f7d30f07a6f3__e" x1="12" x2="26.769" y1="16" y2="38.154" gradientUnits="userSpaceOnUse"><stop stop-color="#7751B8"/><stop offset="1" stop-color="#5A409C"/></linearGradient><linearGradient id="icon-9afde3b03ff1b858__icon-62564d99153722d0__f" x1="12" x2="26.769" y1="16" y2="38.154" gradientUnits="userSpaceOnUse"><stop stop-color="#7751B8"/><stop offset="1" stop-color="#5A409C"/></linearGradient><linearGradient id="icon-1c2b2faa7e5581fe__icon-317c8095c5693e98__g" x1="12" x2="26.769" y1="16" y2="38.154" gradientUnits="userSpaceOnUse"><stop stop-color="#7751B8"/><stop offset="1" stop-color="#5A409C"/></linearGradient><linearGradient id="icon-d08bd55d4fba9bf4__icon-162cf0f11ed00308__h" x1="12" x2="26.769" y1="16" y2="38.154" gradientUnits="userSpaceOnUse"><stop stop-color="#7751B8"/><stop offset="1" stop-color="#5A409C"/></linearGradient><linearGradient id="icon-d343edef4ec20dbc__icon-b67abde5e4a9ea65__i" x1="35" x2="49.634" y1="31.5" y2="43.207" gradientUnits="userSpaceOnUse"><stop stop-color="#7751B8"/><stop offset="1" stop-color="#5A409C"/></linearGradient><radialGradient id="icon-53d83407c3a96c32__icon-f13ba6c28eec5418__b" cx="0" cy="0" r="1" gradientTransform="rotate(56.31 -5.347 23.46) scale(36.1557 31.2886)" gradientUnits="userSpaceOnUse"><stop offset=".177" stop-color="#fff"/><stop offset="1" stop-color="#B8B8B8"/></radialGradient></defs></svg>