<svg xmlns="http://www.w3.org/2000/svg" width="40" height="40" fill="currentColor"><path fill="url(#icon-6481588cee62a5cf__icon-16814121e3316eb2__a)" d="M4 8a4 4 0 0 1 4-4h24a4 4 0 0 1 4 4v24a4 4 0 0 1-4 4H8a4 4 0 0 1-4-4V8Z"/><path fill="url(#icon-c6b2aa47eb5242f7__icon-0cee8e5cb0fc78c2__b)" fill-opacity=".2" d="M4 8a4 4 0 0 1 4-4h24a4 4 0 0 1 4 4v24a4 4 0 0 1-4 4H8a4 4 0 0 1-4-4V8Z"/><path fill="url(#icon-d61ee97e00db8094__icon-38e52e2160c9171e__c)" fill-rule="evenodd" d="M32 5H8a3 3 0 0 0-3 3v24a3 3 0 0 0 3 3h24a3 3 0 0 0 3-3V8a3 3 0 0 0-3-3ZM8 4a4 4 0 0 0-4 4v24a4 4 0 0 0 4 4h24a4 4 0 0 0 4-4V8a4 4 0 0 0-4-4H8Z" clip-rule="evenodd"/><path fill="url(#icon-2b4ecc6c581dd473__icon-ccb5b537337a9235__d)" d="M12 18.25a2 2 0 1 0 0-4 2 2 0 0 0 0 4Z"/><path fill="url(#icon-2a276e3475de25ea__icon-dda6ee12d2fe0b31__e)" d="M20 18.25a2 2 0 1 0 0-4 2 2 0 0 0 0 4Z"/><path fill="url(#icon-f6894e8fb166750c__icon-1b5329d8a0ef65dc__f)" d="M30 16.25a2 2 0 1 1-4 0 2 2 0 0 1 4 0Z"/><path fill="url(#icon-f1f553233a0615d8__icon-66abcf6105a56dcf__g)" d="M20 26.25a2 2 0 1 0 0-4 2 2 0 0 0 0 4Z"/><path fill="url(#icon-6f8c67be2321d5f0__icon-74d1b831d1bfdebc__h)" d="M14 24.25a2 2 0 1 1-4 0 2 2 0 0 1 4 0Z"/><path fill="url(#icon-e56c5b9e47da46e8__icon-a5a5408d847e5bdb__i)" d="M36.5 28a3 3 0 1 1-6 0 3 3 0 0 1 6 0Z"/><path fill="url(#icon-faece865cae86c56__icon-9c2381d407ccda1d__j)" d="M30.47 32A2.46 2.46 0 0 0 28 34.45v.112c0 1.006.422 2.011 1.348 2.754.918.736 2.29 1.184 4.152 1.184 1.861 0 3.234-.45 4.152-1.187.926-.743 1.348-1.748 1.348-2.75v-.114A2.46 2.46 0 0 0 36.53 32h-6.06Z"/><path fill="#F5F5F5" fill-rule="evenodd" d="M36.146 31a4 4 0 1 0-5.292 0h-.384c-1.9 0-3.47 1.528-3.47 3.45v.112c0 1.299.551 2.595 1.722 3.534 1.148.92 2.766 1.404 4.778 1.404 2.013 0 3.631-.486 4.779-1.407 1.17-.94 1.721-2.235 1.721-3.53v-.114C40 32.53 38.43 31 36.53 31h-.384ZM33.5 31a3 3 0 1 0 0-6 3 3 0 0 0 0 6Zm-3.03 1A2.46 2.46 0 0 0 28 34.45v.112c0 1.006.422 2.011 1.348 2.754.918.736 2.29 1.184 4.152 1.184 1.861 0 3.234-.45 4.152-1.187.926-.743 1.348-1.748 1.348-2.75v-.114A2.46 2.46 0 0 0 36.53 32h-6.06Z" clip-rule="evenodd"/><defs><linearGradient id="icon-6481588cee62a5cf__icon-16814121e3316eb2__a" x1="12.889" x2="16.937" y1="4" y2="36.383" gradientUnits="userSpaceOnUse"><stop stop-color="#fff"/><stop offset="1" stop-color="#EBEBEB"/></linearGradient><linearGradient id="icon-d61ee97e00db8094__icon-38e52e2160c9171e__c" x1="14.333" x2="18.642" y1="4" y2="36.314" gradientUnits="userSpaceOnUse"><stop stop-color="#BBB"/><stop offset="1" stop-color="#888"/></linearGradient><linearGradient id="icon-2b4ecc6c581dd473__icon-ccb5b537337a9235__d" x1="10" x2="20.588" y1="14.25" y2="31.897" gradientUnits="userSpaceOnUse"><stop stop-color="#7751B8"/><stop offset="1" stop-color="#5A409C"/></linearGradient><linearGradient id="icon-2a276e3475de25ea__icon-dda6ee12d2fe0b31__e" x1="10" x2="20.588" y1="14.25" y2="31.897" gradientUnits="userSpaceOnUse"><stop stop-color="#7751B8"/><stop offset="1" stop-color="#5A409C"/></linearGradient><linearGradient id="icon-f6894e8fb166750c__icon-1b5329d8a0ef65dc__f" x1="10" x2="20.588" y1="14.25" y2="31.897" gradientUnits="userSpaceOnUse"><stop stop-color="#7751B8"/><stop offset="1" stop-color="#5A409C"/></linearGradient><linearGradient id="icon-f1f553233a0615d8__icon-66abcf6105a56dcf__g" x1="10" x2="20.588" y1="14.25" y2="31.897" gradientUnits="userSpaceOnUse"><stop stop-color="#7751B8"/><stop offset="1" stop-color="#5A409C"/></linearGradient><linearGradient id="icon-6f8c67be2321d5f0__icon-74d1b831d1bfdebc__h" x1="10" x2="20.588" y1="14.25" y2="31.897" gradientUnits="userSpaceOnUse"><stop stop-color="#7751B8"/><stop offset="1" stop-color="#5A409C"/></linearGradient><linearGradient id="icon-e56c5b9e47da46e8__icon-a5a5408d847e5bdb__i" x1="28" x2="41.222" y1="25" y2="35.773" gradientUnits="userSpaceOnUse"><stop stop-color="#7751B8"/><stop offset="1" stop-color="#5A409C"/></linearGradient><linearGradient id="icon-faece865cae86c56__icon-9c2381d407ccda1d__j" x1="28" x2="41.222" y1="25" y2="35.773" gradientUnits="userSpaceOnUse"><stop stop-color="#7751B8"/><stop offset="1" stop-color="#5A409C"/></linearGradient><radialGradient id="icon-c6b2aa47eb5242f7__icon-0cee8e5cb0fc78c2__b" cx="0" cy="0" r="1" gradientTransform="rotate(56.31 -4.411 19.454) scale(30.4469 26.3483)" gradientUnits="userSpaceOnUse"><stop offset=".177" stop-color="#fff"/><stop offset="1" stop-color="#B8B8B8"/></radialGradient></defs></svg>