<svg xmlns="http://www.w3.org/2000/svg" width="32" height="32" fill="currentColor"><path fill="url(#icon-3a5edfc6736137c0__icon-314de4a585b54886__a)" d="M3 6.5A3.5 3.5 0 0 1 6.5 3h19A3.5 3.5 0 0 1 29 6.5v19a3.5 3.5 0 0 1-3.5 3.5h-19A3.5 3.5 0 0 1 3 25.5v-19Z"/><path fill="url(#icon-064dfb9dbced5b05__icon-beb4fce4264ecd44__b)" fill-opacity=".2" d="M3 6.5A3.5 3.5 0 0 1 6.5 3h19A3.5 3.5 0 0 1 29 6.5v19a3.5 3.5 0 0 1-3.5 3.5h-19A3.5 3.5 0 0 1 3 25.5v-19Z"/><path fill="url(#icon-b530fc31fb27de24__icon-543175547a5e60c5__c)" fill-rule="evenodd" d="M25.5 4h-19A2.5 2.5 0 0 0 4 6.5v19A2.5 2.5 0 0 0 6.5 28h19a2.5 2.5 0 0 0 2.5-2.5v-19A2.5 2.5 0 0 0 25.5 4Zm-19-1A3.5 3.5 0 0 0 3 6.5v19A3.5 3.5 0 0 0 6.5 29h19a3.5 3.5 0 0 0 3.5-3.5v-19A3.5 3.5 0 0 0 25.5 3h-19Z" clip-rule="evenodd"/><path fill="url(#icon-6c1962fa3d833549__icon-059c16d613a44ac7__d)" d="M9.75 14.5a1.75 1.75 0 1 0 0-3.5 1.75 1.75 0 0 0 0 3.5Z"/><path fill="url(#icon-65c0f27c4d1140b6__icon-5dd3d4af335d3e5c__e)" d="M16 14.5a1.75 1.75 0 1 0 0-3.5 1.75 1.75 0 0 0 0 3.5Z"/><path fill="url(#icon-1c87666b2e9bda7a__icon-aa2bce1e54eb3c49__f)" d="M11.5 19.25a1.75 1.75 0 1 1-3.5 0 1.75 1.75 0 0 1 3.5 0Z"/><path fill="url(#icon-4bb32a066ba10ee8__icon-3b7befc42b716d8a__g)" d="M16 21a1.75 1.75 0 1 0 0-3.5 1.75 1.75 0 0 0 0 3.5Z"/><path fill="url(#icon-7a9614760a05797e__icon-9cbd0d434e1144ea__h)" d="M24 12.75a1.75 1.75 0 1 1-3.5 0 1.75 1.75 0 0 1 3.5 0Z"/><path fill="#F5F5F5" fill-rule="evenodd" d="M24.05 24a3.5 3.5 0 1 1 4.899 0h.278C30.758 24 32 25.24 32 26.772v.103c0 1.068-.448 2.139-1.415 2.923C29.633 30.57 28.261 31 26.5 31c-1.76 0-3.132-.428-4.085-1.2-.967-.783-1.415-1.855-1.415-2.925v-.103A2.772 2.772 0 0 1 23.773 24h.277Z" clip-rule="evenodd"/><path fill="url(#icon-138086455b28ae16__icon-06f87c82cd2de586__i)" d="M26.5 24a2.5 2.5 0 1 0 0-5 2.5 2.5 0 0 0 0 5Zm0 6c3.214 0 4.5-1.569 4.5-3.125v-.103c0-.979-.794-1.772-1.773-1.772h-5.454c-.98 0-1.773.793-1.773 1.772v.103C22 28.437 23.286 30 26.5 30Z"/><defs><linearGradient id="icon-3a5edfc6736137c0__icon-314de4a585b54886__a" x1="10.222" x2="13.511" y1="3" y2="29.311" gradientUnits="userSpaceOnUse"><stop stop-color="#fff"/><stop offset="1" stop-color="#EBEBEB"/></linearGradient><linearGradient id="icon-b530fc31fb27de24__icon-543175547a5e60c5__c" x1="11.396" x2="14.897" y1="3" y2="29.256" gradientUnits="userSpaceOnUse"><stop stop-color="#BBB"/><stop offset="1" stop-color="#888"/></linearGradient><linearGradient id="icon-6c1962fa3d833549__icon-059c16d613a44ac7__d" x1="8" x2="16.989" y1="11" y2="25.382" gradientUnits="userSpaceOnUse"><stop stop-color="#7751B8"/><stop offset="1" stop-color="#5A409C"/></linearGradient><linearGradient id="icon-65c0f27c4d1140b6__icon-5dd3d4af335d3e5c__e" x1="8" x2="16.989" y1="11" y2="25.382" gradientUnits="userSpaceOnUse"><stop stop-color="#7751B8"/><stop offset="1" stop-color="#5A409C"/></linearGradient><linearGradient id="icon-1c87666b2e9bda7a__icon-aa2bce1e54eb3c49__f" x1="8" x2="16.989" y1="11" y2="25.382" gradientUnits="userSpaceOnUse"><stop stop-color="#7751B8"/><stop offset="1" stop-color="#5A409C"/></linearGradient><linearGradient id="icon-4bb32a066ba10ee8__icon-3b7befc42b716d8a__g" x1="8" x2="16.989" y1="11" y2="25.382" gradientUnits="userSpaceOnUse"><stop stop-color="#7751B8"/><stop offset="1" stop-color="#5A409C"/></linearGradient><linearGradient id="icon-7a9614760a05797e__icon-9cbd0d434e1144ea__h" x1="8" x2="16.989" y1="11" y2="25.382" gradientUnits="userSpaceOnUse"><stop stop-color="#7751B8"/><stop offset="1" stop-color="#5A409C"/></linearGradient><linearGradient id="icon-138086455b28ae16__icon-06f87c82cd2de586__i" x1="22" x2="32.782" y1="19" y2="27.822" gradientUnits="userSpaceOnUse"><stop stop-color="#7751B8"/><stop offset="1" stop-color="#5A409C"/></linearGradient><radialGradient id="icon-064dfb9dbced5b05__icon-beb4fce4264ecd44__b" cx="0" cy="0" r="1" gradientTransform="rotate(56.31 -3.476 15.448) scale(24.7381 21.408)" gradientUnits="userSpaceOnUse"><stop offset=".177" stop-color="#fff"/><stop offset="1" stop-color="#B8B8B8"/></radialGradient></defs></svg>