<svg xmlns="http://www.w3.org/2000/svg" width="24" height="24" fill="currentColor"><g clip-path="url(#icon-98f2c212f6102f78__icon-b72ace7799a7b008__a)"><mask id="icon-c0120bc207459f34__icon-cfacb73f2ac4bc14__b" width="24" height="24" x="0" y="0" maskUnits="userSpaceOnUse" style="mask-type:luminance"><path fill="#fff" d="M24 0H0v24h24V0Z"/></mask><g mask="url(#icon-c0120bc207459f34__icon-cfacb73f2ac4bc14__b)"><path fill="url(#icon-b56406001f6ae1e1__icon-2056d3cda1c17fb0__c)" d="M2 5a3 3 0 0 1 3-3h14a3 3 0 0 1 3 3v14a3 3 0 0 1-3 3H5a3 3 0 0 1-3-3V5Z"/><path fill="url(#icon-ffd60c5cd469a05d__icon-438938b8dcff992b__d)" fill-opacity=".2" d="M2 5a3 3 0 0 1 3-3h14a3 3 0 0 1 3 3v14a3 3 0 0 1-3 3H5a3 3 0 0 1-3-3V5Z"/><path fill="url(#icon-e6d6e9549c7023fd__icon-1e907b7f751e0cab__e)" fill-rule="evenodd" d="M19 3H5a2 2 0 0 0-2 2v14a2 2 0 0 0 2 2h14a2 2 0 0 0 2-2V5a2 2 0 0 0-2-2ZM5 2a3 3 0 0 0-3 3v14a3 3 0 0 0 3 3h14a3 3 0 0 0 3-3V5a3 3 0 0 0-3-3H5Z" clip-rule="evenodd"/><path fill="url(#icon-0840517b2a7611e3__icon-d3ecfe8bd2994a61__f)" d="M7.25 10.5a1.25 1.25 0 1 0 0-2.5 1.25 1.25 0 0 0 0 2.5Z"/><path fill="url(#icon-34659d248946d9be__icon-7c38ad191badeb8b__g)" d="M12 10.5A1.25 1.25 0 1 0 12 8a1.25 1.25 0 0 0 0 2.5Z"/><path fill="url(#icon-7e7c7995d383cb05__icon-4b9cc84e3479ec18__h)" d="M13.25 14.75a1.25 1.25 0 1 1-2.5 0 1.25 1.25 0 0 1 2.5 0Z"/><path fill="url(#icon-1866065d9fc2bbc9__icon-20db651b1156c840__i)" d="M7.25 16a1.25 1.25 0 1 0 0-2.5 1.25 1.25 0 0 0 0 2.5Z"/><path fill="url(#icon-decf88b0c6a3b53f__icon-fe25d8500677591b__j)" d="M18 9.25a1.25 1.25 0 1 1-2.5 0 1.25 1.25 0 0 1 2.5 0Z"/><path fill="#F5F5F5" fill-rule="evenodd" d="M17.32 18.01a3 3 0 1 1 4.454 0 2.5 2.5 0 0 1 2.273 2.49 3.2 3.2 0 0 1-1.172 2.485c-.792.66-1.918 1.015-3.328 1.015s-2.535-.353-3.328-1.013a3.199 3.199 0 0 1-1.172-2.487 2.5 2.5 0 0 1 2.273-2.49Z" clip-rule="evenodd"/><path fill="url(#icon-74026b072904c8e5__icon-4ece62706bae5b4e__k)" d="M19.547 18a2 2 0 1 0 0-4 2 2 0 0 0 0 4Zm0 5c2.5 0 3.5-1.255 3.5-2.5a1.5 1.5 0 0 0-1.5-1.5h-4a1.5 1.5 0 0 0-1.5 1.5c0 1.25 1 2.5 3.5 2.5Z"/></g></g><defs><linearGradient id="icon-b56406001f6ae1e1__icon-2056d3cda1c17fb0__c" x1="7.556" x2="10.085" y1="2" y2="22.239" gradientUnits="userSpaceOnUse"><stop stop-color="#fff"/><stop offset="1" stop-color="#EBEBEB"/></linearGradient><linearGradient id="icon-e6d6e9549c7023fd__icon-1e907b7f751e0cab__e" x1="8.458" x2="11.151" y1="2" y2="22.197" gradientUnits="userSpaceOnUse"><stop stop-color="#BBB"/><stop offset="1" stop-color="#888"/></linearGradient><linearGradient id="icon-0840517b2a7611e3__icon-d3ecfe8bd2994a61__f" x1="6" x2="13.385" y1="8" y2="19.077" gradientUnits="userSpaceOnUse"><stop stop-color="#7751B8"/><stop offset="1" stop-color="#5A409C"/></linearGradient><linearGradient id="icon-34659d248946d9be__icon-7c38ad191badeb8b__g" x1="6" x2="13.385" y1="8" y2="19.077" gradientUnits="userSpaceOnUse"><stop stop-color="#7751B8"/><stop offset="1" stop-color="#5A409C"/></linearGradient><linearGradient id="icon-7e7c7995d383cb05__icon-4b9cc84e3479ec18__h" x1="6" x2="13.385" y1="8" y2="19.077" gradientUnits="userSpaceOnUse"><stop stop-color="#7751B8"/><stop offset="1" stop-color="#5A409C"/></linearGradient><linearGradient id="icon-1866065d9fc2bbc9__icon-20db651b1156c840__i" x1="6" x2="13.385" y1="8" y2="19.077" gradientUnits="userSpaceOnUse"><stop stop-color="#7751B8"/><stop offset="1" stop-color="#5A409C"/></linearGradient><linearGradient id="icon-decf88b0c6a3b53f__icon-fe25d8500677591b__j" x1="6" x2="13.385" y1="8" y2="19.077" gradientUnits="userSpaceOnUse"><stop stop-color="#7751B8"/><stop offset="1" stop-color="#5A409C"/></linearGradient><linearGradient id="icon-74026b072904c8e5__icon-4ece62706bae5b4e__k" x1="16.047" x2="24.77" y1="14" y2="20.785" gradientUnits="userSpaceOnUse"><stop stop-color="#7751B8"/><stop offset="1" stop-color="#5A409C"/></linearGradient><radialGradient id="icon-ffd60c5cd469a05d__icon-438938b8dcff992b__d" cx="0" cy="0" r="1" gradientTransform="rotate(56.31 -2.54 11.442) scale(19.0293 16.4677)" gradientUnits="userSpaceOnUse"><stop offset=".177" stop-color="#fff"/><stop offset="1" stop-color="#B8B8B8"/></radialGradient><clipPath id="icon-98f2c212f6102f78__icon-b72ace7799a7b008__a"><path fill="#fff" d="M0 0h24v24H0z"/></clipPath></defs></svg>