<svg xmlns="http://www.w3.org/2000/svg" width="20" height="20" fill="currentColor"><path fill-rule="evenodd" d="M6 6V4.5c0-.344.065-.667.195-.969.13-.307.31-.573.539-.797.224-.229.49-.409.797-.539.302-.13.625-.195.969-.195.281 0 .549.044.805.133.256.089.49.214.703.375A2.442 2.442 0 0 1 11.5 2a2.484 2.484 0 0 1 2.305 1.531c.13.302.195.625.195.969V6h1a1 1 0 0 1 1 1v2.268A2 2 0 0 0 15 11v.268A2 2 0 0 0 12 13V6h1V4.5c0-.208-.039-.404-.117-.586A1.482 1.482 0 0 0 11.5 3c-.307 0-.583.086-.828.258A2.503 2.503 0 0 1 11 4.5V13a2 2 0 0 0-2 2v3H7a3 3 0 0 1-2.117-.875 3.061 3.061 0 0 1-.648-.953A2.932 2.932 0 0 1 4 15V7a1 1 0 0 1 1-1h1Zm4 0V4.5c0-.208-.039-.404-.117-.586A1.482 1.482 0 0 0 8.5 3c-.208 0-.404.039-.586.117A1.482 1.482 0 0 0 7 4.5V6h3Z" clip-rule="evenodd"/><path d="M16.293 10.293A1 1 0 0 0 16 11v7a1 1 0 0 0 2 0v-7a1 1 0 0 0-1.707-.707ZM10.293 14.293A1 1 0 0 0 10 15v3a1 1 0 0 0 2 0v-3a1 1 0 0 0-1.707-.707ZM13.293 12.293A1 1 0 0 0 13 13v5a1 1 0 0 0 2 0v-5a1 1 0 0 0-1.707-.707Z"/></svg>