<svg xmlns="http://www.w3.org/2000/svg" width="20" height="20" fill="currentColor"><path d="M4.5 15H9v1H4.5A2.5 2.5 0 0 1 2 13.5v-7A2.5 2.5 0 0 1 4.5 4h11A2.5 2.5 0 0 1 18 6.5v2.55a2.512 2.512 0 0 0-.5-.05H17V6.5A1.5 1.5 0 0 0 15.5 5h-11A1.5 1.5 0 0 0 3 6.5v7A1.5 1.5 0 0 0 4.5 15Z"/><path d="M5.5 7a.5.5 0 0 0 0 1h4a.5.5 0 0 0 0-1h-4ZM5.5 9.5a.5.5 0 0 0 0 1h3.708c.174-.398.449-.742.792-1H5.5ZM9 12H5.5a.5.5 0 0 0 0 1H9v-1ZM11.5 10a1.5 1.5 0 0 0-1.5 1.5v.5h9v-.5a1.5 1.5 0 0 0-1.5-1.5h-6ZM19 13h-9v4.5a1.5 1.5 0 0 0 1.5 1.5h6a1.5 1.5 0 0 0 1.5-1.5V13Z"/></svg>