<svg xmlns="http://www.w3.org/2000/svg" width="20" height="20" fill="currentColor"><path d="M4.5 4A2.5 2.5 0 0 0 2 6.5v7A2.5 2.5 0 0 0 4.5 16H13v-.357c-.176-.2-.33-.415-.463-.643H4.5A1.5 1.5 0 0 1 3 13.5v-7A1.5 1.5 0 0 1 4.5 5h11A1.5 1.5 0 0 1 17 6.5v2.624a4 4 0 0 1 1 .41V6.5A2.5 2.5 0 0 0 15.5 4h-11Z"/><path d="M5.5 7a.5.5 0 0 0 0 1h4a.5.5 0 0 0 0-1h-4ZM5.5 9.5a.5.5 0 0 0 0 1h7a.5.5 0 0 0 0-1h-7ZM5.5 12a.5.5 0 0 0 0 1h5a.5.5 0 0 0 0-1h-5ZM16 16a3 3 0 1 0 0-6 3 3 0 0 0 0 6ZM16 17c.729 0 1.412-.195 2-.535v2.285a.25.25 0 0 1-.378.215L16 18l-1.622.965A.25.25 0 0 1 14 18.75v-2.285c.588.34 1.271.535 2 .535Z"/></svg>