<svg xmlns="http://www.w3.org/2000/svg" width="48" height="48" fill="currentColor"><path fill="url(#icon-dd8ca3ebf25c9795__icon-380bd8d573e91711__a)" d="M5 10a5 5 0 0 1 5-5h28a5 5 0 0 1 5 5v28a5 5 0 0 1-5 5H10a5 5 0 0 1-5-5V10Z"/><path fill="url(#icon-cb967fdf3a7fa15c__icon-fd18d1061c43019b__b)" fill-opacity=".2" d="M5 10a5 5 0 0 1 5-5h28a5 5 0 0 1 5 5v28a5 5 0 0 1-5 5H10a5 5 0 0 1-5-5V10Z"/><path fill="url(#icon-07615f45e25de9ba__icon-fa343f4386428851__c)" fill-rule="evenodd" d="M38 6H10a4 4 0 0 0-4 4v28a4 4 0 0 0 4 4h28a4 4 0 0 0 4-4V10a4 4 0 0 0-4-4ZM10 5a5 5 0 0 0-5 5v28a5 5 0 0 0 5 5h28a5 5 0 0 0 5-5V10a5 5 0 0 0-5-5H10Z" clip-rule="evenodd"/><path fill="url(#icon-8ad47e15563a8c73__icon-031931de1a7cf6db__d)" d="M24 12a.75.75 0 0 1 .75.75v9.95l8.617-4.974a.75.75 0 0 1 .75 1.299L25.5 24l8.617 4.976a.75.75 0 0 1-.75 1.299l-8.617-4.976v9.951a.75.75 0 0 1-1.5 0v-9.951l-8.618 4.976a.75.75 0 0 1-.75-1.3L22.5 24l-8.618-4.975a.75.75 0 0 1 .75-1.3l8.618 4.976V12.75A.75.75 0 0 1 24 12Z"/><defs><linearGradient id="icon-dd8ca3ebf25c9795__icon-380bd8d573e91711__a" x1="15.556" x2="20.362" y1="5" y2="43.455" gradientUnits="userSpaceOnUse"><stop stop-color="#fff"/><stop offset="1" stop-color="#EBEBEB"/></linearGradient><linearGradient id="icon-07615f45e25de9ba__icon-fa343f4386428851__c" x1="17.271" x2="22.387" y1="5" y2="43.373" gradientUnits="userSpaceOnUse"><stop stop-color="#BBB"/><stop offset="1" stop-color="#888"/></linearGradient><linearGradient id="icon-8ad47e15563a8c73__icon-031931de1a7cf6db__d" x1="13.507" x2="37.292" y1="12" y2="32.798" gradientUnits="userSpaceOnUse"><stop stop-color="#4BA446"/><stop offset="1" stop-color="#3F7D35"/></linearGradient><radialGradient id="icon-cb967fdf3a7fa15c__icon-fd18d1061c43019b__b" cx="0" cy="0" r="1" gradientTransform="rotate(56.31 -5.347 23.46) scale(36.1557 31.2886)" gradientUnits="userSpaceOnUse"><stop offset=".177" stop-color="#fff"/><stop offset="1" stop-color="#B8B8B8"/></radialGradient></defs></svg>