<svg xmlns="http://www.w3.org/2000/svg" width="40" height="40" fill="currentColor"><path fill="url(#icon-c71348457286a0a4__icon-6f7a30afb9dc334d__a)" d="M4 8a4 4 0 0 1 4-4h24a4 4 0 0 1 4 4v24a4 4 0 0 1-4 4H8a4 4 0 0 1-4-4V8Z"/><path fill="url(#icon-14bc21470e15a637__icon-2c9f6adb633ea5e1__b)" fill-opacity=".2" d="M4 8a4 4 0 0 1 4-4h24a4 4 0 0 1 4 4v24a4 4 0 0 1-4 4H8a4 4 0 0 1-4-4V8Z"/><path fill="url(#icon-1b53aad3330b2cab__icon-872c1dcb7125ca98__c)" fill-rule="evenodd" d="M32 5H8a3 3 0 0 0-3 3v24a3 3 0 0 0 3 3h24a3 3 0 0 0 3-3V8a3 3 0 0 0-3-3ZM8 4a4 4 0 0 0-4 4v24a4 4 0 0 0 4 4h24a4 4 0 0 0 4-4V8a4 4 0 0 0-4-4H8Z" clip-rule="evenodd"/><path fill="url(#icon-bee52edefc29347d__icon-dfd2862f3460275b__d)" d="M20 9.93a.75.75 0 0 1 .75.75V18.7l6.947-4.01a.75.75 0 0 1 .75 1.298L21.5 20l6.947 4.01a.75.75 0 0 1-.75 1.3l-6.947-4.011v8.022a.75.75 0 0 1-1.5 0v-8.022l-6.946 4.01a.75.75 0 1 1-.75-1.298L18.5 20l-6.946-4.01a.75.75 0 0 1 .75-1.3l6.946 4.01v-8.02a.75.75 0 0 1 .75-.75Z"/><defs><linearGradient id="icon-c71348457286a0a4__icon-6f7a30afb9dc334d__a" x1="12.889" x2="16.937" y1="4" y2="36.383" gradientUnits="userSpaceOnUse"><stop stop-color="#fff"/><stop offset="1" stop-color="#EBEBEB"/></linearGradient><linearGradient id="icon-1b53aad3330b2cab__icon-872c1dcb7125ca98__c" x1="14.333" x2="18.642" y1="4" y2="36.314" gradientUnits="userSpaceOnUse"><stop stop-color="#BBB"/><stop offset="1" stop-color="#888"/></linearGradient><linearGradient id="icon-bee52edefc29347d__icon-dfd2862f3460275b__d" x1="11.179" x2="31.145" y1="9.93" y2="27.42" gradientUnits="userSpaceOnUse"><stop stop-color="#4BA446"/><stop offset="1" stop-color="#3F7D35"/></linearGradient><radialGradient id="icon-14bc21470e15a637__icon-2c9f6adb633ea5e1__b" cx="0" cy="0" r="1" gradientTransform="rotate(56.31 -4.411 19.454) scale(30.4469 26.3483)" gradientUnits="userSpaceOnUse"><stop offset=".177" stop-color="#fff"/><stop offset="1" stop-color="#B8B8B8"/></radialGradient></defs></svg>