<svg xmlns="http://www.w3.org/2000/svg" width="24" height="24" fill="currentColor"><path fill="url(#icon-576d5ab9a0b1d83c__icon-f44de910a3b3baea__a)" d="M2 5a3 3 0 0 1 3-3h14a3 3 0 0 1 3 3v14a3 3 0 0 1-3 3H5a3 3 0 0 1-3-3V5Z"/><path fill="url(#icon-2e52e23599a5d58a__icon-b82b7c3f89981e1f__b)" fill-opacity=".2" d="M2 5a3 3 0 0 1 3-3h14a3 3 0 0 1 3 3v14a3 3 0 0 1-3 3H5a3 3 0 0 1-3-3V5Z"/><path fill="url(#icon-1fd9185344ce24ff__icon-5b94ca831008b31b__c)" fill-rule="evenodd" d="M19 3H5a2 2 0 0 0-2 2v14a2 2 0 0 0 2 2h14a2 2 0 0 0 2-2V5a2 2 0 0 0-2-2ZM5 2a3 3 0 0 0-3 3v14a3 3 0 0 0 3 3h14a3 3 0 0 0 3-3V5a3 3 0 0 0-3-3H5Z" clip-rule="evenodd"/><path fill="url(#icon-2c26237239934c8e__icon-a1d23e8f424f63aa__d)" d="M12 6a.75.75 0 0 1 .75.75v3.951l3.422-1.975a.75.75 0 0 1 .75 1.299L13.5 12l3.422 1.976a.75.75 0 0 1-.75 1.299l-3.422-1.976v3.951a.75.75 0 0 1-1.5 0V13.3l-3.422 1.975a.75.75 0 0 1-.75-1.3L10.5 12l-3.422-1.975a.75.75 0 1 1 .75-1.3l3.422 1.976V6.75A.75.75 0 0 1 12 6Z"/><defs><linearGradient id="icon-576d5ab9a0b1d83c__icon-f44de910a3b3baea__a" x1="7.556" x2="10.085" y1="2" y2="22.239" gradientUnits="userSpaceOnUse"><stop stop-color="#fff"/><stop offset="1" stop-color="#EBEBEB"/></linearGradient><linearGradient id="icon-1fd9185344ce24ff__icon-5b94ca831008b31b__c" x1="8.458" x2="11.151" y1="2" y2="22.197" gradientUnits="userSpaceOnUse"><stop stop-color="#BBB"/><stop offset="1" stop-color="#888"/></linearGradient><linearGradient id="icon-2c26237239934c8e__icon-a1d23e8f424f63aa__d" x1="6.703" x2="18.61" y1="6" y2="16.512" gradientUnits="userSpaceOnUse"><stop stop-color="#4BA446"/><stop offset="1" stop-color="#3F7D35"/></linearGradient><radialGradient id="icon-2e52e23599a5d58a__icon-b82b7c3f89981e1f__b" cx="0" cy="0" r="1" gradientTransform="rotate(56.31 -2.54 11.442) scale(19.0293 16.4677)" gradientUnits="userSpaceOnUse"><stop offset=".177" stop-color="#fff"/><stop offset="1" stop-color="#B8B8B8"/></radialGradient></defs></svg>