<svg xmlns="http://www.w3.org/2000/svg" width="48" height="48" fill="currentColor"><path fill="url(#icon-581cc2ec24492576__icon-32dcf83cc95a63cc__a)" d="M5 10a5 5 0 0 1 5-5h28a5 5 0 0 1 5 5v28a5 5 0 0 1-5 5H10a5 5 0 0 1-5-5V10Z"/><path fill="url(#icon-23b0e4671f5c1a6f__icon-af246787887ebb30__b)" fill-opacity=".2" d="M5 10a5 5 0 0 1 5-5h28a5 5 0 0 1 5 5v28a5 5 0 0 1-5 5H10a5 5 0 0 1-5-5V10Z"/><path fill="url(#icon-9f59bdb7406dbfd2__icon-119c9ba026adad67__c)" fill-rule="evenodd" d="M38 6H10a4 4 0 0 0-4 4v28a4 4 0 0 0 4 4h28a4 4 0 0 0 4-4V10a4 4 0 0 0-4-4ZM10 5a5 5 0 0 0-5 5v28a5 5 0 0 0 5 5h28a5 5 0 0 0 5-5V10a5 5 0 0 0-5-5H10Z" clip-rule="evenodd"/><path fill="#F5F5F5" d="M46.56 42.43c-.28-.28-.66-.44-1.06-.44H43V36.5c0-.83-.67-1.5-1.5-1.5s-1.5.67-1.5 1.5v2.62c0-1.09-.41-2.11-1.15-2.89A3.985 3.985 0 0 0 36 35c-1.06 0-2.11.45-2.85 1.23l-.12.15c-.1-.18-.23-.35-.4-.48-.76-.58-1.71-.91-2.67-.91-.12 0-.24 0-.36.01h-.2c-.33 0-.66.05-.97.14-.44.14-.84.36-1.2.65-.35.29-.64.65-.85 1.06-.21.41-.33.85-.36 1.31v.1c0 1.03.53 1.92 1.51 2.52.61.37 1.28.56 1.68.67l.11.03c.29.08.59.16.81.26v.16c-.05.02-.2.08-.54.08 0 0-.19.01-.23.01-.33 0-.65-.11-.9-.32-.27-.22-.6-.34-.95-.34-.45 0-.88.2-1.16.55-.25.31-.37.7-.33 1.1.04.4.24.76.55 1.01.79.64 1.78.99 2.79.99.12 0 .23 0 .28-.01.87 0 1.61-.21 2.19-.61.41-.28.73-.64.95-1.08.11.16.23.32.37.47.75.78 1.79 1.23 2.85 1.23.77 0 1.51-.22 2.14-.64l.46.34c.26.19.57.3.89.3.38 0 .74-.15 1.01-.4.26.23.61.38.98.38h4c.83.01 1.5-.66 1.5-1.48 0-.4-.15-.78-.44-1.06l.02.01Z"/><path fill="url(#icon-710b0073f221a12d__icon-6f0af8832d412768__d)" fill-rule="evenodd" d="M36 36c-.804 0-1.57.336-2.13.924-.56.588-.87 1.38-.87 2.201v1.75c0 .821.31 1.613.87 2.201.56.588 1.326.924 2.13.924a2.94 2.94 0 0 0 2.112-.906l1.09.808a.5.5 0 1 0 .595-.804l-1.114-.825c.207-.431.317-.91.317-1.398v-1.75c0-.821-.31-1.613-.87-2.201A2.941 2.941 0 0 0 36 36Zm1.097 5.098.76.564c.094-.248.143-.514.143-.787v-1.75c0-.571-.216-1.114-.594-1.511A1.941 1.941 0 0 0 36 37c-.522 0-1.029.218-1.406.614-.378.397-.594.94-.594 1.511v1.75c0 .571.216 1.114.594 1.511.377.396.884.614 1.406.614.474 0 .935-.18 1.298-.509l-.796-.59a.5.5 0 1 1 .595-.803Z" clip-rule="evenodd"/><path fill="url(#icon-db009724a2b6cf83__icon-c415219c7ccc2e74__e)" d="M32.015 36.699a3.376 3.376 0 0 0-2.405-.681 2.4 2.4 0 0 0-1.738.542 2.38 2.38 0 0 0-.855 1.666l-.001.017v.018c0 .826.516 1.348 1.032 1.66.49.297 1.06.457 1.398.552l.032.009.112.031c.343.095.72.2 1.033.39.32.194.514.44.514.837 0 .55-.196.822-.427.979-.265.18-.654.261-1.097.261h-.021l-.021.002a2.43 2.43 0 0 1-1.74-.535.5.5 0 0 0-.63.776 3.43 3.43 0 0 0 2.433.757c.528-.002 1.141-.096 1.638-.434.536-.365.865-.964.865-1.806 0-.848-.474-1.375-.995-1.692-.44-.267-.957-.409-1.286-.5l-.108-.029c-.354-.1-.811-.228-1.182-.453-.356-.216-.544-.462-.55-.789a1.374 1.374 0 0 1 .494-.947 1.393 1.393 0 0 1 1.047-.312l.058.006.058-.007a2.376 2.376 0 0 1 1.733.474.5.5 0 0 0 .61-.792Z"/><path fill="url(#icon-d747bedf663fa118__icon-8f8adb43201b5748__f)" d="M42 36.5a.5.5 0 0 0-1 0v6.98a.5.5 0 0 0 .498.5l4 .01a.5.5 0 0 0 .004-1L42 42.98V36.5Z"/><path fill="url(#icon-597cc41382fd5809__icon-19d54c37faac9f02__g)" d="M32.367 15.155c.378.377.629.824.633 1.332v.013"/><path fill="url(#icon-e98ec93a84fb69dc__icon-591de30341113501__h)" d="M33 16.513c-.005.59-.342 1.099-.826 1.509-.489.414-1.17.767-1.973 1.054C28.593 19.652 26.4 20 24 20c-2.4 0-4.593-.348-6.201-.924-.803-.288-1.484-.64-1.973-1.054-.487-.413-.826-.926-.826-1.522a1.577 1.577 0 0 1 .003-.101v-.01c.04-.549.366-1.024.823-1.411.489-.414 1.17-.767 1.973-1.054C19.407 13.348 21.6 13 24 13c2.4 0 4.593.348 6.201.924.803.287 1.484.64 1.973 1.054.067.057.132.116.193.177"/><path fill="url(#icon-e8e264f7e852e7c1__icon-46bef3fe9250bbf5__i)" d="M32.82 18.785c.06-.051.12-.105.18-.161v12.48h-.002c-.024.623-.342 1.173-.813 1.631-.488.475-1.17.88-1.973 1.21-1.607.659-3.796 1.055-6.196 1.055s-4.597-.396-6.212-1.056c-.806-.329-1.492-.733-1.983-1.208-.47-.453-.79-.999-.819-1.616H15V18.624c.06.056.12.11.18.161.614.52 1.416.923 2.282 1.233 1.742.624 4.054.982 6.538.982s4.796-.358 6.538-.982c.866-.31 1.668-.713 2.282-1.233Z"/><defs><linearGradient id="icon-581cc2ec24492576__icon-32dcf83cc95a63cc__a" x1="15.556" x2="20.362" y1="5" y2="43.455" gradientUnits="userSpaceOnUse"><stop stop-color="#fff"/><stop offset="1" stop-color="#EBEBEB"/></linearGradient><linearGradient id="icon-9f59bdb7406dbfd2__icon-119c9ba026adad67__c" x1="17.271" x2="22.387" y1="5" y2="43.373" gradientUnits="userSpaceOnUse"><stop stop-color="#BBB"/><stop offset="1" stop-color="#888"/></linearGradient><linearGradient id="icon-710b0073f221a12d__icon-6f0af8832d412768__d" x1="27.016" x2="32.741" y1="36" y2="49.587" gradientUnits="userSpaceOnUse"><stop stop-color="#008EE6"/><stop offset="1" stop-color="#006094"/></linearGradient><linearGradient id="icon-db009724a2b6cf83__icon-c415219c7ccc2e74__e" x1="27.016" x2="32.741" y1="36" y2="49.587" gradientUnits="userSpaceOnUse"><stop stop-color="#008EE6"/><stop offset="1" stop-color="#006094"/></linearGradient><linearGradient id="icon-d747bedf663fa118__icon-8f8adb43201b5748__f" x1="27.016" x2="32.741" y1="36" y2="49.587" gradientUnits="userSpaceOnUse"><stop stop-color="#008EE6"/><stop offset="1" stop-color="#006094"/></linearGradient><linearGradient id="icon-597cc41382fd5809__icon-19d54c37faac9f02__g" x1="15" x2="36.564" y1="13" y2="30.644" gradientUnits="userSpaceOnUse"><stop stop-color="#008EE6"/><stop offset="1" stop-color="#006094"/></linearGradient><linearGradient id="icon-e98ec93a84fb69dc__icon-591de30341113501__h" x1="15" x2="36.564" y1="13" y2="30.644" gradientUnits="userSpaceOnUse"><stop stop-color="#008EE6"/><stop offset="1" stop-color="#006094"/></linearGradient><linearGradient id="icon-e8e264f7e852e7c1__icon-46bef3fe9250bbf5__i" x1="15" x2="36.564" y1="13" y2="30.644" gradientUnits="userSpaceOnUse"><stop stop-color="#008EE6"/><stop offset="1" stop-color="#006094"/></linearGradient><radialGradient id="icon-23b0e4671f5c1a6f__icon-af246787887ebb30__b" cx="0" cy="0" r="1" gradientTransform="rotate(56.31 -5.347 23.46) scale(36.1557 31.2886)" gradientUnits="userSpaceOnUse"><stop offset=".177" stop-color="#fff"/><stop offset="1" stop-color="#B8B8B8"/></radialGradient></defs></svg>