<svg xmlns="http://www.w3.org/2000/svg" width="40" height="40" fill="currentColor"><path fill="url(#icon-62ac508a73aee1c6__icon-ae4da1a0dad4fbd9__a)" d="M4 8a4 4 0 0 1 4-4h24a4 4 0 0 1 4 4v24a4 4 0 0 1-4 4H8a4 4 0 0 1-4-4V8Z"/><path fill="url(#icon-41c026fcec2acb38__icon-81ad3a29aa99706c__b)" fill-opacity=".2" d="M4 8a4 4 0 0 1 4-4h24a4 4 0 0 1 4 4v24a4 4 0 0 1-4 4H8a4 4 0 0 1-4-4V8Z"/><path fill="url(#icon-d9f8785205be5612__icon-e4ae9c33fd5398f3__c)" fill-rule="evenodd" d="M32 5H8a3 3 0 0 0-3 3v24a3 3 0 0 0 3 3h24a3 3 0 0 0 3-3V8a3 3 0 0 0-3-3ZM8 4a4 4 0 0 0-4 4v24a4 4 0 0 0 4 4h24a4 4 0 0 0 4-4V8a4 4 0 0 0-4-4H8Z" clip-rule="evenodd"/><path fill="url(#icon-12ea316095961438__icon-428e71d27e756e37__d)" d="M13 15.354v11.17h.008c.048.395.295.738.635 1.02.38.314.91.582 1.534.8 1.251.439 2.956.703 4.823.703 1.867 0 3.572-.264 4.823-.702.625-.219 1.154-.487 1.534-.802.34-.281.587-.624.635-1.019H27v-11.17l-.029.023c-.505.393-1.154.689-1.835.913-1.377.453-3.193.71-5.136.71s-3.759-.257-5.136-.71c-.682-.224-1.33-.52-1.835-.913a5.679 5.679 0 0 1-.029-.023Z"/><path fill="url(#icon-388260748c3632e6__icon-e3719f3e616d45f4__e)" d="M26.999 13.453 27 13.5c0 .426-.264.792-.643 1.087-.38.296-.91.548-1.534.753-1.251.412-2.956.66-4.823.66-1.867 0-3.572-.248-4.823-.66-.624-.205-1.154-.457-1.534-.753-.38-.295-.643-.661-.643-1.087a1.045 1.045 0 0 1 .003-.08c.03-.391.284-.73.64-1.007.38-.296.91-.548 1.534-.753C16.428 11.248 18.133 11 20 11c1.867 0 3.572.248 4.823.66.625.205 1.154.457 1.534.753.366.284.623.634.642 1.04Z"/><path fill="#F5F5F5" d="M38.56 35.43c-.28-.28-.66-.44-1.06-.44H35V29.5c0-.83-.67-1.5-1.5-1.5s-1.5.67-1.5 1.5v2.62c0-1.09-.41-2.11-1.15-2.89A3.985 3.985 0 0 0 28 28c-1.06 0-2.11.45-2.85 1.23l-.12.15c-.1-.18-.23-.35-.4-.48-.76-.58-1.71-.91-2.67-.91-.12 0-.24 0-.36.01h-.2c-.33 0-.66.05-.97.14-.44.14-.84.36-1.2.65-.35.29-.64.65-.85 1.06-.21.41-.33.85-.36 1.31v.1c0 1.03.53 1.92 1.51 2.52.61.37 1.28.56 1.68.67l.11.03c.29.08.59.16.81.26v.16c-.05.02-.2.08-.54.08 0 0-.19.01-.23.01-.33 0-.65-.11-.9-.32-.27-.22-.6-.34-.95-.34-.45 0-.88.2-1.16.55-.25.31-.37.7-.33 1.1.04.4.24.76.55 1.01.79.64 1.78.99 2.79.99.12 0 .23 0 .28-.01.87 0 1.61-.21 2.19-.61.41-.28.73-.64.95-1.08.11.16.23.32.37.47.75.78 1.79 1.23 2.85 1.23.77 0 1.51-.22 2.14-.64l.46.34c.26.19.57.3.89.3.38 0 .74-.15 1.01-.4.26.23.61.38.98.38h4c.83.01 1.5-.66 1.5-1.48 0-.4-.15-.78-.44-1.06l.02.01Z"/><path fill="url(#icon-b76f47641d773a59__icon-947f3cea51b35d50__f)" fill-rule="evenodd" d="M28 29c-.804 0-1.57.335-2.13.924-.56.588-.87 1.38-.87 2.201v1.75c0 .821.31 1.613.87 2.201.56.588 1.326.924 2.13.924a2.94 2.94 0 0 0 2.112-.906l1.09.808a.5.5 0 1 0 .595-.804l-1.114-.825c.207-.431.317-.91.317-1.398v-1.75c0-.821-.31-1.613-.87-2.201A2.941 2.941 0 0 0 28 29Zm1.098 5.098.76.564c.093-.248.142-.514.142-.787v-1.75c0-.571-.216-1.114-.594-1.511A1.941 1.941 0 0 0 28 30c-.522 0-1.029.218-1.406.614-.378.396-.594.94-.594 1.511v1.75c0 .571.216 1.114.594 1.511.377.396.884.614 1.406.614.474 0 .935-.18 1.298-.509l-.796-.59a.5.5 0 1 1 .596-.803Z" clip-rule="evenodd"/><path fill="url(#icon-e22780bf50c64927__icon-44e9ba4ff588d016__g)" d="M24.015 29.699a3.376 3.376 0 0 0-2.405-.681 2.4 2.4 0 0 0-1.738.542 2.38 2.38 0 0 0-.855 1.666l-.001.018v.017c0 .826.516 1.348 1.032 1.66.49.297 1.06.457 1.398.552l.032.009.112.031c.343.095.72.2 1.033.39.32.194.514.44.514.837 0 .55-.196.822-.427.979-.265.18-.654.261-1.097.261h-.021l-.021.002a2.43 2.43 0 0 1-1.74-.535.5.5 0 0 0-.63.776 3.43 3.43 0 0 0 2.433.757c.528-.002 1.141-.096 1.638-.434.536-.365.865-.964.865-1.806 0-.848-.474-1.375-.995-1.692-.44-.267-.957-.409-1.286-.5l-.108-.029c-.354-.1-.811-.228-1.182-.453-.356-.216-.544-.462-.55-.789a1.374 1.374 0 0 1 .494-.947 1.393 1.393 0 0 1 1.047-.312l.058.006.058-.007a2.376 2.376 0 0 1 1.733.474.5.5 0 0 0 .61-.792Z"/><path fill="url(#icon-84535a3cef22be31__icon-23c371a1007818b5__h)" d="M34 29.5a.5.5 0 0 0-1 0v6.98a.5.5 0 0 0 .498.5l4 .01a.5.5 0 0 0 .004-1L34 35.98V29.5Z"/><defs><linearGradient id="icon-62ac508a73aee1c6__icon-ae4da1a0dad4fbd9__a" x1="12.889" x2="16.937" y1="4" y2="36.383" gradientUnits="userSpaceOnUse"><stop stop-color="#fff"/><stop offset="1" stop-color="#EBEBEB"/></linearGradient><linearGradient id="icon-d9f8785205be5612__icon-e4ae9c33fd5398f3__c" x1="14.333" x2="18.642" y1="4" y2="36.314" gradientUnits="userSpaceOnUse"><stop stop-color="#BBB"/><stop offset="1" stop-color="#888"/></linearGradient><linearGradient id="icon-12ea316095961438__icon-428e71d27e756e37__d" x1="13" x2="30.481" y1="11" y2="24.561" gradientUnits="userSpaceOnUse"><stop stop-color="#008EE6"/><stop offset="1" stop-color="#006094"/></linearGradient><linearGradient id="icon-388260748c3632e6__icon-e3719f3e616d45f4__e" x1="13" x2="30.481" y1="11" y2="24.56" gradientUnits="userSpaceOnUse"><stop stop-color="#008EE6"/><stop offset="1" stop-color="#006094"/></linearGradient><linearGradient id="icon-b76f47641d773a59__icon-947f3cea51b35d50__f" x1="19.016" x2="24.741" y1="29" y2="42.587" gradientUnits="userSpaceOnUse"><stop stop-color="#008EE6"/><stop offset="1" stop-color="#006094"/></linearGradient><linearGradient id="icon-e22780bf50c64927__icon-44e9ba4ff588d016__g" x1="19.016" x2="24.741" y1="29" y2="42.587" gradientUnits="userSpaceOnUse"><stop stop-color="#008EE6"/><stop offset="1" stop-color="#006094"/></linearGradient><linearGradient id="icon-84535a3cef22be31__icon-23c371a1007818b5__h" x1="19.016" x2="24.741" y1="29" y2="42.587" gradientUnits="userSpaceOnUse"><stop stop-color="#008EE6"/><stop offset="1" stop-color="#006094"/></linearGradient><radialGradient id="icon-41c026fcec2acb38__icon-81ad3a29aa99706c__b" cx="0" cy="0" r="1" gradientTransform="rotate(56.31 -4.411 19.454) scale(30.4469 26.3483)" gradientUnits="userSpaceOnUse"><stop offset=".177" stop-color="#fff"/><stop offset="1" stop-color="#B8B8B8"/></radialGradient></defs></svg>