<svg xmlns="http://www.w3.org/2000/svg" width="20" height="20" fill="currentColor"><path d="M6 17h3.007a1.48 1.48 0 0 1 .26-1H6a2 2 0 0 1-2-2V6a2 2 0 0 1 2-2h8a2 2 0 0 1 2 2v6.091a1.42 1.42 0 0 1 .541-.09c.158.004.311.032.459.084V6a3 3 0 0 0-3-3H6a3 3 0 0 0-3 3v8a3 3 0 0 0 3 3Z"/><path d="m13.439 16.5-.793.793V13.5a.5.5 0 0 0-1 0v3.793l-.792-.793a.5.5 0 0 0-.709.707l1.647 1.647a.504.504 0 0 0 .708 0l1.646-1.647a.503.503 0 0 0-.006-.701.502.502 0 0 0-.701-.006ZM16.854 13.146l1.646 1.647a.5.5 0 0 1-.707.707L17 14.707V18.5a.498.498 0 0 1-.5.5.5.5 0 0 1-.5-.5v-3.793l-.793.793a.5.5 0 0 1-.707-.707l1.646-1.647a.508.508 0 0 1 .354-.147.506.506 0 0 1 .354.147ZM8.51 9.5c.047-1.128.25-2.123.54-2.85.167-.417.353-.722.535-.914.18-.19.32-.236.415-.236.094 0 .235.046.415.236.182.192.368.497.535.914.29.727.493 1.722.54 2.85H8.51ZM8.121 6.279c.064-.16.134-.314.208-.459A4.504 4.504 0 0 0 5.527 9.5H7.51c.047-1.234.268-2.36.612-3.221ZM11.67 5.82c.075.145.144.299.208.459.345.862.565 1.987.612 3.221h1.982a4.504 4.504 0 0 0-2.802-3.68ZM12.49 10.5h1.982a4.479 4.479 0 0 1-.979 2.337 1.491 1.491 0 0 0-1.155-.824c.08-.476.132-.985.152-1.513ZM11.268 12.284a1.508 1.508 0 0 0-.621 1.217v.457a1.987 1.987 0 0 1-.232.306c-.18.19-.32.236-.415.236-.094 0-.235-.046-.415-.236-.182-.192-.368-.497-.535-.914-.29-.727-.493-1.722-.54-2.85h2.98c-.027.647-.105 1.25-.222 1.784ZM5.527 10.5a4.504 4.504 0 0 0 2.802 3.68 5.316 5.316 0 0 1-.208-.459c-.344-.862-.565-1.987-.612-3.221H5.527Z"/></svg>