<svg xmlns="http://www.w3.org/2000/svg" width="20" height="20" fill="currentColor"><path d="M6 3h8a3 3 0 0 1 3 3v4.098a1.772 1.772 0 0 0-.501-.097c-.62 0-1.184.39-1.41.987a2.594 2.594 0 0 1-.346.568c-.361.445-.648.445-.742.445-.094 0-.381 0-.742-.445a2.748 2.748 0 0 1-.354-.585c-.219-.578-.78-.967-1.479-.967h-.007a1.49 1.49 0 0 0-1.372 1.126l-.04.105a1.73 1.73 0 0 1-.206.364C9.589 11.88 9.35 12 9 12c-.827 0-1.5.673-1.5 1.5S8.173 15 9 15c.401 0 .788-.055 1.153-.162-.044.092-.08.19-.106.292l-.04.105a1.73 1.73 0 0 1-.206.364C9.589 15.88 9.35 16 9 16c-.652 0-1.208.418-1.414 1H6a3 3 0 0 1-3-3V6a3 3 0 0 1 3-3Z"/><path d="M12.482 12.185c.358.44.854.815 1.518.815s1.161-.375 1.518-.815a3.62 3.62 0 0 0 .509-.85l.004-.01a.5.5 0 0 1 .953.053l.003.008.005.015.009.032a2.768 2.768 0 0 0 .398.767c.307.409.796.8 1.6.8a.5.5 0 0 1 0 1c-1.196 0-1.957-.61-2.4-1.2a3.915 3.915 0 0 1-.141-.202 4.802 4.802 0 0 1-.165.217c-.455.56-1.208 1.185-2.294 1.185s-1.839-.625-2.294-1.185a4.802 4.802 0 0 1-.165-.217c-.043.066-.09.134-.141.202-.443.59-1.204 1.2-2.4 1.2a.5.5 0 0 1 0-1c.804 0 1.293-.391 1.6-.8a2.768 2.768 0 0 0 .413-.814l.002-.01a.5.5 0 0 1 .953-.053l.004.012.021.05a3.62 3.62 0 0 0 .488.799h.002ZM14 17c-.664 0-1.16-.375-1.518-.815l-.002-.001a3.62 3.62 0 0 1-.488-.8l-.02-.046-.001-.003-.004-.012a.5.5 0 0 0-.953.054l-.002.009a2.51 2.51 0 0 1-.084.234c-.067.16-.173.37-.329.58-.307.409-.796.8-1.6.8a.5.5 0 0 0 0 1c1.196 0 1.957-.61 2.4-1.2.051-.068.098-.136.141-.202.051.07.106.144.165.217.455.56 1.208 1.185 2.294 1.185s1.839-.625 2.294-1.185c.059-.073.114-.146.165-.217.044.067.09.134.141.202.443.59 1.204 1.2 2.4 1.2a.5.5 0 0 0 0-1c-.804 0-1.293-.391-1.6-.8a2.768 2.768 0 0 1-.407-.799l-.005-.015-.003-.008a.5.5 0 0 0-.953-.053l-.004.01-.021.05a3.62 3.62 0 0 1-.488.799c-.357.44-.854.816-1.518.816Z"/></svg>