<svg xmlns="http://www.w3.org/2000/svg" width="28" height="28" fill="currentColor"><path d="M9.514 6.5H8.008A3.75 3.75 0 0 1 11.75 3h9.5A3.75 3.75 0 0 1 25 6.75v9.5a3.75 3.75 0 0 1-3.5 3.742v-1.506a2.25 2.25 0 0 0 2-2.236v-9.5a2.25 2.25 0 0 0-2.25-2.25h-9.5a2.25 2.25 0 0 0-2.236 2Z"/><path d="M6.75 8A3.75 3.75 0 0 0 3 11.75v9.5A3.75 3.75 0 0 0 6.75 25h9.5A3.75 3.75 0 0 0 20 21.25v-9.5A3.75 3.75 0 0 0 16.25 8h-9.5ZM4.5 11.75A2.25 2.25 0 0 1 6.75 9.5h9.5a2.25 2.25 0 0 1 2.25 2.25v9.5a2.25 2.25 0 0 1-2.25 2.25h-9.5a2.25 2.25 0 0 1-2.25-2.25v-9.5Z"/></svg>