<svg xmlns="http://www.w3.org/2000/svg" width="28" height="28" fill="currentColor"><path d="M3 6.75A3.75 3.75 0 0 1 6.75 3h14.5A3.75 3.75 0 0 1 25 6.75v9.806a2.342 2.342 0 0 0-.514-.056c-.6 0-1.164.234-1.59.659l-2.146 2.147v-.556c0-1.24-1.01-2.25-2.25-2.25s-2.25 1.01-2.25 2.25v3.016c-.6.001-1.163.235-1.587.659-.425.425-.66.99-.66 1.591 0 .347.079.681.226.984H6.75A3.75 3.75 0 0 1 3 21.25V6.75Z"/><path d="M17.958 26.78a.752.752 0 0 0 .537.22.748.748 0 0 0 .537-.22l2.234-2.234a.75.75 0 1 0-1.061-1.061l-.955.955v-5.69a.75.75 0 0 0-1.5 0v5.701l-.966-.966a.75.75 0 1 0-1.061 1.061l2.235 2.234ZM25.239 20.549l.966.966a.749.749 0 1 0 1.06-1.061L25.03 18.22a.748.748 0 0 0-.537-.22.752.752 0 0 0-.537.22l-2.234 2.234a.75.75 0 1 0 1.06 1.061l.956-.955v5.69a.75.75 0 0 0 1.5 0v-5.701Z"/></svg>