<svg xmlns="http://www.w3.org/2000/svg" width="20" height="20" fill="currentColor"><path d="M6 16h3.3c-.21.29-.305.645-.271 1H6a3 3 0 0 1-3-3V6a3 3 0 0 1 3-3h8a3 3 0 0 1 3 3v6.091a1.42 1.42 0 0 0-1 0V6a2 2 0 0 0-2-2H6a2 2 0 0 0-2 2v8a2 2 0 0 0 2 2Z"/><path d="m12.646 17.293.793-.793a.5.5 0 0 1 .707.707L12.5 18.854a.5.5 0 0 1-.707 0l-1.647-1.647a.5.5 0 1 1 .708-.707l.792.793V13.5a.5.5 0 0 1 1 0v3.793ZM16.854 13.146l1.646 1.647a.5.5 0 0 1-.707.707L17 14.707V18.5a.5.5 0 0 1-1 0v-3.793l-.793.793a.5.5 0 0 1-.707-.707l1.646-1.647a.5.5 0 0 1 .708 0Z"/></svg>