<svg xmlns="http://www.w3.org/2000/svg" width="20" height="20" fill="currentColor"><path d="M10 6c-1.795 0-3.25.895-3.25 2s1.455 2 3.25 2 3.25-.895 3.25-2S11.795 6 10 6Z"/><path d="M12.822 10.266c-.77.474-1.77.734-2.822.734s-2.052-.26-2.822-.734a3.72 3.72 0 0 1-.428-.307V12c0 1.105 1.455 2 3.25 2s3.25-.895 3.25-2V9.96c-.137.113-.28.215-.428.306Z"/><path d="M14 3H6a3 3 0 0 0-3 3v8a3 3 0 0 0 3 3h8a3 3 0 0 0 3-3V6a3 3 0 0 0-3-3Zm2 11a2 2 0 0 1-2 2H6a2 2 0 0 1-2-2V6a2 2 0 0 1 2-2h8a2 2 0 0 1 2 2v8Z"/></svg>