<svg xmlns="http://www.w3.org/2000/svg" width="24" height="24" fill="currentColor"><path d="M3 6.25A3.25 3.25 0 0 1 6.25 3h11.5A3.25 3.25 0 0 1 21 6.25v7.305a2.344 2.344 0 0 0-.512-.056c-.602 0-1.168.235-1.588.659l-1.187 1.187a2.255 2.255 0 0 0-2.213-1.846V11.42a3.883 3.883 0 0 1-.529.363c-.81.462-1.863.717-2.971.717s-2.16-.255-2.971-.717a3.883 3.883 0 0 1-.529-.363v3.08c0 1.105 1.567 2 3.5 2 .44 0 .861-.046 1.25-.131v1.712A2.253 2.253 0 0 0 11.41 21H6.25A3.25 3.25 0 0 1 3 17.75V6.25Zm9 1.25c-1.933 0-3.5.895-3.5 2s1.567 2 3.5 2 3.5-.895 3.5-2-1.567-2-3.5-2Z"/><path d="M14.96 22.78a.75.75 0 0 0 .535.22.75.75 0 0 0 .537-.22l1.938-1.938a.75.75 0 1 0-1.061-1.061l-.657.657v-4.689a.75.75 0 0 0-1.5 0v4.7l-.668-.668a.75.75 0 1 0-1.061 1.061l1.937 1.938ZM21.907 18.218l-.669-.668v4.7a.75.75 0 0 1-1.5 0v-4.689l-.657.657a.75.75 0 1 1-1.06-1.061l1.938-1.938a.75.75 0 0 1 .535-.22.75.75 0 0 1 .537.22l1.938 1.938a.75.75 0 1 1-1.063 1.061Z"/></svg>