<svg xmlns="http://www.w3.org/2000/svg" width="24" height="24" fill="currentColor"><path d="M10.25 2A3.25 3.25 0 0 0 7 5.25v.25h1.5v-.25c0-.966.784-1.75 1.75-1.75h8.5c.966 0 1.75.784 1.75 1.75v8.5a1.75 1.75 0 0 1-1.75 1.75h-.25V17h.25A3.25 3.25 0 0 0 22 13.75v-8.5A3.25 3.25 0 0 0 18.75 2h-8.5Z"/><path d="M5.25 7A3.25 3.25 0 0 0 2 10.25v8.5A3.25 3.25 0 0 0 5.25 22h8.5A3.25 3.25 0 0 0 17 18.75v-8.5A3.25 3.25 0 0 0 13.75 7h-8.5ZM3.5 10.25c0-.966.784-1.75 1.75-1.75h8.5c.966 0 1.75.784 1.75 1.75v8.5a1.75 1.75 0 0 1-1.75 1.75h-8.5a1.75 1.75 0 0 1-1.75-1.75v-8.5Z"/></svg>