<svg xmlns="http://www.w3.org/2000/svg" width="20" height="20" fill="currentColor"><path d="M2.44 4.44A1.5 1.5 0 0 1 3.5 4h2A1.5 1.5 0 0 1 7 5.5v2A1.5 1.5 0 0 1 5.5 9h-2A1.5 1.5 0 0 1 2 7.5v-2c0-.398.158-.78.44-1.06Zm.706.706A.5.5 0 0 0 3 5.5v2a.5.5 0 0 0 .5.5h2a.5.5 0 0 0 .5-.5v-2a.5.5 0 0 0-.5-.5h-2a.5.5 0 0 0-.354.146ZM8.44 4.44A1.5 1.5 0 0 1 9.5 4h2A1.5 1.5 0 0 1 13 5.5v2A1.5 1.5 0 0 1 11.5 9h-2A1.5 1.5 0 0 1 8 7.5v-2c0-.398.158-.78.44-1.06Zm.706.706A.5.5 0 0 0 9 5.5v2a.5.5 0 0 0 .5.5h2a.5.5 0 0 0 .5-.5v-2a.5.5 0 0 0-.5-.5h-2a.5.5 0 0 0-.354.146ZM14.44 4.44A1.5 1.5 0 0 0 14 5.5v2A1.5 1.5 0 0 0 15.5 9h2A1.5 1.5 0 0 0 19 7.5v-2A1.5 1.5 0 0 0 17.5 4h-2a1.5 1.5 0 0 0-1.06.44Zm.706.706A.5.5 0 0 1 15.5 5h2a.5.5 0 0 1 .5.5v2a.5.5 0 0 1-.5.5h-2a.5.5 0 0 1-.5-.5v-2a.5.5 0 0 1 .146-.354ZM10.854 11.146l1.646 1.647a.5.5 0 0 1-.707.707L11 12.707V17.5a.5.5 0 1 1-1 0v-4.793l-.793.793a.5.5 0 0 1-.707-.707l1.646-1.647a.502.502 0 0 1 .708 0Z"/></svg>