<svg xmlns="http://www.w3.org/2000/svg" width="20" height="20" fill="currentColor"><path d="M14 3H6a3 3 0 0 0-3 3v8a3 3 0 0 0 3 3h1.586c.205-.58.757-.996 1.405-1H6a2 2 0 0 1-2-2V6a2 2 0 0 1 2-2h8a2 2 0 0 1 2 2v4.088c.158-.057.326-.087.499-.087.179.01.347.043.501.097V6a3 3 0 0 0-3-3Z"/><path d="M12.482 12.185c.358.44.854.815 1.518.815s1.161-.375 1.518-.815a3.62 3.62 0 0 0 .509-.85l.004-.01a.5.5 0 0 1 .953.053l.003.008.005.015.009.032a2.768 2.768 0 0 0 .398.767c.307.409.796.8 1.6.8a.5.5 0 0 1 0 1c-1.196 0-1.957-.61-2.4-1.2a3.915 3.915 0 0 1-.141-.202 4.802 4.802 0 0 1-.165.217c-.455.56-1.208 1.185-2.294 1.185s-1.839-.625-2.294-1.185a4.802 4.802 0 0 1-.165-.217c-.043.066-.09.134-.141.202-.443.59-1.204 1.2-2.4 1.2a.5.5 0 0 1 0-1c.804 0 1.293-.391 1.6-.8a2.768 2.768 0 0 0 .413-.814l.002-.01a.5.5 0 0 1 .953-.053l.004.012.021.05a3.62 3.62 0 0 0 .488.799h.002ZM14 17c-.664 0-1.16-.375-1.518-.815l-.002-.001a3.62 3.62 0 0 1-.488-.8l-.02-.046-.001-.003-.004-.012a.5.5 0 0 0-.953.054l-.002.009a2.51 2.51 0 0 1-.084.234c-.067.16-.173.37-.329.58-.307.409-.796.8-1.6.8a.5.5 0 0 0 0 1c1.196 0 1.957-.61 2.4-1.2.051-.068.098-.136.141-.202.051.07.106.144.165.217.455.56 1.208 1.185 2.294 1.185s1.839-.625 2.294-1.185c.059-.073.114-.146.165-.217.044.067.09.134.141.202.443.59 1.204 1.2 2.4 1.2a.5.5 0 0 0 0-1c-.804 0-1.293-.391-1.6-.8a2.768 2.768 0 0 1-.407-.799l-.005-.015-.003-.008a.5.5 0 0 0-.953-.053l-.004.01-.021.05a3.62 3.62 0 0 1-.488.799c-.357.44-.854.816-1.518.816Z"/></svg>