<svg xmlns="http://www.w3.org/2000/svg" width="24" height="24" fill="currentColor"><path d="M3 6.25A3.25 3.25 0 0 1 6.25 3h11.5A3.25 3.25 0 0 1 21 6.25v7.305a2.344 2.344 0 0 0-.512-.056c-.349 0-.685.079-.988.227V6.25a1.75 1.75 0 0 0-1.75-1.75H6.25A1.75 1.75 0 0 0 4.5 6.25v11.5c0 .966.784 1.75 1.75 1.75h5.203c-.185.48-.2 1.012-.043 1.5H6.25A3.25 3.25 0 0 1 3 17.75V6.25Z"/><path d="M15.5 13.499c-1.24 0-2.25 1.01-2.25 2.25v.62c-.389.085-.81.131-1.25.131-1.933 0-3.5-.895-3.5-2v-3.08c.169.138.348.259.529.363.81.462 1.863.717 2.971.717s2.16-.255 2.971-.717c.181-.104.36-.225.529-.363V13.5Z"/><path d="M8.5 9.5c0-1.105 1.567-2 3.5-2s3.5.895 3.5 2-1.567 2-3.5 2-3.5-.895-3.5-2ZM14.96 22.78a.75.75 0 0 0 .535.22.75.75 0 0 0 .537-.22l1.938-1.938a.75.75 0 1 0-1.061-1.061l-.657.657v-4.689a.75.75 0 0 0-1.5 0v4.7l-.668-.668a.75.75 0 1 0-1.061 1.061l1.937 1.938ZM21.907 18.218l-.669-.668v4.7a.75.75 0 0 1-1.5 0v-4.689l-.657.657a.75.75 0 1 1-1.06-1.061l1.938-1.938a.75.75 0 0 1 .535-.22.75.75 0 0 1 .537.22l1.938 1.938a.75.75 0 1 1-1.063 1.061Z"/></svg>