<svg xmlns="http://www.w3.org/2000/svg" width="24" height="24" fill="currentColor"><path d="M14.971 11.783c-.81.462-1.863.717-2.971.717s-2.16-.255-2.971-.717a3.883 3.883 0 0 1-.529-.363v3.08c0 1.105 1.567 2 3.5 2s3.5-.895 3.5-2v-3.08a3.883 3.883 0 0 1-.529.363Z"/><path d="M12 7.5c-1.933 0-3.5.895-3.5 2s1.567 2 3.5 2 3.5-.895 3.5-2-1.567-2-3.5-2Z"/><path d="M6.25 3A3.25 3.25 0 0 0 3 6.25v11.5A3.25 3.25 0 0 0 6.25 21h11.5A3.25 3.25 0 0 0 21 17.75V6.25A3.25 3.25 0 0 0 17.75 3H6.25ZM4.5 6.25c0-.966.784-1.75 1.75-1.75h11.5c.966 0 1.75.784 1.75 1.75v11.5a1.75 1.75 0 0 1-1.75 1.75H6.25a1.75 1.75 0 0 1-1.75-1.75V6.25Z"/></svg>