<svg xmlns="http://www.w3.org/2000/svg" width="28" height="28" fill="currentColor"><path d="M3 6.75A3.75 3.75 0 0 1 6.75 3h14.5A3.75 3.75 0 0 1 25 6.75v9.806a2.342 2.342 0 0 0-.514-.056c-.6 0-1.164.234-1.59.659l-2.146 2.147v-.556c0-1.24-1.01-2.25-2.25-2.25v-3.446c-.255.23-.54.425-.832.588-.99.55-2.288.858-3.668.858-1.38 0-2.678-.309-3.668-.858a4.552 4.552 0 0 1-.832-.588V17c0 1.38 2.015 2.5 4.5 2.5.82 0 1.588-.122 2.25-.334v2.6c-.6.001-1.163.235-1.587.659-.425.425-.66.99-.66 1.591 0 .347.079.681.226.984H6.75A3.75 3.75 0 0 1 3 21.25V6.75ZM14 8.5c-2.485 0-4.5 1.12-4.5 2.5s2.015 2.5 4.5 2.5 4.5-1.12 4.5-2.5-2.015-2.5-4.5-2.5Z"/><path d="M18.495 27a.748.748 0 0 1-.537-.22l-2.234-2.234a.75.75 0 0 1 1.06-1.06l.966.965V18.75a.75.75 0 0 1 1.5 0v5.69l.955-.955a.75.75 0 0 1 1.06 1.061l-2.234 2.234a.748.748 0 0 1-.536.22ZM25.24 20.549l.965.966a.75.75 0 0 0 1.06-1.061l-2.234-2.234a.748.748 0 0 0-.536-.22.748.748 0 0 0-.537.22l-2.234 2.234a.75.75 0 0 0 1.06 1.06l.955-.954v5.69a.75.75 0 1 0 1.5 0v-5.701Z"/></svg>