<svg xmlns="http://www.w3.org/2000/svg" width="20" height="20" fill="currentColor"><path d="M6 3a3 3 0 0 0-3 3v8a3 3 0 0 0 3 3h3.007a1.497 1.497 0 0 1 .843-1.502 5.5 5.5 0 1 1 3.791-1.376v.13c.054-.082.117-.16.189-.231l1.591-1.591A1.5 1.5 0 0 1 17 12.082V6a3 3 0 0 0-3-3H6Z"/><path d="M8.51 9.5c.047-1.128.25-2.123.54-2.85.167-.417.353-.722.535-.914.18-.19.32-.236.415-.236.094 0 .235.046.415.236.182.192.368.497.535.914.29.727.493 1.722.54 2.85H8.51ZM8.33 5.82a5.315 5.315 0 0 0-.209.459c-.344.862-.565 1.987-.612 3.221H5.527A4.504 4.504 0 0 1 8.33 5.82ZM11.67 5.82c.075.145.144.299.208.459.345.862.565 1.987.612 3.221h1.982a4.504 4.504 0 0 0-2.802-3.68ZM14.472 10.5H12.49a11.96 11.96 0 0 1-.152 1.513 1.491 1.491 0 0 1 1.155.824c.53-.653.882-1.457.98-2.337ZM11.268 12.284a1.508 1.508 0 0 0-.621 1.217v.457a1.987 1.987 0 0 1-.232.306c-.18.19-.32.236-.415.236-.094 0-.235-.046-.415-.236-.182-.192-.368-.497-.535-.914-.29-.727-.493-1.722-.54-2.85h2.98c-.027.647-.105 1.25-.222 1.784ZM8.33 14.18a4.504 4.504 0 0 1-2.803-3.68H7.51c.047 1.234.268 2.36.612 3.221.064.16.134.314.208.459ZM18.5 14.793l-1.646-1.647a.501.501 0 0 0-.708 0L14.5 14.793a.5.5 0 0 0 .707.707l.793-.793V18.5a.5.5 0 0 0 1 0v-3.793l.793.793a.5.5 0 0 0 .707-.707ZM13.44 16.5l-.794.793V13.5a.5.5 0 1 0-1 0v3.793l-.792-.793a.5.5 0 0 0-.708.707l1.647 1.647a.5.5 0 0 0 .707 0l1.646-1.647a.5.5 0 0 0-.707-.707Z"/></svg>