<svg xmlns="http://www.w3.org/2000/svg" width="28" height="28" fill="currentColor"><path d="M3 6.75A3.75 3.75 0 0 1 6.75 3h14.5A3.75 3.75 0 0 1 25 6.75v9.806a2.342 2.342 0 0 0-.514-.056c-.6 0-1.164.234-1.59.659l-2.146 2.147v-.556c0-.366-.088-.711-.244-1.017a7.5 7.5 0 1 0-4.256 3.424v.609c-.6.001-1.163.235-1.587.659-.425.425-.66.99-.66 1.591 0 .347.079.681.226.984H6.75A3.75 3.75 0 0 1 3 21.25V6.75Z"/><path d="M19.808 16.92a6.46 6.46 0 0 0 .673-2.42h-2.988a16.39 16.39 0 0 1-.234 2.374 2.237 2.237 0 0 1 1.24-.374c.488 0 .94.156 1.309.42ZM16.492 13.5h-4.985c.098-3.356 1.177-6 2.493-6 1.316 0 2.394 2.644 2.492 6ZM11.299 18.955a6.4 6.4 0 0 0 .597 1.197A6.505 6.505 0 0 1 7.519 14.5h2.988c.046 1.694.33 3.255.792 4.455ZM16.492 14.5c-.098 3.356-1.176 6-2.492 6s-2.395-2.644-2.493-6h4.985ZM16.7 9.045a6.39 6.39 0 0 0-.596-1.197A6.505 6.505 0 0 1 20.48 13.5h-2.988c-.047-1.694-.33-3.255-.792-4.455ZM11.896 7.848a6.396 6.396 0 0 0-.598 1.197c-.461 1.2-.745 2.761-.791 4.455H7.519a6.505 6.505 0 0 1 4.377-5.652ZM17.958 26.78a.752.752 0 0 0 .537.22.748.748 0 0 0 .537-.22l2.234-2.234a.75.75 0 1 0-1.061-1.061l-.955.955v-5.69a.75.75 0 0 0-1.5 0v5.701l-.966-.966a.75.75 0 1 0-1.061 1.061l2.235 2.234ZM26.205 21.515l-.966-.966v5.701a.75.75 0 0 1-1.5 0v-5.69l-.955.955a.75.75 0 1 1-1.061-1.061l2.234-2.234a.752.752 0 0 1 .537-.22.748.748 0 0 1 .537.22l2.234 2.234a.75.75 0 0 1-1.06 1.061Z"/></svg>