<svg xmlns="http://www.w3.org/2000/svg" width="20" height="20" fill="currentColor"><path d="M14 3H6a3 3 0 0 0-3 3v8a3 3 0 0 0 3 3h3.007a1.506 1.506 0 0 1 1.494-1.647c.049 0 .098.003.146.007v-1.4c-.21.026-.425.04-.647.04-1.795 0-3.25-.895-3.25-2V9.96c.137.113.28.215.428.306.77.474 1.77.734 2.822.734s2.052-.26 2.822-.734c.147-.09.291-.193.428-.307V12c0 .142-.024.28-.07.413l.028.027c.284.283.439.66.439 1.061v.757c.04-.056.086-.11.134-.16l1.657-1.659A1.496 1.496 0 0 1 17 12.085V6a3 3 0 0 0-3-3Zm-4 3c1.795 0 3.25.895 3.25 2s-1.455 2-3.25 2-3.25-.895-3.25-2S8.205 6 10 6ZM18.5 14.793l-1.646-1.647a.501.501 0 0 0-.708 0L14.5 14.793a.5.5 0 0 0 .707.707l.793-.793V18.5a.5.5 0 0 0 1 0v-3.793l.793.793a.5.5 0 0 0 .707-.707Z"/><path d="m13.44 16.5-.794.793V13.5a.5.5 0 1 0-1 0v3.793l-.792-.793a.5.5 0 0 0-.708.707l1.647 1.647a.5.5 0 0 0 .707 0l1.646-1.647a.5.5 0 0 0-.707-.707Z"/></svg>