<svg xmlns="http://www.w3.org/2000/svg" width="20" height="20" fill="currentColor"><path d="M6 3h8a3 3 0 0 1 3 3v6.085a1.505 1.505 0 0 0-1 0V6a2 2 0 0 0-2-2H6a2 2 0 0 0-2 2v8a2 2 0 0 0 2 2h3.267a1.507 1.507 0 0 0-.26 1H6a3 3 0 0 1-3-3V6a3 3 0 0 1 3-3Z"/><path d="M13.18 12.413a1.491 1.491 0 0 0-1.033-.412c-.401 0-.778.155-1.061.439a1.494 1.494 0 0 0-.439 1.061v.46c-.21.025-.425.039-.647.039-1.795 0-3.25-.895-3.25-2V9.96c.137.113.28.215.428.306.77.474 1.77.734 2.822.734s2.052-.26 2.822-.734c.147-.09.291-.193.428-.307V12c0 .142-.024.28-.07.413Z"/><path d="M6.75 8c0-1.105 1.455-2 3.25-2s3.25.895 3.25 2-1.455 2-3.25 2-3.25-.895-3.25-2ZM18.5 14.793l-1.646-1.647a.501.501 0 0 0-.708 0L14.5 14.793a.5.5 0 0 0 .707.707l.793-.793V18.5a.5.5 0 0 0 1 0v-3.793l.793.793a.5.5 0 0 0 .707-.707ZM13.44 16.5l-.794.793V13.5a.5.5 0 1 0-1 0v3.793l-.792-.793a.5.5 0 0 0-.708.707l1.647 1.647a.5.5 0 0 0 .707 0l1.646-1.647a.5.5 0 0 0-.707-.707Z"/></svg>