<svg xmlns="http://www.w3.org/2000/svg" width="32" height="32" fill="currentColor"><path d="M14.75 2A4.75 4.75 0 0 0 10 6.75v.75h2.5v-.75a2.25 2.25 0 0 1 2.25-2.25h11A2.25 2.25 0 0 1 28 6.75v10.246H29.229c.444.001.879.108 1.271.309V6.75A4.75 4.75 0 0 0 25.75 2h-11Z"/><path d="M22.5 14.75v2.246H21.168c-.407 0-.805.088-1.168.254v-2.5a2.25 2.25 0 0 0-2.25-2.25h-11a2.25 2.25 0 0 0-2.25 2.25v11A2.25 2.25 0 0 0 6.75 28h10.417a3.006 3.006 0 0 0 .289 2.5H6.75A4.75 4.75 0 0 1 2 25.75v-11A4.75 4.75 0 0 1 6.75 10h11a4.75 4.75 0 0 1 4.75 4.75Z"/><path d="M21.125 19h8.054a.806.806 0 0 1 .806.805v8.054a.806.806 0 0 1-1.375.57l-8.053-8.053A.807.807 0 0 1 21.126 19ZM20.371 25.048l.707-.707a1 1 0 0 0-1.414-1.414l-.707.707a1 1 0 1 0 1.414 1.414ZM23.553 25.401a1 1 0 0 1 0 1.415l-2.829 2.828a1 1 0 1 1-1.414-1.414L22.14 25.4a1 1 0 0 1 1.414 0ZM26.027 27.876a1 1 0 0 0-1.414 0l-.707.707a1 1 0 0 0 1.414 1.415l.707-.707a1 1 0 0 0 0-1.415Z"/></svg>