<svg xmlns="http://www.w3.org/2000/svg" width="24" height="24" fill="currentColor"><path d="M6.75 13.5a.75.75 0 0 0 0 1.5h5.5a.75.75 0 0 0 0-1.5h-5.5Z"/><path d="M7 5.25A2.75 2.75 0 0 1 9.75 2.5h9.5A2.75 2.75 0 0 1 22 5.25v9.5a2.75 2.75 0 0 1-2.75 2.75H17v2.25a2.75 2.75 0 0 1-2.75 2.75h-9.5A2.75 2.75 0 0 1 2 19.75v-9.5A2.75 2.75 0 0 1 4.75 7.5H7V5.25ZM19.25 16c.69 0 1.25-.56 1.25-1.25v-9.5c0-.69-.56-1.25-1.25-1.25h-9.5c-.69 0-1.25.56-1.25 1.25V7.5h5.75A2.75 2.75 0 0 1 17 10.25V16h2.25ZM4.75 9c-.69 0-1.25.56-1.25 1.25v9.5c0 .69.56 1.25 1.25 1.25h9.5c.69 0 1.25-.56 1.25-1.25v-9.5c0-.69-.56-1.25-1.25-1.25h-9.5Z"/></svg>