<svg xmlns="http://www.w3.org/2000/svg" width="28" height="28" fill="currentColor"><path d="M9.836 5.75h-2.05a3.5 3.5 0 0 1 3.464-3h10.5a3.5 3.5 0 0 1 3.5 3.5v10.5a3.501 3.501 0 0 1-3 3.465v-2.05a1.5 1.5 0 0 0 1-1.415V6.25a1.5 1.5 0 0 0-1.5-1.5h-10.5a1.5 1.5 0 0 0-1.414 1Z"/><path d="M6.25 7.75a3.5 3.5 0 0 0-3.5 3.5v10.5a3.5 3.5 0 0 0 3.5 3.5h10.5a3.5 3.5 0 0 0 3.5-3.5v-10.5a3.5 3.5 0 0 0-3.5-3.5H6.25Zm-1.5 3.5a1.5 1.5 0 0 1 1.5-1.5h10.5a1.5 1.5 0 0 1 1.5 1.5v10.5a1.5 1.5 0 0 1-1.5 1.5H6.25a1.5 1.5 0 0 1-1.5-1.5v-10.5Z"/></svg>