<svg xmlns="http://www.w3.org/2000/svg" width="24" height="24" fill="currentColor"><path d="M6.25 3A3.25 3.25 0 0 0 3 6.25v11.5A3.25 3.25 0 0 0 6.25 21h1.264a2.25 2.25 0 0 1 .821-1.5H6.25a1.75 1.75 0 0 1-1.75-1.75V6.25c0-.966.784-1.75 1.75-1.75h11.5c.966 0 1.75.784 1.75 1.75v5.31a2.27 2.27 0 0 1 1.5 1.158V6.25A3.25 3.25 0 0 0 17.75 3H6.25Z"/><path d="M17.743 14.548c.1-.134.186-.269.257-.396v.002a4.133 4.133 0 0 0 .259-.555l.018-.05.002-.008.004-.01a.75.75 0 0 1 1.441.02l.003.008.017.054a3.318 3.318 0 0 0 .504.923c.384.49.996.963 2.002.963a.75.75 0 0 1 0 1.5c-1.574 0-2.587-.777-3.183-1.537l-.02-.027a2.73 2.73 0 0 1-.048-.062 3.69 3.69 0 0 1-.056.076c-.473.631-1.238 1.32-2.358 1.503a3.67 3.67 0 0 1-1.191-.003c-1.109-.188-1.868-.873-2.338-1.5a3.69 3.69 0 0 1-.056-.076l-.068.09c-.596.76-1.609 1.536-3.183 1.536a.75.75 0 0 1 0-1.5c1.006 0 1.618-.473 2.002-.963a3.293 3.293 0 0 0 .504-.923l.015-.047.002-.007.003-.009a.75.75 0 0 1 1.441-.02l.004.011.02.058a3.667 3.667 0 0 0 .259.555v-.002c.071.127.157.262.257.396.337.45.802.84 1.453.93a2.096 2.096 0 0 0 .623-.006c.628-.1 1.08-.484 1.409-.924h.002ZM18 19.152a3.62 3.62 0 0 1-.257.396h-.002c-.329.44-.781.823-1.409.924a2.091 2.091 0 0 1-.623.006c-.651-.09-1.116-.48-1.453-.93a3.62 3.62 0 0 1-.257-.396v.002a3.667 3.667 0 0 1-.259-.555l-.02-.058-.004-.01a.751.751 0 0 0-1.441.02l-.003.008c-.003.01-.008.03-.017.054a3.293 3.293 0 0 1-.504.923c-.384.49-.996.963-2.002.963a.75.75 0 0 0 0 1.5c1.574 0 2.587-.777 3.183-1.537l.068-.089.056.076c.47.627 1.229 1.312 2.338 1.5a3.658 3.658 0 0 0 1.191.003c1.12-.183 1.885-.872 2.358-1.503a3.69 3.69 0 0 0 .056-.076 3.487 3.487 0 0 0 .068.09c.596.76 1.609 1.536 3.183 1.536a.75.75 0 0 0 0-1.5c-1.006 0-1.618-.473-2.002-.963a3.318 3.318 0 0 1-.521-.977l-.003-.009a.75.75 0 0 0-1.441-.02l-.004.011-.02.058a4.133 4.133 0 0 1-.259.555v-.002Z"/></svg>