<svg xmlns="http://www.w3.org/2000/svg" width="24" height="24" fill="currentColor"><path d="M3 6.25A3.25 3.25 0 0 1 6.25 3h11.5A3.25 3.25 0 0 1 21 6.25v7.305a2.344 2.344 0 0 0-.512-.056c-.349 0-.685.079-.988.227V6.25a1.75 1.75 0 0 0-1.75-1.75H6.25A1.75 1.75 0 0 0 4.5 6.25v11.5c0 .966.784 1.75 1.75 1.75h5.203c-.185.48-.2 1.012-.043 1.5H6.25A3.25 3.25 0 0 1 3 17.75V6.25Z"/><path d="M17.053 14.123a2.242 2.242 0 0 0-2.664-.33c.042-.416.07-.849.082-1.293h2.984a5.47 5.47 0 0 1-.402 1.623ZM10.485 11.5c.04-1.415.248-2.669.553-3.585.171-.513.364-.893.554-1.134.194-.247.328-.281.386-.281.057 0 .191.034.385.281.19.241.383.62.554 1.134.306.916.514 2.17.553 3.585h-2.985ZM10.457 6.713c-.138.265-.26.564-.368.886-.345 1.036-.565 2.4-.605 3.901H6.5a5.504 5.504 0 0 1 3.957-4.787ZM13.866 7.6a6.128 6.128 0 0 0-.368-.887 5.505 5.505 0 0 1 3.957 4.787h-2.984c-.04-1.5-.26-2.865-.605-3.9ZM11.978 17.5c.057 0 .191-.034.385-.281.19-.241.383-.62.554-1.135.306-.915.514-2.17.553-3.584h-2.985c.04 1.415.248 2.669.553 3.584.171.514.364.894.554 1.135.194.247.328.281.386.281ZM6.5 12.5a5.505 5.505 0 0 0 3.957 4.787 6.133 6.133 0 0 1-.368-.886c-.345-1.035-.565-2.4-.605-3.901H6.5ZM14.96 22.78a.75.75 0 0 0 .535.22.75.75 0 0 0 .537-.22l1.938-1.938a.75.75 0 1 0-1.061-1.061l-.657.657v-4.689a.75.75 0 0 0-1.5 0v4.7l-.668-.668a.75.75 0 1 0-1.061 1.061l1.937 1.938ZM21.907 18.218l-.669-.668v4.7a.75.75 0 0 1-1.5 0v-4.689l-.657.657a.75.75 0 1 1-1.06-1.061l1.938-1.938a.75.75 0 0 1 .535-.22.75.75 0 0 1 .537.22l1.938 1.938a.75.75 0 1 1-1.063 1.061Z"/></svg>