<svg xmlns="http://www.w3.org/2000/svg" width="40" height="40" fill="currentColor"><path fill="url(#icon-60a67fc347914b15__icon-8d22c64aa6378ec9__a)" d="M4 8a4 4 0 0 1 4-4h24a4 4 0 0 1 4 4v24a4 4 0 0 1-4 4H8a4 4 0 0 1-4-4V8Z"/><path fill="url(#icon-06709058f0b4f33d__icon-996c53d08695f780__b)" fill-opacity=".2" d="M4 8a4 4 0 0 1 4-4h24a4 4 0 0 1 4 4v24a4 4 0 0 1-4 4H8a4 4 0 0 1-4-4V8Z"/><path fill="url(#icon-3aeac65381ad7e34__icon-be27e17b07b80b46__c)" fill-rule="evenodd" d="M32 5H8a3 3 0 0 0-3 3v24a3 3 0 0 0 3 3h24a3 3 0 0 0 3-3V8a3 3 0 0 0-3-3ZM8 4a4 4 0 0 0-4 4v24a4 4 0 0 0 4 4h24a4 4 0 0 0 4-4V8a4 4 0 0 0-4-4H8Z" clip-rule="evenodd"/><path fill="url(#icon-9dadc8c103b68f76__icon-a989ed1179c7aa97__d)" d="M12 18.25a2 2 0 1 0 0-4 2 2 0 0 0 0 4Z"/><path fill="url(#icon-2ec1d4ad1b835975__icon-5541a7f46c497b99__e)" d="M20 18.25a2 2 0 1 0 0-4 2 2 0 0 0 0 4Z"/><path fill="url(#icon-33c919d4e1229747__icon-c4f9224651c94fe9__f)" d="M30 16.25a2 2 0 1 1-4 0 2 2 0 0 1 4 0Z"/><path fill="url(#icon-a06a2e512a696da5__icon-2c18be213a1c7e29__g)" d="M20 26.25a2 2 0 1 0 0-4 2 2 0 0 0 0 4Z"/><path fill="url(#icon-d0477398ba549fc7__icon-e904fac2e4f85c0a__h)" d="M14 24.25a2 2 0 1 1-4 0 2 2 0 0 1 4 0Z"/><path fill="#F5F5F5" d="M37.28 38.985a1.496 1.496 0 0 1-1.028-.638 1.5 1.5 0 0 1-2.483-.01 1.5 1.5 0 0 1-2.75-1.018l.005-.028a2.5 2.5 0 1 1-3.415-3.266 1.5 1.5 0 0 1-.977-2.72 1.5 1.5 0 0 1 .019-2.46 1.5 1.5 0 0 1 .613-2.718A10.262 10.262 0 0 1 28.88 26c5.632 0 10.197 4.565 10.197 10.197 0 .477-.033 1.031-.101 1.514a1.5 1.5 0 0 1-1.696 1.274Z"/><path fill="url(#icon-720984a38e72edf4__icon-8d24f119e2d2d7bc__i)" d="M28.879 28c-.443 0-.877.035-1.3.102a.5.5 0 1 1-.158-.987 9.197 9.197 0 0 1 10.655 9.082c0 .438-.03.944-.092 1.373a.5.5 0 0 1-.99-.14c.054-.376.082-.834.082-1.233A8.197 8.197 0 0 0 28.879 28Z"/><path fill="url(#icon-70b0110126db959d__icon-9e892e97d65490c9__j)" d="M27.57 33.024a3.92 3.92 0 0 1 4.44 4.436.5.5 0 1 0 .99.14 4.92 4.92 0 0 0-5.57-5.566.5.5 0 1 0 .14.99Z"/><path fill="url(#icon-f25975519ab90dbf__icon-89cf9280248b49f5__k)" d="M30.25 36.25a1.5 1.5 0 1 1-3 0 1.5 1.5 0 0 1 3 0Z"/><path fill="url(#icon-4c4c3d66cc331a2d__icon-7a76a15355bee3fe__l)" d="M27.579 30.576a6.041 6.041 0 0 1 7 5.966c0 .292-.022.61-.06.888a.5.5 0 1 0 .99.14 7.57 7.57 0 0 0 .07-1.029 7.041 7.041 0 0 0-8.158-6.953.5.5 0 1 0 .158.988Z"/><defs><linearGradient id="icon-60a67fc347914b15__icon-8d22c64aa6378ec9__a" x1="12.889" x2="16.937" y1="4" y2="36.383" gradientUnits="userSpaceOnUse"><stop stop-color="#fff"/><stop offset="1" stop-color="#EBEBEB"/></linearGradient><linearGradient id="icon-3aeac65381ad7e34__icon-be27e17b07b80b46__c" x1="14.333" x2="18.642" y1="4" y2="36.314" gradientUnits="userSpaceOnUse"><stop stop-color="#BBB"/><stop offset="1" stop-color="#888"/></linearGradient><linearGradient id="icon-9dadc8c103b68f76__icon-a989ed1179c7aa97__d" x1="10" x2="20.588" y1="14.25" y2="31.897" gradientUnits="userSpaceOnUse"><stop stop-color="#7751B8"/><stop offset="1" stop-color="#5A409C"/></linearGradient><linearGradient id="icon-2ec1d4ad1b835975__icon-5541a7f46c497b99__e" x1="10" x2="20.588" y1="14.25" y2="31.897" gradientUnits="userSpaceOnUse"><stop stop-color="#7751B8"/><stop offset="1" stop-color="#5A409C"/></linearGradient><linearGradient id="icon-33c919d4e1229747__icon-c4f9224651c94fe9__f" x1="10" x2="20.588" y1="14.25" y2="31.897" gradientUnits="userSpaceOnUse"><stop stop-color="#7751B8"/><stop offset="1" stop-color="#5A409C"/></linearGradient><linearGradient id="icon-a06a2e512a696da5__icon-2c18be213a1c7e29__g" x1="10" x2="20.588" y1="14.25" y2="31.897" gradientUnits="userSpaceOnUse"><stop stop-color="#7751B8"/><stop offset="1" stop-color="#5A409C"/></linearGradient><linearGradient id="icon-d0477398ba549fc7__icon-e904fac2e4f85c0a__h" x1="10" x2="20.588" y1="14.25" y2="31.897" gradientUnits="userSpaceOnUse"><stop stop-color="#7751B8"/><stop offset="1" stop-color="#5A409C"/></linearGradient><linearGradient id="icon-720984a38e72edf4__icon-8d24f119e2d2d7bc__i" x1="27" x2="38.029" y1="27" y2="38.076" gradientUnits="userSpaceOnUse"><stop stop-color="#7751B8"/><stop offset="1" stop-color="#5A409C"/></linearGradient><linearGradient id="icon-70b0110126db959d__icon-9e892e97d65490c9__j" x1="27" x2="38.029" y1="27" y2="38.076" gradientUnits="userSpaceOnUse"><stop stop-color="#7751B8"/><stop offset="1" stop-color="#5A409C"/></linearGradient><linearGradient id="icon-f25975519ab90dbf__icon-89cf9280248b49f5__k" x1="27" x2="38.029" y1="27" y2="38.076" gradientUnits="userSpaceOnUse"><stop stop-color="#7751B8"/><stop offset="1" stop-color="#5A409C"/></linearGradient><linearGradient id="icon-4c4c3d66cc331a2d__icon-7a76a15355bee3fe__l" x1="27" x2="38.029" y1="27" y2="38.076" gradientUnits="userSpaceOnUse"><stop stop-color="#7751B8"/><stop offset="1" stop-color="#5A409C"/></linearGradient><radialGradient id="icon-06709058f0b4f33d__icon-996c53d08695f780__b" cx="0" cy="0" r="1" gradientTransform="rotate(56.31 -4.411 19.454) scale(30.4469 26.3483)" gradientUnits="userSpaceOnUse"><stop offset=".177" stop-color="#fff"/><stop offset="1" stop-color="#B8B8B8"/></radialGradient></defs></svg>