<svg xmlns="http://www.w3.org/2000/svg" width="24" height="24" fill="currentColor"><g clip-path="url(#icon-83f09e8e31893a15__icon-867543afb63040b3__a)"><mask id="icon-e4a152d7789b82ae__icon-cddba70e5a2699cf__b" width="24" height="24" x="0" y="0" maskUnits="userSpaceOnUse" style="mask-type:luminance"><path fill="#fff" d="M24 0H0v24h24V0Z"/></mask><g mask="url(#icon-e4a152d7789b82ae__icon-cddba70e5a2699cf__b)"><path fill="url(#icon-de4a36af844cf212__icon-8e5070fdb58fc328__c)" d="M2 5a3 3 0 0 1 3-3h14a3 3 0 0 1 3 3v14a3 3 0 0 1-3 3H5a3 3 0 0 1-3-3V5Z"/><path fill="url(#icon-462acd39583f4ac4__icon-6c83700fd7eec5c6__d)" fill-opacity=".2" d="M2 5a3 3 0 0 1 3-3h14a3 3 0 0 1 3 3v14a3 3 0 0 1-3 3H5a3 3 0 0 1-3-3V5Z"/><path fill="url(#icon-d2a342968db39326__icon-a71c9452147d722f__e)" fill-rule="evenodd" d="M19 3H5a2 2 0 0 0-2 2v14a2 2 0 0 0 2 2h14a2 2 0 0 0 2-2V5a2 2 0 0 0-2-2ZM5 2a3 3 0 0 0-3 3v14a3 3 0 0 0 3 3h14a3 3 0 0 0 3-3V5a3 3 0 0 0-3-3H5Z" clip-rule="evenodd"/><path fill="url(#icon-6d74378b016c3c72__icon-a2b9b2efd90c7082__f)" d="M7.25 10.5a1.25 1.25 0 1 0 0-2.5 1.25 1.25 0 0 0 0 2.5Z"/><path fill="url(#icon-13a83b55c36cf1c6__icon-66d239f5da3ae096__g)" d="M12 10.5A1.25 1.25 0 1 0 12 8a1.25 1.25 0 0 0 0 2.5Z"/><path fill="url(#icon-f518c56240db102d__icon-58e2d7ada2d6a20a__h)" d="M13.25 14.75a1.25 1.25 0 1 1-2.5 0 1.25 1.25 0 0 1 2.5 0Z"/><path fill="url(#icon-4b20b5e6123b82a0__icon-c04bcc8b4ee90b23__i)" d="M7.25 16a1.25 1.25 0 1 0 0-2.5 1.25 1.25 0 0 0 0 2.5Z"/><path fill="url(#icon-4e1597392e2cd298__icon-da33eb473735ac95__j)" d="M18 9.25a1.25 1.25 0 1 1-2.5 0 1.25 1.25 0 0 1 2.5 0Z"/><path fill="#F5F5F5" d="M21.815 23.962a1.5 1.5 0 0 0 1.182-1.233c.06-.371.063-.67.063-.949a6.781 6.781 0 0 0-7.797-6.701 1.5 1.5 0 0 0-1.261 1.415H14v5.2A2.306 2.306 0 0 0 16.306 24h5.226c.102 0 .197-.013.283-.038Z"/><path fill="url(#icon-697e1ef5124df44b__icon-cd5332d72d63e180__k)" d="M16.28 17a4.44 4.44 0 0 0-.7.054.5.5 0 1 1-.159-.988 5.781 5.781 0 0 1 6.639 5.714c0 .266-.004.5-.05.791a.5.5 0 0 1-.988-.158c.014-.086.023-.166.028-.247.006-.08.008-.16.01-.251v-.135A4.781 4.781 0 0 0 16.28 17Z"/><path fill="url(#icon-bc4deddbfe1cc005__icon-579efd30f9b4d68c__l)" d="M16.12 18.97c-.179 0-.356.017-.522.05a.5.5 0 1 1-.196-.98c.234-.047.477-.07.718-.07a3.919 3.919 0 0 1 3.864 4.588.5.5 0 1 1-.988-.156 5.13 5.13 0 0 0 .03-.228 3.248 3.248 0 0 0 .014-.284 2.919 2.919 0 0 0-2.92-2.92Z"/><path fill="url(#icon-faf5de83e6dcac4a__icon-9c473f215437c3e7__m)" d="M17.8 21.5a1.25 1.25 0 1 1-2.5 0 1.25 1.25 0 0 1 2.5 0Z"/></g></g><defs><linearGradient id="icon-de4a36af844cf212__icon-8e5070fdb58fc328__c" x1="7.556" x2="10.085" y1="2" y2="22.239" gradientUnits="userSpaceOnUse"><stop stop-color="#fff"/><stop offset="1" stop-color="#EBEBEB"/></linearGradient><linearGradient id="icon-d2a342968db39326__icon-a71c9452147d722f__e" x1="8.458" x2="11.151" y1="2" y2="22.197" gradientUnits="userSpaceOnUse"><stop stop-color="#BBB"/><stop offset="1" stop-color="#888"/></linearGradient><linearGradient id="icon-6d74378b016c3c72__icon-a2b9b2efd90c7082__f" x1="6" x2="13.385" y1="8" y2="19.077" gradientUnits="userSpaceOnUse"><stop stop-color="#7751B8"/><stop offset="1" stop-color="#5A409C"/></linearGradient><linearGradient id="icon-13a83b55c36cf1c6__icon-66d239f5da3ae096__g" x1="6" x2="13.385" y1="8" y2="19.077" gradientUnits="userSpaceOnUse"><stop stop-color="#7751B8"/><stop offset="1" stop-color="#5A409C"/></linearGradient><linearGradient id="icon-f518c56240db102d__icon-58e2d7ada2d6a20a__h" x1="6" x2="13.385" y1="8" y2="19.077" gradientUnits="userSpaceOnUse"><stop stop-color="#7751B8"/><stop offset="1" stop-color="#5A409C"/></linearGradient><linearGradient id="icon-4b20b5e6123b82a0__icon-c04bcc8b4ee90b23__i" x1="6" x2="13.385" y1="8" y2="19.077" gradientUnits="userSpaceOnUse"><stop stop-color="#7751B8"/><stop offset="1" stop-color="#5A409C"/></linearGradient><linearGradient id="icon-4e1597392e2cd298__icon-da33eb473735ac95__j" x1="6" x2="13.385" y1="8" y2="19.077" gradientUnits="userSpaceOnUse"><stop stop-color="#7751B8"/><stop offset="1" stop-color="#5A409C"/></linearGradient><linearGradient id="icon-697e1ef5124df44b__icon-cd5332d72d63e180__k" x1="15" x2="21.992" y1="16" y2="23.06" gradientUnits="userSpaceOnUse"><stop stop-color="#7751B8"/><stop offset="1" stop-color="#5A409C"/></linearGradient><linearGradient id="icon-bc4deddbfe1cc005__icon-579efd30f9b4d68c__l" x1="15" x2="21.992" y1="16" y2="23.06" gradientUnits="userSpaceOnUse"><stop stop-color="#7751B8"/><stop offset="1" stop-color="#5A409C"/></linearGradient><linearGradient id="icon-faf5de83e6dcac4a__icon-9c473f215437c3e7__m" x1="15" x2="21.992" y1="16" y2="23.06" gradientUnits="userSpaceOnUse"><stop stop-color="#7751B8"/><stop offset="1" stop-color="#5A409C"/></linearGradient><radialGradient id="icon-462acd39583f4ac4__icon-6c83700fd7eec5c6__d" cx="0" cy="0" r="1" gradientTransform="rotate(56.31 -2.54 11.442) scale(19.0293 16.4677)" gradientUnits="userSpaceOnUse"><stop offset=".177" stop-color="#fff"/><stop offset="1" stop-color="#B8B8B8"/></radialGradient><clipPath id="icon-83f09e8e31893a15__icon-867543afb63040b3__a"><path fill="#fff" d="M0 0h24v24H0z"/></clipPath></defs></svg>