<svg xmlns="http://www.w3.org/2000/svg" width="24" height="24" fill="currentColor"><g clip-path="url(#icon-88eb893a09d4dc4f__icon-81247d65f08458ea__a)"><mask id="icon-b936c75fba821ece__icon-78047baab8c42171__b" width="24" height="24" x="0" y="0" maskUnits="userSpaceOnUse" style="mask-type:luminance"><path fill="#fff" d="M24 0H0v24h24V0Z"/></mask><g mask="url(#icon-b936c75fba821ece__icon-78047baab8c42171__b)"><path fill="url(#icon-dfad5a6a2155d70c__icon-50d64fa7fd352278__c)" d="M2 5a3 3 0 0 1 3-3h14a3 3 0 0 1 3 3v14a3 3 0 0 1-3 3H5a3 3 0 0 1-3-3V5Z"/><path fill="url(#icon-e6603186158043ce__icon-fb9c71397e046d2f__d)" fill-opacity=".2" d="M2 5a3 3 0 0 1 3-3h14a3 3 0 0 1 3 3v14a3 3 0 0 1-3 3H5a3 3 0 0 1-3-3V5Z"/><path fill="url(#icon-1ac0dcdd8176ac62__icon-fb7e56a519a2f435__e)" fill-rule="evenodd" d="M19 3H5a2 2 0 0 0-2 2v14a2 2 0 0 0 2 2h14a2 2 0 0 0 2-2V5a2 2 0 0 0-2-2ZM5 2a3 3 0 0 0-3 3v14a3 3 0 0 0 3 3h14a3 3 0 0 0 3-3V5a3 3 0 0 0-3-3H5Z" clip-rule="evenodd"/><path fill="url(#icon-f7c91cf0427e604a__icon-def19c0723d60969__f)" d="M9.5 9.937a2 2 0 1 0-1 0v4.126a2 2 0 1 0 1 0V12.5H13a2.5 2.5 0 0 0 2.5-2.5v-.071a2 2 0 1 0-1 .016V10a1.5 1.5 0 0 1-1.5 1.5H9.5V9.937Z"/><path fill="#F5F5F5" d="M21.815 23.962a1.5 1.5 0 0 0 1.182-1.233c.06-.371.063-.67.063-.949a6.781 6.781 0 0 0-7.797-6.701 1.5 1.5 0 0 0-1.261 1.415H14v5.2A2.306 2.306 0 0 0 16.306 24h5.226c.102 0 .197-.013.283-.038Z"/><path fill="url(#icon-a9aa312186aa90c4__icon-4e28d2b2f9ae4b56__g)" d="M16.28 17a4.44 4.44 0 0 0-.7.054.5.5 0 1 1-.159-.988 5.781 5.781 0 0 1 6.639 5.714c0 .266-.004.5-.05.791a.5.5 0 0 1-.988-.158c.014-.086.023-.166.028-.247.006-.08.008-.16.01-.251v-.135A4.781 4.781 0 0 0 16.28 17Z"/><path fill="url(#icon-c720c449c653db64__icon-06bb412ce70eab0f__h)" d="M16.12 18.97c-.179 0-.356.017-.522.05a.5.5 0 1 1-.196-.98c.234-.047.477-.07.718-.07a3.919 3.919 0 0 1 3.864 4.588.5.5 0 1 1-.988-.156 5.13 5.13 0 0 0 .03-.228 3.248 3.248 0 0 0 .014-.284 2.919 2.919 0 0 0-2.92-2.92Z"/><path fill="url(#icon-42c0f3bdefcb5c64__icon-118dedfee1021de1__i)" d="M17.8 21.5a1.25 1.25 0 1 1-2.5 0 1.25 1.25 0 0 1 2.5 0Z"/></g></g><defs><linearGradient id="icon-dfad5a6a2155d70c__icon-50d64fa7fd352278__c" x1="7.556" x2="10.085" y1="2" y2="22.239" gradientUnits="userSpaceOnUse"><stop stop-color="#fff"/><stop offset="1" stop-color="#EBEBEB"/></linearGradient><linearGradient id="icon-1ac0dcdd8176ac62__icon-fb7e56a519a2f435__e" x1="8.458" x2="11.151" y1="2" y2="22.197" gradientUnits="userSpaceOnUse"><stop stop-color="#BBB"/><stop offset="1" stop-color="#888"/></linearGradient><linearGradient id="icon-f7c91cf0427e604a__icon-def19c0723d60969__f" x1="7" x2="18.797" y1="6" y2="15.8" gradientUnits="userSpaceOnUse"><stop stop-color="#7751B8"/><stop offset="1" stop-color="#5A409C"/></linearGradient><linearGradient id="icon-a9aa312186aa90c4__icon-4e28d2b2f9ae4b56__g" x1="15" x2="21.992" y1="16" y2="23.06" gradientUnits="userSpaceOnUse"><stop stop-color="#7751B8"/><stop offset="1" stop-color="#5A409C"/></linearGradient><linearGradient id="icon-c720c449c653db64__icon-06bb412ce70eab0f__h" x1="15" x2="21.992" y1="16" y2="23.06" gradientUnits="userSpaceOnUse"><stop stop-color="#7751B8"/><stop offset="1" stop-color="#5A409C"/></linearGradient><linearGradient id="icon-42c0f3bdefcb5c64__icon-118dedfee1021de1__i" x1="15" x2="21.992" y1="16" y2="23.06" gradientUnits="userSpaceOnUse"><stop stop-color="#7751B8"/><stop offset="1" stop-color="#5A409C"/></linearGradient><radialGradient id="icon-e6603186158043ce__icon-fb9c71397e046d2f__d" cx="0" cy="0" r="1" gradientTransform="rotate(56.31 -2.54 11.442) scale(19.0293 16.4677)" gradientUnits="userSpaceOnUse"><stop offset=".177" stop-color="#fff"/><stop offset="1" stop-color="#B8B8B8"/></radialGradient><clipPath id="icon-88eb893a09d4dc4f__icon-81247d65f08458ea__a"><path fill="#fff" d="M0 0h24v24H0z"/></clipPath></defs></svg>