<svg xmlns="http://www.w3.org/2000/svg" width="24" height="24" fill="currentColor"><path d="M2 4.25a.75.75 0 0 0 1.5 0v-1a.75.75 0 0 1 .75-.75h15.5a.75.75 0 0 1 .75.75v1a.75.75 0 0 0 1.5 0v-1A2.25 2.25 0 0 0 19.75 1H4.25A2.25 2.25 0 0 0 2 3.25v1Z"/><path d="M14.75 4.5A5.25 5.25 0 0 0 9.5 9.75v.5a.75.75 0 0 1-.75.75h-1a.75.75 0 0 0 0 1.5h1A2.25 2.25 0 0 0 11 10.25v-.5A3.75 3.75 0 0 1 14.75 6h1.5a.75.75 0 0 0 0-1.5h-1.5Z"/><path d="M12 10.25A3.25 3.25 0 0 1 15.25 7h2a.75.75 0 0 1 0 1.5h-2a1.75 1.75 0 0 0-1.75 1.75v.498c0 .02 0 .04-.002.06l.002.06v.878a3.25 3.25 0 0 1-3.25 3.25h-2.5a.75.75 0 1 1 0-1.5h2.5a1.75 1.75 0 0 0 1.75-1.75v-.877c0-.02 0-.04.002-.06a.76.76 0 0 1-.002-.061v-.498ZM21.25 17a.75.75 0 0 1 .75.75v1A2.25 2.25 0 0 1 19.75 21H4.25A2.25 2.25 0 0 1 2 18.75v-1a.75.75 0 0 1 1.5 0v1c0 .414.336.75.75.75h15.5a.75.75 0 0 0 .75-.75v-1a.75.75 0 0 1 .75-.75Z"/><path d="M8.75 16h2a3.75 3.75 0 0 0 3.75-3.75v-.5a2.25 2.25 0 0 1 2.25-2.25h.5a.75.75 0 1 1 0 1.5h-.5a.75.75 0 0 0-.75.75v.5c0 2.9-2.35 5.25-5.25 5.25h-2a.75.75 0 1 1 0-1.5Z"/></svg>