<svg xmlns="http://www.w3.org/2000/svg" width="40" height="40" fill="currentColor"><path fill="url(#icon-ba96fde3befb4ca5__icon-cf51774cfb347979__a)" d="M4 8a4 4 0 0 1 4-4h24a4 4 0 0 1 4 4v24a4 4 0 0 1-4 4H8a4 4 0 0 1-4-4V8Z"/><path fill="url(#icon-2a2d1d24ef2ea3a2__icon-91d7dfbd19483a73__b)" fill-opacity=".2" d="M4 8a4 4 0 0 1 4-4h24a4 4 0 0 1 4 4v24a4 4 0 0 1-4 4H8a4 4 0 0 1-4-4V8Z"/><path fill="url(#icon-d4b07725806ffa9f__icon-374d6f54ac0dca38__c)" fill-rule="evenodd" d="M32 5H8a3 3 0 0 0-3 3v24a3 3 0 0 0 3 3h24a3 3 0 0 0 3-3V8a3 3 0 0 0-3-3ZM8 4a4 4 0 0 0-4 4v24a4 4 0 0 0 4 4h24a4 4 0 0 0 4-4V8a4 4 0 0 0-4-4H8Z" clip-rule="evenodd"/><path fill="url(#icon-68528aa7bebbc354__icon-12bfca15808c5832__d)" d="M19 15a3 3 0 0 1-2.5 2.959V20H22a1.5 1.5 0 0 0 1.5-1.5v-.541a3 3 0 1 1 1 0v.541A2.5 2.5 0 0 1 22 21h-5.5v1.041a3 3 0 1 1-1 0V17.96A3 3 0 1 1 19 15Z"/><path fill="#F5F5F5" d="M37.28 38.985a1.496 1.496 0 0 1-1.028-.638 1.5 1.5 0 0 1-2.483-.01 1.5 1.5 0 0 1-2.75-1.018l.005-.028a2.5 2.5 0 1 1-3.415-3.266 1.5 1.5 0 0 1-.977-2.72 1.5 1.5 0 0 1 .019-2.46 1.5 1.5 0 0 1 .613-2.718A10.262 10.262 0 0 1 28.88 26c5.632 0 10.197 4.565 10.197 10.197 0 .477-.033 1.031-.101 1.514a1.5 1.5 0 0 1-1.696 1.274Z"/><path fill="url(#icon-012e9acfc490f086__icon-711575c00beeb992__e)" d="M28.879 28c-.443 0-.877.035-1.3.102a.5.5 0 1 1-.158-.987 9.197 9.197 0 0 1 10.655 9.082c0 .438-.03.944-.092 1.373a.5.5 0 0 1-.99-.14c.054-.376.082-.834.082-1.233A8.197 8.197 0 0 0 28.879 28Z"/><path fill="url(#icon-74022334023164c7__icon-4ec021c4d3426e35__f)" d="M27.57 33.024a3.92 3.92 0 0 1 4.44 4.436.5.5 0 1 0 .99.14 4.92 4.92 0 0 0-5.57-5.566.5.5 0 1 0 .14.99Z"/><path fill="url(#icon-d08d9f71c3f090f3__icon-676a48b7792ebe40__g)" d="M30.25 36.25a1.5 1.5 0 1 1-3 0 1.5 1.5 0 0 1 3 0Z"/><path fill="url(#icon-4edd1d9013227e9a__icon-6ca9f939029262cc__h)" d="M27.579 30.576a6.041 6.041 0 0 1 7 5.966c0 .292-.022.61-.06.888a.5.5 0 1 0 .99.14 7.57 7.57 0 0 0 .07-1.029 7.041 7.041 0 0 0-8.158-6.953.5.5 0 1 0 .158.988Z"/><defs><linearGradient id="icon-ba96fde3befb4ca5__icon-cf51774cfb347979__a" x1="12.889" x2="16.937" y1="4" y2="36.383" gradientUnits="userSpaceOnUse"><stop stop-color="#fff"/><stop offset="1" stop-color="#EBEBEB"/></linearGradient><linearGradient id="icon-d4b07725806ffa9f__icon-374d6f54ac0dca38__c" x1="14.333" x2="18.642" y1="4" y2="36.314" gradientUnits="userSpaceOnUse"><stop stop-color="#BBB"/><stop offset="1" stop-color="#888"/></linearGradient><linearGradient id="icon-68528aa7bebbc354__icon-12bfca15808c5832__d" x1="13" x2="28.858" y1="12" y2="25.876" gradientUnits="userSpaceOnUse"><stop stop-color="#7751B8"/><stop offset="1" stop-color="#5A409C"/></linearGradient><linearGradient id="icon-012e9acfc490f086__icon-711575c00beeb992__e" x1="27" x2="38.029" y1="27" y2="38.076" gradientUnits="userSpaceOnUse"><stop stop-color="#7751B8"/><stop offset="1" stop-color="#5A409C"/></linearGradient><linearGradient id="icon-74022334023164c7__icon-4ec021c4d3426e35__f" x1="27" x2="38.029" y1="27" y2="38.076" gradientUnits="userSpaceOnUse"><stop stop-color="#7751B8"/><stop offset="1" stop-color="#5A409C"/></linearGradient><linearGradient id="icon-d08d9f71c3f090f3__icon-676a48b7792ebe40__g" x1="27" x2="38.029" y1="27" y2="38.076" gradientUnits="userSpaceOnUse"><stop stop-color="#7751B8"/><stop offset="1" stop-color="#5A409C"/></linearGradient><linearGradient id="icon-4edd1d9013227e9a__icon-6ca9f939029262cc__h" x1="27" x2="38.029" y1="27" y2="38.076" gradientUnits="userSpaceOnUse"><stop stop-color="#7751B8"/><stop offset="1" stop-color="#5A409C"/></linearGradient><radialGradient id="icon-2a2d1d24ef2ea3a2__icon-91d7dfbd19483a73__b" cx="0" cy="0" r="1" gradientTransform="rotate(56.31 -4.411 19.454) scale(30.4469 26.3483)" gradientUnits="userSpaceOnUse"><stop offset=".177" stop-color="#fff"/><stop offset="1" stop-color="#B8B8B8"/></radialGradient></defs></svg>