<svg xmlns="http://www.w3.org/2000/svg" width="24" height="24" fill="currentColor"><path d="M9 11a7.5 7.5 0 0 1 7.5-7.5h.095a.75.75 0 0 0 0-1.5H16.5a9 9 0 0 0-9 9v1.25c0 .69-.56 1.25-1.25 1.25h-3.5a.75.75 0 0 0 0 1.5h3.5A2.75 2.75 0 0 0 9 12.25V11Z"/><path d="M16.75 7a4.25 4.25 0 0 0-4.25 4.25v1.5c0 .216-.012.43-.035.639a6.472 6.472 0 0 0-1.395 3.156A5.736 5.736 0 0 1 6.75 18.5h-4a.75.75 0 0 1 0-1.5h4A4.25 4.25 0 0 0 11 12.75v-1.5a5.75 5.75 0 0 1 5.75-5.75h4.5a.75.75 0 0 1 0 1.5h-4.5ZM11.224 19.198A7.465 7.465 0 0 1 7 20.5h-.25a.75.75 0 0 0 0 1.5H7a8.958 8.958 0 0 0 4.795-1.382 6.451 6.451 0 0 1-.57-1.42Z"/><path d="M14.5 11.732a6.447 6.447 0 0 1 1.66-.594 1.25 1.25 0 0 1 1.09-.638h4a.75.75 0 0 0 0-1.5h-4a2.75 2.75 0 0 0-2.75 2.732ZM14.277 13.976a2 2 0 0 1-1.441 2.496l-.584.145a5.729 5.729 0 0 0 .006 1.807l.54.13a2 2 0 0 1 1.45 2.51l-.187.631c.44.386.94.7 1.485.922l.493-.519a2 2 0 0 1 2.899 0l.499.526a5.282 5.282 0 0 0 1.482-.913l-.198-.686a2 2 0 0 1 1.442-2.496l.583-.145a5.729 5.729 0 0 0-.006-1.807l-.54-.13a2 2 0 0 1-1.449-2.51l.186-.631a5.278 5.278 0 0 0-1.484-.922l-.493.518a2 2 0 0 1-2.9 0l-.498-.525c-.544.22-1.044.53-1.483.913l.198.686ZM17.5 19c-.8 0-1.45-.671-1.45-1.5 0-.828.65-1.5 1.45-1.5.8 0 1.45.672 1.45 1.5 0 .829-.65 1.5-1.45 1.5Z"/></svg>