<svg xmlns="http://www.w3.org/2000/svg" width="20" height="20" fill="currentColor"><path d="M13 3a6 6 0 0 0-6 6v.758a4.484 4.484 0 0 0-1-.502V9a7 7 0 0 1 7-7h.5a.5.5 0 0 1 0 1H13ZM9.921 16.8A6.993 6.993 0 0 0 13 11v-1a1 1 0 0 1 1-1h3.5a.5.5 0 0 0 0-1H14a2 2 0 0 0-2 2v1a5.996 5.996 0 0 1-2.801 5.077l.722.723Z"/><path d="M10 10.5a4.481 4.481 0 0 1-1.003 2.832 4.483 4.483 0 0 0-.289-1.43c.188-.43.292-.903.292-1.402v-1A4.5 4.5 0 0 1 13.5 5h4a.5.5 0 0 1 0 1h-4A3.5 3.5 0 0 0 10 9.5v1ZM4.5 17c.786 0 1.512-.26 2.096-.697l2.55 2.55a.5.5 0 1 0 .708-.707l-2.55-2.55A3.5 3.5 0 1 0 4.5 17Zm0-1a2.5 2.5 0 1 1 0-5 2.5 2.5 0 0 1 0 5Z"/></svg>