<svg xmlns="http://www.w3.org/2000/svg" width="20" height="20" fill="currentColor"><path d="M7 9a6 6 0 0 1 6-6h.5a.5.5 0 0 0 0-1H13a7 7 0 0 0-7 7v1a1 1 0 0 1-1 1H2.5a.5.5 0 0 0 0 1H5a2 2 0 0 0 2-2V9Z"/><path d="M13.5 6A3.5 3.5 0 0 0 10 9.5v1c0 .345-.039.68-.112 1.002a5.471 5.471 0 0 0-.704 1.583A4.495 4.495 0 0 1 5.5 15h-3a.5.5 0 0 1 0-1h3A3.5 3.5 0 0 0 9 10.5v-1A4.5 4.5 0 0 1 13.5 5h4a.5.5 0 0 1 0 1h-4ZM9.225 16.06A5.971 5.971 0 0 1 6 17h-.5a.5.5 0 0 0 0 1H6c1.317 0 2.55-.364 3.602-.996-.154-.3-.28-.615-.377-.943Z"/><path d="M12.045 9.577a5.461 5.461 0 0 1 1.595-.51A.998.998 0 0 1 14 9h3.5a.5.5 0 0 0 0-1H14a2 2 0 0 0-1.955 1.577ZM12.065 11.442a2 2 0 0 1-1.43 2.478l-.462.118a4.734 4.734 0 0 0 .01 1.016l.35.083a2 2 0 0 1 1.456 2.519l-.127.422c.258.204.537.378.835.518l.325-.344a2 2 0 0 1 2.91.002l.337.358c.292-.135.568-.302.822-.498l-.156-.556a2 2 0 0 1 1.43-2.479l.46-.117a4.7 4.7 0 0 0-.01-1.017l-.348-.082a2 2 0 0 1-1.456-2.52l.126-.421a4.318 4.318 0 0 0-.835-.519l-.325.344a2 2 0 0 1-2.91-.001l-.337-.358a4.31 4.31 0 0 0-.821.497l.156.557Zm2.434 4.058a1 1 0 1 1 0-2 1 1 0 0 1 0 2Z"/></svg>