<svg xmlns="http://www.w3.org/2000/svg" width="20" height="20" fill="currentColor"><path d="M7.5 9.25a5.75 5.75 0 0 1 5.75-5.75h.5a.75.75 0 0 0 0-1.5h-.5A7.25 7.25 0 0 0 6 9.25v1a.75.75 0 0 1-.75.75h-2.5a.75.75 0 0 0 0 1.5h2.5a2.25 2.25 0 0 0 2.25-2.25v-1Z"/><path d="M13.75 6.25A3.25 3.25 0 0 0 10.5 9.5v1c0 .077-.002.154-.005.23a5.48 5.48 0 0 0-1.467 3.207A4.734 4.734 0 0 1 5.75 15.25h-3a.75.75 0 0 1 0-1.5h3A3.25 3.25 0 0 0 9 10.5v-1a4.75 4.75 0 0 1 4.75-4.75h3.5a.75.75 0 0 1 0 1.5h-3.5ZM9.137 15.724a5.724 5.724 0 0 1-2.887.776h-.5a.75.75 0 0 0 0 1.5h.5c1.239 0 2.405-.31 3.425-.858a5.463 5.463 0 0 1-.538-1.418Z"/><path d="M12.005 9.597a5.467 5.467 0 0 1 2.1-.583A.754.754 0 0 1 14.25 9h3a.75.75 0 0 0 0-1.5h-3a2.25 2.25 0 0 0-2.245 2.097ZM12.065 11.442a2 2 0 0 1-1.43 2.478l-.462.118a4.734 4.734 0 0 0 .01 1.016l.35.083a2 2 0 0 1 1.456 2.519l-.127.422c.258.204.537.378.835.518l.325-.344a2 2 0 0 1 2.91.002l.337.358c.292-.135.568-.302.822-.498l-.156-.556a2 2 0 0 1 1.43-2.479l.46-.117a4.7 4.7 0 0 0-.01-1.017l-.348-.082a2 2 0 0 1-1.456-2.52l.126-.421a4.318 4.318 0 0 0-.835-.519l-.325.344a2 2 0 0 1-2.91-.001l-.337-.358a4.31 4.31 0 0 0-.821.497l.156.557Zm2.434 4.058a1 1 0 1 1 0-2 1 1 0 0 1 0 2Z"/></svg>