<svg xmlns="http://www.w3.org/2000/svg" width="20" height="20" fill="currentColor"><g clip-path="url(#icon-25a9fad336a77c50__icon-01c1410a57be5bc4__a)"><mask id="icon-52c9434725416eda__icon-5f48ae46c35ba635__b" width="20" height="20" x="0" y="0" maskUnits="userSpaceOnUse" style="mask-type:luminance"><path fill="#fff" d="M20 0H0v20h20V0Z"/></mask><g mask="url(#icon-52c9434725416eda__icon-5f48ae46c35ba635__b)"><path fill="url(#icon-af833d9d1c125911__icon-135af662771b3c63__c)" d="M2 4.5A2.5 2.5 0 0 1 4.5 2h11A2.5 2.5 0 0 1 18 4.5v11a2.5 2.5 0 0 1-2.5 2.5h-11A2.5 2.5 0 0 1 2 15.5v-11Z"/><path fill="url(#icon-b2e780ee63023cb1__icon-b09178c385e86c89__d)" fill-opacity=".2" d="M2 4.5A2.5 2.5 0 0 1 4.5 2h11A2.5 2.5 0 0 1 18 4.5v11a2.5 2.5 0 0 1-2.5 2.5h-11A2.5 2.5 0 0 1 2 15.5v-11Z"/><path fill="url(#icon-ad4cb74ba41b2940__icon-fffc4ad7c621506e__e)" fill-rule="evenodd" d="M15.5 3h-11A1.5 1.5 0 0 0 3 4.5v11A1.5 1.5 0 0 0 4.5 17h11a1.5 1.5 0 0 0 1.5-1.5v-11A1.5 1.5 0 0 0 15.5 3Zm-11-1A2.5 2.5 0 0 0 2 4.5v11A2.5 2.5 0 0 0 4.5 18h11a2.5 2.5 0 0 0 2.5-2.5v-11A2.5 2.5 0 0 0 15.5 2h-11Z" clip-rule="evenodd"/><path fill="#F5F5F5" d="M17.815 19.962a1.5 1.5 0 0 0 1.182-1.233c.06-.371.063-.67.063-.949a6.781 6.781 0 0 0-7.797-6.701 1.5 1.5 0 0 0-1.261 1.415H10v5.2A2.306 2.306 0 0 0 12.306 20h5.226c.102 0 .197-.013.283-.038Z"/><path fill="url(#icon-f7e9004713a68607__icon-555c81b36fe33291__f)" d="M12.28 13a4.44 4.44 0 0 0-.7.054.5.5 0 1 1-.159-.988 5.781 5.781 0 0 1 6.639 5.714c0 .266-.004.5-.05.791a.5.5 0 0 1-.988-.158c.014-.086.023-.166.028-.247.006-.08.008-.16.01-.251v-.135A4.781 4.781 0 0 0 12.28 13Z"/><path fill="url(#icon-49d200f60a3613ff__icon-36934015a45eccb0__g)" d="M12.12 14.97c-.179 0-.356.017-.522.05a.5.5 0 1 1-.196-.98c.234-.047.477-.07.718-.07a3.919 3.919 0 0 1 3.864 4.588.5.5 0 1 1-.988-.156 5.13 5.13 0 0 0 .03-.228 3.248 3.248 0 0 0 .014-.284 2.919 2.919 0 0 0-2.92-2.92Z"/><path fill="url(#icon-15bb6293cabd58be__icon-88e6bcf3e6d3c640__h)" d="M13.8 17.5a1.25 1.25 0 1 1-2.5 0 1.25 1.25 0 0 1 2.5 0Z"/><path fill="url(#icon-b43ceda76061b9af__icon-f01d0e1f974de049__i)" fill-rule="evenodd" d="M7.5 8.937a2 2 0 1 0-1 0v2.126a2 2 0 1 0 1 0V10.5h4a2 2 0 0 0 1.95-1.55 2 2 0 1 0-1.038-.038 1 1 0 0 1-.912.588h-4v-.563ZM8 7v.003A1.316 1.316 0 0 0 8 7Zm6 .003V7a.978.978 0 0 0 0 .003Z" clip-rule="evenodd"/></g></g><defs><linearGradient id="icon-af833d9d1c125911__icon-135af662771b3c63__c" x1="6.444" x2="8.468" y1="2" y2="18.192" gradientUnits="userSpaceOnUse"><stop stop-color="#fff"/><stop offset="1" stop-color="#EBEBEB"/></linearGradient><linearGradient id="icon-ad4cb74ba41b2940__icon-fffc4ad7c621506e__e" x1="7.167" x2="9.321" y1="2" y2="18.157" gradientUnits="userSpaceOnUse"><stop stop-color="#BBB"/><stop offset="1" stop-color="#888"/></linearGradient><linearGradient id="icon-f7e9004713a68607__icon-555c81b36fe33291__f" x1="11" x2="17.992" y1="12" y2="19.06" gradientUnits="userSpaceOnUse"><stop stop-color="#7751B8"/><stop offset="1" stop-color="#5A409C"/></linearGradient><linearGradient id="icon-49d200f60a3613ff__icon-36934015a45eccb0__g" x1="11" x2="17.992" y1="12" y2="19.06" gradientUnits="userSpaceOnUse"><stop stop-color="#7751B8"/><stop offset="1" stop-color="#5A409C"/></linearGradient><linearGradient id="icon-15bb6293cabd58be__icon-88e6bcf3e6d3c640__h" x1="11" x2="17.992" y1="12" y2="19.06" gradientUnits="userSpaceOnUse"><stop stop-color="#7751B8"/><stop offset="1" stop-color="#5A409C"/></linearGradient><linearGradient id="icon-b43ceda76061b9af__icon-f01d0e1f974de049__i" x1="5" x2="15" y1="5" y2="15" gradientUnits="userSpaceOnUse"><stop stop-color="#7751B8"/><stop offset="1" stop-color="#5A409C"/></linearGradient><radialGradient id="icon-b2e780ee63023cb1__icon-b09178c385e86c89__d" cx="0" cy="0" r="1" gradientTransform="rotate(56.31 -2.206 9.727) scale(15.2234 13.1741)" gradientUnits="userSpaceOnUse"><stop offset=".177" stop-color="#fff"/><stop offset="1" stop-color="#B8B8B8"/></radialGradient><clipPath id="icon-25a9fad336a77c50__icon-01c1410a57be5bc4__a"><path fill="#fff" d="M0 0h20v20H0z"/></clipPath></defs></svg>