<svg xmlns="http://www.w3.org/2000/svg" width="32" height="32" fill="currentColor"><path fill="url(#icon-8bfc45b3cea5c1a6__icon-8ba00a166b970318__a)" d="M3 6.5A3.5 3.5 0 0 1 6.5 3h19A3.5 3.5 0 0 1 29 6.5v19a3.5 3.5 0 0 1-3.5 3.5h-19A3.5 3.5 0 0 1 3 25.5v-19Z"/><path fill="url(#icon-d762db6421093dba__icon-60bb8f46d98042ee__b)" fill-opacity=".2" d="M3 6.5A3.5 3.5 0 0 1 6.5 3h19A3.5 3.5 0 0 1 29 6.5v19a3.5 3.5 0 0 1-3.5 3.5h-19A3.5 3.5 0 0 1 3 25.5v-19Z"/><path fill="url(#icon-bc58b0700d986783__icon-87c359ae948a6d40__c)" fill-rule="evenodd" d="M25.5 4h-19A2.5 2.5 0 0 0 4 6.5v19A2.5 2.5 0 0 0 6.5 28h19a2.5 2.5 0 0 0 2.5-2.5v-19A2.5 2.5 0 0 0 25.5 4Zm-19-1A3.5 3.5 0 0 0 3 6.5v19A3.5 3.5 0 0 0 6.5 29h19a3.5 3.5 0 0 0 3.5-3.5v-19A3.5 3.5 0 0 0 25.5 3h-19Z" clip-rule="evenodd"/><path fill="url(#icon-d22b14886f9251e5__icon-ac06d3e3571a3e82__d)" d="M9.75 14.5a1.75 1.75 0 1 0 0-3.5 1.75 1.75 0 0 0 0 3.5Z"/><path fill="url(#icon-d9ce4823bf896f1d__icon-f85676edd0c2fa51__e)" d="M16 14.5a1.75 1.75 0 1 0 0-3.5 1.75 1.75 0 0 0 0 3.5Z"/><path fill="url(#icon-7264dc19b3fdf401__icon-7cd956618dd2d080__f)" d="M11.5 19.25a1.75 1.75 0 1 1-3.5 0 1.75 1.75 0 0 1 3.5 0Z"/><path fill="url(#icon-4552e0c06328d2fa__icon-5bf5b9f44acddabe__g)" d="M16 21a1.75 1.75 0 1 0 0-3.5 1.75 1.75 0 0 0 0 3.5Z"/><path fill="url(#icon-908557c8c7d33cf2__icon-f927ddc8277d1b09__h)" d="M24 12.75a1.75 1.75 0 1 1-3.5 0 1.75 1.75 0 0 1 3.5 0Z"/><path fill="#F5F5F5" d="M20 21.75c0-.028.001-.055.003-.083a1.5 1.5 0 0 1 1.311-1.585 13.543 13.543 0 0 1 .564-.058c.194-.015.396-.024.602-.024a8.538 8.538 0 0 1 8.54 8.54c0 .395-.02.775-.083 1.197A1.5 1.5 0 0 1 29.647 31H29.2v.004h-.625V31H22.5a2.5 2.5 0 0 1-2.5-2.5v-6.75Z"/><path fill="url(#icon-212d54f742d7ee44__icon-da6ba3ecb59c90bb__i)" d="M21.562 22.047c.31-.04.617-.067.918-.067a6.538 6.538 0 0 1 6.54 6.54c0 .322-.016.599-.061.898a.5.5 0 0 0 .989.15c.054-.361.072-.69.072-1.048a7.538 7.538 0 0 0-7.54-7.54c-.359 0-.712.033-1.042.074a.5.5 0 0 0 .124.993Z"/><path fill="url(#icon-1b151a957869e0af__icon-16b51982d77d59bd__j)" d="M21.58 24.054c.221-.036.455-.054.7-.054a4.781 4.781 0 0 1 4.78 4.78c0 .235-.018.468-.054.691a.5.5 0 1 0 .988.158c.044-.277.066-.564.066-.849a5.781 5.781 0 0 0-6.639-5.714.5.5 0 1 0 .158.988Z"/><path fill="url(#icon-5042b5787f88fcff__icon-3149d56e4956b3da__k)" d="M21.598 26.02a2.68 2.68 0 0 1 .522-.05 2.918 2.918 0 0 1 2.876 3.432.5.5 0 0 0 .988.156 3.919 3.919 0 0 0-3.864-4.588c-.241 0-.484.023-.718.07a.5.5 0 0 0 .196.98Z"/><path fill="url(#icon-5584aa63c65976c3__icon-114b2c3eaf0e6955__l)" d="M22.55 29.75a1.25 1.25 0 1 0 0-2.5 1.25 1.25 0 0 0 0 2.5Z"/><defs><linearGradient id="icon-8bfc45b3cea5c1a6__icon-8ba00a166b970318__a" x1="10.222" x2="13.511" y1="3" y2="29.311" gradientUnits="userSpaceOnUse"><stop stop-color="#fff"/><stop offset="1" stop-color="#EBEBEB"/></linearGradient><linearGradient id="icon-bc58b0700d986783__icon-87c359ae948a6d40__c" x1="11.396" x2="14.897" y1="3" y2="29.256" gradientUnits="userSpaceOnUse"><stop stop-color="#BBB"/><stop offset="1" stop-color="#888"/></linearGradient><linearGradient id="icon-d22b14886f9251e5__icon-ac06d3e3571a3e82__d" x1="8" x2="16.989" y1="11" y2="25.382" gradientUnits="userSpaceOnUse"><stop stop-color="#7751B8"/><stop offset="1" stop-color="#5A409C"/></linearGradient><linearGradient id="icon-d9ce4823bf896f1d__icon-f85676edd0c2fa51__e" x1="8" x2="16.989" y1="11" y2="25.382" gradientUnits="userSpaceOnUse"><stop stop-color="#7751B8"/><stop offset="1" stop-color="#5A409C"/></linearGradient><linearGradient id="icon-7264dc19b3fdf401__icon-7cd956618dd2d080__f" x1="8" x2="16.989" y1="11" y2="25.382" gradientUnits="userSpaceOnUse"><stop stop-color="#7751B8"/><stop offset="1" stop-color="#5A409C"/></linearGradient><linearGradient id="icon-4552e0c06328d2fa__icon-5bf5b9f44acddabe__g" x1="8" x2="16.989" y1="11" y2="25.382" gradientUnits="userSpaceOnUse"><stop stop-color="#7751B8"/><stop offset="1" stop-color="#5A409C"/></linearGradient><linearGradient id="icon-908557c8c7d33cf2__icon-f927ddc8277d1b09__h" x1="8" x2="16.989" y1="11" y2="25.382" gradientUnits="userSpaceOnUse"><stop stop-color="#7751B8"/><stop offset="1" stop-color="#5A409C"/></linearGradient><linearGradient id="icon-212d54f742d7ee44__icon-da6ba3ecb59c90bb__i" x1="21" x2="30.07" y1="20.98" y2="30" gradientUnits="userSpaceOnUse"><stop stop-color="#7751B8"/><stop offset="1" stop-color="#5A409C"/></linearGradient><linearGradient id="icon-1b151a957869e0af__icon-16b51982d77d59bd__j" x1="21" x2="30.07" y1="20.98" y2="30" gradientUnits="userSpaceOnUse"><stop stop-color="#7751B8"/><stop offset="1" stop-color="#5A409C"/></linearGradient><linearGradient id="icon-5042b5787f88fcff__icon-3149d56e4956b3da__k" x1="21" x2="30.07" y1="20.98" y2="30" gradientUnits="userSpaceOnUse"><stop stop-color="#7751B8"/><stop offset="1" stop-color="#5A409C"/></linearGradient><linearGradient id="icon-5584aa63c65976c3__icon-114b2c3eaf0e6955__l" x1="21" x2="30.07" y1="20.98" y2="30" gradientUnits="userSpaceOnUse"><stop stop-color="#7751B8"/><stop offset="1" stop-color="#5A409C"/></linearGradient><radialGradient id="icon-d762db6421093dba__icon-60bb8f46d98042ee__b" cx="0" cy="0" r="1" gradientTransform="rotate(56.31 -3.476 15.448) scale(24.7381 21.408)" gradientUnits="userSpaceOnUse"><stop offset=".177" stop-color="#fff"/><stop offset="1" stop-color="#B8B8B8"/></radialGradient></defs></svg>