<svg xmlns="http://www.w3.org/2000/svg" width="20" height="20" fill="currentColor"><path d="M1.5 4a.5.5 0 0 1-.5-.5v-1A1.5 1.5 0 0 1 2.5 1h15A1.5 1.5 0 0 1 19 2.5v1a.5.5 0 0 1-1 0v-1a.5.5 0 0 0-.5-.5h-15a.5.5 0 0 0-.5.5v1a.5.5 0 0 1-.5.5Z"/><path d="M8 9a5 5 0 0 1 5-5h.5a.5.5 0 0 1 0 1H13a4 4 0 0 0-4 4v.375a.501.501 0 0 1-.016.125H9c0 .833-.675 1.508-1.508 1.508h-1.96a.5.5 0 1 1 0-1h1.96c.28 0 .508-.228.508-.508h.016A.501.501 0 0 1 8 9.375V9ZM13.602 8c-.833 0-1.508.675-1.508 1.508h.016a.5.5 0 0 0-.016.125v.375a4 4 0 0 1-4 4H6.53a.5.5 0 0 0 0 1h1.563a5 5 0 0 0 5-5v-.375a.5.5 0 0 0-.016-.125h.016c0-.28.227-.508.508-.508h.96a.5.5 0 0 0 0-1h-.96Z"/><path d="M11 9.531A3.5 3.5 0 0 1 7.5 13h-2a.5.5 0 0 1 0-1h2A2.5 2.5 0 0 0 10 9.5v-.094c0-.025.002-.05.006-.075a3.5 3.5 0 0 1 3.494-3.3h1a.5.5 0 0 1 0 1h-1a2.5 2.5 0 0 0-2.5 2.5ZM19 15.5a.5.5 0 0 0-1 0v1a.5.5 0 0 1-.5.5h-15a.5.5 0 0 1-.5-.5v-1a.5.5 0 0 0-1 0v1A1.5 1.5 0 0 0 2.5 18h15a1.5 1.5 0 0 0 1.5-1.5v-1Z"/></svg>