<svg xmlns="http://www.w3.org/2000/svg" width="24" height="24" fill="currentColor"><path d="M2 5.25a.75.75 0 0 0 1.5 0v-1a.75.75 0 0 1 .75-.75h15.5a.75.75 0 0 1 .75.75v1a.75.75 0 0 0 1.5 0v-1A2.25 2.25 0 0 0 19.75 2H4.25A2.25 2.25 0 0 0 2 4.25v1Z"/><path d="M13.75 5.5a5.25 5.25 0 0 0-5.25 5.25v.5a.75.75 0 0 1-.75.75h-1a.75.75 0 0 0 0 1.5h1A2.25 2.25 0 0 0 10 11.25v-.5A3.75 3.75 0 0 1 13.75 7h1.5a.75.75 0 0 0 0-1.5h-1.5Z"/><path d="M11 11.25A3.25 3.25 0 0 1 14.25 8h2a.75.75 0 0 1 0 1.5h-2a1.75 1.75 0 0 0-1.75 1.75v.418a4.489 4.489 0 0 0-1.478 3.803 3.235 3.235 0 0 1-1.772.525h-2.5a.75.75 0 1 1 0-1.5h2.5a1.75 1.75 0 0 0 1.75-1.75v-.877c0-.02 0-.04.002-.06a.76.76 0 0 1-.002-.061v-.498ZM11.308 16.662A3.735 3.735 0 0 1 9.75 17h-2a.75.75 0 0 0 0 1.5h2c.839 0 1.632-.197 2.336-.547a4.496 4.496 0 0 1-.778-1.291Z"/><path d="M22 18.75a.75.75 0 0 0-1.5 0v1a.75.75 0 0 1-.75.75H4.25a.75.75 0 0 1-.75-.75v-1a.75.75 0 0 0-1.5 0v1A2.25 2.25 0 0 0 4.25 22h15.5A2.25 2.25 0 0 0 22 19.75v-1Z"/><path d="M13.458 12.218a2 2 0 0 1-1.407 2.437l-.033.009a3.531 3.531 0 0 0 .026.916 2.002 2.002 0 0 1 1.302 2.2c.254.2.537.364.842.488a1.999 1.999 0 0 1 2.557.026c.289-.11.56-.257.806-.435l-.009-.033a2 2 0 0 1 1.407-2.437l.033-.009a3.531 3.531 0 0 0-.026-.916 2.002 2.002 0 0 1-1.302-2.201 3.516 3.516 0 0 0-.841-.487 2 2 0 0 1-2.558-.026c-.289.11-.56.257-.806.436l.009.032Zm2.042 3.554a.75.75 0 1 1 0-1.5.75.75 0 0 1 0 1.5Z"/></svg>