<svg xmlns="http://www.w3.org/2000/svg" width="20" height="20" fill="currentColor"><path d="M1.75 4A.75.75 0 0 1 1 3.25v-.5C1 1.784 1.784 1 2.75 1h14.5c.966 0 1.75.784 1.75 1.75v.5a.75.75 0 0 1-1.5 0v-.5a.25.25 0 0 0-.25-.25H2.75a.25.25 0 0 0-.25.25v.5a.75.75 0 0 1-.75.75ZM18.25 16a.75.75 0 0 1 .75.75v.5A1.75 1.75 0 0 1 17.25 19H2.75A1.75 1.75 0 0 1 1 17.25v-.5a.75.75 0 0 1 1.5 0v.5c0 .138.112.25.25.25h14.5a.25.25 0 0 0 .25-.25v-.5a.75.75 0 0 1 .75-.75Z"/><path d="M12 4a5 5 0 0 0-5 5v.5c0 .28-.227.508-.508.508h-1.96a.5.5 0 0 0 0 1h1.96A1.508 1.508 0 0 0 8 9.53V9a4 4 0 0 1 4-4h.5a.5.5 0 1 0 0-1H12Z"/><path d="M9.038 11.91A3.49 3.49 0 0 1 6.5 13h-2a.5.5 0 0 1 0-1h2A2.5 2.5 0 0 0 9 9.5v-.094c0-.025.002-.05.006-.075a3.5 3.5 0 0 1 3.494-3.3h1a.5.5 0 1 1 0 1h-1a2.5 2.5 0 0 0-2.5 2.5c0 .049-.002.098-.004.146a4.479 4.479 0 0 0-.958 2.233ZM9.104 13.467c.074.336.185.658.329.961-.698.37-1.494.58-2.34.58H5.532a.5.5 0 1 1 0-1h1.563c.733 0 1.42-.197 2.01-.541ZM10.051 12.155a2 2 0 0 0 1.407-2.437l-.009-.032c.246-.179.517-.326.806-.436a2 2 0 0 0 2.558.026c.304.124.587.288.841.487a2.002 2.002 0 0 0 1.302 2.201 3.54 3.54 0 0 1 .026.916l-.033.009a2 2 0 0 0-1.407 2.437l.009.033a3.499 3.499 0 0 1-.806.435 1.999 1.999 0 0 0-2.557-.026 3.474 3.474 0 0 1-.842-.488 2.002 2.002 0 0 0-1.302-2.2 3.54 3.54 0 0 1-.026-.916l.033-.009Zm4.199.367a.75.75 0 1 0-1.5 0 .75.75 0 0 0 1.5 0Z"/></svg>