<svg xmlns="http://www.w3.org/2000/svg" width="48" height="48" fill="currentColor"><path fill="url(#icon-8423845608b331e3__icon-50d6b5632e287709__a)" d="M5 10a5 5 0 0 1 5-5h28a5 5 0 0 1 5 5v28a5 5 0 0 1-5 5H10a5 5 0 0 1-5-5V10Z"/><path fill="url(#icon-3bce9bcd337f1bc9__icon-48e30f83ce885736__b)" fill-opacity=".2" d="M5 10a5 5 0 0 1 5-5h28a5 5 0 0 1 5 5v28a5 5 0 0 1-5 5H10a5 5 0 0 1-5-5V10Z"/><path fill="url(#icon-b07e1ed5c27c167f__icon-901b73eb8445f623__c)" fill-rule="evenodd" d="M38 6H10a4 4 0 0 0-4 4v28a4 4 0 0 0 4 4h28a4 4 0 0 0 4-4V10a4 4 0 0 0-4-4ZM10 5a5 5 0 0 0-5 5v28a5 5 0 0 0 5 5h28a5 5 0 0 0 5-5V10a5 5 0 0 0-5-5H10Z" clip-rule="evenodd"/><path fill="url(#icon-1e8d70d8dac4195c__icon-e89cad667b66cb75__d)" d="M14.5 21a2.5 2.5 0 1 0 0-5 2.5 2.5 0 0 0 0 5Z"/><path fill="url(#icon-4be1e0b8d79d5604__icon-32a5197e0d2b6886__e)" d="M24 21a2.5 2.5 0 1 0 0-5 2.5 2.5 0 0 0 0 5Z"/><path fill="url(#icon-639ac4f069764cc5__icon-8ca9ad6305ec99c0__f)" d="M26.5 29.5a2.5 2.5 0 1 1-5 0 2.5 2.5 0 0 1 5 0Z"/><path fill="url(#icon-e0feb8f99072cfd4__icon-ee80d31480cfa3e5__g)" d="M14.5 32a2.5 2.5 0 1 0 0-5 2.5 2.5 0 0 0 0 5Z"/><path fill="url(#icon-016167bc9abdd8d4__icon-fbf745b2655960dc__h)" d="M36 18.5a2.5 2.5 0 1 1-5 0 2.5 2.5 0 0 1 5 0Z"/><path fill="#F5F5F5" fill-rule="evenodd" d="M45.462 46a1.5 1.5 0 0 0 1.51-1.29c.085-.603.127-1.301.127-1.904C47.099 35.734 41.365 30 34.293 30c-.69 0-1.367.055-2.029.16a1.5 1.5 0 0 0-1.263 1.53l-.001.002V43.5a2.5 2.5 0 0 0 2.5 2.5h11.962Z" clip-rule="evenodd"/><path fill="url(#icon-d016326c361ba4fc__icon-1816d983670d65c7__i)" d="M32.579 32.135c.558-.089 1.13-.135 1.713-.135C40.261 32 45.1 36.838 45.1 42.806c0 .524-.037 1.128-.108 1.624a.5.5 0 0 0 .99.14c.078-.55.118-1.2.118-1.764 0-6.52-5.286-11.806-11.807-11.806-.636 0-1.26.05-1.87.148a.5.5 0 0 0 .157.987Z"/><path fill="url(#icon-807b50c56e32c8a2__icon-cf54ae3431a8a21d__j)" d="M32.579 35.102A8.132 8.132 0 0 1 42 43.132c0 .399-.029.928-.08 1.298a.5.5 0 1 0 .99.14c.06-.429.09-1.008.09-1.438a9.132 9.132 0 0 0-10.579-9.018.5.5 0 1 0 .158.988Z"/><path fill="url(#icon-765e0ba65ee417dd__icon-e66dc12f41876316__k)" d="M32.57 38.041a5.627 5.627 0 0 1 6.43 5.57c0 .273-.02.56-.056.819a.5.5 0 1 0 .99.14 6.99 6.99 0 0 0 .066-.958 6.627 6.627 0 0 0-7.57-6.561.5.5 0 0 0 .14.99Z"/><path fill="url(#icon-ca9a2af1f710abcd__icon-41253a891ed8cfa4__l)" d="M36.602 42.489a2.051 2.051 0 1 1-4.102 0 2.051 2.051 0 0 1 4.102 0Z"/><defs><linearGradient id="icon-8423845608b331e3__icon-50d6b5632e287709__a" x1="15.556" x2="20.362" y1="5" y2="43.455" gradientUnits="userSpaceOnUse"><stop stop-color="#fff"/><stop offset="1" stop-color="#EBEBEB"/></linearGradient><linearGradient id="icon-b07e1ed5c27c167f__icon-901b73eb8445f623__c" x1="17.271" x2="22.387" y1="5" y2="43.373" gradientUnits="userSpaceOnUse"><stop stop-color="#BBB"/><stop offset="1" stop-color="#888"/></linearGradient><linearGradient id="icon-1e8d70d8dac4195c__icon-e89cad667b66cb75__d" x1="12" x2="26.769" y1="16" y2="38.154" gradientUnits="userSpaceOnUse"><stop stop-color="#7751B8"/><stop offset="1" stop-color="#5A409C"/></linearGradient><linearGradient id="icon-4be1e0b8d79d5604__icon-32a5197e0d2b6886__e" x1="12" x2="26.769" y1="16" y2="38.154" gradientUnits="userSpaceOnUse"><stop stop-color="#7751B8"/><stop offset="1" stop-color="#5A409C"/></linearGradient><linearGradient id="icon-639ac4f069764cc5__icon-8ca9ad6305ec99c0__f" x1="12" x2="26.769" y1="16" y2="38.154" gradientUnits="userSpaceOnUse"><stop stop-color="#7751B8"/><stop offset="1" stop-color="#5A409C"/></linearGradient><linearGradient id="icon-e0feb8f99072cfd4__icon-ee80d31480cfa3e5__g" x1="12" x2="26.769" y1="16" y2="38.154" gradientUnits="userSpaceOnUse"><stop stop-color="#7751B8"/><stop offset="1" stop-color="#5A409C"/></linearGradient><linearGradient id="icon-016167bc9abdd8d4__icon-fbf745b2655960dc__h" x1="12" x2="26.769" y1="16" y2="38.154" gradientUnits="userSpaceOnUse"><stop stop-color="#7751B8"/><stop offset="1" stop-color="#5A409C"/></linearGradient><linearGradient id="icon-d016326c361ba4fc__icon-1816d983670d65c7__i" x1="32" x2="46" y1="31" y2="45.098" gradientUnits="userSpaceOnUse"><stop stop-color="#7751B8"/><stop offset="1" stop-color="#5A409C"/></linearGradient><linearGradient id="icon-807b50c56e32c8a2__icon-cf54ae3431a8a21d__j" x1="32" x2="46" y1="31" y2="45.098" gradientUnits="userSpaceOnUse"><stop stop-color="#7751B8"/><stop offset="1" stop-color="#5A409C"/></linearGradient><linearGradient id="icon-765e0ba65ee417dd__icon-e66dc12f41876316__k" x1="32" x2="46" y1="31" y2="45.098" gradientUnits="userSpaceOnUse"><stop stop-color="#7751B8"/><stop offset="1" stop-color="#5A409C"/></linearGradient><linearGradient id="icon-ca9a2af1f710abcd__icon-41253a891ed8cfa4__l" x1="32" x2="46" y1="31" y2="45.098" gradientUnits="userSpaceOnUse"><stop stop-color="#7751B8"/><stop offset="1" stop-color="#5A409C"/></linearGradient><radialGradient id="icon-3bce9bcd337f1bc9__icon-48e30f83ce885736__b" cx="0" cy="0" r="1" gradientTransform="rotate(56.31 -5.347 23.46) scale(36.1557 31.2886)" gradientUnits="userSpaceOnUse"><stop offset=".177" stop-color="#fff"/><stop offset="1" stop-color="#B8B8B8"/></radialGradient></defs></svg>