<svg xmlns="http://www.w3.org/2000/svg" width="20" height="20" fill="currentColor"><path d="M1.5 4a.5.5 0 0 1-.5-.5v-1A1.5 1.5 0 0 1 2.5 1h15A1.5 1.5 0 0 1 19 2.5v1a.5.5 0 0 1-1 0v-1a.5.5 0 0 0-.5-.5h-15a.5.5 0 0 0-.5.5v1a.5.5 0 0 1-.5.5Z"/><path d="M7 9a5 5 0 0 1 5-5h.5a.5.5 0 0 1 0 1H12a4 4 0 0 0-4 4v.531c0 .014 0 .029-.002.042a1.508 1.508 0 0 1-1.506 1.435h-1.96a.5.5 0 1 1 0-1h1.96c.28 0 .508-.228.508-.508V9Z"/><path d="M6.5 13c1 0 1.9-.419 2.538-1.09.11-.84.451-1.606.958-2.233L10 9.53a2.5 2.5 0 0 1 2.5-2.5h1a.5.5 0 0 0 0-1h-1a3.5 3.5 0 0 0-3.494 3.3.503.503 0 0 0-.006.075V9.5A2.5 2.5 0 0 1 6.5 12h-2a.5.5 0 0 0 0 1h2ZM9.104 13.467c.074.336.185.658.329.961-.698.37-1.494.58-2.34.58H5.532a.5.5 0 1 1 0-1h1.563c.733 0 1.42-.197 2.01-.541ZM19 16.5a.5.5 0 0 0-1 0v1a.5.5 0 0 1-.5.5h-15a.5.5 0 0 1-.5-.5v-1a.5.5 0 0 0-1 0v1A1.5 1.5 0 0 0 2.5 19h15a1.5 1.5 0 0 0 1.5-1.5v-1ZM11.458 9.718a2 2 0 0 1-1.407 2.437l-.033.009a3.531 3.531 0 0 0 .026.916 2.002 2.002 0 0 1 1.302 2.2c.254.2.537.364.842.488a1.999 1.999 0 0 1 2.557.026c.289-.11.56-.257.806-.435l-.009-.033a2 2 0 0 1 1.407-2.437l.033-.009a3.531 3.531 0 0 0-.026-.916 2.002 2.002 0 0 1-1.302-2.201 3.516 3.516 0 0 0-.841-.487 2 2 0 0 1-2.558-.026c-.289.11-.56.257-.806.436l.009.032Zm2.042 3.554a.75.75 0 1 1 0-1.5.75.75 0 0 1 0 1.5Z"/></svg>