<svg xmlns="http://www.w3.org/2000/svg" width="20" height="20" fill="currentColor"><g clip-path="url(#icon-9eb9bbeb21f34088__icon-a711d24b5b0b50bd__a)"><mask id="icon-c30896b88704a568__icon-2274a3ec9dfc7ad7__b" width="20" height="20" x="0" y="0" maskUnits="userSpaceOnUse" style="mask-type:luminance"><path fill="#fff" d="M20 0H0v20h20V0Z"/></mask><g mask="url(#icon-c30896b88704a568__icon-2274a3ec9dfc7ad7__b)"><path fill="url(#icon-fef47c7e88afbf85__icon-c8cf5c9bcb1c8c3c__c)" d="M2 4.5A2.5 2.5 0 0 1 4.5 2h11A2.5 2.5 0 0 1 18 4.5v11a2.5 2.5 0 0 1-2.5 2.5h-11A2.5 2.5 0 0 1 2 15.5v-11Z"/><path fill="url(#icon-525b1303596f1f1b__icon-d7a0ecc4fd18ef2d__d)" fill-opacity=".2" d="M2 4.5A2.5 2.5 0 0 1 4.5 2h11A2.5 2.5 0 0 1 18 4.5v11a2.5 2.5 0 0 1-2.5 2.5h-11A2.5 2.5 0 0 1 2 15.5v-11Z"/><path fill="url(#icon-bb0a391e3b2c2efe__icon-559bfc1ccc453bbd__e)" fill-rule="evenodd" d="M15.5 3h-11A1.5 1.5 0 0 0 3 4.5v11A1.5 1.5 0 0 0 4.5 17h11a1.5 1.5 0 0 0 1.5-1.5v-11A1.5 1.5 0 0 0 15.5 3Zm-11-1A2.5 2.5 0 0 0 2 4.5v11A2.5 2.5 0 0 0 4.5 18h11a2.5 2.5 0 0 0 2.5-2.5v-11A2.5 2.5 0 0 0 15.5 2h-11Z" clip-rule="evenodd"/><path fill="url(#icon-ffd60aa88cc280d6__icon-de4ca4e85090c7ec__f)" d="M6 9a1 1 0 1 0 0-2 1 1 0 0 0 0 2Z"/><path fill="url(#icon-56ce087e7d1f4b43__icon-ec3fa091e5c8a5b3__g)" d="M10 9a1 1 0 1 0 0-2 1 1 0 0 0 0 2Z"/><path fill="url(#icon-dce3fe034af46fce__icon-b495d86ba09c4e04__h)" d="M15 8a1 1 0 1 1-2 0 1 1 0 0 1 2 0Z"/><path fill="url(#icon-c56f55f78fe76b95__icon-6cf7225c4012b15d__i)" d="M10 13a1 1 0 1 0 0-2 1 1 0 0 0 0 2Z"/><path fill="url(#icon-8966f191de1b0a62__icon-988c3a9504c4b9fe__j)" d="M7 12a1 1 0 1 1-2 0 1 1 0 0 1 2 0Z"/><path fill="#F5F5F5" d="M17.815 19.962a1.5 1.5 0 0 0 1.182-1.233c.06-.371.063-.67.063-.949a6.781 6.781 0 0 0-7.797-6.701 1.5 1.5 0 0 0-1.261 1.415H10v5.2A2.306 2.306 0 0 0 12.306 20h5.226c.102 0 .197-.013.283-.038Z"/><path fill="url(#icon-a50e71670639fa4d__icon-581026147f8c089b__k)" d="M12.28 13a4.44 4.44 0 0 0-.7.054.5.5 0 1 1-.159-.988 5.781 5.781 0 0 1 6.639 5.714c0 .266-.004.5-.05.791a.5.5 0 0 1-.988-.158c.014-.086.023-.166.028-.247.006-.08.008-.16.01-.251v-.135A4.781 4.781 0 0 0 12.28 13Z"/><path fill="url(#icon-d90f276374655cc5__icon-11afbb1abfc10969__l)" d="M12.12 14.97c-.179 0-.356.017-.522.05a.5.5 0 1 1-.196-.98c.234-.047.477-.07.718-.07a3.919 3.919 0 0 1 3.864 4.588.5.5 0 1 1-.988-.156 5.13 5.13 0 0 0 .03-.228 3.248 3.248 0 0 0 .014-.284 2.919 2.919 0 0 0-2.92-2.92Z"/><path fill="url(#icon-6d13f2cd78207b1d__icon-04629523b9a070bf__m)" d="M13.8 17.5a1.25 1.25 0 1 1-2.5 0 1.25 1.25 0 0 1 2.5 0Z"/></g></g><defs><linearGradient id="icon-fef47c7e88afbf85__icon-c8cf5c9bcb1c8c3c__c" x1="6.444" x2="8.468" y1="2" y2="18.192" gradientUnits="userSpaceOnUse"><stop stop-color="#fff"/><stop offset="1" stop-color="#EBEBEB"/></linearGradient><linearGradient id="icon-bb0a391e3b2c2efe__icon-559bfc1ccc453bbd__e" x1="7.167" x2="9.321" y1="2" y2="18.157" gradientUnits="userSpaceOnUse"><stop stop-color="#BBB"/><stop offset="1" stop-color="#888"/></linearGradient><linearGradient id="icon-ffd60aa88cc280d6__icon-de4ca4e85090c7ec__f" x1="5" x2="10.294" y1="7" y2="15.823" gradientUnits="userSpaceOnUse"><stop stop-color="#7751B8"/><stop offset="1" stop-color="#5A409C"/></linearGradient><linearGradient id="icon-56ce087e7d1f4b43__icon-ec3fa091e5c8a5b3__g" x1="5" x2="10.294" y1="7" y2="15.823" gradientUnits="userSpaceOnUse"><stop stop-color="#7751B8"/><stop offset="1" stop-color="#5A409C"/></linearGradient><linearGradient id="icon-dce3fe034af46fce__icon-b495d86ba09c4e04__h" x1="5" x2="10.294" y1="7" y2="15.823" gradientUnits="userSpaceOnUse"><stop stop-color="#7751B8"/><stop offset="1" stop-color="#5A409C"/></linearGradient><linearGradient id="icon-c56f55f78fe76b95__icon-6cf7225c4012b15d__i" x1="5" x2="10.294" y1="7" y2="15.823" gradientUnits="userSpaceOnUse"><stop stop-color="#7751B8"/><stop offset="1" stop-color="#5A409C"/></linearGradient><linearGradient id="icon-8966f191de1b0a62__icon-988c3a9504c4b9fe__j" x1="5" x2="10.294" y1="7" y2="15.823" gradientUnits="userSpaceOnUse"><stop stop-color="#7751B8"/><stop offset="1" stop-color="#5A409C"/></linearGradient><linearGradient id="icon-a50e71670639fa4d__icon-581026147f8c089b__k" x1="11" x2="17.992" y1="12" y2="19.06" gradientUnits="userSpaceOnUse"><stop stop-color="#7751B8"/><stop offset="1" stop-color="#5A409C"/></linearGradient><linearGradient id="icon-d90f276374655cc5__icon-11afbb1abfc10969__l" x1="11" x2="17.992" y1="12" y2="19.06" gradientUnits="userSpaceOnUse"><stop stop-color="#7751B8"/><stop offset="1" stop-color="#5A409C"/></linearGradient><linearGradient id="icon-6d13f2cd78207b1d__icon-04629523b9a070bf__m" x1="11" x2="17.992" y1="12" y2="19.06" gradientUnits="userSpaceOnUse"><stop stop-color="#7751B8"/><stop offset="1" stop-color="#5A409C"/></linearGradient><radialGradient id="icon-525b1303596f1f1b__icon-d7a0ecc4fd18ef2d__d" cx="0" cy="0" r="1" gradientTransform="rotate(56.31 -2.206 9.727) scale(15.2234 13.1741)" gradientUnits="userSpaceOnUse"><stop offset=".177" stop-color="#fff"/><stop offset="1" stop-color="#B8B8B8"/></radialGradient><clipPath id="icon-9eb9bbeb21f34088__icon-a711d24b5b0b50bd__a"><path fill="#fff" d="M0 0h20v20H0z"/></clipPath></defs></svg>