<svg xmlns="http://www.w3.org/2000/svg" width="20" height="20" fill="currentColor"><path fill="url(#icon-80fba4168f94dabc__icon-1e008fe1e96840e9__a)" d="M2 4.5A2.5 2.5 0 0 1 4.5 2h11A2.5 2.5 0 0 1 18 4.5v11a2.5 2.5 0 0 1-2.5 2.5h-11A2.5 2.5 0 0 1 2 15.5v-11Z"/><path fill="url(#icon-076e884823d35a7e__icon-3bd0ea47c14e40e5__b)" fill-opacity=".2" d="M2 4.5A2.5 2.5 0 0 1 4.5 2h11A2.5 2.5 0 0 1 18 4.5v11a2.5 2.5 0 0 1-2.5 2.5h-11A2.5 2.5 0 0 1 2 15.5v-11Z"/><path fill="url(#icon-f7e78919c09e8b43__icon-0bd602d2c766021d__c)" fill-rule="evenodd" d="M15.5 3h-11A1.5 1.5 0 0 0 3 4.5v11A1.5 1.5 0 0 0 4.5 17h11a1.5 1.5 0 0 0 1.5-1.5v-11A1.5 1.5 0 0 0 15.5 3Zm-11-1A2.5 2.5 0 0 0 2 4.5v11A2.5 2.5 0 0 0 4.5 18h11a2.5 2.5 0 0 0 2.5-2.5v-11A2.5 2.5 0 0 0 15.5 2h-11Z" clip-rule="evenodd"/><path fill="url(#icon-b3fddb46a747dea4__icon-ef17bccfa0a79139__d)" fill-rule="evenodd" d="M8.922 5.474a1.5 1.5 0 0 1 2.157 0l1.17 1.21c.716.741 1.622 1.743 1.622 3.028 0 2.028-1.463 3.675-3.371 3.923v.88a.5.5 0 0 1-1 0v-.88c-1.908-.248-3.37-1.896-3.37-3.923 0-1.285.906-2.287 1.623-3.028l1.169-1.21Zm.578 7.149v-3.5a.5.5 0 1 1 1 0v3.5a2.85 2.85 0 0 1-1 0Z" clip-rule="evenodd"/><defs><linearGradient id="icon-80fba4168f94dabc__icon-1e008fe1e96840e9__a" x1="6.444" x2="8.468" y1="2" y2="18.192" gradientUnits="userSpaceOnUse"><stop stop-color="#fff"/><stop offset="1" stop-color="#EBEBEB"/></linearGradient><linearGradient id="icon-f7e78919c09e8b43__icon-0bd602d2c766021d__c" x1="7.167" x2="9.321" y1="2" y2="18.157" gradientUnits="userSpaceOnUse"><stop stop-color="#BBB"/><stop offset="1" stop-color="#888"/></linearGradient><linearGradient id="icon-b3fddb46a747dea4__icon-ef17bccfa0a79139__d" x1="6.13" x2="15.81" y1="5.017" y2="12.511" gradientUnits="userSpaceOnUse"><stop stop-color="#7751B8"/><stop offset="1" stop-color="#5A409C"/></linearGradient><radialGradient id="icon-076e884823d35a7e__icon-3bd0ea47c14e40e5__b" cx="0" cy="0" r="1" gradientTransform="rotate(56.31 -2.206 9.727) scale(15.2234 13.1741)" gradientUnits="userSpaceOnUse"><stop offset=".177" stop-color="#fff"/><stop offset="1" stop-color="#B8B8B8"/></radialGradient></defs></svg>