<svg xmlns="http://www.w3.org/2000/svg" width="40" height="40" fill="currentColor"><path fill="url(#icon-e22d3c34789aa08d__icon-4a86a76264bc6ac2__a)" d="M4 8a4 4 0 0 1 4-4h24a4 4 0 0 1 4 4v24a4 4 0 0 1-4 4H8a4 4 0 0 1-4-4V8Z"/><path fill="url(#icon-44339cd7976fe0f9__icon-3a45ffd962e55e9a__b)" fill-opacity=".2" d="M4 8a4 4 0 0 1 4-4h24a4 4 0 0 1 4 4v24a4 4 0 0 1-4 4H8a4 4 0 0 1-4-4V8Z"/><path fill="url(#icon-ac3c90d9411372f3__icon-74b8f0600b432c60__c)" fill-rule="evenodd" d="M32 5H8a3 3 0 0 0-3 3v24a3 3 0 0 0 3 3h24a3 3 0 0 0 3-3V8a3 3 0 0 0-3-3ZM8 4a4 4 0 0 0-4 4v24a4 4 0 0 0 4 4h24a4 4 0 0 0 4-4V8a4 4 0 0 0-4-4H8Z" clip-rule="evenodd"/><path fill="url(#icon-674774a6581c06cc__icon-f31621147ab70665__d)" d="M21.072 12.462a1.5 1.5 0 0 0-2.144 0l-3.237 3.307a6.03 6.03 0 0 0 .057 8.493l.01.009a5.976 5.976 0 0 0 3.742 1.736V27.5a.5.5 0 1 0 1 0v-1.491a5.976 5.976 0 0 0 3.743-1.737l.009-.01.011-.01a6.03 6.03 0 0 0 .046-8.482l-3.237-3.307Zm-.572 12.53a5.063 5.063 0 0 1-1 0v-5.493a.5.5 0 1 1 1 0v5.492Z"/><defs><linearGradient id="icon-e22d3c34789aa08d__icon-4a86a76264bc6ac2__a" x1="12.889" x2="16.937" y1="4" y2="36.383" gradientUnits="userSpaceOnUse"><stop stop-color="#fff"/><stop offset="1" stop-color="#EBEBEB"/></linearGradient><linearGradient id="icon-ac3c90d9411372f3__icon-74b8f0600b432c60__c" x1="14.333" x2="18.642" y1="4" y2="36.314" gradientUnits="userSpaceOnUse"><stop stop-color="#BBB"/><stop offset="1" stop-color="#888"/></linearGradient><linearGradient id="icon-674774a6581c06cc__icon-f31621147ab70665__d" x1="13.971" x2="29.343" y1="12.012" y2="23.606" gradientUnits="userSpaceOnUse"><stop stop-color="#7751B8"/><stop offset="1" stop-color="#5A409C"/></linearGradient><radialGradient id="icon-44339cd7976fe0f9__icon-3a45ffd962e55e9a__b" cx="0" cy="0" r="1" gradientTransform="rotate(56.31 -4.411 19.454) scale(30.4469 26.3483)" gradientUnits="userSpaceOnUse"><stop offset=".177" stop-color="#fff"/><stop offset="1" stop-color="#B8B8B8"/></radialGradient></defs></svg>