<svg xmlns="http://www.w3.org/2000/svg" width="16" height="16" fill="currentColor"><path fill="#117865" d="M11.5 16a4.5 4.5 0 1 0 0-9 4.5 4.5 0 0 0 0 9Zm2.354-5.646-3 3a.5.5 0 0 1-.708 0l-1-1a.5.5 0 0 1 .708-.708l.646.647 2.646-2.647a.5.5 0 0 1 .708.708Z"/><path fill="#424242" d="M4.5 3A1.5 1.5 0 0 0 3 4.5v7A1.5 1.5 0 0 0 4.5 13H6v-1.5c0 .9.216 1.75.6 2.5H4.5A2.5 2.5 0 0 1 2 11.5v-7A2.5 2.5 0 0 1 4.5 2H10v3H6V3H4.5ZM14 6.6V6h-3v.022a5.477 5.477 0 0 1 3 .577Z"/><path fill="#424242" d="M10 6.207V6H6v4h.207A5.511 5.511 0 0 1 10 6.207ZM6.022 11a5.571 5.571 0 0 0-.022.5V11h.022ZM14 5v-.5A2.5 2.5 0 0 0 11.5 2H11v3h3Z"/></svg>