<svg xmlns="http://www.w3.org/2000/svg" width="20" height="20" fill="currentColor"><path d="M18.677 1h-2.828a.5.5 0 0 0 0 1h1.621l-5.292 5.293a.5.5 0 0 0 .707.707l5.292-5.293v1.621a.5.5 0 0 0 1 0V1.5a.5.5 0 0 0-.144-.351l-.002-.003-.002-.002A.5.5 0 0 0 18.68 1h-.003Z"/><path d="M14.5 3c.173 0 .342.018.505.051L13 5.056V3h1.5ZM13.592 8.707a1.494 1.494 0 0 1-.592.365V12h4V8h-2.701l-.707.707ZM11.073 8A1.494 1.494 0 0 0 12 9.05V12H8V8h3.073ZM11.47 6.586l.53-.53V3H8v4h3.177c.072-.15.17-.29.293-.414ZM15.299 7l1.694-1.694c.005.064.007.129.007.194V7h-1.701ZM13 17h1.5a2.5 2.5 0 0 0 2.5-2.5V13h-4v4ZM12 13H8v4h4v-4ZM7 12V8H3v4h4ZM7 13H3v1.5A2.5 2.5 0 0 0 5.5 17H7v-4ZM7 3v4H3V5.5A2.5 2.5 0 0 1 5.5 3H7Z"/></svg>