<svg xmlns="http://www.w3.org/2000/svg" width="20" height="20" fill="currentColor"><path d="M3.5 3a2.5 2.5 0 0 0 0 5H4a.5.5 0 0 0 0-1h-.5a1.5 1.5 0 1 1 0-3H4a.5.5 0 0 0 0-1h-.5ZM7 3a.5.5 0 0 0 0 1h.5a1.5 1.5 0 1 1 0 3H7a.5.5 0 0 0 0 1h.5a2.5 2.5 0 0 0 0-5H7Z"/><path d="M3 5.5a.5.5 0 0 1 .5-.5h4a.5.5 0 0 1 0 1h-4a.5.5 0 0 1-.5-.5ZM10.663 7H12V3H9.95A3.49 3.49 0 0 1 11 5.5c0 .537-.12 1.045-.337 1.5ZM8 12V8.965A3.49 3.49 0 0 0 9.95 8H12v4H8ZM3 12V8.965c.163.023.33.035.5.035H7v3H3ZM17 7h-4V3h1.5A2.5 2.5 0 0 1 17 5.5V7ZM13 8v2.404l.2-.48A1.5 1.5 0 0 1 14.585 9H17V8h-4ZM8 13h3.918l-.801 1.923A1.502 1.502 0 0 0 12 16.915V17H8v-4ZM7 13H3v1.5A2.5 2.5 0 0 0 5.5 17H7v-4ZM14.252 16h-1.75a.5.5 0 0 1-.462-.692l2.084-5a.5.5 0 0 1 .461-.308h3.473a.5.5 0 0 1 .475.658L17.752 13h1.097a.75.75 0 0 1 .512 1.298l-4.873 4.548c-.364.34-.947-.004-.826-.487l.59-2.359Z"/></svg>