<svg xmlns="http://www.w3.org/2000/svg" width="20" height="20" fill="currentColor"><path d="M11.318 2.318a4.5 4.5 0 1 1 6.364 6.364 4.5 4.5 0 0 1-6.364-6.364Zm5.096 1.768v-.003a.498.498 0 0 0-.144-.349l-.003-.002-.002-.002a.498.498 0 0 0-.351-.144h-2.829a.5.5 0 1 0 0 1h1.622L12.732 6.56a.5.5 0 0 0 .707.707l1.975-1.975v1.621a.5.5 0 0 0 1 0V4.086ZM9.6 3a5.516 5.516 0 0 0-.393 4H8V3h1.6ZM10.61 9.39A5.495 5.495 0 0 1 9.6 8H8v4h4v-1.6c-.5-.255-.97-.592-1.39-1.01ZM17 10.4a5.516 5.516 0 0 1-4 .393V12h4v-1.6ZM13 17h1.5a2.5 2.5 0 0 0 2.5-2.5V13h-4v4ZM12 13H8v4h4v-4ZM7 12V8H3v4h4ZM7 13H3v1.5A2.5 2.5 0 0 0 5.5 17H7v-4ZM7 3v4H3V5.5A2.5 2.5 0 0 1 5.5 3H7Z"/></svg>