<svg xmlns="http://www.w3.org/2000/svg" width="20" height="20" fill="currentColor"><path d="M13 7h4V5.5A2.5 2.5 0 0 0 14.5 3H13v4ZM7 12V8H3v4h4ZM8 12h4V8H8v4ZM16 9c.342 0 .676.04 1 .123V8h-4v2.354a3.91 3.91 0 0 1 1.476-1.046A4.25 4.25 0 0 1 15.973 9H16ZM9.441 15.941 12 13.383V13H8v4h1c0-.41.162-.78.441-1.059ZM7 13H3v1.5A2.5 2.5 0 0 0 5.5 17H7v-4ZM12 7V3H8v4h4ZM7 3v4H3V5.5A2.5 2.5 0 0 1 5.5 3H7Z"/><path fill-rule="evenodd" d="M10.148 18.852A.48.48 0 0 0 10.5 19h2a.569.569 0 0 0 .273-.07.368.368 0 0 0 .149-.172.864.864 0 0 0 .062-.235c.01-.083.016-.169.016-.257V18c.24-.005.427-.013.563-.023a.468.468 0 0 0 .304-.118.457.457 0 0 0 .117-.297c.01-.13.016-.317.016-.562h.5c.11 0 .198-.023.266-.07a.492.492 0 0 0 .156-.172.65.65 0 0 0 .07-.235c.01-.088.016-.18.016-.273a3.412 3.412 0 0 1-.008-.227v-.195c.172.063.346.107.523.133.178.026.357.039.54.039a2.866 2.866 0 0 0 2.078-.898c.27-.282.481-.602.632-.961.151-.36.227-.74.227-1.141 0-.417-.078-.807-.234-1.172a3.009 3.009 0 0 0-.641-.953 3.009 3.009 0 0 0-.953-.64A2.942 2.942 0 0 0 16 10c-.406.01-.79.088-1.148.234a2.91 2.91 0 0 0-.954.625c-.276.271-.494.584-.656.938a2.716 2.716 0 0 0-.242 1.14c0 .245.029.503.086.774l-2.938 2.937A.48.48 0 0 0 10 17v1.5c0 .135.05.253.148.352Zm7.133-7.133a.723.723 0 0 1 .219.531.723.723 0 0 1-.219.531.723.723 0 0 1-.531.219.723.723 0 0 1-.531-.219.723.723 0 0 1-.219-.531c0-.208.073-.385.219-.531a.723.723 0 0 1 .531-.219c.208 0 .385.073.531.219Z" clip-rule="evenodd"/></svg>