<svg xmlns="http://www.w3.org/2000/svg" width="20" height="20" fill="currentColor"><g clip-path="url(#icon-351d2ee10e08b887__icon-0737b06d8169c642__a)"><path d="M6.5 17A3.5 3.5 0 0 1 3 13.5V9.965a2.5 2.5 0 0 1-1 0V13.5A4.5 4.5 0 0 0 6.5 18h5a4.481 4.481 0 0 0 2.828-1H6.5ZM9 4.536l.268-.268A2.5 2.5 0 0 0 9.949 2H13v4H9V4.536Z"/><path d="M4.267 9.284A2.501 2.501 0 0 1 4 9.516V11h4V7H5v.516a2.5 2.5 0 0 1-.733 1.768ZM14 16h1.5a2.5 2.5 0 0 0 2.5-2.5V12h-4v4ZM14 11V7h4v4h-4ZM13 11H9V7h4v4ZM9 12h4v4H9v-4ZM8 12H4v1.5A2.5 2.5 0 0 0 6.5 16H8v-4ZM18 6h-4V2h1.5A2.5 2.5 0 0 1 18 4.5V6ZM5.5 0a.5.5 0 0 1 .354.146l2 2a.5.5 0 0 1 0 .708l-2 2a.5.5 0 1 1-.708-.708l1.14-1.14A3.5 3.5 0 0 0 3 6.5v1.016a.5.5 0 1 1-1 0V6.5A4.5 4.5 0 0 1 6.3 2L5.146.854A.5.5 0 0 1 5.5 0Z"/></g><defs><clipPath id="icon-351d2ee10e08b887__icon-0737b06d8169c642__a"><path d="M0 0h20v20H0z"/></clipPath></defs></svg>