<svg xmlns="http://www.w3.org/2000/svg" width="16" height="16" fill="currentColor"><path fill="#424242" d="M2 4.5A2.5 2.5 0 0 1 4.5 2H5v3H2v-.5ZM6 5V2h4v3H6ZM2 6h3v4H2V6ZM6 6v4h.135a5.51 5.51 0 0 1 3.417-4H6ZM6.02 11a5.474 5.474 0 0 0 .8 3H6v-3h.02ZM2 11h3v3h-.5A2.5 2.5 0 0 1 2 11.5V11ZM14 4.5V5h-3V2h.5A2.5 2.5 0 0 1 14 4.5Z"/><path fill="#117865" d="M11.5 16a4.5 4.5 0 1 0 0-9 4.5 4.5 0 0 0 0 9Zm2.354-5.646-3 3a.5.5 0 0 1-.708 0l-1-1a.5.5 0 0 1 .708-.708l.646.647 2.646-2.647a.5.5 0 0 1 .708.708Z"/></svg>