<svg xmlns="http://www.w3.org/2000/svg" width="16" height="16" fill="currentColor"><path fill="#424242" d="M4.5 2A2.5 2.5 0 0 0 2 4.5v7A2.5 2.5 0 0 0 4.5 14h2.32a5.476 5.476 0 0 1-.48-1H6v-2h.02c.008-.342.047-.676.115-1H6V6h3.552a5.487 5.487 0 0 1 1.966-.362c.893 0 1.736.213 2.482.591V4.5A2.5 2.5 0 0 0 11.5 2h-7ZM3 11h2v2h-.5A1.5 1.5 0 0 1 3 11.5V11Zm0-5h2v4H3V6Zm7-1H6V3h4v2ZM4.5 3H5v2H3v-.5A1.5 1.5 0 0 1 4.5 3ZM13 4.5V5h-2V3h.5A1.5 1.5 0 0 1 13 4.5Z"/><path fill="#117865" d="M11.5 16a4.5 4.5 0 1 0 0-9 4.5 4.5 0 0 0 0 9Zm2.354-5.646-3 3a.5.5 0 0 1-.708 0l-1-1a.5.5 0 0 1 .708-.708l.646.647 2.646-2.647a.5.5 0 0 1 .708.708Z"/></svg>