<svg xmlns="http://www.w3.org/2000/svg" width="20" height="20" fill="currentColor"><path d="M9.085 6H7V2h4v3.085A1.5 1.5 0 0 0 9.085 6ZM14.085 6a1.407 1.407 0 0 1-.02-.064 1.5 1.5 0 0 1 0-2.872c.097-.323.302-.6.572-.791A2.49 2.49 0 0 0 13.5 2H12v4h2.085ZM8.878 11l1.095-1.095a1.504 1.504 0 0 1-.909-.97A1.5 1.5 0 0 1 8.085 7H7v4h1.878ZM5.852 14.026 6 13.878V12H2v1.5A2.5 2.5 0 0 0 4.5 16H5a2.904 2.904 0 0 1 .852-1.974ZM6 11V7H2v4h4ZM6 2v4H2V4.5A2.5 2.5 0 0 1 4.5 2H6ZM13.729 7.564a1.914 1.914 0 1 1 2.707 2.707l-7.17 7.17a1.914 1.914 0 1 1-2.707-2.708l7.17-7.17Zm-.48 1.893L7.266 15.44a.914.914 0 1 0 1.293 1.293l5.983-5.983-1.293-1.293Zm2 .586.48-.48a.914.914 0 0 0-1.293-1.292l-.48.48 1.293 1.292ZM10.5 6a.5.5 0 0 1 .5.5V7h.5a.5.5 0 0 1 0 1H11v.5a.5.5 0 0 1-1 0V8h-.5a.5.5 0 0 1 0-1h.5v-.5a.5.5 0 0 1 .5-.5Z"/><path d="M16 3.5a.5.5 0 0 0-1 0V4h-.5a.5.5 0 0 0 0 1h.5v.5a.5.5 0 0 0 1 0V5h.5a.5.5 0 0 0 0-1H16v-.5ZM17.5 15a.5.5 0 0 0 0-1H17v-.5a.5.5 0 0 0-1 0v.5h-.5a.5.5 0 0 0 0 1h.5v.5a.5.5 0 0 0 1 0V15h.5Z"/></svg>