<svg xmlns="http://www.w3.org/2000/svg" width="16" height="16" fill="currentColor"><path d="M4.5 2A2.5 2.5 0 0 0 2 4.5v7A2.5 2.5 0 0 0 4.5 14h4.351l.94-1H6v-2h4v1.778l1-1.064v-.428L9.791 10H6V6h8V4.5A2.5 2.5 0 0 0 11.5 2h-7ZM10 5H6V3h4v2Zm3-.5V5h-2V3h.5A1.5 1.5 0 0 1 13 4.5ZM4.5 13A1.5 1.5 0 0 1 3 11.5v-7A1.5 1.5 0 0 1 4.5 3H5v10h-.5Z"/><path d="M9.5 16h6a.5.5 0 0 0 0-1h-4.845l2.968-3.158a.5.5 0 0 0 0-.684L10.655 8H15.5a.5.5 0 0 0 0-1h-6a.5.5 0 0 0-.364.842l3.438 3.658-3.438 3.658A.5.5 0 0 0 9.5 16Z"/></svg>