<svg xmlns="http://www.w3.org/2000/svg" width="16" height="16" fill="currentColor"><path d="M4.5 3A1.5 1.5 0 0 0 3 4.5v7A1.5 1.5 0 0 0 4.5 13H6v-2h4v1.778L8.851 14H4.5A2.5 2.5 0 0 1 2 11.5v-7A2.5 2.5 0 0 1 4.5 2H10v3H6V3H4.5Z"/><path d="M9.5 6H6v4h3.791L8.406 8.526A1.5 1.5 0 0 1 9.498 6h.001ZM14 4.5V5h-3V2h.5A2.5 2.5 0 0 1 14 4.5Z"/><path d="M9.5 16h6a.5.5 0 0 0 0-1h-4.845l2.968-3.158a.5.5 0 0 0 0-.684L10.655 8H15.5a.5.5 0 0 0 0-1h-6a.5.5 0 0 0-.364.842l3.438 3.658-3.438 3.658A.5.5 0 0 0 9.5 16Z"/></svg>