<svg xmlns="http://www.w3.org/2000/svg" width="16" height="16" fill="currentColor"><path d="M3 4.5A1.5 1.5 0 0 1 4.5 3H6v2h4V2H4.5A2.5 2.5 0 0 0 2 4.5v7A2.5 2.5 0 0 0 4.5 14H7v-3H6v2H4.5A1.5 1.5 0 0 1 3 11.5v-7ZM14 6v2.085A1.498 1.498 0 0 0 13.5 8H11V6h3Z"/><path d="M10 8V6H6v4h1.05A2.5 2.5 0 0 1 9.5 8h.5ZM14 4.5V5h-3V2h.5A2.5 2.5 0 0 1 14 4.5ZM9.5 10a.5.5 0 0 0-.5.5v4a.5.5 0 0 0 .5.5h1a.5.5 0 0 1 0 1h-1A1.5 1.5 0 0 1 8 14.5v-4A1.5 1.5 0 0 1 9.5 9h1a.5.5 0 0 1 0 1h-1ZM14.5 10a.5.5 0 0 1 .5.5v4a.5.5 0 0 1-.5.5h-1a.5.5 0 0 0 0 1h1a1.5 1.5 0 0 0 1.5-1.5v-4A1.5 1.5 0 0 0 14.5 9h-1a.5.5 0 0 0 0 1h1Z"/></svg>