<svg xmlns="http://www.w3.org/2000/svg" width="16" height="16" fill="currentColor"><g clip-path="url(#icon-59e247e2fe226f97__icon-c736cd62e44815c7__a)"><path d="M2 4.5A2.5 2.5 0 0 1 4.5 2h7A2.5 2.5 0 0 1 14 4.5V10h-1V6h-.363a1.493 1.493 0 0 0-.553-.583 2.837 2.837 0 0 0-.915-.365 3.023 3.023 0 0 0-1.034-.014l-.015.002c-.72.11-1.306.462-1.724.96H6v3.031h-.01v3.188H6V13h1.36a26.57 26.57 0 0 1-.014.213c-.032.383-.054.59-.1.746a1.559 1.559 0 0 1-.085-.04A1.5 1.5 0 0 0 5.678 14H4.5A2.5 2.5 0 0 1 2 11.5v-7ZM6 5h4V3H6v2Zm7 0v-.5A1.5 1.5 0 0 0 11.5 3H11v2h2ZM3 11.5A1.5 1.5 0 0 0 4.5 13H5V3h-.5A1.5 1.5 0 0 0 3 4.5v7Z"/><path d="m15.844 11.854-1.728 1.727a73.334 73.334 0 0 0 .708 1.214l.023.04c.038.064.06.098.078.122a.155.155 0 0 0 .041.042h.01a1.653 1.653 0 0 0 .062-.078l.015-.018.051-.068a.5.5 0 0 1 .792.611l-.025.033a1.52 1.52 0 0 1-.348.363c-.242.163-.521.189-.822.127a.503.503 0 0 1-.117-.04 1.183 1.183 0 0 1-.465-.38 2.442 2.442 0 0 1-.133-.207l-.028-.047c-.031-.053-.063-.109-.104-.174-.063-.102-.249-.423-.47-.807l-1.54 1.54a.5.5 0 0 1-.707-.708l1.73-1.73a73.096 73.096 0 0 0-.6-1.037 1.828 1.828 0 0 0-.17-.275.72.72 0 0 0-.072-.082 1.263 1.263 0 0 0-.139.152.5.5 0 1 1-.791-.611c.096-.125.243-.298.441-.418a.924.924 0 0 1 .87-.065c.214.104.372.27.482.412.109.14.195.29.258.413.071.116.246.419.454.779l1.537-1.538a.5.5 0 0 1 .707.708ZM10.42 7.017c.174-.024.279-.02.357-.004a.857.857 0 0 1 .277.12.5.5 0 1 0 .515-.858 1.843 1.843 0 0 0-.596-.243 2.031 2.031 0 0 0-.696-.004h-.006a1.764 1.764 0 0 0-1.207.742c-.262.374-.386.83-.42 1.281a38.235 38.235 0 0 1-.046.966H7.59a.5.5 0 0 0 0 1h.952c-.073 1.29-.165 2.825-.2 3.276-.031.375-.059.706-.15.995-.088.272-.22.47-.447.601l-.013.008c-.257.161-.588.132-1.018-.083a.5.5 0 1 0-.447.894c.532.267 1.284.478 1.988.041.493-.29.75-.723.889-1.157.127-.4.163-.83.191-1.17l.004-.048v-.003c.035-.45.13-2.034.205-3.354h1.046a.5.5 0 1 0 0-1H9.6c.023-.452.04-.789.042-.904.027-.326.113-.587.24-.768a.765.765 0 0 1 .539-.328Z"/></g><defs><clipPath id="icon-59e247e2fe226f97__icon-c736cd62e44815c7__a"><path d="M0 0h16v16H0z"/></clipPath></defs></svg>