<svg xmlns="http://www.w3.org/2000/svg" width="20" height="20" fill="currentColor"><g clip-path="url(#icon-92b05d990dd7a864__icon-1284ddc9f9aff06c__a)"><path d="M14.5 19a4.5 4.5 0 1 0 0-9 4.5 4.5 0 0 0 0 9Zm0-7a.5.5 0 0 1 .5.5V14h1.5a.5.5 0 0 1 0 1H15v1.5a.5.5 0 0 1-1 0V15h-1.5a.5.5 0 0 1 0-1H14v-1.5a.5.5 0 0 1 .5-.5ZM10.257 18a5.515 5.515 0 0 1-.658-1H6.5A3.5 3.5 0 0 1 3 13.5V9.965a2.5 2.5 0 0 1-1 0V13.5A4.5 4.5 0 0 0 6.5 18h3.758Z"/><path d="M18 10.257V4.5A2.5 2.5 0 0 0 15.5 2H9.95a2.5 2.5 0 0 1 0 1H13v3H9V4.536l-1 1V6h-.465l-.267.268A2.486 2.486 0 0 1 5.546 7H8v4H5V7.523a2.5 2.5 0 0 1-1 1.993V13.5A2.5 2.5 0 0 0 6.5 16h2.707a5.48 5.48 0 0 1-.185-1H9v-3h.6c.182-.358.403-.693.657-1H9V7h4v2.207a5.48 5.48 0 0 1 1-.185V7h3v2.6c.357.183.692.404 1 .657ZM17 6h-3V3h1.5l.143.007A1.5 1.5 0 0 1 17 4.5V6ZM6.5 15l-.144-.007A1.5 1.5 0 0 1 5 13.5V12h3v3H6.5ZM5.5 0a.5.5 0 0 1 .354.146l2 2a.5.5 0 0 1 0 .708l-2 2a.5.5 0 1 1-.708-.708l1.14-1.14A3.5 3.5 0 0 0 3 6.5v1.016a.5.5 0 1 1-1 0V6.5A4.5 4.5 0 0 1 6.3 2L5.146.854A.5.5 0 0 1 5.5 0Z"/></g><defs><clipPath id="icon-92b05d990dd7a864__icon-1284ddc9f9aff06c__a"><path d="M0 0h20v20H0z"/></clipPath></defs></svg>