<svg xmlns="http://www.w3.org/2000/svg" width="20" height="20" fill="currentColor"><g clip-path="url(#icon-d615df5c8ee539a6__icon-da0965d526f1d621__a)"><path d="M17 18.242a4.5 4.5 0 1 1-5-7.483 4.5 4.5 0 0 1 5 7.483Zm-2.147-6.096A.5.5 0 0 0 14 12.5V14h-1.5a.5.5 0 0 0 0 1H14v1.5a.5.5 0 0 0 1 0V15h1.5a.5.5 0 0 0 0-1H15v-1.5a.5.5 0 0 0-.146-.354ZM10.257 18a5.512 5.512 0 0 1-.658-1H6.5A3.5 3.5 0 0 1 3 13.5V9.965a2.5 2.5 0 0 1-1 0V13.5A4.5 4.5 0 0 0 6.5 18h3.758ZM13 9.207A5.504 5.504 0 0 0 10.256 11H9V7h4v2.207Z"/><path d="M18 10.257a5.477 5.477 0 0 0-4-1.235V7h4v3.257ZM9.268 4.268 9 4.536V6h4V2H9.95a2.5 2.5 0 0 1-.682 2.268ZM4.267 9.284A2.502 2.502 0 0 1 4 9.516V11h4V7H5v.516a2.5 2.5 0 0 1-.733 1.768ZM4 12h4v4H6.5A2.5 2.5 0 0 1 4 13.5V12ZM18 6h-4V2h1.5A2.5 2.5 0 0 1 18 4.5V6ZM5.854.146a.5.5 0 0 0-.708.708L6.3 2A4.5 4.5 0 0 0 2 6.5v1.016a.5.5 0 0 0 1 0V6.5a3.5 3.5 0 0 1 3.286-3.494l-1.14 1.14a.5.5 0 0 0 .708.708l2-2a.5.5 0 0 0 0-.708l-2-2Z"/></g><defs><clipPath id="icon-d615df5c8ee539a6__icon-da0965d526f1d621__a"><path d="M0 0h20v20H0z"/></clipPath></defs></svg>