<svg xmlns="http://www.w3.org/2000/svg" width="20" height="20" fill="currentColor"><g clip-path="url(#icon-e4778c3708d1ef9a__a)"><path d="M13 7h4V5.5A2.5 2.5 0 0 0 14.5 3H13v4ZM7 11.184A3.006 3.006 0 0 0 5.8 12H3V8h4v3.184ZM12 11h-.465a1.5 1.5 0 0 0-1.37.888A2.99 2.99 0 0 0 8.035 11H8V8h4v3ZM13 8v3h.035c.888 0 1.687.386 2.236 1h.528A3.005 3.005 0 0 1 17 11.184V8h-4ZM5.2 16.982A2.5 2.5 0 0 1 3 14.5V13h2.206c-.11.313-.17.65-.17 1v2c0 .344.057.674.164.982ZM12 7V3H8v4h4ZM7 3v4H3V5.5A2.5 2.5 0 0 1 5.5 3H7ZM7.035 14a1 1 0 0 1 2 0 .5.5 0 0 0 1 0 2 2 0 0 0-4 0v2a2 2 0 0 0 4 0 .5.5 0 0 0-1 0 1 1 0 0 1-2 0v-2ZM17.035 14a1 1 0 0 1 2 0 .5.5 0 1 0 1 0 2 2 0 0 0-4 0v2a2 2 0 0 0 4 0 .5.5 0 0 0-1 0 1 1 0 0 1-2 0v-2ZM11.035 12.5a.5.5 0 0 1 .5-.5h1.5a2 2 0 0 1 2 2v2a2 2 0 0 1-2 2h-1.5a.5.5 0 0 1-.5-.5v-5Zm1 .5v4h1a1 1 0 0 0 1-1v-2a1 1 0 0 0-1-1h-1Z"/></g><defs><clipPath id="icon-e4778c3708d1ef9a__a"><path d="M0 0h20v20H0z"/></clipPath></defs></svg>