<svg xmlns="http://www.w3.org/2000/svg" width="16" height="16" fill="currentColor"><g clip-path="url(#icon-d09af4244d7d165f__icon-153a86bfbf558992__a)"><path d="M1 3.5A2.5 2.5 0 0 1 3.5 1H4v3H1v-.5ZM11 2.5c0-.507.252-.956.637-1.227A2.49 2.49 0 0 0 10.5 1H10v3h2.085a1.407 1.407 0 0 1-.02-.064A1.5 1.5 0 0 1 11 2.5ZM6 5.5c0-.175.03-.344.085-.5H5v4h2.378l1.004-1.005a1.501 1.501 0 0 1-1.318-1.06A1.5 1.5 0 0 1 6 5.5ZM7.085 4H5V1h4v2.085A1.5 1.5 0 0 0 7.085 4ZM1 5h3v4H1V5ZM4 12.45a2.89 2.89 0 0 0-.292.55H3.5A2.5 2.5 0 0 1 1 10.5V10h3v2.45ZM6.378 10 5 11.378V10h1.378ZM12.229 5.564a1.914 1.914 0 1 1 2.707 2.707l-7.17 7.17A1.907 1.907 0 0 1 6.46 16a1.914 1.914 0 0 1-1.403-3.267l7.17-7.17Zm-.48 1.893-5.983 5.984a.914.914 0 1 0 1.293 1.292l5.983-5.983-1.293-1.293Zm2 .586.48-.48a.914.914 0 0 0-1.293-1.292l-.48.48 1.293 1.292ZM15.5 13a.5.5 0 0 0 0-1H15v-.5a.5.5 0 0 0-1 0v.5h-.5a.5.5 0 0 0 0 1h.5v.5a.5.5 0 0 0 1 0V13h.5ZM9 4.5a.5.5 0 0 0-1 0V5h-.5a.5.5 0 0 0 0 1H8v.5a.5.5 0 0 0 1 0V6h.5a.5.5 0 0 0 0-1H9v-.5ZM13.5 1a.5.5 0 0 1 .5.5V2h.5a.5.5 0 0 1 0 1H14v.5a.5.5 0 0 1-1 0V3h-.5a.5.5 0 0 1 0-1h.5v-.5a.5.5 0 0 1 .5-.5Z"/></g><defs><clipPath id="icon-d09af4244d7d165f__icon-153a86bfbf558992__a"><path d="M0 0h16v16H0z"/></clipPath></defs></svg>