<svg xmlns="http://www.w3.org/2000/svg" width="20" height="20" fill="currentColor"><path d="M7 3H5.5A2.5 2.5 0 0 0 3 5.5v9A2.5 2.5 0 0 0 5.5 17H7V3ZM8 3h4v4H8V3ZM14.5 3A2.5 2.5 0 0 1 17 5.5V7h-4V3h1.5ZM8 12h1.6A5.523 5.523 0 0 1 12 9.6V8H8v4ZM17 9.6c-.75-.384-1.6-.6-2.5-.6-.52 0-1.023.072-1.5.207V8h4v1.6ZM8 17h1.6c-.384-.75-.6-1.6-.6-2.5 0-.52.072-1.023.207-1.5H8v4Z"/><path fill-rule="evenodd" d="M19 14.5a4.5 4.5 0 1 1-9 0 4.5 4.5 0 0 1 9 0Zm-4.5 1.88a.625.625 0 1 1 0 1.25.625.625 0 0 1 0-1.25Zm0-4.877c1.031 0 1.853.846 1.853 1.95 0 .586-.214.908-.727 1.319l-.277.214c-.246.194-.329.3-.346.448l-.011.156A.5.5 0 0 1 14 15.5c0-.57.21-.884.716-1.288l.278-.215c.288-.23.36-.342.36-.544 0-.558-.382-.95-.854-.95-.494 0-.859.366-.854.945a.5.5 0 1 1-1 .01c-.01-1.137.806-1.955 1.854-1.955Z" clip-rule="evenodd"/></svg>