<svg xmlns="http://www.w3.org/2000/svg" width="20" height="20" fill="currentColor"><path d="M7 3H5.5A2.5 2.5 0 0 0 3 5.5v9A2.5 2.5 0 0 0 5.5 17H7V3ZM8 3h4v4H8V3ZM14.5 3A2.5 2.5 0 0 1 17 5.5V7h-4V3h1.5ZM9.448 13.535A1.5 1.5 0 0 1 9.127 13H8v4h.684a1.502 1.502 0 0 1 1.488-.083c.03.016.058.028.08.038.053-.237.087-.477.1-.719.028-.342.084-1.256.14-2.224a1.5 1.5 0 0 1-1.044-.477ZM9.135 12H8V8h4v.494a3.007 3.007 0 0 0-1.343 2.518H10.6A1.5 1.5 0 0 0 9.135 12ZM17 13v.878l-.184.185a2.729 2.729 0 0 0-1.073-.928 1.899 1.899 0 0 0-.7-.135H17ZM15.008 12a1.494 1.494 0 0 0-.684-.796 1.5 1.5 0 0 0 .77-2.787A2.718 2.718 0 0 0 13.65 8H17v4h-1.992ZM13 8h.647-.002c-.173 0-.346.014-.516.04a3.006 3.006 0 0 0-.129.026V8Z"/><path d="M13.43 10.017c.174-.024.279-.02.356-.004a.856.856 0 0 1 .278.12.5.5 0 0 0 .514-.858 1.841 1.841 0 0 0-.596-.243 2.031 2.031 0 0 0-.696-.004h-.005c-.53.082-.936.356-1.207.742-.262.374-.386.83-.42 1.281a38.527 38.527 0 0 1-.046.966H10.6a.5.5 0 0 0 0 1h.952c-.073 1.29-.165 2.825-.2 3.276-.031.375-.059.706-.151.995-.087.272-.22.47-.446.601l-.013.008c-.258.161-.588.132-1.018-.083a.5.5 0 1 0-.447.894c.532.267 1.283.478 1.988.041.493-.29.75-.723.888-1.157.128-.4.164-.83.192-1.17l.004-.048v-.003c.035-.45.13-2.034.205-3.354H13.6a.5.5 0 1 0 0-1h-.991c.024-.452.04-.789.043-.904.027-.326.113-.587.24-.768a.765.765 0 0 1 .539-.328ZM18.854 14.854a.5.5 0 0 0-.708-.707l-1.537 1.537c-.207-.36-.382-.663-.453-.78a2.763 2.763 0 0 0-.258-.412 1.395 1.395 0 0 0-.52-.428.924.924 0 0 0-.832.08 1.69 1.69 0 0 0-.442.419.5.5 0 0 0 .792.611 1.265 1.265 0 0 1 .138-.152.71.71 0 0 1 .073.082c.06.078.117.175.169.276a73.096 73.096 0 0 1 .601 1.036l-1.73 1.73a.5.5 0 0 0 .707.708l1.54-1.54a51.337 51.337 0 0 0 .574.982l.027.046c.038.064.082.138.133.207.121.165.262.28.466.38a.496.496 0 0 0 .117.04c.3.062.58.036.822-.127.162-.11.287-.28.348-.363a.5.5 0 1 0-.767-.644l-.051.068-.015.02a1.638 1.638 0 0 1-.062.077h-.01a.159.159 0 0 1-.042-.042 1.516 1.516 0 0 1-.077-.123l-.023-.04a75.596 75.596 0 0 1-.708-1.214l1.728-1.727Z"/></svg>