<svg xmlns="http://www.w3.org/2000/svg" width="20" height="20" fill="currentColor"><path d="M3.2 3a2.5 2.5 0 0 0 0 5h.5a.5.5 0 1 0 0-1h-.5a1.5 1.5 0 0 1 0-3h.5a.5.5 0 1 0 0-1h-.5ZM6.7 3a.5.5 0 0 0 0 1h.5a1.5 1.5 0 1 1 0 3h-.5a.5.5 0 0 0 0 1h.5a2.5 2.5 0 1 0 0-5h-.5Z"/><path d="M2.7 5.5a.5.5 0 0 1 .5-.5h4a.5.5 0 1 1 0 1h-4a.5.5 0 0 1-.5-.5Z"/><path d="M2.7 14.5V8.965c.163.023.33.035.5.035h.5v3h3V9h.5c.17 0 .336-.012.5-.035V12h4V8H9.65c.292-.287.535-.625.713-1H11.7V4h-1.337a3.508 3.508 0 0 0-.714-1h4.55a2.5 2.5 0 0 1 2.5 2.5V9h-1V8h-3v2.404L11.619 13H7.7v3h3.086c.203.567.74 1 1.415 1H5.2a2.5 2.5 0 0 1-2.5-2.5Zm1 0a1.5 1.5 0 0 0 1.355 1.493L5.2 16h1.5v-3h-3v1.5Zm9-10.5v3h3V5.5a1.5 1.5 0 0 0-1.356-1.493L14.2 4h-1.5Z"/><path d="M13.952 16h-1.75a.5.5 0 0 1-.462-.692l2.083-5a.5.5 0 0 1 .462-.308h3.473a.5.5 0 0 1 .474.658L17.452 13h1.097a.75.75 0 0 1 .512 1.298l-4.873 4.548c-.364.34-.947-.004-.826-.487l.59-2.359Z"/></svg>