<svg xmlns="http://www.w3.org/2000/svg" width="32" height="32" fill="currentColor"><path d="M4 9a5 5 0 0 1 5-5h14a5 5 0 0 1 5 5v2.578c-.482-.149-.986-.27-1.506-.362A14.3 14.3 0 0 0 23.999 11H26V9a3 3 0 0 0-3-3h-2v5h2.999c-2.205 0-4.3.49-5.916 1.38a7.807 7.807 0 0 0-.953.62H13v6h2v2h-2v5h2v.136c0 .687.16 1.309.429 1.864H9a5 5 0 0 1-5-5V9Zm5-3a3 3 0 0 0-3 3v2h5V6H9Zm4 0v5h6V6h-6Zm-2 13v-6H6v6h5Zm-5 2v2a3 3 0 0 0 3 3h2v-5H6Z"/><path d="M26.144 13.185c.624.11 1.21.268 1.743.465 1.876.694 3.111 1.874 3.111 3.214 0 2.134-3.134 3.864-6.999 3.864-3.865 0-6.999-1.73-6.999-3.864S20.134 13 23.999 13c.748 0 1.47.065 2.145.185Z"/><path d="M23.999 22.273c2.146 0 4.166-.477 5.704-1.326.456-.252.9-.556 1.297-.91l-.002 6.1c0 2.133-3.134 3.863-6.999 3.863C20.134 30 17 28.27 17 26.136v-6.098c.396.354.84.658 1.295.909 1.538.85 3.558 1.326 5.704 1.326Z"/></svg>