<svg xmlns="http://www.w3.org/2000/svg" width="20" height="20" fill="currentColor"><path d="M17 5.5A2.5 2.5 0 0 0 14.5 3h-9A2.5 2.5 0 0 0 3 5.5v9A2.5 2.5 0 0 0 5.5 17h3.184a1.502 1.502 0 0 1 1.488-.083c.03.016.058.028.08.038.053-.237.087-.477.1-.719L10.37 16H8v-3h1.127a1.5 1.5 0 0 1 .008-1H8V8h4v.494a3.008 3.008 0 0 1 1-.428V8h3v4h-.992a1.5 1.5 0 0 1 .013 1H16v.277c.323.202.601.469.816.786l.184-.185V5.5ZM8 4h4v3H8V4Zm5 0h1.5l.145.007A1.5 1.5 0 0 1 16 5.5V7h-3V4ZM7 16H5.5l-.144-.007A1.5 1.5 0 0 1 4 14.5v-9l.007-.144A1.5 1.5 0 0 1 5.5 4H7v12Z"/><path d="M13.786 10.013a1.047 1.047 0 0 0-.355.004.765.765 0 0 0-.539.328c-.127.181-.213.442-.24.768-.003.115-.02.452-.043.904h.99a.5.5 0 1 1 0 1h-1.045c-.075 1.32-.17 2.903-.205 3.354v.003l-.004.048c-.028.34-.064.77-.192 1.17-.138.434-.395.867-.888 1.157-.705.437-1.456.226-1.989-.04a.5.5 0 1 1 .448-.895c.43.215.76.244 1.018.083l.013-.008c.226-.131.359-.329.446-.601.092-.29.12-.62.151-.995.035-.45.127-1.986.2-3.276H10.6a.5.5 0 1 1 0-1h1.008a38.552 38.552 0 0 0 .045-.966c.035-.45.159-.907.421-1.281.271-.386.676-.66 1.207-.742h.005c.247-.036.473-.04.696.004.225.045.415.134.597.243a.5.5 0 1 1-.515.857.856.856 0 0 0-.278-.12ZM18.854 14.146a.5.5 0 0 1 0 .708l-1.728 1.727a75.596 75.596 0 0 0 .708 1.214l.023.04c.038.064.06.098.077.122a.154.154 0 0 0 .042.042h.01a1.638 1.638 0 0 0 .062-.078l.015-.018.051-.068a.5.5 0 0 1 .791.611l-.024.033c-.061.084-.186.254-.348.363-.243.163-.521.189-.822.127a.501.501 0 0 1-.117-.04 1.183 1.183 0 0 1-.466-.38 2.442 2.442 0 0 1-.133-.207l-.027-.047a51.337 51.337 0 0 1-.575-.982l-1.54 1.54a.5.5 0 0 1-.707-.707l1.731-1.73a73.096 73.096 0 0 0-.601-1.037 1.828 1.828 0 0 0-.17-.275.71.71 0 0 0-.072-.082 1.263 1.263 0 0 0-.139.152.5.5 0 1 1-.79-.611c.096-.125.243-.298.44-.418a.924.924 0 0 1 .87-.065c.215.104.373.27.483.412.109.14.195.29.258.413.071.116.246.419.453.779l1.537-1.538a.5.5 0 0 1 .708 0Z"/></svg>