<svg xmlns="http://www.w3.org/2000/svg" width="20" height="20" fill="currentColor"><path d="M7 3H5.5A2.5 2.5 0 0 0 3 5.5v9A2.5 2.5 0 0 0 5.5 17H7V3ZM8 3h4v4H8V3ZM14.5 3A2.5 2.5 0 0 1 17 5.5V7h-4V3h1.5ZM11.407 16.473l.593-.631V13H8v4h3.086a1.5 1.5 0 0 1 .32-.526ZM13.731 13l.47.5L13 14.778V13h.731ZM12 12v-.842l-.594-.632A1.5 1.5 0 0 1 12 8.086V8H8v4h4Z"/><path d="M12.5 18h6a.5.5 0 0 0 0-1h-4.845l2.968-3.158a.5.5 0 0 0 0-.684L13.655 10H18.5a.5.5 0 0 0 0-1h-6a.5.5 0 0 0-.364.842l3.438 3.658-3.438 3.658A.5.5 0 0 0 12.5 18Z"/></svg>