<svg xmlns="http://www.w3.org/2000/svg" width="20" height="20" fill="currentColor"><path d="M13 7h4V5.5A2.5 2.5 0 0 0 14.5 3H13v4ZM14.769 10.11 16.878 8H13v1.758l.118-.002c.575 0 1.135.121 1.65.354ZM9.724 17 8 15.276V17h1.724ZM7 13.6a1.49 1.49 0 0 0 0 .108V17H5.5A2.5 2.5 0 0 1 3 14.5V13h4v.6ZM10.329 10.86A4.073 4.073 0 0 1 12 9.911V8H8v4h.515l1.004-.456c.165-.074.356-.254.617-.502l.01-.01.183-.172ZM7 8v4H3V8h4ZM12 7V3H8v4h4ZM7 3v4H3V5.5A2.5 2.5 0 0 1 5.5 3H7Z"/><path d="M18.854 8.146a.5.5 0 0 1 0 .707h.002l-3.218 3.22c.365.512.58 1.136.58 1.801 0 .814-.316 1.555-.832 2.104l-.16.168c-.311.328-.558.588-.705.91l-.714 1.643a.5.5 0 0 1-.812.154l-4.846-4.846a.501.501 0 0 1 .147-.809l1.64-.744c.32-.145.578-.39.904-.699l.009-.008.168-.159a3.063 3.063 0 0 1 2.103-.832c.677 0 1.305.225 1.816.603l3.21-3.213a.5.5 0 0 1 .708 0ZM11.7 12.317a6.293 6.293 0 0 0-.144.137l-.075.072 2.946 3.007.047-.049.044-.046.138-.145c.349-.372.56-.87.56-1.419 0-1.15-.956-2.119-2.096-2.119l-.001.001c-.55 0-1.048.213-1.42.561Zm-.993.85a2.731 2.731 0 0 1-.36.2v-.002l-.982.446 3.816 3.817.423-.973.003-.007c.053-.117.115-.229.183-.335l-3.083-3.146Z"/></svg>