<svg xmlns="http://www.w3.org/2000/svg" width="16" height="16" fill="currentColor"><g clip-path="url(#icon-6a92ea743f98f9a6__icon-3fa46cf825e2d618__a)"><path d="M11.637 1.273A2.49 2.49 0 0 0 10.5 1h-7A2.5 2.5 0 0 0 1 3.5v7A2.5 2.5 0 0 0 3.5 13h.208c.142-.354.356-.687.644-.974L5 11.378V10h1.378l1-1H5V5h1.085c.158-.447.523-.797.98-.936L7.084 4H5V2h4v1.085c.447.158.797.523.936.98l.064.02V2h.5c.195 0 .382.037.553.105.092-.341.303-.634.584-.832ZM4 10v2h-.5A1.5 1.5 0 0 1 2 10.5V10h2Zm0-5v4H2V5h2Zm0-3v2H2v-.5A1.5 1.5 0 0 1 3.5 2H4ZM14 1.5a.5.5 0 0 0-1 0V2h-.5a.5.5 0 0 0 0 1h.5v.5a.5.5 0 0 0 1 0V3h.5a.5.5 0 0 0 0-1H14v-.5Z"/><path d="M9 4.5a.5.5 0 0 0-1 0V5h-.5a.5.5 0 0 0 0 1H8v.5a.5.5 0 0 0 1 0V6h.5a.5.5 0 0 0 0-1H9v-.5ZM15.5 13a.5.5 0 0 0 0-1H15v-.5a.5.5 0 0 0-1 0v.5h-.5a.5.5 0 0 0 0 1h.5v.5a.5.5 0 0 0 1 0V13h.5ZM12.229 5.564a1.914 1.914 0 1 1 2.707 2.707l-7.17 7.17c-.369.368-.85.555-1.334.56a1.914 1.914 0 0 1-1.373-3.268l7.17-7.17Zm-.48 1.893-5.983 5.984a.914.914 0 1 0 1.293 1.292l5.983-5.983-1.293-1.293Zm2 .586.48-.48a.914.914 0 0 0-1.293-1.292l-.48.48 1.293 1.292Z"/></g><defs><clipPath id="icon-6a92ea743f98f9a6__icon-3fa46cf825e2d618__a"><path d="M0 0h16v16H0z"/></clipPath></defs></svg>