<svg xmlns="http://www.w3.org/2000/svg" width="20" height="20" fill="currentColor"><path d="M17 5.5A2.5 2.5 0 0 0 14.5 3h-9A2.5 2.5 0 0 0 3 5.5v9A2.5 2.5 0 0 0 5.5 17h4.224l-1-1H8v-.724l-.561-.561A1.5 1.5 0 0 1 7 13.708V16H5.5l-.144-.007A1.5 1.5 0 0 1 4 14.5V13h3v.6a1.497 1.497 0 0 1 .88-1.312L8.516 12H8V8h4v1.911a4.074 4.074 0 0 1 1-.153V8h3v.878l1-1V5.5ZM12 7H8V4h4v3Zm1-3h1.5l.145.007A1.5 1.5 0 0 1 16 5.5V7h-3V4ZM4 7V5.5l.007-.144A1.5 1.5 0 0 1 5.5 4H7v3H4Zm3 1v4H4V8h3Z"/><path d="M18.854 8.146a.5.5 0 0 1 0 .707h.002l-3.218 3.22c.365.512.58 1.136.58 1.801 0 .814-.316 1.555-.832 2.104l-.16.168c-.311.328-.558.588-.705.91l-.714 1.643a.5.5 0 0 1-.812.154l-4.846-4.846a.501.501 0 0 1 .147-.809l1.64-.744c.32-.145.578-.39.904-.699l.009-.008.168-.159a3.063 3.063 0 0 1 2.103-.832c.677 0 1.305.225 1.816.603l3.21-3.213a.5.5 0 0 1 .708 0ZM11.7 12.317a6.293 6.293 0 0 0-.144.137l-.075.072 2.946 3.007.047-.049.044-.046.138-.145c.349-.372.56-.87.56-1.419 0-1.15-.956-2.119-2.096-2.119l-.001.001c-.55 0-1.048.213-1.42.561Zm-.993.85a2.731 2.731 0 0 1-.36.2v-.002l-.982.446 3.816 3.817.423-.973.003-.007c.053-.117.115-.229.183-.335l-3.083-3.146Z"/></svg>