<svg xmlns="http://www.w3.org/2000/svg" width="20" height="20" fill="currentColor"><path d="M17 5.5A2.5 2.5 0 0 0 14.5 3h-9A2.5 2.5 0 0 0 3 5.5v9A2.5 2.5 0 0 0 5.5 17H9c0-.382.14-.729.386-1H8v-3h4v.383l.021-.021a4.392 4.392 0 0 1-.021-.425c0-.542.109-1.065.332-1.555.172-.377.395-.721.668-1.028V8h3v1c.342 0 .676.04 1 .123V5.5Zm-13 9V13h3v3H5.5l-.144-.007A1.5 1.5 0 0 1 4 14.5ZM12 8v4H8V8h4Zm0-1H8V4h4v3Zm1-3h1.5l.145.007A1.5 1.5 0 0 1 16 5.5V7h-3V4ZM4 7V5.5l.007-.144A1.5 1.5 0 0 1 5.5 4H7v3H4Zm3 1v4H4V8h3Z"/><path d="M10.5 19a.48.48 0 0 1-.352-.148A.48.48 0 0 1 10 18.5V17a.48.48 0 0 1 .148-.352l2.938-2.937a3.739 3.739 0 0 1-.086-.774c0-.406.08-.786.242-1.14.162-.354.38-.667.656-.938.277-.27.594-.479.954-.625.359-.146.742-.224 1.148-.234.417 0 .807.078 1.172.234.364.157.682.37.953.641.27.27.484.588.64.953.157.365.235.755.235 1.172 0 .401-.076.781-.227 1.14-.15.36-.361.68-.632.962a2.866 2.866 0 0 1-2.078.898c-.183 0-.362-.013-.54-.04a2.66 2.66 0 0 1-.523-.132v.195c0 .073.003.149.008.227 0 .094-.005.185-.016.273a.65.65 0 0 1-.07.235.492.492 0 0 1-.156.172.457.457 0 0 1-.266.07H14c0 .245-.005.432-.016.563-.01.13-.05.229-.117.296a.468.468 0 0 1-.305.118c-.135.01-.322.018-.562.023v.266c0 .088-.005.174-.016.257a.864.864 0 0 1-.062.235.368.368 0 0 1-.149.172.569.569 0 0 1-.273.07h-2Zm7-6.75a.723.723 0 0 0-.219-.531.723.723 0 0 0-.531-.219.723.723 0 0 0-.531.219.723.723 0 0 0-.219.531c0 .208.073.385.219.531a.723.723 0 0 0 .531.219.723.723 0 0 0 .531-.219.723.723 0 0 0 .219-.531Z"/></svg>