<svg xmlns="http://www.w3.org/2000/svg" width="20" height="20" fill="currentColor"><path d="M13 7h4V5.5A2.5 2.5 0 0 0 14.5 3H13v4ZM7 12V8H3v4h4ZM12 10.535A3.5 3.5 0 0 0 9.627 12H8V8h4v2.535ZM16.5 10.5c.17 0 .337.012.5.035V8h-4v2.5h3.5ZM9 14c0-.348.05-.683.145-1H8v4h2.696A3.498 3.498 0 0 1 9 14ZM7 13H3v1.5A2.5 2.5 0 0 0 5.5 17H7v-4ZM12 7V3H8v4h4ZM7 3v4H3V5.5A2.5 2.5 0 0 1 5.5 3H7ZM12.5 11.5a2.5 2.5 0 0 0 0 5h.5a.5.5 0 0 0 0-1h-.5a1.5 1.5 0 0 1 0-3h.5a.5.5 0 0 0 0-1h-.5ZM16 11.5a.5.5 0 0 0 0 1h.5a1.5 1.5 0 0 1 0 3H16a.5.5 0 0 0 0 1h.5a2.5 2.5 0 0 0 0-5H16Z"/><path d="M12 14a.5.5 0 0 1 .5-.5h4a.5.5 0 0 1 0 1h-4a.5.5 0 0 1-.5-.5Z"/></svg>