<svg xmlns="http://www.w3.org/2000/svg" width="20" height="20" fill="currentColor"><path d="M4 5.5A1.5 1.5 0 0 1 5.5 4H8v3h4V3H5.5A2.5 2.5 0 0 0 3 5.5v9A2.5 2.5 0 0 0 5.5 17H11v-3.5c0-.171.017-.338.05-.5H8v3H5.5A1.5 1.5 0 0 1 4 14.5v-9ZM17 8v3h-3.5c-.171 0-.338.017-.5.05V8h4Z"/><path d="M12 11.5V8H8v4h3.5c.142-.19.31-.358.5-.5ZM17 7h-4V3h1.5A2.5 2.5 0 0 1 17 5.5V7ZM13.5 13a.5.5 0 0 0-.5.5v4a.5.5 0 0 0 .5.5h1a.5.5 0 0 1 0 1h-1a1.5 1.5 0 0 1-1.5-1.5v-4a1.5 1.5 0 0 1 1.5-1.5h1a.5.5 0 0 1 0 1h-1ZM18.5 13a.5.5 0 0 1 .5.5v4a.5.5 0 0 1-.5.5h-1a.5.5 0 0 0 0 1h1a1.5 1.5 0 0 0 1.5-1.5v-4a1.5 1.5 0 0 0-1.5-1.5h-1a.5.5 0 0 0 0 1h1Z"/></svg>