<svg xmlns="http://www.w3.org/2000/svg" width="16" height="16" fill="currentColor"><path d="M4.5 2A2.5 2.5 0 0 0 2 4.5v7A2.5 2.5 0 0 0 4.5 14h2.1a5.465 5.465 0 0 1-.393-1H6v-2h.022a5.48 5.48 0 0 1 .185-1H6V6h4v.207a5.48 5.48 0 0 1 1-.185V6h2v.207c.349.099.683.23 1 .393V4.5A2.5 2.5 0 0 0 11.5 2h-7ZM10 5H6V3h4v2Zm3-.5V5h-2V3h.5A1.5 1.5 0 0 1 13 4.5ZM4.5 13A1.5 1.5 0 0 1 3 11.5v-7A1.5 1.5 0 0 1 4.5 3H5v10h-.5Z"/><path d="M16 11.5a4.5 4.5 0 1 1-9 0 4.5 4.5 0 0 1 9 0Zm-4.5 1.88a.625.625 0 1 0 0 1.25.625.625 0 0 0 0-1.25Zm0-4.877c-1.048 0-1.864.818-1.853 1.955a.5.5 0 1 0 1-.01c-.006-.579.36-.945.853-.945.472 0 .853.392.853.95 0 .202-.07.315-.36.544l-.277.215c-.506.404-.716.717-.716 1.288a.5.5 0 0 0 .992.09l.011-.156c.017-.148.1-.254.346-.448l.277-.215c.513-.41.727-.732.727-1.318 0-1.104-.822-1.95-1.853-1.95Z"/></svg>