<svg xmlns="http://www.w3.org/2000/svg" width="20" height="20" fill="currentColor"><path d="M13 7h4V5.5A2.5 2.5 0 0 0 14.5 3H13v4ZM7 12V8H3v4h4ZM12 8.47c-.288.19-.541.434-.747.724-.348.494-.556 1.112-.603 1.789v.037h-.051c-.644 0-1.195.409-1.407.98H8V8h4v.47ZM9.178 13c.19.56.7.972 1.313 1.016a378.65 378.65 0 0 1-.14 2.207 7.192 7.192 0 0 1-.083.75 3.217 3.217 0 0 1-.118-.056 1.539 1.539 0 0 0-.653-.148c-.292 0-.568.082-.804.231H8v-4h1.178ZM13 8v.065A3.301 3.301 0 0 1 13.642 8a2.674 2.674 0 0 1 1.46.417c.704.439.926 1.336.513 2.046-.296.473-.773.739-1.294.739h-.015c.317.173.564.456.691.798H17V8h-4ZM7 13H3v1.5A2.5 2.5 0 0 0 5.5 17H7v-4ZM12 7V3H8v4h4ZM7 3v4H3V5.5A2.5 2.5 0 0 1 5.5 3H7Z"/><path d="M13.78 10.01a1.05 1.05 0 0 0-.36 0v.01c-.25.04-.42.16-.54.33-.13.18-.21.44-.24.77 0 .068-.008.224-.018.44a97.65 97.65 0 0 0-.022.46h.99c.28 0 .5.22.5.5s-.22.5-.5.5h-1.05c-.07 1.32-.17 2.9-.2 3.35v.05l-.006.073c-.029.328-.063.725-.184 1.097-.14.44-.4.87-.89 1.16-.71.44-1.46.23-1.99-.04a.505.505 0 0 1-.22-.67c.12-.24.42-.34.67-.22.43.22.76.25 1.02.08h.01c.23-.13.36-.33.45-.6.09-.29.12-.62.15-1l.001-.02c.032-.484.13-1.989.199-3.26h-.95c-.28 0-.5-.22-.5-.5s.22-.5.5-.5h1.01l.027-.611c.008-.166.013-.278.013-.319v-.04c.03-.45.16-.91.42-1.28.27-.38.68-.66 1.21-.74.25-.04.48-.04.7 0 .23.04.42.13.6.24.24.15.31.45.17.69-.15.24-.45.31-.69.17-.12-.07-.2-.1-.28-.12ZM18.84 14.14c.2.2.2.51 0 .71l.01.01-1.73 1.73.275.473c.153.264.27.466.316.537l.09.15.03.05.02.04.038.06c.017.028.03.048.041.06l.03.03c0 .01.01.01.01.01l.02-.02c.01-.02.06-.06.06-.06v-.02c.01-.02.03-.05.05-.07.17-.22.48-.26.7-.09.22.17.26.48.09.7 0 .005-.005.01-.01.015-.005.005-.01.01-.01.015-.06.08-.19.25-.35.36-.24.17-.52.19-.82.13-.04-.01-.08-.02-.12-.04a1.197 1.197 0 0 1-.548-.505 1.849 1.849 0 0 0-.052-.085l-.03-.05-.032-.057a60.49 60.49 0 0 1-.369-.631l-.168-.292-1.54 1.54c-.2.2-.51.2-.71 0-.2-.2-.2-.51 0-.71l1.73-1.73c-.27-.48-.51-.89-.58-1-.01-.01-.02-.02-.02-.03-.05-.1-.11-.2-.17-.28-.017-.017-.03-.033-.043-.048-.01-.012-.018-.023-.027-.032l-.04.04c-.024.024-.048.054-.077.09l-.024.03c-.17.22-.48.26-.7.09a.496.496 0 0 1-.09-.7c.1-.13.24-.3.44-.42.22-.13.51-.2.83-.08a.227.227 0 0 1 .02.01 1.406 1.406 0 0 1 .5.42c.11.14.2.29.26.41l.114.198c.086.15.203.354.336.582l1.54-1.54c.2-.2.51-.2.71 0Z"/></svg>