<svg xmlns="http://www.w3.org/2000/svg" width="20" height="20" fill="currentColor"><path d="M18.5 1h-2.828a.5.5 0 1 0 0 1h1.621L12 7.293a.5.5 0 1 0 .707.707L18 2.707v1.621a.5.5 0 1 0 1 0V1.5a.5.5 0 0 0-.144-.351l-.002-.003-.002-.002A.498.498 0 0 0 18.503 1H18.5Z"/><path fill-rule="evenodd" d="M14.854 3.025A2.522 2.522 0 0 0 14.5 3h-9A2.5 2.5 0 0 0 3 5.5v9A2.5 2.5 0 0 0 5.5 17h9a2.5 2.5 0 0 0 2.5-2.5v-9c0-.12-.009-.238-.025-.354L16 6.121V12h-3V9c-.313.15-.668.185-1 .104V12H8V8h2.896A1.504 1.504 0 0 1 11 7H8V4h5.879l.975-.975ZM4 13v1.5a1.5 1.5 0 0 0 1.356 1.493L5.5 16H7v-3H4Zm4 3h4v-3H8v3Zm5 0h1.5a1.5 1.5 0 0 0 1.493-1.355L16 14.5V13h-3v3ZM4 5.5V7h3V4H5.5a1.5 1.5 0 0 0-1.493 1.356L4 5.5ZM7 12V8H4v4h3Z" clip-rule="evenodd"/></svg>