<svg xmlns="http://www.w3.org/2000/svg" width="16" height="16" fill="currentColor"><path fill="#117865" d="M11.5 16a4.5 4.5 0 1 0 0-9 4.5 4.5 0 0 0 0 9Zm2.354-5.646-3 3a.5.5 0 0 1-.708 0l-1-1a.5.5 0 0 1 .708-.708l.646.647 2.646-2.647a.5.5 0 0 1 .708.708Z"/><path fill="#424242" d="M2 4.5A2.5 2.5 0 0 1 4.5 2h7A2.5 2.5 0 0 1 14 4.5v2.1a5.465 5.465 0 0 0-1-.393V6h-2v.022a5.48 5.48 0 0 0-1 .185V6H6v4h.207a5.48 5.48 0 0 0-.185 1H6v2h.207c.099.349.23.683.393 1H4.5A2.5 2.5 0 0 1 2 11.5v-7ZM6 5h4V3H6v2Zm7 0v-.5A1.5 1.5 0 0 0 11.5 3H11v2h2ZM3 11.5A1.5 1.5 0 0 0 4.5 13H5V3h-.5A1.5 1.5 0 0 0 3 4.5v7Z"/></svg>