<svg xmlns="http://www.w3.org/2000/svg" width="16" height="16" fill="currentColor"><g clip-path="url(#icon-bf13ccc595d504be__icon-8008d89b58f3c383__a)"><path d="M3 4.5A1.5 1.5 0 0 1 4.5 3H6v2h4V2H4.5A2.5 2.5 0 0 0 2 4.5v7A2.5 2.5 0 0 0 4.5 14h1.178a1.5 1.5 0 0 1 1.483-.08l.085.039c.046-.157.068-.363.1-.746.025-.325.08-1.23.137-2.2A1.488 1.488 0 0 1 7.361 11H6v2H4.5A1.5 1.5 0 0 1 3 11.5v-7ZM14 10h-1.99a1.5 1.5 0 0 0-.696-1.796A1.5 1.5 0 0 0 12.638 6H14v4Z"/><path d="M8.396 6H6v4h.17a1.5 1.5 0 0 1 1.42-1.983h.054a1.5 1.5 0 0 1 .003-.043c.043-.569.203-1.215.6-1.779.047-.067.097-.132.15-.195ZM14 4.5V5h-3V2h.5A2.5 2.5 0 0 1 14 4.5ZM10.42 7.017c.174-.024.279-.02.357-.004a.857.857 0 0 1 .277.12.5.5 0 1 0 .515-.858 1.843 1.843 0 0 0-.596-.243 2.031 2.031 0 0 0-.696-.004h-.006a1.764 1.764 0 0 0-1.207.742c-.262.374-.386.83-.42 1.281a38.235 38.235 0 0 1-.046.966H7.59a.5.5 0 0 0 0 1h.952c-.073 1.29-.165 2.825-.2 3.276-.031.375-.059.706-.15.995-.088.272-.22.47-.447.601l-.013.008c-.257.161-.588.132-1.018-.083a.5.5 0 1 0-.447.894c.532.267 1.284.478 1.988.041.493-.29.75-.723.889-1.157.127-.4.163-.83.191-1.17l.004-.048v-.003c.035-.45.13-2.034.205-3.354h1.046a.5.5 0 1 0 0-1H9.6c.023-.452.04-.789.042-.904.027-.326.113-.587.24-.768a.765.765 0 0 1 .539-.328ZM15.844 11.854a.5.5 0 1 0-.707-.707L13.6 12.683a58.43 58.43 0 0 0-.454-.78 2.771 2.771 0 0 0-.258-.412 1.396 1.396 0 0 0-.52-.428.924.924 0 0 0-.832.08c-.197.12-.345.294-.441.419a.5.5 0 0 0 .79.611 1.265 1.265 0 0 1 .14-.152.72.72 0 0 1 .072.082c.06.078.117.175.17.276a73.096 73.096 0 0 1 .601 1.036l-1.731 1.73a.5.5 0 1 0 .707.708l1.54-1.54c.221.384.407.705.47.807.04.065.073.12.104.175l.027.046c.039.064.083.138.134.207.12.165.261.28.465.38a.498.498 0 0 0 .117.04c.3.062.58.036.822-.127a1.521 1.521 0 0 0 .373-.396.5.5 0 0 0-.792-.611l-.051.068-.015.02a1.653 1.653 0 0 1-.062.077h-.01a.16.16 0 0 1-.042-.042 1.508 1.508 0 0 1-.077-.123l-.023-.04a73.334 73.334 0 0 1-.708-1.214l1.728-1.727Z"/></g><defs><clipPath id="icon-bf13ccc595d504be__icon-8008d89b58f3c383__a"><path d="M0 0h16v16H0z"/></clipPath></defs></svg>