<svg xmlns="http://www.w3.org/2000/svg" width="32" height="32" fill="currentColor"><path d="M7.36 5.324c.132-.051.574-.138 1.168-.213A13.23 13.23 0 0 1 9.859 5c.544 0 1.053.082 1.505.238.495.171.912.523 1.301 1.053.397.54.72 1.2 1.055 1.922l1.183 2.55-7.81 16.816a1 1 0 0 0 1.814.843l7.098-15.283 7.088 15.282a1 1 0 1 0 1.814-.842L15.535 7.372c-.332-.714-.729-1.545-1.259-2.266-.538-.732-1.257-1.412-2.258-1.758A6.613 6.613 0 0 0 9.859 3c-.363 0-.994.053-1.581.127-.553.07-1.24.177-1.637.33a1 1 0 0 0 .719 1.867Z"/></svg>