<svg xmlns="http://www.w3.org/2000/svg" width="20" height="20" fill="currentColor"><path d="M6.083 7.107a.75.75 0 0 1 1.029.257l.857 1.428.857-1.428a.75.75 0 0 1 1.286.772l-1.393 2.322v2.292a.75.75 0 0 1-1.5 0v-2.292L5.826 8.136a.75.75 0 0 1 .257-1.029ZM11.313 7a.75.75 0 0 0 0 1.5h.392v4.25a.75.75 0 1 0 1.5 0V8.5h.357a.75.75 0 0 0 0-1.5h-2.25ZM14.938 7.75a.75.75 0 0 1 .75-.75h2a.75.75 0 0 1 0 1.5h-1.25v1h.75a.75.75 0 0 1 0 1.5h-.75v1h1.25a.75.75 0 0 1 0 1.5h-2a.75.75 0 0 1-.75-.75v-5Z"/><path fill-rule="evenodd" d="M1 12.75v-5A.75.75 0 0 1 1.75 7H3.258c.168 0 .662 0 1.125.26.25.141.49.356.66.668.17.309.25.672.25 1.08 0 .406-.09.747-.241 1.025.104.099.2.214.283.35.191.315.283.688.283 1.109 0 .843-.403 1.4-.923 1.703A2.446 2.446 0 0 1 3.5 13.5H1.87v-.01A.75.75 0 0 1 1 12.75ZM2.5 12h1c.12 0 .309-.025.441-.102a.305.305 0 0 0 .116-.11.576.576 0 0 0 .06-.296c0-.201-.042-.293-.063-.328a.225.225 0 0 0-.1-.087C3.816 11.01 3.626 11 3.435 11H2.5v1Zm.113-2.5h.668a.762.762 0 0 0 .358-.086.253.253 0 0 0 .095-.097.629.629 0 0 0 .06-.308c0-.212-.042-.316-.066-.36a.191.191 0 0 0-.08-.081c-.097-.055-.241-.068-.398-.068H2.5v1h.113Z"/></svg>