<svg xmlns="http://www.w3.org/2000/svg" width="20" height="20" fill="currentColor"><path d="M5.75 16h3.457c.099.349.23.683.393 1H5.75A2.75 2.75 0 0 1 3 14.25v-8.5A2.75 2.75 0 0 1 5.75 3h8.5A2.75 2.75 0 0 1 17 5.75V9.6a5.465 5.465 0 0 0-1-.393V5.75A1.75 1.75 0 0 0 14.25 4h-8.5A1.75 1.75 0 0 0 4 5.75v8.5c0 .966.784 1.75 1.75 1.75Z"/><path d="M7.5 7.25a.75.75 0 1 1-1.5 0 .75.75 0 0 1 1.5 0ZM6.75 11a.75.75 0 1 0 0-1.5.75.75 0 0 0 0 1.5ZM6.75 14a.75.75 0 1 0 0-1.5.75.75 0 0 0 0 1.5ZM9.5 7a.5.5 0 0 0 0 1h4a.5.5 0 0 0 0-1h-4ZM9.5 10a.5.5 0 0 0 0 1h.757c.313-.38.677-.716 1.08-1H9.5ZM9.174 13.12a.499.499 0 0 0-.12.606c.029-.206.07-.408.12-.606ZM19 14.5a4.5 4.5 0 1 1-9 0 4.5 4.5 0 0 1 9 0Zm-5.556-2a.5.5 0 0 0-.475.303l-.584 1.364H12a.5.5 0 1 0 0 1h.714a.5.5 0 0 0 .46-.303l.212-.496.643 1.8a.5.5 0 0 0 .935.018l.672-1.673.209.39a.5.5 0 0 0 .44.264H17a.5.5 0 0 0 0-1h-.415l-.573-1.07a.5.5 0 0 0-.905.05l-.58 1.443-.628-1.758a.5.5 0 0 0-.455-.332Z"/></svg>