<svg xmlns="http://www.w3.org/2000/svg" width="20" height="20" fill="currentColor"><path d="M6.236 6.06a.5.5 0 0 1 .264.44v6a.5.5 0 0 1-1 0V7.434l-.723.482a.5.5 0 0 1-.554-.832l1.5-1a.5.5 0 0 1 .513-.025ZM7.5 13a.625.625 0 1 0 0-1.25.625.625 0 0 0 0 1.25ZM11.263 7.058a1.107 1.107 0 0 0-.43-.055.501.501 0 0 1-.065 0 1.215 1.215 0 0 0-1.184.708.5.5 0 1 1-.91-.415 2.215 2.215 0 0 1 2.125-1.293 2.107 2.107 0 0 1 2.183 1.734.5.5 0 0 1 .03.17v.075c.004.25.01.692-.216 1.156-.256.528-.77 1.02-1.7 1.442-.992.448-1.358.94-1.498 1.255l-.03.071h2.944a.5.5 0 1 1 0 1h-3.5a.5.5 0 0 1-.49-.395v-.007l-.003-.01a.92.92 0 0 1-.013-.1 1.615 1.615 0 0 1-.004-.234c.01-.191.055-.446.182-.732.26-.583.833-1.232 2-1.76.792-.357 1.089-.712 1.213-.967.112-.23.116-.435.115-.674a1.108 1.108 0 0 0-.75-.969Z"/></svg>