<svg xmlns="http://www.w3.org/2000/svg" width="20" height="20" fill="currentColor"><path d="M11.332 8.864a.87.87 0 0 1 1.258-.773.89.89 0 0 1 .33.278.837.837 0 0 1-.07.923 2.13 2.13 0 0 1-.544.578 8.85 8.85 0 0 1-.382.282l-.057.04-.064.045c-.098.07-.2.141-.298.216a2.47 2.47 0 0 0-1.173 2.047.5.5 0 0 0 .5.5h2.693a.5.5 0 0 0 0-1h-2.1c.157-.304.39-.562.678-.748.1-.077.207-.152.32-.231l.015-.011.06-.041c.037-.028.076-.055.115-.083.102-.073.206-.149.31-.231a3.1 3.1 0 0 0 .784-.856 1.829 1.829 0 0 0 .047-1.975 1.874 1.874 0 0 0-3.426 1.04.5.5 0 0 0 1 0h.004ZM7.337 9.255c-.18.178-.376.338-.587.479l.004-.002A.5.5 0 0 1 6.2 8.9a2.8 2.8 0 0 0 1.15-1.507.5.5 0 0 1 .988.107v5a.5.5 0 1 1-1 0V9.255Z"/><path d="M2 7a3 3 0 0 1 3-3h10a3 3 0 0 1 3 3v6a3 3 0 0 1-3 3H5a3 3 0 0 1-3-3V7Zm3-2a2 2 0 0 0-2 2v6a2 2 0 0 0 2 2h10a2 2 0 0 0 2-2V7a2 2 0 0 0-2-2H5Z"/></svg>