<svg xmlns="http://www.w3.org/2000/svg" width="20" height="20" fill="currentColor"><path d="M11.301 2.002a.75.75 0 0 1 .694.748v5a.75.75 0 0 1-1.5 0V5.052c-.065.049-.131.096-.198.14a.75.75 0 0 1-.832-1.248c.56-.373.961-.962 1.047-1.354a.748.748 0 0 1 .79-.588ZM6.696 2a.75.75 0 0 1 .697.5l1.774 5A.75.75 0 0 1 7.753 8l-.089-.25h-2.11l-.104.27a.75.75 0 0 1-1.4-.542l1.936-5A.75.75 0 0 1 6.696 2Zm-.04 2.907-.52 1.343h.996l-.477-1.343ZM13 6.75a.5.5 0 0 1 .5-.5h1a.5.5 0 0 1 .5.5c0 1.73-.717 2.925-1.146 3.354a.5.5 0 0 1-.708-.707c.15-.15.451-.58.653-1.246A.5.5 0 0 1 13 7.75v-1ZM7.393 11.5a.75.75 0 0 0-1.407-.02l-1.935 5a.75.75 0 0 0 1.399.541l.104-.27h2.11l.09.25a.75.75 0 0 0 1.413-.502l-1.774-5Zm-1.258 3.75.52-1.343.477 1.343h-.997ZM11.835 12.5c-.309 0-.585.29-.585.614a.75.75 0 0 1-1.5 0c0-1.04.84-2.114 2.085-2.114.71 0 1.406.332 1.8.938.416.64.416 1.46-.04 2.238-.235.399-.553.694-.846.926-.148.116-.299.224-.436.32l-.06.043c-.118.084-.225.159-.328.237a3.18 3.18 0 0 0-.352.298h1.62a.75.75 0 0 1 0 1.5h-2.642a.73.73 0 0 1-.051 0 .75.75 0 0 1-.75-.75c0-1.158.688-1.806 1.273-2.247.123-.093.25-.183.368-.265l.056-.04c.136-.096.259-.184.372-.274.228-.18.383-.339.482-.508.211-.36.14-.562.076-.66-.086-.133-.28-.256-.542-.256Z"/></svg>