<svg xmlns="http://www.w3.org/2000/svg" width="16" height="16" fill="currentColor"><path d="m10.878.282.348 1.071a2.205 2.205 0 0 0 1.398 1.397l1.072.348.021.006a.423.423 0 0 1 0 .798l-1.071.348a2.208 2.208 0 0 0-1.399 1.397l-.348 1.07a.423.423 0 0 1-.798 0l-.348-1.07a2.204 2.204 0 0 0-1.399-1.403l-1.072-.348a.423.423 0 0 1 0-.798l1.072-.348a2.208 2.208 0 0 0 1.377-1.397l.348-1.07a.423.423 0 0 1 .799 0ZM15.783 8.213l-.765-.248a1.577 1.577 0 0 1-1-.999l-.248-.764a.302.302 0 0 0-.57 0l-.25.764a1.576 1.576 0 0 1-.983.999l-.765.248a.303.303 0 0 0 0 .57l.765.249a1.578 1.578 0 0 1 1 1.002l.248.764a.302.302 0 0 0 .57 0l.249-.764a1.576 1.576 0 0 1 .999-.999l.765-.248a.303.303 0 0 0 0-.57l-.015-.004Z"/><path d="M8.49 1.47A1.2 1.2 0 0 0 8.78 1H5a3 3 0 0 0 0 6h4.15l-.33-1.04v-.09a1.12 1.12 0 0 0-.26-.38l-.06-.06a1 1 0 0 0-.4-.23L7 4.84A1.42 1.42 0 0 1 6 3.5c.01-.3.11-.59.29-.83A1.4 1.4 0 0 1 7 2.15l1.03-.38a1.41 1.41 0 0 0 .46-.3ZM6 4a1 1 0 1 1-2 0 1 1 0 0 1 2 0ZM10 8.5a1.3 1.3 0 0 1 .014-.5H5a3 3 0 0 0 0 6h6a3.001 3.001 0 0 0 2.845-2.047 1.292 1.292 0 0 1-1.095-.193 1.35 1.35 0 0 1-.49-.65l-.24-.76a.59.59 0 0 0-.14-.23.741.741 0 0 0-.22-.14l-.79-.25a1.31 1.31 0 0 1-.63-.48A1.26 1.26 0 0 1 10 8.5Zm1 3.5a1 1 0 1 1 0-2 1 1 0 0 1 0 2Z"/></svg>