<svg xmlns="http://www.w3.org/2000/svg" width="20" height="20" fill="currentColor"><path d="m13.878.282.348 1.071a2.205 2.205 0 0 0 1.398 1.397l1.072.348.021.006a.423.423 0 0 1 0 .798l-1.071.348a2.208 2.208 0 0 0-1.399 1.397l-.348 1.07a.423.423 0 0 1-.798 0l-.349-1.07a2.23 2.23 0 0 0-.532-.867 2.224 2.224 0 0 0-.866-.536l-1.071-.348a.423.423 0 0 1 0-.798l1.071-.348a2.208 2.208 0 0 0 1.377-1.397l.348-1.07a.423.423 0 0 1 .799 0ZM18.783 8.213l-.766-.248a1.577 1.577 0 0 1-.998-.999l-.25-.764a.302.302 0 0 0-.57 0l-.248.764a1.576 1.576 0 0 1-.984.999l-.765.248a.303.303 0 0 0 0 .57l.765.249a1.578 1.578 0 0 1 1 1.002l.248.764a.302.302 0 0 0 .57 0l.249-.764a1.576 1.576 0 0 1 .999-.999l.765-.248a.303.303 0 0 0 0-.57l-.015-.004Z"/><path d="M10.407 2H6.5a3.5 3.5 0 1 0 0 7h6.599A1.26 1.26 0 0 1 13 8.5a1.302 1.302 0 0 1 .014-.5H6.5a2.5 2.5 0 0 1 0-5h2.605a1.46 1.46 0 0 1 .185-.33 1.4 1.4 0 0 1 .71-.52l.407-.15Z"/><path d="M8 5.5a1.5 1.5 0 1 1-3 0 1.5 1.5 0 0 1 3 0ZM15 14.5a1.5 1.5 0 1 1-3 0 1.5 1.5 0 0 1 3 0Z"/><path d="M3 14.5A3.5 3.5 0 0 0 6.5 18h7a3.5 3.5 0 1 0 0-7h-7A3.5 3.5 0 0 0 3 14.5ZM6.5 12h7a2.5 2.5 0 0 1 0 5h-7a2.5 2.5 0 0 1 0-5Z"/></svg>