<svg xmlns="http://www.w3.org/2000/svg" width="16" height="16" fill="currentColor"><path d="m10.878.282.348 1.071a2.205 2.205 0 0 0 1.398 1.397l1.072.348.021.006a.423.423 0 0 1 0 .798l-1.071.348a2.208 2.208 0 0 0-1.399 1.397l-.348 1.07a.423.423 0 0 1-.798 0l-.348-1.07a2.204 2.204 0 0 0-1.399-1.403l-1.072-.348a.423.423 0 0 1 0-.798l1.072-.348a2.208 2.208 0 0 0 1.377-1.397l.348-1.07a.423.423 0 0 1 .799 0ZM15.783 8.213l-.765-.248a1.577 1.577 0 0 1-1-.999l-.248-.764a.302.302 0 0 0-.57 0l-.25.764a1.576 1.576 0 0 1-.983.999l-.765.248a.303.303 0 0 0 0 .57l.765.249a1.578 1.578 0 0 1 1 1.002l.248.764a.302.302 0 0 0 .57 0l.249-.764a1.576 1.576 0 0 1 .999-.999l.765-.248a.303.303 0 0 0 0-.57l-.015-.004Z"/><path d="M5 1h3.78a1.2 1.2 0 0 1-.29.47 1.41 1.41 0 0 1-.46.3L7.407 2H5a2 2 0 1 0 0 4h3.833l.317 1H5a3 3 0 0 1 0-6ZM5 8h5.014a1.3 1.3 0 0 0-.014.5 1.26 1.26 0 0 0 .099.5H5a2 2 0 1 0 0 4h6a2 2 0 0 0 1.828-1.188 1.29 1.29 0 0 0 1.017.141A3.001 3.001 0 0 1 11 14H5a3 3 0 1 1 0-6Z"/><path d="M5 5a1 1 0 1 0 0-2 1 1 0 0 0 0 2ZM11 12a1 1 0 1 0 0-2 1 1 0 0 0 0 2Z"/></svg>