<svg xmlns="http://www.w3.org/2000/svg" width="40" height="40" fill="currentColor"><path fill="url(#icon-f4af98f8b115e449__icon-a8d85df500ec33ba__a)" d="M4 8a4 4 0 0 1 4-4h24a4 4 0 0 1 4 4v24a4 4 0 0 1-4 4H8a4 4 0 0 1-4-4V8Z"/><path fill="url(#icon-d04bf4b41d9ce6da__icon-22cde3be41dde19d__b)" fill-opacity=".2" d="M4 8a4 4 0 0 1 4-4h24a4 4 0 0 1 4 4v24a4 4 0 0 1-4 4H8a4 4 0 0 1-4-4V8Z"/><path fill="url(#icon-0be75dbc5630515d__icon-412879572a6de629__c)" fill-rule="evenodd" d="M32 5H8a3 3 0 0 0-3 3v24a3 3 0 0 0 3 3h24a3 3 0 0 0 3-3V8a3 3 0 0 0-3-3ZM8 4a4 4 0 0 0-4 4v24a4 4 0 0 0 4 4h24a4 4 0 0 0 4-4V8a4 4 0 0 0-4-4H8Z" clip-rule="evenodd"/><path fill="url(#icon-42d15e1f70e6cd96__icon-f03254f6b6fb3661__d)" d="M11 13.25a2.75 2.75 0 0 1 2.75-2.75.75.75 0 0 1 0 1.5c-.69 0-1.25.56-1.25 1.25v5.163c0 .6-.21 1.17-.577 1.618.367.45.577 1.018.577 1.618v5.101c0 .69.56 1.25 1.25 1.25a.75.75 0 0 1 0 1.5A2.75 2.75 0 0 1 11 26.75v-5.1c0-.402-.227-.768-.585-.948a.747.747 0 0 1-.378-.903.748.748 0 0 1 .378-.439c.358-.18.585-.546.585-.947V13.25Z"/><path fill="url(#icon-c7167569d76366a4__icon-a30f4aaae008b34f__e)" d="M24.092 15.96a.75.75 0 1 0-1.184-.92L20 18.777l-2.908-3.738a.75.75 0 0 0-1.184.92L19.05 20l-3.142 4.04a.75.75 0 0 0 1.184.92L20 21.221l2.908 3.74a.75.75 0 1 0 1.184-.921L20.95 20l3.142-4.04Z"/><path fill="url(#icon-67c264ee31060ae4__icon-9354ad41211fb787__f)" d="M29 13.25a2.75 2.75 0 0 0-2.75-2.75.75.75 0 1 0 0 1.5c.69 0 1.25.56 1.25 1.25v5.163c0 .6.21 1.17.576 1.618a2.558 2.558 0 0 0-.576 1.618v5.101c0 .69-.56 1.25-1.25 1.25a.75.75 0 1 0 0 1.5A2.75 2.75 0 0 0 29 26.75v-5.1c0-.402.226-.768.585-.948a.748.748 0 0 0 .378-.903.747.747 0 0 0-.378-.439 1.059 1.059 0 0 1-.585-.947V13.25Z"/><defs><linearGradient id="icon-f4af98f8b115e449__icon-a8d85df500ec33ba__a" x1="12.889" x2="16.937" y1="4" y2="36.383" gradientUnits="userSpaceOnUse"><stop stop-color="#fff"/><stop offset="1" stop-color="#EBEBEB"/></linearGradient><linearGradient id="icon-0be75dbc5630515d__icon-412879572a6de629__c" x1="14.333" x2="18.642" y1="4" y2="36.314" gradientUnits="userSpaceOnUse"><stop stop-color="#BBB"/><stop offset="1" stop-color="#888"/></linearGradient><linearGradient id="icon-42d15e1f70e6cd96__icon-f03254f6b6fb3661__d" x1="10" x2="28.975" y1="10.5" y2="30.474" gradientUnits="userSpaceOnUse"><stop stop-color="#008EE6"/><stop offset="1" stop-color="#006094"/></linearGradient><linearGradient id="icon-c7167569d76366a4__icon-a30f4aaae008b34f__e" x1="10" x2="28.975" y1="10.5" y2="30.474" gradientUnits="userSpaceOnUse"><stop stop-color="#008EE6"/><stop offset="1" stop-color="#006094"/></linearGradient><linearGradient id="icon-67c264ee31060ae4__icon-9354ad41211fb787__f" x1="10" x2="28.975" y1="10.5" y2="30.474" gradientUnits="userSpaceOnUse"><stop stop-color="#008EE6"/><stop offset="1" stop-color="#006094"/></linearGradient><radialGradient id="icon-d04bf4b41d9ce6da__icon-22cde3be41dde19d__b" cx="0" cy="0" r="1" gradientTransform="rotate(56.31 -4.411 19.454) scale(30.4469 26.3483)" gradientUnits="userSpaceOnUse"><stop offset=".177" stop-color="#fff"/><stop offset="1" stop-color="#B8B8B8"/></radialGradient></defs></svg>