<svg xmlns="http://www.w3.org/2000/svg" width="24" height="24" fill="currentColor"><path fill="url(#icon-a5be60de4c89846b__icon-d4e4f5633819dd7a__a)" d="M2 5a3 3 0 0 1 3-3h14a3 3 0 0 1 3 3v14a3 3 0 0 1-3 3H5a3 3 0 0 1-3-3V5Z"/><path fill="url(#icon-e11c68b5aad4605a__icon-168a5825e236e1b6__b)" fill-opacity=".2" d="M2 5a3 3 0 0 1 3-3h14a3 3 0 0 1 3 3v14a3 3 0 0 1-3 3H5a3 3 0 0 1-3-3V5Z"/><path fill="url(#icon-cc882871fbca3c9b__icon-6172ce9c38fe8e47__c)" fill-rule="evenodd" d="M19 3H5a2 2 0 0 0-2 2v14a2 2 0 0 0 2 2h14a2 2 0 0 0 2-2V5a2 2 0 0 0-2-2ZM5 2a3 3 0 0 0-3 3v14a3 3 0 0 0 3 3h14a3 3 0 0 0 3-3V5a3 3 0 0 0-3-3H5Z" clip-rule="evenodd"/><path fill="url(#icon-13c531a3acc59e21__icon-07e7231cecf91082__d)" d="M8.25 6c-1.129 0-2.044.915-2.044 2.044v1.069l.003.198c.013.617.032 1.547-.817 2.03a.748.748 0 0 0 0 1.318c.85.482.83 1.412.817 2.03l-.003.198v1.069C6.206 17.085 7.12 18 8.25 18a.75.75 0 0 0 0-1.5.544.544 0 0 1-.544-.544v-1.069c0-.017.001-.046.004-.085.023-.386.107-1.77-.785-2.802.892-1.032.808-2.416.785-2.802a1.803 1.803 0 0 1-.004-.085V8.044c0-.3.243-.544.544-.544a.75.75 0 1 0 0-1.5Z"/><path fill="url(#icon-be5864e786470d61__icon-4eeacb2ee9ced626__e)" d="M10.983 9.31a.75.75 0 1 0-1.216.88L11.075 12l-1.308 1.81a.75.75 0 0 0 1.216.88L12 13.28l1.017 1.408a.75.75 0 1 0 1.216-.878L12.925 12l1.308-1.812a.75.75 0 0 0-1.216-.878L12 10.719l-1.017-1.408Z"/><path fill="url(#icon-e53b3f3439de422c__icon-eceb7c989402e7d2__f)" d="M17.794 8.044C17.794 6.915 16.88 6 15.75 6a.75.75 0 0 0 0 1.5c.3 0 .544.244.544.544v1.069c0 .017-.001.046-.004.085-.023.386-.107 1.77.785 2.802-.892 1.032-.808 2.416-.785 2.802l.005.085v1.069c0 .3-.244.544-.545.544a.75.75 0 0 0 0 1.5c1.13 0 2.044-.915 2.044-2.044v-1.069c0-.06 0-.128-.002-.198-.013-.617-.033-1.547.816-2.03a.749.749 0 0 0 0-1.318c-.85-.482-.83-1.413-.816-2.03l.002-.198V8.044Z"/><defs><linearGradient id="icon-a5be60de4c89846b__icon-d4e4f5633819dd7a__a" x1="7.556" x2="10.085" y1="2" y2="22.239" gradientUnits="userSpaceOnUse"><stop stop-color="#fff"/><stop offset="1" stop-color="#EBEBEB"/></linearGradient><linearGradient id="icon-cc882871fbca3c9b__icon-6172ce9c38fe8e47__c" x1="8.458" x2="11.151" y1="2" y2="22.197" gradientUnits="userSpaceOnUse"><stop stop-color="#BBB"/><stop offset="1" stop-color="#888"/></linearGradient><linearGradient id="icon-13c531a3acc59e21__icon-07e7231cecf91082__d" x1="5" x2="16.859" y1="6" y2="19.835" gradientUnits="userSpaceOnUse"><stop stop-color="#008EE6"/><stop offset="1" stop-color="#006094"/></linearGradient><linearGradient id="icon-be5864e786470d61__icon-4eeacb2ee9ced626__e" x1="5" x2="16.859" y1="6" y2="19.835" gradientUnits="userSpaceOnUse"><stop stop-color="#008EE6"/><stop offset="1" stop-color="#006094"/></linearGradient><linearGradient id="icon-e53b3f3439de422c__icon-eceb7c989402e7d2__f" x1="5" x2="16.859" y1="6" y2="19.835" gradientUnits="userSpaceOnUse"><stop stop-color="#008EE6"/><stop offset="1" stop-color="#006094"/></linearGradient><radialGradient id="icon-e11c68b5aad4605a__icon-168a5825e236e1b6__b" cx="0" cy="0" r="1" gradientTransform="rotate(56.31 -2.54 11.442) scale(19.0293 16.4677)" gradientUnits="userSpaceOnUse"><stop offset=".177" stop-color="#fff"/><stop offset="1" stop-color="#B8B8B8"/></radialGradient></defs></svg>