<svg xmlns="http://www.w3.org/2000/svg" width="32" height="32" fill="currentColor"><path fill="url(#icon-683a2399691bae8b__icon-9db582ae56bcfc57__a)" d="M3 6.5A3.5 3.5 0 0 1 6.5 3h19A3.5 3.5 0 0 1 29 6.5v19a3.5 3.5 0 0 1-3.5 3.5h-19A3.5 3.5 0 0 1 3 25.5v-19Z"/><path fill="url(#icon-7e7dbda56f2e3456__icon-ea7c293775f53c01__b)" fill-opacity=".2" d="M3 6.5A3.5 3.5 0 0 1 6.5 3h19A3.5 3.5 0 0 1 29 6.5v19a3.5 3.5 0 0 1-3.5 3.5h-19A3.5 3.5 0 0 1 3 25.5v-19Z"/><path fill="url(#icon-e793d7dfc4ca8963__icon-8fc3dd6b85e83841__c)" fill-rule="evenodd" d="M25.5 4h-19A2.5 2.5 0 0 0 4 6.5v19A2.5 2.5 0 0 0 6.5 28h19a2.5 2.5 0 0 0 2.5-2.5v-19A2.5 2.5 0 0 0 25.5 4Zm-19-1A3.5 3.5 0 0 0 3 6.5v19A3.5 3.5 0 0 0 6.5 29h19a3.5 3.5 0 0 0 3.5-3.5v-19A3.5 3.5 0 0 0 25.5 3h-19Z" clip-rule="evenodd"/><path fill="url(#icon-e768d487edeca386__icon-d1f4f669447e5f24__d)" d="M11.75 8.5A2.75 2.75 0 0 0 9 11.25v3.132c0 .397-.222.76-.574.942a.75.75 0 0 0 0 1.352c.352.182.574.545.574.942v3.132a2.75 2.75 0 0 0 2.75 2.75.75.75 0 0 0 0-1.5c-.69 0-1.25-.56-1.25-1.25v-3.132c0-.6-.21-1.17-.576-1.618a2.558 2.558 0 0 0 .576-1.618V11.25c0-.69.56-1.25 1.25-1.25a.75.75 0 0 0 0-1.5Zm8.5 0A2.75 2.75 0 0 1 23 11.25v3.132c0 .397.222.76.574.942a.75.75 0 0 1 0 1.352 1.059 1.059 0 0 0-.574.942v3.132a2.75 2.75 0 0 1-2.75 2.75.75.75 0 0 1 0-1.5c.69 0 1.25-.56 1.25-1.25v-3.132c0-.6.21-1.17.576-1.618a2.558 2.558 0 0 1-.576-1.618V11.25c0-.69-.56-1.25-1.25-1.25a.75.75 0 0 1 0-1.5Zm-6.14 3.564a.75.75 0 0 0-1.22.872L15.078 16l-2.188 3.064a.75.75 0 0 0 1.22.872L16 17.29l1.89 2.646a.75.75 0 0 0 1.22-.872L16.922 16l2.188-3.064a.75.75 0 0 0-1.22-.872L16 14.71l-1.89-2.646Z"/><defs><linearGradient id="icon-683a2399691bae8b__icon-9db582ae56bcfc57__a" x1="10.222" x2="13.511" y1="3" y2="29.311" gradientUnits="userSpaceOnUse"><stop stop-color="#fff"/><stop offset="1" stop-color="#EBEBEB"/></linearGradient><linearGradient id="icon-e793d7dfc4ca8963__icon-8fc3dd6b85e83841__c" x1="11.396" x2="14.897" y1="3" y2="29.256" gradientUnits="userSpaceOnUse"><stop stop-color="#BBB"/><stop offset="1" stop-color="#888"/></linearGradient><linearGradient id="icon-e768d487edeca386__icon-d1f4f669447e5f24__d" x1="8" x2="22.969" y1="8.5" y2="24.467" gradientUnits="userSpaceOnUse"><stop stop-color="#008EE6"/><stop offset="1" stop-color="#006094"/></linearGradient><radialGradient id="icon-7e7dbda56f2e3456__icon-ea7c293775f53c01__b" cx="0" cy="0" r="1" gradientTransform="rotate(56.31 -3.476 15.448) scale(24.7381 21.408)" gradientUnits="userSpaceOnUse"><stop offset=".177" stop-color="#fff"/><stop offset="1" stop-color="#B8B8B8"/></radialGradient></defs></svg>