<svg xmlns="http://www.w3.org/2000/svg" width="48" height="48" fill="currentColor"><path fill="url(#icon-8ff4f29910ff87bb__icon-298115613ce098fa__a)" d="M5 10a5 5 0 0 1 5-5h28a5 5 0 0 1 5 5v28a5 5 0 0 1-5 5H10a5 5 0 0 1-5-5V10Z"/><path fill="url(#icon-ff0533647e2c8513__icon-d77a432be10bb6f2__b)" fill-opacity=".2" d="M5 10a5 5 0 0 1 5-5h28a5 5 0 0 1 5 5v28a5 5 0 0 1-5 5H10a5 5 0 0 1-5-5V10Z"/><path fill="url(#icon-a8d97db9f0b86dbc__icon-6605920e037b2526__c)" fill-rule="evenodd" d="M38 6H10a4 4 0 0 0-4 4v28a4 4 0 0 0 4 4h28a4 4 0 0 0 4-4V10a4 4 0 0 0-4-4ZM10 5a5 5 0 0 0-5 5v28a5 5 0 0 0 5 5h28a5 5 0 0 0 5-5V10a5 5 0 0 0-5-5H10Z" clip-rule="evenodd"/><path fill="url(#icon-aa627321bc7ad756__icon-dafffa7b3a097a83__d)" d="M15.75 12.5A2.75 2.75 0 0 0 13 15.25v6.19a1.89 1.89 0 0 1-1.432 1.833.748.748 0 0 0-.33 1.277.747.747 0 0 0 .512.201c.69 0 1.25.56 1.25 1.25v6.19a3.39 3.39 0 0 0 2.568 3.288.75.75 0 0 0 .364-1.455A1.89 1.89 0 0 1 14.5 32.19v-6.189c0-.863-.398-1.634-1.02-2.138a3.388 3.388 0 0 0 1.02-2.424V15.25c0-.69.56-1.25 1.25-1.25a.75.75 0 0 0 0-1.5Z"/><path fill="url(#icon-568d6f7218529860__icon-6534670ea8a0ad13__e)" d="M35 15.25a2.75 2.75 0 0 0-2.75-2.75.75.75 0 0 0 0 1.5c.69 0 1.25.56 1.25 1.25v6.19c0 .936.384 1.801 1.02 2.423a2.745 2.745 0 0 0-1.02 2.138v6.19a1.89 1.89 0 0 1-1.432 1.833.75.75 0 0 0 .364 1.455A3.39 3.39 0 0 0 35 32.19v-6.189c0-.69.56-1.25 1.25-1.25a.757.757 0 0 0 .511-.201.747.747 0 0 0 .151-.901.748.748 0 0 0-.48-.376A1.89 1.89 0 0 1 35 21.44V15.25Z"/><path fill="url(#icon-7911f7f5f33e535e__icon-968c10b6a9ee6542__f)" d="M29.462 16.905c.326.256.386.73.133 1.057L24.947 24l4.648 6.037a.758.758 0 0 1-.133 1.058.742.742 0 0 1-1.047-.131L24 25.229l-4.415 5.734a.742.742 0 0 1-1.047.13.758.758 0 0 1-.133-1.057L23.053 24l-4.648-6.037a.759.759 0 0 1 .133-1.057.742.742 0 0 1 1.047.13L24 22.77l4.415-5.734a.742.742 0 0 1 1.047-.13Z"/><defs><linearGradient id="icon-8ff4f29910ff87bb__icon-298115613ce098fa__a" x1="15.556" x2="20.362" y1="5" y2="43.455" gradientUnits="userSpaceOnUse"><stop stop-color="#fff"/><stop offset="1" stop-color="#EBEBEB"/></linearGradient><linearGradient id="icon-a8d97db9f0b86dbc__icon-6605920e037b2526__c" x1="17.271" x2="22.387" y1="5" y2="43.373" gradientUnits="userSpaceOnUse"><stop stop-color="#BBB"/><stop offset="1" stop-color="#888"/></linearGradient><linearGradient id="icon-aa627321bc7ad756__icon-dafffa7b3a097a83__d" x1="11" x2="33.83" y1="12.5" y2="38.306" gradientUnits="userSpaceOnUse"><stop stop-color="#008EE6"/><stop offset="1" stop-color="#006094"/></linearGradient><linearGradient id="icon-568d6f7218529860__icon-6534670ea8a0ad13__e" x1="11" x2="33.83" y1="12.5" y2="38.306" gradientUnits="userSpaceOnUse"><stop stop-color="#008EE6"/><stop offset="1" stop-color="#006094"/></linearGradient><linearGradient id="icon-7911f7f5f33e535e__icon-968c10b6a9ee6542__f" x1="11" x2="33.83" y1="12.5" y2="38.306" gradientUnits="userSpaceOnUse"><stop stop-color="#008EE6"/><stop offset="1" stop-color="#006094"/></linearGradient><radialGradient id="icon-ff0533647e2c8513__icon-d77a432be10bb6f2__b" cx="0" cy="0" r="1" gradientTransform="rotate(56.31 -5.347 23.46) scale(36.1557 31.2886)" gradientUnits="userSpaceOnUse"><stop offset=".177" stop-color="#fff"/><stop offset="1" stop-color="#B8B8B8"/></radialGradient></defs></svg>