<svg xmlns="http://www.w3.org/2000/svg" width="16" height="16" fill="currentColor"><g clip-path="url(#icon-d15837f22ae60d4f__icon-92b93c9c92cbd168__a)"><path d="M9.001 2.5a1.5 1.5 0 0 1 1.5-1.5h4a1.5 1.5 0 0 1 1.5 1.5V3h-7v-.5ZM13.001 8v2.879l-1-1V8h-1.5a1.5 1.5 0 0 1-.446-.068l-.986-.986A1.5 1.5 0 0 1 9 6.5V4h7v2.5a1.5 1.5 0 0 1-1.5 1.5h-1.5ZM11.77 12.476l2.377 2.378a.5.5 0 1 0 .707-.707l-13-13a.5.5 0 1 0-.707.707l9.647 9.646H8V11h-7v2.5a1.5 1.5 0 0 0 1.5 1.5h4a1.5 1.5 0 0 0 1.5-1.5v-1h3.5c.092 0 .182-.008.269-.024Z"/><path d="M2.501 8a1.5 1.5 0 0 0-1.5 1.5v.5h7v-.5a1.5 1.5 0 0 0-1.5-1.5h-4Z"/></g><defs><clipPath id="icon-d15837f22ae60d4f__icon-92b93c9c92cbd168__a"><path d="M0 0h16v16H0z"/></clipPath></defs></svg>