<svg xmlns="http://www.w3.org/2000/svg" width="16" height="16" fill="currentColor"><path d="M6.95 7.276a.5.5 0 0 0-.895 0L5.193 9h-.685a.5.5 0 0 0 0 1h.994a.5.5 0 0 0 .448-.276l.552-1.106 1.053 2.106a.5.5 0 0 0 .847.076l1.155-1.539.592.593a.5.5 0 0 0 .353.146h1.021a.5.5 0 1 0 0-1h-.813l-.854-.854a.5.5 0 0 0-.754.054L8.088 9.553 6.95 7.276Z"/><path d="M2 4.5A2.5 2.5 0 0 1 4.5 2h7A2.5 2.5 0 0 1 14 4.5v7a2.5 2.5 0 0 1-2.5 2.5h-7A2.5 2.5 0 0 1 2 11.5v-7ZM3 5h10v-.5A1.5 1.5 0 0 0 11.5 3h-7A1.5 1.5 0 0 0 3 4.5V5Zm10 1H3v5.5A1.5 1.5 0 0 0 4.5 13h7a1.5 1.5 0 0 0 1.5-1.5V6Z"/></svg>