<svg xmlns="http://www.w3.org/2000/svg" width="16" height="16" fill="currentColor"><g clip-path="url(#icon-acb0f387e2563a9c__icon-ae64206791c023b6__a)"><path d="M13.001 8v2.879l-1-1V8h-1.5a1.5 1.5 0 0 1-.446-.068l-.986-.986A1.5 1.5 0 0 1 9 6.5v-4a1.5 1.5 0 0 1 1.5-1.5h4a1.5 1.5 0 0 1 1.5 1.5v4a1.5 1.5 0 0 1-1.5 1.5h-1.5Zm2-1.5V4h-5v2.5a.5.5 0 0 0 .5.5h4a.5.5 0 0 0 .5-.5Zm-5-4V3h5v-.5a.5.5 0 0 0-.5-.5h-4a.5.5 0 0 0-.5.5ZM11.77 12.476l2.377 2.378a.5.5 0 1 0 .707-.707l-13-13a.5.5 0 1 0-.707.707l9.647 9.646H8v-2a1.5 1.5 0 0 0-1.5-1.5h-4a1.5 1.5 0 0 0-1.5 1.5v4a1.5 1.5 0 0 0 1.5 1.5h4a1.5 1.5 0 0 0 1.5-1.5v-1h3.5c.092 0 .182-.008.269-.024ZM7 13.5a.5.5 0 0 1-.5.5h-4a.5.5 0 0 1-.5-.5V11h5v2.5Zm-5-4a.5.5 0 0 1 .5-.5h4a.5.5 0 0 1 .5.5v.5h-5v-.5Z"/></g><defs><clipPath id="icon-acb0f387e2563a9c__icon-ae64206791c023b6__a"><path d="M0 0h16v16H0z"/></clipPath></defs></svg>