<svg xmlns="http://www.w3.org/2000/svg" width="20" height="20" fill="currentColor"><g clip-path="url(#icon-e1c6519ed9be2593__icon-bec64863b4f23f10__a)"><path d="M12.501 0a1.5 1.5 0 0 0-1.5 1.5V2h-5.5a1.5 1.5 0 0 0-1.5 1.5V6h-2.5a1.5 1.5 0 0 0-1.5 1.5v5a1.5 1.5 0 0 0 1.5 1.5h2.5v2.5a1.5 1.5 0 0 0 1.5 1.5h5.5v.5a1.5 1.5 0 0 0 1.5 1.5h5a1.5 1.5 0 0 0 1.5-1.5v-5a1.5 1.5 0 0 0-1.5-1.5h-5a1.5 1.5 0 0 0-1.5 1.5V17h-5.5a.5.5 0 0 1-.5-.5V14h1.5a1.5 1.5 0 0 0 1.5-1.5v-5a1.5 1.5 0 0 0-1.5-1.5h-1.5V3.5a.5.5 0 0 1 .5-.5h5.5v3.5a1.5 1.5 0 0 0 1.5 1.5h5a1.5 1.5 0 0 0 1.5-1.5v-5a1.5 1.5 0 0 0-1.5-1.5h-5Zm-.5 3h6v3.5a.5.5 0 0 1-.5.5h-5a.5.5 0 0 1-.5-.5V3Zm6-1h-6v-.5a.5.5 0 0 1 .5-.5h5a.5.5 0 0 1 .5.5V2Zm-6 16.5V15h6v3.5a.5.5 0 0 1-.5.5h-5a.5.5 0 0 1-.5-.5Zm0-4.5v-.5a.5.5 0 0 1 .5-.5h5a.5.5 0 0 1 .5.5v.5h-6Zm-11-5h6v3.5a.5.5 0 0 1-.5.5h-5a.5.5 0 0 1-.5-.5V9Zm6-1h-6v-.5a.5.5 0 0 1 .5-.5h5a.5.5 0 0 1 .5.5V8Z"/></g><defs><clipPath id="icon-e1c6519ed9be2593__icon-bec64863b4f23f10__a"><path d="M0 0h20v20H0z"/></clipPath></defs></svg>