<svg xmlns="http://www.w3.org/2000/svg" width="24" height="24" fill="currentColor"><path d="M12.75 10.75a.75.75 0 0 0-1.5 0v2l-1.601-.924a.75.75 0 0 0-.75 1.3l1.6.923-1.778 1.027a.75.75 0 1 0 .75 1.3l1.778-1.028v1.902a.75.75 0 0 0 1.5 0v-1.902l1.78 1.027a.75.75 0 0 0 .75-1.299l-1.78-1.027 1.601-.924a.75.75 0 0 0-.75-1.299l-1.6.924v-2Z"/><path d="M3 6.25A3.25 3.25 0 0 1 6.25 3h11.5A3.25 3.25 0 0 1 21 6.25v11.5A3.25 3.25 0 0 1 17.75 21H6.25A3.25 3.25 0 0 1 3 17.75V6.25ZM4.5 7h15v-.75a1.75 1.75 0 0 0-1.75-1.75H6.25A1.75 1.75 0 0 0 4.5 6.25V7Zm15 1.5h-15v9.25c0 .966.784 1.75 1.75 1.75h11.5a1.75 1.75 0 0 0 1.75-1.75V8.5Z"/></svg>