<svg xmlns="http://www.w3.org/2000/svg" width="16" height="16" fill="currentColor"><path d="M10.5 1A1.5 1.5 0 0 0 9 2.5v4A1.5 1.5 0 0 0 10.5 8H12v3a.5.5 0 0 1-.5.5H8v-2A1.5 1.5 0 0 0 6.5 8h-4A1.5 1.5 0 0 0 1 9.5v4A1.5 1.5 0 0 0 2.5 15h4A1.5 1.5 0 0 0 8 13.5v-1h3.5A1.5 1.5 0 0 0 13 11V8h1.5A1.5 1.5 0 0 0 16 6.5v-4A1.5 1.5 0 0 0 14.5 1h-4ZM15 6.5a.5.5 0 0 1-.5.5h-4a.5.5 0 0 1-.5-.5V4h5v2.5Zm-5-4a.5.5 0 0 1 .5-.5h4a.5.5 0 0 1 .5.5V3h-5v-.5Zm-3 11a.5.5 0 0 1-.5.5h-4a.5.5 0 0 1-.5-.5V11h5v2.5Zm-5-4a.5.5 0 0 1 .5-.5h4a.5.5 0 0 1 .5.5v.5H2v-.5Z"/></svg>