<svg xmlns="http://www.w3.org/2000/svg" width="20" height="20" fill="currentColor"><path d="m7.458 11.752 1-2.002 1.585 3.963a.5.5 0 0 0 .91.038l1.552-3.103.552 1.104a.5.5 0 0 0 .447.277h.996a.5.5 0 0 0 0-1h-.688l-.86-1.722a.5.5 0 0 0-.894 0l-1.5 3.002-1.585-3.964a.502.502 0 0 0-.443-.313.5.5 0 0 0-.467.275l-1.36 2.722H5.492a.5.5 0 0 0 0 1h1.52a.5.5 0 0 0 .446-.277Z"/><path d="M3 6a3 3 0 0 1 3-3h8a3 3 0 0 1 3 3v8a3 3 0 0 1-3 3H6a3 3 0 0 1-3-3V6Zm3-2a2 2 0 0 0-2 2h12a2 2 0 0 0-2-2H6Zm10 3H4v7a2 2 0 0 0 2 2h8a2 2 0 0 0 2-2V7Z"/></svg>