<svg xmlns="http://www.w3.org/2000/svg" width="16" height="16" fill="currentColor"><path d="M2 4.5A2.5 2.5 0 0 1 4.5 2h7A2.5 2.5 0 0 1 14 4.5v7a2.5 2.5 0 0 1-2.5 2.5h-7A2.5 2.5 0 0 1 2 11.5v-7ZM3 6v5.5A1.5 1.5 0 0 0 4.5 13h7a1.5 1.5 0 0 0 1.5-1.5V6H3Z"/><path d="M6.502 7a.5.5 0 0 1 .448.276l1.138 2.277L9.102 8.2a.5.5 0 0 1 .754-.054L10.71 9h.813a.5.5 0 1 1 0 1h-1.02a.5.5 0 0 1-.354-.146l-.592-.593L8.402 10.8a.5.5 0 0 1-.847-.076L6.502 8.618 5.95 9.724a.5.5 0 0 1-.448.276h-.994a.5.5 0 1 1 0-1h.685l.862-1.724A.5.5 0 0 1 6.502 7Z"/></svg>