<svg xmlns="http://www.w3.org/2000/svg" width="20" height="20" fill="currentColor"><path d="M10.353 8.146a.5.5 0 0 1 .146.354v2.123l1.848-1.067a.5.5 0 0 1 .5.866L11 11.489l1.848 1.067a.5.5 0 0 1-.5.866L10.5 12.355V14.5a.5.5 0 0 1-1 0v-2.145l-1.848 1.067a.5.5 0 1 1-.5-.866L9 11.489l-1.848-1.067a.5.5 0 0 1 .5-.866L9.5 10.623V8.5a.5.5 0 0 1 .854-.354Z"/><path d="M3 6a3 3 0 0 1 3-3h8a3 3 0 0 1 3 3v8a3 3 0 0 1-3 3H6a3 3 0 0 1-3-3V6Zm3-2a2 2 0 0 0-2 2h12a2 2 0 0 0-2-2H6Zm10 3H4v7a2 2 0 0 0 2 2h8a2 2 0 0 0 2-2V7Z"/></svg>