<svg xmlns="http://www.w3.org/2000/svg" width="20" height="20" fill="currentColor"><path d="M9.649 8.148A.505.505 0 0 1 10 8a.505.505 0 0 1 .5.5c.003.21.047.417.132.609.084.19.192.369.32.532.11.125.243.268.4.429.16.165.335.314.523.446.183.13.376.244.578.343.17.088.356.136.547.141a.5.5 0 0 1 0 1 1.267 1.267 0 0 0-.554.141 3.85 3.85 0 0 0-.578.351 4.36 4.36 0 0 0-.523.446 5.328 5.328 0 0 0-.391.429c-.132.162-.242.34-.328.531a1.472 1.472 0 0 0-.125.6.5.5 0 0 1-1 0 1.546 1.546 0 0 0-.133-.6 2.543 2.543 0 0 0-.32-.531 5.22 5.22 0 0 0-.923-.883 3.344 3.344 0 0 0-.57-.343A1.3 1.3 0 0 0 7.001 12a.5.5 0 0 1 0-1c.193-.01.381-.06.555-.143.205-.092.399-.208.578-.343.184-.137.358-.286.523-.446.14-.133.272-.276.391-.429a2.55 2.55 0 0 0 .328-.539c.083-.189.126-.393.125-.6a.505.505 0 0 1 .148-.352Zm.516 2.108a3.28 3.28 0 0 1-.164-.228l-.001.001a4.842 4.842 0 0 1-.649.761 6.618 6.618 0 0 1-.619.527 4.361 4.361 0 0 1-.271.187 6.098 6.098 0 0 1 .882.709c.18.17.347.354.5.55.055.069.106.141.155.215.056-.082.116-.162.179-.24a6.054 6.054 0 0 1 1.101-1.053c.089-.065.18-.127.271-.185a4.646 4.646 0 0 1-.916-.733c-.17-.176-.314-.331-.432-.467l-.019-.022-.017-.022Z"/><path d="M6.001 3a3 3 0 0 0-3 3v8a3 3 0 0 0 3 3h8a3 3 0 0 0 3-3V6a3 3 0 0 0-3-3h-8Zm-2 11V7h12v7a2 2 0 0 1-2 2h-8a2 2 0 0 1-2-2Z"/></svg>