<svg xmlns="http://www.w3.org/2000/svg" width="20" height="20" fill="currentColor"><path d="M16.001 10V7h-12v7a2 2 0 0 0 2 2h8v1h-8a3 3 0 0 1-3-3V6a3 3 0 0 1 3-3h8a3 3 0 0 1 3 3v4h-1Z"/><path d="M5.501 9.5a.97.97 0 0 1 .289-.7c.093-.091.201-.165.32-.22a.856.856 0 0 1 .391-.08c.132 0 .262.026.383.078.118.052.226.123.32.21a1.006 1.006 0 0 1-.312 1.633.83.83 0 0 1-.391.079.97.97 0 0 1-.391-.078 1.103 1.103 0 0 1-.32-.211.841.841 0 0 1-.211-.311 1.2 1.2 0 0 1-.078-.4ZM5.501 13.5a.97.97 0 0 1 .289-.703 1.1 1.1 0 0 1 .32-.218.844.844 0 0 1 .391-.08.94.94 0 0 1 .383.08c.118.05.226.122.32.21.095.09.17.2.219.32a1.006 1.006 0 0 1-.531 1.313.83.83 0 0 1-.391.078.97.97 0 0 1-.391-.078 1.103 1.103 0 0 1-.32-.211.842.842 0 0 1-.211-.312 1.2 1.2 0 0 1-.078-.4ZM9.55 10a.556.556 0 0 1-.387-.148v-.004a.462.462 0 0 1 0-.7A.556.556 0 0 1 9.55 9h4.4a.556.556 0 0 1 .387.152.463.463 0 0 1 0 .7.556.556 0 0 1-.364.148H9.55ZM12.567 14l-1.025-1H9.55a.561.561 0 0 0-.505.306.462.462 0 0 0 .118.542v.004A.56.56 0 0 0 9.55 14h3.017ZM12.28 12.28l.915.915.012.012L15 15v2a.249.249 0 0 0 .138.223l1.5.75A.25.25 0 0 0 17 17.75V15l2.72-2.72a.75.75 0 0 0-.53-1.28H12.81a.75.75 0 0 0-.53 1.28Z"/></svg>