<svg xmlns="http://www.w3.org/2000/svg" width="32" height="32" fill="currentColor"><path d="M7.501 3a4.5 4.5 0 0 0-4.5 4.5v17a4.5 4.5 0 0 0 4.5 4.5h8.792a9.014 9.014 0 0 1-1.356-2H7.5a2.5 2.5 0 0 1-2.5-2.5V11h22v3.935c.728.362 1.4.82 2 1.357V7.5a4.5 4.5 0 0 0-4.5-4.5h-17Zm-2.5 4.5a2.5 2.5 0 0 1 2.5-2.5h17a2.5 2.5 0 0 1 2.5 2.5V9h-22V7.5Z"/><path d="M23.001 15.5a7.5 7.5 0 1 1 0 15 7.5 7.5 0 0 1 0-15Zm4.53 4.72a.75.75 0 0 0-1.06 0l-4.72 4.72-1.97-1.97a.75.75 0 0 0-1.06 1.06l2.5 2.5a.75.75 0 0 0 1.06 0l5.25-5.25a.75.75 0 0 0 0-1.06Z"/></svg>