<svg xmlns="http://www.w3.org/2000/svg" width="20" height="20" fill="currentColor"><path d="M6.001 3a3 3 0 0 0-3 3v8a3 3 0 0 0 3 3h3.6a5.464 5.464 0 0 1-.393-1H6.001a2 2 0 0 1-2-2V7h12v2.207c.349.099.683.23 1 .393V6a3 3 0 0 0-3-3h-8Z"/><path d="M10.953 9.641c.098.112.216.24.354.381a5.532 5.532 0 0 0-.76.655c-.133-.14-.248-.265-.346-.377l-.019-.022-.017-.022a3.28 3.28 0 0 1-.164-.228l-.001.001a4.842 4.842 0 0 1-.649.761 6.618 6.618 0 0 1-.619.527 4.361 4.361 0 0 1-.271.187 6.098 6.098 0 0 1 .99.814c-.154.356-.272.73-.348 1.12a3.957 3.957 0 0 0-.454-.509 5.22 5.22 0 0 0-.523-.445 3.344 3.344 0 0 0-.57-.343A1.3 1.3 0 0 0 7.001 12a.5.5 0 0 1 0-1c.193-.01.381-.06.555-.143.205-.092.399-.208.578-.343.184-.137.358-.286.523-.446.14-.133.272-.276.391-.429a2.55 2.55 0 0 0 .328-.539c.083-.189.126-.393.125-.6a.505.505 0 0 1 .5-.5.505.505 0 0 1 .5.5c.003.21.047.417.132.609.084.19.192.369.32.532ZM17.001 18.242a4.5 4.5 0 1 1-5-7.483 4.5 4.5 0 0 1 5 7.483Zm-2.147-6.096a.5.5 0 0 0-.853.354V14h-1.5a.5.5 0 0 0 0 1h1.5v1.5a.5.5 0 0 0 1 0V15h1.5a.5.5 0 0 0 0-1h-1.5v-1.5a.5.5 0 0 0-.146-.354Z"/></svg>