<?xml version="1.0" encoding="utf-8"?><svg version="1.1" id="Layer_1" xmlns="http://www.w3.org/2000/svg" xmlns:xlink="http://www.w3.org/1999/xlink" x="0px" y="0px" viewBox="0 90 612 612" style="enable-background:new 0 90 612 612" xml:space="preserve"><style type="text/css"><![CDATA[
	.st0{opacity:0.2;enable-background:new    ;}
	.st1{fill:#28A8EA;}
	.st2{fill:#FFFFFF;}
	.st3{fill:none;}
	.st4{fill:#0078D4;}
	.st5{fill:#0358A7;}
	.st6{opacity:0.1;enable-background:new    ;}
]]></style><title>OfficeCore10_32x_24x_20x_16x_01-22-2019</title><g id="STYLE_COLOR"><path class="st1" d="M220.9,275.83c-2.4-2.56-2.85-6.4-1.09-9.44c0.33-0.58,0.74-1.11,1.21-1.59l163.11-163.36 c6.23-6.23,16.33-6.23,22.56-0.01c0.15,0.15,0.3,0.3,0.44,0.46c47.86,51.76,82.34,114.42,100.46,182.55v0L408.86,396l-146.82-45.98 C254.53,322.33,240.42,296.87,220.9,275.83L220.9,275.83z"/><path class="st4" d="M585.75,280.52c-2.03-8.55-10.6-13.84-19.15-11.82c-0.16,0.04-0.31,0.08-0.47,0.12l-304.12,81.23 c8.1,30.29,8.12,62.16,0.06,92.46l101.43,126.35l144.37-60.28l58.18,15.64c8.48,2.3,17.22-2.72,19.52-11.2 c0.04-0.16,0.08-0.32,0.12-0.48C603.39,436.21,603.41,356.85,585.75,280.52z"/><path class="st5" d="M262.07,442.51c-7.39,27.63-21.37,53.05-40.73,74.1c-3.01,3.13-2.95,8.09,0.12,11.16L384.5,690.56 c6.23,6.22,16.32,6.21,22.54-0.01c0.14-0.14,0.27-0.28,0.4-0.42c47.75-51.44,82.22-113.76,100.42-181.55L262.07,442.51z"/><path class="st6" d="M344.25,561.75V249.37c-0.04-14.07-11.43-25.46-25.5-25.5h-57.26l-40.47,40.53c-0.47,0.48-0.88,1.01-1.21,1.59 c-1.76,3.04-1.32,6.88,1.09,9.44c19.52,21.03,33.64,46.49,41.13,74.19l0.06,0l-0.09,0.02c8.1,30.29,8.12,62.16,0.06,92.46 c-2.11,7.88-4.76,15.6-7.93,23.11c-7.93,18.75-19.02,36-32.8,50.98c-3.01,3.13-2.95,8.09,0.12,11.16l59.97,59.88h37.32 C332.82,587.21,344.21,575.82,344.25,561.75z"/><path class="st0" d="M325.13,580.87V268.5c-0.04-14.07-11.43-25.46-25.5-25.5h-57.23l-21.37,21.41c-0.47,0.48-0.88,1.01-1.21,1.59 c-1.76,3.04-1.32,6.88,1.09,9.44c19.52,21.03,33.64,46.49,41.13,74.19l0.06,0l-0.09,0.02c8.1,30.29,8.12,62.16,0.06,92.46 c-2.11,7.88-4.76,15.6-7.93,23.11c-7.93,18.75-19.02,36-32.8,50.98c-3.01,3.13-2.95,8.09,0.12,11.16l79.1,78.98 C314.25,605.81,325.08,594.58,325.13,580.87z"/><path class="st0" d="M325.13,542.62V268.5c-0.04-14.07-11.43-25.46-25.5-25.5h-57.23l-21.37,21.41c-0.47,0.48-0.88,1.01-1.21,1.59 c-1.76,3.04-1.32,6.88,1.09,9.44c19.52,21.03,33.64,46.49,41.13,74.19l0.06,0l-0.09,0.02c8.1,30.29,8.12,62.16,0.06,92.46 c-2.11,7.88-4.76,15.6-7.93,23.11c-7.93,18.75-19.02,36-32.8,50.98c-3.01,3.13-2.95,8.09,0.12,11.16l40.82,40.76h37.35 C313.69,568.08,325.08,556.69,325.13,542.62z"/><path class="st0" d="M306,542.62V268.5c-0.04-14.07-11.43-25.46-25.5-25.5h-38.11l-21.37,21.41c-0.47,0.48-0.88,1.01-1.21,1.59 c-1.76,3.04-1.32,6.88,1.09,9.44c19.52,21.03,33.64,46.49,41.13,74.19l0.06,0l-0.09,0.02c8.1,30.29,8.12,62.16,0.06,92.46 c-2.11,7.88-4.76,15.6-7.93,23.11c-7.93,18.75-19.02,36-32.8,50.98c-3.01,3.13-2.95,8.09,0.12,11.16l40.82,40.76h18.22 C294.57,568.08,305.96,556.69,306,542.62z"/><path id="Back_Plate" class="st4" d="M25.5,243h255c14.08,0,25.5,11.42,25.5,25.5v255c0,14.08-11.42,25.5-25.5,25.5h-255 C11.42,549,0,537.58,0,523.5v-255C0,254.42,11.42,243,25.5,243L25.5,243z"/><path class="st2" d="M149.67,382c1.78,3.68,3.21,7.52,4.27,11.47h0.4c0.96-3.87,2.35-7.63,4.13-11.2l38.68-72.86 c2.95-5.56,8.73-9.03,15.02-9.03l0,0c9.39,0,17.01,7.62,17.01,17.01c0,2.97-0.78,5.89-2.26,8.47l-53.52,93.15 c-1.48,2.58-2.26,5.5-2.26,8.47v47.14c0,9.39-7.61,17.01-17.01,17.01h-3.46c-9.39,0-17.01-7.61-17.01-17.01l0,0v-46.58 c0-2.9-0.74-5.76-2.16-8.29l-52.53-94.07c-4.58-8.2-1.64-18.56,6.56-23.14c2.53-1.42,5.39-2.16,8.29-2.16h3.34 c6.36,0,12.19,3.55,15.11,9.2L149.67,382z"/><rect y="90" class="st3" width="612" height="612"/></g></svg>